*
G04 Mass Parameters ***
*
G04 Image ***
*
%INC:\SRC\BSM-2\SCHEMATICS\BSM-2.DRD*%
%ICAS*%
%MOIN*%
%IPPOS*%
%ASAXBY*%
G74*%FSLAN2X34Y34*%
*
G04 Aperture Definitions ***
*
%ADD10R,0.0500X0.0500*%
%ADD11C,0.0520*%
%ADD12R,0.0520X0.0520*%
%ADD13R,0.0320X0.0380*%
%ADD14R,0.0600X0.0600*%
%ADD15R,0.0740X0.0480*%
%ADD16C,0.0570*%
%ADD17R,0.0570X0.0570*%
%ADD18R,0.0900X0.1000*%
%ADD19C,0.0740*%
%ADD20C,0.0580*%
%ADD21R,0.0580X0.0580*%
%ADD22C,0.0748*%
%ADD23R,0.0748X0.0748*%
%ADD24R,0.1968X0.1575*%
%ADD25R,0.0720X0.0780*%
%ADD26R,0.0780X0.0720*%
%ADD27R,0.0500X0.0340*%
%ADD28R,0.0400X0.0340*%
%ADD29R,0.0340X0.0500*%
%ADD30R,0.0340X0.0400*%
%ADD31R,0.0640X0.1000*%
%ADD32C,0.2362*%
%ADD33R,0.0600X0.0700*%
%ADD34O,0.0860X0.0240*%
%ADD35R,0.0860X0.0240*%
%ADD36O,0.0110X0.0700*%
%ADD37R,0.0110X0.0700*%
%ADD38O,0.0700X0.0110*%
%ADD39R,0.0700X0.0110*%
%ADD40R,0.1181X0.0984*%
%ADD41C,0.0680*%
%ADD42C,0.0840*%
%ADD43R,0.0984X0.0275*%
%ADD44R,0.1378X0.0275*%
%ADD45R,0.1496X0.0433*%
%ADD46O,0.0250X0.0940*%
%ADD47R,0.0250X0.0940*%
%ADD48C,0.1470*%
%ADD49R,0.0750X0.0750*%
%ADD50C,0.0750*%
%ADD51O,0.0940X0.0250*%
%ADD52R,0.0940X0.0250*%
%ADD53R,0.0950X0.1220*%
%ADD54R,0.0750X0.0240*%
%ADD55R,0.0550X0.0550*%
%ADD56C,0.0550*%
%ADD57R,0.0177X0.0701*%
%ADD58O,0.0787X0.0118*%
%ADD59O,0.0118X0.0787*%
%ADD60R,0.2165X0.0787*%
%ADD61C,0.0280*%
%ADD62C,0.0100*%
%ADD63C,0.0080*%
%ADD64C,0.0010*%
%ADD65C,0.0120*%
%ADD66C,0.0375*%
%ADD67C,0.0280*%
%ADD68C,0.0500*%
%ADD69C,0.0280*%
%ADD70C,0.0520*%
%ADD71R,0.0520X0.0520*%
%ADD72C,0.0570*%
%ADD73R,0.0570X0.0570*%
%ADD74C,0.0740*%
%ADD75C,0.0580*%
%ADD76R,0.0580X0.0580*%
%ADD77C,0.0748*%
%ADD78R,0.0748X0.0748*%
%ADD79R,0.0500X0.0670*%
%ADD80C,0.2362*%
%ADD81C,0.0680*%
%ADD82C,0.0840*%
%ADD83C,0.1470*%
%ADD84R,0.0750X0.0750*%
%ADD85C,0.0750*%
%ADD86R,0.0550X0.0550*%
%ADD87C,0.0550*%
%ADD88C,0.0280*%
%ADD89C,0.0280*%
%ADD90R,0.0500X0.0500*%
%ADD91R,0.0320X0.0380*%
%ADD92R,0.0600X0.0600*%
%ADD93R,0.0740X0.0480*%
%ADD94R,0.0680X0.0680*%
%ADD95R,0.0900X0.1000*%
%ADD96C,0.0866*%
%ADD97R,0.0866X0.0866*%
%ADD98R,0.1968X0.1575*%
%ADD99R,0.0720X0.0780*%
%ADD100R,0.0780X0.0720*%
%ADD101R,0.0500X0.0340*%
%ADD102R,0.0400X0.0340*%
%ADD103R,0.0340X0.0500*%
%ADD104R,0.0340X0.0400*%
%ADD105R,0.0640X0.1000*%
%ADD106R,0.0600X0.0700*%
%ADD107O,0.0860X0.0240*%
%ADD108R,0.0860X0.0240*%
%ADD109O,0.0110X0.0700*%
%ADD110R,0.0110X0.0700*%
%ADD111O,0.0700X0.0110*%
%ADD112R,0.0700X0.0110*%
%ADD113R,0.1181X0.0984*%
%ADD114R,0.0984X0.0275*%
%ADD115R,0.1378X0.0275*%
%ADD116R,0.1496X0.0433*%
%ADD117O,0.0250X0.0940*%
%ADD118R,0.0250X0.0940*%
%ADD119O,0.0940X0.0250*%
%ADD120R,0.0940X0.0250*%
%ADD121R,0.0950X0.1220*%
%ADD122R,0.0750X0.0240*%
%ADD123C,0.2450*%
%ADD124R,0.0177X0.0701*%
%ADD125O,0.0787X0.0118*%
%ADD126O,0.0118X0.0787*%
%ADD127R,0.2165X0.0787*%
%ADD128C,0.0160*%
%ADD129C,0.0160*%
%ADD130C,0.0160*%
%ADD131C,0.0079*%
%ADD132C,0.0031*%
%ADD133C,0.0060*%
%ADD134C,0.0118*%
%ADD135C,0.0040*%
%ADD136C,0.0039*%
%ADD137C,0.0157*%
*
G04 Plot Data ***
*
G54D62*
G01X0024625Y-0025833D02*
X0024125D01*
X0024042Y-0025667D01*
Y-0025500D01*
X0024125Y-0025333D01*
X0024625D01*
X0024708Y-0025500D01*
Y-0025667D01*
X0024375Y-0026333D01*
X0023675Y-0025833D02*
X0023758Y-0025667D01*
Y-0025500D01*
X0023675Y-0025333D01*
X0023175D01*
X0023092Y-0025500D01*
Y-0025667D01*
X0023175Y-0025833D01*
X0023675D01*
X0023758Y-0026000D01*
Y-0026167D01*
X0023675Y-0026333D01*
X0023175D01*
X0023092Y-0026167D01*
Y-0026000D01*
X0023175Y-0025833D01*
X0022142Y-0026167D02*
X0022225Y-0026333D01*
X0022725D01*
X0022808Y-0026167D01*
Y-0025833D01*
X0022642Y-0025667D01*
X0022142D01*
Y-0025333D01*
X0022808D01*
X0012312Y-0026333D02*
X0011729D01*
Y-0025333D01*
X0011446Y-0026000D02*
X0010779D01*
X0011446Y-0026333D02*
Y-0025833D01*
X0011196Y-0025333D01*
X0011029D01*
X0010779Y-0025833D01*
Y-0026333D01*
X0010162D02*
Y-0025333D01*
X0010496D02*
X0009829D01*
X0008962Y-0026333D02*
X0008879Y-0026167D01*
Y-0025500D01*
X0008962Y-0025333D01*
X0009462D01*
X0009546Y-0025500D01*
Y-0026167D01*
X0009462Y-0026333D01*
X0008962D01*
X0008262D02*
Y-0025333D01*
X0008596D02*
X0007929D01*
X0024708Y-0024472D02*
X0024264D01*
X0024708Y-0024028D01*
Y-0023917D01*
X0024653Y-0023806D01*
X0024319D01*
X0024264Y-0023917D01*
X0010647Y-0024361D02*
X0010703Y-0024472D01*
X0011036D01*
X0011092Y-0024361D01*
Y-0024139D01*
X0010980Y-0024028D01*
X0010647D01*
Y-0023806D01*
X0011092D01*
X0010392Y-0024250D02*
X0009947D01*
X0010169Y-0023806D01*
X0010280D01*
Y-0024472D01*
X0009692D02*
X0009247D01*
X0009692Y-0024028D01*
Y-0023917D01*
X0009636Y-0023806D01*
X0009303D01*
X0009247Y-0023917D01*
X0008881Y-0024472D02*
X0008992D01*
Y-0024361D01*
X0008881D01*
Y-0024472D01*
X0008236D02*
X0008125Y-0024361D01*
X0008069Y-0024250D01*
Y-0024028D01*
X0008125Y-0023917D01*
X0008236Y-0023806D01*
X0008347D01*
X0008458Y-0023917D01*
X0008514Y-0024028D01*
Y-0024250D01*
X0008458Y-0024361D01*
X0008347Y-0024472D01*
X0008236D01*
X0024708Y-0022972D02*
X0024486D01*
X0024597D02*
Y-0022306D01*
X0024486Y-0022417D01*
X0010758Y-0022972D02*
X0011092Y-0022306D01*
X0010647D01*
X0010392Y-0022750D02*
X0009947D01*
X0010169Y-0022306D01*
X0010280D01*
Y-0022972D01*
X0009692D02*
X0009469D01*
X0009581D02*
Y-0022306D01*
X0009469Y-0022417D01*
X0008992Y-0022972D02*
X0009103D01*
Y-0022861D01*
X0008992D01*
Y-0022972D01*
X0008347D02*
X0008236Y-0022861D01*
X0008181Y-0022750D01*
Y-0022528D01*
X0008236Y-0022417D01*
X0008347Y-0022306D01*
X0008458D01*
X0008569Y-0022417D01*
X0008625Y-0022528D01*
Y-0022750D01*
X0008569Y-0022861D01*
X0008458Y-0022972D01*
X0008347D01*
X0024264Y-0021361D02*
X0024319Y-0021472D01*
X0024653D01*
X0024708Y-0021361D01*
Y-0021139D01*
X0024597Y-0021028D01*
X0024264D01*
Y-0020806D01*
X0024708D01*
X0011092Y-0021472D02*
X0010647D01*
X0011092Y-0021028D01*
Y-0020917D01*
X0011036Y-0020806D01*
X0010703D01*
X0010647Y-0020917D01*
X0010392Y-0021472D02*
X0009947D01*
X0010392Y-0021028D01*
Y-0020917D01*
X0010336Y-0020806D01*
X0010003D01*
X0009947Y-0020917D01*
X0009692Y-0021472D02*
X0009469D01*
X0009581D02*
Y-0020806D01*
X0009469Y-0020917D01*
X0008992Y-0021472D02*
X0009103D01*
Y-0021361D01*
X0008992D01*
Y-0021472D01*
X0008347D02*
X0008236Y-0021361D01*
X0008181Y-0021250D01*
Y-0021028D01*
X0008236Y-0020917D01*
X0008347Y-0020806D01*
X0008458D01*
X0008569Y-0020917D01*
X0008625Y-0021028D01*
Y-0021250D01*
X0008569Y-0021361D01*
X0008458Y-0021472D01*
X0008347D01*
X0024708Y-0019972D02*
X0024486D01*
X0024597D02*
Y-0019306D01*
X0024486Y-0019417D01*
X0010647Y-0019861D02*
X0010758Y-0019972D01*
X0010980D01*
X0011092Y-0019861D01*
Y-0019750D01*
X0010869Y-0019528D01*
X0011092Y-0019306D01*
X0010647D01*
X0010003Y-0019639D02*
X0010336D01*
X0010392Y-0019750D01*
Y-0019861D01*
X0010336Y-0019972D01*
X0010003D01*
X0009947Y-0019861D01*
Y-0019750D01*
X0010169Y-0019306D01*
X0009414Y-0019972D02*
X0009303Y-0019861D01*
X0009247Y-0019750D01*
Y-0019528D01*
X0009303Y-0019417D01*
X0009414Y-0019306D01*
X0009525D01*
X0009636Y-0019417D01*
X0009692Y-0019528D01*
Y-0019750D01*
X0009636Y-0019861D01*
X0009525Y-0019972D01*
X0009414D01*
X0008881D02*
X0008992D01*
Y-0019861D01*
X0008881D01*
Y-0019972D01*
X0008236D02*
X0008125Y-0019861D01*
X0008069Y-0019750D01*
Y-0019528D01*
X0008125Y-0019417D01*
X0008236Y-0019306D01*
X0008347D01*
X0008458Y-0019417D01*
X0008514Y-0019528D01*
Y-0019750D01*
X0008458Y-0019861D01*
X0008347Y-0019972D01*
X0008236D01*
X0024653Y-0018139D02*
X0024708Y-0018028D01*
Y-0017917D01*
X0024653Y-0017806D01*
X0024319D01*
X0024264Y-0017917D01*
Y-0018028D01*
X0024319Y-0018139D01*
X0024653D01*
X0024708Y-0018250D01*
Y-0018361D01*
X0024653Y-0018472D01*
X0024319D01*
X0024264Y-0018361D01*
Y-0018250D01*
X0024319Y-0018139D01*
X0024008Y-0018472D02*
X0023564D01*
X0024008Y-0018028D01*
Y-0017917D01*
X0023953Y-0017806D01*
X0023619D01*
X0023564Y-0017917D01*
X0010647Y-0018361D02*
X0010703Y-0018472D01*
X0011036D01*
X0011092Y-0018361D01*
Y-0018139D01*
X0010980Y-0018028D01*
X0010647D01*
Y-0017806D01*
X0011092D01*
X0009947Y-0018361D02*
X0010003Y-0018472D01*
X0010336D01*
X0010392Y-0018361D01*
Y-0018139D01*
X0010280Y-0018028D01*
X0009947D01*
Y-0017806D01*
X0010392D01*
X0009414Y-0018472D02*
X0009303Y-0018361D01*
X0009247Y-0018250D01*
Y-0018028D01*
X0009303Y-0017917D01*
X0009414Y-0017806D01*
X0009525D01*
X0009636Y-0017917D01*
X0009692Y-0018028D01*
Y-0018250D01*
X0009636Y-0018361D01*
X0009525Y-0018472D01*
X0009414D01*
X0008881D02*
X0008992D01*
Y-0018361D01*
X0008881D01*
Y-0018472D01*
X0008236D02*
X0008125Y-0018361D01*
X0008069Y-0018250D01*
Y-0018028D01*
X0008125Y-0017917D01*
X0008236Y-0017806D01*
X0008347D01*
X0008458Y-0017917D01*
X0008514Y-0018028D01*
Y-0018250D01*
X0008458Y-0018361D01*
X0008347Y-0018472D01*
X0008236D01*
X0024264Y-0016861D02*
X0024375Y-0016972D01*
X0024597D01*
X0024708Y-0016861D01*
Y-0016750D01*
X0024486Y-0016528D01*
X0024708Y-0016306D01*
X0024264D01*
X0011092Y-0016750D02*
X0010647D01*
X0010869Y-0016306D01*
X0010980D01*
Y-0016972D01*
X0009947Y-0016861D02*
X0010003Y-0016972D01*
X0010336D01*
X0010392Y-0016861D01*
Y-0016639D01*
X0010280Y-0016528D01*
X0009947D01*
Y-0016306D01*
X0010392D01*
X0009414Y-0016972D02*
X0009303Y-0016861D01*
X0009247Y-0016750D01*
Y-0016528D01*
X0009303Y-0016417D01*
X0009414Y-0016306D01*
X0009525D01*
X0009636Y-0016417D01*
X0009692Y-0016528D01*
Y-0016750D01*
X0009636Y-0016861D01*
X0009525Y-0016972D01*
X0009414D01*
X0008881D02*
X0008992D01*
Y-0016861D01*
X0008881D01*
Y-0016972D01*
X0008236D02*
X0008125Y-0016861D01*
X0008069Y-0016750D01*
Y-0016528D01*
X0008125Y-0016417D01*
X0008236Y-0016306D01*
X0008347D01*
X0008458Y-0016417D01*
X0008514Y-0016528D01*
Y-0016750D01*
X0008458Y-0016861D01*
X0008347Y-0016972D01*
X0008236D01*
X0024708Y-0015472D02*
X0024486D01*
X0024597D02*
Y-0014806D01*
X0024486Y-0014917D01*
X0010758Y-0015472D02*
X0011092Y-0014806D01*
X0010647D01*
X0010392Y-0015250D02*
X0009947D01*
X0010169Y-0014806D01*
X0010280D01*
Y-0015472D01*
X0009414D02*
X0009303Y-0015361D01*
X0009247Y-0015250D01*
Y-0015028D01*
X0009303Y-0014917D01*
X0009414Y-0014806D01*
X0009525D01*
X0009636Y-0014917D01*
X0009692Y-0015028D01*
Y-0015250D01*
X0009636Y-0015361D01*
X0009525Y-0015472D01*
X0009414D01*
X0008881D02*
X0008992D01*
Y-0015361D01*
X0008881D01*
Y-0015472D01*
X0008236D02*
X0008125Y-0015361D01*
X0008069Y-0015250D01*
Y-0015028D01*
X0008125Y-0014917D01*
X0008236Y-0014806D01*
X0008347D01*
X0008458Y-0014917D01*
X0008514Y-0015028D01*
Y-0015250D01*
X0008458Y-0015361D01*
X0008347Y-0015472D01*
X0008236D01*
X0024653Y-0013639D02*
X0024708Y-0013528D01*
Y-0013417D01*
X0024653Y-0013306D01*
X0024319D01*
X0024264Y-0013417D01*
Y-0013528D01*
X0024319Y-0013639D01*
X0024653D01*
X0024708Y-0013750D01*
Y-0013861D01*
X0024653Y-0013972D01*
X0024319D01*
X0024264Y-0013861D01*
Y-0013750D01*
X0024319Y-0013639D01*
X0024008Y-0013972D02*
X0023786D01*
X0023897D02*
Y-0013306D01*
X0023786Y-0013417D01*
X0011036Y-0013639D02*
X0010703D01*
X0010647Y-0013528D01*
Y-0013417D01*
X0010703Y-0013306D01*
X0011036D01*
X0011092Y-0013417D01*
Y-0013528D01*
X0010869Y-0013972D01*
X0009947Y-0013861D02*
X0010058Y-0013972D01*
X0010280D01*
X0010392Y-0013861D01*
Y-0013750D01*
X0010169Y-0013528D01*
X0010392Y-0013306D01*
X0009947D01*
X0009414Y-0013972D02*
X0009303Y-0013861D01*
X0009247Y-0013750D01*
Y-0013528D01*
X0009303Y-0013417D01*
X0009414Y-0013306D01*
X0009525D01*
X0009636Y-0013417D01*
X0009692Y-0013528D01*
Y-0013750D01*
X0009636Y-0013861D01*
X0009525Y-0013972D01*
X0009414D01*
X0008881D02*
X0008992D01*
Y-0013861D01*
X0008881D01*
Y-0013972D01*
X0008236D02*
X0008125Y-0013861D01*
X0008069Y-0013750D01*
Y-0013528D01*
X0008125Y-0013417D01*
X0008236Y-0013306D01*
X0008347D01*
X0008458Y-0013417D01*
X0008514Y-0013528D01*
Y-0013750D01*
X0008458Y-0013861D01*
X0008347Y-0013972D01*
X0008236D01*
X0024430Y-0012472D02*
X0024319Y-0012361D01*
X0024264Y-0012250D01*
Y-0012028D01*
X0024319Y-0011917D01*
X0024430Y-0011806D01*
X0024542D01*
X0024653Y-0011917D01*
X0024708Y-0012028D01*
Y-0012250D01*
X0024653Y-0012361D01*
X0024542Y-0012472D01*
X0024430D01*
X0023619Y-0012139D02*
X0023953D01*
X0024008Y-0012250D01*
Y-0012361D01*
X0023953Y-0012472D01*
X0023619D01*
X0023564Y-0012361D01*
Y-0012250D01*
X0023786Y-0011806D01*
X0010758Y-0012472D02*
X0011092Y-0011806D01*
X0010647D01*
X0009947Y-0012361D02*
X0010058Y-0012472D01*
X0010280D01*
X0010392Y-0012361D01*
Y-0012250D01*
X0010169Y-0012028D01*
X0010392Y-0011806D01*
X0009947D01*
X0009414Y-0012472D02*
X0009303Y-0012361D01*
X0009247Y-0012250D01*
Y-0012028D01*
X0009303Y-0011917D01*
X0009414Y-0011806D01*
X0009525D01*
X0009636Y-0011917D01*
X0009692Y-0012028D01*
Y-0012250D01*
X0009636Y-0012361D01*
X0009525Y-0012472D01*
X0009414D01*
X0008881D02*
X0008992D01*
Y-0012361D01*
X0008881D01*
Y-0012472D01*
X0008236D02*
X0008125Y-0012361D01*
X0008069Y-0012250D01*
Y-0012028D01*
X0008125Y-0011917D01*
X0008236Y-0011806D01*
X0008347D01*
X0008458Y-0011917D01*
X0008514Y-0012028D01*
Y-0012250D01*
X0008458Y-0012361D01*
X0008347Y-0012472D01*
X0008236D01*
X0024708Y-0010972D02*
X0024486D01*
X0024597D02*
Y-0010306D01*
X0024486Y-0010417D01*
X0010647Y-0010861D02*
X0010703Y-0010972D01*
X0011036D01*
X0011092Y-0010861D01*
Y-0010639D01*
X0010980Y-0010528D01*
X0010647D01*
Y-0010306D01*
X0011092D01*
X0009947Y-0010861D02*
X0010058Y-0010972D01*
X0010280D01*
X0010392Y-0010861D01*
Y-0010750D01*
X0010169Y-0010528D01*
X0010392Y-0010306D01*
X0009947D01*
X0009414Y-0010972D02*
X0009303Y-0010861D01*
X0009247Y-0010750D01*
Y-0010528D01*
X0009303Y-0010417D01*
X0009414Y-0010306D01*
X0009525D01*
X0009636Y-0010417D01*
X0009692Y-0010528D01*
Y-0010750D01*
X0009636Y-0010861D01*
X0009525Y-0010972D01*
X0009414D01*
X0008881D02*
X0008992D01*
Y-0010861D01*
X0008881D01*
Y-0010972D01*
X0008236D02*
X0008125Y-0010861D01*
X0008069Y-0010750D01*
Y-0010528D01*
X0008125Y-0010417D01*
X0008236Y-0010306D01*
X0008347D01*
X0008458Y-0010417D01*
X0008514Y-0010528D01*
Y-0010750D01*
X0008458Y-0010861D01*
X0008347Y-0010972D01*
X0008236D01*
X0024264Y-0009361D02*
X0024375Y-0009472D01*
X0024597D01*
X0024708Y-0009361D01*
Y-0009250D01*
X0024486Y-0009028D01*
X0024708Y-0008806D01*
X0024264D01*
X0011092Y-0009250D02*
X0010647D01*
X0010869Y-0008806D01*
X0010980D01*
Y-0009472D01*
X0009947Y-0009361D02*
X0010058Y-0009472D01*
X0010280D01*
X0010392Y-0009361D01*
Y-0009250D01*
X0010169Y-0009028D01*
X0010392Y-0008806D01*
X0009947D01*
X0009414Y-0009472D02*
X0009303Y-0009361D01*
X0009247Y-0009250D01*
Y-0009028D01*
X0009303Y-0008917D01*
X0009414Y-0008806D01*
X0009525D01*
X0009636Y-0008917D01*
X0009692Y-0009028D01*
Y-0009250D01*
X0009636Y-0009361D01*
X0009525Y-0009472D01*
X0009414D01*
X0008881D02*
X0008992D01*
Y-0009361D01*
X0008881D01*
Y-0009472D01*
X0008236D02*
X0008125Y-0009361D01*
X0008069Y-0009250D01*
Y-0009028D01*
X0008125Y-0008917D01*
X0008236Y-0008806D01*
X0008347D01*
X0008458Y-0008917D01*
X0008514Y-0009028D01*
Y-0009250D01*
X0008458Y-0009361D01*
X0008347Y-0009472D01*
X0008236D01*
X0024653Y-0007639D02*
X0024319D01*
X0024264Y-0007528D01*
Y-0007417D01*
X0024319Y-0007306D01*
X0024653D01*
X0024708Y-0007417D01*
Y-0007528D01*
X0024486Y-0007972D01*
X0011092D02*
X0010869D01*
X0010981D02*
Y-0007306D01*
X0010869Y-0007417D01*
X0010058Y-0007861D02*
X0010169Y-0007972D01*
X0010392D01*
X0010503Y-0007861D01*
Y-0007750D01*
X0010281Y-0007528D01*
X0010503Y-0007306D01*
X0010058D01*
X0009525Y-0007972D02*
X0009414Y-0007861D01*
X0009358Y-0007750D01*
Y-0007528D01*
X0009414Y-0007417D01*
X0009525Y-0007306D01*
X0009636D01*
X0009747Y-0007417D01*
X0009803Y-0007528D01*
Y-0007750D01*
X0009747Y-0007861D01*
X0009636Y-0007972D01*
X0009525D01*
X0008992D02*
X0009103D01*
Y-0007861D01*
X0008992D01*
Y-0007972D01*
X0008347D02*
X0008236Y-0007861D01*
X0008181Y-0007750D01*
Y-0007528D01*
X0008236Y-0007417D01*
X0008347Y-0007306D01*
X0008458D01*
X0008569Y-0007417D01*
X0008625Y-0007528D01*
Y-0007750D01*
X0008569Y-0007861D01*
X0008458Y-0007972D01*
X0008347D01*
X0024708Y-0006472D02*
X0024264D01*
X0024708Y-0006028D01*
Y-0005917D01*
X0024653Y-0005806D01*
X0024319D01*
X0024264Y-0005917D01*
X0011036Y-0006139D02*
X0011092Y-0006028D01*
Y-0005917D01*
X0011036Y-0005806D01*
X0010703D01*
X0010647Y-0005917D01*
Y-0006028D01*
X0010703Y-0006139D01*
X0011036D01*
X0011092Y-0006250D01*
Y-0006361D01*
X0011036Y-0006472D01*
X0010703D01*
X0010647Y-0006361D01*
Y-0006250D01*
X0010703Y-0006139D01*
X0010392Y-0006472D02*
X0009947D01*
X0010392Y-0006028D01*
Y-0005917D01*
X0010336Y-0005806D01*
X0010003D01*
X0009947Y-0005917D01*
X0009414Y-0006472D02*
X0009303Y-0006361D01*
X0009247Y-0006250D01*
Y-0006028D01*
X0009303Y-0005917D01*
X0009414Y-0005806D01*
X0009525D01*
X0009636Y-0005917D01*
X0009692Y-0006028D01*
Y-0006250D01*
X0009636Y-0006361D01*
X0009525Y-0006472D01*
X0009414D01*
X0008881D02*
X0008992D01*
Y-0006361D01*
X0008881D01*
Y-0006472D01*
X0008236D02*
X0008125Y-0006361D01*
X0008069Y-0006250D01*
Y-0006028D01*
X0008125Y-0005917D01*
X0008236Y-0005806D01*
X0008347D01*
X0008458Y-0005917D01*
X0008514Y-0006028D01*
Y-0006250D01*
X0008458Y-0006361D01*
X0008347Y-0006472D01*
X0008236D01*
X0024264Y-0004861D02*
X0024319Y-0004972D01*
X0024653D01*
X0024708Y-0004861D01*
Y-0004639D01*
X0024597Y-0004528D01*
X0024264D01*
Y-0004306D01*
X0024708D01*
X0023564Y-0004861D02*
X0023619Y-0004972D01*
X0023953D01*
X0024008Y-0004861D01*
Y-0004639D01*
X0023897Y-0004528D01*
X0023564D01*
Y-0004306D01*
X0024008D01*
X0023308Y-0004750D02*
X0022864D01*
X0023086Y-0004306D01*
X0023197D01*
Y-0004972D01*
X0010703Y-0004639D02*
X0011036D01*
X0011092Y-0004750D01*
Y-0004861D01*
X0011036Y-0004972D01*
X0010703D01*
X0010647Y-0004861D01*
Y-0004750D01*
X0010869Y-0004306D01*
X0010392Y-0004972D02*
X0010169D01*
X0010281D02*
Y-0004306D01*
X0010169Y-0004417D01*
X0009525Y-0004972D02*
X0009414Y-0004861D01*
X0009358Y-0004750D01*
Y-0004528D01*
X0009414Y-0004417D01*
X0009525Y-0004306D01*
X0009636D01*
X0009747Y-0004417D01*
X0009803Y-0004528D01*
Y-0004750D01*
X0009747Y-0004861D01*
X0009636Y-0004972D01*
X0009525D01*
X0008992D02*
X0009103D01*
Y-0004861D01*
X0008992D01*
Y-0004972D01*
X0008347D02*
X0008236Y-0004861D01*
X0008181Y-0004750D01*
Y-0004528D01*
X0008236Y-0004417D01*
X0008347Y-0004306D01*
X0008458D01*
X0008569Y-0004417D01*
X0008625Y-0004528D01*
Y-0004750D01*
X0008569Y-0004861D01*
X0008458Y-0004972D01*
X0008347D01*
X0033112Y-0002833D02*
X0032612D01*
X0033279Y-0003333D02*
X0032612D01*
Y-0002333D01*
X0033279D01*
X0031996Y-0003333D02*
Y-0002333D01*
X0032329D02*
X0031662D01*
X0030796Y-0003333D02*
X0030712Y-0003167D01*
Y-0002500D01*
X0030796Y-0002333D01*
X0031296D01*
X0031379Y-0002500D01*
Y-0003167D01*
X0031296Y-0003333D01*
X0030796D01*
X0030429Y-0002333D02*
Y-0003333D01*
X0030262Y-0003167D01*
X0029929Y-0002500D01*
X0029762Y-0002333D01*
Y-0003333D01*
X0023925D02*
Y-0002833D01*
X0024258Y-0002333D02*
X0024008Y-0002833D01*
X0023842D01*
X0023592Y-0002333D01*
X0022975Y-0003333D02*
Y-0002333D01*
X0023308D02*
X0022642D01*
X0022025Y-0003000D02*
X0022358Y-0003333D01*
X0021692Y-0003167D02*
X0021775Y-0003333D01*
X0022108D01*
X0022192Y-0003167D01*
X0022358Y-0003000D01*
Y-0002500D01*
X0022275Y-0002333D01*
X0021775D01*
X0021692Y-0002500D01*
Y-0003167D01*
X0017408Y-0003333D02*
X0016825D01*
Y-0002333D01*
X0015958Y-0003333D02*
X0015875Y-0003167D01*
Y-0002500D01*
X0015958Y-0002333D01*
X0016458D01*
X0016542Y-0002500D01*
Y-0003167D01*
X0016458Y-0003333D01*
X0015958D01*
X0015258D02*
Y-0002333D01*
X0015592D02*
X0014925D01*
X0009587Y-0003333D02*
Y-0002333D01*
X0009421Y-0002500D01*
X0009254Y-0002833D01*
X0009087Y-0002500D01*
X0008921Y-0002333D01*
Y-0003333D01*
X0008637Y-0003000D02*
X0007971D01*
X0008637Y-0003333D02*
Y-0002833D01*
X0008387Y-0002333D01*
X0008221D01*
X0007971Y-0002833D01*
Y-0003333D01*
X0007687D02*
X0007354D01*
X0007521D02*
Y-0002333D01*
X0007687D02*
X0007354D01*
X0006321Y-0003333D02*
Y-0002333D01*
X0006237Y-0003333D02*
X0006737D01*
X0006904Y-0003000D01*
Y-0002667D01*
X0006737Y-0002333D01*
X0006237D01*
X0003150Y-0003333D02*
Y-0002333D01*
X0002983Y-0002500D01*
X0002817Y-0002833D01*
X0002650Y-0002500D01*
X0002483Y-0002333D01*
Y-0003333D01*
X0001867D02*
Y-0002833D01*
X0002200Y-0002333D02*
X0001950Y-0002833D01*
X0001783D01*
X0001533Y-0002333D01*
X0001250Y-0002500D02*
X0001167Y-0002333D01*
X0000667D01*
X0000583Y-0002500D01*
Y-0002667D01*
X0000667Y-0002833D01*
X0001167D01*
X0001250Y-0003000D01*
Y-0003167D01*
X0001167Y-0003333D01*
X0000667D01*
X0000583Y-0003167D01*
X0023437Y-0001333D02*
Y-0000333D01*
X0023771D02*
X0023104D01*
X0022571Y-0000833D02*
X0022821Y-0001333D01*
X0022154Y-0000833D02*
X0022654D01*
X0022821Y-0000667D01*
Y-0000500D01*
X0022654Y-0000333D01*
X0022154D01*
Y-0001333D01*
X0021871Y-0001000D02*
X0021204D01*
X0021871Y-0001333D02*
Y-0000833D01*
X0021621Y-0000333D01*
X0021454D01*
X0021204Y-0000833D01*
Y-0001333D01*
X0020921Y-0000833D02*
X0020254D01*
X0020921Y-0001333D02*
Y-0000333D01*
X0020254Y-0001333D02*
Y-0000333D01*
X0019971Y-0001167D02*
X0019887Y-0001333D01*
X0019387D01*
X0019304Y-0001167D01*
Y-0000500D01*
X0019387Y-0000333D01*
X0019887D01*
X0019971Y-0000500D01*
X0017696Y-0001333D02*
X0017112D01*
Y-0000333D01*
X0016829Y-0001333D02*
X0016246D01*
Y-0000333D01*
X0015962Y-0001333D02*
X0015629D01*
X0015796D02*
Y-0000333D01*
X0015962D02*
X0015629D01*
X0014929Y-0000833D02*
X0015179Y-0001333D01*
X0014512Y-0000833D02*
X0015012D01*
X0015179Y-0000667D01*
Y-0000500D01*
X0015012Y-0000333D01*
X0014512D01*
Y-0001333D01*
X0013646D02*
Y-0000333D01*
X0013562Y-0001333D02*
X0014062D01*
X0014229Y-0001000D01*
Y-0000667D01*
X0014062Y-0000333D01*
X0013562D01*
X0006375Y0028500D02*
Y0027500D01*
X0007375Y0028500D02*
X0006375D01*
X0007375Y0027500D02*
Y0028500D01*
X0006375Y0027500D02*
X0007375D01*
Y0028500D02*
X0006375Y0027500D01*
X0007375D02*
X0006375Y0028500D01*
Y0024500D02*
Y0023500D01*
X0007375Y0024500D02*
X0006375D01*
X0007375Y0023500D02*
Y0024500D01*
X0006375Y0023500D02*
X0007375D01*
Y0024500D02*
X0006375Y0023500D01*
X0007375D02*
X0006375Y0024500D01*
X0009625Y0023500D02*
Y0022500D01*
X0010625Y0023500D02*
X0009625D01*
X0010625Y0022500D02*
Y0023500D01*
X0009625Y0022500D02*
X0010625D01*
Y0023500D02*
X0009625Y0022500D01*
X0010625D02*
X0009625Y0023500D01*
Y0021750D02*
Y0020750D01*
X0010625Y0021750D02*
X0009625D01*
X0010625Y0020750D02*
Y0021750D01*
X0009625Y0020750D02*
X0010625D01*
Y0021750D02*
X0009625Y0020750D01*
X0010625D02*
X0009625Y0021750D01*
X0012375Y0008000D02*
Y0007000D01*
X0013375Y0008000D02*
X0012375D01*
X0013375Y0007000D02*
Y0008000D01*
X0012375Y0007000D02*
X0013375D01*
Y0008000D02*
X0012375Y0007000D01*
X0013375D02*
X0012375Y0008000D01*
X0039500Y0030500D02*
Y0029500D01*
X0040500Y0030500D02*
X0039500D01*
X0040500Y0029500D02*
Y0030500D01*
X0039500Y0029500D02*
X0040500D01*
Y0030500D02*
X0039500Y0029500D01*
X0040500D02*
X0039500Y0030500D01*
Y0019750D02*
Y0018750D01*
X0040500Y0019750D02*
X0039500D01*
X0040500Y0018750D02*
Y0019750D01*
X0039500Y0018750D02*
X0040500D01*
Y0019750D02*
X0039500Y0018750D01*
X0040500D02*
X0039500Y0019750D01*
X0009625Y0027375D02*
Y0026375D01*
X0010625Y0027375D02*
X0009625D01*
X0010625Y0026375D02*
Y0027375D01*
X0009625Y0026375D02*
X0010625D01*
Y0027375D02*
X0009625Y0026375D01*
X0010625D02*
X0009625Y0027375D01*
Y0023500D02*
Y0022500D01*
X0010625Y0023500D02*
X0009625D01*
X0010625Y0022500D02*
Y0023500D01*
X0009625Y0022500D02*
X0010625D01*
Y0023500D02*
X0009625Y0022500D01*
X0010625D02*
X0009625Y0023500D01*
X0015187Y0049437D02*
Y0048437D01*
X0016187Y0049437D02*
X0015187D01*
X0016187Y0048437D02*
Y0049437D01*
X0015187Y0048437D02*
X0016187D01*
Y0049437D02*
X0015187Y0048437D01*
X0016187D02*
X0015187Y0049437D01*
X0015250Y0050750D02*
Y0049750D01*
X0016250Y0050750D02*
X0015250D01*
X0016250Y0049750D02*
Y0050750D01*
X0015250Y0049750D02*
X0016250D01*
Y0050750D02*
X0015250Y0049750D01*
X0016250D02*
X0015250Y0050750D01*
X0012875Y0048625D02*
Y0047625D01*
X0013875Y0048625D02*
X0012875D01*
X0013875Y0047625D02*
Y0048625D01*
X0012875Y0047625D02*
X0013875D01*
Y0048625D02*
X0012875Y0047625D01*
X0013875D02*
X0012875Y0048625D01*
Y0051625D02*
Y0050625D01*
X0013875Y0051625D02*
X0012875D01*
X0013875Y0050625D02*
Y0051625D01*
X0012875Y0050625D02*
X0013875D01*
Y0051625D02*
X0012875Y0050625D01*
X0013875D02*
X0012875Y0051625D01*
X0009625Y0023500D02*
Y0022500D01*
X0010625Y0023500D02*
X0009625D01*
X0010625Y0022500D02*
Y0023500D01*
X0009625Y0022500D02*
X0010625D01*
Y0023500D02*
X0009625Y0022500D01*
X0010625D02*
X0009625Y0023500D01*
Y0030875D02*
Y0029875D01*
X0010625Y0030875D02*
X0009625D01*
X0010625Y0029875D02*
Y0030875D01*
X0009625Y0029875D02*
X0010625D01*
Y0030875D02*
X0009625Y0029875D01*
X0010625D02*
X0009625Y0030875D01*
Y0021750D02*
Y0020750D01*
X0010625Y0021750D02*
X0009625D01*
X0010625Y0020750D02*
Y0021750D01*
X0009625Y0020750D02*
X0010625D01*
Y0021750D02*
X0009625Y0020750D01*
X0010625D02*
X0009625Y0021750D01*
X0009000Y0008500D02*
Y0007500D01*
X0010000Y0008500D02*
X0009000D01*
X0010000Y0007500D02*
Y0008500D01*
X0009000Y0007500D02*
X0010000D01*
Y0008500D02*
X0009000Y0007500D01*
X0010000D02*
X0009000Y0008500D01*
X0039500Y0030500D02*
Y0029500D01*
X0040500Y0030500D02*
X0039500D01*
X0040500Y0029500D02*
Y0030500D01*
X0039500Y0029500D02*
X0040500D01*
Y0030500D02*
X0039500Y0029500D01*
X0040500D02*
X0039500Y0030500D01*
X0039562Y0039312D02*
Y0038312D01*
X0040562Y0039312D02*
X0039562D01*
X0040562Y0038312D02*
Y0039312D01*
X0039562Y0038312D02*
X0040562D01*
Y0039312D02*
X0039562Y0038312D01*
X0040562D02*
X0039562Y0039312D01*
X0023562Y0029000D02*
Y0028000D01*
X0024562Y0029000D02*
X0023562D01*
X0024562Y0028000D02*
Y0029000D01*
X0023562Y0028000D02*
X0024562D01*
Y0029000D02*
X0023562Y0028000D01*
X0024562D02*
X0023562Y0029000D01*
Y0030187D02*
Y0029187D01*
X0024562Y0030187D02*
X0023562D01*
X0024562Y0029187D02*
Y0030187D01*
X0023562Y0029187D02*
X0024562D01*
Y0030187D02*
X0023562Y0029187D01*
X0024562D02*
X0023562Y0030187D01*
X0027437Y0029625D02*
Y0028625D01*
X0028437Y0029625D02*
X0027437D01*
X0028437Y0028625D02*
Y0029625D01*
X0027437Y0028625D02*
X0028437D01*
Y0029625D02*
X0027437Y0028625D01*
X0028437D02*
X0027437Y0029625D01*
Y0030875D02*
Y0029875D01*
X0028437Y0030875D02*
X0027437D01*
X0028437Y0029875D02*
Y0030875D01*
X0027437Y0029875D02*
X0028437D01*
Y0030875D02*
X0027437Y0029875D01*
X0028437D02*
X0027437Y0030875D01*
Y0029875D01*
X0028437Y0030875D02*
X0027437D01*
X0028437Y0029875D02*
Y0030875D01*
X0027437Y0029875D02*
X0028437D01*
Y0030875D02*
X0027437Y0029875D01*
X0028437D02*
X0027437Y0030875D01*
X0028437Y0032875D02*
Y0031875D01*
X0029437Y0032875D02*
X0028437D01*
X0029437Y0031875D02*
Y0032875D01*
X0028437Y0031875D02*
X0029437D01*
Y0032875D02*
X0028437Y0031875D01*
X0029437D02*
X0028437Y0032875D01*
X0013250Y0035750D02*
Y0034750D01*
X0014250Y0035750D02*
X0013250D01*
X0014250Y0034750D02*
Y0035750D01*
X0013250Y0034750D02*
X0014250D01*
Y0035750D02*
X0013250Y0034750D01*
X0014250D02*
X0013250Y0035750D01*
X0013375Y0033187D02*
Y0032187D01*
X0014375Y0033187D02*
X0013375D01*
X0014375Y0032187D02*
Y0033187D01*
X0013375Y0032187D02*
X0014375D01*
Y0033187D02*
X0013375Y0032187D01*
X0014375D02*
X0013375Y0033187D01*
X0030750Y0027125D02*
Y0026125D01*
X0031750Y0027125D02*
X0030750D01*
X0031750Y0026125D02*
Y0027125D01*
X0030750Y0026125D02*
X0031750D01*
Y0027125D02*
X0030750Y0026125D01*
X0031750D02*
X0030750Y0027125D01*
X0030875Y0031000D02*
Y0030000D01*
X0031875Y0031000D02*
X0030875D01*
X0031875Y0030000D02*
Y0031000D01*
X0030875Y0030000D02*
X0031875D01*
Y0031000D02*
X0030875Y0030000D01*
X0031875D02*
X0030875Y0031000D01*
X0018125Y0024812D02*
Y0023812D01*
X0019125Y0024812D02*
X0018125D01*
X0019125Y0023812D02*
Y0024812D01*
X0018125Y0023812D02*
X0019125D01*
Y0024812D02*
X0018125Y0023812D01*
X0019125D02*
X0018125Y0024812D01*
X0018062Y0027062D02*
Y0026062D01*
X0019062Y0027062D02*
X0018062D01*
X0019062Y0026062D02*
Y0027062D01*
X0018062Y0026062D02*
X0019062D01*
Y0027062D02*
X0018062Y0026062D01*
X0019062D02*
X0018062Y0027062D01*
X0028625Y0025187D02*
Y0024187D01*
X0029625Y0025187D02*
X0028625D01*
X0029625Y0024187D02*
Y0025187D01*
X0028625Y0024187D02*
X0029625D01*
Y0025187D02*
X0028625Y0024187D01*
X0029625D02*
X0028625Y0025187D01*
X0028312Y0020187D02*
Y0019187D01*
X0029312Y0020187D02*
X0028312D01*
X0029312Y0019187D02*
Y0020187D01*
X0028312Y0019187D02*
X0029312D01*
Y0020187D02*
X0028312Y0019187D01*
X0029312D02*
X0028312Y0020187D01*
X0024750Y0027187D02*
Y0026187D01*
X0025750Y0027187D02*
X0024750D01*
X0025750Y0026187D02*
Y0027187D01*
X0024750Y0026187D02*
X0025750D01*
Y0027187D02*
X0024750Y0026187D01*
X0025750D02*
X0024750Y0027187D01*
X0025187Y0020062D02*
Y0019062D01*
X0026187Y0020062D02*
X0025187D01*
X0026187Y0019062D02*
Y0020062D01*
X0025187Y0019062D02*
X0026187D01*
Y0020062D02*
X0025187Y0019062D01*
X0026187D02*
X0025187Y0020062D01*
X0016000Y0008625D02*
Y0007625D01*
X0017000Y0008625D02*
X0016000D01*
X0017000Y0007625D02*
Y0008625D01*
X0016000Y0007625D02*
X0017000D01*
Y0008625D02*
X0016000Y0007625D01*
X0017000D02*
X0016000Y0008625D01*
Y0016875D02*
Y0015875D01*
X0017000Y0016875D02*
X0016000D01*
X0017000Y0015875D02*
Y0016875D01*
X0016000Y0015875D02*
X0017000D01*
Y0016875D02*
X0016000Y0015875D01*
X0017000D02*
X0016000Y0016875D01*
X0020500Y0042250D02*
Y0041250D01*
X0021500Y0042250D02*
X0020500D01*
X0021500Y0041250D02*
Y0042250D01*
X0020500Y0041250D02*
X0021500D01*
Y0042250D02*
X0020500Y0041250D01*
X0021500D02*
X0020500Y0042250D01*
X0017125D02*
Y0041250D01*
X0018125Y0042250D02*
X0017125D01*
X0018125Y0041250D02*
Y0042250D01*
X0017125Y0041250D02*
X0018125D01*
Y0042250D02*
X0017125Y0041250D01*
X0018125D02*
X0017125Y0042250D01*
X0016875Y0037125D02*
Y0036125D01*
X0017875Y0037125D02*
X0016875D01*
X0017875Y0036125D02*
Y0037125D01*
X0016875Y0036125D02*
X0017875D01*
Y0037125D02*
X0016875Y0036125D01*
X0017875D02*
X0016875Y0037125D01*
X0030875Y0031000D02*
Y0030000D01*
X0031875Y0031000D02*
X0030875D01*
X0031875Y0030000D02*
Y0031000D01*
X0030875Y0030000D02*
X0031875D01*
Y0031000D02*
X0030875Y0030000D01*
X0031875D02*
X0030875Y0031000D01*
X0030500Y0022312D02*
Y0021312D01*
X0031500Y0022312D02*
X0030500D01*
X0031500Y0021312D02*
Y0022312D01*
X0030500Y0021312D02*
X0031500D01*
Y0022312D02*
X0030500Y0021312D01*
X0031500D02*
X0030500Y0022312D01*
X0028625D02*
Y0021312D01*
X0029625Y0022312D02*
X0028625D01*
X0029625Y0021312D02*
Y0022312D01*
X0028625Y0021312D02*
X0029625D01*
Y0022312D02*
X0028625Y0021312D01*
X0029625D02*
X0028625Y0022312D01*
Y0025187D02*
Y0024187D01*
X0029625Y0025187D02*
X0028625D01*
X0029625Y0024187D02*
Y0025187D01*
X0028625Y0024187D02*
X0029625D01*
Y0025187D02*
X0028625Y0024187D01*
X0029625D02*
X0028625Y0025187D01*
X0035375Y0005500D02*
Y0004500D01*
X0036375Y0005500D02*
X0035375D01*
X0036375Y0004500D02*
Y0005500D01*
X0035375Y0004500D02*
X0036375D01*
Y0005500D02*
X0035375Y0004500D01*
X0036375D02*
X0035375Y0005500D01*
X0035250Y0010875D02*
Y0009875D01*
X0036250Y0010875D02*
X0035250D01*
X0036250Y0009875D02*
Y0010875D01*
X0035250Y0009875D02*
X0036250D01*
Y0010875D02*
X0035250Y0009875D01*
X0036250D02*
X0035250Y0010875D01*
X0032875Y0010750D02*
Y0009750D01*
X0033875Y0010750D02*
X0032875D01*
X0033875Y0009750D02*
Y0010750D01*
X0032875Y0009750D02*
X0033875D01*
Y0010750D02*
X0032875Y0009750D01*
X0033875D02*
X0032875Y0010750D01*
X0013375Y0032187D02*
Y0031187D01*
X0014375Y0032187D02*
X0013375D01*
X0014375Y0031187D02*
Y0032187D01*
X0013375Y0031187D02*
X0014375D01*
Y0032187D02*
X0013375Y0031187D01*
X0014375D02*
X0013375Y0032187D01*
X0013312Y0026562D02*
Y0025562D01*
X0014312Y0026562D02*
X0013312D01*
X0014312Y0025562D02*
Y0026562D01*
X0013312Y0025562D02*
X0014312D01*
Y0026562D02*
X0013312Y0025562D01*
X0014312D02*
X0013312Y0026562D01*
X0015812Y0024375D02*
Y0023375D01*
X0016812Y0024375D02*
X0015812D01*
X0016812Y0023375D02*
Y0024375D01*
X0015812Y0023375D02*
X0016812D01*
Y0024375D02*
X0015812Y0023375D01*
X0016812D02*
X0015812Y0024375D01*
X0018125Y0024812D02*
Y0023812D01*
X0019125Y0024812D02*
X0018125D01*
X0019125Y0023812D02*
Y0024812D01*
X0018125Y0023812D02*
X0019125D01*
Y0024812D02*
X0018125Y0023812D01*
X0019125D02*
X0018125Y0024812D01*
X0036250Y0013375D02*
Y0012375D01*
X0037250Y0013375D02*
X0036250D01*
X0037250Y0012375D02*
Y0013375D01*
X0036250Y0012375D02*
X0037250D01*
Y0013375D02*
X0036250Y0012375D01*
X0037250D02*
X0036250Y0013375D01*
X0036875Y0015375D02*
Y0014375D01*
X0037875Y0015375D02*
X0036875D01*
X0037875Y0014375D02*
Y0015375D01*
X0036875Y0014375D02*
X0037875D01*
Y0015375D02*
X0036875Y0014375D01*
X0037875D02*
X0036875Y0015375D01*
X0021500Y0023500D02*
Y0022500D01*
X0022500Y0023500D02*
X0021500D01*
X0022500Y0022500D02*
Y0023500D01*
X0021500Y0022500D02*
X0022500D01*
Y0023500D02*
X0021500Y0022500D01*
X0022500D02*
X0021500Y0023500D01*
X0021375Y0014625D02*
Y0013625D01*
X0022375Y0014625D02*
X0021375D01*
X0022375Y0013625D02*
Y0014625D01*
X0021375Y0013625D02*
X0022375D01*
Y0014625D02*
X0021375Y0013625D01*
X0022375D02*
X0021375Y0014625D01*
X0023250Y0025125D02*
Y0024125D01*
X0024250Y0025125D02*
X0023250D01*
X0024250Y0024125D02*
Y0025125D01*
X0023250Y0024125D02*
X0024250D01*
Y0025125D02*
X0023250Y0024125D01*
X0024250D02*
X0023250Y0025125D01*
Y0023375D02*
Y0022375D01*
X0024250Y0023375D02*
X0023250D01*
X0024250Y0022375D02*
Y0023375D01*
X0023250Y0022375D02*
X0024250D01*
Y0023375D02*
X0023250Y0022375D01*
X0024250D02*
X0023250Y0023375D01*
X0016500Y0020250D02*
Y0019250D01*
X0017500Y0020250D02*
X0016500D01*
X0017500Y0019250D02*
Y0020250D01*
X0016500Y0019250D02*
X0017500D01*
Y0020250D02*
X0016500Y0019250D01*
X0017500D02*
X0016500Y0020250D01*
X0015625Y0019250D02*
Y0018250D01*
X0016625Y0019250D02*
X0015625D01*
X0016625Y0018250D02*
Y0019250D01*
X0015625Y0018250D02*
X0016625D01*
Y0019250D02*
X0015625Y0018250D01*
X0016625D02*
X0015625Y0019250D01*
X0015375Y0017125D02*
Y0016125D01*
X0016375Y0017125D02*
X0015375D01*
X0016375Y0016125D02*
Y0017125D01*
X0015375Y0016125D02*
X0016375D01*
Y0017125D02*
X0015375Y0016125D01*
X0016375D02*
X0015375Y0017125D01*
X0015625Y0019250D02*
Y0018250D01*
X0016625Y0019250D02*
X0015625D01*
X0016625Y0018250D02*
Y0019250D01*
X0015625Y0018250D02*
X0016625D01*
Y0019250D02*
X0015625Y0018250D01*
X0016625D02*
X0015625Y0019250D01*
X0016500Y0021375D02*
Y0020375D01*
X0017500Y0021375D02*
X0016500D01*
X0017500Y0020375D02*
Y0021375D01*
X0016500Y0020375D02*
X0017500D01*
Y0021375D02*
X0016500Y0020375D01*
X0017500D02*
X0016500Y0021375D01*
Y0020250D02*
Y0019250D01*
X0017500Y0020250D02*
X0016500D01*
X0017500Y0019250D02*
Y0020250D01*
X0016500Y0019250D02*
X0017500D01*
Y0020250D02*
X0016500Y0019250D01*
X0017500D02*
X0016500Y0020250D01*
Y0022250D02*
Y0021250D01*
X0017500Y0022250D02*
X0016500D01*
X0017500Y0021250D02*
Y0022250D01*
X0016500Y0021250D02*
X0017500D01*
Y0022250D02*
X0016500Y0021250D01*
X0017500D02*
X0016500Y0022250D01*
Y0020250D02*
Y0019250D01*
X0017500Y0020250D02*
X0016500D01*
X0017500Y0019250D02*
Y0020250D01*
X0016500Y0019250D02*
X0017500D01*
Y0020250D02*
X0016500Y0019250D01*
X0017500D02*
X0016500Y0020250D01*
Y0022250D02*
Y0021250D01*
X0017500Y0022250D02*
X0016500D01*
X0017500Y0021250D02*
Y0022250D01*
X0016500Y0021250D02*
X0017500D01*
Y0022250D02*
X0016500Y0021250D01*
X0017500D02*
X0016500Y0022250D01*
Y0023125D02*
Y0022125D01*
X0017500Y0023125D02*
X0016500D01*
X0017500Y0022125D02*
Y0023125D01*
X0016500Y0022125D02*
X0017500D01*
Y0023125D02*
X0016500Y0022125D01*
X0017500D02*
X0016500Y0023125D01*
X0032125Y0023500D02*
Y0022500D01*
X0033125Y0023500D02*
X0032125D01*
X0033125Y0022500D02*
Y0023500D01*
X0032125Y0022500D02*
X0033125D01*
Y0023500D02*
X0032125Y0022500D01*
X0033125D02*
X0032125Y0023500D01*
X0031750Y0025750D02*
Y0024750D01*
X0032750Y0025750D02*
X0031750D01*
X0032750Y0024750D02*
Y0025750D01*
X0031750Y0024750D02*
X0032750D01*
Y0025750D02*
X0031750Y0024750D01*
X0032750D02*
X0031750Y0025750D01*
X0023250Y0025125D02*
Y0024125D01*
X0024250Y0025125D02*
X0023250D01*
X0024250Y0024125D02*
Y0025125D01*
X0023250Y0024125D02*
X0024250D01*
Y0025125D02*
X0023250Y0024125D01*
X0024250D02*
X0023250Y0025125D01*
X0024000Y0028687D02*
Y0027687D01*
X0025000Y0028687D02*
X0024000D01*
X0025000Y0027687D02*
Y0028687D01*
X0024000Y0027687D02*
X0025000D01*
Y0028687D02*
X0024000Y0027687D01*
X0025000D02*
X0024000Y0028687D01*
X0033000Y0030875D02*
Y0029875D01*
X0034000Y0030875D02*
X0033000D01*
X0034000Y0029875D02*
Y0030875D01*
X0033000Y0029875D02*
X0034000D01*
Y0030875D02*
X0033000Y0029875D01*
X0034000D02*
X0033000Y0030875D01*
Y0031437D02*
Y0030437D01*
X0034000Y0031437D02*
X0033000D01*
X0034000Y0030437D02*
Y0031437D01*
X0033000Y0030437D02*
X0034000D01*
Y0031437D02*
X0033000Y0030437D01*
X0034000D02*
X0033000Y0031437D01*
X0032812Y0033625D02*
Y0032625D01*
X0033812Y0033625D02*
X0032812D01*
X0033812Y0032625D02*
Y0033625D01*
X0032812Y0032625D02*
X0033812D01*
Y0033625D02*
X0032812Y0032625D01*
X0033812D02*
X0032812Y0033625D01*
X0033000Y0034750D02*
Y0033750D01*
X0034000Y0034750D02*
X0033000D01*
X0034000Y0033750D02*
Y0034750D01*
X0033000Y0033750D02*
X0034000D01*
Y0034750D02*
X0033000Y0033750D01*
X0034000D02*
X0033000Y0034750D01*
X0019625Y0048000D02*
Y0047000D01*
X0020625Y0048000D02*
X0019625D01*
X0020625Y0047000D02*
Y0048000D01*
X0019625Y0047000D02*
X0020625D01*
Y0048000D02*
X0019625Y0047000D01*
X0020625D02*
X0019625Y0048000D01*
X0020000Y0045750D02*
Y0044750D01*
X0021000Y0045750D02*
X0020000D01*
X0021000Y0044750D02*
Y0045750D01*
X0020000Y0044750D02*
X0021000D01*
Y0045750D02*
X0020000Y0044750D01*
X0021000D02*
X0020000Y0045750D01*
X0021500Y0051687D02*
Y0050687D01*
X0022500Y0051687D02*
X0021500D01*
X0022500Y0050687D02*
Y0051687D01*
X0021500Y0050687D02*
X0022500D01*
Y0051687D02*
X0021500Y0050687D01*
X0022500D02*
X0021500Y0051687D01*
X0019625Y0048000D02*
Y0047000D01*
X0020625Y0048000D02*
X0019625D01*
X0020625Y0047000D02*
Y0048000D01*
X0019625Y0047000D02*
X0020625D01*
Y0048000D02*
X0019625Y0047000D01*
X0020625D02*
X0019625Y0048000D01*
X0031750Y0042062D02*
Y0041062D01*
X0032750Y0042062D02*
X0031750D01*
X0032750Y0041062D02*
Y0042062D01*
X0031750Y0041062D02*
X0032750D01*
Y0042062D02*
X0031750Y0041062D01*
X0032750D02*
X0031750Y0042062D01*
Y0049562D02*
Y0048562D01*
X0032750Y0049562D02*
X0031750D01*
X0032750Y0048562D02*
Y0049562D01*
X0031750Y0048562D02*
X0032750D01*
Y0049562D02*
X0031750Y0048562D01*
X0032750D02*
X0031750Y0049562D01*
X0028187Y0044687D02*
Y0043687D01*
X0029187Y0044687D02*
X0028187D01*
X0029187Y0043687D02*
Y0044687D01*
X0028187Y0043687D02*
X0029187D01*
Y0044687D02*
X0028187Y0043687D01*
X0029187D02*
X0028187Y0044687D01*
Y0046562D02*
Y0045562D01*
X0029187Y0046562D02*
X0028187D01*
X0029187Y0045562D02*
Y0046562D01*
X0028187Y0045562D02*
X0029187D01*
Y0046562D02*
X0028187Y0045562D01*
X0029187D02*
X0028187Y0046562D01*
X0033000Y0034750D02*
Y0033750D01*
X0034000Y0034750D02*
X0033000D01*
X0034000Y0033750D02*
Y0034750D01*
X0033000Y0033750D02*
X0034000D01*
Y0034750D02*
X0033000Y0033750D01*
X0034000D02*
X0033000Y0034750D01*
X0032437Y0038062D02*
Y0037062D01*
X0033437Y0038062D02*
X0032437D01*
X0033437Y0037062D02*
Y0038062D01*
X0032437Y0037062D02*
X0033437D01*
Y0038062D02*
X0032437Y0037062D01*
X0033437D02*
X0032437Y0038062D01*
X0031750Y0042062D02*
Y0041062D01*
X0032750Y0042062D02*
X0031750D01*
X0032750Y0041062D02*
Y0042062D01*
X0031750Y0041062D02*
X0032750D01*
Y0042062D02*
X0031750Y0041062D01*
X0032750D02*
X0031750Y0042062D01*
X0032437Y0038062D02*
Y0037062D01*
X0033437Y0038062D02*
X0032437D01*
X0033437Y0037062D02*
Y0038062D01*
X0032437Y0037062D02*
X0033437D01*
Y0038062D02*
X0032437Y0037062D01*
X0033437D02*
X0032437Y0038062D01*
X0017625Y0034750D02*
Y0033750D01*
X0018625Y0034750D02*
X0017625D01*
X0018625Y0033750D02*
Y0034750D01*
X0017625Y0033750D02*
X0018625D01*
Y0034750D02*
X0017625Y0033750D01*
X0018625D02*
X0017625Y0034750D01*
X0016937Y0032250D02*
Y0031250D01*
X0017937Y0032250D02*
X0016937D01*
X0017937Y0031250D02*
Y0032250D01*
X0016937Y0031250D02*
X0017937D01*
Y0032250D02*
X0016937Y0031250D01*
X0017937D02*
X0016937Y0032250D01*
X0030250Y0029562D02*
Y0028562D01*
X0031250Y0029562D02*
X0030250D01*
X0031250Y0028562D02*
Y0029562D01*
X0030250Y0028562D02*
X0031250D01*
Y0029562D02*
X0030250Y0028562D01*
X0031250D02*
X0030250Y0029562D01*
Y0027562D02*
Y0026562D01*
X0031250Y0027562D02*
X0030250D01*
X0031250Y0026562D02*
Y0027562D01*
X0030250Y0026562D02*
X0031250D01*
Y0027562D02*
X0030250Y0026562D01*
X0031250D02*
X0030250Y0027562D01*
X0021062Y0033375D02*
Y0032375D01*
X0022062Y0033375D02*
X0021062D01*
X0022062Y0032375D02*
Y0033375D01*
X0021062Y0032375D02*
X0022062D01*
Y0033375D02*
X0021062Y0032375D01*
X0022062D02*
X0021062Y0033375D01*
X0022187Y0029500D02*
Y0028500D01*
X0023187Y0029500D02*
X0022187D01*
X0023187Y0028500D02*
Y0029500D01*
X0022187Y0028500D02*
X0023187D01*
Y0029500D02*
X0022187Y0028500D01*
X0023187D02*
X0022187Y0029500D01*
X0016375Y0024750D02*
Y0023750D01*
X0017375Y0024750D02*
X0016375D01*
X0017375Y0023750D02*
Y0024750D01*
X0016375Y0023750D02*
X0017375D01*
Y0024750D02*
X0016375Y0023750D01*
X0017375D02*
X0016375Y0024750D01*
X0015625D02*
Y0023750D01*
X0016625Y0024750D02*
X0015625D01*
X0016625Y0023750D02*
Y0024750D01*
X0015625Y0023750D02*
X0016625D01*
Y0024750D02*
X0015625Y0023750D01*
X0016625D02*
X0015625Y0024750D01*
X0032125Y0023500D02*
Y0022500D01*
X0033125Y0023500D02*
X0032125D01*
X0033125Y0022500D02*
Y0023500D01*
X0032125Y0022500D02*
X0033125D01*
Y0023500D02*
X0032125Y0022500D01*
X0033125D02*
X0032125Y0023500D01*
X0031875Y0011125D02*
Y0010125D01*
X0032875Y0011125D02*
X0031875D01*
X0032875Y0010125D02*
Y0011125D01*
X0031875Y0010125D02*
X0032875D01*
Y0011125D02*
X0031875Y0010125D01*
X0032875D02*
X0031875Y0011125D01*
X0036000Y0010750D02*
Y0009750D01*
X0037000Y0010750D02*
X0036000D01*
X0037000Y0009750D02*
Y0010750D01*
X0036000Y0009750D02*
X0037000D01*
Y0010750D02*
X0036000Y0009750D01*
X0037000D02*
X0036000Y0010750D01*
X0015375Y0017125D02*
Y0016125D01*
X0016375Y0017125D02*
X0015375D01*
X0016375Y0016125D02*
Y0017125D01*
X0015375Y0016125D02*
X0016375D01*
Y0017125D02*
X0015375Y0016125D01*
X0016375D02*
X0015375Y0017125D01*
Y0010125D02*
Y0009125D01*
X0016375Y0010125D02*
X0015375D01*
X0016375Y0009125D02*
Y0010125D01*
X0015375Y0009125D02*
X0016375D01*
Y0010125D02*
X0015375Y0009125D01*
X0016375D02*
X0015375Y0010125D01*
X0009875Y0019250D02*
Y0018250D01*
X0010875Y0019250D02*
X0009875D01*
X0010875Y0018250D02*
Y0019250D01*
X0009875Y0018250D02*
X0010875D01*
Y0019250D02*
X0009875Y0018250D01*
X0010875D02*
X0009875Y0019250D01*
X0010375Y0011500D02*
Y0010500D01*
X0011375Y0011500D02*
X0010375D01*
X0011375Y0010500D02*
Y0011500D01*
X0010375Y0010500D02*
X0011375D01*
Y0011500D02*
X0010375Y0010500D01*
X0011375D02*
X0010375Y0011500D01*
X0015375Y0010125D02*
Y0009125D01*
X0016375Y0010125D02*
X0015375D01*
X0016375Y0009125D02*
Y0010125D01*
X0015375Y0009125D02*
X0016375D01*
Y0010125D02*
X0015375Y0009125D01*
X0016375D02*
X0015375Y0010125D01*
Y0013250D02*
Y0012250D01*
X0016375Y0013250D02*
X0015375D01*
X0016375Y0012250D02*
Y0013250D01*
X0015375Y0012250D02*
X0016375D01*
Y0013250D02*
X0015375Y0012250D01*
X0016375D02*
X0015375Y0013250D01*
X0012500Y0013375D02*
Y0012375D01*
X0013500Y0013375D02*
X0012500D01*
X0013500Y0012375D02*
Y0013375D01*
X0012500Y0012375D02*
X0013500D01*
Y0013375D02*
X0012500Y0012375D01*
X0013500D02*
X0012500Y0013375D01*
Y0012250D02*
Y0011250D01*
X0013500Y0012250D02*
X0012500D01*
X0013500Y0011250D02*
Y0012250D01*
X0012500Y0011250D02*
X0013500D01*
Y0012250D02*
X0012500Y0011250D01*
X0013500D02*
X0012500Y0012250D01*
X0025625Y0030125D02*
Y0029125D01*
X0026625Y0030125D02*
X0025625D01*
X0026625Y0029125D02*
Y0030125D01*
X0025625Y0029125D02*
X0026625D01*
Y0030125D02*
X0025625Y0029125D01*
X0026625D02*
X0025625Y0030125D01*
X0024000Y0028687D02*
Y0027687D01*
X0025000Y0028687D02*
X0024000D01*
X0025000Y0027687D02*
Y0028687D01*
X0024000Y0027687D02*
X0025000D01*
Y0028687D02*
X0024000Y0027687D01*
X0025000D02*
X0024000Y0028687D01*
X0027812Y0030437D02*
Y0029437D01*
X0028812Y0030437D02*
X0027812D01*
X0028812Y0029437D02*
Y0030437D01*
X0027812Y0029437D02*
X0028812D01*
Y0030437D02*
X0027812Y0029437D01*
X0028812D02*
X0027812Y0030437D01*
X0027750Y0029812D02*
Y0028812D01*
X0028750Y0029812D02*
X0027750D01*
X0028750Y0028812D02*
Y0029812D01*
X0027750Y0028812D02*
X0028750D01*
Y0029812D02*
X0027750Y0028812D01*
X0028750D02*
X0027750Y0029812D01*
X0032812Y0033625D02*
Y0032625D01*
X0033812Y0033625D02*
X0032812D01*
X0033812Y0032625D02*
Y0033625D01*
X0032812Y0032625D02*
X0033812D01*
Y0033625D02*
X0032812Y0032625D01*
X0033812D02*
X0032812Y0033625D01*
X0033000Y0031437D02*
Y0030437D01*
X0034000Y0031437D02*
X0033000D01*
X0034000Y0030437D02*
Y0031437D01*
X0033000Y0030437D02*
X0034000D01*
Y0031437D02*
X0033000Y0030437D01*
X0034000D02*
X0033000Y0031437D01*
X0013000Y0033750D02*
Y0032750D01*
X0014000Y0033750D02*
X0013000D01*
X0014000Y0032750D02*
Y0033750D01*
X0013000Y0032750D02*
X0014000D01*
Y0033750D02*
X0013000Y0032750D01*
X0014000D02*
X0013000Y0033750D01*
X0012625Y0031375D02*
Y0030375D01*
X0013625Y0031375D02*
X0012625D01*
X0013625Y0030375D02*
Y0031375D01*
X0012625Y0030375D02*
X0013625D01*
Y0031375D02*
X0012625Y0030375D01*
X0013625D02*
X0012625Y0031375D01*
X0028187Y0046562D02*
Y0045562D01*
X0029187Y0046562D02*
X0028187D01*
X0029187Y0045562D02*
Y0046562D01*
X0028187Y0045562D02*
X0029187D01*
Y0046562D02*
X0028187Y0045562D01*
X0029187D02*
X0028187Y0046562D01*
Y0042250D02*
Y0041250D01*
X0029187Y0042250D02*
X0028187D01*
X0029187Y0041250D02*
Y0042250D01*
X0028187Y0041250D02*
X0029187D01*
Y0042250D02*
X0028187Y0041250D01*
X0029187D02*
X0028187Y0042250D01*
X0030250Y0029562D02*
Y0028562D01*
X0031250Y0029562D02*
X0030250D01*
X0031250Y0028562D02*
Y0029562D01*
X0030250Y0028562D02*
X0031250D01*
Y0029562D02*
X0030250Y0028562D01*
X0031250D02*
X0030250Y0029562D01*
X0029062Y0033375D02*
Y0032375D01*
X0030062Y0033375D02*
X0029062D01*
X0030062Y0032375D02*
Y0033375D01*
X0029062Y0032375D02*
X0030062D01*
Y0033375D02*
X0029062Y0032375D01*
X0030062D02*
X0029062Y0033375D01*
X0030500Y0032062D02*
Y0031062D01*
X0031500Y0032062D02*
X0030500D01*
X0031500Y0031062D02*
Y0032062D01*
X0030500Y0031062D02*
X0031500D01*
Y0032062D02*
X0030500Y0031062D01*
X0031500D02*
X0030500Y0032062D01*
X0030375Y0033625D02*
Y0032625D01*
X0031375Y0033625D02*
X0030375D01*
X0031375Y0032625D02*
Y0033625D01*
X0030375Y0032625D02*
X0031375D01*
Y0033625D02*
X0030375Y0032625D01*
X0031375D02*
X0030375Y0033625D01*
X0030250Y0029562D02*
Y0028562D01*
X0031250Y0029562D02*
X0030250D01*
X0031250Y0028562D02*
Y0029562D01*
X0030250Y0028562D02*
X0031250D01*
Y0029562D02*
X0030250Y0028562D01*
X0031250D02*
X0030250Y0029562D01*
X0028812Y0030625D02*
Y0029625D01*
X0029812Y0030625D02*
X0028812D01*
X0029812Y0029625D02*
Y0030625D01*
X0028812Y0029625D02*
X0029812D01*
Y0030625D02*
X0028812Y0029625D01*
X0029812D02*
X0028812Y0030625D01*
X0024000Y0029312D02*
Y0028312D01*
X0025000Y0029312D02*
X0024000D01*
X0025000Y0028312D02*
Y0029312D01*
X0024000Y0028312D02*
X0025000D01*
Y0029312D02*
X0024000Y0028312D01*
X0025000D02*
X0024000Y0029312D01*
Y0028687D02*
Y0027687D01*
X0025000Y0028687D02*
X0024000D01*
X0025000Y0027687D02*
Y0028687D01*
X0024000Y0027687D02*
X0025000D01*
Y0028687D02*
X0024000Y0027687D01*
X0025000D02*
X0024000Y0028687D01*
X0015625Y0024750D02*
Y0023750D01*
X0016625Y0024750D02*
X0015625D01*
X0016625Y0023750D02*
Y0024750D01*
X0015625Y0023750D02*
X0016625D01*
Y0024750D02*
X0015625Y0023750D01*
X0016625D02*
X0015625Y0024750D01*
X0016500Y0022250D02*
Y0021250D01*
X0017500Y0022250D02*
X0016500D01*
X0017500Y0021250D02*
Y0022250D01*
X0016500Y0021250D02*
X0017500D01*
Y0022250D02*
X0016500Y0021250D01*
X0017500D02*
X0016500Y0022250D01*
X0017625Y0034750D02*
Y0033750D01*
X0018625Y0034750D02*
X0017625D01*
X0018625Y0033750D02*
Y0034750D01*
X0017625Y0033750D02*
X0018625D01*
Y0034750D02*
X0017625Y0033750D01*
X0018625D02*
X0017625Y0034750D01*
X0018312Y0033812D02*
Y0032812D01*
X0019312Y0033812D02*
X0018312D01*
X0019312Y0032812D02*
Y0033812D01*
X0018312Y0032812D02*
X0019312D01*
Y0033812D02*
X0018312Y0032812D01*
X0019312D02*
X0018312Y0033812D01*
X0030375Y0033625D02*
Y0032625D01*
X0031375Y0033625D02*
X0030375D01*
X0031375Y0032625D02*
Y0033625D01*
X0030375Y0032625D02*
X0031375D01*
Y0033625D02*
X0030375Y0032625D01*
X0031375D02*
X0030375Y0033625D01*
X0030750Y0040250D02*
Y0039250D01*
X0031750Y0040250D02*
X0030750D01*
X0031750Y0039250D02*
Y0040250D01*
X0030750Y0039250D02*
X0031750D01*
Y0040250D02*
X0030750Y0039250D01*
X0031750D02*
X0030750Y0040250D01*
X0031750D02*
Y0039250D01*
X0032750Y0040250D02*
X0031750D01*
X0032750Y0039250D02*
Y0040250D01*
X0031750Y0039250D02*
X0032750D01*
Y0040250D02*
X0031750Y0039250D01*
X0032750D02*
X0031750Y0040250D01*
Y0042062D02*
Y0041062D01*
X0032750Y0042062D02*
X0031750D01*
X0032750Y0041062D02*
Y0042062D01*
X0031750Y0041062D02*
X0032750D01*
Y0042062D02*
X0031750Y0041062D01*
X0032750D02*
X0031750Y0042062D01*
X0007625Y0048625D02*
Y0047625D01*
X0008625Y0048625D02*
X0007625D01*
X0008625Y0047625D02*
Y0048625D01*
X0007625Y0047625D02*
X0008625D01*
Y0048625D02*
X0007625Y0047625D01*
X0008625D02*
X0007625Y0048625D01*
Y0044750D02*
Y0043750D01*
X0008625Y0044750D02*
X0007625D01*
X0008625Y0043750D02*
Y0044750D01*
X0007625Y0043750D02*
X0008625D01*
Y0044750D02*
X0007625Y0043750D01*
X0008625D02*
X0007625Y0044750D01*
X0007500Y0004125D02*
Y0003125D01*
X0008500Y0004125D02*
X0007500D01*
X0008500Y0003125D02*
Y0004125D01*
X0007500Y0003125D02*
X0008500D01*
Y0004125D02*
X0007500Y0003125D01*
X0008500D02*
X0007500Y0004125D01*
Y0005500D02*
Y0004500D01*
X0008500Y0005500D02*
X0007500D01*
X0008500Y0004500D02*
Y0005500D01*
X0007500Y0004500D02*
X0008500D01*
Y0005500D02*
X0007500Y0004500D01*
X0008500D02*
X0007500Y0005500D01*
X0017125Y0007500D02*
Y0006500D01*
X0018125Y0007500D02*
X0017125D01*
X0018125Y0006500D02*
Y0007500D01*
X0017125Y0006500D02*
X0018125D01*
Y0007500D02*
X0017125Y0006500D01*
X0018125D02*
X0017125Y0007500D01*
Y0012625D02*
Y0011625D01*
X0018125Y0012625D02*
X0017125D01*
X0018125Y0011625D02*
Y0012625D01*
X0017125Y0011625D02*
X0018125D01*
Y0012625D02*
X0017125Y0011625D01*
X0018125D02*
X0017125Y0012625D01*
X0010375Y0012750D02*
Y0011750D01*
X0011375Y0012750D02*
X0010375D01*
X0011375Y0011750D02*
Y0012750D01*
X0010375Y0011750D02*
X0011375D01*
Y0012750D02*
X0010375Y0011750D01*
X0011375D02*
X0010375Y0012750D01*
X0010250Y0015125D02*
Y0014125D01*
X0011250Y0015125D02*
X0010250D01*
X0011250Y0014125D02*
Y0015125D01*
X0010250Y0014125D02*
X0011250D01*
Y0015125D02*
X0010250Y0014125D01*
X0011250D02*
X0010250Y0015125D01*
Y0014125D01*
X0011250Y0015125D02*
X0010250D01*
X0011250Y0014125D02*
Y0015125D01*
X0010250Y0014125D02*
X0011250D01*
Y0015125D02*
X0010250Y0014125D01*
X0011250D02*
X0010250Y0015125D01*
X0010625Y0026375D02*
Y0025375D01*
X0011625Y0026375D02*
X0010625D01*
X0011625Y0025375D02*
Y0026375D01*
X0010625Y0025375D02*
X0011625D01*
Y0026375D02*
X0010625Y0025375D01*
X0011625D02*
X0010625Y0026375D01*
X0036875Y0005500D02*
Y0004500D01*
X0037875Y0005500D02*
X0036875D01*
X0037875Y0004500D02*
Y0005500D01*
X0036875Y0004500D02*
X0037875D01*
Y0005500D02*
X0036875Y0004500D01*
X0037875D02*
X0036875Y0005500D01*
X0023250Y0021187D02*
Y0020187D01*
X0024250Y0021187D02*
X0023250D01*
X0024250Y0020187D02*
Y0021187D01*
X0023250Y0020187D02*
X0024250D01*
Y0021187D02*
X0023250Y0020187D01*
X0024250D02*
X0023250Y0021187D01*
X0010625Y0026375D02*
Y0025375D01*
X0011625Y0026375D02*
X0010625D01*
X0011625Y0025375D02*
Y0026375D01*
X0010625Y0025375D02*
X0011625D01*
Y0026375D02*
X0010625Y0025375D01*
X0011625D02*
X0010625Y0026375D01*
X0010750Y0030375D02*
Y0029375D01*
X0011750Y0030375D02*
X0010750D01*
X0011750Y0029375D02*
Y0030375D01*
X0010750Y0029375D02*
X0011750D01*
Y0030375D02*
X0010750Y0029375D01*
X0011750D02*
X0010750Y0030375D01*
X0032375Y0020625D02*
Y0019625D01*
X0033375Y0020625D02*
X0032375D01*
X0033375Y0019625D02*
Y0020625D01*
X0032375Y0019625D02*
X0033375D01*
Y0020625D02*
X0032375Y0019625D01*
X0033375D02*
X0032375Y0020625D01*
X0017187Y0048562D02*
Y0047562D01*
X0018187Y0048562D02*
X0017187D01*
X0018187Y0047562D02*
Y0048562D01*
X0017187Y0047562D02*
X0018187D01*
Y0048562D02*
X0017187Y0047562D01*
X0018187D02*
X0017187Y0048562D01*
X0018187Y0044750D02*
Y0043750D01*
X0019187Y0044750D02*
X0018187D01*
X0019187Y0043750D02*
Y0044750D01*
X0018187Y0043750D02*
X0019187D01*
Y0044750D02*
X0018187Y0043750D01*
X0019187D02*
X0018187Y0044750D01*
X0012125Y0022125D02*
Y0021125D01*
X0013125Y0022125D02*
X0012125D01*
X0013125Y0021125D02*
Y0022125D01*
X0012125Y0021125D02*
X0013125D01*
Y0022125D02*
X0012125Y0021125D01*
X0013125D02*
X0012125Y0022125D01*
X0011437Y0042625D02*
Y0041625D01*
X0012437Y0042625D02*
X0011437D01*
X0012437Y0041625D02*
Y0042625D01*
X0011437Y0041625D02*
X0012437D01*
Y0042625D02*
X0011437Y0041625D01*
X0012437D02*
X0011437Y0042625D01*
X0010312Y0040562D02*
Y0039562D01*
X0011312Y0040562D02*
X0010312D01*
X0011312Y0039562D02*
Y0040562D01*
X0010312Y0039562D02*
X0011312D01*
Y0040562D02*
X0010312Y0039562D01*
X0011312D02*
X0010312Y0040562D01*
X0019437Y0033812D02*
Y0032812D01*
X0020437Y0033812D02*
X0019437D01*
X0020437Y0032812D02*
Y0033812D01*
X0019437Y0032812D02*
X0020437D01*
Y0033812D02*
X0019437Y0032812D01*
X0020437D02*
X0019437Y0033812D01*
X0019500Y0031062D02*
Y0030062D01*
X0020500Y0031062D02*
X0019500D01*
X0020500Y0030062D02*
Y0031062D01*
X0019500Y0030062D02*
X0020500D01*
Y0031062D02*
X0019500Y0030062D01*
X0020500D02*
X0019500Y0031062D01*
X0003875Y0030500D02*
Y0029500D01*
X0004875Y0030500D02*
X0003875D01*
X0004875Y0029500D02*
Y0030500D01*
X0003875Y0029500D02*
X0004875D01*
Y0030500D02*
X0003875Y0029500D01*
X0004875D02*
X0003875Y0030500D01*
Y0035000D02*
Y0034000D01*
X0004875Y0035000D02*
X0003875D01*
X0004875Y0034000D02*
Y0035000D01*
X0003875Y0034000D02*
X0004875D01*
Y0035000D02*
X0003875Y0034000D01*
X0004875D02*
X0003875Y0035000D01*
X0001812Y0043937D02*
Y0042937D01*
X0002812Y0043937D02*
X0001812D01*
X0002812Y0042937D02*
Y0043937D01*
X0001812Y0042937D02*
X0002812D01*
Y0043937D02*
X0001812Y0042937D01*
X0002812D02*
X0001812Y0043937D01*
X0008250Y0032000D02*
Y0031000D01*
X0009250Y0032000D02*
X0008250D01*
X0009250Y0031000D02*
Y0032000D01*
X0008250Y0031000D02*
X0009250D01*
Y0032000D02*
X0008250Y0031000D01*
X0009250D02*
X0008250Y0032000D01*
X0003875Y0035000D02*
Y0034000D01*
X0004875Y0035000D02*
X0003875D01*
X0004875Y0034000D02*
Y0035000D01*
X0003875Y0034000D02*
X0004875D01*
Y0035000D02*
X0003875Y0034000D01*
X0004875D02*
X0003875Y0035000D01*
X0004500Y0044250D02*
Y0043250D01*
X0005500Y0044250D02*
X0004500D01*
X0005500Y0043250D02*
Y0044250D01*
X0004500Y0043250D02*
X0005500D01*
Y0044250D02*
X0004500Y0043250D01*
X0005500D02*
X0004500Y0044250D01*
X0018187Y0044750D02*
Y0043750D01*
X0019187Y0044750D02*
X0018187D01*
X0019187Y0043750D02*
Y0044750D01*
X0018187Y0043750D02*
X0019187D01*
Y0044750D02*
X0018187Y0043750D01*
X0019187D02*
X0018187Y0044750D01*
X0020375Y0012625D02*
Y0011625D01*
X0021375Y0012625D02*
X0020375D01*
X0021375Y0011625D02*
Y0012625D01*
X0020375Y0011625D02*
X0021375D01*
Y0012625D02*
X0020375Y0011625D01*
X0021375D02*
X0020375Y0012625D01*
X0021000Y0014250D02*
Y0013250D01*
X0022000Y0014250D02*
X0021000D01*
X0022000Y0013250D02*
Y0014250D01*
X0021000Y0013250D02*
X0022000D01*
Y0014250D02*
X0021000Y0013250D01*
X0022000D02*
X0021000Y0014250D01*
X0019062Y0031375D02*
Y0030375D01*
X0020062Y0031375D02*
X0019062D01*
X0020062Y0030375D02*
Y0031375D01*
X0019062Y0030375D02*
X0020062D01*
Y0031375D02*
X0019062Y0030375D01*
X0020062D02*
X0019062Y0031375D01*
X0019000Y0033750D02*
Y0032750D01*
X0020000Y0033750D02*
X0019000D01*
X0020000Y0032750D02*
Y0033750D01*
X0019000Y0032750D02*
X0020000D01*
Y0033750D02*
X0019000Y0032750D01*
X0020000D02*
X0019000Y0033750D01*
X0011125Y0010500D02*
Y0009500D01*
X0012125Y0010500D02*
X0011125D01*
X0012125Y0009500D02*
Y0010500D01*
X0011125Y0009500D02*
X0012125D01*
Y0010500D02*
X0011125Y0009500D01*
X0012125D02*
X0011125Y0010500D01*
X0015125Y0039500D02*
Y0038500D01*
X0016125Y0039500D02*
X0015125D01*
X0016125Y0038500D02*
Y0039500D01*
X0015125Y0038500D02*
X0016125D01*
Y0039500D02*
X0015125Y0038500D01*
X0016125D02*
X0015125Y0039500D01*
X0028000Y0039875D02*
Y0038875D01*
X0029000Y0039875D02*
X0028000D01*
X0029000Y0038875D02*
Y0039875D01*
X0028000Y0038875D02*
X0029000D01*
Y0039875D02*
X0028000Y0038875D01*
X0029000D02*
X0028000Y0039875D01*
Y0038750D02*
Y0037750D01*
X0029000Y0038750D02*
X0028000D01*
X0029000Y0037750D02*
Y0038750D01*
X0028000Y0037750D02*
X0029000D01*
Y0038750D02*
X0028000Y0037750D01*
X0029000D02*
X0028000Y0038750D01*
X0016750Y0006750D02*
Y0005750D01*
X0017750Y0006750D02*
X0016750D01*
X0017750Y0005750D02*
Y0006750D01*
X0016750Y0005750D02*
X0017750D01*
Y0006750D02*
X0016750Y0005750D01*
X0017750D02*
X0016750Y0006750D01*
X0016875Y0013125D02*
Y0012125D01*
X0017875Y0013125D02*
X0016875D01*
X0017875Y0012125D02*
Y0013125D01*
X0016875Y0012125D02*
X0017875D01*
Y0013125D02*
X0016875Y0012125D01*
X0017875D02*
X0016875Y0013125D01*
X0028125Y0015000D02*
Y0014000D01*
X0029125Y0015000D02*
X0028125D01*
X0029125Y0014000D02*
Y0015000D01*
X0028125Y0014000D02*
X0029125D01*
Y0015000D02*
X0028125Y0014000D01*
X0029125D02*
X0028125Y0015000D01*
X0017625D02*
Y0014000D01*
X0018625Y0015000D02*
X0017625D01*
X0018625Y0014000D02*
Y0015000D01*
X0017625Y0014000D02*
X0018625D01*
Y0015000D02*
X0017625Y0014000D01*
X0018625D02*
X0017625Y0015000D01*
Y0009875D02*
Y0008875D01*
X0018625Y0009875D02*
X0017625D01*
X0018625Y0008875D02*
Y0009875D01*
X0017625Y0008875D02*
X0018625D01*
Y0009875D02*
X0017625Y0008875D01*
X0018625D02*
X0017625Y0009875D01*
X0007000Y0006250D02*
Y0005250D01*
X0008000Y0006250D02*
X0007000D01*
X0008000Y0005250D02*
Y0006250D01*
X0007000Y0005250D02*
X0008000D01*
Y0006250D02*
X0007000Y0005250D01*
X0008000D02*
X0007000Y0006250D01*
X0006500Y0014375D02*
Y0013375D01*
X0007500Y0014375D02*
X0006500D01*
X0007500Y0013375D02*
Y0014375D01*
X0006500Y0013375D02*
X0007500D01*
Y0014375D02*
X0006500Y0013375D01*
X0007500D02*
X0006500Y0014375D01*
X0017125Y0011375D02*
Y0010375D01*
X0018125Y0011375D02*
X0017125D01*
X0018125Y0010375D02*
Y0011375D01*
X0017125Y0010375D02*
X0018125D01*
Y0011375D02*
X0017125Y0010375D01*
X0018125D02*
X0017125Y0011375D01*
Y0007500D02*
Y0006500D01*
X0018125Y0007500D02*
X0017125D01*
X0018125Y0006500D02*
Y0007500D01*
X0017125Y0006500D02*
X0018125D01*
Y0007500D02*
X0017125Y0006500D01*
X0018125D02*
X0017125Y0007500D01*
X0007500Y0009875D02*
Y0008875D01*
X0008500Y0009875D02*
X0007500D01*
X0008500Y0008875D02*
Y0009875D01*
X0007500Y0008875D02*
X0008500D01*
Y0009875D02*
X0007500Y0008875D01*
X0008500D02*
X0007500Y0009875D01*
Y0007500D02*
Y0006500D01*
X0008500Y0007500D02*
X0007500D01*
X0008500Y0006500D02*
Y0007500D01*
X0007500Y0006500D02*
X0008500D01*
Y0007500D02*
X0007500Y0006500D01*
X0008500D02*
X0007500Y0007500D01*
Y0012750D02*
Y0011750D01*
X0008500Y0012750D02*
X0007500D01*
X0008500Y0011750D02*
Y0012750D01*
X0007500Y0011750D02*
X0008500D01*
Y0012750D02*
X0007500Y0011750D01*
X0008500D02*
X0007500Y0012750D01*
Y0007500D02*
Y0006500D01*
X0008500Y0007500D02*
X0007500D01*
X0008500Y0006500D02*
Y0007500D01*
X0007500Y0006500D02*
X0008500D01*
Y0007500D02*
X0007500Y0006500D01*
X0008500D02*
X0007500Y0007500D01*
Y0006500D01*
X0008500Y0007500D02*
X0007500D01*
X0008500Y0006500D02*
Y0007500D01*
X0007500Y0006500D02*
X0008500D01*
Y0007500D02*
X0007500Y0006500D01*
X0008500D02*
X0007500Y0007500D01*
Y0005500D02*
Y0004500D01*
X0008500Y0005500D02*
X0007500D01*
X0008500Y0004500D02*
Y0005500D01*
X0007500Y0004500D02*
X0008500D01*
Y0005500D02*
X0007500Y0004500D01*
X0008500D02*
X0007500Y0005500D01*
X0039875Y0033500D02*
Y0032500D01*
X0040875Y0033500D02*
X0039875D01*
X0040875Y0032500D02*
Y0033500D01*
X0039875Y0032500D02*
X0040875D01*
Y0033500D02*
X0039875Y0032500D01*
X0040875D02*
X0039875Y0033500D01*
Y0028000D02*
Y0027000D01*
X0040875Y0028000D02*
X0039875D01*
X0040875Y0027000D02*
Y0028000D01*
X0039875Y0027000D02*
X0040875D01*
Y0028000D02*
X0039875Y0027000D01*
X0040875D02*
X0039875Y0028000D01*
X0015125Y0003000D02*
Y0002000D01*
X0016125Y0003000D02*
X0015125D01*
X0016125Y0002000D02*
Y0003000D01*
X0015125Y0002000D02*
X0016125D01*
Y0003000D02*
X0015125Y0002000D01*
X0016125D02*
X0015125Y0003000D01*
X0016750Y0006750D02*
Y0005750D01*
X0017750Y0006750D02*
X0016750D01*
X0017750Y0005750D02*
Y0006750D01*
X0016750Y0005750D02*
X0017750D01*
Y0006750D02*
X0016750Y0005750D01*
X0017750D02*
X0016750Y0006750D01*
X0020625Y0051687D02*
Y0050687D01*
X0021625Y0051687D02*
X0020625D01*
X0021625Y0050687D02*
Y0051687D01*
X0020625Y0050687D02*
X0021625D01*
Y0051687D02*
X0020625Y0050687D01*
X0021625D02*
X0020625Y0051687D01*
X0019187Y0042937D02*
Y0041937D01*
X0020187Y0042937D02*
X0019187D01*
X0020187Y0041937D02*
Y0042937D01*
X0019187Y0041937D02*
X0020187D01*
Y0042937D02*
X0019187Y0041937D01*
X0020187D02*
X0019187Y0042937D01*
X0038750Y0027312D02*
Y0026312D01*
X0039750Y0027312D02*
X0038750D01*
X0039750Y0026312D02*
Y0027312D01*
X0038750Y0026312D02*
X0039750D01*
Y0027312D02*
X0038750Y0026312D01*
X0039750D02*
X0038750Y0027312D01*
X0034375Y0025750D02*
Y0024750D01*
X0035375Y0025750D02*
X0034375D01*
X0035375Y0024750D02*
Y0025750D01*
X0034375Y0024750D02*
X0035375D01*
Y0025750D02*
X0034375Y0024750D01*
X0035375D02*
X0034375Y0025750D01*
Y0028500D02*
Y0027500D01*
X0035375Y0028500D02*
X0034375D01*
X0035375Y0027500D02*
Y0028500D01*
X0034375Y0027500D02*
X0035375D01*
Y0028500D02*
X0034375Y0027500D01*
X0035375D02*
X0034375Y0028500D01*
X0038625D02*
Y0027500D01*
X0039625Y0028500D02*
X0038625D01*
X0039625Y0027500D02*
Y0028500D01*
X0038625Y0027500D02*
X0039625D01*
Y0028500D02*
X0038625Y0027500D01*
X0039625D02*
X0038625Y0028500D01*
X0001937Y0047562D02*
Y0046562D01*
X0002937Y0047562D02*
X0001937D01*
X0002937Y0046562D02*
Y0047562D01*
X0001937Y0046562D02*
X0002937D01*
Y0047562D02*
X0001937Y0046562D01*
X0002937D02*
X0001937Y0047562D01*
X0017125Y0007500D02*
Y0006500D01*
X0018125Y0007500D02*
X0017125D01*
X0018125Y0006500D02*
Y0007500D01*
X0017125Y0006500D02*
X0018125D01*
Y0007500D02*
X0017125Y0006500D01*
X0018125D02*
X0017125Y0007500D01*
Y0006000D02*
Y0005000D01*
X0018125Y0006000D02*
X0017125D01*
X0018125Y0005000D02*
Y0006000D01*
X0017125Y0005000D02*
X0018125D01*
Y0006000D02*
X0017125Y0005000D01*
X0018125D02*
X0017125Y0006000D01*
X0004000Y0011000D02*
Y0010000D01*
X0005000Y0011000D02*
X0004000D01*
X0005000Y0010000D02*
Y0011000D01*
X0004000Y0010000D02*
X0005000D01*
Y0011000D02*
X0004000Y0010000D01*
X0005000D02*
X0004000Y0011000D01*
Y0008625D02*
Y0007625D01*
X0005000Y0008625D02*
X0004000D01*
X0005000Y0007625D02*
Y0008625D01*
X0004000Y0007625D02*
X0005000D01*
Y0008625D02*
X0004000Y0007625D01*
X0005000D02*
X0004000Y0008625D01*
X0003500Y0044125D02*
Y0043125D01*
X0004500Y0044125D02*
X0003500D01*
X0004500Y0043125D02*
Y0044125D01*
X0003500Y0043125D02*
X0004500D01*
Y0044125D02*
X0003500Y0043125D01*
X0004500D02*
X0003500Y0044125D01*
X0004000Y0050437D02*
Y0049437D01*
X0005000Y0050437D02*
X0004000D01*
X0005000Y0049437D02*
Y0050437D01*
X0004000Y0049437D02*
X0005000D01*
Y0050437D02*
X0004000Y0049437D01*
X0005000D02*
X0004000Y0050437D01*
X0039625Y0034125D02*
X0039125Y0033625D01*
X0040125D02*
X0039625Y0034125D01*
Y0033125D02*
X0040125Y0033625D01*
X0039125D02*
X0039625Y0033125D01*
X0039725Y0033625D02*
X0039525D01*
X0039625Y0033725D02*
Y0033525D01*
X0036250Y0026375D02*
Y0025375D01*
X0037250Y0026375D02*
X0036250D01*
X0037250Y0025375D02*
Y0026375D01*
X0036250Y0025375D02*
X0037250D01*
Y0026375D02*
X0036250Y0025375D01*
X0037250D02*
X0036250Y0026375D01*
X0038500Y0027625D02*
Y0026625D01*
X0039500Y0027625D02*
X0038500D01*
X0039500Y0026625D02*
Y0027625D01*
X0038500Y0026625D02*
X0039500D01*
Y0027625D02*
X0038500Y0026625D01*
X0039500D02*
X0038500Y0027625D01*
X0013750Y0037625D02*
Y0036625D01*
X0014750Y0037625D02*
X0013750D01*
X0014750Y0036625D02*
Y0037625D01*
X0013750Y0036625D02*
X0014750D01*
Y0037625D02*
X0013750Y0036625D01*
X0014750D02*
X0013750Y0037625D01*
X0017625Y0009875D02*
Y0008875D01*
X0018625Y0009875D02*
X0017625D01*
X0018625Y0008875D02*
Y0009875D01*
X0017625Y0008875D02*
X0018625D01*
Y0009875D02*
X0017625Y0008875D01*
X0018625D02*
X0017625Y0009875D01*
X0017375Y0004875D02*
Y0003875D01*
X0018375Y0004875D02*
X0017375D01*
X0018375Y0003875D02*
Y0004875D01*
X0017375Y0003875D02*
X0018375D01*
Y0004875D02*
X0017375Y0003875D01*
X0018375D02*
X0017375Y0004875D01*
X0007000Y0004500D02*
Y0003500D01*
X0008000Y0004500D02*
X0007000D01*
X0008000Y0003500D02*
Y0004500D01*
X0007000Y0003500D02*
X0008000D01*
Y0004500D02*
X0007000Y0003500D01*
X0008000D02*
X0007000Y0004500D01*
Y0006250D02*
Y0005250D01*
X0008000Y0006250D02*
X0007000D01*
X0008000Y0005250D02*
Y0006250D01*
X0007000Y0005250D02*
X0008000D01*
Y0006250D02*
X0007000Y0005250D01*
X0008000D02*
X0007000Y0006250D01*
X0028125Y0015000D02*
Y0014000D01*
X0029125Y0015000D02*
X0028125D01*
X0029125Y0014000D02*
Y0015000D01*
X0028125Y0014000D02*
X0029125D01*
Y0015000D02*
X0028125Y0014000D01*
X0029125D02*
X0028125Y0015000D01*
X0019250D02*
Y0014000D01*
X0020250Y0015000D02*
X0019250D01*
X0020250Y0014000D02*
Y0015000D01*
X0019250Y0014000D02*
X0020250D01*
Y0015000D02*
X0019250Y0014000D01*
X0020250D02*
X0019250Y0015000D01*
Y0029500D02*
Y0028500D01*
X0020250Y0029500D02*
X0019250D01*
X0020250Y0028500D02*
Y0029500D01*
X0019250Y0028500D02*
X0020250D01*
Y0029500D02*
X0019250Y0028500D01*
X0020250D02*
X0019250Y0029500D01*
X0028125Y0015000D02*
Y0014000D01*
X0029125Y0015000D02*
X0028125D01*
X0029125Y0014000D02*
Y0015000D01*
X0028125Y0014000D02*
X0029125D01*
Y0015000D02*
X0028125Y0014000D01*
X0029125D02*
X0028125Y0015000D01*
X0033375D02*
Y0014000D01*
X0034375Y0015000D02*
X0033375D01*
X0034375Y0014000D02*
Y0015000D01*
X0033375Y0014000D02*
X0034375D01*
Y0015000D02*
X0033375Y0014000D01*
X0034375D02*
X0033375Y0015000D01*
X0032625Y0027500D02*
Y0026500D01*
X0033625Y0027500D02*
X0032625D01*
X0033625Y0026500D02*
Y0027500D01*
X0032625Y0026500D02*
X0033625D01*
Y0027500D02*
X0032625Y0026500D01*
X0033625D02*
X0032625Y0027500D01*
X0006250Y0015250D02*
Y0014250D01*
X0007250Y0015250D02*
X0006250D01*
X0007250Y0014250D02*
Y0015250D01*
X0006250Y0014250D02*
X0007250D01*
Y0015250D02*
X0006250Y0014250D01*
X0007250D02*
X0006250Y0015250D01*
X0006125Y0018125D02*
Y0017125D01*
X0007125Y0018125D02*
X0006125D01*
X0007125Y0017125D02*
Y0018125D01*
X0006125Y0017125D02*
X0007125D01*
Y0018125D02*
X0006125Y0017125D01*
X0007125D02*
X0006125Y0018125D01*
X0014375Y0008125D02*
Y0007125D01*
X0015375Y0008125D02*
X0014375D01*
X0015375Y0007125D02*
Y0008125D01*
X0014375Y0007125D02*
X0015375D01*
Y0008125D02*
X0014375Y0007125D01*
X0015375D02*
X0014375Y0008125D01*
X0015250Y0015375D02*
Y0014375D01*
X0016250Y0015375D02*
X0015250D01*
X0016250Y0014375D02*
Y0015375D01*
X0015250Y0014375D02*
X0016250D01*
Y0015375D02*
X0015250Y0014375D01*
X0016250D02*
X0015250Y0015375D01*
X0014375Y0008125D02*
Y0007125D01*
X0015375Y0008125D02*
X0014375D01*
X0015375Y0007125D02*
Y0008125D01*
X0014375Y0007125D02*
X0015375D01*
Y0008125D02*
X0014375Y0007125D01*
X0015375D02*
X0014375Y0008125D01*
X0013500Y0003500D02*
Y0002500D01*
X0014500Y0003500D02*
X0013500D01*
X0014500Y0002500D02*
Y0003500D01*
X0013500Y0002500D02*
X0014500D01*
Y0003500D02*
X0013500Y0002500D01*
X0014500D02*
X0013500Y0003500D01*
X0008375Y0014625D02*
Y0013625D01*
X0009375Y0014625D02*
X0008375D01*
X0009375Y0013625D02*
Y0014625D01*
X0008375Y0013625D02*
X0009375D01*
Y0014625D02*
X0008375Y0013625D01*
X0009375D02*
X0008375Y0014625D01*
X0036250Y0025750D02*
Y0024750D01*
X0037250Y0025750D02*
X0036250D01*
X0037250Y0024750D02*
Y0025750D01*
X0036250Y0024750D02*
X0037250D01*
Y0025750D02*
X0036250Y0024750D01*
X0037250D02*
X0036250Y0025750D01*
Y0015875D02*
Y0014875D01*
X0037250Y0015875D02*
X0036250D01*
X0037250Y0014875D02*
Y0015875D01*
X0036250Y0014875D02*
X0037250D01*
Y0015875D02*
X0036250Y0014875D01*
X0037250D02*
X0036250Y0015875D01*
X0039125Y0026250D02*
Y0025250D01*
X0040125Y0026250D02*
X0039125D01*
X0040125Y0025250D02*
Y0026250D01*
X0039125Y0025250D02*
X0040125D01*
Y0026250D02*
X0039125Y0025250D01*
X0040125D02*
X0039125Y0026250D01*
X0012625Y0047125D02*
Y0046125D01*
X0013625Y0047125D02*
X0012625D01*
X0013625Y0046125D02*
Y0047125D01*
X0012625Y0046125D02*
X0013625D01*
Y0047125D02*
X0012625Y0046125D01*
X0013625D02*
X0012625Y0047125D01*
X0010750Y0008625D02*
Y0007625D01*
X0011750Y0008625D02*
X0010750D01*
X0011750Y0007625D02*
Y0008625D01*
X0010750Y0007625D02*
X0011750D01*
Y0008625D02*
X0010750Y0007625D01*
X0011750D02*
X0010750Y0008625D01*
X0017562Y0032000D02*
Y0031000D01*
X0018562Y0032000D02*
X0017562D01*
X0018562Y0031000D02*
Y0032000D01*
X0017562Y0031000D02*
X0018562D01*
Y0032000D02*
X0017562Y0031000D01*
X0018562D02*
X0017562Y0032000D01*
X0017312Y0028000D02*
Y0027000D01*
X0018312Y0028000D02*
X0017312D01*
X0018312Y0027000D02*
Y0028000D01*
X0017312Y0027000D02*
X0018312D01*
Y0028000D02*
X0017312Y0027000D01*
X0018312D02*
X0017312Y0028000D01*
X0003375Y0007125D02*
Y0006125D01*
X0004375Y0007125D02*
X0003375D01*
X0004375Y0006125D02*
Y0007125D01*
X0003375Y0006125D02*
X0004375D01*
Y0007125D02*
X0003375Y0006125D01*
X0004375D02*
X0003375Y0007125D01*
X0018500Y0041000D02*
Y0040000D01*
X0019500Y0041000D02*
X0018500D01*
X0019500Y0040000D02*
Y0041000D01*
X0018500Y0040000D02*
X0019500D01*
Y0041000D02*
X0018500Y0040000D01*
X0019500D02*
X0018500Y0041000D01*
X0019000Y0033750D02*
Y0032750D01*
X0020000Y0033750D02*
X0019000D01*
X0020000Y0032750D02*
Y0033750D01*
X0019000Y0032750D02*
X0020000D01*
Y0033750D02*
X0019000Y0032750D01*
X0020000D02*
X0019000Y0033750D01*
X0006000Y0024000D02*
X0005500Y0023500D01*
X0006500D02*
X0006000Y0024000D01*
Y0023000D02*
X0006500Y0023500D01*
X0005500D02*
X0006000Y0023000D01*
X0006100Y0023500D02*
X0005900D01*
X0006000Y0023600D02*
Y0023400D01*
X0020750Y0011875D02*
Y0010875D01*
X0021750Y0011875D02*
X0020750D01*
X0021750Y0010875D02*
Y0011875D01*
X0020750Y0010875D02*
X0021750D01*
Y0011875D02*
X0020750Y0010875D01*
X0021750D02*
X0020750Y0011875D01*
Y0006875D02*
Y0005875D01*
X0021750Y0006875D02*
X0020750D01*
X0021750Y0005875D02*
Y0006875D01*
X0020750Y0005875D02*
X0021750D01*
Y0006875D02*
X0020750Y0005875D01*
X0021750D02*
X0020750Y0006875D01*
X0018250Y0010125D02*
Y0009125D01*
X0019250Y0010125D02*
X0018250D01*
X0019250Y0009125D02*
Y0010125D01*
X0018250Y0009125D02*
X0019250D01*
Y0010125D02*
X0018250Y0009125D01*
X0019250D02*
X0018250Y0010125D01*
X0018125Y0006250D02*
Y0005250D01*
X0019125Y0006250D02*
X0018125D01*
X0019125Y0005250D02*
Y0006250D01*
X0018125Y0005250D02*
X0019125D01*
Y0006250D02*
X0018125Y0005250D01*
X0019125D02*
X0018125Y0006250D01*
X0016375Y0024750D02*
Y0023750D01*
X0017375Y0024750D02*
X0016375D01*
X0017375Y0023750D02*
Y0024750D01*
X0016375Y0023750D02*
X0017375D01*
Y0024750D02*
X0016375Y0023750D01*
X0017375D02*
X0016375Y0024750D01*
X0022000Y0037750D02*
Y0036750D01*
X0023000Y0037750D02*
X0022000D01*
X0023000Y0036750D02*
Y0037750D01*
X0022000Y0036750D02*
X0023000D01*
Y0037750D02*
X0022000Y0036750D01*
X0023000D02*
X0022000Y0037750D01*
X0022250Y0024000D02*
Y0023000D01*
X0023250Y0024000D02*
X0022250D01*
X0023250Y0023000D02*
Y0024000D01*
X0022250Y0023000D02*
X0023250D01*
Y0024000D02*
X0022250Y0023000D01*
X0023250D02*
X0022250Y0024000D01*
X0026250D02*
Y0023000D01*
X0027250Y0024000D02*
X0026250D01*
X0027250Y0023000D02*
Y0024000D01*
X0026250Y0023000D02*
X0027250D01*
Y0024000D02*
X0026250Y0023000D01*
X0027250D02*
X0026250Y0024000D01*
Y0029625D02*
Y0028625D01*
X0027250Y0029625D02*
X0026250D01*
X0027250Y0028625D02*
Y0029625D01*
X0026250Y0028625D02*
X0027250D01*
Y0029625D02*
X0026250Y0028625D01*
X0027250D02*
X0026250Y0029625D01*
X0012125Y0048250D02*
Y0047250D01*
X0013125Y0048250D02*
X0012125D01*
X0013125Y0047250D02*
Y0048250D01*
X0012125Y0047250D02*
X0013125D01*
Y0048250D02*
X0012125Y0047250D01*
X0013125D02*
X0012125Y0048250D01*
X0010625Y0014250D02*
Y0013250D01*
X0011625Y0014250D02*
X0010625D01*
X0011625Y0013250D02*
Y0014250D01*
X0010625Y0013250D02*
X0011625D01*
Y0014250D02*
X0010625Y0013250D01*
X0011625D02*
X0010625Y0014250D01*
X0028000Y0038750D02*
Y0037750D01*
X0029000Y0038750D02*
X0028000D01*
X0029000Y0037750D02*
Y0038750D01*
X0028000Y0037750D02*
X0029000D01*
Y0038750D02*
X0028000Y0037750D01*
X0029000D02*
X0028000Y0038750D01*
Y0039875D02*
Y0038875D01*
X0029000Y0039875D02*
X0028000D01*
X0029000Y0038875D02*
Y0039875D01*
X0028000Y0038875D02*
X0029000D01*
Y0039875D02*
X0028000Y0038875D01*
X0029000D02*
X0028000Y0039875D01*
X0033875D02*
Y0038875D01*
X0034875Y0039875D02*
X0033875D01*
X0034875Y0038875D02*
Y0039875D01*
X0033875Y0038875D02*
X0034875D01*
Y0039875D02*
X0033875Y0038875D01*
X0034875D02*
X0033875Y0039875D01*
X0008250Y0048312D02*
Y0047312D01*
X0009250Y0048312D02*
X0008250D01*
X0009250Y0047312D02*
Y0048312D01*
X0008250Y0047312D02*
X0009250D01*
Y0048312D02*
X0008250Y0047312D01*
X0009250D02*
X0008250Y0048312D01*
X0007812Y0046625D02*
Y0045625D01*
X0008812Y0046625D02*
X0007812D01*
X0008812Y0045625D02*
Y0046625D01*
X0007812Y0045625D02*
X0008812D01*
Y0046625D02*
X0007812Y0045625D01*
X0008812D02*
X0007812Y0046625D01*
X0016062Y0053250D02*
Y0052250D01*
X0017062Y0053250D02*
X0016062D01*
X0017062Y0052250D02*
Y0053250D01*
X0016062Y0052250D02*
X0017062D01*
Y0053250D02*
X0016062Y0052250D01*
X0017062D02*
X0016062Y0053250D01*
X0016125Y0050812D02*
Y0049812D01*
X0017125Y0050812D02*
X0016125D01*
X0017125Y0049812D02*
Y0050812D01*
X0016125Y0049812D02*
X0017125D01*
Y0050812D02*
X0016125Y0049812D01*
X0017125D02*
X0016125Y0050812D01*
X0003375Y0009500D02*
Y0008500D01*
X0004375Y0009500D02*
X0003375D01*
X0004375Y0008500D02*
Y0009500D01*
X0003375Y0008500D02*
X0004375D01*
Y0009500D02*
X0003375Y0008500D01*
X0004375D02*
X0003375Y0009500D01*
X0008625Y0014125D02*
Y0013125D01*
X0009625Y0014125D02*
X0008625D01*
X0009625Y0013125D02*
Y0014125D01*
X0008625Y0013125D02*
X0009625D01*
Y0014125D02*
X0008625Y0013125D01*
X0009625D02*
X0008625Y0014125D01*
Y0009000D02*
Y0008000D01*
X0009625Y0009000D02*
X0008625D01*
X0009625Y0008000D02*
Y0009000D01*
X0008625Y0008000D02*
X0009625D01*
Y0009000D02*
X0008625Y0008000D01*
X0009625D02*
X0008625Y0009000D01*
X0018250Y0010125D02*
Y0009125D01*
X0019250Y0010125D02*
X0018250D01*
X0019250Y0009125D02*
Y0010125D01*
X0018250Y0009125D02*
X0019250D01*
Y0010125D02*
X0018250Y0009125D01*
X0019250D02*
X0018250Y0010125D01*
X0018875Y0013750D02*
Y0012750D01*
X0019875Y0013750D02*
X0018875D01*
X0019875Y0012750D02*
Y0013750D01*
X0018875Y0012750D02*
X0019875D01*
Y0013750D02*
X0018875Y0012750D01*
X0019875D02*
X0018875Y0013750D01*
X0013875D02*
Y0012750D01*
X0014875Y0013750D02*
X0013875D01*
X0014875Y0012750D02*
Y0013750D01*
X0013875Y0012750D02*
X0014875D01*
Y0013750D02*
X0013875Y0012750D01*
X0014875D02*
X0013875Y0013750D01*
Y0016000D02*
Y0015000D01*
X0014875Y0016000D02*
X0013875D01*
X0014875Y0015000D02*
Y0016000D01*
X0013875Y0015000D02*
X0014875D01*
Y0016000D02*
X0013875Y0015000D01*
X0014875D02*
X0013875Y0016000D01*
X0033000Y0032750D02*
Y0031750D01*
X0034000Y0032750D02*
X0033000D01*
X0034000Y0031750D02*
Y0032750D01*
X0033000Y0031750D02*
X0034000D01*
Y0032750D02*
X0033000Y0031750D01*
X0034000D02*
X0033000Y0032750D01*
X0032312Y0036875D02*
Y0035875D01*
X0033312Y0036875D02*
X0032312D01*
X0033312Y0035875D02*
Y0036875D01*
X0032312Y0035875D02*
X0033312D01*
Y0036875D02*
X0032312Y0035875D01*
X0033312D02*
X0032312Y0036875D01*
X0030937Y0035937D02*
Y0034937D01*
X0031937Y0035937D02*
X0030937D01*
X0031937Y0034937D02*
Y0035937D01*
X0030937Y0034937D02*
X0031937D01*
Y0035937D02*
X0030937Y0034937D01*
X0031937D02*
X0030937Y0035937D01*
Y0034750D02*
Y0033750D01*
X0031937Y0034750D02*
X0030937D01*
X0031937Y0033750D02*
Y0034750D01*
X0030937Y0033750D02*
X0031937D01*
Y0034750D02*
X0030937Y0033750D01*
X0031937D02*
X0030937Y0034750D01*
X0028687Y0031937D02*
Y0030937D01*
X0029687Y0031937D02*
X0028687D01*
X0029687Y0030937D02*
Y0031937D01*
X0028687Y0030937D02*
X0029687D01*
Y0031937D02*
X0028687Y0030937D01*
X0029687D02*
X0028687Y0031937D01*
X0028625Y0029562D02*
Y0028562D01*
X0029625Y0029562D02*
X0028625D01*
X0029625Y0028562D02*
Y0029562D01*
X0028625Y0028562D02*
X0029625D01*
Y0029562D02*
X0028625Y0028562D01*
X0029625D02*
X0028625Y0029562D01*
X0004875Y0010125D02*
Y0009125D01*
X0005875Y0010125D02*
X0004875D01*
X0005875Y0009125D02*
Y0010125D01*
X0004875Y0009125D02*
X0005875D01*
Y0010125D02*
X0004875Y0009125D01*
X0005875D02*
X0004875Y0010125D01*
X0006000Y0011750D02*
Y0010750D01*
X0007000Y0011750D02*
X0006000D01*
X0007000Y0010750D02*
Y0011750D01*
X0006000Y0010750D02*
X0007000D01*
Y0011750D02*
X0006000Y0010750D01*
X0007000D02*
X0006000Y0011750D01*
X0003625Y0029000D02*
Y0028000D01*
X0004625Y0029000D02*
X0003625D01*
X0004625Y0028000D02*
Y0029000D01*
X0003625Y0028000D02*
X0004625D01*
Y0029000D02*
X0003625Y0028000D01*
X0004625D02*
X0003625Y0029000D01*
X0006625Y0029500D02*
Y0028500D01*
X0007625Y0029500D02*
X0006625D01*
X0007625Y0028500D02*
Y0029500D01*
X0006625Y0028500D02*
X0007625D01*
Y0029500D02*
X0006625Y0028500D01*
X0007625D02*
X0006625Y0029500D01*
X0018875Y0023125D02*
Y0022125D01*
X0019875Y0023125D02*
X0018875D01*
X0019875Y0022125D02*
Y0023125D01*
X0018875Y0022125D02*
X0019875D01*
Y0023125D02*
X0018875Y0022125D01*
X0019875D02*
X0018875Y0023125D01*
Y0024750D02*
Y0023750D01*
X0019875Y0024750D02*
X0018875D01*
X0019875Y0023750D02*
Y0024750D01*
X0018875Y0023750D02*
X0019875D01*
Y0024750D02*
X0018875Y0023750D01*
X0019875D02*
X0018875Y0024750D01*
X0030062Y0032062D02*
Y0031062D01*
X0031062Y0032062D02*
X0030062D01*
X0031062Y0031062D02*
Y0032062D01*
X0030062Y0031062D02*
X0031062D01*
Y0032062D02*
X0030062Y0031062D01*
X0031062D02*
X0030062Y0032062D01*
X0030125Y0034000D02*
Y0033000D01*
X0031125Y0034000D02*
X0030125D01*
X0031125Y0033000D02*
Y0034000D01*
X0030125Y0033000D02*
X0031125D01*
Y0034000D02*
X0030125Y0033000D01*
X0031125D02*
X0030125Y0034000D01*
X0028687Y0031937D02*
Y0030937D01*
X0029687Y0031937D02*
X0028687D01*
X0029687Y0030937D02*
Y0031937D01*
X0028687Y0030937D02*
X0029687D01*
Y0031937D02*
X0028687Y0030937D01*
X0029687D02*
X0028687Y0031937D01*
X0028812Y0032750D02*
Y0031750D01*
X0029812Y0032750D02*
X0028812D01*
X0029812Y0031750D02*
Y0032750D01*
X0028812Y0031750D02*
X0029812D01*
Y0032750D02*
X0028812Y0031750D01*
X0029812D02*
X0028812Y0032750D01*
X0022500Y0048625D02*
Y0047625D01*
X0023500Y0048625D02*
X0022500D01*
X0023500Y0047625D02*
Y0048625D01*
X0022500Y0047625D02*
X0023500D01*
Y0048625D02*
X0022500Y0047625D01*
X0023500D02*
X0022500Y0048625D01*
X0022062Y0053312D02*
Y0052312D01*
X0023062Y0053312D02*
X0022062D01*
X0023062Y0052312D02*
Y0053312D01*
X0022062Y0052312D02*
X0023062D01*
Y0053312D02*
X0022062Y0052312D01*
X0023062D02*
X0022062Y0053312D01*
X0027000Y0025250D02*
Y0024250D01*
X0028000Y0025250D02*
X0027000D01*
X0028000Y0024250D02*
Y0025250D01*
X0027000Y0024250D02*
X0028000D01*
Y0025250D02*
X0027000Y0024250D01*
X0028000D02*
X0027000Y0025250D01*
X0013875Y0004875D02*
Y0003875D01*
X0014875Y0004875D02*
X0013875D01*
X0014875Y0003875D02*
Y0004875D01*
X0013875Y0003875D02*
X0014875D01*
Y0004875D02*
X0013875Y0003875D01*
X0014875D02*
X0013875Y0004875D01*
X0013500Y0012375D02*
Y0011375D01*
X0014500Y0012375D02*
X0013500D01*
X0014500Y0011375D02*
Y0012375D01*
X0013500Y0011375D02*
X0014500D01*
Y0012375D02*
X0013500Y0011375D01*
X0014500D02*
X0013500Y0012375D01*
X0007875Y0025500D02*
Y0024500D01*
X0008875Y0025500D02*
X0007875D01*
X0008875Y0024500D02*
Y0025500D01*
X0007875Y0024500D02*
X0008875D01*
Y0025500D02*
X0007875Y0024500D01*
X0008875D02*
X0007875Y0025500D01*
X0007625Y0022250D02*
Y0021250D01*
X0008625Y0022250D02*
X0007625D01*
X0008625Y0021250D02*
Y0022250D01*
X0007625Y0021250D02*
X0008625D01*
Y0022250D02*
X0007625Y0021250D01*
X0008625D02*
X0007625Y0022250D01*
X0004375Y0009125D02*
Y0008125D01*
X0005375Y0009125D02*
X0004375D01*
X0005375Y0008125D02*
Y0009125D01*
X0004375Y0008125D02*
X0005375D01*
Y0009125D02*
X0004375Y0008125D01*
X0005375D02*
X0004375Y0009125D01*
Y0011625D02*
Y0010625D01*
X0005375Y0011625D02*
X0004375D01*
X0005375Y0010625D02*
Y0011625D01*
X0004375Y0010625D02*
X0005375D01*
Y0011625D02*
X0004375Y0010625D01*
X0005375D02*
X0004375Y0011625D01*
X0035125Y0036000D02*
Y0035000D01*
X0036125Y0036000D02*
X0035125D01*
X0036125Y0035000D02*
Y0036000D01*
X0035125Y0035000D02*
X0036125D01*
Y0036000D02*
X0035125Y0035000D01*
X0036125D02*
X0035125Y0036000D01*
X0032750Y0040625D02*
Y0039625D01*
X0033750Y0040625D02*
X0032750D01*
X0033750Y0039625D02*
Y0040625D01*
X0032750Y0039625D02*
X0033750D01*
Y0040625D02*
X0032750Y0039625D01*
X0033750D02*
X0032750Y0040625D01*
X0020125D02*
Y0039625D01*
X0021125Y0040625D02*
X0020125D01*
X0021125Y0039625D02*
Y0040625D01*
X0020125Y0039625D02*
X0021125D01*
Y0040625D02*
X0020125Y0039625D01*
X0021125D02*
X0020125Y0040625D01*
X0021125Y0032000D02*
Y0031000D01*
X0022125Y0032000D02*
X0021125D01*
X0022125Y0031000D02*
Y0032000D01*
X0021125Y0031000D02*
X0022125D01*
Y0032000D02*
X0021125Y0031000D01*
X0022125D02*
X0021125Y0032000D01*
X0032375Y0042375D02*
Y0041375D01*
X0033375Y0042375D02*
X0032375D01*
X0033375Y0041375D02*
Y0042375D01*
X0032375Y0041375D02*
X0033375D01*
Y0042375D02*
X0032375Y0041375D01*
X0033375D02*
X0032375Y0042375D01*
Y0048500D02*
Y0047500D01*
X0033375Y0048500D02*
X0032375D01*
X0033375Y0047500D02*
Y0048500D01*
X0032375Y0047500D02*
X0033375D01*
Y0048500D02*
X0032375Y0047500D01*
X0033375D02*
X0032375Y0048500D01*
X0026750Y0031937D02*
Y0030937D01*
X0027750Y0031937D02*
X0026750D01*
X0027750Y0030937D02*
Y0031937D01*
X0026750Y0030937D02*
X0027750D01*
Y0031937D02*
X0026750Y0030937D01*
X0027750D02*
X0026750Y0031937D01*
Y0031187D02*
Y0030187D01*
X0027750Y0031187D02*
X0026750D01*
X0027750Y0030187D02*
Y0031187D01*
X0026750Y0030187D02*
X0027750D01*
Y0031187D02*
X0026750Y0030187D01*
X0027750D02*
X0026750Y0031187D01*
X0013500Y0008625D02*
Y0007625D01*
X0014500Y0008625D02*
X0013500D01*
X0014500Y0007625D02*
Y0008625D01*
X0013500Y0007625D02*
X0014500D01*
Y0008625D02*
X0013500Y0007625D01*
X0014500D02*
X0013500Y0008625D01*
X0013000Y0005125D02*
Y0004125D01*
X0014000Y0005125D02*
X0013000D01*
X0014000Y0004125D02*
Y0005125D01*
X0013000Y0004125D02*
X0014000D01*
Y0005125D02*
X0013000Y0004125D01*
X0014000D02*
X0013000Y0005125D01*
X0011125D02*
Y0004125D01*
X0012125Y0005125D02*
X0011125D01*
X0012125Y0004125D02*
Y0005125D01*
X0011125Y0004125D02*
X0012125D01*
Y0005125D02*
X0011125Y0004125D01*
X0012125D02*
X0011125Y0005125D01*
Y0006000D02*
Y0005000D01*
X0012125Y0006000D02*
X0011125D01*
X0012125Y0005000D02*
Y0006000D01*
X0011125Y0005000D02*
X0012125D01*
Y0006000D02*
X0011125Y0005000D01*
X0012125D02*
X0011125Y0006000D01*
X0018312Y0053250D02*
Y0052250D01*
X0019312Y0053250D02*
X0018312D01*
X0019312Y0052250D02*
Y0053250D01*
X0018312Y0052250D02*
X0019312D01*
Y0053250D02*
X0018312Y0052250D01*
X0019312D02*
X0018312Y0053250D01*
Y0050937D02*
Y0049937D01*
X0019312Y0050937D02*
X0018312D01*
X0019312Y0049937D02*
Y0050937D01*
X0018312Y0049937D02*
X0019312D01*
Y0050937D02*
X0018312Y0049937D01*
X0019312D02*
X0018312Y0050937D01*
X0027250Y0038750D02*
Y0037750D01*
X0028250Y0038750D02*
X0027250D01*
X0028250Y0037750D02*
Y0038750D01*
X0027250Y0037750D02*
X0028250D01*
Y0038750D02*
X0027250Y0037750D01*
X0028250D02*
X0027250Y0038750D01*
Y0039500D02*
Y0038500D01*
X0028250Y0039500D02*
X0027250D01*
X0028250Y0038500D02*
Y0039500D01*
X0027250Y0038500D02*
X0028250D01*
Y0039500D02*
X0027250Y0038500D01*
X0028250D02*
X0027250Y0039500D01*
X0015750Y0039125D02*
Y0038125D01*
X0016750Y0039125D02*
X0015750D01*
X0016750Y0038125D02*
Y0039125D01*
X0015750Y0038125D02*
X0016750D01*
Y0039125D02*
X0015750Y0038125D01*
X0016750D02*
X0015750Y0039125D01*
X0012000Y0008750D02*
Y0007750D01*
X0013000Y0008750D02*
X0012000D01*
X0013000Y0007750D02*
Y0008750D01*
X0012000Y0007750D02*
X0013000D01*
Y0008750D02*
X0012000Y0007750D01*
X0013000D02*
X0012000Y0008750D01*
X0023125Y0031125D02*
Y0030125D01*
X0024125Y0031125D02*
X0023125D01*
X0024125Y0030125D02*
Y0031125D01*
X0023125Y0030125D02*
X0024125D01*
Y0031125D02*
X0023125Y0030125D01*
X0024125D02*
X0023125Y0031125D01*
X0027250Y0032812D02*
Y0031812D01*
X0028250Y0032812D02*
X0027250D01*
X0028250Y0031812D02*
Y0032812D01*
X0027250Y0031812D02*
X0028250D01*
Y0032812D02*
X0027250Y0031812D01*
X0028250D02*
X0027250Y0032812D01*
X0026750Y0031187D02*
Y0030187D01*
X0027750Y0031187D02*
X0026750D01*
X0027750Y0030187D02*
Y0031187D01*
X0026750Y0030187D02*
X0027750D01*
Y0031187D02*
X0026750Y0030187D01*
X0027750D02*
X0026750Y0031187D01*
Y0029687D02*
Y0028687D01*
X0027750Y0029687D02*
X0026750D01*
X0027750Y0028687D02*
Y0029687D01*
X0026750Y0028687D02*
X0027750D01*
Y0029687D02*
X0026750Y0028687D01*
X0027750D02*
X0026750Y0029687D01*
Y0031187D02*
Y0030187D01*
X0027750Y0031187D02*
X0026750D01*
X0027750Y0030187D02*
Y0031187D01*
X0026750Y0030187D02*
X0027750D01*
Y0031187D02*
X0026750Y0030187D01*
X0027750D02*
X0026750Y0031187D01*
X0030937Y0033250D02*
Y0032250D01*
X0031937Y0033250D02*
X0030937D01*
X0031937Y0032250D02*
Y0033250D01*
X0030937Y0032250D02*
X0031937D01*
Y0033250D02*
X0030937Y0032250D01*
X0031937D02*
X0030937Y0033250D01*
Y0031625D02*
Y0030625D01*
X0031937Y0031625D02*
X0030937D01*
X0031937Y0030625D02*
Y0031625D01*
X0030937Y0030625D02*
X0031937D01*
Y0031625D02*
X0030937Y0030625D01*
X0031937D02*
X0030937Y0031625D01*
X0026562Y0028250D02*
Y0027250D01*
X0027562Y0028250D02*
X0026562D01*
X0027562Y0027250D02*
Y0028250D01*
X0026562Y0027250D02*
X0027562D01*
Y0028250D02*
X0026562Y0027250D01*
X0027562D02*
X0026562Y0028250D01*
X0026750Y0023812D02*
Y0022812D01*
X0027750Y0023812D02*
X0026750D01*
X0027750Y0022812D02*
Y0023812D01*
X0026750Y0022812D02*
X0027750D01*
Y0023812D02*
X0026750Y0022812D01*
X0027750D02*
X0026750Y0023812D01*
X0028937Y0023937D02*
Y0022937D01*
X0029937Y0023937D02*
X0028937D01*
X0029937Y0022937D02*
Y0023937D01*
X0028937Y0022937D02*
X0029937D01*
Y0023937D02*
X0028937Y0022937D01*
X0029937D02*
X0028937Y0023937D01*
X0017750Y0028250D02*
Y0027250D01*
X0018750Y0028250D02*
X0017750D01*
X0018750Y0027250D02*
Y0028250D01*
X0017750Y0027250D02*
X0018750D01*
Y0028250D02*
X0017750Y0027250D01*
X0018750D02*
X0017750Y0028250D01*
X0018500Y0034875D02*
Y0033875D01*
X0019500Y0034875D02*
X0018500D01*
X0019500Y0033875D02*
Y0034875D01*
X0018500Y0033875D02*
X0019500D01*
Y0034875D02*
X0018500Y0033875D01*
X0019500D02*
X0018500Y0034875D01*
X0021125Y0032000D02*
Y0031000D01*
X0022125Y0032000D02*
X0021125D01*
X0022125Y0031000D02*
Y0032000D01*
X0021125Y0031000D02*
X0022125D01*
Y0032000D02*
X0021125Y0031000D01*
X0022125D02*
X0021125Y0032000D01*
X0020500Y0037062D02*
Y0036062D01*
X0021500Y0037062D02*
X0020500D01*
X0021500Y0036062D02*
Y0037062D01*
X0020500Y0036062D02*
X0021500D01*
Y0037062D02*
X0020500Y0036062D01*
X0021500D02*
X0020500Y0037062D01*
X0033375Y0022125D02*
Y0021125D01*
X0034375Y0022125D02*
X0033375D01*
X0034375Y0021125D02*
Y0022125D01*
X0033375Y0021125D02*
X0034375D01*
Y0022125D02*
X0033375Y0021125D01*
X0034375D02*
X0033375Y0022125D01*
X0033812Y0034875D02*
Y0033875D01*
X0034812Y0034875D02*
X0033812D01*
X0034812Y0033875D02*
Y0034875D01*
X0033812Y0033875D02*
X0034812D01*
Y0034875D02*
X0033812Y0033875D01*
X0034812D02*
X0033812Y0034875D01*
X0010625Y0041812D02*
Y0040812D01*
X0011625Y0041812D02*
X0010625D01*
X0011625Y0040812D02*
Y0041812D01*
X0010625Y0040812D02*
X0011625D01*
Y0041812D02*
X0010625Y0040812D01*
X0011625D02*
X0010625Y0041812D01*
X0007000Y0014625D02*
Y0013625D01*
X0008000Y0014625D02*
X0007000D01*
X0008000Y0013625D02*
Y0014625D01*
X0007000Y0013625D02*
X0008000D01*
Y0014625D02*
X0007000Y0013625D01*
X0008000D02*
X0007000Y0014625D01*
X0006000Y0011750D02*
Y0010750D01*
X0007000Y0011750D02*
X0006000D01*
X0007000Y0010750D02*
Y0011750D01*
X0006000Y0010750D02*
X0007000D01*
Y0011750D02*
X0006000Y0010750D01*
X0007000D02*
X0006000Y0011750D01*
X0017500Y0037000D02*
Y0036000D01*
X0018500Y0037000D02*
X0017500D01*
X0018500Y0036000D02*
Y0037000D01*
X0017500Y0036000D02*
X0018500D01*
Y0037000D02*
X0017500Y0036000D01*
X0018500D02*
X0017500Y0037000D01*
X0018500Y0034875D02*
Y0033875D01*
X0019500Y0034875D02*
X0018500D01*
X0019500Y0033875D02*
Y0034875D01*
X0018500Y0033875D02*
X0019500D01*
Y0034875D02*
X0018500Y0033875D01*
X0019500D02*
X0018500Y0034875D01*
X0016812Y0027812D02*
Y0026812D01*
X0017812Y0027812D02*
X0016812D01*
X0017812Y0026812D02*
Y0027812D01*
X0016812Y0026812D02*
X0017812D01*
Y0027812D02*
X0016812Y0026812D01*
X0017812D02*
X0016812Y0027812D01*
X0017625Y0033687D02*
Y0032687D01*
X0018625Y0033687D02*
X0017625D01*
X0018625Y0032687D02*
Y0033687D01*
X0017625Y0032687D02*
X0018625D01*
Y0033687D02*
X0017625Y0032687D01*
X0018625D02*
X0017625Y0033687D01*
X0026000Y0028312D02*
Y0027312D01*
X0027000Y0028312D02*
X0026000D01*
X0027000Y0027312D02*
Y0028312D01*
X0026000Y0027312D02*
X0027000D01*
Y0028312D02*
X0026000Y0027312D01*
X0027000D02*
X0026000Y0028312D01*
Y0025125D02*
Y0024125D01*
X0027000Y0025125D02*
X0026000D01*
X0027000Y0024125D02*
Y0025125D01*
X0026000Y0024125D02*
X0027000D01*
Y0025125D02*
X0026000Y0024125D01*
X0027000D02*
X0026000Y0025125D01*
X0029937Y0025062D02*
Y0024062D01*
X0030937Y0025062D02*
X0029937D01*
X0030937Y0024062D02*
Y0025062D01*
X0029937Y0024062D02*
X0030937D01*
Y0025062D02*
X0029937Y0024062D01*
X0030937D02*
X0029937Y0025062D01*
X0005500Y0015750D02*
Y0014750D01*
X0006500Y0015750D02*
X0005500D01*
X0006500Y0014750D02*
Y0015750D01*
X0005500Y0014750D02*
X0006500D01*
Y0015750D02*
X0005500Y0014750D01*
X0006500D02*
X0005500Y0015750D01*
X0006125Y0019000D02*
Y0018000D01*
X0007125Y0019000D02*
X0006125D01*
X0007125Y0018000D02*
Y0019000D01*
X0006125Y0018000D02*
X0007125D01*
Y0019000D02*
X0006125Y0018000D01*
X0007125D02*
X0006125Y0019000D01*
X0035500Y0047562D02*
Y0046562D01*
X0036500Y0047562D02*
X0035500D01*
X0036500Y0046562D02*
Y0047562D01*
X0035500Y0046562D02*
X0036500D01*
Y0047562D02*
X0035500Y0046562D01*
X0036500D02*
X0035500Y0047562D01*
X0025062Y0029250D02*
Y0028250D01*
X0026062Y0029250D02*
X0025062D01*
X0026062Y0028250D02*
Y0029250D01*
X0025062Y0028250D02*
X0026062D01*
Y0029250D02*
X0025062Y0028250D01*
X0026062D02*
X0025062Y0029250D01*
Y0027937D02*
Y0026937D01*
X0026062Y0027937D02*
X0025062D01*
X0026062Y0026937D02*
Y0027937D01*
X0025062Y0026937D02*
X0026062D01*
Y0027937D02*
X0025062Y0026937D01*
X0026062D02*
X0025062Y0027937D01*
X0025375Y0028312D02*
Y0027312D01*
X0026375Y0028312D02*
X0025375D01*
X0026375Y0027312D02*
Y0028312D01*
X0025375Y0027312D02*
X0026375D01*
Y0028312D02*
X0025375Y0027312D01*
X0026375D02*
X0025375Y0028312D01*
X0028750Y0038750D02*
Y0037750D01*
X0029750Y0038750D02*
X0028750D01*
X0029750Y0037750D02*
Y0038750D01*
X0028750Y0037750D02*
X0029750D01*
Y0038750D02*
X0028750Y0037750D01*
X0029750D02*
X0028750Y0038750D01*
Y0043187D02*
Y0042187D01*
X0029750Y0043187D02*
X0028750D01*
X0029750Y0042187D02*
Y0043187D01*
X0028750Y0042187D02*
X0029750D01*
Y0043187D02*
X0028750Y0042187D01*
X0029750D02*
X0028750Y0043187D01*
X0035937Y0043250D02*
Y0042250D01*
X0036937Y0043250D02*
X0035937D01*
X0036937Y0042250D02*
Y0043250D01*
X0035937Y0042250D02*
X0036937D01*
Y0043250D02*
X0035937Y0042250D01*
X0036937D02*
X0035937Y0043250D01*
X0014500Y0022250D02*
Y0021250D01*
X0015500Y0022250D02*
X0014500D01*
X0015500Y0021250D02*
Y0022250D01*
X0014500Y0021250D02*
X0015500D01*
Y0022250D02*
X0014500Y0021250D01*
X0015500D02*
X0014500Y0022250D01*
X0016125Y0040250D02*
Y0039250D01*
X0017125Y0040250D02*
X0016125D01*
X0017125Y0039250D02*
Y0040250D01*
X0016125Y0039250D02*
X0017125D01*
Y0040250D02*
X0016125Y0039250D01*
X0017125D02*
X0016125Y0040250D01*
X0030250D02*
Y0039250D01*
X0031250Y0040250D02*
X0030250D01*
X0031250Y0039250D02*
Y0040250D01*
X0030250Y0039250D02*
X0031250D01*
Y0040250D02*
X0030250Y0039250D01*
X0031250D02*
X0030250Y0040250D01*
Y0038750D02*
Y0037750D01*
X0031250Y0038750D02*
X0030250D01*
X0031250Y0037750D02*
Y0038750D01*
X0030250Y0037750D02*
X0031250D01*
Y0038750D02*
X0030250Y0037750D01*
X0031250D02*
X0030250Y0038750D01*
X0008875Y0035375D02*
Y0034375D01*
X0009875Y0035375D02*
X0008875D01*
X0009875Y0034375D02*
Y0035375D01*
X0008875Y0034375D02*
X0009875D01*
Y0035375D02*
X0008875Y0034375D01*
X0009875D02*
X0008875Y0035375D01*
X0008750Y0022250D02*
Y0021250D01*
X0009750Y0022250D02*
X0008750D01*
X0009750Y0021250D02*
Y0022250D01*
X0008750Y0021250D02*
X0009750D01*
Y0022250D02*
X0008750Y0021250D01*
X0009750D02*
X0008750Y0022250D01*
X0032250Y0024375D02*
Y0023375D01*
X0033250Y0024375D02*
X0032250D01*
X0033250Y0023375D02*
Y0024375D01*
X0032250Y0023375D02*
X0033250D01*
Y0024375D02*
X0032250Y0023375D01*
X0033250D02*
X0032250Y0024375D01*
X0032875Y0029500D02*
Y0028500D01*
X0033875Y0029500D02*
X0032875D01*
X0033875Y0028500D02*
Y0029500D01*
X0032875Y0028500D02*
X0033875D01*
Y0029500D02*
X0032875Y0028500D01*
X0033875D02*
X0032875Y0029500D01*
X0029500Y0038750D02*
Y0037750D01*
X0030500Y0038750D02*
X0029500D01*
X0030500Y0037750D02*
Y0038750D01*
X0029500Y0037750D02*
X0030500D01*
Y0038750D02*
X0029500Y0037750D01*
X0030500D02*
X0029500Y0038750D01*
X0031125Y0047562D02*
Y0046562D01*
X0032125Y0047562D02*
X0031125D01*
X0032125Y0046562D02*
Y0047562D01*
X0031125Y0046562D02*
X0032125D01*
Y0047562D02*
X0031125Y0046562D01*
X0032125D02*
X0031125Y0047562D01*
X0025750Y0023687D02*
Y0022687D01*
X0026750Y0023687D02*
X0025750D01*
X0026750Y0022687D02*
Y0023687D01*
X0025750Y0022687D02*
X0026750D01*
Y0023687D02*
X0025750Y0022687D01*
X0026750D02*
X0025750Y0023687D01*
X0026187Y0030062D02*
Y0029062D01*
X0027187Y0030062D02*
X0026187D01*
X0027187Y0029062D02*
Y0030062D01*
X0026187Y0029062D02*
X0027187D01*
Y0030062D02*
X0026187Y0029062D01*
X0027187D02*
X0026187Y0030062D01*
X0018625D02*
Y0029062D01*
X0019625Y0030062D02*
X0018625D01*
X0019625Y0029062D02*
Y0030062D01*
X0018625Y0029062D02*
X0019625D01*
Y0030062D02*
X0018625Y0029062D01*
X0019625D02*
X0018625Y0030062D01*
X0018125Y0032437D02*
Y0031437D01*
X0019125Y0032437D02*
X0018125D01*
X0019125Y0031437D02*
Y0032437D01*
X0018125Y0031437D02*
X0019125D01*
Y0032437D02*
X0018125Y0031437D01*
X0019125D02*
X0018125Y0032437D01*
X0031875Y0022750D02*
Y0021750D01*
X0032875Y0022750D02*
X0031875D01*
X0032875Y0021750D02*
Y0022750D01*
X0031875Y0021750D02*
X0032875D01*
Y0022750D02*
X0031875Y0021750D01*
X0032875D02*
X0031875Y0022750D01*
X0031000Y0038750D02*
Y0037750D01*
X0032000Y0038750D02*
X0031000D01*
X0032000Y0037750D02*
Y0038750D01*
X0031000Y0037750D02*
X0032000D01*
Y0038750D02*
X0031000Y0037750D01*
X0032000D02*
X0031000Y0038750D01*
X0038250Y0045562D02*
Y0044562D01*
X0039250Y0045562D02*
X0038250D01*
X0039250Y0044562D02*
Y0045562D01*
X0038250Y0044562D02*
X0039250D01*
Y0045562D02*
X0038250Y0044562D01*
X0039250D02*
X0038250Y0045562D01*
X0027250Y0038750D02*
Y0037750D01*
X0028250Y0038750D02*
X0027250D01*
X0028250Y0037750D02*
Y0038750D01*
X0027250Y0037750D02*
X0028250D01*
Y0038750D02*
X0027250Y0037750D01*
X0028250D02*
X0027250Y0038750D01*
Y0039500D02*
Y0038500D01*
X0028250Y0039500D02*
X0027250D01*
X0028250Y0038500D02*
Y0039500D01*
X0027250Y0038500D02*
X0028250D01*
Y0039500D02*
X0027250Y0038500D01*
X0028250D02*
X0027250Y0039500D01*
X0034875D02*
Y0038500D01*
X0035875Y0039500D02*
X0034875D01*
X0035875Y0038500D02*
Y0039500D01*
X0034875Y0038500D02*
X0035875D01*
Y0039500D02*
X0034875Y0038500D01*
X0035875D02*
X0034875Y0039500D01*
Y0033500D02*
Y0032500D01*
X0035875Y0033500D02*
X0034875D01*
X0035875Y0032500D02*
Y0033500D01*
X0034875Y0032500D02*
X0035875D01*
Y0033500D02*
X0034875Y0032500D01*
X0035875D02*
X0034875Y0033500D01*
X0034125Y0036500D02*
Y0035500D01*
X0035125Y0036500D02*
X0034125D01*
X0035125Y0035500D02*
Y0036500D01*
X0034125Y0035500D02*
X0035125D01*
Y0036500D02*
X0034125Y0035500D01*
X0035125D02*
X0034125Y0036500D01*
X0030937Y0034750D02*
Y0033750D01*
X0031937Y0034750D02*
X0030937D01*
X0031937Y0033750D02*
Y0034750D01*
X0030937Y0033750D02*
X0031937D01*
Y0034750D02*
X0030937Y0033750D01*
X0031937D02*
X0030937Y0034750D01*
Y0033250D02*
Y0032250D01*
X0031937Y0033250D02*
X0030937D01*
X0031937Y0032250D02*
Y0033250D01*
X0030937Y0032250D02*
X0031937D01*
Y0033250D02*
X0030937Y0032250D01*
X0031937D02*
X0030937Y0033250D01*
X0034875Y0033500D02*
Y0032500D01*
X0035875Y0033500D02*
X0034875D01*
X0035875Y0032500D02*
Y0033500D01*
X0034875Y0032500D02*
X0035875D01*
Y0033500D02*
X0034875Y0032500D01*
X0035875D02*
X0034875Y0033500D01*
X0034000Y0003750D02*
Y0002750D01*
X0035000Y0003750D02*
X0034000D01*
X0035000Y0002750D02*
Y0003750D01*
X0034000Y0002750D02*
X0035000D01*
Y0003750D02*
X0034000Y0002750D01*
X0035000D02*
X0034000Y0003750D01*
X0021750Y0020125D02*
Y0019125D01*
X0022750Y0020125D02*
X0021750D01*
X0022750Y0019125D02*
Y0020125D01*
X0021750Y0019125D02*
X0022750D01*
Y0020125D02*
X0021750Y0019125D01*
X0022750D02*
X0021750Y0020125D01*
Y0026937D02*
Y0025937D01*
X0022750Y0026937D02*
X0021750D01*
X0022750Y0025937D02*
Y0026937D01*
X0021750Y0025937D02*
X0022750D01*
Y0026937D02*
X0021750Y0025937D01*
X0022750D02*
X0021750Y0026937D01*
X0010375Y0007500D02*
Y0006500D01*
X0011375Y0007500D02*
X0010375D01*
X0011375Y0006500D02*
Y0007500D01*
X0010375Y0006500D02*
X0011375D01*
Y0007500D02*
X0010375Y0006500D01*
X0011375D02*
X0010375Y0007500D01*
Y0010875D02*
Y0009875D01*
X0011375Y0010875D02*
X0010375D01*
X0011375Y0009875D02*
Y0010875D01*
X0010375Y0009875D02*
X0011375D01*
Y0010875D02*
X0010375Y0009875D01*
X0011375D02*
X0010375Y0010875D01*
X0016375Y0024750D02*
Y0023750D01*
X0017375Y0024750D02*
X0016375D01*
X0017375Y0023750D02*
Y0024750D01*
X0016375Y0023750D02*
X0017375D01*
Y0024750D02*
X0016375Y0023750D01*
X0017375D02*
X0016375Y0024750D01*
X0013375Y0032187D02*
Y0031187D01*
X0014375Y0032187D02*
X0013375D01*
X0014375Y0031187D02*
Y0032187D01*
X0013375Y0031187D02*
X0014375D01*
Y0032187D02*
X0013375Y0031187D01*
X0014375D02*
X0013375Y0032187D01*
Y0033187D02*
Y0032187D01*
X0014375Y0033187D02*
X0013375D01*
X0014375Y0032187D02*
Y0033187D01*
X0013375Y0032187D02*
X0014375D01*
Y0033187D02*
X0013375Y0032187D01*
X0014375D02*
X0013375Y0033187D01*
X0020125Y0036250D02*
Y0035250D01*
X0021125Y0036250D02*
X0020125D01*
X0021125Y0035250D02*
Y0036250D01*
X0020125Y0035250D02*
X0021125D01*
Y0036250D02*
X0020125Y0035250D01*
X0021125D02*
X0020125Y0036250D01*
X0020375Y0024750D02*
Y0023750D01*
X0021375Y0024750D02*
X0020375D01*
X0021375Y0023750D02*
Y0024750D01*
X0020375Y0023750D02*
X0021375D01*
Y0024750D02*
X0020375Y0023750D01*
X0021375D02*
X0020375Y0024750D01*
X0028062Y0027625D02*
Y0026625D01*
X0029062Y0027625D02*
X0028062D01*
X0029062Y0026625D02*
Y0027625D01*
X0028062Y0026625D02*
X0029062D01*
Y0027625D02*
X0028062Y0026625D01*
X0029062D02*
X0028062Y0027625D01*
X0026812Y0027375D02*
Y0026375D01*
X0027812Y0027375D02*
X0026812D01*
X0027812Y0026375D02*
Y0027375D01*
X0026812Y0026375D02*
X0027812D01*
Y0027375D02*
X0026812Y0026375D01*
X0027812D02*
X0026812Y0027375D01*
X0028750Y0038750D02*
Y0037750D01*
X0029750Y0038750D02*
X0028750D01*
X0029750Y0037750D02*
Y0038750D01*
X0028750Y0037750D02*
X0029750D01*
Y0038750D02*
X0028750Y0037750D01*
X0029750D02*
X0028750Y0038750D01*
Y0050562D02*
Y0049562D01*
X0029750Y0050562D02*
X0028750D01*
X0029750Y0049562D02*
Y0050562D01*
X0028750Y0049562D02*
X0029750D01*
Y0050562D02*
X0028750Y0049562D01*
X0029750D02*
X0028750Y0050562D01*
X0023375Y0030875D02*
Y0029875D01*
X0024375Y0030875D02*
X0023375D01*
X0024375Y0029875D02*
Y0030875D01*
X0023375Y0029875D02*
X0024375D01*
Y0030875D02*
X0023375Y0029875D01*
X0024375D02*
X0023375Y0030875D01*
X0023062Y0032375D02*
Y0031375D01*
X0024062Y0032375D02*
X0023062D01*
X0024062Y0031375D02*
Y0032375D01*
X0023062Y0031375D02*
X0024062D01*
Y0032375D02*
X0023062Y0031375D01*
X0024062D02*
X0023062Y0032375D01*
X0035125Y0031750D02*
Y0030750D01*
X0036125Y0031750D02*
X0035125D01*
X0036125Y0030750D02*
Y0031750D01*
X0035125Y0030750D02*
X0036125D01*
Y0031750D02*
X0035125Y0030750D01*
X0036125D02*
X0035125Y0031750D01*
X0036625Y0021250D02*
Y0020250D01*
X0037625Y0021250D02*
X0036625D01*
X0037625Y0020250D02*
Y0021250D01*
X0036625Y0020250D02*
X0037625D01*
Y0021250D02*
X0036625Y0020250D01*
X0037625D02*
X0036625Y0021250D01*
X0029687Y0032937D02*
Y0031937D01*
X0030687Y0032937D02*
X0029687D01*
X0030687Y0031937D02*
Y0032937D01*
X0029687Y0031937D02*
X0030687D01*
Y0032937D02*
X0029687Y0031937D01*
X0030687D02*
X0029687Y0032937D01*
Y0034812D02*
Y0033812D01*
X0030687Y0034812D02*
X0029687D01*
X0030687Y0033812D02*
Y0034812D01*
X0029687Y0033812D02*
X0030687D01*
Y0034812D02*
X0029687Y0033812D01*
X0030687D02*
X0029687Y0034812D01*
X0021125Y0022125D02*
Y0021125D01*
X0022125Y0022125D02*
X0021125D01*
X0022125Y0021125D02*
Y0022125D01*
X0021125Y0021125D02*
X0022125D01*
Y0022125D02*
X0021125Y0021125D01*
X0022125D02*
X0021125Y0022125D01*
Y0031000D02*
Y0030000D01*
X0022125Y0031000D02*
X0021125D01*
X0022125Y0030000D02*
Y0031000D01*
X0021125Y0030000D02*
X0022125D01*
Y0031000D02*
X0021125Y0030000D01*
X0022125D02*
X0021125Y0031000D01*
X0025937Y0031187D02*
Y0030187D01*
X0026937Y0031187D02*
X0025937D01*
X0026937Y0030187D02*
Y0031187D01*
X0025937Y0030187D02*
X0026937D01*
Y0031187D02*
X0025937Y0030187D01*
X0026937D02*
X0025937Y0031187D01*
X0024750Y0033062D02*
Y0032062D01*
X0025750Y0033062D02*
X0024750D01*
X0025750Y0032062D02*
Y0033062D01*
X0024750Y0032062D02*
X0025750D01*
Y0033062D02*
X0024750Y0032062D01*
X0025750D02*
X0024750Y0033062D01*
X0023187Y0034250D02*
Y0033250D01*
X0024187Y0034250D02*
X0023187D01*
X0024187Y0033250D02*
Y0034250D01*
X0023187Y0033250D02*
X0024187D01*
Y0034250D02*
X0023187Y0033250D01*
X0024187D02*
X0023187Y0034250D01*
X0023375Y0032000D02*
Y0031000D01*
X0024375Y0032000D02*
X0023375D01*
X0024375Y0031000D02*
Y0032000D01*
X0023375Y0031000D02*
X0024375D01*
Y0032000D02*
X0023375Y0031000D01*
X0024375D02*
X0023375Y0032000D01*
X0035500Y0022125D02*
Y0021125D01*
X0036500Y0022125D02*
X0035500D01*
X0036500Y0021125D02*
Y0022125D01*
X0035500Y0021125D02*
X0036500D01*
Y0022125D02*
X0035500Y0021125D01*
X0036500D02*
X0035500Y0022125D01*
X0020500Y0034250D02*
Y0033250D01*
X0021500Y0034250D02*
X0020500D01*
X0021500Y0033250D02*
Y0034250D01*
X0020500Y0033250D02*
X0021500D01*
Y0034250D02*
X0020500Y0033250D01*
X0021500D02*
X0020500Y0034250D01*
X0021125Y0032000D02*
Y0031000D01*
X0022125Y0032000D02*
X0021125D01*
X0022125Y0031000D02*
Y0032000D01*
X0021125Y0031000D02*
X0022125D01*
Y0032000D02*
X0021125Y0031000D01*
X0022125D02*
X0021125Y0032000D01*
X0034375Y0020000D02*
Y0019000D01*
X0035375Y0020000D02*
X0034375D01*
X0035375Y0019000D02*
Y0020000D01*
X0034375Y0019000D02*
X0035375D01*
Y0020000D02*
X0034375Y0019000D01*
X0035375D02*
X0034375Y0020000D01*
Y0016125D02*
Y0015125D01*
X0035375Y0016125D02*
X0034375D01*
X0035375Y0015125D02*
Y0016125D01*
X0034375Y0015125D02*
X0035375D01*
Y0016125D02*
X0034375Y0015125D01*
X0035375D02*
X0034375Y0016125D01*
X0026375Y0054375D02*
Y0053375D01*
X0027375Y0054375D02*
X0026375D01*
X0027375Y0053375D02*
Y0054375D01*
X0026375Y0053375D02*
X0027375D01*
Y0054375D02*
X0026375Y0053375D01*
X0027375D02*
X0026375Y0054375D01*
X0039125Y0016250D02*
Y0015250D01*
X0040125Y0016250D02*
X0039125D01*
X0040125Y0015250D02*
Y0016250D01*
X0039125Y0015250D02*
X0040125D01*
Y0016250D02*
X0039125Y0015250D01*
X0040125D02*
X0039125Y0016250D01*
X0024750Y0054875D02*
Y0053875D01*
X0025750Y0054875D02*
X0024750D01*
X0025750Y0053875D02*
Y0054875D01*
X0024750Y0053875D02*
X0025750D01*
Y0054875D02*
X0024750Y0053875D01*
X0025750D02*
X0024750Y0054875D01*
X0025625Y0032312D02*
Y0031312D01*
X0026625Y0032312D02*
X0025625D01*
X0026625Y0031312D02*
Y0032312D01*
X0025625Y0031312D02*
X0026625D01*
Y0032312D02*
X0025625Y0031312D01*
X0026625D02*
X0025625Y0032312D01*
X0025125Y0033187D02*
Y0032187D01*
X0026125Y0033187D02*
X0025125D01*
X0026125Y0032187D02*
Y0033187D01*
X0025125Y0032187D02*
X0026125D01*
Y0033187D02*
X0025125Y0032187D01*
X0026125D02*
X0025125Y0033187D01*
X0032062Y0044250D02*
Y0043250D01*
X0033062Y0044250D02*
X0032062D01*
X0033062Y0043250D02*
Y0044250D01*
X0032062Y0043250D02*
X0033062D01*
Y0044250D02*
X0032062Y0043250D01*
X0033062D02*
X0032062Y0044250D01*
X0034875Y0031250D02*
Y0030250D01*
X0035875Y0031250D02*
X0034875D01*
X0035875Y0030250D02*
Y0031250D01*
X0034875Y0030250D02*
X0035875D01*
Y0031250D02*
X0034875Y0030250D01*
X0035875D02*
X0034875Y0031250D01*
X0022625Y0018500D02*
Y0017500D01*
X0023625Y0018500D02*
X0022625D01*
X0023625Y0017500D02*
Y0018500D01*
X0022625Y0017500D02*
X0023625D01*
Y0018500D02*
X0022625Y0017500D01*
X0023625D02*
X0022625Y0018500D01*
X0039875Y0028000D02*
Y0027000D01*
X0040875Y0028000D02*
X0039875D01*
X0040875Y0027000D02*
Y0028000D01*
X0039875Y0027000D02*
X0040875D01*
Y0028000D02*
X0039875Y0027000D01*
X0040875D02*
X0039875Y0028000D01*
X0039250Y0011250D02*
Y0010250D01*
X0040250Y0011250D02*
X0039250D01*
X0040250Y0010250D02*
Y0011250D01*
X0039250Y0010250D02*
X0040250D01*
Y0011250D02*
X0039250Y0010250D01*
X0040250D02*
X0039250Y0011250D01*
X0028125Y0011750D02*
Y0010750D01*
X0029125Y0011750D02*
X0028125D01*
X0029125Y0010750D02*
Y0011750D01*
X0028125Y0010750D02*
X0029125D01*
Y0011750D02*
X0028125Y0010750D01*
X0029125D02*
X0028125Y0011750D01*
X0024750Y0027187D02*
Y0026187D01*
X0025750Y0027187D02*
X0024750D01*
X0025750Y0026187D02*
Y0027187D01*
X0024750Y0026187D02*
X0025750D01*
Y0027187D02*
X0024750Y0026187D01*
X0025750D02*
X0024750Y0027187D01*
Y0028750D02*
Y0027750D01*
X0025750Y0028750D02*
X0024750D01*
X0025750Y0027750D02*
Y0028750D01*
X0024750Y0027750D02*
X0025750D01*
Y0028750D02*
X0024750Y0027750D01*
X0025750D02*
X0024750Y0028750D01*
X0033000Y0031875D02*
Y0030875D01*
X0034000Y0031875D02*
X0033000D01*
X0034000Y0030875D02*
Y0031875D01*
X0033000Y0030875D02*
X0034000D01*
Y0031875D02*
X0033000Y0030875D01*
X0034000D02*
X0033000Y0031875D01*
X0032875Y0035562D02*
Y0034562D01*
X0033875Y0035562D02*
X0032875D01*
X0033875Y0034562D02*
Y0035562D01*
X0032875Y0034562D02*
X0033875D01*
Y0035562D02*
X0032875Y0034562D01*
X0033875D02*
X0032875Y0035562D01*
X0030250Y0034937D02*
Y0033937D01*
X0031250Y0034937D02*
X0030250D01*
X0031250Y0033937D02*
Y0034937D01*
X0030250Y0033937D02*
X0031250D01*
Y0034937D02*
X0030250Y0033937D01*
X0031250D02*
X0030250Y0034937D01*
X0030375Y0031437D02*
Y0030437D01*
X0031375Y0031437D02*
X0030375D01*
X0031375Y0030437D02*
Y0031437D01*
X0030375Y0030437D02*
X0031375D01*
Y0031437D02*
X0030375Y0030437D01*
X0031375D02*
X0030375Y0031437D01*
X0023625Y0031187D02*
Y0030187D01*
X0024625Y0031187D02*
X0023625D01*
X0024625Y0030187D02*
Y0031187D01*
X0023625Y0030187D02*
X0024625D01*
Y0031187D02*
X0023625Y0030187D01*
X0024625D02*
X0023625Y0031187D01*
X0023250Y0035125D02*
Y0034125D01*
X0024250Y0035125D02*
X0023250D01*
X0024250Y0034125D02*
Y0035125D01*
X0023250Y0034125D02*
X0024250D01*
Y0035125D02*
X0023250Y0034125D01*
X0024250D02*
X0023250Y0035125D01*
X0033812Y0034875D02*
Y0033875D01*
X0034812Y0034875D02*
X0033812D01*
X0034812Y0033875D02*
Y0034875D01*
X0033812Y0033875D02*
X0034812D01*
Y0034875D02*
X0033812Y0033875D01*
X0034812D02*
X0033812Y0034875D01*
X0033625Y0037812D02*
Y0036812D01*
X0034625Y0037812D02*
X0033625D01*
X0034625Y0036812D02*
Y0037812D01*
X0033625Y0036812D02*
X0034625D01*
Y0037812D02*
X0033625Y0036812D01*
X0034625D02*
X0033625Y0037812D01*
X0023500Y0038750D02*
Y0037750D01*
X0024500Y0038750D02*
X0023500D01*
X0024500Y0037750D02*
Y0038750D01*
X0023500Y0037750D02*
X0024500D01*
Y0038750D02*
X0023500Y0037750D01*
X0024500D02*
X0023500Y0038750D01*
X0032875Y0030250D02*
Y0029250D01*
X0033875Y0030250D02*
X0032875D01*
X0033875Y0029250D02*
Y0030250D01*
X0032875Y0029250D02*
X0033875D01*
Y0030250D02*
X0032875Y0029250D01*
X0033875D02*
X0032875Y0030250D01*
X0032625Y0036187D02*
Y0035187D01*
X0033625Y0036187D02*
X0032625D01*
X0033625Y0035187D02*
Y0036187D01*
X0032625Y0035187D02*
X0033625D01*
Y0036187D02*
X0032625Y0035187D01*
X0033625D02*
X0032625Y0036187D01*
X0034125Y0037500D02*
Y0036500D01*
X0035125Y0037500D02*
X0034125D01*
X0035125Y0036500D02*
Y0037500D01*
X0034125Y0036500D02*
X0035125D01*
Y0037500D02*
X0034125Y0036500D01*
X0035125D02*
X0034125Y0037500D01*
X0034500Y0035375D02*
Y0034375D01*
X0035500Y0035375D02*
X0034500D01*
X0035500Y0034375D02*
Y0035375D01*
X0034500Y0034375D02*
X0035500D01*
Y0035375D02*
X0034500Y0034375D01*
X0035500D02*
X0034500Y0035375D01*
X0028750Y0030187D02*
Y0029187D01*
X0029750Y0030187D02*
X0028750D01*
X0029750Y0029187D02*
Y0030187D01*
X0028750Y0029187D02*
X0029750D01*
Y0030187D02*
X0028750Y0029187D01*
X0029750D02*
X0028750Y0030187D01*
X0029500Y0023687D02*
Y0022687D01*
X0030500Y0023687D02*
X0029500D01*
X0030500Y0022687D02*
Y0023687D01*
X0029500Y0022687D02*
X0030500D01*
Y0023687D02*
X0029500Y0022687D01*
X0030500D02*
X0029500Y0023687D01*
X0020750Y0021250D02*
Y0020250D01*
X0021750Y0021250D02*
X0020750D01*
X0021750Y0020250D02*
Y0021250D01*
X0020750Y0020250D02*
X0021750D01*
Y0021250D02*
X0020750Y0020250D01*
X0021750D02*
X0020750Y0021250D01*
Y0030000D02*
Y0029000D01*
X0021750Y0030000D02*
X0020750D01*
X0021750Y0029000D02*
Y0030000D01*
X0020750Y0029000D02*
X0021750D01*
Y0030000D02*
X0020750Y0029000D01*
X0021750D02*
X0020750Y0030000D01*
X0023937Y0034625D02*
Y0033625D01*
X0024937Y0034625D02*
X0023937D01*
X0024937Y0033625D02*
Y0034625D01*
X0023937Y0033625D02*
X0024937D01*
Y0034625D02*
X0023937Y0033625D01*
X0024937D02*
X0023937Y0034625D01*
Y0032750D02*
Y0031750D01*
X0024937Y0032750D02*
X0023937D01*
X0024937Y0031750D02*
Y0032750D01*
X0023937Y0031750D02*
X0024937D01*
Y0032750D02*
X0023937Y0031750D01*
X0024937D02*
X0023937Y0032750D01*
X0008250Y0031000D02*
Y0030000D01*
X0009250Y0031000D02*
X0008250D01*
X0009250Y0030000D02*
Y0031000D01*
X0008250Y0030000D02*
X0009250D01*
Y0031000D02*
X0008250Y0030000D01*
X0009250D02*
X0008250Y0031000D01*
Y0020750D02*
Y0019750D01*
X0009250Y0020750D02*
X0008250D01*
X0009250Y0019750D02*
Y0020750D01*
X0008250Y0019750D02*
X0009250D01*
Y0020750D02*
X0008250Y0019750D01*
X0009250D02*
X0008250Y0020750D01*
X0018625Y0009375D02*
Y0008375D01*
X0019625Y0009375D02*
X0018625D01*
X0019625Y0008375D02*
Y0009375D01*
X0018625Y0008375D02*
X0019625D01*
Y0009375D02*
X0018625Y0008375D01*
X0019625D02*
X0018625Y0009375D01*
X0020125Y0008375D02*
Y0007375D01*
X0021125Y0008375D02*
X0020125D01*
X0021125Y0007375D02*
Y0008375D01*
X0020125Y0007375D02*
X0021125D01*
Y0008375D02*
X0020125Y0007375D01*
X0021125D02*
X0020125Y0008375D01*
X0017562Y0024687D02*
Y0023687D01*
X0018562Y0024687D02*
X0017562D01*
X0018562Y0023687D02*
Y0024687D01*
X0017562Y0023687D02*
X0018562D01*
Y0024687D02*
X0017562Y0023687D01*
X0018562D02*
X0017562Y0024687D01*
X0018125Y0027687D02*
Y0026687D01*
X0019125Y0027687D02*
X0018125D01*
X0019125Y0026687D02*
Y0027687D01*
X0018125Y0026687D02*
X0019125D01*
Y0027687D02*
X0018125Y0026687D01*
X0019125D02*
X0018125Y0027687D01*
X0006500Y0021250D02*
Y0020250D01*
X0007500Y0021250D02*
X0006500D01*
X0007500Y0020250D02*
Y0021250D01*
X0006500Y0020250D02*
X0007500D01*
Y0021250D02*
X0006500Y0020250D01*
X0007500D02*
X0006500Y0021250D01*
X0027125Y0011875D02*
Y0010875D01*
X0028125Y0011875D02*
X0027125D01*
X0028125Y0010875D02*
Y0011875D01*
X0027125Y0010875D02*
X0028125D01*
Y0011875D02*
X0027125Y0010875D01*
X0028125D02*
X0027125Y0011875D01*
X0011500Y0008750D02*
Y0007750D01*
X0012500Y0008750D02*
X0011500D01*
X0012500Y0007750D02*
Y0008750D01*
X0011500Y0007750D02*
X0012500D01*
Y0008750D02*
X0011500Y0007750D01*
X0012500D02*
X0011500Y0008750D01*
X0015375Y0038125D02*
Y0037125D01*
X0016375Y0038125D02*
X0015375D01*
X0016375Y0037125D02*
Y0038125D01*
X0015375Y0037125D02*
X0016375D01*
Y0038125D02*
X0015375Y0037125D01*
X0016375D02*
X0015375Y0038125D01*
X0032812Y0033625D02*
Y0032625D01*
X0033812Y0033625D02*
X0032812D01*
X0033812Y0032625D02*
Y0033625D01*
X0032812Y0032625D02*
X0033812D01*
Y0033625D02*
X0032812Y0032625D01*
X0033812D02*
X0032812Y0033625D01*
X0025812Y0051500D02*
Y0050500D01*
X0026812Y0051500D02*
X0025812D01*
X0026812Y0050500D02*
Y0051500D01*
X0025812Y0050500D02*
X0026812D01*
Y0051500D02*
X0025812Y0050500D01*
X0026812D02*
X0025812Y0051500D01*
X0025750Y0038750D02*
Y0037750D01*
X0026750Y0038750D02*
X0025750D01*
X0026750Y0037750D02*
Y0038750D01*
X0025750Y0037750D02*
X0026750D01*
Y0038750D02*
X0025750Y0037750D01*
X0026750D02*
X0025750Y0038750D01*
X0038000Y0037000D02*
Y0036000D01*
X0039000Y0037000D02*
X0038000D01*
X0039000Y0036000D02*
Y0037000D01*
X0038000Y0036000D02*
X0039000D01*
Y0037000D02*
X0038000Y0036000D01*
X0039000D02*
X0038000Y0037000D01*
X0010375Y0045562D02*
Y0044562D01*
X0011375Y0045562D02*
X0010375D01*
X0011375Y0044562D02*
Y0045562D01*
X0010375Y0044562D02*
X0011375D01*
Y0045562D02*
X0010375Y0044562D01*
X0011375D02*
X0010375Y0045562D01*
X0010812Y0047750D02*
Y0046750D01*
X0011812Y0047750D02*
X0010812D01*
X0011812Y0046750D02*
Y0047750D01*
X0010812Y0046750D02*
X0011812D01*
Y0047750D02*
X0010812Y0046750D01*
X0011812D02*
X0010812Y0047750D01*
X0037000Y0021750D02*
Y0020750D01*
X0038000Y0021750D02*
X0037000D01*
X0038000Y0020750D02*
Y0021750D01*
X0037000Y0020750D02*
X0038000D01*
Y0021750D02*
X0037000Y0020750D01*
X0038000D02*
X0037000Y0021750D01*
X0020000D02*
Y0020750D01*
X0021000Y0021750D02*
X0020000D01*
X0021000Y0020750D02*
Y0021750D01*
X0020000Y0020750D02*
X0021000D01*
Y0021750D02*
X0020000Y0020750D01*
X0021000D02*
X0020000Y0021750D01*
X0019750Y0035500D02*
Y0034500D01*
X0020750Y0035500D02*
X0019750D01*
X0020750Y0034500D02*
Y0035500D01*
X0019750Y0034500D02*
X0020750D01*
Y0035500D02*
X0019750Y0034500D01*
X0020750D02*
X0019750Y0035500D01*
X0018125Y0006250D02*
Y0005250D01*
X0019125Y0006250D02*
X0018125D01*
X0019125Y0005250D02*
Y0006250D01*
X0018125Y0005250D02*
X0019125D01*
Y0006250D02*
X0018125Y0005250D01*
X0019125D02*
X0018125Y0006250D01*
X0018250Y0010125D02*
Y0009125D01*
X0019250Y0010125D02*
X0018250D01*
X0019250Y0009125D02*
Y0010125D01*
X0018250Y0009125D02*
X0019250D01*
Y0010125D02*
X0018250Y0009125D01*
X0019250D02*
X0018250Y0010125D01*
X0006750Y0017375D02*
Y0016375D01*
X0007750Y0017375D02*
X0006750D01*
X0007750Y0016375D02*
Y0017375D01*
X0006750Y0016375D02*
X0007750D01*
Y0017375D02*
X0006750Y0016375D01*
X0007750D02*
X0006750Y0017375D01*
X0006500Y0019000D02*
Y0018000D01*
X0007500Y0019000D02*
X0006500D01*
X0007500Y0018000D02*
Y0019000D01*
X0006500Y0018000D02*
X0007500D01*
Y0019000D02*
X0006500Y0018000D01*
X0007500D02*
X0006500Y0019000D01*
X0023125Y0036125D02*
Y0035125D01*
X0024125Y0036125D02*
X0023125D01*
X0024125Y0035125D02*
Y0036125D01*
X0023125Y0035125D02*
X0024125D01*
Y0036125D02*
X0023125Y0035125D01*
X0024125D02*
X0023125Y0036125D01*
X0024375Y0033062D02*
Y0032062D01*
X0025375Y0033062D02*
X0024375D01*
X0025375Y0032062D02*
Y0033062D01*
X0024375Y0032062D02*
X0025375D01*
Y0033062D02*
X0024375Y0032062D01*
X0025375D02*
X0024375Y0033062D01*
X0013875Y0017750D02*
Y0016750D01*
X0014875Y0017750D02*
X0013875D01*
X0014875Y0016750D02*
Y0017750D01*
X0013875Y0016750D02*
X0014875D01*
Y0017750D02*
X0013875Y0016750D01*
X0014875D02*
X0013875Y0017750D01*
X0016625Y0038750D02*
Y0037750D01*
X0017625Y0038750D02*
X0016625D01*
X0017625Y0037750D02*
Y0038750D01*
X0016625Y0037750D02*
X0017625D01*
Y0038750D02*
X0016625Y0037750D01*
X0017625D02*
X0016625Y0038750D01*
X0029125Y0011250D02*
Y0010250D01*
X0030125Y0011250D02*
X0029125D01*
X0030125Y0010250D02*
Y0011250D01*
X0029125Y0010250D02*
X0030125D01*
Y0011250D02*
X0029125Y0010250D01*
X0030125D02*
X0029125Y0011250D01*
X0019875Y0011125D02*
Y0010125D01*
X0020875Y0011125D02*
X0019875D01*
X0020875Y0010125D02*
Y0011125D01*
X0019875Y0010125D02*
X0020875D01*
Y0011125D02*
X0019875Y0010125D01*
X0020875D02*
X0019875Y0011125D01*
X0018750Y0010375D02*
Y0009375D01*
X0019750Y0010375D02*
X0018750D01*
X0019750Y0009375D02*
Y0010375D01*
X0018750Y0009375D02*
X0019750D01*
Y0010375D02*
X0018750Y0009375D01*
X0019750D02*
X0018750Y0010375D01*
X0006500Y0020250D02*
Y0019250D01*
X0007500Y0020250D02*
X0006500D01*
X0007500Y0019250D02*
Y0020250D01*
X0006500Y0019250D02*
X0007500D01*
Y0020250D02*
X0006500Y0019250D01*
X0007500D02*
X0006500Y0020250D01*
X0006125Y0022750D02*
Y0021750D01*
X0007125Y0022750D02*
X0006125D01*
X0007125Y0021750D02*
Y0022750D01*
X0006125Y0021750D02*
X0007125D01*
Y0022750D02*
X0006125Y0021750D01*
X0007125D02*
X0006125Y0022750D01*
X0017500Y0037000D02*
Y0036000D01*
X0018500Y0037000D02*
X0017500D01*
X0018500Y0036000D02*
Y0037000D01*
X0017500Y0036000D02*
X0018500D01*
Y0037000D02*
X0017500Y0036000D01*
X0018500D02*
X0017500Y0037000D01*
X0017625Y0041875D02*
Y0040875D01*
X0018625Y0041875D02*
X0017625D01*
X0018625Y0040875D02*
Y0041875D01*
X0017625Y0040875D02*
X0018625D01*
Y0041875D02*
X0017625Y0040875D01*
X0018625D02*
X0017625Y0041875D01*
X0036312Y0041000D02*
Y0040000D01*
X0037312Y0041000D02*
X0036312D01*
X0037312Y0040000D02*
Y0041000D01*
X0036312Y0040000D02*
X0037312D01*
Y0041000D02*
X0036312Y0040000D01*
X0037312D02*
X0036312Y0041000D01*
Y0042750D02*
Y0041750D01*
X0037312Y0042750D02*
X0036312D01*
X0037312Y0041750D02*
Y0042750D01*
X0036312Y0041750D02*
X0037312D01*
Y0042750D02*
X0036312Y0041750D01*
X0037312D02*
X0036312Y0042750D01*
X0039250D02*
Y0041750D01*
X0040250Y0042750D02*
X0039250D01*
X0040250Y0041750D02*
Y0042750D01*
X0039250Y0041750D02*
X0040250D01*
Y0042750D02*
X0039250Y0041750D01*
X0040250D02*
X0039250Y0042750D01*
X0035125Y0012250D02*
Y0011250D01*
X0036125Y0012250D02*
X0035125D01*
X0036125Y0011250D02*
Y0012250D01*
X0035125Y0011250D02*
X0036125D01*
Y0012250D02*
X0035125Y0011250D01*
X0036125D02*
X0035125Y0012250D01*
X0035000Y0029750D02*
Y0028750D01*
X0036000Y0029750D02*
X0035000D01*
X0036000Y0028750D02*
Y0029750D01*
X0035000Y0028750D02*
X0036000D01*
Y0029750D02*
X0035000Y0028750D01*
X0036000D02*
X0035000Y0029750D01*
X0028125Y0015000D02*
Y0014000D01*
X0029125Y0015000D02*
X0028125D01*
X0029125Y0014000D02*
Y0015000D01*
X0028125Y0014000D02*
X0029125D01*
Y0015000D02*
X0028125Y0014000D01*
X0029125D02*
X0028125Y0015000D01*
X0019250D02*
Y0014000D01*
X0020250Y0015000D02*
X0019250D01*
X0020250Y0014000D02*
Y0015000D01*
X0019250Y0014000D02*
X0020250D01*
Y0015000D02*
X0019250Y0014000D01*
X0020250D02*
X0019250Y0015000D01*
Y0029500D02*
Y0028500D01*
X0020250Y0029500D02*
X0019250D01*
X0020250Y0028500D02*
Y0029500D01*
X0019250Y0028500D02*
X0020250D01*
Y0029500D02*
X0019250Y0028500D01*
X0020250D02*
X0019250Y0029500D01*
X0034375Y0023750D02*
Y0022750D01*
X0035375Y0023750D02*
X0034375D01*
X0035375Y0022750D02*
Y0023750D01*
X0034375Y0022750D02*
X0035375D01*
Y0023750D02*
X0034375Y0022750D01*
X0035375D02*
X0034375Y0023750D01*
Y0020000D02*
Y0019000D01*
X0035375Y0020000D02*
X0034375D01*
X0035375Y0019000D02*
Y0020000D01*
X0034375Y0019000D02*
X0035375D01*
Y0020000D02*
X0034375Y0019000D01*
X0035375D02*
X0034375Y0020000D01*
X0034750Y0004500D02*
Y0003500D01*
X0035750Y0004500D02*
X0034750D01*
X0035750Y0003500D02*
Y0004500D01*
X0034750Y0003500D02*
X0035750D01*
Y0004500D02*
X0034750Y0003500D01*
X0035750D02*
X0034750Y0004500D01*
X0034875Y0032750D02*
Y0031750D01*
X0035875Y0032750D02*
X0034875D01*
X0035875Y0031750D02*
Y0032750D01*
X0034875Y0031750D02*
X0035875D01*
Y0032750D02*
X0034875Y0031750D01*
X0035875D02*
X0034875Y0032750D01*
X0006125Y0023375D02*
Y0022375D01*
X0007125Y0023375D02*
X0006125D01*
X0007125Y0022375D02*
Y0023375D01*
X0006125Y0022375D02*
X0007125D01*
Y0023375D02*
X0006125Y0022375D01*
X0007125D02*
X0006125Y0023375D01*
X0005625Y0021375D02*
Y0020375D01*
X0006625Y0021375D02*
X0005625D01*
X0006625Y0020375D02*
Y0021375D01*
X0005625Y0020375D02*
X0006625D01*
Y0021375D02*
X0005625Y0020375D01*
X0006625D02*
X0005625Y0021375D01*
X0023187Y0027500D02*
Y0026500D01*
X0024187Y0027500D02*
X0023187D01*
X0024187Y0026500D02*
Y0027500D01*
X0023187Y0026500D02*
X0024187D01*
Y0027500D02*
X0023187Y0026500D01*
X0024187D02*
X0023187Y0027500D01*
X0023250Y0029687D02*
Y0028687D01*
X0024250Y0029687D02*
X0023250D01*
X0024250Y0028687D02*
Y0029687D01*
X0023250Y0028687D02*
X0024250D01*
Y0029687D02*
X0023250Y0028687D01*
X0024250D02*
X0023250Y0029687D01*
X0024250Y0038750D02*
Y0037750D01*
X0025250Y0038750D02*
X0024250D01*
X0025250Y0037750D02*
Y0038750D01*
X0024250Y0037750D02*
X0025250D01*
Y0038750D02*
X0024250Y0037750D01*
X0025250D02*
X0024250Y0038750D01*
X0033125Y0021125D02*
Y0020125D01*
X0034125Y0021125D02*
X0033125D01*
X0034125Y0020125D02*
Y0021125D01*
X0033125Y0020125D02*
X0034125D01*
Y0021125D02*
X0033125Y0020125D01*
X0034125D02*
X0033125Y0021125D01*
X0033062Y0033875D02*
Y0032875D01*
X0034062Y0033875D02*
X0033062D01*
X0034062Y0032875D02*
Y0033875D01*
X0033062Y0032875D02*
X0034062D01*
Y0033875D02*
X0033062Y0032875D01*
X0034062D02*
X0033062Y0033875D01*
X0026375Y0034125D02*
Y0033125D01*
X0027375Y0034125D02*
X0026375D01*
X0027375Y0033125D02*
Y0034125D01*
X0026375Y0033125D02*
X0027375D01*
Y0034125D02*
X0026375Y0033125D01*
X0027375D02*
X0026375Y0034125D01*
X0026125Y0036500D02*
Y0035500D01*
X0027125Y0036500D02*
X0026125D01*
X0027125Y0035500D02*
Y0036500D01*
X0026125Y0035500D02*
X0027125D01*
Y0036500D02*
X0026125Y0035500D01*
X0027125D02*
X0026125Y0036500D01*
X0035875Y0039125D02*
Y0038125D01*
X0036875Y0039125D02*
X0035875D01*
X0036875Y0038125D02*
Y0039125D01*
X0035875Y0038125D02*
X0036875D01*
Y0039125D02*
X0035875Y0038125D01*
X0036875D02*
X0035875Y0039125D01*
X0030625Y0032875D02*
Y0031875D01*
X0031625Y0032875D02*
X0030625D01*
X0031625Y0031875D02*
Y0032875D01*
X0030625Y0031875D02*
X0031625D01*
Y0032875D02*
X0030625Y0031875D01*
X0031625D02*
X0030625Y0032875D01*
Y0034312D02*
Y0033312D01*
X0031625Y0034312D02*
X0030625D01*
X0031625Y0033312D02*
Y0034312D01*
X0030625Y0033312D02*
X0031625D01*
Y0034312D02*
X0030625Y0033312D01*
X0031625D02*
X0030625Y0034312D01*
X0021000Y0034000D02*
Y0033000D01*
X0022000Y0034000D02*
X0021000D01*
X0022000Y0033000D02*
Y0034000D01*
X0021000Y0033000D02*
X0022000D01*
Y0034000D02*
X0021000Y0033000D01*
X0022000D02*
X0021000Y0034000D01*
X0020625Y0041375D02*
Y0040375D01*
X0021625Y0041375D02*
X0020625D01*
X0021625Y0040375D02*
Y0041375D01*
X0020625Y0040375D02*
X0021625D01*
Y0041375D02*
X0020625Y0040375D01*
X0021625D02*
X0020625Y0041375D01*
X0035937Y0040500D02*
Y0039500D01*
X0036937Y0040500D02*
X0035937D01*
X0036937Y0039500D02*
Y0040500D01*
X0035937Y0039500D02*
X0036937D01*
Y0040500D02*
X0035937Y0039500D01*
X0036937D02*
X0035937Y0040500D01*
X0033750Y0024750D02*
Y0023750D01*
X0034750Y0024750D02*
X0033750D01*
X0034750Y0023750D02*
Y0024750D01*
X0033750Y0023750D02*
X0034750D01*
Y0024750D02*
X0033750Y0023750D01*
X0034750D02*
X0033750Y0024750D01*
Y0016500D02*
Y0015500D01*
X0034750Y0016500D02*
X0033750D01*
X0034750Y0015500D02*
Y0016500D01*
X0033750Y0015500D02*
X0034750D01*
Y0016500D02*
X0033750Y0015500D01*
X0034750D02*
X0033750Y0016500D01*
X0030500Y0019750D02*
Y0018750D01*
X0031500Y0019750D02*
X0030500D01*
X0031500Y0018750D02*
Y0019750D01*
X0030500Y0018750D02*
X0031500D01*
Y0019750D02*
X0030500Y0018750D01*
X0031500D02*
X0030500Y0019750D01*
Y0020750D02*
Y0019750D01*
X0031500Y0020750D02*
X0030500D01*
X0031500Y0019750D02*
Y0020750D01*
X0030500Y0019750D02*
X0031500D01*
Y0020750D02*
X0030500Y0019750D01*
X0031500D02*
X0030500Y0020750D01*
X0028250Y0020625D02*
Y0019625D01*
X0029250Y0020625D02*
X0028250D01*
X0029250Y0019625D02*
Y0020625D01*
X0028250Y0019625D02*
X0029250D01*
Y0020625D02*
X0028250Y0019625D01*
X0029250D02*
X0028250Y0020625D01*
X0028312Y0032375D02*
Y0031375D01*
X0029312Y0032375D02*
X0028312D01*
X0029312Y0031375D02*
Y0032375D01*
X0028312Y0031375D02*
X0029312D01*
Y0032375D02*
X0028312Y0031375D01*
X0029312D02*
X0028312Y0032375D01*
X0023875Y0031937D02*
Y0030937D01*
X0024875Y0031937D02*
X0023875D01*
X0024875Y0030937D02*
Y0031937D01*
X0023875Y0030937D02*
X0024875D01*
Y0031937D02*
X0023875Y0030937D01*
X0024875D02*
X0023875Y0031937D01*
X0025500Y0031375D02*
Y0030375D01*
X0026500Y0031375D02*
X0025500D01*
X0026500Y0030375D02*
Y0031375D01*
X0025500Y0030375D02*
X0026500D01*
Y0031375D02*
X0025500Y0030375D01*
X0026500D02*
X0025500Y0031375D01*
X0003250Y0027250D02*
Y0026250D01*
X0004250Y0027250D02*
X0003250D01*
X0004250Y0026250D02*
Y0027250D01*
X0003250Y0026250D02*
X0004250D01*
Y0027250D02*
X0003250Y0026250D01*
X0004250D02*
X0003250Y0027250D01*
X0006625Y0027500D02*
Y0026500D01*
X0007625Y0027500D02*
X0006625D01*
X0007625Y0026500D02*
Y0027500D01*
X0006625Y0026500D02*
X0007625D01*
Y0027500D02*
X0006625Y0026500D01*
X0007625D02*
X0006625Y0027500D01*
X0025750Y0034375D02*
Y0033375D01*
X0026750Y0034375D02*
X0025750D01*
X0026750Y0033375D02*
Y0034375D01*
X0025750Y0033375D02*
X0026750D01*
Y0034375D02*
X0025750Y0033375D01*
X0026750D02*
X0025750Y0034375D01*
X0026250Y0043125D02*
Y0042125D01*
X0027250Y0043125D02*
X0026250D01*
X0027250Y0042125D02*
Y0043125D01*
X0026250Y0042125D02*
X0027250D01*
Y0043125D02*
X0026250Y0042125D01*
X0027250D02*
X0026250Y0043125D01*
X0025250Y0034875D02*
Y0033875D01*
X0026250Y0034875D02*
X0025250D01*
X0026250Y0033875D02*
Y0034875D01*
X0025250Y0033875D02*
X0026250D01*
Y0034875D02*
X0025250Y0033875D01*
X0026250D02*
X0025250Y0034875D01*
X0026125Y0032750D02*
Y0031750D01*
X0027125Y0032750D02*
X0026125D01*
X0027125Y0031750D02*
Y0032750D01*
X0026125Y0031750D02*
X0027125D01*
Y0032750D02*
X0026125Y0031750D01*
X0027125D02*
X0026125Y0032750D01*
X0025000Y0045250D02*
Y0044250D01*
X0026000Y0045250D02*
X0025000D01*
X0026000Y0044250D02*
Y0045250D01*
X0025000Y0044250D02*
X0026000D01*
Y0045250D02*
X0025000Y0044250D01*
X0026000D02*
X0025000Y0045250D01*
Y0038750D02*
Y0037750D01*
X0026000Y0038750D02*
X0025000D01*
X0026000Y0037750D02*
Y0038750D01*
X0025000Y0037750D02*
X0026000D01*
Y0038750D02*
X0025000Y0037750D01*
X0026000D02*
X0025000Y0038750D01*
X0018625Y0030062D02*
Y0029062D01*
X0019625Y0030062D02*
X0018625D01*
X0019625Y0029062D02*
Y0030062D01*
X0018625Y0029062D02*
X0019625D01*
Y0030062D02*
X0018625Y0029062D01*
X0019625D02*
X0018625Y0030062D01*
Y0028187D02*
Y0027187D01*
X0019625Y0028187D02*
X0018625D01*
X0019625Y0027187D02*
Y0028187D01*
X0018625Y0027187D02*
X0019625D01*
Y0028187D02*
X0018625Y0027187D01*
X0019625D02*
X0018625Y0028187D01*
X0010000Y0026750D02*
Y0025750D01*
X0011000Y0026750D02*
X0010000D01*
X0011000Y0025750D02*
Y0026750D01*
X0010000Y0025750D02*
X0011000D01*
Y0026750D02*
X0010000Y0025750D01*
X0011000D02*
X0010000Y0026750D01*
X0009875Y0019750D02*
Y0018750D01*
X0010875Y0019750D02*
X0009875D01*
X0010875Y0018750D02*
Y0019750D01*
X0009875Y0018750D02*
X0010875D01*
Y0019750D02*
X0009875Y0018750D01*
X0010875D02*
X0009875Y0019750D01*
X0012625Y0034250D02*
Y0033250D01*
X0013625Y0034250D02*
X0012625D01*
X0013625Y0033250D02*
Y0034250D01*
X0012625Y0033250D02*
X0013625D01*
Y0034250D02*
X0012625Y0033250D01*
X0013625D02*
X0012625Y0034250D01*
Y0032000D02*
Y0031000D01*
X0013625Y0032000D02*
X0012625D01*
X0013625Y0031000D02*
Y0032000D01*
X0012625Y0031000D02*
X0013625D01*
Y0032000D02*
X0012625Y0031000D01*
X0013625D02*
X0012625Y0032000D01*
X0002325Y-0023750D02*
X0001325Y-0024750D01*
X0002325D02*
X0001325Y-0023750D01*
X0001575Y-0022650D02*
Y-0022850D01*
X0001725Y-0022500D02*
X0001575Y-0022650D01*
X0001925Y-0022500D02*
X0001725D01*
X0002075Y-0022650D02*
X0001925Y-0022500D01*
X0002075Y-0022850D02*
Y-0022650D01*
X0001925Y-0023000D02*
X0002075Y-0022850D01*
X0001725Y-0023000D02*
X0001925D01*
X0001575Y-0022850D02*
X0001725Y-0023000D01*
X0001775Y-0022650D02*
Y-0022600D01*
X0001725Y-0022650D02*
X0001775D01*
X0001725Y-0022600D02*
Y-0022650D01*
X0001775Y-0022600D02*
X0001725D01*
X0001875D02*
Y-0022650D01*
X0001925Y-0022600D02*
X0001875D01*
X0001925Y-0022650D02*
Y-0022600D01*
X0001875Y-0022650D02*
X0001925D01*
X0001775Y-0022900D02*
X0001675Y-0022800D01*
X0001875Y-0022900D02*
X0001775D01*
X0001975Y-0022800D02*
X0001875Y-0022900D01*
X0002325Y-0021250D02*
X0001325D01*
X0001825Y-0020750D02*
Y-0021750D01*
X0001575Y-0019650D02*
Y-0019850D01*
X0001825Y-0019900D02*
X0001575Y-0019650D01*
X0002075D02*
X0001825Y-0019900D01*
X0002075Y-0019850D02*
Y-0019650D01*
X0001825Y-0019600D02*
X0002075Y-0019850D01*
X0001575D02*
X0001825Y-0019600D01*
Y-0018100D02*
X0001575Y-0018350D01*
X0002075D02*
X0001825Y-0018100D01*
X0001575Y-0018350D02*
X0002075D01*
X0001575Y-0016650D02*
Y-0016850D01*
X0001725Y-0016500D02*
X0001575Y-0016650D01*
X0001925Y-0016500D02*
X0001725D01*
X0002075Y-0016650D02*
X0001925Y-0016500D01*
X0002075Y-0016850D02*
Y-0016650D01*
X0001925Y-0017000D02*
X0002075Y-0016850D01*
X0001725Y-0017000D02*
X0001925D01*
X0001575Y-0016850D02*
X0001725Y-0017000D01*
X0001575Y-0015000D02*
Y-0015250D01*
X0001825Y-0015000D02*
X0001575D01*
X0001825Y-0015500D02*
Y-0015000D01*
X0002075Y-0015500D02*
X0001825D01*
X0002075Y-0015250D02*
Y-0015500D01*
X0001575Y-0015250D02*
X0002075D01*
X0001575Y-0013500D02*
Y-0014000D01*
X0002075Y-0013500D02*
X0001575D01*
X0002075Y-0014000D02*
Y-0013500D01*
X0001575Y-0014000D02*
X0002075D01*
Y-0013750D02*
X0001575D01*
X0001825Y-0013500D02*
Y-0014000D01*
X0001575Y-0012000D02*
Y-0012500D01*
X0002075Y-0012000D02*
X0001575D01*
X0002075Y-0012500D02*
Y-0012000D01*
X0001575Y-0012500D02*
X0002075D01*
Y-0012000D02*
X0001575Y-0012500D01*
X0002075D02*
X0001575Y-0012000D01*
X0001825Y-0010500D02*
X0001575Y-0010750D01*
X0002075D02*
X0001825Y-0010500D01*
Y-0011000D02*
X0002075Y-0010750D01*
X0001575D02*
X0001825Y-0011000D01*
X0002075Y-0009250D02*
X0001575D01*
X0001825Y-0009000D02*
Y-0009500D01*
X0002075Y-0007500D02*
X0001575Y-0008000D01*
X0002075D02*
X0001575Y-0007500D01*
X0001825Y-0005750D02*
X0001325Y-0006250D01*
X0002325D02*
X0001825Y-0005750D01*
Y-0006750D02*
X0002325Y-0006250D01*
X0001325D02*
X0001825Y-0006750D01*
X0001925Y-0006250D02*
X0001725D01*
X0001825Y-0006150D02*
Y-0006350D01*
X0001325Y-0004250D02*
Y-0005250D01*
X0002325Y-0004250D02*
X0001325D01*
X0002325Y-0005250D02*
Y-0004250D01*
X0001325Y-0005250D02*
X0002325D01*
Y-0004250D02*
X0001325Y-0005250D01*
X0002325D02*
X0001325Y-0004250D01*
X0037300Y-0027050D02*
X-0000050D01*
X0037250Y-0027000D02*
X0000000D01*
X0037250Y-0025000D02*
X0000000D01*
X0037250Y-0023500D02*
X0000000D01*
X0037250Y-0022000D02*
X0000000D01*
X0037250Y-0020500D02*
X0000000D01*
X0037250Y-0019000D02*
X0000000D01*
X0037250Y-0017500D02*
X0000000D01*
X0037250Y-0016000D02*
X0000000D01*
X0037250Y-0014500D02*
X0000000D01*
X0037250Y-0013000D02*
X0000000D01*
X0037250Y-0011500D02*
X0000000D01*
X0037250Y-0010000D02*
X0000000D01*
X0037250Y-0008500D02*
X0000000D01*
X0037250Y-0007000D02*
X0000000D01*
X0037250Y-0005500D02*
X0000000D01*
X0037250Y-0004000D02*
X0000000D01*
X0037250Y-0003950D02*
X0000000D01*
X0037250Y-0002000D02*
X0000000D01*
X0037250Y-0001950D02*
X0000000D01*
X0037250Y0000000D02*
X0000000D01*
X0037300Y0000050D02*
X-0000050D01*
X0037300Y-0027000D02*
Y0000000D01*
X0037250Y-0027000D02*
Y0000000D01*
X0025708Y-0027000D02*
Y-0002000D01*
X0020158Y-0027000D02*
Y-0002000D01*
X0012092Y-0025000D02*
Y-0002000D01*
X0003700Y-0025000D02*
Y-0002000D01*
X0003650Y-0025000D02*
Y-0002000D01*
X-0000050Y-0027000D02*
Y0000000D01*
X0000000Y-0027000D02*
Y0000000D01*
X0016625Y0042187D02*
Y0041187D01*
X0017625Y0042187D02*
X0016625D01*
X0017625Y0041187D02*
Y0042187D01*
X0016625Y0041187D02*
X0017625D01*
Y0042187D02*
X0016625Y0041187D01*
X0017625D02*
X0016625Y0042187D01*
Y0043750D02*
Y0042750D01*
X0017625Y0043750D02*
X0016625D01*
X0017625Y0042750D02*
Y0043750D01*
X0016625Y0042750D02*
X0017625D01*
Y0043750D02*
X0016625Y0042750D01*
X0017625D02*
X0016625Y0043750D01*
X0016500Y0044500D02*
Y0043500D01*
X0017500Y0044500D02*
X0016500D01*
X0017500Y0043500D02*
Y0044500D01*
X0016500Y0043500D02*
X0017500D01*
Y0044500D02*
X0016500Y0043500D01*
X0017500D02*
X0016500Y0044500D01*
X0015500D02*
Y0043500D01*
X0016500Y0044500D02*
X0015500D01*
X0016500Y0043500D02*
Y0044500D01*
X0015500Y0043500D02*
X0016500D01*
Y0044500D02*
X0015500Y0043500D01*
X0016500D02*
X0015500Y0044500D01*
X0014500D02*
Y0043500D01*
X0015500Y0044500D02*
X0014500D01*
X0015500Y0043500D02*
Y0044500D01*
X0014500Y0043500D02*
X0015500D01*
Y0044500D02*
X0014500Y0043500D01*
X0015500D02*
X0014500Y0044500D01*
X0013562D02*
Y0043500D01*
X0014562Y0044500D02*
X0013562D01*
X0014562Y0043500D02*
Y0044500D01*
X0013562Y0043500D02*
X0014562D01*
Y0044500D02*
X0013562Y0043500D01*
X0014562D02*
X0013562Y0044500D01*
X0013312Y0043062D02*
Y0042062D01*
X0014312Y0043062D02*
X0013312D01*
X0014312Y0042062D02*
Y0043062D01*
X0013312Y0042062D02*
X0014312D01*
Y0043062D02*
X0013312Y0042062D01*
X0014312D02*
X0013312Y0043062D01*
X0005937Y0039625D02*
Y0038625D01*
X0006937Y0039625D02*
X0005937D01*
X0006937Y0038625D02*
Y0039625D01*
X0005937Y0038625D02*
X0006937D01*
Y0039625D02*
X0005937Y0038625D01*
X0006937D02*
X0005937Y0039625D01*
Y0041187D02*
Y0040187D01*
X0006937Y0041187D02*
X0005937D01*
X0006937Y0040187D02*
Y0041187D01*
X0005937Y0040187D02*
X0006937D01*
Y0041187D02*
X0005937Y0040187D01*
X0006937D02*
X0005937Y0041187D01*
X0005875Y0042125D02*
Y0041125D01*
X0006875Y0042125D02*
X0005875D01*
X0006875Y0041125D02*
Y0042125D01*
X0005875Y0041125D02*
X0006875D01*
Y0042125D02*
X0005875Y0041125D01*
X0006875D02*
X0005875Y0042125D01*
X0004937D02*
Y0041125D01*
X0005937Y0042125D02*
X0004937D01*
X0005937Y0041125D02*
Y0042125D01*
X0004937Y0041125D02*
X0005937D01*
Y0042125D02*
X0004937Y0041125D01*
X0005937D02*
X0004937Y0042125D01*
X0004000D02*
Y0041125D01*
X0005000Y0042125D02*
X0004000D01*
X0005000Y0041125D02*
Y0042125D01*
X0004000Y0041125D02*
X0005000D01*
Y0042125D02*
X0004000Y0041125D01*
X0005000D02*
X0004000Y0042125D01*
X0001625D02*
Y0041125D01*
X0002625Y0042125D02*
X0001625D01*
X0002625Y0041125D02*
Y0042125D01*
X0001625Y0041125D02*
X0002625D01*
Y0042125D02*
X0001625Y0041125D01*
X0002625D02*
X0001625Y0042125D01*
X0000500D02*
Y0041125D01*
X0001500Y0042125D02*
X0000500D01*
X0001500Y0041125D02*
Y0042125D01*
X0000500Y0041125D02*
X0001500D01*
Y0042125D02*
X0000500Y0041125D01*
X0001500D02*
X0000500Y0042125D01*
X0001562Y0038750D02*
Y0037750D01*
X0002562Y0038750D02*
X0001562D01*
X0002562Y0037750D02*
Y0038750D01*
X0001562Y0037750D02*
X0002562D01*
Y0038750D02*
X0001562Y0037750D01*
X0002562D02*
X0001562Y0038750D01*
X0000500D02*
Y0037750D01*
X0001500Y0038750D02*
X0000500D01*
X0001500Y0037750D02*
Y0038750D01*
X0000500Y0037750D02*
X0001500D01*
Y0038750D02*
X0000500Y0037750D01*
X0001500D02*
X0000500Y0038750D01*
X0005250D02*
Y0037750D01*
X0006250Y0038750D02*
X0005250D01*
X0006250Y0037750D02*
Y0038750D01*
X0005250Y0037750D02*
X0006250D01*
Y0038750D02*
X0005250Y0037750D01*
X0006250D02*
X0005250Y0038750D01*
X0004562D02*
Y0037750D01*
X0005562Y0038750D02*
X0004562D01*
X0005562Y0037750D02*
Y0038750D01*
X0004562Y0037750D02*
X0005562D01*
Y0038750D02*
X0004562Y0037750D01*
X0005562D02*
X0004562Y0038750D01*
X0013750Y0047687D02*
Y0046687D01*
X0014750Y0047687D02*
X0013750D01*
X0014750Y0046687D02*
Y0047687D01*
X0013750Y0046687D02*
X0014750D01*
Y0047687D02*
X0013750Y0046687D01*
X0014750D02*
X0013750Y0047687D01*
X0014750Y0050937D02*
Y0049937D01*
X0015750Y0050937D02*
X0014750D01*
X0015750Y0049937D02*
Y0050937D01*
X0014750Y0049937D02*
X0015750D01*
Y0050937D02*
X0014750Y0049937D01*
X0015750D02*
X0014750Y0050937D01*
X0014187D02*
Y0049937D01*
X0015187Y0050937D02*
X0014187D01*
X0015187Y0049937D02*
Y0050937D01*
X0014187Y0049937D02*
X0015187D01*
Y0050937D02*
X0014187Y0049937D01*
X0015187D02*
X0014187Y0050937D01*
X0013562D02*
Y0049937D01*
X0014562Y0050937D02*
X0013562D01*
X0014562Y0049937D02*
Y0050937D01*
X0013562Y0049937D02*
X0014562D01*
Y0050937D02*
X0013562Y0049937D01*
X0014562D02*
X0013562Y0050937D01*
Y0049875D02*
Y0048875D01*
X0014562Y0049875D02*
X0013562D01*
X0014562Y0048875D02*
Y0049875D01*
X0013562Y0048875D02*
X0014562D01*
Y0049875D02*
X0013562Y0048875D01*
X0014562D02*
X0013562Y0049875D01*
X0013750Y0042437D02*
Y0041437D01*
X0014750Y0042437D02*
X0013750D01*
X0014750Y0041437D02*
Y0042437D01*
X0013750Y0041437D02*
X0014750D01*
Y0042437D02*
X0013750Y0041437D01*
X0014750D02*
X0013750Y0042437D01*
X0017625Y0046812D02*
Y0045812D01*
X0018625Y0046812D02*
X0017625D01*
X0018625Y0045812D02*
Y0046812D01*
X0017625Y0045812D02*
X0018625D01*
Y0046812D02*
X0017625Y0045812D01*
X0018625D02*
X0017625Y0046812D01*
Y0045000D02*
Y0044000D01*
X0018625Y0045000D02*
X0017625D01*
X0018625Y0044000D02*
Y0045000D01*
X0017625Y0044000D02*
X0018625D01*
Y0045000D02*
X0017625Y0044000D01*
X0018625D02*
X0017625Y0045000D01*
Y0045937D02*
Y0044937D01*
X0018625Y0045937D02*
X0017625D01*
X0018625Y0044937D02*
Y0045937D01*
X0017625Y0044937D02*
X0018625D01*
Y0045937D02*
X0017625Y0044937D01*
X0018625D02*
X0017625Y0045937D01*
X0013750Y0047000D02*
Y0046000D01*
X0014750Y0047000D02*
X0013750D01*
X0014750Y0046000D02*
Y0047000D01*
X0013750Y0046000D02*
X0014750D01*
Y0047000D02*
X0013750Y0046000D01*
X0014750D02*
X0013750Y0047000D01*
X0015937Y0048000D02*
Y0047000D01*
X0016937Y0048000D02*
X0015937D01*
X0016937Y0047000D02*
Y0048000D01*
X0015937Y0047000D02*
X0016937D01*
Y0048000D02*
X0015937Y0047000D01*
X0016937D02*
X0015937Y0048000D01*
X0015312D02*
Y0047000D01*
X0016312Y0048000D02*
X0015312D01*
X0016312Y0047000D02*
Y0048000D01*
X0015312Y0047000D02*
X0016312D01*
Y0048000D02*
X0015312Y0047000D01*
X0016312D02*
X0015312Y0048000D01*
X0029900Y0012530D02*
X0029400D01*
X0029650Y0012780D02*
Y0012280D01*
X0028900Y0012530D02*
X0028400D01*
X0028650Y0012780D02*
Y0012280D01*
X0027900Y0012530D02*
X0027400D01*
X0027650Y0012780D02*
Y0012280D01*
X0026650Y0012780D02*
X0026400Y0012530D01*
X0026900D02*
X0026650Y0012780D01*
Y0012280D02*
X0026900Y0012530D01*
X0026400D02*
X0026650Y0012280D01*
X0033200Y0009030D02*
X0032200Y0008030D01*
X0033200D02*
X0032200Y0009030D01*
X0024100D02*
X0023100Y0008030D01*
X0024100D02*
X0023100Y0009030D01*
X0007400Y0041080D02*
Y0040880D01*
X0007550Y0041230D02*
X0007400Y0041080D01*
X0007750Y0041230D02*
X0007550D01*
X0007900Y0041080D02*
X0007750Y0041230D01*
X0007900Y0040880D02*
Y0041080D01*
X0007750Y0040730D02*
X0007900Y0040880D01*
X0007550Y0040730D02*
X0007750D01*
X0007400Y0040880D02*
X0007550Y0040730D01*
X0007400Y0040080D02*
Y0039880D01*
X0007550Y0040230D02*
X0007400Y0040080D01*
X0007750Y0040230D02*
X0007550D01*
X0007900Y0040080D02*
X0007750Y0040230D01*
X0007900Y0039880D02*
Y0040080D01*
X0007750Y0039730D02*
X0007900Y0039880D01*
X0007550Y0039730D02*
X0007750D01*
X0007400Y0039880D02*
X0007550Y0039730D01*
X0007400Y0039080D02*
Y0038880D01*
X0007550Y0039230D02*
X0007400Y0039080D01*
X0007750Y0039230D02*
X0007550D01*
X0007900Y0039080D02*
X0007750Y0039230D01*
X0007900Y0038880D02*
Y0039080D01*
X0007750Y0038730D02*
X0007900Y0038880D01*
X0007550Y0038730D02*
X0007750D01*
X0007400Y0038880D02*
X0007550Y0038730D01*
X0001450Y0040080D02*
Y0039880D01*
X0001600Y0040230D02*
X0001450Y0040080D01*
X0001800Y0040230D02*
X0001600D01*
X0001950Y0040080D02*
X0001800Y0040230D01*
X0001950Y0039880D02*
Y0040080D01*
X0001800Y0039730D02*
X0001950Y0039880D01*
X0001600Y0039730D02*
X0001800D01*
X0001450Y0039880D02*
X0001600Y0039730D01*
X0001650Y0040080D02*
Y0040130D01*
X0001600Y0040080D02*
X0001650D01*
X0001600Y0040130D02*
Y0040080D01*
X0001650Y0040130D02*
X0001600D01*
X0001750D02*
Y0040080D01*
X0001800Y0040130D02*
X0001750D01*
X0001800Y0040080D02*
Y0040130D01*
X0001750Y0040080D02*
X0001800D01*
X0001650Y0039830D02*
X0001550Y0039930D01*
X0001750Y0039830D02*
X0001650D01*
X0001850Y0039930D02*
X0001750Y0039830D01*
X0029913Y0053186D02*
Y0052986D01*
X0030163Y0052936D02*
X0029913Y0053186D01*
X0030413D02*
X0030163Y0052936D01*
X0030413Y0052986D02*
Y0053186D01*
X0030163Y0053236D02*
X0030413Y0052986D01*
X0029913D02*
X0030163Y0053236D01*
X0029866Y0043573D02*
Y0043323D01*
X0030116Y0043573D02*
X0029866D01*
X0030116Y0043073D02*
Y0043573D01*
X0030366Y0043073D02*
X0030116D01*
X0030366Y0043323D02*
Y0043073D01*
X0029866Y0043323D02*
X0030366D01*
X0020750Y0020250D02*
Y0019750D01*
X0021250Y0020250D02*
X0020750D01*
X0021250Y0019750D02*
Y0020250D01*
X0020750Y0019750D02*
X0021250D01*
Y0020000D02*
X0020750D01*
X0021000Y0020250D02*
Y0019750D01*
X0020750Y0017250D02*
Y0016750D01*
X0021250Y0017250D02*
X0020750D01*
X0021250Y0016750D02*
Y0017250D01*
X0020750Y0016750D02*
X0021250D01*
Y0017000D02*
X0020750D01*
X0021000Y0017250D02*
Y0016750D01*
X0022750Y0017250D02*
Y0016750D01*
X0023250Y0017250D02*
X0022750D01*
X0023250Y0016750D02*
Y0017250D01*
X0022750Y0016750D02*
X0023250D01*
Y0017000D02*
X0022750D01*
X0023000Y0017250D02*
Y0016750D01*
X0022750Y0020250D02*
Y0019750D01*
X0023250Y0020250D02*
X0022750D01*
X0023250Y0019750D02*
Y0020250D01*
X0022750Y0019750D02*
X0023250D01*
Y0020000D02*
X0022750D01*
X0023000Y0020250D02*
Y0019750D01*
X0036000Y0007500D02*
Y0007000D01*
X0036500Y0007500D02*
X0036000D01*
X0036500Y0007000D02*
Y0007500D01*
X0036000Y0007000D02*
X0036500D01*
Y0007250D02*
X0036000D01*
X0036250Y0007500D02*
Y0007000D01*
X0039000Y0007500D02*
Y0007000D01*
X0039500Y0007500D02*
X0039000D01*
X0039500Y0007000D02*
Y0007500D01*
X0039000Y0007000D02*
X0039500D01*
Y0007250D02*
X0039000D01*
X0039250Y0007500D02*
Y0007000D01*
X0039000Y0009500D02*
Y0009000D01*
X0039500Y0009500D02*
X0039000D01*
X0039500Y0009000D02*
Y0009500D01*
X0039000Y0009000D02*
X0039500D01*
Y0009250D02*
X0039000D01*
X0039250Y0009500D02*
Y0009000D01*
X0036000Y0009500D02*
Y0009000D01*
X0036500Y0009500D02*
X0036000D01*
X0036500Y0009000D02*
Y0009500D01*
X0036000Y0009000D02*
X0036500D01*
Y0009250D02*
X0036000D01*
X0036250Y0009500D02*
Y0009000D01*
X0002000Y0054500D02*
X0001000D01*
X0001500Y0055000D02*
Y0054000D01*
X0038620Y0047750D02*
X0037620D01*
X0038120Y0048250D02*
Y0047250D01*
X0040000Y0054280D02*
X0039000D01*
X0039500Y0054780D02*
Y0053780D01*
X0040000Y0001500D02*
X0039000D01*
X0039500Y0002000D02*
Y0001000D01*
X0002000Y0001500D02*
X0001000D01*
X0001500Y0002000D02*
Y0001000D01*
X0009000Y0035750D02*
X0008500Y0035250D01*
X0009000D02*
X0008500Y0035750D01*
X0008000Y0034750D02*
X0007500Y0034250D01*
X0008000D02*
X0007500Y0034750D01*
X0009000Y0033750D02*
X0008500Y0033250D01*
X0009000D02*
X0008500Y0033750D01*
X0001500Y0044750D02*
Y0044250D01*
X0002000Y0044750D02*
X0001500D01*
X0002000Y0044250D02*
Y0044750D01*
X0001500Y0044250D02*
X0002000D01*
Y0044750D02*
X0001500Y0044250D01*
X0002000D02*
X0001500Y0044750D01*
X0002500D02*
Y0044250D01*
X0003000Y0044750D02*
X0002500D01*
X0003000Y0044250D02*
Y0044750D01*
X0002500Y0044250D02*
X0003000D01*
Y0044750D02*
X0002500Y0044250D01*
X0003000D02*
X0002500Y0044750D01*
X0033160Y0017970D02*
Y0017470D01*
X0033660Y0017970D02*
X0033160D01*
X0033660Y0017470D02*
Y0017970D01*
X0033160Y0017470D02*
X0033660D01*
Y0017970D02*
X0033160Y0017470D01*
X0033660D02*
X0033160Y0017970D01*
Y0016970D02*
Y0016470D01*
X0033660Y0016970D02*
X0033160D01*
X0033660Y0016470D02*
Y0016970D01*
X0033160Y0016470D02*
X0033660D01*
Y0016970D02*
X0033160Y0016470D01*
X0033660D02*
X0033160Y0016970D01*
X0032160Y0017970D02*
Y0017470D01*
X0032660Y0017970D02*
X0032160D01*
X0032660Y0017470D02*
Y0017970D01*
X0032160Y0017470D02*
X0032660D01*
Y0017970D02*
X0032160Y0017470D01*
X0032660D02*
X0032160Y0017970D01*
Y0016970D02*
Y0016470D01*
X0032660Y0016970D02*
X0032160D01*
X0032660Y0016470D02*
Y0016970D01*
X0032160Y0016470D02*
X0032660D01*
Y0016970D02*
X0032160Y0016470D01*
X0032660D02*
X0032160Y0016970D01*
X0031160Y0017970D02*
Y0017470D01*
X0031660Y0017970D02*
X0031160D01*
X0031660Y0017470D02*
Y0017970D01*
X0031160Y0017470D02*
X0031660D01*
Y0017970D02*
X0031160Y0017470D01*
X0031660D02*
X0031160Y0017970D01*
Y0016970D02*
Y0016470D01*
X0031660Y0016970D02*
X0031160D01*
X0031660Y0016470D02*
Y0016970D01*
X0031160Y0016470D02*
X0031660D01*
Y0016970D02*
X0031160Y0016470D01*
X0031660D02*
X0031160Y0016970D01*
X0030160Y0017970D02*
Y0017470D01*
X0030660Y0017970D02*
X0030160D01*
X0030660Y0017470D02*
Y0017970D01*
X0030160Y0017470D02*
X0030660D01*
Y0017970D02*
X0030160Y0017470D01*
X0030660D02*
X0030160Y0017970D01*
Y0016970D02*
Y0016470D01*
X0030660Y0016970D02*
X0030160D01*
X0030660Y0016470D02*
Y0016970D01*
X0030160Y0016470D02*
X0030660D01*
Y0016970D02*
X0030160Y0016470D01*
X0030660D02*
X0030160Y0016970D01*
X0029160Y0017970D02*
Y0017470D01*
X0029660Y0017970D02*
X0029160D01*
X0029660Y0017470D02*
Y0017970D01*
X0029160Y0017470D02*
X0029660D01*
Y0017970D02*
X0029160Y0017470D01*
X0029660D02*
X0029160Y0017970D01*
Y0016970D02*
Y0016470D01*
X0029660Y0016970D02*
X0029160D01*
X0029660Y0016470D02*
Y0016970D01*
X0029160Y0016470D02*
X0029660D01*
Y0016970D02*
X0029160Y0016470D01*
X0029660D02*
X0029160Y0016970D01*
X0028160Y0017970D02*
Y0017470D01*
X0028660Y0017970D02*
X0028160D01*
X0028660Y0017470D02*
Y0017970D01*
X0028160Y0017470D02*
X0028660D01*
Y0017970D02*
X0028160Y0017470D01*
X0028660D02*
X0028160Y0017970D01*
Y0016970D02*
Y0016470D01*
X0028660Y0016970D02*
X0028160D01*
X0028660Y0016470D02*
Y0016970D01*
X0028160Y0016470D02*
X0028660D01*
Y0016970D02*
X0028160Y0016470D01*
X0028660D02*
X0028160Y0016970D01*
X0027160Y0017970D02*
Y0017470D01*
X0027660Y0017970D02*
X0027160D01*
X0027660Y0017470D02*
Y0017970D01*
X0027160Y0017470D02*
X0027660D01*
Y0017970D02*
X0027160Y0017470D01*
X0027660D02*
X0027160Y0017970D01*
Y0016970D02*
Y0016470D01*
X0027660Y0016970D02*
X0027160D01*
X0027660Y0016470D02*
Y0016970D01*
X0027160Y0016470D02*
X0027660D01*
Y0016970D02*
X0027160Y0016470D01*
X0027660D02*
X0027160Y0016970D01*
X0026160Y0017970D02*
Y0017470D01*
X0026660Y0017970D02*
X0026160D01*
X0026660Y0017470D02*
Y0017970D01*
X0026160Y0017470D02*
X0026660D01*
Y0017970D02*
X0026160Y0017470D01*
X0026660D02*
X0026160Y0017970D01*
Y0016970D02*
Y0016470D01*
X0026660Y0016970D02*
X0026160D01*
X0026660Y0016470D02*
Y0016970D01*
X0026160Y0016470D02*
X0026660D01*
Y0016970D02*
X0026160Y0016470D01*
X0026660D02*
X0026160Y0016970D01*
X0025160Y0017970D02*
Y0017470D01*
X0025660Y0017970D02*
X0025160D01*
X0025660Y0017470D02*
Y0017970D01*
X0025160Y0017470D02*
X0025660D01*
Y0017970D02*
X0025160Y0017470D01*
X0025660D02*
X0025160Y0017970D01*
Y0016970D02*
Y0016470D01*
X0025660Y0016970D02*
X0025160D01*
X0025660Y0016470D02*
Y0016970D01*
X0025160Y0016470D02*
X0025660D01*
Y0016970D02*
X0025160Y0016470D01*
X0025660D02*
X0025160Y0016970D01*
X0024160Y0017970D02*
Y0017470D01*
X0024660Y0017970D02*
X0024160D01*
X0024660Y0017470D02*
Y0017970D01*
X0024160Y0017470D02*
X0024660D01*
Y0017970D02*
X0024160Y0017470D01*
X0024660D02*
X0024160Y0017970D01*
Y0016970D02*
Y0016470D01*
X0024660Y0016970D02*
X0024160D01*
X0024660Y0016470D02*
Y0016970D01*
X0024160Y0016470D02*
X0024660D01*
Y0016970D02*
X0024160Y0016470D01*
X0024660D02*
X0024160Y0016970D01*
X0038750Y0029250D02*
Y0028750D01*
X0039250Y0029250D02*
X0038750D01*
X0039250Y0028750D02*
Y0029250D01*
X0038750Y0028750D02*
X0039250D01*
Y0029250D02*
X0038750Y0028750D01*
X0039250D02*
X0038750Y0029250D01*
X0037750D02*
Y0028750D01*
X0038250Y0029250D02*
X0037750D01*
X0038250Y0028750D02*
Y0029250D01*
X0037750Y0028750D02*
X0038250D01*
Y0029250D02*
X0037750Y0028750D01*
X0038250D02*
X0037750Y0029250D01*
X0038750Y0030250D02*
Y0029750D01*
X0039250Y0030250D02*
X0038750D01*
X0039250Y0029750D02*
Y0030250D01*
X0038750Y0029750D02*
X0039250D01*
Y0030250D02*
X0038750Y0029750D01*
X0039250D02*
X0038750Y0030250D01*
X0037750D02*
Y0029750D01*
X0038250Y0030250D02*
X0037750D01*
X0038250Y0029750D02*
Y0030250D01*
X0037750Y0029750D02*
X0038250D01*
Y0030250D02*
X0037750Y0029750D01*
X0038250D02*
X0037750Y0030250D01*
X0038750Y0031250D02*
Y0030750D01*
X0039250Y0031250D02*
X0038750D01*
X0039250Y0030750D02*
Y0031250D01*
X0038750Y0030750D02*
X0039250D01*
Y0031250D02*
X0038750Y0030750D01*
X0039250D02*
X0038750Y0031250D01*
X0037750D02*
Y0030750D01*
X0038250Y0031250D02*
X0037750D01*
X0038250Y0030750D02*
Y0031250D01*
X0037750Y0030750D02*
X0038250D01*
Y0031250D02*
X0037750Y0030750D01*
X0038250D02*
X0037750Y0031250D01*
X0038750Y0032250D02*
Y0031750D01*
X0039250Y0032250D02*
X0038750D01*
X0039250Y0031750D02*
Y0032250D01*
X0038750Y0031750D02*
X0039250D01*
Y0032250D02*
X0038750Y0031750D01*
X0039250D02*
X0038750Y0032250D01*
X0037750D02*
Y0031750D01*
X0038250Y0032250D02*
X0037750D01*
X0038250Y0031750D02*
Y0032250D01*
X0037750Y0031750D02*
X0038250D01*
Y0032250D02*
X0037750Y0031750D01*
X0038250D02*
X0037750Y0032250D01*
X0038750Y0033250D02*
Y0032750D01*
X0039250Y0033250D02*
X0038750D01*
X0039250Y0032750D02*
Y0033250D01*
X0038750Y0032750D02*
X0039250D01*
Y0033250D02*
X0038750Y0032750D01*
X0039250D02*
X0038750Y0033250D01*
X0037750D02*
Y0032750D01*
X0038250Y0033250D02*
X0037750D01*
X0038250Y0032750D02*
Y0033250D01*
X0037750Y0032750D02*
X0038250D01*
Y0033250D02*
X0037750Y0032750D01*
X0038250D02*
X0037750Y0033250D01*
X0038750Y0034250D02*
Y0033750D01*
X0039250Y0034250D02*
X0038750D01*
X0039250Y0033750D02*
Y0034250D01*
X0038750Y0033750D02*
X0039250D01*
Y0034250D02*
X0038750Y0033750D01*
X0039250D02*
X0038750Y0034250D01*
X0037750D02*
Y0033750D01*
X0038250Y0034250D02*
X0037750D01*
X0038250Y0033750D02*
Y0034250D01*
X0037750Y0033750D02*
X0038250D01*
Y0034250D02*
X0037750Y0033750D01*
X0038250D02*
X0037750Y0034250D01*
X0038750Y0035250D02*
Y0034750D01*
X0039250Y0035250D02*
X0038750D01*
X0039250Y0034750D02*
Y0035250D01*
X0038750Y0034750D02*
X0039250D01*
Y0035250D02*
X0038750Y0034750D01*
X0039250D02*
X0038750Y0035250D01*
X0037750D02*
Y0034750D01*
X0038250Y0035250D02*
X0037750D01*
X0038250Y0034750D02*
Y0035250D01*
X0037750Y0034750D02*
X0038250D01*
Y0035250D02*
X0037750Y0034750D01*
X0038250D02*
X0037750Y0035250D01*
X0038750Y0036250D02*
Y0035750D01*
X0039250Y0036250D02*
X0038750D01*
X0039250Y0035750D02*
Y0036250D01*
X0038750Y0035750D02*
X0039250D01*
Y0036250D02*
X0038750Y0035750D01*
X0039250D02*
X0038750Y0036250D01*
X0037750D02*
Y0035750D01*
X0038250Y0036250D02*
X0037750D01*
X0038250Y0035750D02*
Y0036250D01*
X0037750Y0035750D02*
X0038250D01*
Y0036250D02*
X0037750Y0035750D01*
X0038250D02*
X0037750Y0036250D01*
X0038750Y0037250D02*
Y0036750D01*
X0039250Y0037250D02*
X0038750D01*
X0039250Y0036750D02*
Y0037250D01*
X0038750Y0036750D02*
X0039250D01*
Y0037250D02*
X0038750Y0036750D01*
X0039250D02*
X0038750Y0037250D01*
X0037750D02*
Y0036750D01*
X0038250Y0037250D02*
X0037750D01*
X0038250Y0036750D02*
Y0037250D01*
X0037750Y0036750D02*
X0038250D01*
Y0037250D02*
X0037750Y0036750D01*
X0038250D02*
X0037750Y0037250D01*
X0038750Y0038250D02*
Y0037750D01*
X0039250Y0038250D02*
X0038750D01*
X0039250Y0037750D02*
Y0038250D01*
X0038750Y0037750D02*
X0039250D01*
Y0038250D02*
X0038750Y0037750D01*
X0039250D02*
X0038750Y0038250D01*
X0037750D02*
Y0037750D01*
X0038250Y0038250D02*
X0037750D01*
X0038250Y0037750D02*
Y0038250D01*
X0037750Y0037750D02*
X0038250D01*
Y0038250D02*
X0037750Y0037750D01*
X0038250D02*
X0037750Y0038250D01*
X0021750Y0048500D02*
Y0048000D01*
X0022250Y0048500D02*
X0021750D01*
X0022250Y0048000D02*
Y0048500D01*
X0021750Y0048000D02*
X0022250D01*
Y0048500D02*
X0021750Y0048000D01*
X0022250D02*
X0021750Y0048500D01*
Y0047500D02*
Y0047000D01*
X0022250Y0047500D02*
X0021750D01*
X0022250Y0047000D02*
Y0047500D01*
X0021750Y0047000D02*
X0022250D01*
Y0047500D02*
X0021750Y0047000D01*
X0022250D02*
X0021750Y0047500D01*
Y0046500D02*
Y0046000D01*
X0022250Y0046500D02*
X0021750D01*
X0022250Y0046000D02*
Y0046500D01*
X0021750Y0046000D02*
X0022250D01*
Y0046500D02*
X0021750Y0046000D01*
X0022250D02*
X0021750Y0046500D01*
Y0045500D02*
Y0045000D01*
X0022250Y0045500D02*
X0021750D01*
X0022250Y0045000D02*
Y0045500D01*
X0021750Y0045000D02*
X0022250D01*
Y0045500D02*
X0021750Y0045000D01*
X0022250D02*
X0021750Y0045500D01*
X0003000Y0004150D02*
X0002750Y0003900D01*
X0003250D02*
X0003000Y0004150D01*
X0002750Y0003900D02*
X0003250D01*
X0003000Y0005528D02*
X0002750Y0005278D01*
X0003250D02*
X0003000Y0005528D01*
X0002750Y0005278D02*
X0003250D01*
X0003000Y0006906D02*
X0002750Y0006656D01*
X0003250D02*
X0003000Y0006906D01*
X0002750Y0006656D02*
X0003250D01*
X0003000Y0009450D02*
X0002750Y0009200D01*
X0003250D02*
X0003000Y0009450D01*
X0002750Y0009200D02*
X0003250D01*
X0003000Y0010828D02*
X0002750Y0010578D01*
X0003250D02*
X0003000Y0010828D01*
X0002750Y0010578D02*
X0003250D01*
X0003000Y0012206D02*
X0002750Y0011956D01*
X0003250D02*
X0003000Y0012206D01*
X0002750Y0011956D02*
X0003250D01*
X0003000Y0013584D02*
X0002750Y0013334D01*
X0003250D02*
X0003000Y0013584D01*
X0002750Y0013334D02*
X0003250D01*
X0003000Y0032150D02*
X0002750Y0031900D01*
X0003250D02*
X0003000Y0032150D01*
X0002750Y0031900D02*
X0003250D01*
X0003000Y0033528D02*
X0002750Y0033278D01*
X0003250D02*
X0003000Y0033528D01*
X0002750Y0033278D02*
X0003250D01*
X0003000Y0034906D02*
X0002750Y0034656D01*
X0003250D02*
X0003000Y0034906D01*
X0002750Y0034656D02*
X0003250D01*
X0003000Y0036284D02*
X0002750Y0036034D01*
X0003250D02*
X0003000Y0036284D01*
X0002750Y0036034D02*
X0003250D01*
X0017750Y0003150D02*
X0017500Y0002900D01*
X0018000D02*
X0017750Y0003150D01*
X0017500Y0002900D02*
X0018000D01*
X0016372Y0003150D02*
X0016122Y0002900D01*
X0016622D02*
X0016372Y0003150D01*
X0016122Y0002900D02*
X0016622D01*
X0014994Y0003150D02*
X0014744Y0002900D01*
X0015244D02*
X0014994Y0003150D01*
X0014744Y0002900D02*
X0015244D01*
X0005750Y0031500D02*
Y0031000D01*
X0006250Y0031500D02*
X0005750D01*
X0006250Y0031000D02*
Y0031500D01*
X0005750Y0031000D02*
X0006250D01*
Y0031500D02*
X0005750Y0031000D01*
X0006250D02*
X0005750Y0031500D01*
X0004750D02*
Y0031000D01*
X0005250Y0031500D02*
X0004750D01*
X0005250Y0031000D02*
Y0031500D01*
X0004750Y0031000D02*
X0005250D01*
Y0031500D02*
X0004750Y0031000D01*
X0005250D02*
X0004750Y0031500D01*
X0012750Y0003150D02*
X0012500Y0002900D01*
X0013000D02*
X0012750Y0003150D01*
X0012500Y0002900D02*
X0013000D01*
X0011372Y0003150D02*
X0011122Y0002900D01*
X0011622D02*
X0011372Y0003150D01*
X0011122Y0002900D02*
X0011622D01*
X0009994Y0003150D02*
X0009744Y0002900D01*
X0010244D02*
X0009994Y0003150D01*
X0009744Y0002900D02*
X0010244D01*
X0008616Y0003150D02*
X0008366Y0002900D01*
X0008866D02*
X0008616Y0003150D01*
X0008366Y0002900D02*
X0008866D01*
X0003000Y0024150D02*
X0002750Y0023900D01*
X0003250D02*
X0003000Y0024150D01*
X0002750Y0023900D02*
X0003250D01*
X0003000Y0025528D02*
X0002750Y0025278D01*
X0003250D02*
X0003000Y0025528D01*
X0002750Y0025278D02*
X0003250D01*
X0003000Y0028150D02*
X0002750Y0027900D01*
X0003250D02*
X0003000Y0028150D01*
X0002750Y0027900D02*
X0003250D01*
X0003000Y0029528D02*
X0002750Y0029278D01*
X0003250D02*
X0003000Y0029528D01*
X0002750Y0029278D02*
X0003250D01*
X0003000Y0020150D02*
X0002750Y0019900D01*
X0003250D02*
X0003000Y0020150D01*
X0002750Y0019900D02*
X0003250D01*
X0003000Y0021528D02*
X0002750Y0021278D01*
X0003250D02*
X0003000Y0021528D01*
X0002750Y0021278D02*
X0003250D01*
X0037750Y0026500D02*
Y0026000D01*
X0038250Y0026500D02*
X0037750D01*
X0038250Y0026000D02*
Y0026500D01*
X0037750Y0026000D02*
X0038250D01*
Y0026500D02*
X0037750Y0026000D01*
X0038250D02*
X0037750Y0026500D01*
X0038750D02*
Y0026000D01*
X0039250Y0026500D02*
X0038750D01*
X0039250Y0026000D02*
Y0026500D01*
X0038750Y0026000D02*
X0039250D01*
Y0026500D02*
X0038750Y0026000D01*
X0039250D02*
X0038750Y0026500D01*
X0037750Y0025500D02*
Y0025000D01*
X0038250Y0025500D02*
X0037750D01*
X0038250Y0025000D02*
Y0025500D01*
X0037750Y0025000D02*
X0038250D01*
Y0025500D02*
X0037750Y0025000D01*
X0038250D02*
X0037750Y0025500D01*
X0038750D02*
Y0025000D01*
X0039250Y0025500D02*
X0038750D01*
X0039250Y0025000D02*
Y0025500D01*
X0038750Y0025000D02*
X0039250D01*
Y0025500D02*
X0038750Y0025000D01*
X0039250D02*
X0038750Y0025500D01*
X0037750Y0024500D02*
Y0024000D01*
X0038250Y0024500D02*
X0037750D01*
X0038250Y0024000D02*
Y0024500D01*
X0037750Y0024000D02*
X0038250D01*
Y0024500D02*
X0037750Y0024000D01*
X0038250D02*
X0037750Y0024500D01*
X0038750D02*
Y0024000D01*
X0039250Y0024500D02*
X0038750D01*
X0039250Y0024000D02*
Y0024500D01*
X0038750Y0024000D02*
X0039250D01*
Y0024500D02*
X0038750Y0024000D01*
X0039250D02*
X0038750Y0024500D01*
X0037750Y0023500D02*
Y0023000D01*
X0038250Y0023500D02*
X0037750D01*
X0038250Y0023000D02*
Y0023500D01*
X0037750Y0023000D02*
X0038250D01*
Y0023500D02*
X0037750Y0023000D01*
X0038250D02*
X0037750Y0023500D01*
X0038750D02*
Y0023000D01*
X0039250Y0023500D02*
X0038750D01*
X0039250Y0023000D02*
Y0023500D01*
X0038750Y0023000D02*
X0039250D01*
Y0023500D02*
X0038750Y0023000D01*
X0039250D02*
X0038750Y0023500D01*
X0037750Y0022500D02*
Y0022000D01*
X0038250Y0022500D02*
X0037750D01*
X0038250Y0022000D02*
Y0022500D01*
X0037750Y0022000D02*
X0038250D01*
Y0022500D02*
X0037750Y0022000D01*
X0038250D02*
X0037750Y0022500D01*
X0038750D02*
Y0022000D01*
X0039250Y0022500D02*
X0038750D01*
X0039250Y0022000D02*
Y0022500D01*
X0038750Y0022000D02*
X0039250D01*
Y0022500D02*
X0038750Y0022000D01*
X0039250D02*
X0038750Y0022500D01*
X0003000Y0016150D02*
X0002750Y0015900D01*
X0003250D02*
X0003000Y0016150D01*
X0002750Y0015900D02*
X0003250D01*
X0003000Y0017528D02*
X0002750Y0017278D01*
X0003250D02*
X0003000Y0017528D01*
X0002750Y0017278D02*
X0003250D01*
X0002989Y0050911D02*
X0002739Y0050661D01*
X0003239D02*
X0002989Y0050911D01*
X0002739Y0050661D02*
X0003239D01*
X0002989Y0052289D02*
X0002739Y0052039D01*
X0003239D02*
X0002989Y0052289D01*
X0002739Y0052039D02*
X0003239D01*
X0005050Y0052450D02*
Y0051950D01*
X0005550Y0052450D02*
X0005050D01*
X0005550Y0051950D02*
Y0052450D01*
X0005050Y0051950D02*
X0005550D01*
Y0052450D02*
X0005050Y0051950D01*
X0005550D02*
X0005050Y0052450D01*
X0006050D02*
Y0051950D01*
X0006550Y0052450D02*
X0006050D01*
X0006550Y0051950D02*
Y0052450D01*
X0006050Y0051950D02*
X0006550D01*
Y0052450D02*
X0006050Y0051950D01*
X0006550D02*
X0006050Y0052450D01*
X0009050Y0051700D02*
Y0051200D01*
X0009550Y0051700D02*
X0009050D01*
X0009550Y0051200D02*
Y0051700D01*
X0009050Y0051200D02*
X0009550D01*
Y0051450D02*
X0009050D01*
X0009300Y0051700D02*
Y0051200D01*
X0007650Y0049700D02*
Y0049200D01*
X0008150Y0049700D02*
X0007650D01*
X0008150Y0049200D02*
Y0049700D01*
X0007650Y0049200D02*
X0008150D01*
Y0049450D02*
X0007650D01*
X0007900Y0049700D02*
Y0049200D01*
X0038000Y0014250D02*
Y0013750D01*
X0038500Y0014250D02*
X0038000D01*
X0038500Y0013750D02*
Y0014250D01*
X0038000Y0013750D02*
X0038500D01*
Y0014000D02*
X0038000D01*
X0038250Y0014250D02*
Y0013750D01*
X0038000Y0015250D02*
Y0014750D01*
X0038500Y0015250D02*
X0038000D01*
X0038500Y0014750D02*
Y0015250D01*
X0038000Y0014750D02*
X0038500D01*
Y0015000D02*
X0038000D01*
X0038250Y0015250D02*
Y0014750D01*
X0038000Y0011750D02*
Y0011250D01*
X0038500Y0011750D02*
X0038000D01*
X0038500Y0011250D02*
Y0011750D01*
X0038000Y0011250D02*
X0038500D01*
Y0011500D02*
X0038000D01*
X0038250Y0011750D02*
Y0011250D01*
X0038000Y0012750D02*
Y0012250D01*
X0038500Y0012750D02*
X0038000D01*
X0038500Y0012250D02*
Y0012750D01*
X0038000Y0012250D02*
X0038500D01*
Y0012500D02*
X0038000D01*
X0038250Y0012750D02*
Y0012250D01*
X0038000Y0016750D02*
Y0016250D01*
X0038500Y0016750D02*
X0038000D01*
X0038500Y0016250D02*
Y0016750D01*
X0038000Y0016250D02*
X0038500D01*
Y0016500D02*
X0038000D01*
X0038250Y0016750D02*
Y0016250D01*
X0038000Y0017750D02*
Y0017250D01*
X0038500Y0017750D02*
X0038000D01*
X0038500Y0017250D02*
Y0017750D01*
X0038000Y0017250D02*
X0038500D01*
Y0017500D02*
X0038000D01*
X0038250Y0017750D02*
Y0017250D01*
X0038000Y0020250D02*
Y0019750D01*
X0038500Y0020250D02*
X0038000D01*
X0038500Y0019750D02*
Y0020250D01*
X0038000Y0019750D02*
X0038500D01*
Y0020000D02*
X0038000D01*
X0038250Y0020250D02*
Y0019750D01*
X0038000Y0019250D02*
Y0018750D01*
X0038500Y0019250D02*
X0038000D01*
X0038500Y0018750D02*
Y0019250D01*
X0038000Y0018750D02*
X0038500D01*
Y0019000D02*
X0038000D01*
X0038250Y0019250D02*
Y0018750D01*
X0014500Y0027500D02*
X0014000Y0027000D01*
X0014500D02*
X0014000Y0027500D01*
X0013500D02*
X0013000Y0027000D01*
X0013500D02*
X0013000Y0027500D01*
X0011930Y0039550D02*
X0011430Y0039050D01*
X0011930D02*
X0011430Y0039550D01*
X0013180D02*
X0012680Y0039050D01*
X0013180D02*
X0012680Y0039550D01*
X0009525Y0042355D02*
X0009025Y0041855D01*
X0009525D02*
X0009025Y0042355D01*
X0010775D02*
X0010275Y0041855D01*
X0010775D02*
X0010275Y0042355D01*
G54D63*
G01X0000000Y0000000D02*
Y0056000D01*
X0041000D01*
Y0000000D01*
X0000000D01*
M02*
