*
G04 Mass Parameters ***
*
G04 Image ***
*
%INC:\SRC\BSM-2\SCHEMATICS\BSM-2.SST*%
%ICAS*%
%MOIN*%
%IPPOS*%
%ASAXBY*%
G74*%FSLAN2X34Y34*%
*
G04 Aperture Definitions ***
*
%ADD10R,0.0500X0.0500*%
%ADD11C,0.0520*%
%ADD12R,0.0520X0.0520*%
%ADD13R,0.0320X0.0380*%
%ADD14R,0.0600X0.0600*%
%ADD15R,0.0740X0.0480*%
%ADD16C,0.0570*%
%ADD17R,0.0570X0.0570*%
%ADD18R,0.0900X0.1000*%
%ADD19C,0.0740*%
%ADD20C,0.0580*%
%ADD21R,0.0580X0.0580*%
%ADD22C,0.0748*%
%ADD23R,0.0748X0.0748*%
%ADD24R,0.1968X0.1575*%
%ADD25R,0.0720X0.0780*%
%ADD26R,0.0780X0.0720*%
%ADD27R,0.0500X0.0340*%
%ADD28R,0.0400X0.0340*%
%ADD29R,0.0340X0.0500*%
%ADD30R,0.0340X0.0400*%
%ADD31R,0.0640X0.1000*%
%ADD32C,0.2362*%
%ADD33R,0.0600X0.0700*%
%ADD34O,0.0860X0.0240*%
%ADD35R,0.0860X0.0240*%
%ADD36O,0.0110X0.0700*%
%ADD37R,0.0110X0.0700*%
%ADD38O,0.0700X0.0110*%
%ADD39R,0.0700X0.0110*%
%ADD40R,0.1181X0.0984*%
%ADD41C,0.0680*%
%ADD42C,0.0840*%
%ADD43R,0.0984X0.0275*%
%ADD44R,0.1378X0.0275*%
%ADD45R,0.1496X0.0433*%
%ADD46O,0.0250X0.0940*%
%ADD47R,0.0250X0.0940*%
%ADD48C,0.1470*%
%ADD49R,0.0750X0.0750*%
%ADD50C,0.0750*%
%ADD51O,0.0940X0.0250*%
%ADD52R,0.0940X0.0250*%
%ADD53R,0.0950X0.1220*%
%ADD54R,0.0750X0.0240*%
%ADD55R,0.0550X0.0550*%
%ADD56C,0.0550*%
%ADD57R,0.0177X0.0701*%
%ADD58O,0.0787X0.0118*%
%ADD59O,0.0118X0.0787*%
%ADD60R,0.2165X0.0787*%
%ADD61C,0.0280*%
%ADD62C,0.0100*%
%ADD63C,0.0080*%
%ADD64C,0.0010*%
%ADD65C,0.0120*%
%ADD66C,0.0375*%
%ADD67C,0.0280*%
%ADD68C,0.0280*%
%ADD69C,0.0500*%
%ADD70C,0.0520*%
%ADD71R,0.0520X0.0520*%
%ADD72C,0.0570*%
%ADD73R,0.0570X0.0570*%
%ADD74C,0.0740*%
%ADD75C,0.0580*%
%ADD76R,0.0580X0.0580*%
%ADD77C,0.0748*%
%ADD78R,0.0748X0.0748*%
%ADD79R,0.0500X0.0670*%
%ADD80C,0.2362*%
%ADD81C,0.0680*%
%ADD82C,0.0840*%
%ADD83C,0.1470*%
%ADD84R,0.0750X0.0750*%
%ADD85C,0.0750*%
%ADD86R,0.0550X0.0550*%
%ADD87C,0.0550*%
%ADD88C,0.0280*%
%ADD89C,0.0280*%
%ADD90R,0.0500X0.0500*%
%ADD91R,0.0320X0.0380*%
%ADD92R,0.0600X0.0600*%
%ADD93R,0.0740X0.0480*%
%ADD94R,0.0680X0.0680*%
%ADD95R,0.0900X0.1000*%
%ADD96C,0.0866*%
%ADD97R,0.0866X0.0866*%
%ADD98R,0.1968X0.1575*%
%ADD99R,0.0720X0.0780*%
%ADD100R,0.0780X0.0720*%
%ADD101R,0.0500X0.0340*%
%ADD102R,0.0400X0.0340*%
%ADD103R,0.0340X0.0500*%
%ADD104R,0.0340X0.0400*%
%ADD105R,0.0640X0.1000*%
%ADD106R,0.0600X0.0700*%
%ADD107O,0.0860X0.0240*%
%ADD108R,0.0860X0.0240*%
%ADD109O,0.0110X0.0700*%
%ADD110R,0.0110X0.0700*%
%ADD111O,0.0700X0.0110*%
%ADD112R,0.0700X0.0110*%
%ADD113R,0.1181X0.0984*%
%ADD114R,0.0984X0.0275*%
%ADD115R,0.1378X0.0275*%
%ADD116R,0.1496X0.0433*%
%ADD117O,0.0250X0.0940*%
%ADD118R,0.0250X0.0940*%
%ADD119O,0.0940X0.0250*%
%ADD120R,0.0940X0.0250*%
%ADD121R,0.0950X0.1220*%
%ADD122R,0.0750X0.0240*%
%ADD123C,0.2450*%
%ADD124R,0.0177X0.0701*%
%ADD125O,0.0787X0.0118*%
%ADD126O,0.0118X0.0787*%
%ADD127R,0.2165X0.0787*%
%ADD128C,0.0160*%
%ADD129C,0.0160*%
%ADD130C,0.0160*%
%ADD131C,0.0079*%
%ADD132C,0.0031*%
%ADD133C,0.0060*%
%ADD134C,0.0118*%
%ADD135C,0.0040*%
%ADD136C,0.0157*%
%ADD137C,0.0039*%
%ADD138C,0.0150*%
*
G04 Plot Data ***
*
G54D62*
G01X0018243Y0027121D02*
Y0027176D01*
X0018187D01*
Y0027121D01*
X0018243D01*
X0020908Y0016233D02*
Y0015833D01*
X0020775D02*
X0021042D01*
X0021342Y0016033D02*
X0021542D01*
X0021275Y0016233D02*
X0021542D01*
Y0015833D01*
X0021275D01*
X0021775Y0015900D02*
X0021808Y0015833D01*
X0022008D01*
X0022042Y0015900D01*
Y0015967D01*
X0022008Y0016033D01*
X0021808D01*
X0021775Y0016100D01*
Y0016167D01*
X0021808Y0016233D01*
X0022008D01*
X0022042Y0016167D01*
X0022342Y0016033D02*
X0022542D01*
X0022275Y0016233D02*
X0022542D01*
Y0015833D01*
X0022275D01*
X0022875Y0016033D02*
X0022775Y0016233D01*
X0023042Y0016033D02*
X0022842D01*
X0022775Y0015967D01*
Y0015900D01*
X0022842Y0015833D01*
X0023042D01*
Y0016233D01*
X0004888Y0014115D02*
X0004666D01*
X0004888Y0014337D01*
Y0014393D01*
X0004860Y0014448D01*
X0004694D01*
X0004666Y0014393D01*
X0004438Y0014115D02*
X0004327D01*
X0004382D02*
Y0014448D01*
X0004327Y0014393D01*
X0003849Y0014226D02*
Y0014170D01*
X0003877Y0014115D01*
X0003988D01*
X0004016Y0014170D01*
Y0014448D01*
X0004044D02*
X0003933D01*
X0040433Y0009367D02*
X0040033D01*
Y0009500D02*
Y0009233D01*
X0040233Y0008900D02*
X0040433Y0009000D01*
X0040233Y0008733D02*
Y0008933D01*
X0040167Y0009000D01*
X0040100D01*
X0040033Y0008933D01*
Y0008733D01*
X0040433D01*
X0040300Y0008500D02*
Y0008233D01*
X0040433Y0008500D02*
X0040233D01*
X0040033Y0008400D01*
Y0008333D01*
X0040233Y0008233D01*
X0040433D01*
Y0007867D02*
X0040033D01*
Y0008000D02*
Y0007733D01*
X0040100Y0007500D02*
X0040033Y0007467D01*
Y0007267D01*
X0040100Y0007233D01*
X0040167D01*
X0040233Y0007267D01*
Y0007467D01*
X0040300Y0007500D01*
X0040367D01*
X0040433Y0007467D01*
Y0007267D01*
X0040367Y0007233D01*
X0006972Y0052908D02*
X0006861D01*
X0006916D02*
Y0053241D01*
X0006861Y0053185D01*
X0006383Y0053019D02*
Y0052963D01*
X0006411Y0052908D01*
X0006522D01*
X0006550Y0052963D01*
Y0053241D01*
X0006578D02*
X0006467D01*
X0004916Y0002995D02*
X0004971Y0002940D01*
X0005082D01*
X0005138Y0002995D01*
Y0003051D01*
X0005027Y0003162D01*
X0005138Y0003273D01*
X0004916D01*
X0004688Y0002940D02*
X0004577D01*
X0004632D02*
Y0003273D01*
X0004577Y0003218D01*
X0004099Y0003051D02*
Y0002995D01*
X0004127Y0002940D01*
X0004238D01*
X0004266Y0002995D01*
Y0003273D01*
X0004294D02*
X0004183D01*
X0019310Y0003749D02*
X0019255Y0003694D01*
X0019199Y0003666D01*
X0019088D01*
X0019032Y0003694D01*
X0018977Y0003749D01*
Y0003805D01*
X0019032Y0003860D01*
X0019088Y0003888D01*
X0019199D01*
X0019255Y0003860D01*
X0019310Y0003805D01*
Y0003749D01*
Y0003438D02*
Y0003327D01*
Y0003382D02*
X0018977D01*
X0019032Y0003327D01*
X0019199Y0002849D02*
X0019255D01*
X0019310Y0002877D01*
Y0002988D01*
X0019255Y0003016D01*
X0018977D01*
Y0003044D02*
Y0002933D01*
X0004271Y0020120D02*
X0004299Y0020065D01*
X0004466D01*
X0004494Y0020120D01*
Y0020231D01*
X0004438Y0020287D01*
X0004271D01*
Y0020398D01*
X0004494D01*
X0003849Y0020176D02*
Y0020120D01*
X0003877Y0020065D01*
X0003988D01*
X0004016Y0020120D01*
Y0020398D01*
X0004044D02*
X0003933D01*
X0004271Y0018620D02*
X0004327Y0018565D01*
X0004438D01*
X0004494Y0018620D01*
Y0018676D01*
X0004382Y0018787D01*
X0004494Y0018898D01*
X0004271D01*
X0003849Y0018676D02*
Y0018620D01*
X0003877Y0018565D01*
X0003988D01*
X0004016Y0018620D01*
Y0018898D01*
X0004044D02*
X0003933D01*
X0004832Y0037315D02*
X0004721D01*
X0004777D02*
Y0037648D01*
X0004721Y0037593D01*
X0004438Y0037315D02*
X0004327D01*
X0004382D02*
Y0037648D01*
X0004327Y0037593D01*
X0003849Y0037426D02*
Y0037370D01*
X0003877Y0037315D01*
X0003988D01*
X0004016Y0037370D01*
Y0037648D01*
X0004044D02*
X0003933D01*
X0004327Y0025315D02*
X0004494Y0025648D01*
X0004271D01*
X0003849Y0025426D02*
Y0025370D01*
X0003877Y0025315D01*
X0003988D01*
X0004016Y0025370D01*
Y0025648D01*
X0004044D02*
X0003933D01*
X0004608Y0052951D02*
X0004385D01*
X0004608Y0053173D01*
Y0053229D01*
X0004580Y0053284D01*
X0004413D01*
X0004385Y0053229D01*
X0003963Y0053062D02*
Y0053006D01*
X0003991Y0052951D01*
X0004102D01*
X0004130Y0053006D01*
Y0053284D01*
X0004158D02*
X0004047D01*
X0004299Y0030481D02*
X0004466D01*
X0004494Y0030426D01*
Y0030370D01*
X0004466Y0030315D01*
X0004299D01*
X0004271Y0030370D01*
Y0030426D01*
X0004382Y0030648D01*
X0003849Y0030426D02*
Y0030370D01*
X0003877Y0030315D01*
X0003988D01*
X0004016Y0030370D01*
Y0030648D01*
X0004044D02*
X0003933D01*
X0007143Y0003341D02*
X0007088Y0003369D01*
X0007032D01*
X0006977Y0003341D01*
Y0003174D01*
X0007032Y0003146D01*
X0007088D01*
X0007143Y0003174D01*
Y0003341D01*
X0007199Y0003369D01*
X0007255D01*
X0007310Y0003341D01*
Y0003174D01*
X0007255Y0003146D01*
X0007199D01*
X0007143Y0003174D01*
X0007199Y0002724D02*
X0007255D01*
X0007310Y0002752D01*
Y0002863D01*
X0007255Y0002891D01*
X0006977D01*
Y0002919D02*
Y0002808D01*
X0030650Y0004930D02*
Y0000380D01*
X0028650D01*
Y0004930D01*
X0030650D01*
X0009559Y0054314D02*
X0009539Y0054313D01*
X0009519Y0054311D01*
X0009511Y0054309D01*
X0009501Y0054308D01*
X0009493Y0054305D01*
X0009483Y0054302D01*
X0009475Y0054299D01*
X0009466Y0054296D01*
X0009450Y0054288D01*
X0009442Y0054283D01*
X0009434Y0054278D01*
X0009420Y0054267D01*
X0009405Y0054255D01*
X0009399Y0054249D01*
X0009392Y0054242D01*
X0009386Y0054234D01*
X0009380Y0054227D01*
X0009368Y0054210D01*
X0009357Y0054192D01*
X0009352Y0054182D01*
X0009347Y0054172D01*
X0009337Y0054151D01*
X0009329Y0054129D01*
X0009341Y0054124D01*
X0009354Y0054119D01*
X0009368Y0054116D01*
X0009381Y0054113D01*
X0009396Y0054111D01*
X0009411Y0054108D01*
X0009427Y0054107D01*
X0009443D01*
X0009467Y0054108D01*
X0009490Y0054110D01*
X0009512Y0054112D01*
X0009533Y0054116D01*
X0009542Y0054118D01*
X0009552Y0054121D01*
X0009570Y0054125D01*
X0009589Y0054132D01*
X0009604Y0054140D01*
X0009619Y0054149D01*
X0009626Y0054154D01*
X0009632Y0054158D01*
X0009638Y0054163D01*
X0009643Y0054168D01*
X0009648Y0054174D01*
X0009652Y0054179D01*
X0009655Y0054185D01*
X0009659Y0054192D01*
X0009661Y0054199D01*
X0009664Y0054205D01*
X0009665Y0054212D01*
X0009666Y0054220D01*
X0009667Y0054227D01*
Y0054234D01*
Y0054244D01*
X0009666Y0054253D01*
X0009664Y0054261D01*
X0009661Y0054270D01*
X0009656Y0054276D01*
X0009653Y0054283D01*
X0009647Y0054288D01*
X0009644Y0054292D01*
X0009641Y0054294D01*
X0009633Y0054299D01*
X0009625Y0054303D01*
X0009616Y0054307D01*
X0009607Y0054309D01*
X0009596Y0054311D01*
X0009585Y0054313D01*
X0009573Y0054314D01*
X0009559D01*
X0009566Y0054417D01*
X0009590Y0054415D01*
X0009602D01*
X0009613Y0054414D01*
X0009636Y0054411D01*
X0009646Y0054408D01*
X0009656Y0054406D01*
X0009676Y0054400D01*
X0009686Y0054396D01*
X0009694Y0054392D01*
X0009711Y0054382D01*
X0009720Y0054377D01*
X0009727Y0054373D01*
X0009734Y0054366D01*
X0009741Y0054362D01*
X0009747Y0054355D01*
X0009754Y0054348D01*
X0009758Y0054342D01*
X0009764Y0054335D01*
X0009768Y0054327D01*
X0009773Y0054320D01*
X0009775Y0054311D01*
X0009779Y0054304D01*
X0009784Y0054286D01*
X0009786Y0054267D01*
X0009787Y0054257D01*
Y0054248D01*
Y0054234D01*
X0009786Y0054221D01*
X0009784Y0054207D01*
X0009781Y0054195D01*
X0009778Y0054183D01*
X0009774Y0054171D01*
X0009769Y0054158D01*
X0009764Y0054147D01*
X0009757Y0054136D01*
X0009751Y0054127D01*
X0009743Y0054116D01*
X0009734Y0054106D01*
X0009726Y0054097D01*
X0009716Y0054087D01*
X0009705Y0054079D01*
X0009693Y0054070D01*
X0009682Y0054063D01*
X0009669Y0054056D01*
X0009656Y0054048D01*
X0009643Y0054042D01*
X0009631Y0054036D01*
X0009616Y0054031D01*
X0009603Y0054026D01*
X0009589Y0054023D01*
X0009574Y0054019D01*
X0009559Y0054015D01*
X0009544Y0054013D01*
X0009528Y0054010D01*
X0009512Y0054008D01*
X0009496Y0054007D01*
X0009462Y0054006D01*
X0009441Y0054007D01*
X0009419Y0054008D01*
X0009408Y0054009D01*
X0009398Y0054010D01*
X0009379Y0054014D01*
X0009359Y0054019D01*
X0009341Y0054025D01*
X0009324Y0054032D01*
X0009316Y0054036D01*
X0009308Y0054041D01*
X0009306Y0054025D01*
X0009303Y0054010D01*
X0009302Y0053996D01*
Y0053981D01*
X0009303Y0053960D01*
X0009306Y0053941D01*
X0009307Y0053932D01*
X0009310Y0053924D01*
X0009314Y0053906D01*
X0009317Y0053898D01*
X0009320Y0053891D01*
X0009324Y0053883D01*
X0009329Y0053876D01*
X0009334Y0053869D01*
X0009339Y0053862D01*
X0009344Y0053856D01*
X0009350Y0053850D01*
X0009356Y0053845D01*
X0009362Y0053840D01*
X0009368Y0053836D01*
X0009375Y0053831D01*
X0009390Y0053822D01*
X0009398Y0053820D01*
X0009405Y0053816D01*
X0009414Y0053814D01*
X0009422Y0053811D01*
X0009432Y0053810D01*
X0009441Y0053807D01*
X0009460Y0053805D01*
X0009471D01*
X0009481D01*
X0009500Y0053806D01*
X0009518Y0053809D01*
X0009537Y0053812D01*
X0009547Y0053816D01*
X0009556Y0053818D01*
X0009566Y0053822D01*
X0009575Y0053827D01*
X0009585Y0053832D01*
X0009595Y0053837D01*
X0009613Y0053848D01*
X0009632Y0053861D01*
X0009620Y0053736D01*
X0009595Y0053728D01*
X0009570Y0053722D01*
X0009546Y0053716D01*
X0009523Y0053711D01*
X0009501Y0053707D01*
X0009481Y0053705D01*
X0009460Y0053702D01*
X0009439D01*
X0009424D01*
X0009408Y0053703D01*
X0009392Y0053705D01*
X0009377Y0053707D01*
X0009363Y0053710D01*
X0009350Y0053713D01*
X0009336Y0053717D01*
X0009324Y0053721D01*
X0009312Y0053725D01*
X0009300Y0053732D01*
X0009289Y0053737D01*
X0009279Y0053744D01*
X0009268Y0053751D01*
X0009260Y0053760D01*
X0009250Y0053768D01*
X0009242Y0053777D01*
X0009234Y0053787D01*
X0009226Y0053796D01*
X0009220Y0053807D01*
X0009212Y0053818D01*
X0009206Y0053831D01*
X0009202Y0053843D01*
X0009192Y0053870D01*
X0009188Y0053884D01*
X0009185Y0053899D01*
X0009182Y0053915D01*
X0009180Y0053931D01*
X0009179Y0053947D01*
X0009177Y0053964D01*
X0009176Y0053982D01*
Y0054001D01*
Y0054023D01*
X0009177Y0054044D01*
X0009180Y0054064D01*
X0009183Y0054085D01*
X0009187Y0054105D01*
X0009192Y0054124D01*
X0009197Y0054144D01*
X0009204Y0054162D01*
X0009211Y0054181D01*
X0009219Y0054197D01*
X0009228Y0054216D01*
X0009233Y0054225D01*
X0009238Y0054233D01*
X0009249Y0054249D01*
X0009261Y0054265D01*
X0009273Y0054281D01*
X0009286Y0054297D01*
X0009301Y0054310D01*
X0009316Y0054325D01*
X0009330Y0054337D01*
X0009346Y0054349D01*
X0009362Y0054359D01*
X0009377Y0054369D01*
X0009394Y0054379D01*
X0009411Y0054386D01*
X0009430Y0054393D01*
X0009448Y0054400D01*
X0009466Y0054404D01*
X0009485Y0054409D01*
X0009505Y0054412D01*
X0009524Y0054414D01*
X0009545Y0054415D01*
X0009566Y0054417D01*
X0010678Y0054314D02*
X0010657Y0054313D01*
X0010638Y0054311D01*
X0010628Y0054309D01*
X0010620Y0054308D01*
X0010610Y0054305D01*
X0010602Y0054302D01*
X0010593Y0054299D01*
X0010585Y0054296D01*
X0010567Y0054288D01*
X0010560Y0054283D01*
X0010552Y0054278D01*
X0010537Y0054267D01*
X0010524Y0054255D01*
X0010517Y0054249D01*
X0010511Y0054242D01*
X0010504Y0054234D01*
X0010498Y0054227D01*
X0010486Y0054210D01*
X0010475Y0054192D01*
X0010470Y0054182D01*
X0010464Y0054172D01*
X0010456Y0054151D01*
X0010447Y0054129D01*
X0010460Y0054124D01*
X0010472Y0054119D01*
X0010485Y0054116D01*
X0010500Y0054113D01*
X0010514Y0054111D01*
X0010529Y0054108D01*
X0010544Y0054107D01*
X0010560D01*
X0010585Y0054108D01*
X0010607Y0054110D01*
X0010629Y0054112D01*
X0010650Y0054116D01*
X0010661Y0054118D01*
X0010671Y0054121D01*
X0010689Y0054125D01*
X0010706Y0054132D01*
X0010723Y0054140D01*
X0010737Y0054149D01*
X0010743Y0054154D01*
X0010750Y0054158D01*
X0010756Y0054163D01*
X0010760Y0054168D01*
X0010765Y0054174D01*
X0010770Y0054179D01*
X0010774Y0054185D01*
X0010776Y0054192D01*
X0010779Y0054199D01*
X0010781Y0054205D01*
X0010783Y0054212D01*
X0010785Y0054220D01*
Y0054227D01*
X0010786Y0054234D01*
X0010785Y0054244D01*
X0010783Y0054253D01*
X0010781Y0054261D01*
X0010779Y0054270D01*
X0010775Y0054276D01*
X0010770Y0054283D01*
X0010764Y0054288D01*
X0010762Y0054292D01*
X0010758Y0054294D01*
X0010751Y0054299D01*
X0010743Y0054303D01*
X0010734Y0054307D01*
X0010724Y0054309D01*
X0010714Y0054311D01*
X0010702Y0054313D01*
X0010690Y0054314D01*
X0010678D01*
X0010683Y0054417D01*
X0010708Y0054415D01*
X0010719D01*
X0010731Y0054414D01*
X0010753Y0054411D01*
X0010764Y0054408D01*
X0010774Y0054406D01*
X0010793Y0054400D01*
X0010803Y0054396D01*
X0010813Y0054392D01*
X0010830Y0054382D01*
X0010837Y0054377D01*
X0010845Y0054373D01*
X0010853Y0054366D01*
X0010859Y0054362D01*
X0010866Y0054355D01*
X0010871Y0054348D01*
X0010877Y0054342D01*
X0010882Y0054335D01*
X0010887Y0054327D01*
X0010890Y0054320D01*
X0010894Y0054311D01*
X0010896Y0054304D01*
X0010901Y0054286D01*
X0010905Y0054267D01*
Y0054257D01*
Y0054248D01*
Y0054234D01*
X0010904Y0054221D01*
X0010902Y0054207D01*
X0010900Y0054195D01*
X0010896Y0054183D01*
X0010893Y0054171D01*
X0010888Y0054158D01*
X0010882Y0054147D01*
X0010876Y0054136D01*
X0010868Y0054127D01*
X0010861Y0054116D01*
X0010853Y0054106D01*
X0010843Y0054097D01*
X0010833Y0054087D01*
X0010822Y0054079D01*
X0010811Y0054070D01*
X0010799Y0054063D01*
X0010787Y0054056D01*
X0010775Y0054048D01*
X0010762Y0054042D01*
X0010748Y0054036D01*
X0010735Y0054031D01*
X0010720Y0054026D01*
X0010707Y0054023D01*
X0010691Y0054019D01*
X0010677Y0054015D01*
X0010662Y0054013D01*
X0010646Y0054010D01*
X0010631Y0054008D01*
X0010614Y0054007D01*
X0010581Y0054006D01*
X0010558Y0054007D01*
X0010536Y0054008D01*
X0010526Y0054009D01*
X0010515Y0054010D01*
X0010496Y0054014D01*
X0010477Y0054019D01*
X0010460Y0054025D01*
X0010443Y0054032D01*
X0010434Y0054036D01*
X0010426Y0054041D01*
X0010423Y0054025D01*
X0010422Y0054010D01*
X0010421Y0053996D01*
Y0053981D01*
Y0053960D01*
X0010423Y0053941D01*
X0010424Y0053932D01*
X0010427Y0053924D01*
X0010432Y0053906D01*
X0010435Y0053898D01*
X0010439Y0053891D01*
X0010443Y0053883D01*
X0010446Y0053876D01*
X0010451Y0053869D01*
X0010456Y0053862D01*
X0010462Y0053856D01*
X0010467Y0053850D01*
X0010473Y0053845D01*
X0010479Y0053840D01*
X0010486Y0053836D01*
X0010494Y0053831D01*
X0010508Y0053822D01*
X0010515Y0053820D01*
X0010524Y0053816D01*
X0010532Y0053814D01*
X0010541Y0053811D01*
X0010549Y0053810D01*
X0010559Y0053807D01*
X0010578Y0053805D01*
X0010588D01*
X0010599D01*
X0010617Y0053806D01*
X0010637Y0053809D01*
X0010655Y0053812D01*
X0010665Y0053816D01*
X0010674Y0053818D01*
X0010684Y0053822D01*
X0010692Y0053827D01*
X0010702Y0053832D01*
X0010712Y0053837D01*
X0010731Y0053848D01*
X0010751Y0053861D01*
X0010737Y0053736D01*
X0010712Y0053728D01*
X0010687Y0053722D01*
X0010665Y0053716D01*
X0010642Y0053711D01*
X0010620Y0053707D01*
X0010598Y0053705D01*
X0010577Y0053702D01*
X0010557D01*
X0010541D01*
X0010525Y0053703D01*
X0010511Y0053705D01*
X0010496Y0053707D01*
X0010481Y0053710D01*
X0010468Y0053713D01*
X0010455Y0053717D01*
X0010441Y0053721D01*
X0010429Y0053725D01*
X0010418Y0053732D01*
X0010407Y0053737D01*
X0010396Y0053744D01*
X0010387Y0053751D01*
X0010377Y0053760D01*
X0010369Y0053768D01*
X0010360Y0053777D01*
X0010352Y0053787D01*
X0010344Y0053796D01*
X0010337Y0053807D01*
X0010331Y0053818D01*
X0010325Y0053831D01*
X0010319Y0053843D01*
X0010310Y0053870D01*
X0010307Y0053884D01*
X0010303Y0053899D01*
X0010301Y0053915D01*
X0010298Y0053931D01*
X0010296Y0053947D01*
X0010295Y0053964D01*
X0010293Y0053982D01*
Y0054001D01*
X0010295Y0054023D01*
X0010296Y0054044D01*
X0010297Y0054064D01*
X0010301Y0054085D01*
X0010304Y0054105D01*
X0010309Y0054124D01*
X0010315Y0054144D01*
X0010321Y0054162D01*
X0010329Y0054181D01*
X0010337Y0054197D01*
X0010346Y0054216D01*
X0010350Y0054225D01*
X0010356Y0054233D01*
X0010367Y0054249D01*
X0010378Y0054265D01*
X0010390Y0054281D01*
X0010405Y0054297D01*
X0010418Y0054310D01*
X0010433Y0054325D01*
X0010447Y0054337D01*
X0010463Y0054349D01*
X0010479Y0054359D01*
X0010496Y0054369D01*
X0010512Y0054379D01*
X0010530Y0054386D01*
X0010547Y0054393D01*
X0010565Y0054400D01*
X0010583Y0054404D01*
X0010603Y0054409D01*
X0010622Y0054412D01*
X0010642Y0054414D01*
X0010662Y0054415D01*
X0010683Y0054417D01*
X0011425D02*
X0011439Y0054415D01*
X0011454Y0054414D01*
X0011474Y0054412D01*
X0011496Y0054407D01*
X0011460Y0054283D01*
X0011451Y0054291D01*
X0011441Y0054297D01*
X0011430Y0054302D01*
X0011419Y0054307D01*
X0011408Y0054309D01*
X0011396Y0054311D01*
X0011384Y0054314D01*
X0011372D01*
X0011355Y0054313D01*
X0011347Y0054311D01*
X0011339Y0054310D01*
X0011323Y0054305D01*
X0011309Y0054299D01*
X0011300Y0054294D01*
X0011293Y0054291D01*
X0011286Y0054286D01*
X0011278Y0054280D01*
X0011270Y0054274D01*
X0011263Y0054267D01*
X0011248Y0054254D01*
X0011241Y0054247D01*
X0011235Y0054238D01*
X0011227Y0054231D01*
X0011221Y0054222D01*
X0011210Y0054205D01*
X0011201Y0054188D01*
X0011192Y0054170D01*
X0011189Y0054160D01*
X0011185Y0054150D01*
X0011179Y0054130D01*
X0011177Y0054121D01*
X0011175Y0054110D01*
X0011105Y0053716D01*
X0010984D01*
X0011104Y0054403D01*
X0011225D01*
X0011207Y0054293D01*
X0011218Y0054308D01*
X0011229Y0054321D01*
X0011241Y0054335D01*
X0011253Y0054347D01*
X0011265Y0054358D01*
X0011278Y0054368D01*
X0011284Y0054373D01*
X0011292Y0054377D01*
X0011305Y0054386D01*
X0011320Y0054392D01*
X0011333Y0054400D01*
X0011347Y0054404D01*
X0011363Y0054408D01*
X0011378Y0054412D01*
X0011394Y0054414D01*
X0011409Y0054415D01*
X0011425Y0054417D01*
X0008533Y0054404D02*
X0008659D01*
X0008782Y0053931D01*
X0009040Y0054404D01*
X0009180D01*
X0008762Y0053702D01*
X0008731D01*
X0008533Y0054404D01*
X0007472Y0054313D02*
X0007458Y0054311D01*
X0007445Y0054309D01*
X0007432Y0054307D01*
X0007420Y0054303D01*
X0007406Y0054299D01*
X0007394Y0054294D01*
X0007383Y0054289D01*
X0007371Y0054283D01*
X0007360Y0054276D01*
X0007349Y0054269D01*
X0007338Y0054260D01*
X0007329Y0054251D01*
X0007317Y0054242D01*
X0007308Y0054232D01*
X0007299Y0054220D01*
X0007290Y0054209D01*
X0007281Y0054196D01*
X0007274Y0054184D01*
X0007267Y0054171D01*
X0007259Y0054157D01*
X0007253Y0054144D01*
X0007248Y0054129D01*
X0007244Y0054116D01*
X0007239Y0054100D01*
X0007235Y0054085D01*
X0007233Y0054069D01*
X0007229Y0054053D01*
X0007228Y0054036D01*
X0007227Y0054019D01*
X0007225Y0054002D01*
Y0053984D01*
Y0053962D01*
X0007227Y0053952D01*
Y0053942D01*
X0007230Y0053922D01*
X0007234Y0053904D01*
X0007239Y0053888D01*
X0007242Y0053881D01*
X0007246Y0053873D01*
X0007253Y0053860D01*
X0007257Y0053854D01*
X0007262Y0053848D01*
X0007272Y0053837D01*
X0007277Y0053832D01*
X0007282Y0053828D01*
X0007295Y0053820D01*
X0007302Y0053816D01*
X0007308Y0053814D01*
X0007315Y0053811D01*
X0007322Y0053809D01*
X0007331Y0053806D01*
X0007338Y0053805D01*
X0007355Y0053802D01*
X0007364D01*
X0007373D01*
X0007389Y0053804D01*
X0007398Y0053805D01*
X0007406Y0053806D01*
X0007413Y0053809D01*
X0007422Y0053811D01*
X0007438Y0053818D01*
X0007445Y0053823D01*
X0007453Y0053828D01*
X0007461Y0053833D01*
X0007468Y0053839D01*
X0007475Y0053847D01*
X0007483Y0053853D01*
X0007497Y0053869D01*
X0007512Y0053886D01*
X0007518Y0053895D01*
X0007524Y0053904D01*
X0007530Y0053914D01*
X0007536Y0053924D01*
X0007541Y0053935D01*
X0007546Y0053944D01*
X0007554Y0053967D01*
X0007561Y0053991D01*
X0007565Y0054002D01*
X0007567Y0054015D01*
X0007570Y0054027D01*
X0007572Y0054041D01*
X0007600Y0054212D01*
Y0054215D01*
Y0054217D01*
X0007597Y0054225D01*
X0007592Y0054236D01*
X0007583Y0054249D01*
X0007580Y0054256D01*
X0007575Y0054262D01*
X0007569Y0054269D01*
X0007564Y0054275D01*
X0007558Y0054281D01*
X0007553Y0054286D01*
X0007547Y0054291D01*
X0007540Y0054296D01*
X0007527Y0054303D01*
X0007520Y0054305D01*
X0007513Y0054308D01*
X0007507Y0054310D01*
X0007500Y0054311D01*
X0007485Y0054313D01*
X0007472D01*
X0014785Y0055074D02*
X0014690Y0054943D01*
X0014840Y0054970D01*
X0014764Y0054802D01*
X0016897Y0055164D02*
Y0055032D01*
X0016764Y0054900D02*
X0016765D01*
X0016633D01*
Y0055295D01*
X0016765D01*
X0016897Y0054242D02*
X0016370D01*
Y0055427D01*
X0016897D01*
Y0054242D02*
X0016765Y0054374D01*
X0016633D01*
Y0054768D01*
X0016765D01*
X0016897Y0054637D02*
Y0054505D01*
X0018213Y0054506D02*
X0018081D01*
X0017950Y0054374D02*
X0017818D01*
X0017686Y0054507D02*
Y0054505D01*
Y0054637D01*
X0018213D01*
Y0054900D01*
Y0054899D01*
X0017950Y0055164D02*
X0017686D01*
X0017688D01*
X0017423Y0054900D02*
Y0054505D01*
Y0054507D01*
X0017686Y0054242D02*
X0017950D01*
X0017686Y0054900D02*
Y0054769D01*
X0017950D01*
Y0054900D01*
X0018946Y0055416D02*
X0018419D01*
Y0054231D01*
X0018682D01*
Y0054757D01*
X0018814D01*
X0018946Y0054624D02*
Y0054625D01*
Y0054231D01*
X0019209D01*
Y0054697D01*
Y0054696D01*
X0019077Y0054829D02*
X0018946D01*
Y0055021D01*
Y0055153D01*
X0018814Y0055284D02*
X0018682D01*
Y0054889D01*
X0018814D01*
X0021051Y0055153D02*
Y0054494D01*
X0020786Y0054231D02*
X0020788D01*
X0020525D01*
X0020262Y0054496D02*
Y0054494D01*
Y0055153D01*
X0020526Y0055416D02*
X0020525D01*
X0020788D01*
Y0055153D02*
Y0054494D01*
X0020525Y0054495D02*
Y0054494D01*
Y0055153D01*
X0021973Y0055152D02*
X0021841D01*
X0021616Y0055059D02*
X0021896Y0054746D01*
X0021710Y0054231D02*
X0021578D01*
X0021314Y0054495D02*
X0021446D01*
X0021671Y0054588D02*
X0021392Y0054900D01*
X0021578Y0055416D02*
X0021710D01*
X0019341D02*
Y0055284D01*
X0019604D01*
Y0054231D01*
X0019867D01*
Y0055284D01*
X0020130D01*
Y0055416D01*
X0019341D01*
X0015724Y0053125D02*
X0013875D01*
X0015250Y0007500D02*
Y0007750D01*
X0038750Y0014000D02*
X0039000D01*
X0037750D02*
X0037500D01*
X0037750Y0020000D02*
X0037500D01*
X0038750D02*
X0039000D01*
X0038750Y0016500D02*
X0039000D01*
X0037750D02*
X0037500D01*
X0014250Y0047125D02*
X0015500D01*
X0006875Y0014500D02*
Y0013875D01*
X0007750D01*
X0007875Y0013750D01*
Y0011750D01*
X0006750Y0047875D02*
X0005500D01*
X0029528Y0032697D02*
X0029653D01*
Y0032572D01*
X0025653D02*
Y0032697D01*
X0025778D01*
Y0028697D02*
X0025653D01*
Y0028822D01*
X0029840Y0029009D02*
Y0029010D01*
X0030153D01*
X0029403Y0028697D02*
X0029527D01*
X0029528Y0028698D01*
X0029840Y0029010D01*
X0038750Y0011500D02*
X0039000D01*
X0037750D02*
X0037500D01*
X0014799Y0053320D02*
X0013973Y0053616D01*
X0015625D02*
X0014799Y0053320D01*
X0013669Y0053306D02*
X0013606Y0053448D01*
X0013468Y0053756D02*
X0013405Y0053898D01*
X0015897Y0054494D02*
X0015966Y0054365D01*
X0016121Y0054073D02*
X0016189Y0053943D01*
X0015609Y0053846D02*
X0015797Y0054028D01*
X0015776Y0054058D01*
X0015568Y0054046D01*
X0015625Y0053616D02*
X0013973D01*
X0013975Y0053679D01*
X0013856Y0053663D01*
X0013840Y0053716D01*
X0013997Y0053895D01*
X0008693Y0055184D02*
X0008767Y0055183D01*
X0008805D01*
X0008841Y0055181D01*
X0008914Y0055177D01*
X0008986Y0055174D01*
X0009056Y0055168D01*
X0009126Y0055162D01*
X0009162Y0055157D01*
X0009196Y0055153D01*
X0009263Y0055145D01*
X0009297Y0055140D01*
X0009330Y0055135D01*
X0009396Y0055123D01*
X0009460Y0055112D01*
X0009523Y0055098D01*
X0009585Y0055083D01*
X0009646Y0055069D01*
X0009705Y0055053D01*
X0009762Y0055036D01*
X0009818Y0055017D01*
X0009872Y0054999D01*
X0009925Y0054978D01*
X0009976Y0054959D01*
X0010025Y0054937D01*
X0010073Y0054915D01*
X0010096Y0054904D01*
X0010117Y0054893D01*
X0010161Y0054868D01*
X0010183Y0054856D01*
X0010204Y0054844D01*
X0010223Y0054831D01*
X0010242Y0054819D01*
X0010280Y0054793D01*
X0010298Y0054780D01*
X0010315Y0054767D01*
X0010332Y0054753D01*
X0010349Y0054740D01*
X0010380Y0054713D01*
X0010394Y0054698D01*
X0010409Y0054685D01*
X0010422Y0054670D01*
X0010434Y0054655D01*
X0010400Y0054672D01*
X0010364Y0054688D01*
X0010327Y0054704D01*
X0010289Y0054720D01*
X0010250Y0054735D01*
X0010210Y0054749D01*
X0010168Y0054764D01*
X0010126Y0054777D01*
X0010082Y0054791D01*
X0010037Y0054804D01*
X0009993Y0054817D01*
X0009945Y0054829D01*
X0009898Y0054840D01*
X0009849Y0054851D01*
X0009801Y0054862D01*
X0009751Y0054872D01*
X0009700Y0054880D01*
X0009648Y0054890D01*
X0009596Y0054897D01*
X0009542Y0054906D01*
X0009489Y0054913D01*
X0009434Y0054919D01*
X0009379Y0054926D01*
X0009323Y0054930D01*
X0009266Y0054935D01*
X0009209Y0054940D01*
X0009152Y0054944D01*
X0009094Y0054946D01*
X0009034Y0054949D01*
X0008975Y0054951D01*
X0008915D01*
X0008855Y0054953D01*
X0008804Y0054951D01*
X0008753D01*
X0008703Y0054950D01*
X0008652Y0054947D01*
X0008602Y0054946D01*
X0008553Y0054944D01*
X0008504Y0054940D01*
X0008456Y0054937D01*
X0008407Y0054933D01*
X0008360Y0054928D01*
X0008312Y0054923D01*
X0008265Y0054918D01*
X0008173Y0054906D01*
X0008128Y0054900D01*
X0008083Y0054894D01*
X0008039Y0054886D01*
X0007996Y0054878D01*
X0007952Y0054871D01*
X0007910Y0054862D01*
X0007827Y0054844D01*
X0007787Y0054834D01*
X0007747Y0054824D01*
X0007669Y0054803D01*
X0007631Y0054792D01*
X0007594Y0054781D01*
X0007558Y0054769D01*
X0007523Y0054758D01*
X0007487Y0054746D01*
X0007453Y0054732D01*
X0007420Y0054720D01*
X0007388Y0054707D01*
X0007356Y0054693D01*
X0007325Y0054680D01*
X0007296Y0054665D01*
X0007267Y0054652D01*
X0007239Y0054637D01*
X0007211Y0054622D01*
X0007185Y0054606D01*
X0007160Y0054592D01*
X0007136Y0054576D01*
X0007111Y0054560D01*
X0007090Y0054544D01*
X0007068Y0054528D01*
X0007048Y0054511D01*
X0007029Y0054495D01*
X0007011Y0054478D01*
X0006993Y0054461D01*
X0006977Y0054444D01*
X0006962Y0054426D01*
X0006947Y0054408D01*
X0006935Y0054391D01*
X0006923Y0054373D01*
X0006912Y0054354D01*
X0006904Y0054336D01*
X0006895Y0054317D01*
X0006888Y0054299D01*
X0006883Y0054280D01*
X0006878Y0054261D01*
X0006875Y0054242D01*
X0006874Y0054222D01*
X0006872Y0054204D01*
Y0054192D01*
X0006864Y0054212D01*
X0006855Y0054233D01*
X0006848Y0054255D01*
X0006845Y0054266D01*
X0006842Y0054277D01*
X0006837Y0054298D01*
X0006834Y0054320D01*
X0006832Y0054342D01*
X0006831Y0054364D01*
X0006832Y0054386D01*
X0006834Y0054407D01*
X0006837Y0054427D01*
X0006841Y0054448D01*
X0006846Y0054469D01*
X0006853Y0054489D01*
X0006860Y0054510D01*
X0006869Y0054529D01*
X0006878Y0054550D01*
X0006889Y0054570D01*
X0006902Y0054589D01*
X0006915Y0054607D01*
X0006929Y0054627D01*
X0006944Y0054645D01*
X0006961Y0054665D01*
X0006978Y0054683D01*
X0006996Y0054702D01*
X0007014Y0054720D01*
X0007035Y0054737D01*
X0007056Y0054754D01*
X0007079Y0054773D01*
X0007100Y0054789D01*
X0007125Y0054806D01*
X0007149Y0054823D01*
X0007174Y0054839D01*
X0007201Y0054855D01*
X0007229Y0054871D01*
X0007257Y0054885D01*
X0007285Y0054900D01*
X0007315Y0054915D01*
X0007346Y0054929D01*
X0007377Y0054944D01*
X0007441Y0054971D01*
X0007475Y0054983D01*
X0007509Y0054997D01*
X0007543Y0055009D01*
X0007580Y0055021D01*
X0007616Y0055032D01*
X0007652Y0055043D01*
X0007727Y0055065D01*
X0007766Y0055075D01*
X0007805Y0055085D01*
X0007845Y0055093D01*
X0007887Y0055103D01*
X0007927Y0055112D01*
X0007969Y0055119D01*
X0008010Y0055126D01*
X0008053Y0055134D01*
X0008096Y0055141D01*
X0008140Y0055147D01*
X0008184Y0055152D01*
X0008229Y0055158D01*
X0008274Y0055163D01*
X0008318Y0055167D01*
X0008363Y0055170D01*
X0008409Y0055174D01*
X0008457Y0055176D01*
X0008503Y0055179D01*
X0008550Y0055181D01*
X0008597Y0055183D01*
X0008693Y0055184D01*
X0007686Y0054685D02*
X0007803D01*
X0007637Y0053716D01*
X0007518D01*
X0007532Y0053795D01*
X0007523Y0053784D01*
X0007513Y0053773D01*
X0007502Y0053763D01*
X0007491Y0053755D01*
X0007480Y0053746D01*
X0007474Y0053743D01*
X0007469Y0053739D01*
X0007457Y0053733D01*
X0007445Y0053727D01*
X0007432Y0053721D01*
X0007418Y0053717D01*
X0007405Y0053712D01*
X0007390Y0053710D01*
X0007376Y0053707D01*
X0007361Y0053705D01*
X0007346Y0053703D01*
X0007330D01*
X0007303Y0053705D01*
X0007290Y0053706D01*
X0007277Y0053708D01*
X0007265Y0053711D01*
X0007253Y0053713D01*
X0007242Y0053717D01*
X0007231Y0053721D01*
X0007221Y0053725D01*
X0007211Y0053730D01*
X0007201Y0053736D01*
X0007191Y0053743D01*
X0007182Y0053749D01*
X0007173Y0053756D01*
X0007165Y0053763D01*
X0007156Y0053772D01*
X0007149Y0053780D01*
X0007142Y0053790D01*
X0007136Y0053799D01*
X0007130Y0053809D01*
X0007127Y0053815D01*
X0007124Y0053820D01*
X0007119Y0053831D01*
X0007114Y0053842D01*
X0007110Y0053853D01*
X0007107Y0053865D01*
X0007103Y0053877D01*
X0007100Y0053889D01*
X0007098Y0053902D01*
X0007097Y0053915D01*
X0007096Y0053930D01*
X0007094Y0053943D01*
Y0053958D01*
Y0053982D01*
X0007096Y0054007D01*
X0007098Y0054030D01*
X0007102Y0054053D01*
X0007105Y0054077D01*
X0007109Y0054099D01*
X0007115Y0054119D01*
X0007117Y0054130D01*
X0007121Y0054140D01*
X0007128Y0054161D01*
X0007136Y0054181D01*
X0007145Y0054200D01*
X0007155Y0054218D01*
X0007165Y0054237D01*
X0007176Y0054254D01*
X0007188Y0054271D01*
X0007201Y0054287D01*
X0007215Y0054303D01*
X0007229Y0054317D01*
X0007244Y0054331D01*
X0007258Y0054343D01*
X0007274Y0054354D01*
X0007290Y0054365D01*
X0007307Y0054375D01*
X0007322Y0054384D01*
X0007341Y0054391D01*
X0007349Y0054393D01*
X0007357Y0054397D01*
X0007376Y0054402D01*
X0007395Y0054407D01*
X0007415Y0054411D01*
X0007434Y0054413D01*
X0007455Y0054414D01*
X0007475Y0054415D01*
X0007486Y0054414D01*
X0007498D01*
X0007509Y0054412D01*
X0007520Y0054411D01*
X0007531Y0054407D01*
X0007541Y0054403D01*
X0007551Y0054400D01*
X0007560Y0054395D01*
X0007569Y0054390D01*
X0007578Y0054384D01*
X0007586Y0054376D01*
X0007591Y0054374D01*
X0007594Y0054369D01*
X0007601Y0054362D01*
X0007609Y0054353D01*
X0007616Y0054344D01*
X0007623Y0054335D01*
X0007686Y0054685D01*
X0010057D02*
X0010183D01*
X0010067Y0054100D01*
X0010051Y0054017D01*
X0010040Y0053951D01*
X0010035Y0053925D01*
X0010033Y0053903D01*
X0010031Y0053884D01*
X0010030Y0053871D01*
X0010031Y0053861D01*
Y0053853D01*
X0010034Y0053844D01*
X0010036Y0053837D01*
X0010040Y0053829D01*
X0010043Y0053822D01*
X0010048Y0053817D01*
X0010051Y0053814D01*
X0010053Y0053811D01*
X0010059Y0053807D01*
X0010067Y0053802D01*
X0010074Y0053799D01*
X0010082Y0053796D01*
X0010091Y0053794D01*
X0010100Y0053793D01*
X0010110Y0053791D01*
X0010122D01*
X0010108Y0053702D01*
X0010084Y0053703D01*
X0010071D01*
X0010059Y0053705D01*
X0010039Y0053707D01*
X0010028Y0053710D01*
X0010018Y0053712D01*
X0010008Y0053714D01*
X0010000Y0053717D01*
X0009983Y0053724D01*
X0009967Y0053732D01*
X0009954Y0053740D01*
X0009947Y0053745D01*
X0009942Y0053751D01*
X0009937Y0053756D01*
X0009932Y0053762D01*
X0009927Y0053768D01*
X0009923Y0053774D01*
X0009919Y0053782D01*
X0009916Y0053788D01*
X0009912Y0053795D01*
X0009910Y0053804D01*
X0009907Y0053811D01*
X0009906Y0053820D01*
X0009905Y0053828D01*
X0009904Y0053837D01*
X0009903Y0053845D01*
Y0053855D01*
Y0053869D01*
X0009905Y0053886D01*
X0009907Y0053905D01*
X0009911Y0053930D01*
X0009921Y0053988D01*
X0009927Y0054023D01*
X0009934Y0054061D01*
X0010057Y0054685D01*
X0008220Y0054314D02*
X0008200Y0054313D01*
X0008180Y0054311D01*
X0008170Y0054309D01*
X0008162Y0054308D01*
X0008152Y0054305D01*
X0008144Y0054302D01*
X0008135Y0054299D01*
X0008127Y0054296D01*
X0008111Y0054288D01*
X0008103Y0054283D01*
X0008095Y0054278D01*
X0008081Y0054267D01*
X0008066Y0054255D01*
X0008059Y0054249D01*
X0008053Y0054242D01*
X0008047Y0054234D01*
X0008041Y0054227D01*
X0008028Y0054210D01*
X0008017Y0054192D01*
X0008013Y0054182D01*
X0008008Y0054172D01*
X0007998Y0054151D01*
X0007990Y0054129D01*
X0008002Y0054124D01*
X0008015Y0054119D01*
X0008028Y0054116D01*
X0008042Y0054113D01*
X0008056Y0054111D01*
X0008071Y0054108D01*
X0008087Y0054107D01*
X0008104D01*
X0008127Y0054108D01*
X0008150Y0054110D01*
X0008173Y0054112D01*
X0008193Y0054116D01*
X0008203Y0054118D01*
X0008213Y0054121D01*
X0008231Y0054125D01*
X0008249Y0054132D01*
X0008265Y0054140D01*
X0008280Y0054149D01*
X0008287Y0054154D01*
X0008293Y0054158D01*
X0008298Y0054163D01*
X0008304Y0054168D01*
X0008307Y0054174D01*
X0008312Y0054179D01*
X0008316Y0054185D01*
X0008320Y0054192D01*
X0008322Y0054199D01*
X0008324Y0054205D01*
X0008326Y0054212D01*
X0008327Y0054220D01*
X0008328Y0054227D01*
Y0054234D01*
X0008327Y0054244D01*
X0008326Y0054253D01*
X0008324Y0054261D01*
X0008321Y0054270D01*
X0008317Y0054276D01*
X0008312Y0054283D01*
X0008307Y0054288D01*
X0008304Y0054292D01*
X0008301Y0054294D01*
X0008294Y0054299D01*
X0008286Y0054303D01*
X0008277Y0054307D01*
X0008267Y0054309D01*
X0008257Y0054311D01*
X0008246Y0054313D01*
X0008234Y0054314D01*
X0008220D01*
X0008226Y0054417D01*
X0008251Y0054415D01*
X0008263D01*
X0008274Y0054414D01*
X0008295Y0054411D01*
X0008306Y0054408D01*
X0008317Y0054406D01*
X0008337Y0054400D01*
X0008345Y0054396D01*
X0008355Y0054392D01*
X0008372Y0054382D01*
X0008380Y0054377D01*
X0008387Y0054373D01*
X0008395Y0054366D01*
X0008402Y0054362D01*
X0008408Y0054355D01*
X0008414Y0054348D01*
X0008419Y0054342D01*
X0008424Y0054335D01*
X0008429Y0054327D01*
X0008432Y0054320D01*
X0008436Y0054311D01*
X0008440Y0054304D01*
X0008445Y0054286D01*
X0008447Y0054267D01*
X0008448Y0054257D01*
Y0054248D01*
X0008447Y0054234D01*
Y0054221D01*
X0008445Y0054207D01*
X0008442Y0054195D01*
X0008439Y0054183D01*
X0008435Y0054171D01*
X0008430Y0054158D01*
X0008424Y0054147D01*
X0008418Y0054136D01*
X0008411Y0054127D01*
X0008403Y0054116D01*
X0008395Y0054106D01*
X0008386Y0054097D01*
X0008375Y0054087D01*
X0008366Y0054079D01*
X0008354Y0054070D01*
X0008341Y0054063D01*
X0008329Y0054056D01*
X0008317Y0054048D01*
X0008304Y0054042D01*
X0008291Y0054036D01*
X0008277Y0054031D01*
X0008264Y0054026D01*
X0008249Y0054023D01*
X0008235Y0054019D01*
X0008219Y0054015D01*
X0008204Y0054013D01*
X0008189Y0054010D01*
X0008173Y0054008D01*
X0008157Y0054007D01*
X0008140D01*
X0008123Y0054006D01*
X0008100Y0054007D01*
X0008079Y0054008D01*
X0008069Y0054009D01*
X0008059Y0054010D01*
X0008038Y0054014D01*
X0008020Y0054019D01*
X0008002Y0054025D01*
X0007985Y0054032D01*
X0007976Y0054036D01*
X0007969Y0054041D01*
X0007965Y0054025D01*
X0007964Y0054010D01*
X0007963Y0053996D01*
Y0053981D01*
Y0053960D01*
X0007965Y0053941D01*
X0007968Y0053932D01*
X0007969Y0053924D01*
X0007975Y0053906D01*
X0007977Y0053898D01*
X0007981Y0053891D01*
X0007985Y0053883D01*
X0007990Y0053876D01*
X0007993Y0053869D01*
X0007998Y0053862D01*
X0008004Y0053856D01*
X0008010Y0053850D01*
X0008016Y0053845D01*
X0008022Y0053840D01*
X0008028Y0053836D01*
X0008036Y0053831D01*
X0008050Y0053822D01*
X0008057Y0053820D01*
X0008066Y0053816D01*
X0008075Y0053814D01*
X0008083Y0053811D01*
X0008093Y0053810D01*
X0008101Y0053807D01*
X0008121Y0053805D01*
X0008130D01*
X0008141D01*
X0008161Y0053806D01*
X0008179Y0053809D01*
X0008198Y0053812D01*
X0008207Y0053816D01*
X0008217Y0053818D01*
X0008226Y0053822D01*
X0008236Y0053827D01*
X0008246Y0053832D01*
X0008254Y0053837D01*
X0008274Y0053848D01*
X0008293Y0053861D01*
X0008280Y0053736D01*
X0008255Y0053728D01*
X0008231Y0053722D01*
X0008207Y0053716D01*
X0008184Y0053711D01*
X0008162Y0053707D01*
X0008140Y0053705D01*
X0008119Y0053702D01*
X0008100D01*
X0008083D01*
X0008067Y0053703D01*
X0008053Y0053705D01*
X0008038Y0053707D01*
X0008024Y0053710D01*
X0008010Y0053713D01*
X0007997Y0053717D01*
X0007985Y0053721D01*
X0007973Y0053725D01*
X0007961Y0053732D01*
X0007950Y0053737D01*
X0007939Y0053744D01*
X0007929Y0053751D01*
X0007919Y0053760D01*
X0007911Y0053768D01*
X0007902Y0053777D01*
X0007894Y0053787D01*
X0007887Y0053796D01*
X0007879Y0053807D01*
X0007873Y0053818D01*
X0007867Y0053831D01*
X0007862Y0053843D01*
X0007853Y0053870D01*
X0007849Y0053884D01*
X0007845Y0053899D01*
X0007843Y0053915D01*
X0007840Y0053931D01*
X0007838Y0053947D01*
X0007837Y0053964D01*
Y0053982D01*
Y0054001D01*
Y0054023D01*
X0007838Y0054044D01*
X0007840Y0054064D01*
X0007843Y0054085D01*
X0007847Y0054105D01*
X0007851Y0054124D01*
X0007857Y0054144D01*
X0007864Y0054162D01*
X0007871Y0054181D01*
X0007879Y0054197D01*
X0007889Y0054216D01*
X0007894Y0054225D01*
X0007899Y0054233D01*
X0007910Y0054249D01*
X0007921Y0054265D01*
X0007934Y0054281D01*
X0007947Y0054297D01*
X0007961Y0054310D01*
X0007975Y0054325D01*
X0007991Y0054337D01*
X0008005Y0054349D01*
X0008021Y0054359D01*
X0008038Y0054369D01*
X0008055Y0054379D01*
X0008072Y0054386D01*
X0008089Y0054393D01*
X0008107Y0054400D01*
X0008127Y0054404D01*
X0008145Y0054409D01*
X0008164Y0054412D01*
X0008185Y0054414D01*
X0008204Y0054415D01*
X0008226Y0054417D01*
G01X0016764Y0054900D02*
G03X0016897Y0055032I0000000J0000133D01*
Y0055163D02*
G03X0016765Y0055295I0000133J0000000D01*
G01X0017187Y0055131D02*
G03X0016897Y0055427I0000297J0000000D01*
Y0054834D02*
G03X0017187Y0055131I0000007J0000297D01*
G01X0017161Y0054538D02*
G03X0016897Y0054834I0000297J0000000D01*
Y0054242D02*
G03X0017162Y0054538I0000033J0000296D01*
G01X0016776Y0054769D02*
G03X0016765Y0054768I0000000J0000121D01*
G01X0016897Y0054648D02*
G03X0016776Y0054769I0000121J0000000D01*
G01X0016897Y0054637D02*
G03X0016897Y0054648I0000121J0000011D01*
G01X0016764Y0054374D02*
G03X0016897Y0054505I0000000J0000133D01*
G01X0017936Y0054242D02*
G03X0017943Y0054242I0000007J0000270D01*
G03X0018213Y0054506I0000000J0000270D01*
G01X0018082Y0054496D02*
G03X0018081Y0054506I0000122J0000000D01*
G01X0017960Y0054374D02*
G03X0018082Y0054496I0000000J0000122D01*
G01X0017950Y0054374D02*
G03X0017960Y0054374I0000010J0000122D01*
G01X0017686Y0054507D02*
G03X0017818Y0054375I0000132J0000000D01*
G01X0018213Y0054899D02*
G03X0017950Y0055164I0000265J0000000D01*
G01X0017688D02*
G03X0017423Y0054900I0000000J0000265D01*
Y0054507D02*
G03X0017686Y0054242I0000264J0000000D01*
G01X0017950Y0054900D02*
G03X0017950Y0054902I0000131J0000002D01*
G03X0017819Y0055033I0000131J0000000D01*
G03X0017688Y0054902I0000000J0000131D01*
G03X0017688Y0054899I0000131J0000000D01*
G01X0018945Y0054829D02*
G03X0019238Y0055122I0000000J0000293D01*
G01X0019239D02*
G03X0018946Y0055416I0000294J0000000D01*
Y0054624D02*
G03X0018814Y0054757I0000133J0000000D01*
G01X0019209Y0054696D02*
G03X0019077Y0054829I0000133J0000000D01*
G01X0018946Y0055153D02*
G03X0018946Y0055158I0000125J0000005D01*
G03X0018821Y0055283I0000125J0000000D01*
Y0055284D02*
G03X0018814Y0055284I0000000J0000126D01*
Y0054889D02*
G03X0018946Y0055032I0000011J0000143D01*
G01X0018947D02*
G03X0018946Y0055042I0000144J0000000D01*
G01X0020786Y0054231D02*
G03X0021051Y0054494I0000000J0000265D01*
G01X0020262Y0054496D02*
G03X0020525Y0054231I0000264J0000000D01*
G01X0020526Y0055416D02*
G03X0020262Y0055153I0000000J0000265D01*
G01X0021051Y0055150D02*
G03X0020788Y0055416I0000265J0000000D01*
G01X0020657Y0054363D02*
G03X0020788Y0054494I0000000J0000132D01*
G01X0020525Y0054495D02*
G03X0020657Y0054363I0000132J0000000D01*
Y0055283D02*
G03X0020525Y0055153I0000000J0000132D01*
G01X0020789Y0055151D02*
G03X0020657Y0055283I0000132J0000000D01*
G01X0021973Y0055152D02*
G03X0021974Y0055169I0000246J0000017D01*
G01X0021841Y0055152D02*
G03X0021841Y0055156I0000134J0000004D01*
G03X0021707Y0055290I0000134J0000000D01*
G03X0021573Y0055156I0000000J0000134D01*
G01X0021574D02*
G03X0021616Y0055059I0000133J0000000D01*
G01X0021992Y0054527D02*
G03X0021896Y0054746I0000297J0000000D01*
G01X0021710Y0054231D02*
G03X0021991Y0054527I0000015J0000296D01*
G01X0021545Y0054229D02*
G03X0021578Y0054231I0000000J0000233D01*
G01X0021312Y0054462D02*
G03X0021545Y0054229I0000233J0000000D01*
G01X0021314Y0054495D02*
G03X0021312Y0054462I0000231J0000033D01*
G01X0021446Y0054495D02*
G03X0021446Y0054487I0000134J0000008D01*
G03X0021580Y0054353I0000134J0000000D01*
G03X0021679Y0054397I0000000J0000134D01*
G03X0021713Y0054488I0000104J0000091D01*
G01X0021714D02*
G03X0021671Y0054588I0000139J0000000D01*
G01X0021311Y0055109D02*
G03X0021392Y0054900I0000310J0000000D01*
G01X0021578Y0055416D02*
G03X0021311Y0055109I0000043J0000307D01*
G01X0021727Y0055416D02*
G03X0021710Y0055416I0000000J0000247D01*
G01X0021974Y0055169D02*
G03X0021727Y0055416I0000247J0000000D01*
G01X0038250Y0013500D02*
G03X0039250Y0014500I0000000J0001000D01*
G01X0037250D02*
G03X0038250Y0013500I0001000J0000000D01*
Y0015500D02*
G03X0037250Y0014500I0000000J0001000D01*
G01X0039250D02*
G03X0038250Y0015500I0001000J0000000D01*
Y0018500D02*
G03X0039250Y0019500I0000000J0001000D01*
G01X0037250D02*
G03X0038250Y0018500I0001000J0000000D01*
Y0020500D02*
G03X0037250Y0019500I0000000J0001000D01*
G01X0039250D02*
G03X0038250Y0020500I0001000J0000000D01*
Y0016000D02*
G03X0039250Y0017000I0000000J0001000D01*
G01X0037250D02*
G03X0038250Y0016000I0001000J0000000D01*
Y0018000D02*
G03X0037250Y0017000I0000000J0001000D01*
G01X0039250D02*
G03X0038250Y0018000I0001000J0000000D01*
Y0011000D02*
G03X0039250Y0012000I0000000J0001000D01*
G01X0037250D02*
G03X0038250Y0011000I0001000J0000000D01*
Y0013000D02*
G03X0037250Y0012000I0000000J0001000D01*
G01X0039250D02*
G03X0038250Y0013000I0001000J0000000D01*
G01X0014799Y0053126D02*
G03X0014896Y0053223I0000000J0000097D01*
G01X0014702D02*
G03X0014799Y0053126I0000097J0000000D01*
Y0053321D02*
G03X0014701Y0053223I0000000J0000098D01*
G01X0014897D02*
G03X0014799Y0053321I0000098J0000000D01*
G01X0014806Y0055070D02*
G03X0014936Y0055200I0000000J0000130D01*
G01X0014676D02*
G03X0014806Y0055070I0000130J0000000D01*
Y0055331D02*
G03X0014675Y0055200I0000000J0000131D01*
G01X0014937D02*
G03X0014806Y0055331I0000131J0000000D01*
G01X0014358Y0053878D02*
G03X0014575Y0054095I0000000J0000217D01*
G01X0014141D02*
G03X0014358Y0053878I0000217J0000000D01*
Y0054311D02*
G03X0014142Y0054095I0000000J0000216D01*
G01X0014574D02*
G03X0014358Y0054311I0000216J0000000D01*
G01X0015250Y0053886D02*
G03X0015466Y0054102I0000000J0000216D01*
G01X0015034D02*
G03X0015250Y0053886I0000216J0000000D01*
Y0054319D02*
G03X0015033Y0054102I0000000J0000217D01*
G01X0015467D02*
G03X0015250Y0054319I0000217J0000000D01*
G01X0014194Y0054441D02*
G03X0013973Y0053616I0001431J0000825D01*
G01X0014799Y0054805D02*
G03X0014194Y0054441I0000042J0000754D01*
G01X0015377Y0054482D02*
G03X0014799Y0054805I0000619J0000431D01*
G01X0015625Y0053616D02*
G03X0015377Y0054482I0001639J0000000D01*
G01X0013537Y0053926D02*
G03X0013405Y0053898I0000000J0000324D01*
G01X0013861Y0053602D02*
G03X0013537Y0053926I0000324J0000000D01*
G01X0013669Y0053306D02*
G03X0013861Y0053602I0000132J0000296D01*
G01X0013606Y0053448D02*
G03X0013706Y0053602I0000069J0000154D01*
G03X0013537Y0053771I0000169J0000000D01*
G03X0013468Y0053756I0000000J0000169D01*
G01X0016043Y0053907D02*
G03X0016189Y0053943I0000000J0000312D01*
G01X0015731Y0054219D02*
G03X0016043Y0053907I0000312J0000000D01*
G01X0015897Y0054494D02*
G03X0015732Y0054219I0000146J0000275D01*
G01X0015966Y0054365D02*
G03X0015878Y0054219I0000077J0000146D01*
G03X0016043Y0054054I0000165J0000000D01*
Y0054053D02*
G03X0016121Y0054073I0000000J0000166D01*
G54D63*
G01X0003273Y0007903D02*
Y0008069D01*
X0003384Y0008236D02*
X0003300Y0008069D01*
X0003245D01*
X0003162Y0008236D01*
X0002863Y0007903D02*
Y0008236D01*
X0002974D02*
X0002752D01*
X0002564Y0007903D02*
X0002453D01*
X0002508D02*
Y0008236D01*
X0002564D02*
X0002453D01*
X0002015Y0007903D02*
Y0008236D01*
X0001987Y0007903D02*
X0002154D01*
X0002209Y0008014D01*
Y0008125D01*
X0002154Y0008236D01*
X0001987D01*
X0001799Y0007903D02*
X0001688D01*
X0001744D02*
Y0008236D01*
X0001799D02*
X0001688D01*
X0001445Y0007903D02*
Y0008236D01*
X0001389Y0008180D01*
X0001334Y0008069D01*
X0001278Y0008180D01*
X0001223Y0008236D01*
Y0007903D01*
X0001035Y0008236D02*
Y0007958D01*
X0001007Y0007903D01*
X0000840D01*
X0000813Y0007958D01*
Y0008236D01*
X0000625Y0008069D02*
X0000403D01*
X0000625Y0007903D02*
Y0008236D01*
X0000403Y0007903D02*
Y0008236D01*
X0001758Y0014694D02*
X0001924D01*
X0001980Y0014750D01*
Y0014805D01*
X0001924Y0014861D01*
X0001758D01*
Y0014528D01*
X0001570D02*
Y0014861D01*
X0001514Y0014805D01*
X0001459Y0014694D01*
X0001403Y0014805D01*
X0001348Y0014861D01*
Y0014528D01*
X0001104Y0014694D02*
X0000938D01*
X0001160Y0014528D02*
X0000938D01*
Y0014861D01*
X0001160D01*
X0000639Y0014528D02*
Y0014861D01*
X0000750D02*
X0000528D01*
X0002800Y0018639D02*
X0002578D01*
X0002800Y0018528D02*
Y0018694D01*
X0002717Y0018861D01*
X0002661D01*
X0002578Y0018694D01*
Y0018528D01*
X0002307Y0018694D02*
X0002390Y0018528D01*
X0002168Y0018694D02*
X0002334D01*
X0002390Y0018750D01*
Y0018805D01*
X0002334Y0018861D01*
X0002168D01*
Y0018528D01*
X0001924Y0018694D02*
X0001758D01*
X0001980Y0018528D02*
X0001758D01*
Y0018861D01*
X0001980D01*
X0001570Y0018528D02*
Y0018861D01*
X0001514Y0018805D01*
X0001459Y0018694D01*
X0001403Y0018805D01*
X0001348Y0018861D01*
Y0018528D01*
X0001160Y0018639D02*
X0000938D01*
X0001160Y0018528D02*
Y0018694D01*
X0001077Y0018861D01*
X0001021D01*
X0000938Y0018694D01*
Y0018528D01*
X0000750Y0018583D02*
X0000722Y0018528D01*
X0000555D01*
X0000528Y0018583D01*
Y0018805D01*
X0000555Y0018861D01*
X0000722D01*
X0000750Y0018805D01*
X0003509Y0022528D02*
Y0022861D01*
X0003620D02*
X0003398D01*
X0003210D02*
Y0022583D01*
X0003182Y0022528D01*
X0003015D01*
X0002988Y0022583D01*
Y0022861D01*
X0002800Y0022583D02*
X0002772Y0022528D01*
X0002605D01*
X0002578Y0022583D01*
Y0022805D01*
X0002605Y0022861D01*
X0002772D01*
X0002800Y0022805D01*
X0002390Y0022417D02*
X0002168D01*
X0001869Y0022528D02*
Y0022861D01*
X0001980D02*
X0001758D01*
X0001459Y0022528D02*
Y0022861D01*
X0001570D02*
X0001348D01*
X0001160Y0022639D02*
X0000938D01*
X0001160Y0022528D02*
Y0022694D01*
X0001077Y0022861D01*
X0001021D01*
X0000938Y0022694D01*
Y0022528D01*
X0000555D02*
Y0022861D01*
X0000528Y0022528D02*
X0000694D01*
X0000750Y0022583D01*
Y0022639D01*
X0000722Y0022694D01*
X0000555D02*
X0000722D01*
X0000750Y0022750D01*
Y0022805D01*
X0000694Y0022861D01*
X0000528D01*
X0003210Y0026528D02*
X0002988D01*
X0003210Y0026750D01*
Y0026805D01*
X0003182Y0026861D01*
X0003015D01*
X0002988Y0026805D01*
X0002744Y0026694D02*
X0002578D01*
Y0026528D02*
Y0026861D01*
X0002800D01*
X0002334Y0026694D02*
X0002168D01*
Y0026528D02*
Y0026861D01*
X0002390D01*
X0001785Y0026528D02*
X0001758Y0026583D01*
Y0026805D01*
X0001785Y0026861D01*
X0001952D01*
X0001980Y0026805D01*
Y0026583D01*
X0001952Y0026528D01*
X0001785D01*
X0001459D02*
Y0026861D01*
X0001570D02*
X0001348D01*
X0001160D02*
Y0026583D01*
X0001132Y0026528D01*
X0000965D01*
X0000938Y0026583D01*
Y0026861D01*
X0000750Y0026583D02*
X0000722Y0026528D01*
X0000555D01*
X0000528Y0026583D01*
Y0026805D01*
X0000555Y0026861D01*
X0000722D01*
X0000750Y0026805D01*
X0003154Y0030528D02*
X0003043D01*
X0003099D02*
Y0030861D01*
X0003043Y0030805D01*
X0002744Y0030694D02*
X0002578D01*
Y0030528D02*
Y0030861D01*
X0002800D01*
X0002334Y0030694D02*
X0002168D01*
Y0030528D02*
Y0030861D01*
X0002390D01*
X0001785Y0030528D02*
X0001758Y0030583D01*
Y0030805D01*
X0001785Y0030861D01*
X0001952D01*
X0001980Y0030805D01*
Y0030583D01*
X0001952Y0030528D01*
X0001785D01*
X0001459D02*
Y0030861D01*
X0001570D02*
X0001348D01*
X0001160D02*
Y0030583D01*
X0001132Y0030528D01*
X0000965D01*
X0000938Y0030583D01*
Y0030861D01*
X0000750Y0030583D02*
X0000722Y0030528D01*
X0000555D01*
X0000528Y0030583D01*
Y0030805D01*
X0000555Y0030861D01*
X0000722D01*
X0000750Y0030805D01*
X0002140Y0037278D02*
X0002112Y0037333D01*
Y0037555D01*
X0002140Y0037611D01*
X0002307D01*
X0002334Y0037555D01*
Y0037333D01*
X0002307Y0037278D01*
X0002140D01*
X0001924D02*
X0001813D01*
X0001869D02*
Y0037611D01*
X0001924D02*
X0001813D01*
X0001375Y0037278D02*
Y0037611D01*
X0001348Y0037278D02*
X0001514D01*
X0001570Y0037389D01*
Y0037500D01*
X0001514Y0037611D01*
X0001348D01*
X0001160Y0037389D02*
X0000938D01*
X0001160Y0037278D02*
Y0037444D01*
X0001077Y0037611D01*
X0001021D01*
X0000938Y0037444D01*
Y0037278D01*
X0000667Y0037444D02*
X0000750Y0037278D01*
X0000528Y0037444D02*
X0000694D01*
X0000750Y0037500D01*
Y0037555D01*
X0000694Y0037611D01*
X0000528D01*
Y0037278D01*
X0023279Y0049361D02*
Y0049250D01*
X0023168Y0049028D01*
X0023057Y0049250D01*
Y0049361D01*
X0022647Y0049083D02*
X0022702Y0049028D01*
X0022813D01*
X0022869Y0049083D01*
Y0049139D01*
X0022758Y0049250D01*
X0022869Y0049361D01*
X0022647D01*
X0022403Y0049028D02*
X0022459D01*
Y0049083D01*
X0022403D01*
Y0049028D01*
X0021938Y0049083D02*
X0021993Y0049028D01*
X0022104D01*
X0022160Y0049083D01*
Y0049139D01*
X0022049Y0049250D01*
X0022160Y0049361D01*
X0021938D01*
X0021639Y0049305D02*
Y0049083D01*
X0021750Y0049194D02*
X0021528D01*
X0022375Y0044153D02*
Y0044486D01*
X0022348Y0044153D02*
X0022514D01*
X0022570Y0044264D01*
Y0044375D01*
X0022514Y0044486D01*
X0022348D01*
X0022160D02*
Y0044153D01*
X0022104Y0044208D01*
X0021993Y0044430D01*
X0021938Y0044486D01*
Y0044153D01*
X0021639Y0044319D02*
X0021750D01*
Y0044208D01*
X0021722Y0044153D01*
X0021555D01*
X0021528Y0044208D01*
Y0044430D01*
X0021555Y0044486D01*
X0021722D01*
X0021750Y0044430D01*
X0023257Y0047153D02*
X0023090Y0047486D01*
X0023257D02*
X0023090Y0047153D01*
X0022764D02*
Y0047486D01*
X0022875D02*
X0022653D01*
X0023257Y0046028D02*
X0023090Y0046361D01*
X0023257D02*
X0023090Y0046028D01*
X0022792Y0046194D02*
X0022875Y0046028D01*
X0022653Y0046194D02*
X0022819D01*
X0022875Y0046250D01*
Y0046305D01*
X0022819Y0046361D01*
X0022653D01*
Y0046028D01*
X0040194Y0021119D02*
X0040361Y0021202D01*
X0040194Y0020980D02*
Y0021147D01*
X0040139Y0021202D01*
X0040083D01*
X0040028Y0021147D01*
Y0020980D01*
X0040361D01*
Y0020598D02*
X0040028D01*
X0040361Y0020570D02*
Y0020737D01*
X0040250Y0020792D01*
X0040139D01*
X0040028Y0020737D01*
Y0020570D01*
X0040194Y0020327D02*
Y0020160D01*
X0040361Y0020382D02*
Y0020160D01*
X0040028D01*
Y0020382D01*
X0040361Y0019972D02*
Y0019778D01*
X0040028D01*
X0040194Y0017716D02*
Y0017827D01*
X0040305D01*
X0040361Y0017799D01*
Y0017633D01*
X0040305Y0017605D01*
X0040083D01*
X0040028Y0017633D01*
Y0017799D01*
X0040083Y0017827D01*
X0040361Y0017223D02*
X0040028D01*
X0040361Y0017195D02*
Y0017362D01*
X0040250Y0017417D01*
X0040139D01*
X0040028Y0017362D01*
Y0017195D01*
X0040194Y0016952D02*
Y0016785D01*
X0040361Y0017007D02*
Y0016785D01*
X0040028D01*
Y0017007D01*
X0040361Y0016597D02*
Y0016403D01*
X0040028D01*
Y0014945D02*
X0040139D01*
X0040361Y0014834D01*
X0040139Y0014723D01*
X0040028D01*
X0040305Y0014313D02*
X0040361Y0014340D01*
Y0014507D01*
X0040305Y0014535D01*
X0040194D01*
X0040139Y0014479D01*
Y0014313D01*
X0040028D01*
Y0014535D01*
X0040083Y0014014D02*
X0040305D01*
X0040194Y0014125D02*
Y0013903D01*
X0040028Y0012904D02*
X0040139D01*
X0040361Y0012793D01*
X0040139Y0012682D01*
X0040028D01*
X0040305Y0012272D02*
X0040361Y0012327D01*
Y0012438D01*
X0040305Y0012494D01*
X0040250D01*
X0040139Y0012383D01*
X0040028Y0012494D01*
Y0012272D01*
X0040361Y0012028D02*
Y0012084D01*
X0040305D01*
Y0012028D01*
X0040361D01*
X0040305Y0011563D02*
X0040361Y0011618D01*
Y0011729D01*
X0040305Y0011785D01*
X0040250D01*
X0040139Y0011674D01*
X0040028Y0011785D01*
Y0011563D01*
X0040083Y0011264D02*
X0040305D01*
X0040194Y0011375D02*
Y0011153D01*
X0037472Y0002230D02*
Y0002008D01*
X0037361Y0001625D02*
X0037028D01*
X0037361Y0001598D02*
Y0001764D01*
X0037305Y0001820D01*
X0037250D01*
X0037194Y0001792D01*
Y0001625D02*
Y0001792D01*
X0037139Y0001820D01*
X0037083D01*
X0037028Y0001764D01*
Y0001598D01*
X0037361Y0001215D02*
X0037028D01*
X0037361Y0001188D02*
Y0001354D01*
X0037250Y0001410D01*
X0037139D01*
X0037028Y0001354D01*
Y0001188D01*
X0037472Y0001000D02*
Y0000778D01*
X0011894Y0014854D02*
Y0015032D01*
X0012072Y0014943D01*
Y0014899D01*
X0011805D01*
X0011938Y0015370D02*
Y0015237D01*
X0011894Y0015214D01*
X0011849D01*
X0011805Y0015237D01*
Y0015370D01*
X0011849Y0015392D01*
X0011894D01*
X0012072Y0015303D01*
X0011849Y0015574D02*
X0011805Y0015597D01*
Y0015730D01*
X0011849Y0015752D01*
X0012027D01*
X0012072Y0015730D01*
Y0015597D01*
X0012027Y0015574D01*
X0023586Y0019355D02*
Y0019533D01*
X0023764Y0019355D01*
X0023808D01*
X0023853Y0019377D01*
Y0019511D01*
X0023808Y0019533D01*
X0023853Y0019715D02*
X0023630D01*
X0023586Y0019737D01*
X0023719Y0019804D01*
X0023764D02*
X0023719D01*
X0023586Y0019871D01*
X0023630Y0019893D01*
X0023853D01*
X0023808Y0020075D02*
X0023853Y0020097D01*
Y0020231D01*
X0023808Y0020253D01*
X0023764D01*
X0023719Y0020231D01*
Y0020097D01*
X0023675Y0020075D01*
X0023630D01*
X0023586Y0020097D01*
Y0020231D01*
X0023630Y0020253D01*
X0006542Y0015784D02*
Y0015873D01*
Y0015829D02*
X0006809D01*
X0006764Y0015873D01*
X0006542Y0016100D02*
Y0016278D01*
X0006720Y0016100D01*
X0006764D01*
X0006809Y0016122D01*
Y0016256D01*
X0006764Y0016278D01*
X0006542Y0016460D02*
Y0016549D01*
Y0016504D02*
X0006809D01*
X0006764Y0016549D01*
X0006676Y0016842D02*
X0006542Y0016775D01*
X0006676Y0016953D02*
Y0016820D01*
X0006720Y0016775D01*
X0006764D01*
X0006809Y0016820D01*
Y0016953D01*
X0006542D01*
X0005258Y0020099D02*
X0005213Y0020054D01*
X0005169Y0020032D01*
X0005080D01*
X0005035Y0020054D01*
X0004991Y0020099D01*
Y0020143D01*
X0005035Y0020188D01*
X0005080Y0020210D01*
X0005169D01*
X0005213Y0020188D01*
X0005258Y0020143D01*
Y0020099D01*
Y0019850D02*
Y0019672D01*
X0005080Y0019850D01*
X0005035D01*
X0004991Y0019828D01*
Y0019694D01*
X0005035Y0019672D01*
X0005258Y0019490D02*
Y0019401D01*
Y0019446D02*
X0004991D01*
X0005035Y0019401D01*
X0005124Y0019108D02*
X0005258Y0019174D01*
X0005124Y0018997D02*
Y0019130D01*
X0005080Y0019174D01*
X0005035D01*
X0004991Y0019130D01*
Y0018997D01*
X0005258D01*
X0028601Y0024583D02*
X0028645Y0024628D01*
Y0024716D01*
X0028601Y0024761D01*
X0028556D01*
X0028467Y0024672D01*
X0028378Y0024761D01*
Y0024583D01*
X0028645Y0024401D02*
Y0024223D01*
X0028467Y0024401D01*
X0028423D01*
X0028378Y0024379D01*
Y0024245D01*
X0028423Y0024223D01*
X0028645Y0024041D02*
Y0023952D01*
Y0023997D02*
X0028378D01*
X0028423Y0023952D01*
X0028512Y0023659D02*
X0028645Y0023725D01*
X0028512Y0023548D02*
Y0023681D01*
X0028467Y0023725D01*
X0028423D01*
X0028378Y0023681D01*
Y0023548D01*
X0028645D01*
X0004765Y0054903D02*
X0004709Y0054958D01*
X0004682Y0055014D01*
Y0055125D01*
X0004709Y0055180D01*
X0004765Y0055236D01*
X0004820D01*
X0004876Y0055180D01*
X0004904Y0055125D01*
Y0055014D01*
X0004876Y0054958D01*
X0004820Y0054903D01*
X0004765D01*
X0004438D02*
X0004494D01*
Y0054958D01*
X0004438D01*
Y0054903D01*
X0004195Y0055125D02*
X0004084Y0054903D01*
X0003973Y0055125D01*
X0003757Y0054903D02*
X0003590D01*
X0003563Y0054958D01*
Y0055069D01*
X0003590Y0055125D01*
X0003757D01*
X0003785Y0055069D01*
Y0055014D01*
X0003563D01*
X0003292Y0055069D02*
X0003375Y0054903D01*
X0003153Y0055069D02*
X0003319D01*
X0003375Y0055125D01*
Y0055180D01*
X0003319Y0055236D01*
X0003153D01*
Y0054903D01*
X0018692Y0047501D02*
X0018826D01*
X0018848Y0047457D01*
Y0047412D01*
X0018826Y0047368D01*
X0018692D01*
X0018670Y0047412D01*
Y0047457D01*
X0018759Y0047634D01*
X0019030Y0047368D02*
Y0047590D01*
X0019052Y0047634D01*
X0019186D01*
X0019208Y0047590D01*
Y0047368D01*
X0021412Y0043563D02*
X0021367Y0043585D01*
X0021323D01*
X0021278Y0043563D01*
Y0043430D01*
X0021323Y0043408D01*
X0021367D01*
X0021412Y0043430D01*
Y0043563D01*
X0021456Y0043585D01*
X0021501D01*
X0021545Y0043563D01*
Y0043430D01*
X0021501Y0043408D01*
X0021456D01*
X0021412Y0043430D01*
X0021501Y0043048D02*
X0021545Y0043070D01*
Y0043203D01*
X0021501Y0043225D01*
X0021412D01*
X0021367Y0043181D01*
Y0043048D01*
X0021278D01*
Y0043225D01*
X0021412Y0042799D02*
X0021545Y0042865D01*
X0021412Y0042688D02*
Y0042821D01*
X0021367Y0042865D01*
X0021323D01*
X0021278Y0042821D01*
Y0042688D01*
X0021545D01*
X0026091Y0024508D02*
X0026135Y0024530D01*
Y0024664D01*
X0026091Y0024686D01*
X0026002D01*
X0025957Y0024641D01*
Y0024508D01*
X0025868D01*
Y0024686D01*
X0026135Y0024326D02*
Y0024237D01*
Y0024282D02*
X0025868D01*
X0025913Y0024237D01*
X0026091Y0024010D02*
X0026135Y0023988D01*
Y0023855D01*
X0026091Y0023833D01*
X0025913D01*
X0025868Y0023855D01*
Y0023988D01*
X0025913Y0024010D01*
X0037805Y0027233D02*
Y0027322D01*
Y0027278D02*
X0038071D01*
X0038027Y0027322D01*
X0013892Y0035962D02*
X0013914Y0035917D01*
X0014047D01*
X0014069Y0035962D01*
Y0036051D01*
X0014025Y0036095D01*
X0013892D01*
Y0036184D01*
X0014069D01*
X0013709Y0035917D02*
X0013532D01*
X0013709Y0036095D01*
Y0036139D01*
X0013687Y0036184D01*
X0013554D01*
X0013532Y0036139D01*
X0013283Y0036051D02*
X0013349Y0035917D01*
X0013172Y0036051D02*
X0013305D01*
X0013349Y0036095D01*
Y0036139D01*
X0013305Y0036184D01*
X0013172D01*
Y0035917D01*
X0018525Y0030496D02*
X0018569Y0030540D01*
Y0030629D01*
X0018525Y0030674D01*
X0018480D01*
X0018392Y0030585D01*
X0018303Y0030674D01*
Y0030496D01*
X0018525Y0030136D02*
X0018569Y0030180D01*
Y0030269D01*
X0018525Y0030314D01*
X0018480D01*
X0018392Y0030225D01*
X0018303Y0030314D01*
Y0030136D01*
X0018525Y0029954D02*
X0018569Y0029932D01*
Y0029798D01*
X0018525Y0029776D01*
X0018347D01*
X0018303Y0029798D01*
Y0029932D01*
X0018347Y0029954D01*
X0025445Y0024637D02*
X0025178Y0024770D01*
Y0024593D01*
X0025445Y0024410D02*
Y0024233D01*
X0025267Y0024410D01*
X0025223D01*
X0025178Y0024388D01*
Y0024255D01*
X0025223Y0024233D01*
X0025401Y0024050D02*
X0025445Y0024028D01*
Y0023895D01*
X0025401Y0023873D01*
X0025223D01*
X0025178Y0023895D01*
Y0024028D01*
X0025223Y0024050D01*
X0011854Y0030945D02*
X0012032D01*
X0011854Y0030767D01*
Y0030723D01*
X0011877Y0030678D01*
X0012010D01*
X0012032Y0030723D01*
X0012392Y0030901D02*
X0012348Y0030945D01*
X0012259D01*
X0012214Y0030901D01*
Y0030856D01*
X0012303Y0030767D01*
X0012214Y0030678D01*
X0012392D01*
X0012641Y0030812D02*
X0012574Y0030945D01*
X0012752Y0030812D02*
X0012619D01*
X0012574Y0030767D01*
Y0030723D01*
X0012619Y0030678D01*
X0012752D01*
Y0030945D01*
X0034298Y0027488D02*
X0034165D01*
X0034143Y0027533D01*
Y0027577D01*
X0034165Y0027622D01*
X0034298D01*
X0034320Y0027577D01*
Y0027533D01*
X0034232Y0027355D01*
X0033805Y0027488D02*
X0033938D01*
X0033960Y0027444D01*
Y0027399D01*
X0033938Y0027355D01*
X0033805D01*
X0033783Y0027399D01*
Y0027444D01*
X0033872Y0027622D01*
X0033534Y0027488D02*
X0033600Y0027355D01*
X0033423Y0027488D02*
X0033556D01*
X0033600Y0027533D01*
Y0027577D01*
X0033556Y0027622D01*
X0033423D01*
Y0027355D01*
X0025737Y0021002D02*
X0025648D01*
X0025693D02*
Y0021269D01*
X0025648Y0021224D01*
X0025333Y0021002D02*
Y0021136D01*
X0025422Y0021269D02*
X0025355Y0021136D01*
X0025310D01*
X0025244Y0021269D01*
X0034701Y0022667D02*
X0034834Y0022934D01*
X0034657D01*
X0034408Y0022801D02*
X0034474Y0022667D01*
X0034297Y0022801D02*
X0034430D01*
X0034474Y0022845D01*
Y0022889D01*
X0034430Y0022934D01*
X0034297D01*
Y0022667D01*
X0008040Y0030111D02*
X0007952D01*
X0007996D02*
Y0030378D01*
X0007952Y0030333D01*
X0007725Y0030378D02*
Y0030155D01*
X0007703Y0030111D01*
X0007569D01*
X0007547Y0030155D01*
Y0030378D01*
X0012917Y0023292D02*
X0012962Y0023336D01*
X0013006Y0023358D01*
X0013095D01*
X0013139Y0023336D01*
X0013184Y0023292D01*
Y0023247D01*
X0013139Y0023203D01*
X0013095Y0023180D01*
X0013006D01*
X0012962Y0023203D01*
X0012917Y0023247D01*
Y0023292D01*
Y0023540D02*
Y0023718D01*
X0013095Y0023540D01*
X0013139D01*
X0013184Y0023563D01*
Y0023696D01*
X0013139Y0023718D01*
X0013051Y0023967D02*
X0012917Y0023900D01*
X0013051Y0024078D02*
Y0023945D01*
X0013095Y0023900D01*
X0013139D01*
X0013184Y0023945D01*
Y0024078D01*
X0012917D01*
X0031312Y0029480D02*
X0031445Y0029747D01*
X0031268D01*
X0030930Y0029613D02*
X0031063D01*
X0031085Y0029569D01*
Y0029524D01*
X0031063Y0029480D01*
X0030930D01*
X0030908Y0029524D01*
Y0029569D01*
X0030997Y0029747D01*
X0030659Y0029613D02*
X0030725Y0029480D01*
X0030548Y0029613D02*
X0030681D01*
X0030725Y0029658D01*
Y0029702D01*
X0030681Y0029747D01*
X0030548D01*
Y0029480D01*
X0029348Y0029339D02*
Y0029250D01*
Y0029294D02*
X0029081D01*
X0029126Y0029250D01*
X0033384Y0026204D02*
Y0026337D01*
X0033429Y0026359D01*
X0033473D01*
X0033518Y0026337D01*
Y0026204D01*
X0033473Y0026182D01*
X0033429D01*
X0033251Y0026271D01*
X0033429Y0025999D02*
Y0025822D01*
X0033251Y0025911D01*
Y0025955D01*
X0033518D01*
X0033473Y0025639D02*
X0033518Y0025617D01*
Y0025484D01*
X0033473Y0025462D01*
X0033295D01*
X0033251Y0025484D01*
Y0025617D01*
X0033295Y0025639D01*
X0028799Y0032267D02*
X0028665Y0032001D01*
X0028843D01*
X0029025Y0032267D02*
X0029114D01*
X0029070D02*
Y0032001D01*
X0029114Y0032045D01*
X0026127Y0031843D02*
X0026083Y0031798D01*
Y0031709D01*
X0026127Y0031665D01*
X0026172D01*
X0026260Y0031754D01*
X0026349Y0031665D01*
Y0031843D01*
X0026127Y0032203D02*
X0026083Y0032158D01*
Y0032069D01*
X0026127Y0032025D01*
X0026172D01*
X0026260Y0032114D01*
X0026349Y0032025D01*
Y0032203D01*
X0012265Y0005018D02*
X0012443D01*
X0012265Y0004840D01*
Y0004795D01*
X0012288Y0004751D01*
X0012421D01*
X0012443Y0004795D01*
X0012625Y0004929D02*
X0012803D01*
X0012714Y0004751D01*
X0012670D01*
Y0005018D01*
X0012985Y0004973D02*
X0013008Y0005018D01*
X0013141D01*
X0013163Y0004973D01*
Y0004795D01*
X0013141Y0004751D01*
X0013008D01*
X0012985Y0004795D01*
X0026788Y0029135D02*
X0026654D01*
X0026632Y0029179D01*
Y0029224D01*
X0026654Y0029268D01*
X0026788D01*
X0026810Y0029224D01*
Y0029179D01*
X0026721Y0029002D01*
X0026450Y0029091D02*
X0026272D01*
X0026361Y0029268D01*
X0026405D01*
Y0029002D01*
X0034830Y0024732D02*
X0034741D01*
X0034786D02*
Y0024999D01*
X0034741Y0024954D01*
X0034514Y0024777D02*
X0034492Y0024732D01*
X0034359D01*
X0034337Y0024777D01*
Y0024954D01*
X0034359Y0024999D01*
X0034492D01*
X0034514Y0024954D01*
X0030358Y0028494D02*
Y0028405D01*
Y0028449D02*
X0030091D01*
X0030136Y0028405D01*
X0030364Y0027576D02*
X0030186D01*
X0030275Y0027754D01*
X0030320D01*
Y0027488D01*
X0030004Y0027754D02*
Y0027532D01*
X0029982Y0027488D01*
X0029849D01*
X0029826Y0027532D01*
Y0027754D01*
X0009861Y0052234D02*
Y0052323D01*
Y0052279D02*
X0010128D01*
X0010083Y0052323D01*
X0009994Y0052594D02*
Y0052728D01*
X0009861D02*
X0010128D01*
Y0052550D01*
X0028137Y0038915D02*
Y0039048D01*
X0028181Y0039070D01*
X0028226D01*
X0028270Y0039048D01*
Y0038915D01*
X0028226Y0038893D01*
X0028181D01*
X0028003Y0038982D01*
X0028226Y0038533D02*
X0028270Y0038555D01*
Y0038688D01*
X0028226Y0038710D01*
X0028137D01*
X0028092Y0038666D01*
Y0038533D01*
X0028003D01*
Y0038710D01*
X0028137Y0038284D02*
X0028270Y0038350D01*
X0028137Y0038173D02*
Y0038306D01*
X0028092Y0038350D01*
X0028048D01*
X0028003Y0038306D01*
Y0038173D01*
X0028270D01*
X0018106Y0052270D02*
Y0052093D01*
X0017928Y0052182D01*
Y0052226D01*
X0018195D01*
X0018062Y0051888D02*
X0018017Y0051910D01*
X0017973D01*
X0017928Y0051888D01*
Y0051755D01*
X0017973Y0051733D01*
X0018017D01*
X0018062Y0051755D01*
Y0051888D01*
X0018106Y0051910D01*
X0018151D01*
X0018195Y0051888D01*
Y0051755D01*
X0018151Y0051733D01*
X0018106D01*
X0018062Y0051755D01*
Y0051484D02*
X0018195Y0051550D01*
X0018062Y0051373D02*
Y0051506D01*
X0018017Y0051550D01*
X0017973D01*
X0017928Y0051506D01*
Y0051373D01*
X0018195D01*
X0020970Y0010938D02*
X0020703Y0011071D01*
Y0010894D01*
X0020970Y0010711D02*
Y0010623D01*
Y0010667D02*
X0020703D01*
X0020748Y0010623D01*
X0020970Y0010396D02*
Y0010307D01*
Y0010352D02*
X0020703D01*
X0020748Y0010307D01*
X0020837Y0010014D02*
X0020970Y0010080D01*
X0020837Y0009903D02*
Y0010036D01*
X0020792Y0010080D01*
X0020748D01*
X0020703Y0010036D01*
Y0009903D01*
X0020970D01*
X0006333Y0019540D02*
Y0019451D01*
Y0019496D02*
X0006066D01*
X0006110Y0019451D01*
X0006199Y0019158D02*
X0006333Y0019224D01*
X0006199Y0019047D02*
Y0019180D01*
X0006155Y0019224D01*
X0006110D01*
X0006066Y0019180D01*
Y0019047D01*
X0006333D01*
X0030437Y0038998D02*
Y0038865D01*
X0030392Y0038843D01*
X0030348D01*
X0030303Y0038865D01*
Y0038998D01*
X0030348Y0039020D01*
X0030392D01*
X0030570Y0038932D01*
X0030526Y0038483D02*
X0030570Y0038527D01*
Y0038616D01*
X0030526Y0038660D01*
X0030481D01*
X0030392Y0038572D01*
X0030303Y0038660D01*
Y0038483D01*
X0030437Y0038234D02*
X0030570Y0038300D01*
X0030437Y0038123D02*
Y0038256D01*
X0030392Y0038300D01*
X0030348D01*
X0030303Y0038256D01*
Y0038123D01*
X0030570D01*
X0012591Y0029548D02*
X0012635Y0029592D01*
Y0029681D01*
X0012591Y0029725D01*
X0012546D01*
X0012457Y0029637D01*
X0012368Y0029725D01*
Y0029548D01*
X0012502Y0029343D02*
X0012457Y0029365D01*
X0012413D01*
X0012368Y0029343D01*
Y0029210D01*
X0012413Y0029188D01*
X0012457D01*
X0012502Y0029210D01*
Y0029343D01*
X0012546Y0029365D01*
X0012591D01*
X0012635Y0029343D01*
Y0029210D01*
X0012591Y0029188D01*
X0012546D01*
X0012502Y0029210D01*
Y0028939D02*
X0012635Y0029005D01*
X0012502Y0028828D02*
Y0028961D01*
X0012457Y0029005D01*
X0012413D01*
X0012368Y0028961D01*
Y0028828D01*
X0012635D01*
X0020159Y0047180D02*
X0020181Y0047224D01*
Y0047269D01*
X0020159Y0047313D01*
X0020026D01*
X0020003Y0047269D01*
Y0047224D01*
X0020026Y0047180D01*
X0020159D01*
X0020181Y0047135D01*
Y0047091D01*
X0020159Y0047047D01*
X0020026D01*
X0020003Y0047091D01*
Y0047135D01*
X0020026Y0047180D01*
X0019821Y0047091D02*
X0019799Y0047047D01*
X0019666D01*
X0019643Y0047091D01*
Y0047269D01*
X0019666Y0047313D01*
X0019799D01*
X0019821Y0047269D01*
X0036151Y0016358D02*
X0036195Y0016380D01*
Y0016513D01*
X0036151Y0016535D01*
X0036062D01*
X0036017Y0016491D01*
Y0016358D01*
X0035928D01*
Y0016535D01*
X0036062Y0016109D02*
X0036195Y0016175D01*
X0036062Y0015998D02*
Y0016131D01*
X0036017Y0016175D01*
X0035973D01*
X0035928Y0016131D01*
Y0015998D01*
X0036195D01*
X0026309Y0020452D02*
X0026265Y0020408D01*
Y0020319D01*
X0026309Y0020274D01*
X0026354D01*
X0026443Y0020363D01*
X0026532Y0020274D01*
Y0020452D01*
X0026265Y0020768D02*
X0026532Y0020634D01*
Y0020812D01*
X0026398Y0021061D02*
X0026265Y0020994D01*
X0026398Y0021172D02*
Y0021039D01*
X0026443Y0020994D01*
X0026487D01*
X0026532Y0021039D01*
Y0021172D01*
X0026265D01*
X0034126Y0016320D02*
X0034304D01*
X0034126Y0016142D01*
Y0016098D01*
X0034149Y0016053D01*
X0034282D01*
X0034304Y0016098D01*
X0038195Y0039171D02*
X0038151Y0039127D01*
X0038106Y0039104D01*
X0038017D01*
X0037973Y0039127D01*
X0037928Y0039171D01*
Y0039215D01*
X0037973Y0039260D01*
X0038017Y0039282D01*
X0038106D01*
X0038151Y0039260D01*
X0038195Y0039215D01*
Y0039171D01*
Y0038922D02*
Y0038744D01*
X0038017Y0038922D01*
X0037973D01*
X0037928Y0038900D01*
Y0038767D01*
X0037973Y0038744D01*
X0017570Y0020188D02*
X0017704D01*
X0017726Y0020144D01*
Y0020099D01*
X0017704Y0020055D01*
X0017570D01*
X0017548Y0020099D01*
Y0020144D01*
X0017637Y0020322D01*
X0017366Y0020055D02*
X0017277D01*
X0017322D02*
Y0020322D01*
X0017277Y0020277D01*
X0016984Y0020188D02*
X0017050Y0020055D01*
X0016873Y0020188D02*
X0017006D01*
X0017050Y0020233D01*
Y0020277D01*
X0017006Y0020322D01*
X0016873D01*
Y0020055D01*
X0011090Y0007881D02*
X0010913D01*
X0011002Y0008059D01*
X0011046D01*
Y0007792D01*
X0010730D02*
X0010642D01*
X0010686D02*
Y0008059D01*
X0010642Y0008014D01*
X0010415Y0007792D02*
X0010326D01*
X0010371D02*
Y0008059D01*
X0010326Y0008014D01*
X0010033Y0007926D02*
X0010099Y0007792D01*
X0009922Y0007926D02*
X0010055D01*
X0010099Y0007970D01*
Y0008014D01*
X0010055Y0008059D01*
X0009922D01*
Y0007792D01*
X0013018Y0050892D02*
X0013151Y0051158D01*
X0012973D01*
X0012613Y0050936D02*
X0012658Y0050892D01*
X0012747D01*
X0012791Y0050936D01*
Y0050980D01*
X0012702Y0051069D01*
X0012791Y0051158D01*
X0012613D01*
X0012431Y0050936D02*
X0012409Y0050892D01*
X0012276D01*
X0012253Y0050936D01*
Y0051114D01*
X0012276Y0051158D01*
X0012409D01*
X0012431Y0051114D01*
X0029820Y0039020D02*
Y0038843D01*
X0029642Y0039020D01*
X0029598D01*
X0029553Y0038998D01*
Y0038865D01*
X0029598Y0038843D01*
X0029687Y0038505D02*
Y0038638D01*
X0029731Y0038660D01*
X0029776D01*
X0029820Y0038638D01*
Y0038505D01*
X0029776Y0038483D01*
X0029731D01*
X0029553Y0038572D01*
X0029687Y0038234D02*
X0029820Y0038300D01*
X0029687Y0038123D02*
Y0038256D01*
X0029642Y0038300D01*
X0029598D01*
X0029553Y0038256D01*
Y0038123D01*
X0029820D01*
X0025931Y0039070D02*
Y0038893D01*
X0025753Y0038982D01*
Y0039026D01*
X0026020D01*
X0025887Y0038555D02*
Y0038688D01*
X0025931Y0038710D01*
X0025976D01*
X0026020Y0038688D01*
Y0038555D01*
X0025976Y0038533D01*
X0025931D01*
X0025753Y0038622D01*
X0025887Y0038284D02*
X0026020Y0038350D01*
X0025887Y0038173D02*
Y0038306D01*
X0025842Y0038350D01*
X0025798D01*
X0025753Y0038306D01*
Y0038173D01*
X0026020D01*
X0014270Y0007644D02*
X0014093D01*
X0014182Y0007822D01*
X0014226D01*
Y0007555D01*
X0013888Y0007688D02*
X0013755D01*
X0013733Y0007733D01*
Y0007777D01*
X0013755Y0007822D01*
X0013888D01*
X0013910Y0007777D01*
Y0007733D01*
X0013822Y0007555D01*
X0013484Y0007688D02*
X0013550Y0007555D01*
X0013373Y0007688D02*
X0013506D01*
X0013550Y0007733D01*
Y0007777D01*
X0013506Y0007822D01*
X0013373D01*
Y0007555D01*
X0004900Y0023292D02*
X0004811D01*
X0004856D02*
Y0023559D01*
X0004811Y0023514D01*
X0004584Y0023292D02*
X0004407D01*
X0004584Y0023470D01*
Y0023514D01*
X0004562Y0023559D01*
X0004429D01*
X0004407Y0023514D01*
X0004158Y0023426D02*
X0004224Y0023292D01*
X0004047Y0023426D02*
X0004180D01*
X0004224Y0023470D01*
Y0023514D01*
X0004180Y0023559D01*
X0004047D01*
Y0023292D01*
X0005958Y0005695D02*
X0006136D01*
X0005958Y0005517D01*
Y0005473D01*
X0005981Y0005428D01*
X0006114D01*
X0006136Y0005473D01*
X0006318Y0005695D02*
X0006407D01*
X0006363D02*
Y0005428D01*
X0006407Y0005473D01*
X0006634Y0005695D02*
X0006723D01*
X0006678D02*
Y0005428D01*
X0006723Y0005473D01*
X0007016Y0005562D02*
X0006949Y0005695D01*
X0007127Y0005562D02*
X0006994D01*
X0006949Y0005517D01*
Y0005473D01*
X0006994Y0005428D01*
X0007127D01*
Y0005695D01*
X0010108Y0032099D02*
X0010130Y0032055D01*
X0010263D01*
X0010285Y0032099D01*
Y0032188D01*
X0010241Y0032233D01*
X0010108D01*
Y0032322D01*
X0010285D01*
X0009925Y0032099D02*
X0009903Y0032055D01*
X0009770D01*
X0009748Y0032099D01*
Y0032277D01*
X0009770Y0032322D01*
X0009903D01*
X0009925Y0032277D01*
X0014390Y0031355D02*
Y0031178D01*
X0014212Y0031355D01*
X0014168D01*
X0014123Y0031333D01*
Y0031200D01*
X0014168Y0031178D01*
X0014257Y0030973D02*
X0014212Y0030995D01*
X0014168D01*
X0014123Y0030973D01*
Y0030840D01*
X0014168Y0030818D01*
X0014212D01*
X0014257Y0030840D01*
Y0030973D01*
X0014301Y0030995D01*
X0014346D01*
X0014390Y0030973D01*
Y0030840D01*
X0014346Y0030818D01*
X0014301D01*
X0014257Y0030840D01*
Y0030569D02*
X0014390Y0030635D01*
X0014257Y0030458D02*
Y0030591D01*
X0014212Y0030635D01*
X0014168D01*
X0014123Y0030591D01*
Y0030458D01*
X0014390D01*
X0019798Y0031147D02*
Y0031280D01*
X0019843Y0031302D01*
X0019887D01*
X0019932Y0031280D01*
Y0031147D01*
X0019887Y0031124D01*
X0019843D01*
X0019665Y0031213D01*
Y0031618D02*
X0019932Y0031484D01*
Y0031662D01*
X0019798Y0031911D02*
X0019665Y0031844D01*
X0019798Y0032022D02*
Y0031889D01*
X0019843Y0031844D01*
X0019887D01*
X0019932Y0031889D01*
Y0032022D01*
X0019665D01*
X0020672Y0043997D02*
X0020583D01*
X0020627D02*
Y0044263D01*
X0020583Y0044219D01*
X0020356Y0044085D02*
X0020178D01*
X0020267Y0044263D01*
X0020312D01*
Y0043997D01*
X0019996Y0044041D02*
X0019974Y0043997D01*
X0019841D01*
X0019818Y0044041D01*
Y0044219D01*
X0019841Y0044263D01*
X0019974D01*
X0019996Y0044219D01*
X0006741Y0046663D02*
Y0046796D01*
X0006785Y0046818D01*
X0006829D01*
X0006874Y0046796D01*
Y0046663D01*
X0006829Y0046640D01*
X0006785D01*
X0006607Y0046729D01*
X0006696Y0047000D02*
Y0047178D01*
X0006874Y0047089D01*
Y0047045D01*
X0006607D01*
X0006652Y0047360D02*
X0006607Y0047383D01*
Y0047516D01*
X0006652Y0047538D01*
X0006829D01*
X0006874Y0047516D01*
Y0047383D01*
X0006829Y0047360D01*
X0006605Y0027167D02*
X0006517D01*
X0006561D02*
Y0027434D01*
X0006517Y0027389D01*
X0006290Y0027167D02*
X0006201D01*
X0006246D02*
Y0027434D01*
X0006201Y0027389D01*
X0005908Y0027301D02*
X0005974Y0027167D01*
X0005797Y0027301D02*
X0005930D01*
X0005974Y0027345D01*
Y0027389D01*
X0005930Y0027434D01*
X0005797D01*
Y0027167D01*
X0036276Y0030230D02*
X0036187D01*
X0036232D02*
Y0030497D01*
X0036187Y0030452D01*
X0035960Y0030319D02*
X0035783D01*
X0035872Y0030497D01*
X0035916D01*
Y0030230D01*
X0035534Y0030363D02*
X0035600Y0030230D01*
X0035423Y0030363D02*
X0035556D01*
X0035600Y0030408D01*
Y0030452D01*
X0035556Y0030497D01*
X0035423D01*
Y0030230D01*
X0024222Y0018187D02*
X0024355D01*
X0024378Y0018142D01*
Y0018098D01*
X0024355Y0018054D01*
X0024222D01*
X0024200Y0018098D01*
Y0018142D01*
X0024289Y0018320D01*
X0024560D02*
X0024649D01*
X0024604D02*
Y0018054D01*
X0024649Y0018098D01*
X0031441Y0033857D02*
X0031397Y0033879D01*
X0031352D01*
X0031308Y0033857D01*
Y0033724D01*
X0031352Y0033701D01*
X0031397D01*
X0031441Y0033724D01*
Y0033857D01*
X0031485Y0033879D01*
X0031530D01*
X0031574Y0033857D01*
Y0033724D01*
X0031530Y0033701D01*
X0031485D01*
X0031441Y0033724D01*
X0031574Y0033519D02*
Y0033430D01*
Y0033475D02*
X0031308D01*
X0031352Y0033430D01*
X0031530Y0033204D02*
X0031574Y0033182D01*
Y0033048D01*
X0031530Y0033026D01*
X0031352D01*
X0031308Y0033048D01*
Y0033182D01*
X0031352Y0033204D01*
X0036298Y0029738D02*
X0036320Y0029783D01*
Y0029827D01*
X0036298Y0029872D01*
X0036165D01*
X0036143Y0029827D01*
Y0029783D01*
X0036165Y0029738D01*
X0036298D01*
X0036320Y0029694D01*
Y0029649D01*
X0036298Y0029605D01*
X0036165D01*
X0036143Y0029649D01*
Y0029694D01*
X0036165Y0029738D01*
X0035805D02*
X0035938D01*
X0035960Y0029694D01*
Y0029649D01*
X0035938Y0029605D01*
X0035805D01*
X0035783Y0029649D01*
Y0029694D01*
X0035872Y0029872D01*
X0035534Y0029738D02*
X0035600Y0029605D01*
X0035423Y0029738D02*
X0035556D01*
X0035600Y0029783D01*
Y0029827D01*
X0035556Y0029872D01*
X0035423D01*
Y0029605D01*
X0039411Y0019959D02*
Y0020048D01*
Y0020004D02*
X0039678D01*
X0039633Y0020048D01*
X0039411Y0020431D02*
X0039678D01*
X0039411Y0020453D02*
Y0020319D01*
X0039500Y0020275D01*
X0039589D01*
X0039678Y0020319D01*
Y0020453D01*
X0038805Y0027189D02*
Y0027367D01*
X0038983Y0027189D01*
X0039027D01*
X0039072Y0027211D01*
Y0027344D01*
X0039027Y0027367D01*
X0018437Y0008699D02*
X0018482Y0008743D01*
Y0008832D01*
X0018437Y0008876D01*
X0018393D01*
X0018304Y0008788D01*
X0018215Y0008876D01*
Y0008699D01*
X0018482Y0008516D02*
Y0008428D01*
Y0008472D02*
X0018215D01*
X0018260Y0008428D01*
X0018215Y0008201D02*
X0018437D01*
X0018482Y0008179D01*
Y0008045D01*
X0018437Y0008023D01*
X0018215D01*
X0037158Y0040094D02*
Y0039916D01*
X0036981Y0040094D01*
X0036936D01*
X0036892Y0040072D01*
Y0039938D01*
X0036936Y0039916D01*
X0037158Y0039734D02*
Y0039578D01*
X0036892D01*
X0014193Y0004848D02*
X0014171Y0004893D01*
X0014038D01*
X0014015Y0004848D01*
Y0004759D01*
X0014060Y0004715D01*
X0014193D01*
Y0004626D01*
X0014015D01*
X0014375Y0004804D02*
X0014553D01*
X0014464Y0004626D01*
X0014420D01*
Y0004893D01*
X0014735Y0004848D02*
X0014758Y0004893D01*
X0014891D01*
X0014913Y0004848D01*
Y0004670D01*
X0014891Y0004626D01*
X0014758D01*
X0014735Y0004670D01*
X0016673Y0035238D02*
X0016695Y0035283D01*
Y0035327D01*
X0016673Y0035372D01*
X0016540D01*
X0016518Y0035327D01*
Y0035283D01*
X0016540Y0035238D01*
X0016673D01*
X0016695Y0035194D01*
Y0035149D01*
X0016673Y0035105D01*
X0016540D01*
X0016518Y0035149D01*
Y0035194D01*
X0016540Y0035238D01*
X0016158Y0035149D02*
X0016202Y0035105D01*
X0016291D01*
X0016335Y0035149D01*
Y0035194D01*
X0016247Y0035283D01*
X0016335Y0035372D01*
X0016158D01*
X0015909Y0035238D02*
X0015975Y0035105D01*
X0015798Y0035238D02*
X0015931D01*
X0015975Y0035283D01*
Y0035327D01*
X0015931Y0035372D01*
X0015798D01*
Y0035105D01*
X0024141Y0015695D02*
X0024186Y0015651D01*
X0024208Y0015606D01*
Y0015517D01*
X0024186Y0015473D01*
X0024141Y0015428D01*
X0024097D01*
X0024053Y0015473D01*
X0024030Y0015517D01*
Y0015606D01*
X0024053Y0015651D01*
X0024097Y0015695D01*
X0024141D01*
X0024390D02*
X0024568D01*
X0024390Y0015517D01*
Y0015473D01*
X0024413Y0015428D01*
X0024546D01*
X0024568Y0015473D01*
X0038205Y0028241D02*
Y0028063D01*
X0038027Y0028241D01*
X0037983D01*
X0037938Y0028219D01*
Y0028086D01*
X0037983Y0028063D01*
X0005026Y0048658D02*
X0005070Y0048680D01*
Y0048814D01*
X0005026Y0048836D01*
X0004937D01*
X0004892Y0048791D01*
Y0048658D01*
X0004803D01*
Y0048836D01*
X0005070Y0048365D02*
X0005026Y0048320D01*
X0004981Y0048298D01*
X0004892D01*
X0004848Y0048320D01*
X0004803Y0048365D01*
Y0048409D01*
X0004848Y0048454D01*
X0004892Y0048476D01*
X0004981D01*
X0005026Y0048454D01*
X0005070Y0048409D01*
Y0048365D01*
Y0048116D02*
Y0048027D01*
Y0048072D02*
X0004803D01*
X0004848Y0048027D01*
X0004937Y0047734D02*
X0005070Y0047800D01*
X0004937Y0047623D02*
Y0047756D01*
X0004892Y0047800D01*
X0004848D01*
X0004803Y0047756D01*
Y0047623D01*
X0005070D01*
X0001775Y0043555D02*
X0001909Y0043822D01*
X0001731D01*
X0001549Y0043555D02*
X0001460D01*
X0001504D02*
Y0043822D01*
X0001460Y0043777D01*
X0001078Y0043644D02*
Y0043599D01*
X0001100Y0043555D01*
X0001189D01*
X0001211Y0043599D01*
Y0043822D01*
X0001233D02*
X0001144D01*
X0009652Y0039498D02*
X0009696Y0039453D01*
X0009718Y0039409D01*
Y0039320D01*
X0009696Y0039275D01*
X0009652Y0039231D01*
X0009607D01*
X0009563Y0039275D01*
X0009540Y0039320D01*
Y0039409D01*
X0009563Y0039453D01*
X0009607Y0039498D01*
X0009652D01*
X0010078Y0039453D02*
X0010034Y0039498D01*
X0009945D01*
X0009900Y0039453D01*
Y0039409D01*
X0009989Y0039320D01*
X0009900Y0039231D01*
X0010078D01*
X0010260Y0039453D02*
X0010283Y0039498D01*
X0010416D01*
X0010438Y0039453D01*
Y0039275D01*
X0010416Y0039231D01*
X0010283D01*
X0010260Y0039275D01*
X0001059Y0047213D02*
X0001103Y0047258D01*
Y0047347D01*
X0001059Y0047391D01*
X0001014D01*
X0000926Y0047302D01*
X0000837Y0047391D01*
Y0047213D01*
X0000970Y0046964D02*
X0001103Y0047031D01*
X0000970Y0046853D02*
Y0046987D01*
X0000926Y0047031D01*
X0000881D01*
X0000837Y0046987D01*
Y0046853D01*
X0001103D01*
X0029591Y0024553D02*
X0029635Y0024575D01*
Y0024708D01*
X0029591Y0024730D01*
X0029502D01*
X0029457Y0024686D01*
Y0024553D01*
X0029368D01*
Y0024730D01*
X0029635Y0024370D02*
Y0024193D01*
X0029457Y0024370D01*
X0029413D01*
X0029368Y0024348D01*
Y0024215D01*
X0029413Y0024193D01*
X0029591Y0024010D02*
X0029635Y0023988D01*
Y0023855D01*
X0029591Y0023833D01*
X0029413D01*
X0029368Y0023855D01*
Y0023988D01*
X0029413Y0024010D01*
X0032354Y0020274D02*
Y0020452D01*
X0032532Y0020363D01*
Y0020319D01*
X0032265D01*
Y0020768D02*
X0032532Y0020634D01*
Y0020812D01*
X0032398Y0021061D02*
X0032265Y0020994D01*
X0032398Y0021172D02*
Y0021039D01*
X0032443Y0020994D01*
X0032487D01*
X0032532Y0021039D01*
Y0021172D01*
X0032265D01*
X0030740Y0033938D02*
X0030873D01*
X0030895Y0033894D01*
Y0033849D01*
X0030873Y0033805D01*
X0030740D01*
X0030718Y0033849D01*
Y0033894D01*
X0030807Y0034072D01*
X0030535Y0033894D02*
X0030358D01*
X0030447Y0034072D01*
X0030491D01*
Y0033805D01*
X0030109Y0033938D02*
X0030175Y0033805D01*
X0029998Y0033938D02*
X0030131D01*
X0030175Y0033983D01*
Y0034027D01*
X0030131Y0034072D01*
X0029998D01*
Y0033805D01*
X0008551Y0004682D02*
Y0004815D01*
X0008595Y0004837D01*
X0008639D01*
X0008684Y0004815D01*
Y0004682D01*
X0008639Y0004659D01*
X0008595D01*
X0008417Y0004748D01*
Y0005019D02*
Y0005108D01*
Y0005064D02*
X0008684D01*
X0008639Y0005108D01*
X0008417Y0005335D02*
Y0005424D01*
Y0005379D02*
X0008684D01*
X0008639Y0005424D01*
X0008551Y0005717D02*
X0008417Y0005650D01*
X0008551Y0005828D02*
Y0005695D01*
X0008595Y0005650D01*
X0008639D01*
X0008684Y0005695D01*
Y0005828D01*
X0008417D01*
X0014579Y0023438D02*
X0014445D01*
X0014423Y0023483D01*
Y0023527D01*
X0014445Y0023572D01*
X0014579D01*
X0014601Y0023527D01*
Y0023483D01*
X0014512Y0023305D01*
X0014241D02*
X0014152D01*
X0014197D02*
Y0023572D01*
X0014152Y0023527D01*
X0013859Y0023438D02*
X0013925Y0023305D01*
X0013748Y0023438D02*
X0013881D01*
X0013925Y0023483D01*
Y0023527D01*
X0013881Y0023572D01*
X0013748D01*
Y0023305D01*
X0017987Y0042993D02*
Y0042860D01*
X0017942Y0042838D01*
X0017898D01*
X0017854Y0042860D01*
Y0042993D01*
X0017898Y0043015D01*
X0017942D01*
X0018120Y0042927D01*
X0018076Y0042478D02*
X0018120Y0042522D01*
Y0042611D01*
X0018076Y0042655D01*
X0018031D01*
X0017942Y0042567D01*
X0017854Y0042655D01*
Y0042478D01*
X0018076Y0042295D02*
X0018120Y0042273D01*
Y0042140D01*
X0018076Y0042118D01*
X0017898D01*
X0017854Y0042140D01*
Y0042273D01*
X0017898Y0042295D01*
X0017616Y0010458D02*
X0017660Y0010480D01*
Y0010613D01*
X0017616Y0010635D01*
X0017527D01*
X0017482Y0010591D01*
Y0010458D01*
X0017393D01*
Y0010635D01*
X0017616Y0010098D02*
X0017660Y0010120D01*
Y0010253D01*
X0017616Y0010275D01*
X0017527D01*
X0017482Y0010231D01*
Y0010098D01*
X0017393D01*
Y0010275D01*
X0017616Y0009915D02*
X0017660Y0009893D01*
Y0009760D01*
X0017616Y0009738D01*
X0017438D01*
X0017393Y0009760D01*
Y0009893D01*
X0017438Y0009915D01*
X0039769Y0026282D02*
Y0026460D01*
X0039946Y0026371D01*
Y0026326D01*
X0039680D01*
X0039769Y0026797D02*
X0039724D01*
X0039680Y0026775D01*
Y0026686D01*
X0039724Y0026664D01*
X0039946D01*
Y0026642D02*
Y0026731D01*
X0019635Y0027776D02*
X0019679Y0027820D01*
X0019724Y0027842D01*
X0019813D01*
X0019857Y0027820D01*
X0019902Y0027776D01*
Y0027731D01*
X0019857Y0027687D01*
X0019813Y0027664D01*
X0019724D01*
X0019679Y0027687D01*
X0019635Y0027731D01*
Y0027776D01*
X0019768Y0028047D02*
X0019813Y0028024D01*
X0019857D01*
X0019902Y0028047D01*
Y0028180D01*
X0019857Y0028202D01*
X0019813D01*
X0019768Y0028180D01*
Y0028047D01*
X0019724Y0028024D01*
X0019679D01*
X0019635Y0028047D01*
Y0028180D01*
X0019679Y0028202D01*
X0019724D01*
X0019768Y0028180D01*
Y0028451D02*
X0019635Y0028384D01*
X0019768Y0028562D02*
Y0028429D01*
X0019813Y0028384D01*
X0019857D01*
X0019902Y0028429D01*
Y0028562D01*
X0019635D01*
X0021770Y0026805D02*
X0021593D01*
X0021770Y0026983D01*
Y0027027D01*
X0021748Y0027072D01*
X0021615D01*
X0021593Y0027027D01*
X0021410Y0026894D02*
X0021233D01*
X0021322Y0027072D01*
X0021366D01*
Y0026805D01*
X0020984Y0026938D02*
X0021050Y0026805D01*
X0020873Y0026938D02*
X0021006D01*
X0021050Y0026983D01*
Y0027027D01*
X0021006Y0027072D01*
X0020873D01*
Y0026805D01*
X0017183Y0032256D02*
X0017161Y0032300D01*
X0017028D01*
X0017006Y0032256D01*
Y0032167D01*
X0017050Y0032123D01*
X0017183D01*
Y0032034D01*
X0017006D01*
X0017366Y0032300D02*
X0017454D01*
X0017410D02*
Y0032034D01*
X0017454Y0032078D01*
X0017681Y0032034D02*
Y0032256D01*
X0017703Y0032300D01*
X0017837D01*
X0017859Y0032256D01*
Y0032034D01*
X0023637Y0038915D02*
Y0039048D01*
X0023681Y0039070D01*
X0023726D01*
X0023770Y0039048D01*
Y0038915D01*
X0023726Y0038893D01*
X0023681D01*
X0023503Y0038982D01*
X0023726Y0038533D02*
X0023770Y0038577D01*
Y0038666D01*
X0023726Y0038710D01*
X0023681D01*
X0023592Y0038622D01*
X0023503Y0038710D01*
Y0038533D01*
X0023637Y0038284D02*
X0023770Y0038350D01*
X0023637Y0038173D02*
Y0038306D01*
X0023592Y0038350D01*
X0023548D01*
X0023503Y0038306D01*
Y0038173D01*
X0023770D01*
X0021695Y0032355D02*
X0021518D01*
X0021695Y0032533D01*
Y0032577D01*
X0021673Y0032622D01*
X0021540D01*
X0021518Y0032577D01*
X0021202Y0032355D02*
X0021335Y0032622D01*
X0021158D01*
X0020909Y0032488D02*
X0020975Y0032355D01*
X0020798Y0032488D02*
X0020931D01*
X0020975Y0032533D01*
Y0032577D01*
X0020931Y0032622D01*
X0020798D01*
Y0032355D01*
X0039062Y0039090D02*
Y0038957D01*
X0039017Y0038935D01*
X0038973D01*
X0038929Y0038957D01*
Y0039090D01*
X0038973Y0039113D01*
X0039017D01*
X0039195Y0039024D01*
Y0038753D02*
Y0038664D01*
Y0038708D02*
X0038929D01*
X0038973Y0038664D01*
X0015798Y0017849D02*
X0015820Y0017805D01*
X0015954D01*
X0015976Y0017849D01*
Y0017938D01*
X0015931Y0017983D01*
X0015798D01*
Y0018072D01*
X0015976D01*
X0015616Y0017805D02*
X0015527D01*
X0015572D02*
Y0018072D01*
X0015527Y0018027D01*
X0015234Y0017938D02*
X0015300Y0017805D01*
X0015123Y0017938D02*
X0015256D01*
X0015300Y0017983D01*
Y0018027D01*
X0015256Y0018072D01*
X0015123D01*
Y0017805D01*
X0023231Y0039020D02*
Y0038843D01*
X0023053Y0038932D01*
Y0038976D01*
X0023320D01*
X0023276Y0038483D02*
X0023320Y0038505D01*
Y0038638D01*
X0023276Y0038660D01*
X0023187D01*
X0023142Y0038616D01*
Y0038483D01*
X0023053D01*
Y0038660D01*
X0023187Y0038234D02*
X0023320Y0038300D01*
X0023187Y0038123D02*
Y0038256D01*
X0023142Y0038300D01*
X0023098D01*
X0023053Y0038256D01*
Y0038123D01*
X0023320D01*
X0027554Y0013375D02*
X0027332D01*
X0027554Y0013597D01*
Y0013653D01*
X0027526Y0013708D01*
X0027359D01*
X0027332Y0013653D01*
X0027144Y0013375D02*
X0027033D01*
X0027088D02*
Y0013708D01*
X0027033Y0013653D01*
X0026789Y0013708D02*
Y0013431D01*
X0026762Y0013375D01*
X0026595D01*
X0026567Y0013431D01*
Y0013708D01*
X0010953Y0045587D02*
X0010864D01*
X0010908D02*
Y0045853D01*
X0010864Y0045809D01*
X0010637Y0045587D02*
X0010548D01*
X0010593D02*
Y0045853D01*
X0010548Y0045809D01*
X0010322Y0045587D02*
X0010233D01*
X0010277D02*
Y0045853D01*
X0010233Y0045809D01*
X0009939Y0045720D02*
X0010006Y0045587D01*
X0009828Y0045720D02*
X0009962D01*
X0010006Y0045764D01*
Y0045809D01*
X0009962Y0045853D01*
X0009828D01*
Y0045587D01*
X0034171Y0017445D02*
X0034260D01*
X0034215D02*
Y0017179D01*
X0034260Y0017223D01*
X0030824Y0032754D02*
Y0032665D01*
Y0032710D02*
X0030558D01*
X0030602Y0032665D01*
X0030824Y0032439D02*
Y0032261D01*
X0030647Y0032439D01*
X0030602D01*
X0030558Y0032417D01*
Y0032283D01*
X0030602Y0032261D01*
X0030780Y0032079D02*
X0030824Y0032057D01*
Y0031923D01*
X0030780Y0031901D01*
X0030602D01*
X0030558Y0031923D01*
Y0032057D01*
X0030602Y0032079D01*
X0020938Y0005693D02*
X0020983Y0005715D01*
Y0005848D01*
X0020938Y0005870D01*
X0020849D01*
X0020805Y0005826D01*
Y0005693D01*
X0020716D01*
Y0005870D01*
X0020983Y0005510D02*
Y0005422D01*
Y0005466D02*
X0020716D01*
X0020760Y0005422D01*
X0020983Y0005195D02*
Y0005106D01*
Y0005151D02*
X0020716D01*
X0020760Y0005106D01*
X0020849Y0004813D02*
X0020983Y0004879D01*
X0020849Y0004702D02*
Y0004835D01*
X0020805Y0004879D01*
X0020760D01*
X0020716Y0004835D01*
Y0004702D01*
X0020983D01*
X0033329Y0015497D02*
X0033196D01*
X0033174Y0015541D01*
Y0015586D01*
X0033196Y0015630D01*
X0033329D01*
X0033352Y0015586D01*
Y0015541D01*
X0033263Y0015364D01*
X0033534Y0015630D02*
X0033623D01*
X0033578D02*
Y0015364D01*
X0033623Y0015408D01*
X0034005Y0015541D02*
Y0015586D01*
X0033983Y0015630D01*
X0033894D01*
X0033871Y0015586D01*
Y0015364D01*
X0033849D02*
X0033938D01*
X0021468Y0030849D02*
X0021490Y0030805D01*
X0021623D01*
X0021645Y0030849D01*
Y0030938D01*
X0021601Y0030983D01*
X0021468D01*
Y0031072D01*
X0021645D01*
X0021285Y0030894D02*
X0021108D01*
X0021197Y0031072D01*
X0021241D01*
Y0030805D01*
X0020859Y0030938D02*
X0020925Y0030805D01*
X0020748Y0030938D02*
X0020881D01*
X0020925Y0030983D01*
Y0031027D01*
X0020881Y0031072D01*
X0020748D01*
Y0030805D01*
X0020060Y0033639D02*
X0019883D01*
X0019972Y0033817D01*
X0020016D01*
Y0033550D01*
X0019523Y0033594D02*
X0019567Y0033550D01*
X0019656D01*
X0019700Y0033594D01*
Y0033639D01*
X0019612Y0033728D01*
X0019700Y0033817D01*
X0019523D01*
X0019340Y0033594D02*
X0019318Y0033550D01*
X0019185D01*
X0019163Y0033594D01*
Y0033772D01*
X0019185Y0033817D01*
X0019318D01*
X0019340Y0033772D01*
X0036306Y0004364D02*
X0036483D01*
X0036306Y0004187D01*
Y0004142D01*
X0036328Y0004098D01*
X0036461D01*
X0036483Y0004142D01*
X0036666Y0004364D02*
X0036754D01*
X0036710D02*
Y0004098D01*
X0036754Y0004142D01*
X0037048Y0004231D02*
X0036981Y0004364D01*
X0037159Y0004231D02*
X0037026D01*
X0036981Y0004187D01*
Y0004142D01*
X0037026Y0004098D01*
X0037159D01*
Y0004364D01*
X0038436Y0004449D02*
X0038614D01*
X0038436Y0004272D01*
Y0004227D01*
X0038458Y0004183D01*
X0038592D01*
X0038614Y0004227D01*
X0038796Y0004405D02*
X0038818Y0004449D01*
X0038952D01*
X0038974Y0004405D01*
Y0004227D01*
X0038952Y0004183D01*
X0038818D01*
X0038796Y0004227D01*
X0013895Y0048177D02*
Y0047999D01*
X0013717Y0048177D01*
X0013673D01*
X0013629Y0048155D01*
Y0048022D01*
X0013673Y0047999D01*
X0013895Y0047817D02*
Y0047684D01*
X0013629Y0047817D01*
Y0047684D01*
X0013895Y0047324D02*
X0013629D01*
X0013895Y0047302D02*
Y0047435D01*
X0013806Y0047479D01*
X0013717D01*
X0013629Y0047435D01*
Y0047302D01*
X0004911Y0053528D02*
Y0053694D01*
X0005022Y0053861D02*
X0004939Y0053694D01*
X0004883D01*
X0004800Y0053861D01*
X0004612Y0053528D02*
X0004418D01*
Y0053861D01*
X0004008Y0053694D02*
X0004174D01*
X0004230Y0053750D01*
Y0053805D01*
X0004174Y0053861D01*
X0004008D01*
Y0053528D01*
X0003598Y0053694D02*
X0003764D01*
X0003820Y0053750D01*
Y0053805D01*
X0003764Y0053861D01*
X0003598D01*
Y0053528D01*
X0003410Y0053861D02*
Y0053583D01*
X0003382Y0053528D01*
X0003215D01*
X0003188Y0053583D01*
Y0053861D01*
X0003000Y0053805D02*
X0002972Y0053861D01*
X0002805D01*
X0002778Y0053805D01*
Y0053750D01*
X0002805Y0053694D01*
X0002972D01*
X0003000Y0053639D01*
Y0053583D01*
X0002972Y0053528D01*
X0002805D01*
X0002778Y0053583D01*
X0021673Y0034238D02*
X0021540D01*
X0021518Y0034283D01*
Y0034327D01*
X0021540Y0034372D01*
X0021673D01*
X0021695Y0034327D01*
Y0034283D01*
X0021607Y0034105D01*
X0021335Y0034194D02*
X0021158D01*
X0021247Y0034372D01*
X0021291D01*
Y0034105D01*
X0020909Y0034238D02*
X0020975Y0034105D01*
X0020798Y0034238D02*
X0020931D01*
X0020975Y0034283D01*
Y0034327D01*
X0020931Y0034372D01*
X0020798D01*
Y0034105D01*
X0005895Y0006394D02*
X0005718D01*
X0005807Y0006572D01*
X0005851D01*
Y0006305D01*
X0005358Y0006349D02*
X0005402Y0006305D01*
X0005491D01*
X0005535Y0006349D01*
Y0006394D01*
X0005447Y0006483D01*
X0005535Y0006572D01*
X0005358D01*
X0005109Y0006438D02*
X0005175Y0006305D01*
X0004998Y0006438D02*
X0005131D01*
X0005175Y0006483D01*
Y0006527D01*
X0005131Y0006572D01*
X0004998D01*
Y0006305D01*
X0014593Y0021305D02*
X0014726Y0021572D01*
X0014548D01*
X0014366Y0021305D02*
X0014277D01*
X0014322D02*
Y0021572D01*
X0014277Y0021527D01*
X0013984Y0021438D02*
X0014050Y0021305D01*
X0013873Y0021438D02*
X0014006D01*
X0014050Y0021483D01*
Y0021527D01*
X0014006Y0021572D01*
X0013873D01*
Y0021305D01*
X0010863Y0047926D02*
X0010729D01*
X0010707Y0047970D01*
Y0048014D01*
X0010729Y0048059D01*
X0010863D01*
X0010885Y0048014D01*
Y0047970D01*
X0010796Y0047792D01*
X0010414D02*
X0010369Y0047837D01*
X0010347Y0047881D01*
Y0047970D01*
X0010369Y0048014D01*
X0010414Y0048059D01*
X0010458D01*
X0010503Y0048014D01*
X0010525Y0047970D01*
Y0047881D01*
X0010503Y0047837D01*
X0010458Y0047792D01*
X0010414D01*
X0010165D02*
X0010076D01*
X0010121D02*
Y0048059D01*
X0010076Y0048014D01*
X0009783Y0047926D02*
X0009849Y0047792D01*
X0009672Y0047926D02*
X0009805D01*
X0009849Y0047970D01*
Y0048014D01*
X0009805Y0048059D01*
X0009672D01*
Y0047792D01*
X0001288Y0045991D02*
Y0045813D01*
X0001111Y0045991D01*
X0001066D01*
X0001022Y0045969D01*
Y0045836D01*
X0001066Y0045813D01*
X0001155Y0045564D02*
X0001288Y0045631D01*
X0001155Y0045453D02*
Y0045587D01*
X0001111Y0045631D01*
X0001066D01*
X0001022Y0045587D01*
Y0045453D01*
X0001288D01*
X0005123Y0007410D02*
Y0007277D01*
X0005079Y0007254D01*
X0005034D01*
X0004990Y0007277D01*
Y0007410D01*
X0005034Y0007432D01*
X0005079D01*
X0005257Y0007343D01*
X0005034Y0007614D02*
X0004990Y0007637D01*
Y0007770D01*
X0005034Y0007792D01*
X0005212D01*
X0005257Y0007770D01*
Y0007637D01*
X0005212Y0007614D01*
X0018788Y0023134D02*
X0018921D01*
X0018943Y0023090D01*
Y0023045D01*
X0018921Y0023001D01*
X0018788D01*
X0018765Y0023045D01*
Y0023090D01*
X0018854Y0023268D01*
X0019303Y0023223D02*
X0019281Y0023268D01*
X0019148D01*
X0019125Y0023223D01*
Y0023134D01*
X0019170Y0023090D01*
X0019303D01*
Y0023001D01*
X0019125D01*
X0019485Y0023223D02*
X0019508Y0023268D01*
X0019641D01*
X0019663Y0023223D01*
Y0023045D01*
X0019641Y0023001D01*
X0019508D01*
X0019485Y0023045D01*
X0040444Y0035570D02*
Y0035737D01*
X0040389Y0035792D01*
X0040333D01*
X0040278Y0035737D01*
Y0035570D01*
X0040611D01*
Y0035382D02*
X0040278Y0035215D01*
Y0035382D02*
X0040611Y0035215D01*
X0040444Y0034944D02*
Y0034778D01*
X0040611Y0035000D02*
Y0034778D01*
X0040278D01*
Y0035000D01*
X0036660Y0002652D02*
Y0002430D01*
X0036438Y0002652D01*
X0036382D01*
X0036327Y0002624D01*
Y0002457D01*
X0036382Y0002430D01*
X0036493Y0002242D02*
Y0002020D01*
X0036660Y0001832D02*
X0036327D01*
X0036382Y0001776D01*
X0036493Y0001721D01*
X0036382Y0001665D01*
X0036327Y0001610D01*
X0036660D01*
X0036382Y0001422D02*
X0036327Y0001394D01*
Y0001227D01*
X0036382Y0001200D01*
X0036438D01*
X0036493Y0001227D01*
Y0001394D01*
X0036549Y0001422D01*
X0036604D01*
X0036660Y0001394D01*
Y0001227D01*
X0036604Y0001200D01*
X0036660Y0000817D02*
X0036327D01*
X0036660Y0000790D02*
Y0000956D01*
X0036604Y0001012D01*
X0036549D01*
X0036493Y0000984D01*
Y0000817D02*
Y0000984D01*
X0036438Y0001012D01*
X0036382D01*
X0036327Y0000956D01*
Y0000790D01*
X0006235Y0025064D02*
X0006058D01*
X0006147Y0025242D01*
X0006191D01*
Y0024975D01*
X0005787Y0025064D02*
X0005875Y0024975D01*
X0005698Y0025019D02*
X0005720Y0024975D01*
X0005809D01*
X0005831Y0025019D01*
X0005875Y0025064D01*
Y0025197D01*
X0005853Y0025242D01*
X0005720D01*
X0005698Y0025197D01*
Y0025019D01*
X0019079Y0005889D02*
Y0005712D01*
X0018901Y0005801D01*
Y0005845D01*
X0019168D01*
X0019123Y0005352D02*
X0019168Y0005374D01*
Y0005507D01*
X0019123Y0005529D01*
X0019034D01*
X0018990Y0005485D01*
Y0005352D01*
X0018901D01*
Y0005529D01*
X0019123Y0005169D02*
X0019168Y0005147D01*
Y0005014D01*
X0019123Y0004992D01*
X0018945D01*
X0018901Y0005014D01*
Y0005147D01*
X0018945Y0005169D01*
X0021726Y0033055D02*
X0021637D01*
X0021682D02*
Y0033322D01*
X0021637Y0033277D01*
X0021255Y0033188D02*
X0021388D01*
X0021410Y0033144D01*
Y0033099D01*
X0021388Y0033055D01*
X0021255D01*
X0021233Y0033099D01*
Y0033144D01*
X0021322Y0033322D01*
X0020984Y0033188D02*
X0021050Y0033055D01*
X0020873Y0033188D02*
X0021006D01*
X0021050Y0033233D01*
Y0033277D01*
X0021006Y0033322D01*
X0020873D01*
Y0033055D01*
X0008982Y0008890D02*
Y0009068D01*
X0009160Y0008890D01*
X0009204D01*
X0009249Y0008913D01*
Y0009046D01*
X0009204Y0009068D01*
X0009027Y0009428D02*
X0008982Y0009406D01*
Y0009273D01*
X0009027Y0009250D01*
X0009116D01*
X0009160Y0009295D01*
Y0009428D01*
X0009249D01*
Y0009250D01*
X0009027Y0009610D02*
X0008982Y0009633D01*
Y0009766D01*
X0009027Y0009788D01*
X0009204D01*
X0009249Y0009766D01*
Y0009633D01*
X0009204Y0009610D01*
X0029026Y0038843D02*
X0029070Y0038887D01*
Y0038976D01*
X0029026Y0039020D01*
X0028981D01*
X0028892Y0038932D01*
X0028803Y0039020D01*
Y0038843D01*
X0028937Y0038505D02*
Y0038638D01*
X0028981Y0038660D01*
X0029026D01*
X0029070Y0038638D01*
Y0038505D01*
X0029026Y0038483D01*
X0028981D01*
X0028803Y0038572D01*
X0028937Y0038234D02*
X0029070Y0038300D01*
X0028937Y0038123D02*
Y0038256D01*
X0028892Y0038300D01*
X0028848D01*
X0028803Y0038256D01*
Y0038123D01*
X0029070D01*
X0039057Y0041902D02*
X0039101Y0041857D01*
X0039190D01*
X0039234Y0041902D01*
Y0041946D01*
X0039146Y0042035D01*
X0039234Y0042124D01*
X0039057D01*
X0038874Y0041946D02*
X0038697D01*
X0038786Y0042124D01*
X0038830D01*
Y0041857D01*
X0038514Y0041902D02*
X0038492Y0041857D01*
X0038359D01*
X0038337Y0041902D01*
Y0042079D01*
X0038359Y0042124D01*
X0038492D01*
X0038514Y0042079D01*
X0021730Y0027704D02*
X0021553D01*
X0021642Y0027882D01*
X0021686D01*
Y0027615D01*
X0021370D02*
X0021193D01*
X0021370Y0027793D01*
Y0027837D01*
X0021348Y0027882D01*
X0021215D01*
X0021193Y0027837D01*
X0021010Y0027659D02*
X0020988Y0027615D01*
X0020855D01*
X0020833Y0027659D01*
Y0027837D01*
X0020855Y0027882D01*
X0020988D01*
X0021010Y0027837D01*
X0039195Y0028267D02*
Y0028178D01*
Y0028222D02*
X0038929D01*
X0038973Y0028178D01*
X0017123Y0008402D02*
Y0008535D01*
X0017168Y0008557D01*
X0017212D01*
X0017257Y0008535D01*
Y0008402D01*
X0017212Y0008379D01*
X0017168D01*
X0016990Y0008468D01*
X0017034Y0008739D02*
X0016990Y0008762D01*
Y0008895D01*
X0017034Y0008917D01*
X0017212D01*
X0017257Y0008895D01*
Y0008762D01*
X0017212Y0008739D01*
X0039837Y0028630D02*
X0039792Y0028608D01*
Y0028474D01*
X0039837Y0028452D01*
X0039926D01*
X0039970Y0028497D01*
Y0028630D01*
X0040059D01*
Y0028452D01*
X0039792Y0028812D02*
Y0028901D01*
Y0028857D02*
X0040059D01*
X0040015Y0028901D01*
X0039881Y0029283D02*
X0039837D01*
X0039792Y0029261D01*
Y0029172D01*
X0039837Y0029150D01*
X0040059D01*
Y0029128D02*
Y0029217D01*
X0004226Y0012277D02*
X0004182Y0012299D01*
X0004137D01*
X0004093Y0012277D01*
Y0012143D01*
X0004137Y0012121D01*
X0004182D01*
X0004226Y0012143D01*
Y0012277D01*
X0004270Y0012299D01*
X0004315D01*
X0004359Y0012277D01*
Y0012143D01*
X0004315Y0012121D01*
X0004270D01*
X0004226Y0012143D01*
X0004315Y0011761D02*
X0004359Y0011783D01*
Y0011917D01*
X0004315Y0011939D01*
X0004226D01*
X0004182Y0011894D01*
Y0011761D01*
X0004093D01*
Y0011939D01*
X0004315Y0011579D02*
X0004359Y0011557D01*
Y0011423D01*
X0004315Y0011401D01*
X0004137D01*
X0004093Y0011423D01*
Y0011557D01*
X0004137Y0011579D01*
X0019893Y0052662D02*
X0020026Y0052928D01*
X0019848D01*
X0019644Y0052795D02*
X0019666Y0052839D01*
Y0052884D01*
X0019644Y0052928D01*
X0019511D01*
X0019488Y0052884D01*
Y0052839D01*
X0019511Y0052795D01*
X0019644D01*
X0019666Y0052750D01*
Y0052706D01*
X0019644Y0052662D01*
X0019511D01*
X0019488Y0052706D01*
Y0052750D01*
X0019511Y0052795D01*
X0019239D02*
X0019306Y0052662D01*
X0019128Y0052795D02*
X0019262D01*
X0019306Y0052839D01*
Y0052884D01*
X0019262Y0052928D01*
X0019128D01*
Y0052662D01*
X0009027Y0043768D02*
X0008894D01*
X0008872Y0043813D01*
Y0043857D01*
X0008894Y0043902D01*
X0009027D01*
X0009049Y0043857D01*
Y0043813D01*
X0008961Y0043635D01*
X0008689D02*
X0008512D01*
X0008689Y0043813D01*
Y0043857D01*
X0008667Y0043902D01*
X0008534D01*
X0008512Y0043857D01*
X0008329Y0043679D02*
X0008307Y0043635D01*
X0008174D01*
X0008152Y0043679D01*
Y0043857D01*
X0008174Y0043902D01*
X0008307D01*
X0008329Y0043857D01*
X0036106Y0019285D02*
Y0019108D01*
X0035928Y0019197D01*
Y0019241D01*
X0036195D01*
X0036062Y0018859D02*
X0036195Y0018925D01*
X0036062Y0018748D02*
Y0018881D01*
X0036017Y0018925D01*
X0035973D01*
X0035928Y0018881D01*
Y0018748D01*
X0036195D01*
X0021708Y0028498D02*
X0021730Y0028543D01*
Y0028587D01*
X0021708Y0028632D01*
X0021575D01*
X0021553Y0028587D01*
Y0028543D01*
X0021575Y0028498D01*
X0021708D01*
X0021730Y0028454D01*
Y0028409D01*
X0021708Y0028365D01*
X0021575D01*
X0021553Y0028409D01*
Y0028454D01*
X0021575Y0028498D01*
X0021370Y0028365D02*
X0021193D01*
X0021370Y0028543D01*
Y0028587D01*
X0021348Y0028632D01*
X0021215D01*
X0021193Y0028587D01*
X0021010Y0028409D02*
X0020988Y0028365D01*
X0020855D01*
X0020833Y0028409D01*
Y0028587D01*
X0020855Y0028632D01*
X0020988D01*
X0021010Y0028587D01*
X0004447Y0035402D02*
X0004491Y0035357D01*
X0004580D01*
X0004624Y0035402D01*
Y0035446D01*
X0004536Y0035535D01*
X0004624Y0035624D01*
X0004447D01*
X0004264Y0035402D02*
X0004242Y0035357D01*
X0004109D01*
X0004087Y0035402D01*
Y0035579D01*
X0004109Y0035624D01*
X0004242D01*
X0004264Y0035579D01*
X0006158Y0014724D02*
X0006203Y0014680D01*
X0006291D01*
X0006336Y0014724D01*
Y0014769D01*
X0006247Y0014858D01*
X0006336Y0014947D01*
X0006158D01*
X0005865Y0014680D02*
X0005820Y0014724D01*
X0005798Y0014769D01*
Y0014858D01*
X0005820Y0014902D01*
X0005865Y0014947D01*
X0005909D01*
X0005954Y0014902D01*
X0005976Y0014858D01*
Y0014769D01*
X0005954Y0014724D01*
X0005909Y0014680D01*
X0005865D01*
X0005616D02*
X0005527D01*
X0005572D02*
Y0014947D01*
X0005527Y0014902D01*
X0005234Y0014813D02*
X0005300Y0014680D01*
X0005123Y0014813D02*
X0005256D01*
X0005300Y0014858D01*
Y0014902D01*
X0005256Y0014947D01*
X0005123D01*
Y0014680D01*
X0010012Y0014312D02*
X0009879D01*
X0009857Y0014356D01*
Y0014401D01*
X0009879Y0014445D01*
X0010012D01*
X0010035Y0014401D01*
Y0014356D01*
X0009946Y0014179D01*
X0010217Y0014445D02*
X0010372D01*
Y0014179D01*
X0006794Y0031167D02*
X0006705D01*
X0006750D02*
Y0031434D01*
X0006705Y0031390D01*
X0005857Y0004759D02*
X0006124Y0004625D01*
Y0004803D01*
X0005902Y0004985D02*
X0005857Y0005008D01*
Y0005141D01*
X0005902Y0005163D01*
X0006079D01*
X0006124Y0005141D01*
Y0005008D01*
X0006079Y0004985D01*
X0007210Y0031926D02*
X0007077D01*
X0007054Y0031970D01*
Y0032014D01*
X0007077Y0032059D01*
X0007210D01*
X0007232Y0032014D01*
Y0031970D01*
X0007143Y0031792D01*
X0006717Y0031881D02*
Y0031837D01*
X0006739Y0031792D01*
X0006828D01*
X0006850Y0031837D01*
Y0032059D01*
X0006872D02*
X0006783D01*
X0017704Y0022188D02*
X0017726Y0022233D01*
Y0022277D01*
X0017704Y0022322D01*
X0017570D01*
X0017548Y0022277D01*
Y0022233D01*
X0017570Y0022188D01*
X0017704D01*
X0017726Y0022144D01*
Y0022099D01*
X0017704Y0022055D01*
X0017570D01*
X0017548Y0022099D01*
Y0022144D01*
X0017570Y0022188D01*
X0017366Y0022055D02*
X0017277D01*
X0017322D02*
Y0022322D01*
X0017277Y0022277D01*
X0016984Y0022188D02*
X0017050Y0022055D01*
X0016873Y0022188D02*
X0017006D01*
X0017050Y0022233D01*
Y0022277D01*
X0017006Y0022322D01*
X0016873D01*
Y0022055D01*
X0020355Y0026272D02*
X0020399Y0026316D01*
X0020444Y0026338D01*
X0020532D01*
X0020577Y0026316D01*
X0020621Y0026272D01*
Y0026227D01*
X0020577Y0026183D01*
X0020532Y0026160D01*
X0020444D01*
X0020399Y0026183D01*
X0020355Y0026227D01*
Y0026272D01*
X0020488Y0026676D02*
Y0026543D01*
X0020444Y0026520D01*
X0020399D01*
X0020355Y0026543D01*
Y0026676D01*
X0020399Y0026698D01*
X0020444D01*
X0020621Y0026609D01*
X0020399Y0026880D02*
X0020355Y0026903D01*
Y0027036D01*
X0020399Y0027058D01*
X0020577D01*
X0020621Y0027036D01*
Y0026903D01*
X0020577Y0026880D01*
X0017595Y0005929D02*
Y0005796D01*
X0017550Y0005774D01*
X0017506D01*
X0017462Y0005796D01*
Y0005929D01*
X0017506Y0005952D01*
X0017550D01*
X0017728Y0005863D01*
X0017595Y0006156D02*
Y0006289D01*
X0017639Y0006312D01*
X0017684D01*
X0017728Y0006289D01*
Y0006156D01*
X0017684Y0006134D01*
X0017639D01*
X0017462Y0006223D01*
X0017595Y0006560D02*
X0017462Y0006494D01*
X0017595Y0006672D02*
Y0006538D01*
X0017639Y0006494D01*
X0017684D01*
X0017728Y0006538D01*
Y0006672D01*
X0017462D01*
X0016562Y0035855D02*
X0016695Y0036122D01*
X0016518D01*
X0016158Y0035899D02*
X0016202Y0035855D01*
X0016291D01*
X0016335Y0035899D01*
Y0035944D01*
X0016247Y0036033D01*
X0016335Y0036122D01*
X0016158D01*
X0015909Y0035988D02*
X0015975Y0035855D01*
X0015798Y0035988D02*
X0015931D01*
X0015975Y0036033D01*
Y0036077D01*
X0015931Y0036122D01*
X0015798D01*
Y0035855D01*
X0034164Y0034623D02*
X0034030D01*
X0034008Y0034668D01*
Y0034712D01*
X0034030Y0034757D01*
X0034164D01*
X0034186Y0034712D01*
Y0034668D01*
X0034097Y0034490D01*
X0033826D02*
X0033737D01*
X0033782D02*
Y0034757D01*
X0033737Y0034712D01*
X0033510Y0034534D02*
X0033488Y0034490D01*
X0033355D01*
X0033333Y0034534D01*
Y0034712D01*
X0033355Y0034757D01*
X0033488D01*
X0033510Y0034712D01*
X0014181Y0028034D02*
Y0028212D01*
X0014092Y0028123D02*
X0014269D01*
X0021468Y0029724D02*
X0021512Y0029680D01*
X0021601D01*
X0021645Y0029724D01*
Y0029769D01*
X0021557Y0029858D01*
X0021645Y0029947D01*
X0021468D01*
X0021285Y0029769D02*
X0021108D01*
X0021197Y0029947D01*
X0021241D01*
Y0029680D01*
X0020859Y0029813D02*
X0020925Y0029680D01*
X0020748Y0029813D02*
X0020881D01*
X0020925Y0029858D01*
Y0029902D01*
X0020881Y0029947D01*
X0020748D01*
Y0029680D01*
X0029923Y0054150D02*
X0029945Y0054105D01*
X0030079D01*
X0030101Y0054150D01*
Y0054239D01*
X0030056Y0054283D01*
X0029923D01*
Y0054372D01*
X0030101D01*
X0029741D02*
Y0054150D01*
X0029719Y0054105D01*
X0029585D01*
X0029563Y0054150D01*
Y0054372D01*
X0004694Y0032417D02*
X0004517D01*
X0004694Y0032595D01*
Y0032639D01*
X0004672Y0032684D01*
X0004539D01*
X0004517Y0032639D01*
X0004334Y0032417D02*
X0004157D01*
X0004334Y0032595D01*
Y0032639D01*
X0004312Y0032684D01*
X0004179D01*
X0004157Y0032639D01*
X0003908Y0032551D02*
X0003974Y0032417D01*
X0003797Y0032551D02*
X0003930D01*
X0003974Y0032595D01*
Y0032639D01*
X0003930Y0032684D01*
X0003797D01*
Y0032417D01*
X0012645Y0007555D02*
X0012468D01*
X0012645Y0007733D01*
Y0007777D01*
X0012623Y0007822D01*
X0012490D01*
X0012468Y0007777D01*
X0012263Y0007688D02*
X0012130D01*
X0012108Y0007733D01*
Y0007777D01*
X0012130Y0007822D01*
X0012263D01*
X0012285Y0007777D01*
Y0007733D01*
X0012197Y0007555D01*
X0011859Y0007688D02*
X0011925Y0007555D01*
X0011748Y0007688D02*
X0011881D01*
X0011925Y0007733D01*
Y0007777D01*
X0011881Y0007822D01*
X0011748D01*
Y0007555D01*
X0030945Y0024770D02*
Y0024593D01*
X0030767Y0024770D01*
X0030723D01*
X0030678Y0024748D01*
Y0024615D01*
X0030723Y0024593D01*
X0030945Y0024410D02*
Y0024233D01*
X0030767Y0024410D01*
X0030723D01*
X0030678Y0024388D01*
Y0024255D01*
X0030723Y0024233D01*
X0030901Y0024050D02*
X0030945Y0024028D01*
Y0023895D01*
X0030901Y0023873D01*
X0030723D01*
X0030678Y0023895D01*
Y0024028D01*
X0030723Y0024050D01*
X0015899Y0004893D02*
X0015765Y0004626D01*
X0015943D01*
X0016125Y0004804D02*
X0016303D01*
X0016214Y0004626D01*
X0016170D01*
Y0004893D01*
X0016485Y0004848D02*
X0016508Y0004893D01*
X0016641D01*
X0016663Y0004848D01*
Y0004670D01*
X0016641Y0004626D01*
X0016508D01*
X0016485Y0004670D01*
X0013958Y0034417D02*
X0013914Y0034462D01*
X0013892Y0034506D01*
Y0034595D01*
X0013914Y0034639D01*
X0013958Y0034684D01*
X0014003D01*
X0014047Y0034639D01*
X0014069Y0034595D01*
Y0034506D01*
X0014047Y0034462D01*
X0014003Y0034417D01*
X0013958D01*
X0013532Y0034462D02*
X0013576Y0034417D01*
X0013665D01*
X0013709Y0034462D01*
Y0034506D01*
X0013621Y0034595D01*
X0013709Y0034684D01*
X0013532D01*
X0013283Y0034551D02*
X0013349Y0034417D01*
X0013172Y0034551D02*
X0013305D01*
X0013349Y0034595D01*
Y0034639D01*
X0013305Y0034684D01*
X0013172D01*
Y0034417D01*
X0034900Y0022006D02*
X0034722D01*
X0034811Y0022184D01*
X0034855D01*
Y0021917D01*
X0034540D02*
X0034451D01*
X0034496D02*
Y0022184D01*
X0034451Y0022139D01*
X0034158Y0022051D02*
X0034224Y0021917D01*
X0034047Y0022051D02*
X0034180D01*
X0034224Y0022095D01*
Y0022139D01*
X0034180Y0022184D01*
X0034047D01*
Y0021917D01*
X0021593Y0035724D02*
X0021637Y0035680D01*
X0021726D01*
X0021770Y0035724D01*
Y0035769D01*
X0021682Y0035858D01*
X0021770Y0035947D01*
X0021593D01*
X0021233Y0035724D02*
X0021255Y0035680D01*
X0021388D01*
X0021410Y0035724D01*
Y0035813D01*
X0021366Y0035858D01*
X0021233D01*
Y0035947D01*
X0021410D01*
X0020984Y0035813D02*
X0021050Y0035680D01*
X0020873Y0035813D02*
X0021006D01*
X0021050Y0035858D01*
Y0035902D01*
X0021006Y0035947D01*
X0020873D01*
Y0035680D01*
X0039055Y0021248D02*
X0039099Y0021293D01*
X0039144Y0021315D01*
X0039233D01*
X0039277Y0021293D01*
X0039322Y0021248D01*
Y0021204D01*
X0039277Y0021160D01*
X0039233Y0021137D01*
X0039144D01*
X0039099Y0021160D01*
X0039055Y0021204D01*
Y0021248D01*
Y0021497D02*
Y0021586D01*
Y0021542D02*
X0039322D01*
X0039277Y0021586D01*
X0021673Y0031988D02*
X0021695Y0032033D01*
Y0032077D01*
X0021673Y0032122D01*
X0021540D01*
X0021518Y0032077D01*
Y0032033D01*
X0021540Y0031988D01*
X0021673D01*
X0021695Y0031944D01*
Y0031899D01*
X0021673Y0031855D01*
X0021540D01*
X0021518Y0031899D01*
Y0031944D01*
X0021540Y0031988D01*
X0021335Y0031944D02*
X0021158D01*
X0021247Y0032122D01*
X0021291D01*
Y0031855D01*
X0020909Y0031988D02*
X0020975Y0031855D01*
X0020798Y0031988D02*
X0020931D01*
X0020975Y0032033D01*
Y0032077D01*
X0020931Y0032122D01*
X0020798D01*
Y0031855D01*
X0034679Y0023926D02*
X0034812D01*
X0034834Y0023881D01*
Y0023837D01*
X0034812Y0023792D01*
X0034679D01*
X0034657Y0023837D01*
Y0023881D01*
X0034746Y0024059D01*
X0034408Y0023926D02*
X0034474Y0023792D01*
X0034297Y0023926D02*
X0034430D01*
X0034474Y0023970D01*
Y0024014D01*
X0034430Y0024059D01*
X0034297D01*
Y0023792D01*
X0021121Y0052795D02*
X0021254D01*
X0021276Y0052750D01*
Y0052706D01*
X0021254Y0052662D01*
X0021121D01*
X0021098Y0052706D01*
Y0052750D01*
X0021187Y0052928D01*
X0020894Y0052795D02*
X0020916Y0052839D01*
Y0052884D01*
X0020894Y0052928D01*
X0020761D01*
X0020738Y0052884D01*
Y0052839D01*
X0020761Y0052795D01*
X0020894D01*
X0020916Y0052750D01*
Y0052706D01*
X0020894Y0052662D01*
X0020761D01*
X0020738Y0052706D01*
Y0052750D01*
X0020761Y0052795D01*
X0020489D02*
X0020556Y0052662D01*
X0020378Y0052795D02*
X0020512D01*
X0020556Y0052839D01*
Y0052884D01*
X0020512Y0052928D01*
X0020378D01*
Y0052662D01*
X0037211Y0038461D02*
X0037255Y0038483D01*
Y0038616D01*
X0037211Y0038639D01*
X0037122D01*
X0037077Y0038594D01*
Y0038461D01*
X0036989D01*
Y0038639D01*
X0037255Y0038279D02*
Y0038190D01*
Y0038234D02*
X0036989D01*
X0037033Y0038190D01*
X0037166Y0037808D02*
X0037211D01*
X0037255Y0037830D01*
Y0037919D01*
X0037211Y0037941D01*
X0036989D01*
Y0037963D02*
Y0037874D01*
X0027398Y0020172D02*
X0027443Y0020149D01*
X0027487D01*
X0027532Y0020172D01*
Y0020305D01*
X0027487Y0020327D01*
X0027443D01*
X0027398Y0020305D01*
Y0020172D01*
X0027354Y0020149D01*
X0027309D01*
X0027265Y0020172D01*
Y0020305D01*
X0027309Y0020327D01*
X0027354D01*
X0027398Y0020305D01*
X0027265Y0020643D02*
X0027532Y0020509D01*
Y0020687D01*
X0027398Y0020936D02*
X0027265Y0020869D01*
X0027398Y0021047D02*
Y0020914D01*
X0027443Y0020869D01*
X0027487D01*
X0027532Y0020914D01*
Y0021047D01*
X0027265D01*
X0032247Y0023422D02*
X0032069D01*
X0032247Y0023599D01*
Y0023644D01*
X0032224Y0023688D01*
X0032091D01*
X0032069Y0023644D01*
X0031887Y0023422D02*
X0031798D01*
X0031842D02*
Y0023688D01*
X0031798Y0023644D01*
X0031571Y0023466D02*
X0031549Y0023422D01*
X0031416D01*
X0031393Y0023466D01*
Y0023644D01*
X0031416Y0023688D01*
X0031549D01*
X0031571Y0023644D01*
X0013011Y0032644D02*
X0013277Y0032511D01*
Y0032689D01*
X0013011Y0032871D02*
Y0033049D01*
X0013188Y0032871D01*
X0013233D01*
X0013277Y0032893D01*
Y0033027D01*
X0013233Y0033049D01*
X0013144Y0033298D02*
X0013011Y0033231D01*
X0013144Y0033409D02*
Y0033276D01*
X0013188Y0033231D01*
X0013233D01*
X0013277Y0033276D01*
Y0033409D01*
X0013011D01*
X0004517Y0036337D02*
X0004561Y0036292D01*
X0004650D01*
X0004694Y0036337D01*
Y0036381D01*
X0004606Y0036470D01*
X0004694Y0036559D01*
X0004517D01*
X0004334Y0036292D02*
X0004157D01*
X0004334Y0036470D01*
Y0036514D01*
X0004312Y0036559D01*
X0004179D01*
X0004157Y0036514D01*
X0003908Y0036426D02*
X0003974Y0036292D01*
X0003797Y0036426D02*
X0003930D01*
X0003974Y0036470D01*
Y0036514D01*
X0003930Y0036559D01*
X0003797D01*
Y0036292D01*
X0036320Y0033230D02*
X0036143D01*
X0036320Y0033408D01*
Y0033452D01*
X0036298Y0033497D01*
X0036165D01*
X0036143Y0033452D01*
X0035783Y0033274D02*
X0035805Y0033230D01*
X0035938D01*
X0035960Y0033274D01*
Y0033363D01*
X0035916Y0033408D01*
X0035783D01*
Y0033497D01*
X0035960D01*
X0035534Y0033363D02*
X0035600Y0033230D01*
X0035423Y0033363D02*
X0035556D01*
X0035600Y0033408D01*
Y0033452D01*
X0035556Y0033497D01*
X0035423D01*
Y0033230D01*
X0007428Y0043860D02*
X0007384Y0043904D01*
X0007361Y0043948D01*
Y0044037D01*
X0007384Y0044082D01*
X0007428Y0044126D01*
X0007473D01*
X0007517Y0044082D01*
X0007539Y0044037D01*
Y0043948D01*
X0007517Y0043904D01*
X0007473Y0043860D01*
X0007428D01*
X0007179D02*
X0007090D01*
X0007135D02*
Y0044126D01*
X0007090Y0044082D01*
X0006864Y0044126D02*
Y0043904D01*
X0006842Y0043860D01*
X0006708D01*
X0006686Y0043904D01*
Y0044126D01*
X0007687Y0042385D02*
X0007820Y0042652D01*
X0007643D01*
X0007460D02*
Y0042429D01*
X0007438Y0042385D01*
X0007305D01*
X0007283Y0042429D01*
Y0042652D01*
X0025320Y0038909D02*
X0025276Y0038865D01*
X0025231Y0038843D01*
X0025142D01*
X0025098Y0038865D01*
X0025053Y0038909D01*
Y0038954D01*
X0025098Y0038998D01*
X0025142Y0039020D01*
X0025231D01*
X0025276Y0038998D01*
X0025320Y0038954D01*
Y0038909D01*
X0025187Y0038505D02*
Y0038638D01*
X0025231Y0038660D01*
X0025276D01*
X0025320Y0038638D01*
Y0038505D01*
X0025276Y0038483D01*
X0025231D01*
X0025053Y0038572D01*
X0025187Y0038234D02*
X0025320Y0038300D01*
X0025187Y0038123D02*
Y0038256D01*
X0025142Y0038300D01*
X0025098D01*
X0025053Y0038256D01*
Y0038123D01*
X0025320D01*
X0031635Y0024678D02*
X0031368Y0024811D01*
Y0024633D01*
X0031635Y0024451D02*
Y0024362D01*
Y0024407D02*
X0031368D01*
X0031413Y0024362D01*
X0031591Y0024135D02*
X0031635Y0024113D01*
Y0023980D01*
X0031591Y0023958D01*
X0031413D01*
X0031368Y0023980D01*
Y0024113D01*
X0031413Y0024135D01*
X0004539Y0034926D02*
X0004672D01*
X0004694Y0034881D01*
Y0034837D01*
X0004672Y0034792D01*
X0004539D01*
X0004517Y0034837D01*
Y0034881D01*
X0004606Y0035059D01*
X0004334Y0034792D02*
X0004157D01*
X0004334Y0034970D01*
Y0035014D01*
X0004312Y0035059D01*
X0004179D01*
X0004157Y0035014D01*
X0003908Y0034926D02*
X0003974Y0034792D01*
X0003797Y0034926D02*
X0003930D01*
X0003974Y0034970D01*
Y0035014D01*
X0003930Y0035059D01*
X0003797D01*
Y0034792D01*
X0037425Y0020464D02*
Y0020419D01*
X0037514Y0020553D02*
X0037425Y0020464D01*
X0037336Y0020553D01*
X0037514Y0020419D02*
X0037247D01*
X0033283Y0020440D02*
Y0020306D01*
X0033239Y0020284D01*
X0033194D01*
X0033150Y0020306D01*
Y0020440D01*
X0033194Y0020462D01*
X0033239D01*
X0033417Y0020373D01*
X0033150Y0020644D02*
Y0020733D01*
Y0020688D02*
X0033417D01*
X0033372Y0020733D01*
X0033194Y0020959D02*
X0033150Y0020982D01*
Y0021115D01*
X0033194Y0021137D01*
X0033372D01*
X0033417Y0021115D01*
Y0020982D01*
X0033372Y0020959D01*
X0021712Y0011049D02*
X0021667Y0011071D01*
X0021623D01*
X0021578Y0011049D01*
Y0010916D01*
X0021623Y0010894D01*
X0021667D01*
X0021712Y0010916D01*
Y0011049D01*
X0021756Y0011071D01*
X0021801D01*
X0021845Y0011049D01*
Y0010916D01*
X0021801Y0010894D01*
X0021756D01*
X0021712Y0010916D01*
X0021845Y0010711D02*
Y0010623D01*
Y0010667D02*
X0021578D01*
X0021623Y0010623D01*
X0021845Y0010396D02*
Y0010307D01*
Y0010352D02*
X0021578D01*
X0021623Y0010307D01*
X0021712Y0010014D02*
X0021845Y0010080D01*
X0021712Y0009903D02*
Y0010036D01*
X0021667Y0010080D01*
X0021623D01*
X0021578Y0010036D01*
Y0009903D01*
X0021845D01*
X0006123Y0042917D02*
X0006168Y0042894D01*
X0006212D01*
X0006257Y0042917D01*
Y0043050D01*
X0006212Y0043072D01*
X0006168D01*
X0006123Y0043050D01*
Y0042917D01*
X0006079Y0042894D01*
X0006034D01*
X0005990Y0042917D01*
Y0043050D01*
X0006034Y0043072D01*
X0006079D01*
X0006123Y0043050D01*
X0006079Y0043254D02*
Y0043432D01*
X0006257Y0043343D01*
Y0043299D01*
X0005990D01*
X0006034Y0043614D02*
X0005990Y0043637D01*
Y0043770D01*
X0006034Y0043792D01*
X0006212D01*
X0006257Y0043770D01*
Y0043637D01*
X0006212Y0043614D01*
X0020327Y0001528D02*
X0020105D01*
X0020327Y0001750D01*
Y0001805D01*
X0020299Y0001861D01*
X0020133D01*
X0020105Y0001805D01*
X0019917Y0001528D02*
X0019750Y0001861D01*
X0019917D02*
X0019750Y0001528D01*
X0019535Y0001861D02*
Y0001583D01*
X0019507Y0001528D01*
X0019340D01*
X0019313Y0001583D01*
Y0001861D01*
X0019125Y0001639D02*
X0018903D01*
X0019125Y0001528D02*
Y0001694D01*
X0019042Y0001861D01*
X0018986D01*
X0018903Y0001694D01*
Y0001528D01*
X0014388Y0019438D02*
X0014255D01*
X0014233Y0019483D01*
Y0019527D01*
X0014255Y0019572D01*
X0014388D01*
X0014410Y0019527D01*
Y0019483D01*
X0014322Y0019305D01*
X0013984Y0019438D02*
X0014050Y0019305D01*
X0013873Y0019438D02*
X0014006D01*
X0014050Y0019483D01*
Y0019527D01*
X0014006Y0019572D01*
X0013873D01*
Y0019305D01*
X0036209Y0032480D02*
X0036165Y0032524D01*
X0036143Y0032569D01*
Y0032658D01*
X0036165Y0032702D01*
X0036209Y0032747D01*
X0036254D01*
X0036298Y0032702D01*
X0036320Y0032658D01*
Y0032569D01*
X0036298Y0032524D01*
X0036254Y0032480D01*
X0036209D01*
X0035783Y0032524D02*
X0035805Y0032480D01*
X0035938D01*
X0035960Y0032524D01*
Y0032613D01*
X0035916Y0032658D01*
X0035783D01*
Y0032747D01*
X0035960D01*
X0035534Y0032613D02*
X0035600Y0032480D01*
X0035423Y0032613D02*
X0035556D01*
X0035600Y0032658D01*
Y0032702D01*
X0035556Y0032747D01*
X0035423D01*
Y0032480D01*
X0006336Y0014180D02*
X0006158D01*
X0006336Y0014358D01*
Y0014402D01*
X0006314Y0014447D01*
X0006180D01*
X0006158Y0014402D01*
X0005865Y0014180D02*
X0005820Y0014224D01*
X0005798Y0014269D01*
Y0014358D01*
X0005820Y0014402D01*
X0005865Y0014447D01*
X0005909D01*
X0005954Y0014402D01*
X0005976Y0014358D01*
Y0014269D01*
X0005954Y0014224D01*
X0005909Y0014180D01*
X0005865D01*
X0005616D02*
X0005527D01*
X0005572D02*
Y0014447D01*
X0005527Y0014402D01*
X0005234Y0014313D02*
X0005300Y0014180D01*
X0005123Y0014313D02*
X0005256D01*
X0005300Y0014358D01*
Y0014402D01*
X0005256Y0014447D01*
X0005123D01*
Y0014180D01*
X0013771Y0039718D02*
Y0039807D01*
Y0039763D02*
X0014037D01*
X0013993Y0039807D01*
X0013815Y0040212D02*
X0013771Y0040167D01*
Y0040078D01*
X0013815Y0040034D01*
X0013859D01*
X0013948Y0040123D01*
X0014037Y0040034D01*
Y0040212D01*
X0013815Y0040394D02*
X0013771Y0040416D01*
Y0040549D01*
X0013815Y0040572D01*
X0013993D01*
X0014037Y0040549D01*
Y0040416D01*
X0013993Y0040394D01*
X0016562Y0025497D02*
Y0025274D01*
X0016340Y0025385D01*
Y0025441D01*
X0016673D01*
Y0025087D02*
Y0024975D01*
Y0025031D02*
X0016340D01*
X0016396Y0024975D01*
X0016340Y0024732D02*
X0016618D01*
X0016673Y0024704D01*
Y0024538D01*
X0016618Y0024510D01*
X0016340D01*
X0037805Y0027233D02*
Y0027322D01*
Y0027278D02*
X0038071D01*
X0038027Y0027322D01*
X0039525Y0014965D02*
Y0015143D01*
X0039703Y0015054D01*
Y0015009D01*
X0039436D01*
Y0015481D02*
X0039703D01*
X0039436Y0015503D02*
Y0015369D01*
X0039525Y0015325D01*
X0039614D01*
X0039703Y0015369D01*
Y0015503D01*
X0010866Y0005921D02*
Y0005788D01*
X0010821Y0005765D01*
X0010777D01*
X0010732Y0005788D01*
Y0005921D01*
X0010777Y0005943D01*
X0010821D01*
X0010999Y0005854D01*
X0010777Y0006303D02*
X0010732Y0006281D01*
Y0006148D01*
X0010777Y0006125D01*
X0010866D01*
X0010910Y0006170D01*
Y0006303D01*
X0010999D01*
Y0006125D01*
X0010777Y0006485D02*
X0010732Y0006508D01*
Y0006641D01*
X0010777Y0006663D01*
X0010954D01*
X0010999Y0006641D01*
Y0006508D01*
X0010954Y0006485D01*
X0013922Y0032176D02*
X0013944Y0032220D01*
Y0032264D01*
X0013922Y0032309D01*
X0013789D01*
X0013767Y0032264D01*
Y0032220D01*
X0013789Y0032176D01*
X0013922D01*
X0013944Y0032131D01*
Y0032087D01*
X0013922Y0032042D01*
X0013789D01*
X0013767Y0032087D01*
Y0032131D01*
X0013789Y0032176D01*
X0013584Y0032042D02*
X0013407D01*
X0013584Y0032220D01*
Y0032264D01*
X0013562Y0032309D01*
X0013429D01*
X0013407Y0032264D01*
X0013158Y0032176D02*
X0013224Y0032042D01*
X0013047Y0032176D02*
X0013180D01*
X0013224Y0032220D01*
Y0032264D01*
X0013180Y0032309D01*
X0013047D01*
Y0032042D01*
X0007546Y0036765D02*
X0007590Y0036721D01*
X0007679D01*
X0007724Y0036765D01*
Y0036809D01*
X0007635Y0036898D01*
X0007724Y0036987D01*
X0007546D01*
X0007186Y0036765D02*
X0007230Y0036721D01*
X0007319D01*
X0007364Y0036765D01*
Y0036809D01*
X0007275Y0036898D01*
X0007364Y0036987D01*
X0007186D01*
X0006937Y0036854D02*
X0007004Y0036721D01*
X0006826Y0036854D02*
X0006959D01*
X0007004Y0036898D01*
Y0036943D01*
X0006959Y0036987D01*
X0006826D01*
Y0036721D01*
X0022939Y0045204D02*
Y0045026D01*
X0022761Y0045115D01*
Y0045159D01*
X0023028D01*
Y0048554D02*
Y0048465D01*
Y0048510D02*
X0022761D01*
X0022805Y0048465D01*
X0021174Y0046558D02*
Y0046380D01*
X0020996Y0046469D01*
Y0046513D01*
X0021263D01*
Y0046198D02*
Y0046109D01*
Y0046153D02*
X0020996D01*
X0021040Y0046109D01*
X0021174Y0045727D02*
X0021218D01*
X0021263Y0045749D01*
Y0045838D01*
X0021218Y0045860D01*
X0020996D01*
Y0045882D02*
Y0045793D01*
X0032216Y0038928D02*
X0032260Y0038972D01*
Y0039061D01*
X0032216Y0039105D01*
X0032171D01*
X0032082Y0039017D01*
X0031993Y0039105D01*
Y0038928D01*
X0032260Y0038745D02*
Y0038568D01*
X0032082Y0038745D01*
X0032038D01*
X0031993Y0038723D01*
Y0038590D01*
X0032038Y0038568D01*
X0032216Y0038385D02*
X0032260Y0038363D01*
Y0038230D01*
X0032216Y0038208D01*
X0032038D01*
X0031993Y0038230D01*
Y0038363D01*
X0032038Y0038385D01*
X0040611Y0024987D02*
Y0024793D01*
X0040278D01*
X0040444Y0024549D02*
Y0024383D01*
X0040611Y0024605D02*
Y0024383D01*
X0040278D01*
Y0024605D01*
Y0024195D02*
X0040611D01*
X0040555Y0024139D01*
X0040333Y0024028D01*
X0040278Y0023973D01*
X0040611D01*
X0040500Y0023785D02*
Y0023563D01*
X0040611Y0023785D02*
X0040444D01*
X0040278Y0023702D01*
Y0023646D01*
X0040444Y0023563D01*
X0040611D01*
X0040444Y0023153D02*
Y0023319D01*
X0040389Y0023375D01*
X0040333D01*
X0040278Y0023319D01*
Y0023153D01*
X0040611D01*
X0031265Y0020408D02*
X0031532Y0020274D01*
Y0020452D01*
X0031265Y0020768D02*
X0031532Y0020634D01*
Y0020812D01*
X0031398Y0021061D02*
X0031265Y0020994D01*
X0031398Y0021172D02*
Y0021039D01*
X0031443Y0020994D01*
X0031487D01*
X0031532Y0021039D01*
Y0021172D01*
X0031265D01*
X0039436Y0017465D02*
Y0017643D01*
X0039614Y0017465D01*
X0039658D01*
X0039703Y0017487D01*
Y0017621D01*
X0039658Y0017643D01*
X0039436Y0017981D02*
X0039703D01*
X0039436Y0018003D02*
Y0017869D01*
X0039525Y0017825D01*
X0039614D01*
X0039703Y0017869D01*
Y0018003D01*
X0031343Y0028599D02*
X0031365Y0028555D01*
X0031498D01*
X0031520Y0028599D01*
Y0028688D01*
X0031476Y0028733D01*
X0031343D01*
Y0028822D01*
X0031520D01*
X0031005Y0028688D02*
X0031138D01*
X0031160Y0028644D01*
Y0028599D01*
X0031138Y0028555D01*
X0031005D01*
X0030983Y0028599D01*
Y0028644D01*
X0031072Y0028822D01*
X0030734Y0028688D02*
X0030800Y0028555D01*
X0030623Y0028688D02*
X0030756D01*
X0030800Y0028733D01*
Y0028777D01*
X0030756Y0028822D01*
X0030623D01*
Y0028555D01*
X0011302Y0050033D02*
X0011257Y0050055D01*
X0011213D01*
X0011168Y0050033D01*
Y0049900D01*
X0011213Y0049878D01*
X0011257D01*
X0011302Y0049900D01*
Y0050033D01*
X0011346Y0050055D01*
X0011391D01*
X0011435Y0050033D01*
Y0049900D01*
X0011391Y0049878D01*
X0011346D01*
X0011302Y0049900D01*
X0011391Y0049518D02*
X0011435Y0049562D01*
Y0049651D01*
X0011391Y0049695D01*
X0011346D01*
X0011257Y0049607D01*
X0011168Y0049695D01*
Y0049518D01*
X0011391Y0049335D02*
X0011435Y0049313D01*
Y0049180D01*
X0011391Y0049158D01*
X0011213D01*
X0011168Y0049180D01*
Y0049313D01*
X0011213Y0049335D01*
X0028020Y0024761D02*
Y0024583D01*
X0027842Y0024761D01*
X0027798D01*
X0027753Y0024739D01*
Y0024605D01*
X0027798Y0024583D01*
X0028020Y0024401D02*
Y0024223D01*
X0027842Y0024401D01*
X0027798D01*
X0027753Y0024379D01*
Y0024245D01*
X0027798Y0024223D01*
X0028020Y0024041D02*
Y0023952D01*
Y0023997D02*
X0027753D01*
X0027798Y0023952D01*
X0027887Y0023659D02*
X0028020Y0023725D01*
X0027887Y0023548D02*
Y0023681D01*
X0027842Y0023725D01*
X0027798D01*
X0027753Y0023681D01*
Y0023548D01*
X0028020D01*
X0016873Y0007688D02*
X0016895Y0007733D01*
Y0007777D01*
X0016873Y0007822D01*
X0016740D01*
X0016718Y0007777D01*
Y0007733D01*
X0016740Y0007688D01*
X0016873D01*
X0016895Y0007644D01*
Y0007599D01*
X0016873Y0007555D01*
X0016740D01*
X0016718Y0007599D01*
Y0007644D01*
X0016740Y0007688D01*
X0016513D02*
X0016380D01*
X0016358Y0007733D01*
Y0007777D01*
X0016380Y0007822D01*
X0016513D01*
X0016535Y0007777D01*
Y0007733D01*
X0016447Y0007555D01*
X0016109Y0007688D02*
X0016175Y0007555D01*
X0015998Y0007688D02*
X0016131D01*
X0016175Y0007733D01*
Y0007777D01*
X0016131Y0007822D01*
X0015998D01*
Y0007555D01*
X0039075Y0016036D02*
Y0016081D01*
X0038986Y0015947D02*
X0039075Y0016036D01*
X0039164Y0015947D01*
X0038986Y0016081D02*
X0039253D01*
X0030309Y0020452D02*
X0030265Y0020430D01*
Y0020297D01*
X0030309Y0020274D01*
X0030398D01*
X0030443Y0020319D01*
Y0020452D01*
X0030532D01*
Y0020274D01*
X0030265Y0020768D02*
X0030532Y0020634D01*
Y0020812D01*
X0030398Y0021061D02*
X0030265Y0020994D01*
X0030398Y0021172D02*
Y0021039D01*
X0030443Y0020994D01*
X0030487D01*
X0030532Y0021039D01*
Y0021172D01*
X0030265D01*
X0014028Y0026051D02*
X0014006Y0026095D01*
X0013873D01*
X0013850Y0026051D01*
Y0025962D01*
X0013895Y0025917D01*
X0014028D01*
Y0025828D01*
X0013850D01*
X0014388Y0026051D02*
X0014344Y0026095D01*
X0014255D01*
X0014210Y0026051D01*
Y0026006D01*
X0014299Y0025917D01*
X0014210Y0025828D01*
X0014388D01*
X0014570Y0026051D02*
X0014593Y0026095D01*
X0014726D01*
X0014748Y0026051D01*
Y0025873D01*
X0014726Y0025828D01*
X0014593D01*
X0014570Y0025873D01*
X0015915Y0027538D02*
X0016004D01*
X0015959D02*
Y0027271D01*
X0016004Y0027315D01*
X0016253Y0027404D02*
X0016230Y0027360D01*
Y0027315D01*
X0016253Y0027271D01*
X0016386D01*
X0016408Y0027315D01*
Y0027360D01*
X0016386Y0027404D01*
X0016253D01*
X0016230Y0027449D01*
Y0027493D01*
X0016253Y0027538D01*
X0016386D01*
X0016408Y0027493D01*
Y0027449D01*
X0016386Y0027404D01*
X0016657D02*
X0016590Y0027538D01*
X0016768Y0027404D02*
X0016635D01*
X0016590Y0027360D01*
Y0027315D01*
X0016635Y0027271D01*
X0016768D01*
Y0027538D01*
X0031325Y0030248D02*
X0031458D01*
X0031480Y0030204D01*
Y0030159D01*
X0031458Y0030115D01*
X0031325D01*
X0031303Y0030159D01*
Y0030204D01*
X0031392Y0030382D01*
X0031120Y0030115D02*
X0030943D01*
X0031120Y0030293D01*
Y0030337D01*
X0031098Y0030382D01*
X0030965D01*
X0030943Y0030337D01*
X0030760Y0030159D02*
X0030738Y0030115D01*
X0030605D01*
X0030583Y0030159D01*
Y0030337D01*
X0030605Y0030382D01*
X0030738D01*
X0030760Y0030337D01*
X0007681Y0016715D02*
X0007859D01*
X0007681Y0016538D01*
Y0016493D01*
X0007703Y0016449D01*
X0007837D01*
X0007859Y0016493D01*
X0008041Y0016449D02*
Y0016671D01*
X0008063Y0016715D01*
X0008197D01*
X0008219Y0016671D01*
Y0016449D01*
X0016168Y0011232D02*
Y0011098D01*
X0016123Y0011076D01*
X0016079D01*
X0016035Y0011098D01*
Y0011232D01*
X0016079Y0011254D01*
X0016123D01*
X0016301Y0011165D01*
Y0011436D02*
X0016079D01*
X0016035Y0011458D01*
Y0011592D01*
X0016079Y0011614D01*
X0016301D01*
X0027070Y0024659D02*
X0027026Y0024615D01*
X0026981Y0024593D01*
X0026892D01*
X0026848Y0024615D01*
X0026803Y0024659D01*
Y0024704D01*
X0026848Y0024748D01*
X0026892Y0024770D01*
X0026981D01*
X0027026Y0024748D01*
X0027070Y0024704D01*
Y0024659D01*
Y0024277D02*
X0026803Y0024410D01*
Y0024233D01*
X0026937Y0023984D02*
X0027070Y0024050D01*
X0026937Y0023873D02*
Y0024006D01*
X0026892Y0024050D01*
X0026848D01*
X0026803Y0024006D01*
Y0023873D01*
X0027070D01*
X0019737Y0048823D02*
Y0048690D01*
X0019692Y0048668D01*
X0019648D01*
X0019603Y0048690D01*
Y0048823D01*
X0019648Y0048845D01*
X0019692D01*
X0019870Y0048757D01*
X0019737Y0048463D02*
X0019692Y0048485D01*
X0019648D01*
X0019603Y0048463D01*
Y0048330D01*
X0019648Y0048308D01*
X0019692D01*
X0019737Y0048330D01*
Y0048463D01*
X0019781Y0048485D01*
X0019826D01*
X0019870Y0048463D01*
Y0048330D01*
X0019826Y0048308D01*
X0019781D01*
X0019737Y0048330D01*
Y0048059D02*
X0019870Y0048125D01*
X0019737Y0047948D02*
Y0048081D01*
X0019692Y0048125D01*
X0019648D01*
X0019603Y0048081D01*
Y0047948D01*
X0019870D01*
X0039075Y0013536D02*
Y0013581D01*
X0038986Y0013447D02*
X0039075Y0013536D01*
X0039164Y0013447D01*
X0038986Y0013581D02*
X0039253D01*
X0036270Y0031769D02*
X0036093D01*
X0036182Y0031947D01*
X0036226D01*
Y0031680D01*
X0035910Y0031769D02*
X0035733D01*
X0035822Y0031947D01*
X0035866D01*
Y0031680D01*
X0035484Y0031813D02*
X0035550Y0031680D01*
X0035373Y0031813D02*
X0035506D01*
X0035550Y0031858D01*
Y0031902D01*
X0035506Y0031947D01*
X0035373D01*
Y0031680D01*
X0005649Y0013099D02*
X0005693Y0013055D01*
X0005782D01*
X0005826Y0013099D01*
Y0013144D01*
X0005738Y0013233D01*
X0005826Y0013322D01*
X0005649D01*
X0005466Y0013055D02*
X0005378D01*
X0005422D02*
Y0013322D01*
X0005378Y0013277D01*
X0005151Y0013055D02*
X0005062D01*
X0005107D02*
Y0013322D01*
X0005062Y0013277D01*
X0004769Y0013188D02*
X0004835Y0013055D01*
X0004658Y0013188D02*
X0004791D01*
X0004835Y0013233D01*
Y0013277D01*
X0004791Y0013322D01*
X0004658D01*
Y0013055D01*
X0014069Y0036756D02*
X0013892D01*
X0013981Y0036934D01*
X0014025D01*
Y0036667D01*
X0013709D02*
X0013532D01*
X0013709Y0036845D01*
Y0036889D01*
X0013687Y0036934D01*
X0013554D01*
X0013532Y0036889D01*
X0013283Y0036801D02*
X0013349Y0036667D01*
X0013172Y0036801D02*
X0013305D01*
X0013349Y0036845D01*
Y0036889D01*
X0013305Y0036934D01*
X0013172D01*
Y0036667D01*
X0030046Y0024686D02*
Y0024508D01*
X0029868Y0024597D01*
Y0024641D01*
X0030135D01*
Y0024326D02*
Y0024237D01*
Y0024282D02*
X0029868D01*
X0029913Y0024237D01*
X0030091Y0024010D02*
X0030135Y0023988D01*
Y0023855D01*
X0030091Y0023833D01*
X0029913D01*
X0029868Y0023855D01*
Y0023988D01*
X0029913Y0024010D01*
X0005562Y0010967D02*
Y0010878D01*
Y0010923D02*
X0005296D01*
X0005340Y0010878D01*
X0005562Y0010652D02*
Y0010563D01*
Y0010607D02*
X0005296D01*
X0005340Y0010563D01*
X0005296Y0010336D02*
X0005518D01*
X0005562Y0010314D01*
Y0010181D01*
X0005518Y0010158D01*
X0005296D01*
X0020043Y0005756D02*
X0019776Y0005889D01*
Y0005712D01*
X0019998Y0005352D02*
X0020043Y0005374D01*
Y0005507D01*
X0019998Y0005529D01*
X0019909D01*
X0019865Y0005485D01*
Y0005352D01*
X0019776D01*
Y0005529D01*
X0019998Y0005169D02*
X0020043Y0005147D01*
Y0005014D01*
X0019998Y0004992D01*
X0019820D01*
X0019776Y0005014D01*
Y0005147D01*
X0019820Y0005169D01*
X0032562Y0035480D02*
X0032695Y0035747D01*
X0032518D01*
X0032335Y0035569D02*
X0032158D01*
X0032247Y0035747D01*
X0032291D01*
Y0035480D01*
X0031909Y0035613D02*
X0031975Y0035480D01*
X0031798Y0035613D02*
X0031931D01*
X0031975Y0035658D01*
Y0035702D01*
X0031931Y0035747D01*
X0031798D01*
Y0035480D01*
X0036195Y0014601D02*
Y0014512D01*
Y0014557D02*
X0035928D01*
X0035973Y0014512D01*
X0036062Y0014263D02*
Y0014130D01*
X0036017Y0014108D01*
X0035973D01*
X0035928Y0014130D01*
Y0014263D01*
X0035973Y0014285D01*
X0036017D01*
X0036195Y0014197D01*
X0036062Y0013859D02*
X0036195Y0013925D01*
X0036062Y0013748D02*
Y0013881D01*
X0036017Y0013925D01*
X0035973D01*
X0035928Y0013881D01*
Y0013748D01*
X0036195D01*
X0007397Y0001528D02*
X0007285D01*
X0007341D02*
Y0001861D01*
X0007285Y0001805D01*
X0007042Y0001528D02*
X0006875Y0001861D01*
X0007042D02*
X0006875Y0001528D01*
X0006660Y0001861D02*
Y0001583D01*
X0006632Y0001528D01*
X0006465D01*
X0006438Y0001583D01*
Y0001861D01*
X0006250Y0001639D02*
X0006028D01*
X0006250Y0001528D02*
Y0001694D01*
X0006167Y0001861D01*
X0006111D01*
X0006028Y0001694D01*
Y0001528D01*
X0015218Y0007974D02*
X0015240Y0007930D01*
X0015373D01*
X0015395Y0007974D01*
Y0008063D01*
X0015351Y0008108D01*
X0015218D01*
Y0008197D01*
X0015395D01*
X0015013Y0008063D02*
X0014880D01*
X0014858Y0008108D01*
Y0008152D01*
X0014880Y0008197D01*
X0015013D01*
X0015035Y0008152D01*
Y0008108D01*
X0014947Y0007930D01*
X0014609Y0008063D02*
X0014675Y0007930D01*
X0014498Y0008063D02*
X0014631D01*
X0014675Y0008108D01*
Y0008152D01*
X0014631Y0008197D01*
X0014498D01*
Y0007930D01*
X0004446Y0017287D02*
X0004268D01*
X0004446Y0017464D01*
Y0017509D01*
X0004424Y0017553D01*
X0004291D01*
X0004268Y0017509D01*
X0003997Y0017375D02*
X0004086Y0017287D01*
X0003908Y0017331D02*
X0003931Y0017287D01*
X0004019D01*
X0004042Y0017331D01*
X0004086Y0017375D01*
Y0017509D01*
X0004064Y0017553D01*
X0003931D01*
X0003908Y0017509D01*
Y0017331D01*
X0036195Y0012034D02*
X0036151Y0011990D01*
X0036106Y0011968D01*
X0036017D01*
X0035973Y0011990D01*
X0035928Y0012034D01*
Y0012079D01*
X0035973Y0012123D01*
X0036017Y0012145D01*
X0036106D01*
X0036151Y0012123D01*
X0036195Y0012079D01*
Y0012034D01*
X0036062Y0011763D02*
Y0011630D01*
X0036017Y0011608D01*
X0035973D01*
X0035928Y0011630D01*
Y0011763D01*
X0035973Y0011785D01*
X0036017D01*
X0036195Y0011697D01*
X0036062Y0011359D02*
X0036195Y0011425D01*
X0036062Y0011248D02*
Y0011381D01*
X0036017Y0011425D01*
X0035973D01*
X0035928Y0011381D01*
Y0011248D01*
X0036195D01*
X0011695Y0006561D02*
X0011739Y0006605D01*
Y0006694D01*
X0011695Y0006739D01*
X0011650D01*
X0011562Y0006650D01*
X0011473Y0006739D01*
Y0006561D01*
X0011606Y0006357D02*
Y0006223D01*
X0011562Y0006201D01*
X0011517D01*
X0011473Y0006223D01*
Y0006357D01*
X0011517Y0006379D01*
X0011562D01*
X0011739Y0006290D01*
X0011606Y0005952D02*
X0011739Y0006019D01*
X0011606Y0005841D02*
Y0005974D01*
X0011562Y0006019D01*
X0011517D01*
X0011473Y0005974D01*
Y0005841D01*
X0011739D01*
X0004062Y0048814D02*
X0004017Y0048836D01*
X0003973D01*
X0003928Y0048814D01*
Y0048680D01*
X0003973Y0048658D01*
X0004017D01*
X0004062Y0048680D01*
Y0048814D01*
X0004106Y0048836D01*
X0004151D01*
X0004195Y0048814D01*
Y0048680D01*
X0004151Y0048658D01*
X0004106D01*
X0004062Y0048680D01*
X0004195Y0048365D02*
X0004151Y0048320D01*
X0004106Y0048298D01*
X0004017D01*
X0003973Y0048320D01*
X0003928Y0048365D01*
Y0048409D01*
X0003973Y0048454D01*
X0004017Y0048476D01*
X0004106D01*
X0004151Y0048454D01*
X0004195Y0048409D01*
Y0048365D01*
Y0048116D02*
Y0048027D01*
Y0048072D02*
X0003928D01*
X0003973Y0048027D01*
X0004062Y0047734D02*
X0004195Y0047800D01*
X0004062Y0047623D02*
Y0047756D01*
X0004017Y0047800D01*
X0003973D01*
X0003928Y0047756D01*
Y0047623D01*
X0004195D01*
X0013285Y0041915D02*
X0013108D01*
X0013285Y0042093D01*
Y0042137D01*
X0013263Y0042182D01*
X0013130D01*
X0013108Y0042137D01*
X0012748Y0041959D02*
X0012792Y0041915D01*
X0012881D01*
X0012925Y0041959D01*
Y0042004D01*
X0012837Y0042093D01*
X0012925Y0042182D01*
X0012748D01*
X0012565Y0041959D02*
X0012543Y0041915D01*
X0012410D01*
X0012388Y0041959D01*
Y0042137D01*
X0012410Y0042182D01*
X0012543D01*
X0012565Y0042137D01*
X0029398Y0020430D02*
Y0020297D01*
X0029354Y0020274D01*
X0029309D01*
X0029265Y0020297D01*
Y0020430D01*
X0029309Y0020452D01*
X0029354D01*
X0029532Y0020363D01*
X0029265Y0020768D02*
X0029532Y0020634D01*
Y0020812D01*
X0029398Y0021061D02*
X0029265Y0020994D01*
X0029398Y0021172D02*
Y0021039D01*
X0029443Y0020994D01*
X0029487D01*
X0029532Y0021039D01*
Y0021172D01*
X0029265D01*
X0031449Y0032188D02*
X0031405Y0032143D01*
X0031360Y0032121D01*
X0031272D01*
X0031227Y0032143D01*
X0031183Y0032188D01*
Y0032232D01*
X0031227Y0032277D01*
X0031272Y0032299D01*
X0031360D01*
X0031405Y0032277D01*
X0031449Y0032232D01*
Y0032188D01*
Y0031939D02*
Y0031761D01*
X0031272Y0031939D01*
X0031227D01*
X0031183Y0031917D01*
Y0031783D01*
X0031227Y0031761D01*
X0031405Y0031579D02*
X0031449Y0031557D01*
Y0031423D01*
X0031405Y0031401D01*
X0031227D01*
X0031183Y0031423D01*
Y0031557D01*
X0031227Y0031579D01*
X0039600Y0009961D02*
X0039512D01*
X0039556D02*
Y0010228D01*
X0039512Y0010183D01*
X0039285Y0010228D02*
Y0010005D01*
X0039263Y0009961D01*
X0039196Y0010094D01*
Y0010139D02*
Y0010094D01*
X0039129Y0009961D01*
X0039107Y0010005D01*
Y0010228D01*
X0038925Y0010183D02*
X0038903Y0010228D01*
X0038769D01*
X0038747Y0010183D01*
Y0010139D01*
X0038769Y0010094D01*
X0038903D01*
X0038925Y0010050D01*
Y0010005D01*
X0038903Y0009961D01*
X0038769D01*
X0038747Y0010005D01*
X0006437Y0026176D02*
X0006459Y0026220D01*
Y0026264D01*
X0006437Y0026309D01*
X0006304D01*
X0006282Y0026264D01*
Y0026220D01*
X0006304Y0026176D01*
X0006437D01*
X0006459Y0026131D01*
Y0026087D01*
X0006437Y0026042D01*
X0006304D01*
X0006282Y0026087D01*
Y0026131D01*
X0006304Y0026176D01*
X0006033D02*
X0006099Y0026042D01*
X0005922Y0026176D02*
X0006055D01*
X0006099Y0026220D01*
Y0026264D01*
X0006055Y0026309D01*
X0005922D01*
Y0026042D01*
X0017913Y0014004D02*
X0017958Y0014049D01*
Y0014138D01*
X0017913Y0014182D01*
X0017869D01*
X0017780Y0014093D01*
X0017691Y0014182D01*
Y0014004D01*
X0017958Y0013822D02*
Y0013667D01*
X0017691D01*
X0017170Y0023268D02*
X0017348D01*
X0017170Y0023090D01*
Y0023045D01*
X0017193Y0023001D01*
X0017326D01*
X0017348Y0023045D01*
X0017686Y0023134D02*
X0017553D01*
X0017530Y0023179D01*
Y0023223D01*
X0017553Y0023268D01*
X0017686D01*
X0017708Y0023223D01*
Y0023179D01*
X0017619Y0023001D01*
X0017890Y0023223D02*
X0017913Y0023268D01*
X0018046D01*
X0018068Y0023223D01*
Y0023045D01*
X0018046Y0023001D01*
X0017913D01*
X0017890Y0023045D01*
X0031320Y0038909D02*
X0031276Y0038865D01*
X0031231Y0038843D01*
X0031142D01*
X0031098Y0038865D01*
X0031053Y0038909D01*
Y0038954D01*
X0031098Y0038998D01*
X0031142Y0039020D01*
X0031231D01*
X0031276Y0038998D01*
X0031320Y0038954D01*
Y0038909D01*
X0031231Y0038660D02*
Y0038483D01*
X0031053Y0038572D01*
Y0038616D01*
X0031320D01*
X0031187Y0038234D02*
X0031320Y0038300D01*
X0031187Y0038123D02*
Y0038256D01*
X0031142Y0038300D01*
X0031098D01*
X0031053Y0038256D01*
Y0038123D01*
X0031320D01*
X0038805Y0027189D02*
Y0027367D01*
X0038983Y0027189D01*
X0039027D01*
X0039072Y0027211D01*
Y0027344D01*
X0039027Y0027367D01*
X0009042Y0011146D02*
X0009087Y0011190D01*
X0009131Y0011212D01*
X0009220D01*
X0009264Y0011190D01*
X0009309Y0011146D01*
Y0011101D01*
X0009264Y0011057D01*
X0009220Y0011034D01*
X0009131D01*
X0009087Y0011057D01*
X0009042Y0011101D01*
Y0011146D01*
Y0011394D02*
Y0011483D01*
Y0011439D02*
X0009309D01*
X0009264Y0011483D01*
X0009042Y0011710D02*
Y0011799D01*
Y0011754D02*
X0009309D01*
X0009264Y0011799D01*
X0009176Y0012092D02*
X0009042Y0012025D01*
X0009176Y0012203D02*
Y0012070D01*
X0009220Y0012025D01*
X0009264D01*
X0009309Y0012070D01*
Y0012203D01*
X0009042D01*
X0021230Y0014454D02*
X0021053D01*
X0021142Y0014632D01*
X0021186D01*
Y0014365D01*
X0020870Y0014454D02*
X0020693D01*
X0020782Y0014632D01*
X0020826D01*
Y0014365D01*
X0020510Y0014409D02*
X0020488Y0014365D01*
X0020355D01*
X0020333Y0014409D01*
Y0014587D01*
X0020355Y0014632D01*
X0020488D01*
X0020510Y0014587D01*
X0014047Y0035551D02*
X0013914D01*
X0013892Y0035595D01*
Y0035639D01*
X0013914Y0035684D01*
X0014047D01*
X0014069Y0035639D01*
Y0035595D01*
X0013981Y0035417D01*
X0013709D02*
X0013532D01*
X0013709Y0035595D01*
Y0035639D01*
X0013687Y0035684D01*
X0013554D01*
X0013532Y0035639D01*
X0013283Y0035551D02*
X0013349Y0035417D01*
X0013172Y0035551D02*
X0013305D01*
X0013349Y0035595D01*
Y0035639D01*
X0013305Y0035684D01*
X0013172D01*
Y0035417D01*
X0004952Y0021151D02*
X0004907Y0021195D01*
X0004818D01*
X0004774Y0021151D01*
Y0021106D01*
X0004863Y0021017D01*
X0004774Y0020928D01*
X0004952D01*
X0005134Y0021195D02*
X0005223D01*
X0005178D02*
Y0020928D01*
X0005223Y0020973D01*
X0005516Y0021062D02*
X0005449Y0021195D01*
X0005627Y0021062D02*
X0005494D01*
X0005449Y0021017D01*
Y0020973D01*
X0005494Y0020928D01*
X0005627D01*
Y0021195D01*
X0014400Y0033667D02*
X0014311D01*
X0014356D02*
Y0033934D01*
X0014311Y0033889D01*
X0013907Y0033712D02*
X0013951Y0033667D01*
X0014040D01*
X0014084Y0033712D01*
Y0033756D01*
X0013996Y0033845D01*
X0014084Y0033934D01*
X0013907D01*
X0013658Y0033801D02*
X0013724Y0033667D01*
X0013547Y0033801D02*
X0013680D01*
X0013724Y0033845D01*
Y0033889D01*
X0013680Y0033934D01*
X0013547D01*
Y0033667D01*
X0034008Y0028159D02*
X0034053Y0028115D01*
X0034141D01*
X0034186Y0028159D01*
Y0028204D01*
X0034097Y0028293D01*
X0034186Y0028382D01*
X0034008D01*
X0033826Y0028115D02*
X0033737D01*
X0033782D02*
Y0028382D01*
X0033737Y0028337D01*
X0033510Y0028159D02*
X0033488Y0028115D01*
X0033355D01*
X0033333Y0028159D01*
Y0028337D01*
X0033355Y0028382D01*
X0033488D01*
X0033510Y0028337D01*
X0006203Y0013680D02*
X0006336Y0013947D01*
X0006158D01*
X0005865Y0013680D02*
X0005820Y0013724D01*
X0005798Y0013769D01*
Y0013858D01*
X0005820Y0013902D01*
X0005865Y0013947D01*
X0005909D01*
X0005954Y0013902D01*
X0005976Y0013858D01*
Y0013769D01*
X0005954Y0013724D01*
X0005909Y0013680D01*
X0005865D01*
X0005616D02*
X0005527D01*
X0005572D02*
Y0013947D01*
X0005527Y0013902D01*
X0005234Y0013813D02*
X0005300Y0013680D01*
X0005123Y0013813D02*
X0005256D01*
X0005300Y0013858D01*
Y0013902D01*
X0005256Y0013947D01*
X0005123D01*
Y0013680D01*
X0027520Y0038937D02*
X0027253Y0039070D01*
Y0038893D01*
X0027476Y0038533D02*
X0027520Y0038555D01*
Y0038688D01*
X0027476Y0038710D01*
X0027387D01*
X0027342Y0038666D01*
Y0038533D01*
X0027253D01*
Y0038710D01*
X0027387Y0038284D02*
X0027520Y0038350D01*
X0027387Y0038173D02*
Y0038306D01*
X0027342Y0038350D01*
X0027298D01*
X0027253Y0038306D01*
Y0038173D01*
X0027520D01*
X0026812Y0039123D02*
Y0038990D01*
X0026767Y0038968D01*
X0026723D01*
X0026678Y0038990D01*
Y0039123D01*
X0026723Y0039145D01*
X0026767D01*
X0026945Y0039057D01*
X0026901Y0038608D02*
X0026945Y0038630D01*
Y0038763D01*
X0026901Y0038785D01*
X0026812D01*
X0026767Y0038741D01*
Y0038608D01*
X0026678D01*
Y0038785D01*
X0026812Y0038359D02*
X0026945Y0038425D01*
X0026812Y0038248D02*
Y0038381D01*
X0026767Y0038425D01*
X0026723D01*
X0026678Y0038381D01*
Y0038248D01*
X0026945D01*
X0009695Y0009812D02*
X0009561D01*
X0009539Y0009856D01*
Y0009901D01*
X0009561Y0009945D01*
X0009695D01*
X0009717Y0009901D01*
Y0009856D01*
X0009628Y0009678D01*
X0010010Y0009945D02*
X0010055Y0009901D01*
X0010077Y0009856D01*
Y0009767D01*
X0010055Y0009723D01*
X0010010Y0009678D01*
X0009966D01*
X0009921Y0009723D01*
X0009899Y0009767D01*
Y0009856D01*
X0009921Y0009901D01*
X0009966Y0009945D01*
X0010010D01*
X0010259D02*
X0010348D01*
X0010303D02*
Y0009678D01*
X0010348Y0009723D01*
X0010641Y0009812D02*
X0010574Y0009945D01*
X0010752Y0009812D02*
X0010619D01*
X0010574Y0009767D01*
Y0009723D01*
X0010619Y0009678D01*
X0010752D01*
Y0009945D01*
X0036165Y0028863D02*
X0036298D01*
X0036320Y0028819D01*
Y0028774D01*
X0036298Y0028730D01*
X0036165D01*
X0036143Y0028774D01*
Y0028819D01*
X0036232Y0028997D01*
X0035805Y0028863D02*
X0035938D01*
X0035960Y0028819D01*
Y0028774D01*
X0035938Y0028730D01*
X0035805D01*
X0035783Y0028774D01*
Y0028819D01*
X0035872Y0028997D01*
X0035534Y0028863D02*
X0035600Y0028730D01*
X0035423Y0028863D02*
X0035556D01*
X0035600Y0028908D01*
Y0028952D01*
X0035556Y0028997D01*
X0035423D01*
Y0028730D01*
X0004394Y0042664D02*
Y0042842D01*
X0004572Y0042753D01*
Y0042708D01*
X0004305D01*
Y0043135D02*
X0004349Y0043180D01*
X0004394Y0043202D01*
X0004483D01*
X0004527Y0043180D01*
X0004572Y0043135D01*
Y0043091D01*
X0004527Y0043046D01*
X0004483Y0043024D01*
X0004394D01*
X0004349Y0043046D01*
X0004305Y0043091D01*
Y0043135D01*
Y0043384D02*
Y0043473D01*
Y0043428D02*
X0004572D01*
X0004527Y0043473D01*
X0004438Y0043766D02*
X0004305Y0043699D01*
X0004438Y0043877D02*
Y0043744D01*
X0004483Y0043699D01*
X0004527D01*
X0004572Y0043744D01*
Y0043877D01*
X0004305D01*
X0013635Y0046177D02*
Y0046088D01*
Y0046132D02*
X0013369D01*
X0013413Y0046088D01*
X0013635Y0045861D02*
Y0045706D01*
X0013369D01*
X0023885Y0022516D02*
Y0022428D01*
Y0022472D02*
X0023618D01*
X0023663Y0022428D01*
X0023885Y0022201D02*
Y0022112D01*
Y0022157D02*
X0023618D01*
X0023663Y0022112D01*
X0023841Y0021885D02*
X0023885Y0021863D01*
Y0021730D01*
X0023841Y0021708D01*
X0023663D01*
X0023618Y0021730D01*
Y0021863D01*
X0023663Y0021885D01*
X0036143Y0033899D02*
X0036165Y0033855D01*
X0036298D01*
X0036320Y0033899D01*
Y0033988D01*
X0036276Y0034033D01*
X0036143D01*
Y0034122D01*
X0036320D01*
X0035783Y0033899D02*
X0035805Y0033855D01*
X0035938D01*
X0035960Y0033899D01*
Y0033988D01*
X0035916Y0034033D01*
X0035783D01*
Y0034122D01*
X0035960D01*
X0035534Y0033988D02*
X0035600Y0033855D01*
X0035423Y0033988D02*
X0035556D01*
X0035600Y0034033D01*
Y0034077D01*
X0035556Y0034122D01*
X0035423D01*
Y0033855D01*
X0004459Y0033381D02*
X0004282D01*
X0004371Y0033559D01*
X0004415D01*
Y0033292D01*
X0004099Y0033337D02*
X0004077Y0033292D01*
X0003944D01*
X0003922Y0033337D01*
Y0033514D01*
X0003944Y0033559D01*
X0004077D01*
X0004099Y0033514D01*
X0006992Y0050176D02*
Y0050265D01*
Y0050221D02*
X0007259D01*
X0007215Y0050265D01*
X0006992Y0050492D02*
Y0050625D01*
X0007259Y0050492D01*
Y0050625D01*
X0006992Y0050985D02*
X0007259D01*
X0006992Y0051007D02*
Y0050874D01*
X0007081Y0050829D01*
X0007170D01*
X0007259Y0050874D01*
Y0051007D01*
X0021601Y0034930D02*
X0021512D01*
X0021557D02*
Y0035197D01*
X0021512Y0035152D01*
X0021108Y0034974D02*
X0021130Y0034930D01*
X0021263D01*
X0021285Y0034974D01*
Y0035063D01*
X0021241Y0035108D01*
X0021108D01*
Y0035197D01*
X0021285D01*
X0020859Y0035063D02*
X0020925Y0034930D01*
X0020748Y0035063D02*
X0020881D01*
X0020925Y0035108D01*
Y0035152D01*
X0020881Y0035197D01*
X0020748D01*
Y0034930D01*
X0014901Y0051843D02*
X0014945Y0051865D01*
Y0051998D01*
X0014901Y0052020D01*
X0014812D01*
X0014767Y0051976D01*
Y0051843D01*
X0014678D01*
Y0052020D01*
X0014812Y0051638D02*
X0014767Y0051660D01*
X0014723D01*
X0014678Y0051638D01*
Y0051505D01*
X0014723Y0051483D01*
X0014767D01*
X0014812Y0051505D01*
Y0051638D01*
X0014856Y0051660D01*
X0014901D01*
X0014945Y0051638D01*
Y0051505D01*
X0014901Y0051483D01*
X0014856D01*
X0014812Y0051505D01*
Y0051234D02*
X0014945Y0051300D01*
X0014812Y0051123D02*
Y0051256D01*
X0014767Y0051300D01*
X0014723D01*
X0014678Y0051256D01*
Y0051123D01*
X0014945D01*
X0021510Y0052200D02*
X0021466Y0052155D01*
X0021421Y0052133D01*
X0021332D01*
X0021288Y0052155D01*
X0021243Y0052200D01*
Y0052244D01*
X0021288Y0052289D01*
X0021332Y0052311D01*
X0021421D01*
X0021466Y0052289D01*
X0021510Y0052244D01*
Y0052200D01*
Y0051951D02*
Y0051862D01*
Y0051907D02*
X0021243D01*
X0021288Y0051862D01*
X0021466Y0051635D02*
X0021510Y0051613D01*
Y0051480D01*
X0021466Y0051458D01*
X0021288D01*
X0021243Y0051480D01*
Y0051613D01*
X0021288Y0051635D01*
X0037938Y0021336D02*
Y0021469D01*
X0037982Y0021492D01*
X0038027D01*
X0038071Y0021469D01*
Y0021336D01*
X0038027Y0021314D01*
X0037982D01*
X0037805Y0021403D01*
X0005305Y0042708D02*
Y0042797D01*
Y0042753D02*
X0005572D01*
X0005527Y0042797D01*
X0005305Y0043135D02*
X0005349Y0043180D01*
X0005394Y0043202D01*
X0005483D01*
X0005527Y0043180D01*
X0005572Y0043135D01*
Y0043091D01*
X0005527Y0043046D01*
X0005483Y0043024D01*
X0005394D01*
X0005349Y0043046D01*
X0005305Y0043091D01*
Y0043135D01*
Y0043384D02*
Y0043473D01*
Y0043428D02*
X0005572D01*
X0005527Y0043473D01*
X0005438Y0043766D02*
X0005305Y0043699D01*
X0005438Y0043877D02*
Y0043744D01*
X0005483Y0043699D01*
X0005527D01*
X0005572Y0043744D01*
Y0043877D01*
X0005305D01*
X0010563Y0012801D02*
X0010518Y0012845D01*
X0010496Y0012889D01*
Y0012978D01*
X0010518Y0013023D01*
X0010563Y0013067D01*
X0010607D01*
X0010652Y0013023D01*
X0010674Y0012978D01*
Y0012889D01*
X0010652Y0012845D01*
X0010607Y0012801D01*
X0010563D01*
X0010136Y0012845D02*
X0010158Y0012801D01*
X0010292D01*
X0010314Y0012845D01*
Y0012934D01*
X0010269Y0012978D01*
X0010136D01*
Y0013067D01*
X0010314D01*
X0009954Y0012845D02*
X0009932Y0012801D01*
X0009798D01*
X0009776Y0012845D01*
Y0013023D01*
X0009798Y0013067D01*
X0009932D01*
X0009954Y0013023D01*
X0021157Y0049577D02*
X0021202Y0049621D01*
X0021246Y0049643D01*
X0021335D01*
X0021379Y0049621D01*
X0021424Y0049577D01*
Y0049532D01*
X0021379Y0049488D01*
X0021335Y0049465D01*
X0021246D01*
X0021202Y0049488D01*
X0021157Y0049532D01*
Y0049577D01*
X0021246Y0049825D02*
Y0050003D01*
X0021424Y0049914D01*
Y0049870D01*
X0021157D01*
X0021202Y0050185D02*
X0021157Y0050208D01*
Y0050341D01*
X0021202Y0050363D01*
X0021379D01*
X0021424Y0050341D01*
Y0050208D01*
X0021379Y0050185D01*
X0024645Y0024776D02*
Y0024687D01*
Y0024732D02*
X0024378D01*
X0024423Y0024687D01*
X0024645Y0024327D02*
X0024378Y0024460D01*
Y0024283D01*
X0024512Y0024034D02*
X0024645Y0024100D01*
X0024512Y0023923D02*
Y0024056D01*
X0024467Y0024100D01*
X0024423D01*
X0024378Y0024056D01*
Y0023923D01*
X0024645D01*
X0017226Y0051403D02*
X0017270Y0051380D01*
X0017314D01*
X0017359Y0051403D01*
Y0051536D01*
X0017314Y0051558D01*
X0017270D01*
X0017226Y0051536D01*
Y0051403D01*
X0017181Y0051380D01*
X0017137D01*
X0017092Y0051403D01*
Y0051536D01*
X0017137Y0051558D01*
X0017181D01*
X0017226Y0051536D01*
Y0051763D02*
X0017270Y0051740D01*
X0017314D01*
X0017359Y0051763D01*
Y0051896D01*
X0017314Y0051918D01*
X0017270D01*
X0017226Y0051896D01*
Y0051763D01*
X0017181Y0051740D01*
X0017137D01*
X0017092Y0051763D01*
Y0051896D01*
X0017137Y0051918D01*
X0017181D01*
X0017226Y0051896D01*
Y0052167D02*
X0017092Y0052100D01*
X0017226Y0052278D02*
Y0052145D01*
X0017270Y0052100D01*
X0017314D01*
X0017359Y0052145D01*
Y0052278D01*
X0017092D01*
X0015163Y0028412D02*
X0015141Y0028368D01*
Y0028323D01*
X0015163Y0028279D01*
X0015297D01*
X0015319Y0028323D01*
Y0028368D01*
X0015297Y0028412D01*
X0015163D01*
X0015141Y0028456D01*
Y0028501D01*
X0015163Y0028545D01*
X0015297D01*
X0015319Y0028501D01*
Y0028456D01*
X0015297Y0028412D01*
X0015501Y0028279D02*
Y0028501D01*
X0015523Y0028545D01*
X0015657D01*
X0015679Y0028501D01*
Y0028279D01*
X0018450Y0046887D02*
X0018317D01*
X0018294Y0046931D01*
Y0046976D01*
X0018317Y0047020D01*
X0018450D01*
X0018472Y0046976D01*
Y0046931D01*
X0018383Y0046753D01*
X0018832Y0046976D02*
X0018788Y0047020D01*
X0018699D01*
X0018654Y0046976D01*
Y0046931D01*
X0018743Y0046842D01*
X0018654Y0046753D01*
X0018832D01*
X0019014Y0046976D02*
X0019037Y0047020D01*
X0019170D01*
X0019192Y0046976D01*
Y0046798D01*
X0019170Y0046753D01*
X0019037D01*
X0019014Y0046798D01*
X0024476Y0038893D02*
X0024520Y0038915D01*
Y0039048D01*
X0024476Y0039070D01*
X0024387D01*
X0024342Y0039026D01*
Y0038893D01*
X0024253D01*
Y0039070D01*
X0024476Y0038533D02*
X0024520Y0038577D01*
Y0038666D01*
X0024476Y0038710D01*
X0024431D01*
X0024342Y0038622D01*
X0024253Y0038710D01*
Y0038533D01*
X0024387Y0038284D02*
X0024520Y0038350D01*
X0024387Y0038173D02*
Y0038306D01*
X0024342Y0038350D01*
X0024298D01*
X0024253Y0038306D01*
Y0038173D01*
X0024520D01*
X0039480Y0012643D02*
X0039436Y0012598D01*
Y0012509D01*
X0039480Y0012465D01*
X0039525D01*
X0039614Y0012554D01*
X0039703Y0012465D01*
Y0012643D01*
X0039436Y0012981D02*
X0039703D01*
X0039436Y0013003D02*
Y0012869D01*
X0039525Y0012825D01*
X0039614D01*
X0039703Y0012869D01*
Y0013003D01*
X0039075Y0011036D02*
Y0011081D01*
X0038986Y0010947D02*
X0039075Y0011036D01*
X0039164Y0010947D01*
X0038986Y0011081D02*
X0039253D01*
X0011805Y0024868D02*
X0011761Y0024823D01*
Y0024734D01*
X0011805Y0024690D01*
X0011850D01*
X0011939Y0024779D01*
X0012028Y0024690D01*
Y0024868D01*
Y0025050D02*
X0011805D01*
X0011761Y0025072D01*
Y0025206D01*
X0011805Y0025228D01*
X0012028D01*
X0012320Y0026490D02*
X0012276Y0026445D01*
X0012231Y0026423D01*
X0012142D01*
X0012098Y0026445D01*
X0012053Y0026490D01*
Y0026534D01*
X0012098Y0026579D01*
X0012142Y0026601D01*
X0012231D01*
X0012276Y0026579D01*
X0012320Y0026534D01*
Y0026490D01*
Y0026241D02*
Y0026152D01*
Y0026197D02*
X0012053D01*
X0012098Y0026152D01*
X0012187Y0025859D02*
X0012320Y0025925D01*
X0012187Y0025748D02*
Y0025881D01*
X0012142Y0025925D01*
X0012098D01*
X0012053Y0025881D01*
Y0025748D01*
X0012320D01*
X0015060Y0031817D02*
X0014971D01*
X0015016D02*
Y0032084D01*
X0014971Y0032039D01*
X0014589Y0031951D02*
X0014722D01*
X0014744Y0031906D01*
Y0031862D01*
X0014722Y0031817D01*
X0014589D01*
X0014567Y0031862D01*
Y0031906D01*
X0014656Y0032084D01*
X0014384Y0031862D02*
X0014362Y0031817D01*
X0014229D01*
X0014207Y0031862D01*
Y0032039D01*
X0014229Y0032084D01*
X0014362D01*
X0014384Y0032039D01*
X0023481Y0024711D02*
Y0024533D01*
X0023303Y0024622D01*
Y0024666D01*
X0023570D01*
Y0024351D02*
Y0024173D01*
X0023392Y0024351D01*
X0023348D01*
X0023303Y0024329D01*
Y0024195D01*
X0023348Y0024173D01*
X0023570Y0023991D02*
Y0023902D01*
Y0023947D02*
X0023303D01*
X0023348Y0023902D01*
X0023437Y0023609D02*
X0023570Y0023675D01*
X0023437Y0023498D02*
Y0023631D01*
X0023392Y0023675D01*
X0023348D01*
X0023303Y0023631D01*
Y0023498D01*
X0023570D01*
X0007534Y0047613D02*
X0007578Y0047658D01*
Y0047747D01*
X0007534Y0047791D01*
X0007489D01*
X0007401Y0047702D01*
X0007312Y0047791D01*
Y0047613D01*
X0007534Y0047253D02*
X0007578Y0047276D01*
Y0047409D01*
X0007534Y0047431D01*
X0007445D01*
X0007401Y0047387D01*
Y0047253D01*
X0007312D01*
Y0047431D01*
X0007534Y0047071D02*
X0007578Y0047049D01*
Y0046916D01*
X0007534Y0046893D01*
X0007356D01*
X0007312Y0046916D01*
Y0047049D01*
X0007356Y0047071D01*
X0036518Y0027394D02*
X0036340D01*
X0036429Y0027571D01*
X0036474D01*
Y0027305D01*
X0036158D02*
X0036003D01*
Y0027571D01*
X0005308Y0029894D02*
X0005352Y0029850D01*
X0005441D01*
X0005485Y0029894D01*
Y0029939D01*
X0005397Y0030028D01*
X0005485Y0030117D01*
X0005308D01*
X0005037Y0029939D02*
X0005125Y0029850D01*
X0004948Y0029894D02*
X0004970Y0029850D01*
X0005059D01*
X0005081Y0029894D01*
X0005125Y0029939D01*
Y0030072D01*
X0005103Y0030117D01*
X0004970D01*
X0004948Y0030072D01*
Y0029894D01*
X0007310Y0007676D02*
X0007443D01*
X0007465Y0007631D01*
Y0007587D01*
X0007443Y0007542D01*
X0007310D01*
X0007288Y0007587D01*
Y0007631D01*
X0007377Y0007809D01*
X0007105Y0007542D02*
X0007017D01*
X0007061D02*
Y0007809D01*
X0007017Y0007764D01*
X0006790Y0007542D02*
X0006701D01*
X0006746D02*
Y0007809D01*
X0006701Y0007764D01*
X0006408Y0007676D02*
X0006474Y0007542D01*
X0006297Y0007676D02*
X0006430D01*
X0006474Y0007720D01*
Y0007764D01*
X0006430Y0007809D01*
X0006297D01*
Y0007542D01*
X0008982Y0012560D02*
Y0012649D01*
Y0012604D02*
X0009249D01*
X0009204Y0012649D01*
X0009027Y0013053D02*
X0008982Y0013031D01*
Y0012898D01*
X0009027Y0012875D01*
X0009116D01*
X0009160Y0012920D01*
Y0013053D01*
X0009249D01*
Y0012875D01*
X0009027Y0013235D02*
X0008982Y0013258D01*
Y0013391D01*
X0009027Y0013413D01*
X0009204D01*
X0009249Y0013391D01*
Y0013258D01*
X0009204Y0013235D01*
X0022150Y0004930D02*
Y0012030D01*
X0034050D01*
X0034150Y0011930D01*
Y0004930D01*
X0022150D01*
X0036550Y0007650D02*
X0036650D01*
Y0006850D01*
X0036850D01*
Y0006750D01*
X0038650D01*
Y0006850D01*
X0038850D01*
Y0007650D01*
X0038950D01*
Y0008850D01*
X0038850D01*
Y0009650D01*
X0038650D01*
Y0009750D01*
X0036850D01*
Y0009650D01*
X0036650D01*
Y0008850D01*
X0036550D01*
Y0007650D01*
X0021400Y0019700D02*
Y0019600D01*
X0020600D01*
Y0019400D01*
X0020500D01*
Y0017600D01*
X0020600D01*
Y0017400D01*
X0021400D01*
Y0017300D01*
X0022600D01*
Y0017400D01*
X0023400D01*
Y0017600D01*
X0023500D01*
Y0019400D01*
X0023400D01*
Y0019600D01*
X0022600D01*
Y0019700D01*
X0021400D01*
X0033937Y0015875D02*
X0023937D01*
Y0017875D01*
X0033937D01*
Y0015875D01*
X0006800Y0052700D02*
Y0051700D01*
X0004800D01*
Y0052700D01*
X0006800D01*
X0016085Y0028830D02*
Y0030830D01*
X0016835D01*
Y0028830D01*
X0016085D01*
X0016835Y0029080D02*
X0016085D01*
X0015625Y0010395D02*
X0011875D01*
Y0009645D01*
X0015625D01*
Y0010395D01*
X0015375D02*
Y0009645D01*
X0007655Y0046325D02*
Y0044575D01*
X0008405D01*
Y0046325D01*
X0007655D01*
Y0046075D02*
X0008405D01*
X0039500Y0026750D02*
Y0021750D01*
X0037500D01*
Y0026750D01*
X0039500D01*
X0006750Y0032750D02*
X0006875D01*
Y0036250D01*
X0006750D01*
Y0036500D01*
X0010750D01*
Y0032500D01*
X0006750D01*
Y0032750D01*
X0037500Y0028500D02*
Y0038500D01*
X0039500D01*
Y0028500D01*
X0037500D01*
X0008375Y0021500D02*
Y0017000D01*
X0010875D01*
Y0021500D01*
X0008375D01*
X0010875Y0017250D02*
X0008375D01*
X0003250Y0045000D02*
Y0044000D01*
X0001250D01*
Y0045000D01*
X0003250D01*
X0007625Y0009895D02*
X0005875D01*
Y0009145D01*
X0007625D01*
Y0009895D01*
X0007375D02*
Y0009145D01*
X0009300Y0050450D02*
X0009100D01*
Y0048100D01*
X0007850D01*
Y0050450D01*
X0008100D01*
Y0052800D01*
X0009350D01*
Y0050450D01*
X0016015Y0032460D02*
Y0034460D01*
X0016765D01*
Y0032460D01*
X0016015D01*
X0016765Y0032710D02*
X0016015D01*
X0004500Y0030750D02*
Y0031750D01*
X0006500D01*
Y0030750D01*
X0004500D01*
X0022500Y0044750D02*
X0021500D01*
Y0048750D01*
X0022500D01*
Y0044750D01*
X0035083Y0001861D02*
X0035780Y0001978D01*
X0035199Y0001164D01*
X0035083Y0001861D01*
X0033862Y0002733D01*
X0035199Y0001164D02*
X0035606Y0000874D01*
X0036187Y0001687D01*
X0035780Y0001978D01*
X0004000Y0042080D02*
Y0037880D01*
X0006950Y0042080D02*
Y0037880D01*
X0000500D01*
Y0042080D01*
X0006950D01*
G01X0037750Y0007230D02*
G03X0038770Y0008250I0000000J0001020D01*
G01X0036730D02*
G03X0037750Y0007230I0001020J0000000D01*
Y0009270D02*
G03X0036730Y0008250I0000000J0001020D01*
G01X0038770D02*
G03X0037750Y0009270I0001020J0000000D01*
Y0007350D02*
G03X0038650Y0008250I0000000J0000900D01*
G01X0036850D02*
G03X0037750Y0007350I0000900J0000000D01*
Y0009150D02*
G03X0036850Y0008250I0000000J0000900D01*
G01X0038650D02*
G03X0037750Y0009150I0000900J0000000D01*
G01X0022000Y0017480D02*
G03X0023020Y0018500I0000000J0001020D01*
G01X0020980D02*
G03X0022000Y0017480I0001020J0000000D01*
Y0019520D02*
G03X0020980Y0018500I0000000J0001020D01*
G01X0023020D02*
G03X0022000Y0019520I0001020J0000000D01*
Y0017600D02*
G03X0022900Y0018500I0000000J0000900D01*
G01X0021100D02*
G03X0022000Y0017600I0000900J0000000D01*
Y0019400D02*
G03X0021100Y0018500I0000000J0000900D01*
G01X0022900D02*
G03X0022000Y0019400I0000900J0000000D01*
G01X0011055Y0039300D02*
G03X0012305Y0038050I0001250J0000000D01*
G03X0013555Y0039300I0000000J0001250D01*
G03X0012305Y0040550I0001250J0000000D01*
G03X0011055Y0039300I0000000J0001250D01*
G01X0014750Y0027250D02*
G03X0013750Y0028250I0001000J0000000D01*
G03X0012750Y0027250I0000000J0001000D01*
G03X0013750Y0026250I0001000J0000000D01*
G03X0014750Y0027250I0000000J0001000D01*
G01X0008650Y0042105D02*
G03X0009900Y0040855I0001250J0000000D01*
G03X0011150Y0042105I0000000J0001250D01*
G03X0009900Y0043355I0001250J0000000D01*
G03X0008650Y0042105I0000000J0001250D01*
G01X0033048Y0002314D02*
G03X0034048Y0003314I0000000J0001000D01*
G01X0032048D02*
G03X0033048Y0002314I0001000J0000000D01*
Y0004314D02*
G03X0032048Y0003314I0000000J0001000D01*
G01X0034048D02*
G03X0033048Y0004314I0001000J0000000D01*
G54D64*
G01X0038062Y0048607D02*
Y0048419D01*
X0037874Y0048513D01*
Y0048560D01*
X0038157D01*
X0037921Y0048375D02*
X0037874Y0048351D01*
Y0048210D01*
X0037921Y0048186D01*
X0037968D01*
X0038015Y0048210D01*
Y0048351D01*
X0038062Y0048375D01*
X0038110D01*
X0038157Y0048351D01*
Y0048210D01*
X0038110Y0048186D01*
X0039547Y0054324D02*
X0039594Y0054371D01*
Y0054465D01*
X0039547Y0054512D01*
X0039500D01*
X0039406Y0054418D01*
X0039311Y0054512D01*
Y0054324D01*
X0039358Y0054280D02*
X0039311Y0054256D01*
Y0054115D01*
X0039358Y0054091D01*
X0039406D01*
X0039453Y0054115D01*
Y0054256D01*
X0039500Y0054280D01*
X0039547D01*
X0039594Y0054256D01*
Y0054115D01*
X0039547Y0054091D01*
X0039594Y0001732D02*
Y0001544D01*
X0039406Y0001732D01*
X0039358D01*
X0039311Y0001709D01*
Y0001567D01*
X0039358Y0001544D01*
Y0001500D02*
X0039311Y0001476D01*
Y0001335D01*
X0039358Y0001311D01*
X0039406D01*
X0039453Y0001335D01*
Y0001476D01*
X0039500Y0001500D01*
X0039547D01*
X0039594Y0001476D01*
Y0001335D01*
X0039547Y0001311D01*
X0001594Y0001685D02*
Y0001591D01*
Y0001638D02*
X0001311D01*
X0001358Y0001591D01*
Y0001500D02*
X0001311Y0001476D01*
Y0001335D01*
X0001358Y0001311D01*
X0001406D01*
X0001453Y0001335D01*
Y0001476D01*
X0001500Y0001500D01*
X0001547D01*
X0001594Y0001476D01*
Y0001335D01*
X0001547Y0001311D01*
X0020255Y0053976D02*
X0019955D01*
X0020105D02*
Y0054877D01*
X0019955Y0054726D01*
X0019184Y0053976D02*
X0019109Y0054126D01*
Y0054726D01*
X0019184Y0054877D01*
X0019635D01*
X0019710Y0054726D01*
Y0054126D01*
X0019635Y0053976D01*
X0019184D01*
X0018714Y0054426D02*
X0019014D01*
Y0054126D01*
X0018939Y0053976D01*
X0018489D01*
X0018414Y0054126D01*
Y0054726D01*
X0018489Y0054877D01*
X0018939D01*
X0019014Y0054726D01*
X0017793Y0053976D02*
X0017718Y0054126D01*
Y0054726D01*
X0017793Y0054877D01*
X0018244D01*
X0018319Y0054726D01*
Y0054126D01*
X0018244Y0053976D01*
X0017793D01*
X0017623D02*
X0017098D01*
Y0054877D01*
X0010171Y0054236D02*
X0010121Y0054336D01*
Y0054735D01*
X0010171Y0054835D01*
X0010471D01*
X0010521Y0054735D01*
Y0054336D01*
X0010471Y0054236D01*
X0010171D01*
X0009852Y0054535D02*
X0010052D01*
Y0054336D01*
X0010002Y0054236D01*
X0009702D01*
X0009652Y0054336D01*
Y0054735D01*
X0009702Y0054835D01*
X0010002D01*
X0010052Y0054735D01*
X0009233Y0054236D02*
X0009183Y0054336D01*
Y0054735D01*
X0009233Y0054835D01*
X0009533D01*
X0009583Y0054735D01*
Y0054336D01*
X0009533Y0054236D01*
X0009233D01*
X0009113D02*
X0008764D01*
Y0054835D01*
X0001547Y0054544D02*
X0001594Y0054567D01*
Y0054709D01*
X0001547Y0054732D01*
X0001453D01*
X0001406Y0054685D01*
Y0054544D01*
X0001311D01*
Y0054732D01*
X0001358Y0054500D02*
X0001311Y0054476D01*
Y0054335D01*
X0001358Y0054311D01*
X0001406D01*
X0001453Y0054335D01*
Y0054476D01*
X0001500Y0054500D01*
X0001547D01*
X0001594Y0054476D01*
Y0054335D01*
X0001547Y0054311D01*
G54D65*
G01X0008747Y0041154D02*
Y0040932D01*
X0008858Y0041043D02*
X0008636D01*
X0011277Y0038349D02*
Y0038127D01*
X0011388Y0038238D02*
X0011166D01*
G54D131*
G01X0018310Y0027436D02*
Y0027366D01*
Y0027401D02*
X0018100D01*
X0018135Y0027366D01*
X0025872Y0021539D02*
X0030353D01*
X0025864Y0023445D02*
X0030345D01*
X0030353Y0023441D02*
Y0022909D01*
X0030357Y0022094D02*
Y0021543D01*
X0030353Y0023441D02*
Y0022909D01*
X0025860Y0023453D02*
Y0022921D01*
X0030357Y0022094D02*
Y0021543D01*
X0025868Y0022102D02*
Y0021551D01*
X0025872Y0021539D02*
X0030353D01*
X0017070Y0026101D02*
Y0026573D01*
X0017306D01*
X0018643Y0025433D02*
Y0025000D01*
X0018368D01*
X0018643Y0026101D02*
Y0026573D01*
X0018407D01*
X0017070Y0025433D02*
Y0025000D01*
X0017345D01*
X0024232Y0042720D02*
X0033023D01*
Y0043566D01*
X0032492Y0043723D01*
Y0043900D01*
X0029680D01*
Y0047460D01*
X0029798D01*
Y0049387D01*
X0029680D01*
Y0050607D01*
X0029463D01*
Y0051393D01*
X0030368D01*
X0030378Y0052580D01*
X0032492D01*
Y0052750D01*
X0033023Y0052849D01*
Y0053498D01*
X0033031Y0053718D01*
X0024227D01*
X0024232Y0052416D01*
X0023839D01*
Y0043979D01*
X0024232D01*
Y0042720D01*
X0031882Y0053718D02*
Y0054147D01*
X0030702D01*
X0030703Y0053708D01*
X0031902Y0042720D02*
Y0041914D01*
X0030702Y0042701D02*
Y0041914D01*
X0031902D01*
G54D132*
G01X0033082Y0043527D02*
X0037409D01*
Y0052947D01*
X0033043D01*
G54D133*
G01X0020300Y0029685D02*
Y0030435D01*
X0018700D01*
Y0029685D01*
X0020300D01*
X0018735Y0030550D02*
X0019485D01*
Y0032150D01*
X0018735D01*
Y0030550D01*
X0024125Y0026470D02*
X0023375D01*
Y0024870D01*
X0024125D01*
Y0026470D01*
X0001195Y0047650D02*
Y0046350D01*
X0003445D01*
Y0047650D01*
X0003470D01*
X0001195D01*
X0004625Y0017280D02*
X0005375D01*
Y0018880D01*
X0004625D01*
Y0017280D01*
X0027875Y0026470D02*
X0027125D01*
Y0024870D01*
X0027875D01*
Y0026470D01*
X0010525Y0015850D02*
X0008375D01*
Y0014650D01*
X0010525D01*
Y0015850D01*
X0010875Y0014280D02*
X0011625D01*
Y0015880D01*
X0010875D01*
Y0014280D01*
X0006375Y0017220D02*
X0005625D01*
Y0015620D01*
X0006375D01*
Y0017220D01*
X0028625Y0026470D02*
X0027875D01*
Y0024870D01*
X0028625D01*
Y0026470D01*
X0031035Y0018500D02*
X0031785D01*
Y0020100D01*
X0031035D01*
Y0018500D01*
X0004530Y0024700D02*
X0004270D01*
Y0024400D01*
X0004220D01*
X0005470D02*
Y0024700D01*
X0005210D01*
X0018150Y0014275D02*
Y0012125D01*
X0019350D01*
Y0014275D01*
X0018150D01*
X0015150Y0032085D02*
Y0031335D01*
X0016750D01*
Y0032085D01*
X0015150D01*
X0028125Y0037970D02*
X0027375D01*
Y0036370D01*
X0028125D01*
Y0037970D01*
X0023470Y0035375D02*
Y0036125D01*
X0021870D01*
Y0035375D01*
X0023470D01*
X0009030Y0010875D02*
Y0010125D01*
X0010630D01*
Y0010875D01*
X0009030D01*
X0018095Y0047275D02*
X0016945D01*
Y0046630D01*
X0018095D01*
Y0047275D01*
X0004300Y0016030D02*
Y0015770D01*
X0004600D01*
Y0015720D01*
Y0016970D02*
X0004300D01*
Y0016710D01*
X0015720Y0018375D02*
Y0019125D01*
X0014120D01*
Y0018375D01*
X0015720D01*
X0028875Y0037970D02*
X0028125D01*
Y0036370D01*
X0028875D01*
Y0037970D01*
X0015720Y0020375D02*
Y0021125D01*
X0014120D01*
Y0020375D01*
X0015720D01*
X0016720Y0021375D02*
Y0022125D01*
X0015120D01*
Y0021375D01*
X0016720D01*
X0021220Y0013375D02*
Y0014125D01*
X0019620D01*
Y0013375D01*
X0021220D01*
X0009530Y0047625D02*
Y0046875D01*
X0011130D01*
Y0047625D01*
X0009530D01*
X0033220Y0027125D02*
Y0027875D01*
X0031620D01*
Y0027125D01*
X0033220D01*
X0031125Y0037970D02*
X0030375D01*
Y0036370D01*
X0031125D01*
Y0037970D01*
X0021125Y0048720D02*
X0020375D01*
Y0047120D01*
X0021125D01*
Y0048720D01*
X0015720Y0022375D02*
Y0023125D01*
X0014120D01*
Y0022375D01*
X0015720D01*
X0004780Y0035875D02*
Y0035125D01*
X0006380D01*
Y0035875D01*
X0004780D01*
X0016970Y0005125D02*
Y0005875D01*
X0015370D01*
Y0005125D01*
X0016970D01*
X0004375Y0047470D02*
X0003625D01*
Y0045870D01*
X0004375D01*
Y0047470D01*
X0003625Y0044030D02*
X0004375D01*
Y0045630D01*
X0003625D01*
Y0044030D01*
X0004530Y0029200D02*
X0004270D01*
Y0028900D01*
X0004220D01*
X0005470D02*
Y0029200D01*
X0005210D01*
X0022375Y0053220D02*
X0021625D01*
Y0051620D01*
X0022375D01*
Y0053220D01*
X0015875Y0052220D02*
X0015125D01*
Y0050620D01*
X0015875D01*
Y0052220D01*
X0023470Y0029125D02*
Y0029875D01*
X0021870D01*
Y0029125D01*
X0023470D01*
X0035220Y0029625D02*
Y0030375D01*
X0033620D01*
Y0029625D01*
X0035220D01*
X0007720Y0011375D02*
Y0012125D01*
X0006120D01*
Y0011375D01*
X0007720D01*
X0021775Y0009750D02*
X0021025D01*
Y0008150D01*
X0021775D01*
Y0009750D01*
X0013150Y0040925D02*
Y0041675D01*
X0011550D01*
Y0040925D01*
X0013150D01*
X0023470Y0028125D02*
Y0028875D01*
X0021870D01*
Y0028125D01*
X0023470D01*
X0020925Y0050670D02*
X0020175D01*
Y0049070D01*
X0020925D01*
Y0050670D01*
X0019125Y0052470D02*
X0018375D01*
Y0050870D01*
X0019125D01*
Y0052470D01*
X0004780Y0034875D02*
Y0034125D01*
X0006380D01*
Y0034875D01*
X0004780D01*
X0022475Y0043910D02*
X0021725D01*
Y0042310D01*
X0022475D01*
Y0043910D01*
X0026375Y0026470D02*
X0025625D01*
Y0024870D01*
X0026375D01*
Y0026470D01*
X0013470Y0005125D02*
Y0005875D01*
X0011870D01*
Y0005125D01*
X0013470D01*
X0013750Y0050700D02*
Y0048500D01*
X0012850D01*
Y0050700D01*
X0013750D01*
X0006375Y0047470D02*
X0005625D01*
Y0045870D01*
X0006375D01*
Y0047470D01*
X0032035Y0018500D02*
X0032785D01*
Y0020100D01*
X0032035D01*
Y0018500D01*
X0024375Y0037970D02*
X0023625D01*
Y0036370D01*
X0024375D01*
Y0037970D01*
X0005720Y0005375D02*
Y0006125D01*
X0004120D01*
Y0005375D01*
X0005720D01*
X0019720Y0023375D02*
Y0024125D01*
X0018120D01*
Y0023375D01*
X0019720D01*
X0006130Y0011375D02*
Y0012125D01*
X0004530D01*
Y0011375D01*
X0006130D01*
X0004780Y0032875D02*
Y0032125D01*
X0006380D01*
Y0032875D01*
X0004780D01*
Y0036875D02*
Y0036125D01*
X0006380D01*
Y0036875D01*
X0004780D01*
X0007720Y0012125D02*
Y0012875D01*
X0006120D01*
Y0012125D01*
X0007720D01*
X0030125Y0026470D02*
X0029375D01*
Y0024870D01*
X0030125D01*
Y0026470D01*
X0033220Y0030875D02*
Y0031625D01*
X0031620D01*
Y0030875D01*
X0033220D01*
X0035220Y0033375D02*
Y0034125D01*
X0033620D01*
Y0033375D01*
X0035220D01*
X0006280Y0007375D02*
Y0006625D01*
X0007880D01*
Y0007375D01*
X0006280D01*
X0037125Y0012720D02*
X0036375D01*
Y0011120D01*
X0037125D01*
Y0012720D01*
X0020175Y0052420D02*
X0019425D01*
Y0050820D01*
X0020175D01*
Y0052420D01*
X0016125Y0008280D02*
X0016875D01*
Y0009880D01*
X0016125D01*
Y0008280D01*
X0033220Y0028625D02*
Y0029375D01*
X0031620D01*
Y0028625D01*
X0033220D01*
X0019275Y0006060D02*
X0020025D01*
Y0007660D01*
X0019275D01*
Y0006060D01*
X0006130Y0012125D02*
Y0012875D01*
X0004530D01*
Y0012125D01*
X0006130D01*
X0007780Y0047625D02*
Y0046875D01*
X0009380D01*
Y0047625D01*
X0007780D01*
X0010495Y0039730D02*
Y0040480D01*
X0008895D01*
Y0039730D01*
X0010495D01*
X0006280Y0006625D02*
Y0005875D01*
X0007880D01*
Y0006625D01*
X0006280D01*
X0035220Y0032625D02*
Y0033375D01*
X0033620D01*
Y0032625D01*
X0035220D01*
X0026625Y0037970D02*
X0025875D01*
Y0036370D01*
X0026625D01*
Y0037970D01*
X0004030Y0027625D02*
Y0026875D01*
X0005630D01*
Y0027625D01*
X0004030D01*
X0015220Y0005125D02*
Y0005875D01*
X0013620D01*
Y0005125D01*
X0015220D01*
X0035220Y0031875D02*
Y0032625D01*
X0033620D01*
Y0031875D01*
X0035220D01*
X0016970Y0005875D02*
Y0006625D01*
X0015370D01*
Y0005875D01*
X0016970D01*
X0011280Y0031875D02*
Y0031125D01*
X0012880D01*
Y0031875D01*
X0011280D01*
X0033220Y0029375D02*
Y0030125D01*
X0031620D01*
Y0029375D01*
X0033220D01*
X0021025Y0009750D02*
X0020275D01*
Y0008150D01*
X0021025D01*
Y0009750D01*
X0026035Y0018500D02*
X0026785D01*
Y0020100D01*
X0026035D01*
Y0018500D01*
X0014570Y0030305D02*
X0013820D01*
Y0028705D01*
X0014570D01*
Y0030305D01*
X0035220Y0030375D02*
Y0031125D01*
X0033620D01*
Y0030375D01*
X0035220D01*
X0039525Y0040600D02*
X0037375D01*
Y0039400D01*
X0039525D01*
Y0040600D01*
X0008875Y0007720D02*
X0008125D01*
Y0006120D01*
X0008875D01*
Y0007720D01*
X0019325Y0044030D02*
X0018275D01*
Y0042050D01*
X0019325D01*
Y0044030D01*
X0016220Y0016875D02*
Y0017625D01*
X0014620D01*
Y0016875D01*
X0016220D01*
X0037125Y0006220D02*
X0036375D01*
Y0004620D01*
X0037125D01*
Y0006220D01*
X0023470Y0033875D02*
Y0034625D01*
X0021870D01*
Y0033875D01*
X0023470D01*
X0029625Y0037970D02*
X0028875D01*
Y0036370D01*
X0029625D01*
Y0037970D01*
X0037780Y0041625D02*
Y0040875D01*
X0039380D01*
Y0041625D01*
X0037780D01*
X0005625Y0005220D02*
X0004875D01*
Y0003620D01*
X0005625D01*
Y0005220D01*
X0011280Y0034875D02*
Y0034125D01*
X0012880D01*
Y0034875D01*
X0011280D01*
X0023470Y0031125D02*
Y0031875D01*
X0021870D01*
Y0031125D01*
X0023470D01*
X0032125Y0023220D02*
X0031375D01*
Y0021620D01*
X0032125D01*
Y0023220D01*
X0033035Y0018500D02*
X0033785D01*
Y0020100D01*
X0033035D01*
Y0018500D01*
X0011280Y0032625D02*
Y0031875D01*
X0012880D01*
Y0032625D01*
X0011280D01*
X0016970Y0006625D02*
Y0007375D01*
X0015370D01*
Y0006625D01*
X0016970D01*
X0018160Y0027705D02*
Y0028455D01*
X0016560D01*
Y0027705D01*
X0018160D01*
X0033220Y0030125D02*
Y0030875D01*
X0031620D01*
Y0030125D01*
X0033220D01*
Y0034625D02*
Y0035375D01*
X0031620D01*
Y0034625D01*
X0033220D01*
X0004030Y0026625D02*
Y0025875D01*
X0005630D01*
Y0026625D01*
X0004030D01*
X0018000Y0023375D02*
Y0024125D01*
X0016400D01*
Y0023375D01*
X0018000D01*
X0033220Y0027875D02*
Y0028625D01*
X0031620D01*
Y0027875D01*
X0033220D01*
X0024875Y0023220D02*
X0024125D01*
Y0021620D01*
X0024875D01*
Y0023220D01*
X0016925Y0052420D02*
X0016175D01*
Y0050820D01*
X0016925D01*
Y0052420D01*
X0025125Y0037970D02*
X0024375D01*
Y0036370D01*
X0025125D01*
Y0037970D01*
X0034725Y0025900D02*
X0036875D01*
Y0027100D01*
X0034725D01*
Y0025900D01*
X0018705Y0027840D02*
X0019455D01*
Y0029440D01*
X0018705D01*
Y0027840D01*
X0020175Y0050670D02*
X0019425D01*
Y0049070D01*
X0020175D01*
Y0050670D01*
X0033220Y0033125D02*
Y0033875D01*
X0031620D01*
Y0033125D01*
X0033220D01*
X0011280Y0033375D02*
Y0032625D01*
X0012880D01*
Y0033375D01*
X0011280D01*
X0008875Y0013470D02*
X0008125D01*
Y0011870D01*
X0008875D01*
Y0013470D01*
X0015220Y0005875D02*
Y0006625D01*
X0013620D01*
Y0005875D01*
X0015220D01*
X0024875Y0026470D02*
X0024125D01*
Y0024870D01*
X0024875D01*
Y0026470D01*
X0039125Y0006220D02*
X0038375D01*
Y0004620D01*
X0039125D01*
Y0006220D01*
X0011280Y0036375D02*
Y0035625D01*
X0012880D01*
Y0036375D01*
X0011280D01*
X0033625Y0025280D02*
X0034375D01*
Y0026880D01*
X0033625D01*
Y0025280D01*
X0020275Y0006060D02*
X0021025D01*
Y0007660D01*
X0020275D01*
Y0006060D01*
X0018470Y0035625D02*
Y0036375D01*
X0016870D01*
Y0035625D01*
X0018470D01*
X0035220Y0031125D02*
Y0031875D01*
X0033620D01*
Y0031125D01*
X0035220D01*
X0005375Y0047470D02*
X0004625D01*
Y0045870D01*
X0005375D01*
Y0047470D01*
X0013565Y0030300D02*
X0012815D01*
Y0028700D01*
X0013565D01*
Y0030300D01*
X0023625Y0037970D02*
X0022875D01*
Y0036370D01*
X0023625D01*
Y0037970D01*
X0033220Y0031625D02*
Y0032375D01*
X0031620D01*
Y0031625D01*
X0033220D01*
X0004780Y0033875D02*
Y0033125D01*
X0006380D01*
Y0033875D01*
X0004780D01*
X0007720Y0012875D02*
Y0013625D01*
X0006120D01*
Y0012875D01*
X0007720D01*
X0020925Y0052420D02*
X0020175D01*
Y0050820D01*
X0020925D01*
Y0052420D01*
X0030375Y0037970D02*
X0029625D01*
Y0036370D01*
X0030375D01*
Y0037970D01*
X0023470Y0032125D02*
Y0032875D01*
X0021870D01*
Y0032125D01*
X0023470D01*
X0011280Y0035625D02*
Y0034875D01*
X0012880D01*
Y0035625D01*
X0011280D01*
X0006725Y0048600D02*
X0006650Y0048675D01*
Y0050450D01*
X0005400Y0048600D02*
X0005460Y0048660D01*
Y0050450D01*
X0008875Y0011720D02*
X0008125D01*
Y0010120D01*
X0008875D01*
Y0011720D01*
X0015220Y0006625D02*
Y0007375D01*
X0013620D01*
Y0006625D01*
X0015220D01*
X0023470Y0033125D02*
Y0033875D01*
X0021870D01*
Y0033125D01*
X0023470D01*
X0008875Y0009720D02*
X0008125D01*
Y0008120D01*
X0008875D01*
Y0009720D01*
X0035220Y0028875D02*
Y0029625D01*
X0033620D01*
Y0028875D01*
X0035220D01*
X0012625Y0028470D02*
X0011875D01*
Y0026870D01*
X0012625D01*
Y0028470D01*
X0030875Y0026470D02*
X0030125D01*
Y0024870D01*
X0030875D01*
Y0026470D01*
X0012625Y0024220D02*
X0011875D01*
Y0022620D01*
X0012625D01*
Y0024220D01*
X0010625Y0006720D02*
X0009875D01*
Y0005120D01*
X0010625D01*
Y0006720D01*
X0025625Y0026470D02*
X0024875D01*
Y0024870D01*
X0025625D01*
Y0026470D01*
X0035030Y0025625D02*
Y0024875D01*
X0036630D01*
Y0025625D01*
X0035030D01*
X0015475Y0047850D02*
X0015400Y0047925D01*
Y0049700D01*
X0014150Y0047850D02*
X0014210Y0047910D01*
Y0049700D01*
X0033220Y0033875D02*
Y0034625D01*
X0031620D01*
Y0033875D01*
X0033220D01*
X0011280Y0034125D02*
Y0033375D01*
X0012880D01*
Y0034125D01*
X0011280D01*
X0016720Y0019375D02*
Y0020125D01*
X0015120D01*
Y0019375D01*
X0016720D01*
X0018525Y0011250D02*
X0017775D01*
Y0009650D01*
X0018525D01*
Y0011250D01*
X0035030Y0023625D02*
Y0022875D01*
X0036630D01*
Y0023625D01*
X0035030D01*
X0005625Y0017280D02*
X0006375D01*
Y0018880D01*
X0005625D01*
Y0017280D01*
X0037125Y0017470D02*
X0036375D01*
Y0015870D01*
X0037125D01*
Y0017470D01*
X0009030Y0007625D02*
Y0006875D01*
X0010630D01*
Y0007625D01*
X0009030D01*
X0004030Y0023125D02*
Y0022375D01*
X0005630D01*
Y0023125D01*
X0004030D01*
X0011220Y0031125D02*
Y0031875D01*
X0009620D01*
Y0031125D01*
X0011220D01*
X0020675Y0043670D02*
X0019925D01*
Y0042070D01*
X0020675D01*
Y0043670D01*
X0033220Y0032375D02*
Y0033125D01*
X0031620D01*
Y0032375D01*
X0033220D01*
X0018470Y0034875D02*
Y0035625D01*
X0016870D01*
Y0034875D01*
X0018470D01*
X0029375Y0026470D02*
X0028625D01*
Y0024870D01*
X0029375D01*
Y0026470D01*
X0023470Y0026625D02*
Y0027375D01*
X0021870D01*
Y0026625D01*
X0023470D01*
X0010625Y0045470D02*
X0009875D01*
Y0043870D01*
X0010625D01*
Y0045470D01*
X0023470Y0030125D02*
Y0030875D01*
X0021870D01*
Y0030125D01*
X0023470D01*
X0020300Y0032435D02*
Y0033185D01*
X0018700D01*
Y0032435D01*
X0020300D01*
X0001530Y0046125D02*
Y0045375D01*
X0003130D01*
Y0046125D01*
X0001530D01*
X0004125Y0006280D02*
X0004875D01*
Y0007880D01*
X0004125D01*
Y0006280D01*
X0018275Y0006060D02*
X0019025D01*
Y0007660D01*
X0018275D01*
Y0006060D01*
X0023470Y0027375D02*
Y0028125D01*
X0021870D01*
Y0027375D01*
X0023470D01*
X0037125Y0020220D02*
X0036375D01*
Y0018620D01*
X0037125D01*
Y0020220D01*
X0020137Y0027000D02*
Y0024800D01*
X0019237D01*
Y0027000D01*
X0020137D01*
X0013470Y0006625D02*
Y0007375D01*
X0011870D01*
Y0006625D01*
X0013470D01*
X0035030Y0022625D02*
Y0021875D01*
X0036630D01*
Y0022625D01*
X0035030D01*
Y0024625D02*
Y0023875D01*
X0036630D01*
Y0024625D01*
X0035030D01*
X0027035Y0018500D02*
X0027785D01*
Y0020100D01*
X0027035D01*
Y0018500D01*
X0025875Y0037970D02*
X0025125D01*
Y0036370D01*
X0025875D01*
Y0037970D01*
X0031625Y0026470D02*
X0030875D01*
Y0024870D01*
X0031625D01*
Y0026470D01*
X0005625Y0044030D02*
X0006375D01*
Y0045630D01*
X0005625D01*
Y0044030D01*
X0032625Y0037970D02*
X0031875D01*
Y0036370D01*
X0032625D01*
Y0037970D01*
X0012425Y0050670D02*
X0011675D01*
Y0049070D01*
X0012425D01*
Y0050670D01*
X0030035Y0018500D02*
X0030785D01*
Y0020100D01*
X0030035D01*
Y0018500D01*
X0027125Y0026470D02*
X0026375D01*
Y0024870D01*
X0027125D01*
Y0026470D01*
X0011280Y0037125D02*
Y0036375D01*
X0012880D01*
Y0037125D01*
X0011280D01*
X0037125Y0015220D02*
X0036375D01*
Y0013620D01*
X0037125D01*
Y0015220D01*
X0013470Y0005875D02*
Y0006625D01*
X0011870D01*
Y0005875D01*
X0013470D01*
X0029035Y0018500D02*
X0029785D01*
Y0020100D01*
X0029035D01*
Y0018500D01*
X0031875Y0037970D02*
X0031125D01*
Y0036370D01*
X0031875D01*
Y0037970D01*
X0004030Y0022125D02*
Y0021375D01*
X0005630D01*
Y0022125D01*
X0004030D01*
X0027375Y0037970D02*
X0026625D01*
Y0036370D01*
X0027375D01*
Y0037970D01*
X0023470Y0034625D02*
Y0035375D01*
X0021870D01*
Y0034625D01*
X0023470D01*
X0004625Y0044030D02*
X0005375D01*
Y0045630D01*
X0004625D01*
Y0044030D01*
X0009875Y0011030D02*
X0010625D01*
Y0012630D01*
X0009875D01*
Y0011030D01*
G54D134*
G01X0003551Y0004039D02*
Y0007658D01*
X-0000147D01*
Y0003135D01*
X0003551D01*
Y0004039D01*
X0003540Y0050800D02*
Y0049896D01*
X-0000158D01*
Y0053082D01*
X0003540D01*
Y0050800D01*
X0003551Y0028039D02*
Y0027135D01*
X-0000147D01*
Y0030321D01*
X0003551D01*
Y0028039D01*
X0017711Y0003551D02*
X0014092D01*
Y-0000147D01*
X0018615D01*
Y0003551D01*
X0017711D01*
X0003551Y0020039D02*
Y0019135D01*
X-0000147D01*
Y0022321D01*
X0003551D01*
Y0020039D01*
X0012711Y0003551D02*
X0007715D01*
Y-0000147D01*
X0013615D01*
Y0003551D01*
X0012711D01*
X0003551Y0009339D02*
Y0014335D01*
X-0000147D01*
Y0008435D01*
X0003551D01*
Y0009339D01*
Y0016039D02*
Y0015135D01*
X-0000147D01*
Y0018321D01*
X0003551D01*
Y0016039D01*
Y0032039D02*
Y0037035D01*
X-0000147D01*
Y0031135D01*
X0003551D01*
Y0032039D01*
Y0024039D02*
Y0023135D01*
X-0000147D01*
Y0026321D01*
X0003551D01*
Y0024039D01*
G54D135*
G01X0010900Y0022250D02*
X0009900D01*
Y0022600D01*
X0009100D01*
Y0022250D01*
X0008050D01*
Y0025750D01*
X0010900D01*
Y0022250D01*
X0017050Y0047950D02*
Y0050450D01*
X0018300D01*
Y0047950D01*
X0017050D01*
X0018300Y0048200D02*
X0017050D01*
X0010900Y0026250D02*
X0009900D01*
Y0026600D01*
X0009100D01*
Y0026250D01*
X0008050D01*
Y0029750D01*
X0010900D01*
Y0026250D01*
G54D136*
G01X0017767Y0045163D02*
Y0043197D01*
Y0045163D02*
X0016901Y0046029D01*
X0014738Y0046068D02*
X0013833Y0045163D01*
X0014738Y0046068D01*
X0013833Y0043197D02*
Y0045163D01*
X0016783Y0042213D02*
X0017767Y0043197D01*
X0014817Y0042213D02*
X0013833Y0043197D01*
X0014817Y0042213D01*
G54D137*
G01X0019768Y0010137D02*
X0018686D01*
Y0009034D01*
X0019886D01*
Y0009310D01*
X0019729D01*
Y0009861D01*
X0019886D01*
Y0010137D01*
X0019768D01*
G54D138*
G01X0004311Y0008861D02*
X0004133D01*
X0004222D02*
Y0009394D01*
X0004133Y0009305D01*
X0004186Y0014986D02*
X0004008D01*
X0004097D02*
Y0015519D01*
X0004008Y0015430D01*
X0004061Y0023861D02*
X0003883D01*
X0003972D02*
Y0024394D01*
X0003883Y0024305D01*
X0004292Y0028039D02*
Y0027861D01*
Y0027950D02*
X0003758D01*
X0003847Y0027861D01*
X0004061Y0031486D02*
X0003883D01*
X0003972D02*
Y0032019D01*
X0003883Y0031930D01*
X0004250Y0021125D02*
X0003805D01*
X0004028Y0019722D02*
Y0019278D01*
X0004250Y0019500D02*
X0003805D01*
X0004375Y0050750D02*
X0003930D01*
X0004153Y0052347D02*
Y0051903D01*
X0004375Y0052125D02*
X0003930D01*
X0012811Y0003861D02*
X0012633D01*
X0012722D02*
Y0004394D01*
X0012633Y0004305D01*
X0004061Y0003736D02*
X0003883D01*
X0003972D02*
Y0004269D01*
X0003883Y0004180D01*
X0018311Y0003861D02*
X0018133D01*
X0018222D02*
Y0004394D01*
X0018133Y0004305D01*
X0035211Y0050076D02*
X0034544D01*
X0035211Y0050020D02*
Y0050353D01*
X0034989Y0050465D01*
X0034766D01*
X0034544Y0050353D01*
Y0050020D01*
X0034878Y0049498D02*
X0035211Y0049665D01*
X0034878Y0049220D02*
Y0049553D01*
X0034766Y0049665D01*
X0034655D01*
X0034544Y0049553D01*
Y0049220D01*
X0035211D01*
X0034989Y0048865D02*
Y0048420D01*
X0035211Y0048865D02*
X0034878D01*
X0034544Y0048698D01*
Y0048587D01*
X0034878Y0048420D01*
X0035211D01*
X0035100Y0048065D02*
X0035211Y0048009D01*
Y0047676D01*
X0035100Y0047620D01*
X0034655D01*
X0034544Y0047676D01*
Y0048009D01*
X0034655Y0048065D01*
X0035211Y0045826D02*
X0034544D01*
X0035211Y0045770D02*
Y0046103D01*
X0034989Y0046215D01*
X0034766D01*
X0034544Y0046103D01*
Y0045770D01*
X0034655Y0045415D02*
X0034544Y0045359D01*
Y0045026D01*
X0034655Y0044970D01*
X0034766D01*
X0034878Y0045026D01*
Y0045359D01*
X0034989Y0045415D01*
X0035100D01*
X0035211Y0045359D01*
Y0045026D01*
X0035100Y0044970D01*
M02*
