*
G04 Mass Parameters ***
*
G04 Image ***
*
%INC:\SRC\BSM-2\SCHEMATICS\BSM-2.SST*%
%ICAS*%
%MOIN*%
%IPPOS*%
%ASAXBY*%
G74*%FSLAN2X34Y34*%
*
G04 Aperture Definitions ***
*
%ADD10R,0.0500X0.0500*%
%ADD11C,0.0520*%
%ADD12R,0.0520X0.0520*%
%ADD13R,0.0320X0.0380*%
%ADD14R,0.0600X0.0600*%
%ADD15R,0.0740X0.0480*%
%ADD16C,0.0570*%
%ADD17R,0.0570X0.0570*%
%ADD18R,0.0900X0.1000*%
%ADD19C,0.0740*%
%ADD20C,0.0580*%
%ADD21R,0.0580X0.0580*%
%ADD22C,0.0748*%
%ADD23R,0.0748X0.0748*%
%ADD24R,0.1968X0.1575*%
%ADD25R,0.0720X0.0780*%
%ADD26R,0.0780X0.0720*%
%ADD27R,0.0500X0.0340*%
%ADD28R,0.0400X0.0340*%
%ADD29R,0.0340X0.0500*%
%ADD30R,0.0340X0.0400*%
%ADD31R,0.0640X0.1000*%
%ADD32C,0.2362*%
%ADD33R,0.0600X0.0700*%
%ADD34O,0.0860X0.0240*%
%ADD35R,0.0860X0.0240*%
%ADD36O,0.0110X0.0700*%
%ADD37R,0.0110X0.0700*%
%ADD38O,0.0700X0.0110*%
%ADD39R,0.0700X0.0110*%
%ADD40R,0.1181X0.0984*%
%ADD41C,0.0680*%
%ADD42C,0.0840*%
%ADD43R,0.0984X0.0275*%
%ADD44R,0.1378X0.0275*%
%ADD45R,0.1496X0.0433*%
%ADD46O,0.0250X0.0940*%
%ADD47R,0.0250X0.0940*%
%ADD48C,0.1470*%
%ADD49R,0.0750X0.0750*%
%ADD50C,0.0750*%
%ADD51O,0.0940X0.0250*%
%ADD52R,0.0940X0.0250*%
%ADD53R,0.0950X0.1220*%
%ADD54R,0.0750X0.0240*%
%ADD55R,0.0550X0.0550*%
%ADD56C,0.0550*%
%ADD57R,0.0177X0.0701*%
%ADD58O,0.0394X0.0118*%
%ADD59O,0.0118X0.0394*%
%ADD60R,0.2165X0.0787*%
%ADD61C,0.0375*%
%ADD62C,0.0280*%
%ADD63C,0.0120*%
%ADD64C,0.0080*%
%ADD65C,0.0280*%
%ADD66C,0.0500*%
%ADD67C,0.0520*%
%ADD68R,0.0520X0.0520*%
%ADD69C,0.0570*%
%ADD70R,0.0570X0.0570*%
%ADD71C,0.0740*%
%ADD72C,0.0580*%
%ADD73R,0.0580X0.0580*%
%ADD74C,0.0748*%
%ADD75R,0.0748X0.0748*%
%ADD76R,0.0500X0.0670*%
%ADD77C,0.2362*%
%ADD78C,0.0680*%
%ADD79C,0.0840*%
%ADD80C,0.1470*%
%ADD81R,0.0750X0.0750*%
%ADD82C,0.0750*%
%ADD83R,0.0550X0.0550*%
%ADD84C,0.0550*%
%ADD85C,0.0280*%
%ADD86C,0.0720*%
%ADD87R,0.0720X0.0720*%
%ADD88R,0.0740X0.0740*%
%ADD89C,0.0900*%
%ADD90C,0.0780*%
%ADD91R,0.0780X0.0780*%
%ADD92C,0.0945*%
%ADD93R,0.0945X0.0945*%
%ADD94C,0.2401*%
%ADD95C,0.0880*%
%ADD96C,0.1040*%
%ADD97C,0.1750*%
%ADD98R,0.0950X0.0950*%
%ADD99C,0.0950*%
%ADD100C,0.0750*%
%ADD101R,0.0500X0.0500*%
%ADD102R,0.0320X0.0380*%
%ADD103R,0.0600X0.0600*%
%ADD104R,0.0740X0.0480*%
%ADD105R,0.0680X0.0680*%
%ADD106R,0.0900X0.1000*%
%ADD107C,0.0866*%
%ADD108R,0.0866X0.0866*%
%ADD109R,0.1968X0.1575*%
%ADD110R,0.0720X0.0780*%
%ADD111R,0.0780X0.0720*%
%ADD112R,0.0500X0.0340*%
%ADD113R,0.0400X0.0340*%
%ADD114R,0.0340X0.0500*%
%ADD115R,0.0340X0.0400*%
%ADD116R,0.0640X0.1000*%
%ADD117R,0.0600X0.0700*%
%ADD118O,0.0860X0.0240*%
%ADD119R,0.0860X0.0240*%
%ADD120O,0.0110X0.0700*%
%ADD121R,0.0110X0.0700*%
%ADD122O,0.0700X0.0110*%
%ADD123R,0.0700X0.0110*%
%ADD124R,0.1181X0.0984*%
%ADD125R,0.0984X0.0275*%
%ADD126R,0.1378X0.0275*%
%ADD127R,0.1496X0.0433*%
%ADD128O,0.0250X0.0940*%
%ADD129R,0.0250X0.0940*%
%ADD130O,0.0940X0.0250*%
%ADD131R,0.0940X0.0250*%
%ADD132R,0.0950X0.1220*%
%ADD133R,0.0750X0.0240*%
%ADD134C,0.2450*%
%ADD135R,0.0177X0.0701*%
%ADD136O,0.0394X0.0118*%
%ADD137O,0.0118X0.0394*%
%ADD138R,0.2165X0.0787*%
%ADD139C,0.0160*%
%ADD140C,0.0160*%
%ADD141C,0.0157*%
%ADD142C,0.0100*%
%ADD143C,0.0060*%
%ADD144C,0.0118*%
%ADD145C,0.0010*%
%ADD146C,0.0040*%
%ADD147C,0.0039*%
%ADD148C,0.0079*%
%ADD149C,0.0031*%
*
G04 Plot Data ***
*
G54D64*
G01X0003004Y0042413D02*
X0003170Y0042746D01*
X0002948D01*
X0002760D02*
Y0042468D01*
X0002733Y0042413D01*
X0002566D01*
X0002538Y0042468D01*
Y0042746D01*
X0016592Y0025246D02*
Y0025024D01*
X0016370Y0025135D01*
Y0025191D01*
X0016703D01*
Y0024836D02*
Y0024725D01*
Y0024781D02*
X0016370D01*
X0016426Y0024725D01*
X0016370Y0024482D02*
X0016648D01*
X0016703Y0024454D01*
Y0024288D01*
X0016648Y0024260D01*
X0016370D01*
X0018050Y0046503D02*
Y0046336D01*
X0017994Y0046308D01*
X0017938D01*
X0017883Y0046336D01*
Y0046503D01*
X0017938Y0046530D01*
X0017994D01*
X0018216Y0046419D01*
X0017883Y0046120D02*
X0018161D01*
X0018216Y0046093D01*
Y0045926D01*
X0018161Y0045898D01*
X0017883D01*
X0037832Y0027194D02*
Y0027305D01*
Y0027250D02*
X0038166D01*
X0038110Y0027305D01*
X0036444Y0026562D02*
Y0026785D01*
X0036666Y0026673D01*
Y0026618D01*
X0036332D01*
X0036444Y0027167D02*
X0036388D01*
X0036332Y0027139D01*
Y0027028D01*
X0036388Y0027000D01*
X0036666D01*
Y0026972D02*
Y0027083D01*
X0030074Y0027741D02*
Y0027519D01*
X0029852Y0027630D01*
Y0027686D01*
X0030185D01*
X0029852Y0027331D02*
X0030130D01*
X0030185Y0027304D01*
Y0027137D01*
X0030130Y0027109D01*
X0029852D01*
X0030304Y0028531D02*
X0030082D01*
X0030193Y0028754D01*
X0030248D01*
Y0028420D01*
X0029894Y0028754D02*
Y0028476D01*
X0029866Y0028420D01*
X0029700D01*
X0029672Y0028476D01*
Y0028754D01*
X0002125Y0042833D02*
X0002292Y0043166D01*
X0002070D01*
X0001882Y0042833D02*
X0001771D01*
X0001826D02*
Y0043166D01*
X0001771Y0043110D01*
X0001333Y0042944D02*
Y0042888D01*
X0001361Y0042833D01*
X0001472D01*
X0001500Y0042888D01*
Y0043166D01*
X0001528D02*
X0001416D01*
X0034299Y0016887D02*
X0034521D01*
X0034299Y0016665D01*
Y0016609D01*
X0034327Y0016554D01*
X0034493D01*
X0034521Y0016609D01*
X0038167Y0039493D02*
X0038112Y0039438D01*
X0038056Y0039410D01*
X0037945D01*
X0037889Y0039438D01*
X0037834Y0039493D01*
Y0039549D01*
X0037889Y0039604D01*
X0037945Y0039632D01*
X0038056D01*
X0038112Y0039604D01*
X0038167Y0039549D01*
Y0039493D01*
Y0039222D02*
Y0039000D01*
X0037945Y0039222D01*
X0037889D01*
X0037834Y0039194D01*
Y0039028D01*
X0037889Y0039000D01*
X0022861Y0017721D02*
X0023028D01*
X0023056Y0017665D01*
Y0017610D01*
X0023028Y0017554D01*
X0022861D01*
X0022833Y0017610D01*
Y0017665D01*
X0022945Y0017887D01*
X0023243D02*
X0023354D01*
X0023299D02*
Y0017554D01*
X0023354Y0017610D01*
X0038833Y0027139D02*
Y0027361D01*
X0039055Y0027139D01*
X0039110D01*
X0039166Y0027167D01*
Y0027333D01*
X0039110Y0027361D01*
X0020525Y0012847D02*
X0020747D01*
X0020525Y0012625D01*
Y0012569D01*
X0020553Y0012514D01*
X0020720D01*
X0020747Y0012569D01*
X0020935Y0012847D02*
X0021046D01*
X0020991D02*
Y0012514D01*
X0021046Y0012569D01*
X0021289Y0012514D02*
Y0012792D01*
X0021317Y0012847D01*
X0021484D01*
X0021512Y0012792D01*
Y0012514D01*
X0022917Y0016887D02*
X0022972Y0016832D01*
X0023000Y0016776D01*
Y0016665D01*
X0022972Y0016609D01*
X0022917Y0016554D01*
X0022861D01*
X0022806Y0016609D01*
X0022778Y0016665D01*
Y0016776D01*
X0022806Y0016832D01*
X0022861Y0016887D01*
X0022917D01*
X0023188D02*
X0023410D01*
X0023188Y0016665D01*
Y0016609D01*
X0023216Y0016554D01*
X0023382D01*
X0023410Y0016609D01*
X0038177Y0028291D02*
Y0028069D01*
X0037955Y0028291D01*
X0037899D01*
X0037844Y0028263D01*
Y0028097D01*
X0037899Y0028069D01*
X0005432Y0050533D02*
X0005321D01*
X0005376D02*
Y0050866D01*
X0005321Y0050810D01*
X0004883Y0050644D02*
Y0050588D01*
X0004911Y0050533D01*
X0005022D01*
X0005050Y0050588D01*
Y0050866D01*
X0005078D02*
X0004966D01*
X0015687Y0031328D02*
X0015742Y0031356D01*
Y0031523D01*
X0015687Y0031551D01*
X0015576D01*
X0015520Y0031495D01*
Y0031328D01*
X0015409D01*
Y0031551D01*
X0015742Y0031141D02*
Y0031030D01*
Y0031085D02*
X0015409D01*
X0015464Y0031030D01*
X0015409Y0030786D02*
X0015687D01*
X0015742Y0030759D01*
Y0030592D01*
X0015687Y0030564D01*
X0015409D01*
X0039001Y0039549D02*
Y0039382D01*
X0038945Y0039354D01*
X0038890D01*
X0038834Y0039382D01*
Y0039549D01*
X0038890Y0039576D01*
X0038945D01*
X0039167Y0039465D01*
Y0039166D02*
Y0039055D01*
Y0039111D02*
X0038834D01*
X0038890Y0039055D01*
X0038833Y0020812D02*
X0038888Y0020868D01*
X0038944Y0020896D01*
X0039055D01*
X0039110Y0020868D01*
X0039166Y0020812D01*
Y0020757D01*
X0039110Y0020701D01*
X0039055Y0020673D01*
X0038944D01*
X0038888Y0020701D01*
X0038833Y0020757D01*
Y0020812D01*
Y0021083D02*
Y0021194D01*
Y0021139D02*
X0039166D01*
X0039110Y0021194D01*
X0034104Y0017887D02*
X0034215D01*
X0034160D02*
Y0017554D01*
X0034215Y0017610D01*
X0023832Y0015781D02*
X0023666D01*
X0023638Y0015836D01*
Y0015892D01*
X0023666Y0015947D01*
X0023832D01*
X0023860Y0015892D01*
Y0015836D01*
X0023749Y0015614D01*
X0024048Y0015947D02*
X0024159D01*
X0024103D02*
Y0015614D01*
X0024159Y0015670D01*
X0024597Y0015836D02*
Y0015892D01*
X0024569Y0015947D01*
X0024458D01*
X0024430Y0015892D01*
Y0015614D01*
X0024402D02*
X0024513D01*
X0013992Y0048947D02*
Y0048724D01*
X0013770Y0048947D01*
X0013715D01*
X0013659Y0048919D01*
Y0048752D01*
X0013715Y0048724D01*
X0013992Y0048537D02*
Y0048370D01*
X0013659Y0048537D01*
Y0048370D01*
X0013992Y0047960D02*
X0013659D01*
X0013992Y0047932D02*
Y0048099D01*
X0013881Y0048154D01*
X0013770D01*
X0013659Y0048099D01*
Y0047932D01*
X0004355Y0052032D02*
X0004244D01*
X0004300D02*
Y0052366D01*
X0004244Y0052310D01*
X0004355Y0052032D02*
X0004244D01*
X0004300D02*
Y0052366D01*
X0004244Y0052310D01*
X0039167Y0028305D02*
Y0028194D01*
Y0028250D02*
X0038834D01*
X0038890Y0028194D01*
X0040612Y0029320D02*
X0040667Y0029347D01*
Y0029514D01*
X0040612Y0029542D01*
X0040501D01*
X0040445Y0029486D01*
Y0029320D01*
X0040334D01*
Y0029542D01*
X0040667Y0029132D02*
Y0029021D01*
Y0029076D02*
X0040334D01*
X0040390Y0029021D01*
X0040556Y0028583D02*
X0040612D01*
X0040667Y0028611D01*
Y0028722D01*
X0040612Y0028750D01*
X0040334D01*
Y0028778D02*
Y0028666D01*
X0009922Y0043579D02*
X0009755D01*
X0009727Y0043635D01*
Y0043690D01*
X0009755Y0043746D01*
X0009922D01*
X0009949Y0043690D01*
Y0043635D01*
X0009838Y0043413D01*
X0009539D02*
X0009317D01*
X0009539Y0043635D01*
Y0043690D01*
X0009512Y0043746D01*
X0009345D01*
X0009317Y0043690D01*
X0009129Y0043468D02*
X0009102Y0043413D01*
X0008935D01*
X0008907Y0043468D01*
Y0043690D01*
X0008935Y0043746D01*
X0009102D01*
X0009129Y0043690D01*
X0005840Y0032751D02*
X0006007D01*
X0006035Y0032695D01*
Y0032639D01*
X0006007Y0032584D01*
X0005840D01*
X0005812Y0032639D01*
Y0032695D01*
X0005923Y0032917D01*
X0006417Y0032806D02*
Y0032862D01*
X0006389Y0032917D01*
X0006278D01*
X0006250Y0032862D01*
Y0032584D01*
X0006222D02*
X0006333D01*
X0009275Y0041487D02*
Y0041221D01*
X0009408Y0041354D02*
X0009142D01*
X0006944Y0031417D02*
X0007055D01*
X0007000D02*
Y0031084D01*
X0007055Y0031140D01*
X0006944Y0031417D02*
X0007055D01*
X0007000D02*
Y0031084D01*
X0007055Y0031140D01*
X0014125Y0027867D02*
Y0028134D01*
X0013992Y0028001D02*
X0014258D01*
X0038833Y0020812D02*
X0038888Y0020868D01*
X0038944Y0020896D01*
X0039055D01*
X0039110Y0020868D01*
X0039166Y0020812D01*
Y0020757D01*
X0039110Y0020701D01*
X0039055Y0020673D01*
X0038944D01*
X0038888Y0020701D01*
X0038833Y0020757D01*
Y0020812D01*
Y0021083D02*
Y0021194D01*
Y0021139D02*
X0039166D01*
X0039110Y0021194D01*
X0037172Y0038550D02*
X0037227Y0038577D01*
Y0038744D01*
X0037172Y0038772D01*
X0037061D01*
X0037005Y0038716D01*
Y0038550D01*
X0036894D01*
Y0038772D01*
X0037227Y0038362D02*
Y0038251D01*
Y0038306D02*
X0036894D01*
X0036950Y0038251D01*
X0037116Y0037813D02*
X0037172D01*
X0037227Y0037841D01*
Y0037952D01*
X0037172Y0037980D01*
X0036894D01*
Y0038008D02*
Y0037896D01*
X0008678Y0047498D02*
X0008733Y0047554D01*
X0008789Y0047581D01*
X0008900D01*
X0008955Y0047554D01*
X0009011Y0047498D01*
Y0047442D01*
X0008955Y0047387D01*
X0008900Y0047359D01*
X0008789D01*
X0008733Y0047387D01*
X0008678Y0047442D01*
Y0047498D01*
Y0047769D02*
Y0047880D01*
Y0047825D02*
X0009011D01*
X0008955Y0047880D01*
X0009011Y0048123D02*
X0008733D01*
X0008678Y0048151D01*
Y0048318D01*
X0008733Y0048346D01*
X0009011D01*
X0033062Y0019221D02*
X0032896D01*
X0032868Y0019276D01*
Y0019332D01*
X0032896Y0019387D01*
X0033062D01*
X0033090Y0019332D01*
Y0019276D01*
X0032979Y0019054D01*
X0033278Y0019387D02*
X0033389D01*
X0033333D02*
Y0019054D01*
X0033389Y0019110D01*
X0033827Y0019276D02*
Y0019332D01*
X0033799Y0019387D01*
X0033688D01*
X0033660Y0019332D01*
Y0019054D01*
X0033632D02*
X0033743D01*
X0000805Y0044332D02*
X0000694D01*
X0000750D02*
Y0044666D01*
X0000694Y0044610D01*
X0012299Y0040608D02*
X0012188D01*
X0012243D02*
Y0040941D01*
X0012188Y0040885D01*
X0011722Y0040663D02*
X0011778Y0040608D01*
X0011889D01*
X0011944Y0040663D01*
Y0040719D01*
X0011833Y0040830D01*
X0011944Y0040941D01*
X0011722D01*
X0011534Y0040663D02*
X0011507Y0040608D01*
X0011340D01*
X0011312Y0040663D01*
Y0040885D01*
X0011340Y0040941D01*
X0011507D01*
X0011534Y0040885D01*
X0020444Y0047708D02*
Y0047930D01*
X0020666Y0047819D01*
Y0047764D01*
X0020333D01*
Y0048118D02*
Y0048229D01*
Y0048173D02*
X0020666D01*
X0020610Y0048229D01*
X0020444Y0048667D02*
X0020388D01*
X0020333Y0048639D01*
Y0048528D01*
X0020388Y0048500D01*
X0020666D01*
Y0048472D02*
Y0048583D01*
X0037832Y0027194D02*
Y0027305D01*
Y0027250D02*
X0038166D01*
X0038110Y0027305D01*
X0010998Y0035637D02*
X0010943Y0035581D01*
Y0035470D01*
X0010998Y0035414D01*
X0011054D01*
X0011165Y0035526D01*
X0011276Y0035414D01*
Y0035637D01*
X0010998Y0036047D02*
X0010943Y0035991D01*
Y0035880D01*
X0010998Y0035824D01*
X0011054D01*
X0011165Y0035936D01*
X0011276Y0035824D01*
Y0036047D01*
X0011109Y0036318D02*
X0010943Y0036234D01*
X0011109Y0036457D02*
Y0036290D01*
X0011165Y0036234D01*
X0011220D01*
X0011276Y0036290D01*
Y0036457D01*
X0010943D01*
X0021264Y0045379D02*
Y0045156D01*
X0021041Y0045268D01*
Y0045323D01*
X0021375D01*
Y0048343D02*
Y0048232D01*
Y0048288D02*
X0021041D01*
X0021097Y0048232D01*
X0022874Y0048941D02*
Y0048719D01*
X0022652Y0048830D01*
Y0048885D01*
X0022985D01*
Y0048531D02*
Y0048420D01*
Y0048475D02*
X0022652D01*
X0022707Y0048420D01*
X0022874Y0047982D02*
X0022929D01*
X0022985Y0048010D01*
Y0048121D01*
X0022929Y0048149D01*
X0022652D01*
Y0048177D02*
Y0048065D01*
X0011680Y0038682D02*
Y0038416D01*
X0011813Y0038549D02*
X0011547D01*
X0013673Y0026137D02*
X0013645Y0026192D01*
X0013478D01*
X0013450Y0026137D01*
Y0026026D01*
X0013506Y0025970D01*
X0013673D01*
Y0025859D01*
X0013450D01*
X0014083Y0026137D02*
X0014027Y0026192D01*
X0013916D01*
X0013860Y0026137D01*
Y0026081D01*
X0013972Y0025970D01*
X0013860Y0025859D01*
X0014083D01*
X0014270Y0026137D02*
X0014298Y0026192D01*
X0014465D01*
X0014493Y0026137D01*
Y0025914D01*
X0014465Y0025859D01*
X0014298D01*
X0014270Y0025914D01*
X0008102Y0015736D02*
Y0015514D01*
X0007880Y0015736D01*
X0007824D01*
X0007769Y0015709D01*
Y0015542D01*
X0007824Y0015514D01*
X0007769Y0015326D02*
X0008047D01*
X0008102Y0015299D01*
Y0015132D01*
X0008047Y0015104D01*
X0007769D01*
X0017208Y0009456D02*
X0017041D01*
X0017013Y0009511D01*
Y0009567D01*
X0017041Y0009622D01*
X0017208D01*
X0017236Y0009567D01*
Y0009511D01*
X0017125Y0009289D01*
X0017423D02*
Y0009567D01*
X0017451Y0009622D01*
X0017618D01*
X0017646Y0009567D01*
Y0009289D01*
X0008715Y0008872D02*
X0008826D01*
X0008770D02*
Y0008539D01*
X0008826Y0008594D01*
X0009069Y0008872D02*
X0009180D01*
X0009125D02*
Y0008539D01*
X0009180Y0008594D01*
X0009423Y0008539D02*
Y0008817D01*
X0009451Y0008872D01*
X0009618D01*
X0009646Y0008817D01*
Y0008539D01*
X0000805Y0044332D02*
X0000694D01*
X0000750D02*
Y0044666D01*
X0000694Y0044610D01*
X0038833Y0027139D02*
Y0027361D01*
X0039055Y0027139D01*
X0039110D01*
X0039166Y0027167D01*
Y0027333D01*
X0039110Y0027361D01*
X0005242Y0049641D02*
Y0049530D01*
Y0049585D02*
X0004909D01*
X0004965Y0049530D01*
X0005242Y0049287D02*
Y0049120D01*
X0004909Y0049287D01*
Y0049120D01*
X0005242Y0048710D02*
X0004909D01*
X0005242Y0048682D02*
Y0048849D01*
X0005131Y0048904D01*
X0005020D01*
X0004909Y0048849D01*
Y0048682D01*
X0037999Y0020917D02*
Y0021083D01*
X0038055Y0021111D01*
X0038110D01*
X0038166Y0021083D01*
Y0020917D01*
X0038110Y0020889D01*
X0038055D01*
X0037832Y0021000D01*
X0015646Y0027539D02*
X0015590Y0027566D01*
X0015534D01*
X0015479Y0027539D01*
Y0027372D01*
X0015534Y0027344D01*
X0015590D01*
X0015646Y0027372D01*
Y0027539D01*
X0015701Y0027566D01*
X0015757D01*
X0015812Y0027539D01*
Y0027372D01*
X0015757Y0027344D01*
X0015701D01*
X0015646Y0027372D01*
X0015479Y0027156D02*
X0015757D01*
X0015812Y0027129D01*
Y0026962D01*
X0015757Y0026934D01*
X0015479D01*
X0037999Y0020917D02*
Y0021083D01*
X0038055Y0021111D01*
X0038110D01*
X0038166Y0021083D01*
Y0020917D01*
X0038110Y0020889D01*
X0038055D01*
X0037832Y0021000D01*
X0033910Y0016220D02*
X0023910D01*
Y0018220D01*
X0033910D01*
Y0016220D01*
X0006800Y0052700D02*
Y0051700D01*
X0004800D01*
Y0052700D01*
X0006800D01*
X0016085Y0028830D02*
Y0030830D01*
X0016835D01*
Y0028830D01*
X0016085D01*
X0016835Y0029080D02*
X0016085D01*
X0015625Y0010395D02*
X0011875D01*
Y0009645D01*
X0015625D01*
Y0010395D01*
X0015375D02*
Y0009645D01*
X0007655Y0046325D02*
Y0044575D01*
X0008405D01*
Y0046325D01*
X0007655D01*
Y0046075D02*
X0008405D01*
X0036550Y0007650D02*
X0036650D01*
Y0006850D01*
X0036850D01*
Y0006750D01*
X0038650D01*
Y0006850D01*
X0038850D01*
Y0007650D01*
X0038950D01*
Y0008850D01*
X0038850D01*
Y0009650D01*
X0038650D01*
Y0009750D01*
X0036850D01*
Y0009650D01*
X0036650D01*
Y0008850D01*
X0036550D01*
Y0007650D01*
X0039500Y0026750D02*
Y0021750D01*
X0037500D01*
Y0026750D01*
X0039500D01*
X0006750Y0032750D02*
X0006875D01*
Y0036250D01*
X0006750D01*
Y0036500D01*
X0010750D01*
Y0032500D01*
X0006750D01*
Y0032750D01*
X0037500Y0028500D02*
Y0038500D01*
X0039500D01*
Y0028500D01*
X0037500D01*
X0008375Y0021500D02*
Y0017000D01*
X0010875D01*
Y0021500D01*
X0008375D01*
X0010875Y0017250D02*
X0008375D01*
X0003250Y0045000D02*
Y0044000D01*
X0001250D01*
Y0045000D01*
X0003250D01*
X0007625Y0009895D02*
X0005875D01*
Y0009145D01*
X0007625D01*
Y0009895D01*
X0007375D02*
Y0009145D01*
X0004000Y0042080D02*
Y0037880D01*
X0021400Y0019700D02*
Y0019600D01*
X0020600D01*
Y0019400D01*
X0020500D01*
Y0017600D01*
X0020600D01*
Y0017400D01*
X0021400D01*
Y0017300D01*
X0022600D01*
Y0017400D01*
X0023400D01*
Y0017600D01*
X0023500D01*
Y0019400D01*
X0023400D01*
Y0019600D01*
X0022600D01*
Y0019700D01*
X0021400D01*
X0009300Y0050450D02*
X0009100D01*
Y0048100D01*
X0007850D01*
Y0050450D01*
X0008100D01*
Y0052800D01*
X0009350D01*
Y0050450D01*
X0006950Y0042080D02*
Y0037880D01*
X0000500D01*
Y0042080D01*
X0006950D01*
X0016015Y0032460D02*
Y0034460D01*
X0016765D01*
Y0032460D01*
X0016015D01*
X0016765Y0032710D02*
X0016015D01*
X0004500Y0030750D02*
Y0031750D01*
X0006500D01*
Y0030750D01*
X0004500D01*
X0022500Y0044750D02*
X0021500D01*
Y0048750D01*
X0022500D01*
Y0044750D01*
X0022150Y0004930D02*
Y0012030D01*
X0034050D01*
X0034150Y0011930D01*
Y0004930D01*
X0022150D01*
G01X0011055Y0039300D02*
G03X0012305Y0038050I0001250J0000000D01*
G03X0013555Y0039300I0000000J0001250D01*
G03X0012305Y0040550I0001250J0000000D01*
G03X0011055Y0039300I0000000J0001250D01*
G01X0037750Y0007230D02*
G03X0038770Y0008250I0000000J0001020D01*
G01X0036730D02*
G03X0037750Y0007230I0001020J0000000D01*
Y0009270D02*
G03X0036730Y0008250I0000000J0001020D01*
G01X0038770D02*
G03X0037750Y0009270I0001020J0000000D01*
Y0007350D02*
G03X0038650Y0008250I0000000J0000900D01*
G01X0036850D02*
G03X0037750Y0007350I0000900J0000000D01*
Y0009150D02*
G03X0036850Y0008250I0000000J0000900D01*
G01X0038650D02*
G03X0037750Y0009150I0000900J0000000D01*
G01X0014750Y0027250D02*
G03X0013750Y0028250I0001000J0000000D01*
G03X0012750Y0027250I0000000J0001000D01*
G03X0013750Y0026250I0001000J0000000D01*
G03X0014750Y0027250I0000000J0001000D01*
G01X0008650Y0042105D02*
G03X0009900Y0040855I0001250J0000000D01*
G03X0011150Y0042105I0000000J0001250D01*
G03X0009900Y0043355I0001250J0000000D01*
G03X0008650Y0042105I0000000J0001250D01*
G01X0022000Y0017480D02*
G03X0023020Y0018500I0000000J0001020D01*
G01X0020980D02*
G03X0022000Y0017480I0001020J0000000D01*
Y0019520D02*
G03X0020980Y0018500I0000000J0001020D01*
G01X0023020D02*
G03X0022000Y0019520I0001020J0000000D01*
Y0017600D02*
G03X0022900Y0018500I0000000J0000900D01*
G01X0021100D02*
G03X0022000Y0017600I0000900J0000000D01*
Y0019400D02*
G03X0021100Y0018500I0000000J0000900D01*
G01X0022900D02*
G03X0022000Y0019400I0000900J0000000D01*
G54D141*
G01X0017767Y0045163D02*
X0016901Y0046029D01*
X0014738Y0046068D02*
X0013833Y0045163D01*
X0014738Y0046068D01*
X0013833Y0043197D02*
Y0045163D01*
X0016783Y0042213D02*
X0017767Y0043197D01*
X0014817Y0042213D02*
X0013833Y0043197D01*
X0014817Y0042213D01*
X0017767Y0045163D02*
Y0043197D01*
G54D142*
G01X0039644Y0055931D02*
X0039733Y0055843D01*
X0039911D01*
X0040000Y0055931D01*
Y0056020D01*
X0039822Y0056198D01*
X0040000Y0056376D01*
X0039644D01*
X0039400Y0056287D02*
X0039355Y0056376D01*
X0039089D01*
X0039044Y0056287D01*
Y0056198D01*
X0039089Y0056109D01*
X0039355D01*
X0039400Y0056020D01*
Y0055931D01*
X0039355Y0055843D01*
X0039089D01*
X0039044Y0055931D01*
X0023533Y0014892D02*
X0024033D01*
Y0014725D02*
Y0015058D01*
X0023783Y0015383D02*
Y0015633D01*
X0023533Y0015300D02*
Y0015633D01*
X0024033D01*
Y0015300D01*
X0023950Y0015875D02*
X0024033Y0015917D01*
Y0016167D01*
X0023950Y0016208D01*
X0023867D01*
X0023783Y0016167D01*
Y0015917D01*
X0023700Y0015875D01*
X0023617D01*
X0023533Y0015917D01*
Y0016167D01*
X0023617Y0016208D01*
X0023783Y0016533D02*
Y0016783D01*
X0023533Y0016450D02*
Y0016783D01*
X0024033D01*
Y0016450D01*
X0023783Y0017150D02*
X0023533Y0017025D01*
X0023783Y0017358D02*
Y0017108D01*
X0023867Y0017025D01*
X0023950D01*
X0024033Y0017108D01*
Y0017358D01*
X0023533D01*
X0040000Y0003063D02*
X0039644D01*
X0040000Y0003418D01*
Y0003507D01*
X0039955Y0003596D01*
X0039689D01*
X0039644Y0003507D01*
X0039400D02*
X0039355Y0003596D01*
X0039089D01*
X0039044Y0003507D01*
Y0003418D01*
X0039089Y0003329D01*
X0039355D01*
X0039400Y0003240D01*
Y0003151D01*
X0039355Y0003063D01*
X0039089D01*
X0039044Y0003151D01*
X0023683Y0017875D02*
Y0018208D01*
X0024017Y0017875D01*
X0024100D01*
X0024183Y0017917D01*
Y0018167D01*
X0024100Y0018208D01*
X0024183Y0018450D02*
X0023767D01*
X0023683Y0018492D01*
X0023933Y0018617D01*
X0024017D02*
X0023933D01*
X0023683Y0018742D01*
X0023767Y0018783D01*
X0024183D01*
X0024100Y0019025D02*
X0024183Y0019067D01*
Y0019317D01*
X0024100Y0019358D01*
X0024017D01*
X0023933Y0019317D01*
Y0019067D01*
X0023850Y0019025D01*
X0023767D01*
X0023683Y0019067D01*
Y0019317D01*
X0023767Y0019358D01*
X0001911Y0003063D02*
X0001733D01*
X0001822D02*
Y0003596D01*
X0001733Y0003507D01*
X0001400D02*
X0001355Y0003596D01*
X0001089D01*
X0001044Y0003507D01*
Y0003418D01*
X0001089Y0003329D01*
X0001355D01*
X0001400Y0003240D01*
Y0003151D01*
X0001355Y0003063D01*
X0001089D01*
X0001044Y0003151D01*
X0001644Y0056151D02*
X0001689Y0056063D01*
X0001955D01*
X0002000Y0056151D01*
Y0056329D01*
X0001911Y0056418D01*
X0001644D01*
Y0056596D01*
X0002000D01*
X0001400Y0056507D02*
X0001355Y0056596D01*
X0001089D01*
X0001044Y0056507D01*
Y0056418D01*
X0001089Y0056329D01*
X0001355D01*
X0001400Y0056240D01*
Y0056151D01*
X0001355Y0056063D01*
X0001089D01*
X0001044Y0056151D01*
X0038620Y0049490D02*
X0038264D01*
X0038442Y0049846D01*
X0038531D01*
Y0049313D01*
X0038020Y0049757D02*
X0037975Y0049846D01*
X0037709D01*
X0037664Y0049757D01*
Y0049668D01*
X0037709Y0049579D01*
X0037975D01*
X0038020Y0049490D01*
Y0049401D01*
X0037975Y0049313D01*
X0037709D01*
X0037664Y0049401D01*
X0009567Y0024367D02*
Y0024200D01*
Y0024283D02*
X0009067D01*
X0009150Y0024200D01*
X0009067Y0023875D02*
X0009483D01*
X0009567Y0023833D01*
Y0023583D01*
X0009483Y0023542D01*
X0009067D01*
X0029285Y0029532D02*
Y0029421D01*
Y0029477D02*
X0028952D01*
X0029007Y0029421D01*
X0028793Y0032519D02*
X0028626Y0032186D01*
X0028849D01*
X0029076Y0032519D02*
X0029187D01*
X0029132D02*
Y0032186D01*
X0029187Y0032242D01*
X0026256Y0032027D02*
X0026200Y0031971D01*
Y0031860D01*
X0026256Y0031805D01*
X0026312D01*
X0026423Y0031916D01*
X0026534Y0031805D01*
Y0032027D01*
X0026256Y0032477D02*
X0026200Y0032421D01*
Y0032310D01*
X0026256Y0032255D01*
X0026312D01*
X0026423Y0032366D01*
X0026534Y0032255D01*
Y0032477D01*
X0027012Y0029476D02*
X0026845D01*
X0026818Y0029532D01*
Y0029587D01*
X0026845Y0029643D01*
X0027012D01*
X0027040Y0029587D01*
Y0029532D01*
X0026929Y0029309D01*
X0026590Y0029421D02*
X0026368D01*
X0026479Y0029643D01*
X0026534D01*
Y0029309D01*
X0030795Y0029562D02*
Y0029451D01*
Y0029507D02*
X0030462D01*
X0030517Y0029451D01*
X0010083Y0051883D02*
Y0052050D01*
Y0051967D02*
X0010583D01*
X0010500Y0052050D01*
X0010333Y0052458D02*
Y0052708D01*
X0010083D02*
X0010583D01*
Y0052375D01*
X0021610Y0009459D02*
X0021526Y0009543D01*
X0021360D01*
X0021276Y0009459D01*
Y0009376D01*
X0021443Y0009209D01*
X0021276Y0009043D01*
X0021610D01*
X0021851Y0009543D02*
X0022018D01*
X0021935D02*
Y0009043D01*
X0022018Y0009126D01*
X0022343Y0009043D02*
Y0009459D01*
X0022385Y0009543D01*
X0022635D01*
X0022676Y0009459D01*
Y0009043D01*
X0004363Y0010001D02*
Y0009668D01*
X0004030Y0010001D01*
X0003946D01*
X0003863Y0009959D01*
Y0009709D01*
X0003946Y0009668D01*
X0004363Y0009426D02*
Y0009259D01*
Y0009343D02*
X0003863D01*
X0003946Y0009259D01*
X0004196Y0008643D02*
X0004280D01*
X0004363Y0008684D01*
Y0008851D01*
X0004280Y0008893D01*
X0003863D01*
Y0008934D02*
Y0008768D01*
X0042358Y0008783D02*
Y0009283D01*
X0042525D02*
X0042192D01*
X0041825Y0009033D02*
X0041950Y0008783D01*
X0041617Y0009033D02*
X0041867D01*
X0041950Y0009117D01*
Y0009200D01*
X0041867Y0009283D01*
X0041617D01*
Y0008783D01*
X0041375Y0008950D02*
X0041042D01*
X0041375Y0008783D02*
Y0009033D01*
X0041250Y0009283D01*
X0041167D01*
X0041042Y0009033D01*
Y0008783D01*
X0040633D02*
Y0009283D01*
X0040800D02*
X0040467D01*
X0040225Y0009200D02*
X0040183Y0009283D01*
X0039933D01*
X0039892Y0009200D01*
Y0009117D01*
X0039933Y0009033D01*
X0040183D01*
X0040225Y0008950D01*
Y0008867D01*
X0040183Y0008783D01*
X0039933D01*
X0039892Y0008867D01*
X0040078Y0019511D02*
Y0019333D01*
Y0019422D02*
X0039544D01*
X0039633Y0019333D01*
X0040078Y0018689D02*
X0039544D01*
X0040078Y0018644D02*
Y0018911D01*
X0039900Y0019000D01*
X0039722D01*
X0039544Y0018911D01*
Y0018644D01*
X0002505Y0045416D02*
X0002772Y0045949D01*
X0002416D01*
X0002172Y0045416D02*
X0001994D01*
X0002083D02*
Y0045949D01*
X0001994Y0045860D01*
X0001350Y0045594D02*
Y0045505D01*
X0001394Y0045416D01*
X0001572D01*
X0001616Y0045505D01*
Y0045949D01*
X0001661D02*
X0001483D01*
X0040094Y0025739D02*
Y0026095D01*
X0040449Y0025917D01*
Y0025828D01*
X0039916D01*
X0040094Y0026650D02*
X0040005D01*
X0039916Y0026606D01*
Y0026428D01*
X0040005Y0026383D01*
X0040449D01*
Y0026339D02*
Y0026517D01*
X0037375Y0020417D02*
Y0020333D01*
X0037542Y0020583D02*
X0037375Y0020417D01*
X0037208Y0020583D01*
X0037542Y0020333D02*
X0037042D01*
X0005722Y0053116D02*
X0005544D01*
X0005633D02*
Y0053649D01*
X0005544Y0053560D01*
X0004900Y0053294D02*
Y0053205D01*
X0004944Y0053116D01*
X0005122D01*
X0005166Y0053205D01*
Y0053649D01*
X0005211D02*
X0005033D01*
X0004280Y0004368D02*
X0004363Y0004451D01*
Y0004618D01*
X0004280Y0004701D01*
X0004196D01*
X0004030Y0004534D01*
X0003863Y0004701D01*
Y0004368D01*
X0004363Y0004126D02*
Y0003959D01*
Y0004043D02*
X0003863D01*
X0003946Y0003959D01*
X0004196Y0003343D02*
X0004280D01*
X0004363Y0003384D01*
Y0003551D01*
X0004280Y0003593D01*
X0003863D01*
Y0003634D02*
Y0003468D01*
X0005533Y0030067D02*
X0005800D01*
X0005845Y0029978D01*
Y0029889D01*
X0005800Y0029801D01*
X0005533D01*
X0005489Y0029889D01*
Y0029978D01*
X0005667Y0030334D01*
X0006400Y0030156D02*
Y0030245D01*
X0006356Y0030334D01*
X0006178D01*
X0006133Y0030245D01*
Y0029801D01*
X0006089D02*
X0006267D01*
X0017257Y0004363D02*
X0017341Y0004280D01*
X0017382Y0004196D01*
Y0004030D01*
X0017341Y0003946D01*
X0017257Y0003863D01*
X0017174D01*
X0017091Y0003946D01*
X0017049Y0004030D01*
Y0004196D01*
X0017091Y0004280D01*
X0017174Y0004363D01*
X0017257D01*
X0017624D02*
X0017791D01*
X0017707D02*
Y0003863D01*
X0017791Y0003946D01*
X0018407Y0004196D02*
Y0004280D01*
X0018366Y0004363D01*
X0018199D01*
X0018157Y0004280D01*
Y0003863D01*
X0018116D02*
X0018282D01*
X0004280Y0019876D02*
X0004363Y0019918D01*
Y0020168D01*
X0004280Y0020209D01*
X0004113D01*
X0004030Y0020126D01*
Y0019876D01*
X0003863D01*
Y0020209D01*
X0004196Y0019343D02*
X0004280D01*
X0004363Y0019384D01*
Y0019551D01*
X0004280Y0019593D01*
X0003863D01*
Y0019634D02*
Y0019468D01*
X0004280Y0015876D02*
X0004363Y0015959D01*
Y0016126D01*
X0004280Y0016209D01*
X0004196D01*
X0004030Y0016043D01*
X0003863Y0016209D01*
Y0015876D01*
X0004196Y0015343D02*
X0004280D01*
X0004363Y0015384D01*
Y0015551D01*
X0004280Y0015593D01*
X0003863D01*
Y0015634D02*
Y0015468D01*
X0037375Y0020417D02*
Y0020333D01*
X0037542Y0020583D02*
X0037375Y0020417D01*
X0037208Y0020583D01*
X0037542Y0020333D02*
X0037042D01*
X0004363Y0032618D02*
Y0032451D01*
Y0032534D02*
X0003863D01*
X0003946Y0032451D01*
X0004363Y0032126D02*
Y0031959D01*
Y0032043D02*
X0003863D01*
X0003946Y0031959D01*
X0004196Y0031343D02*
X0004280D01*
X0004363Y0031384D01*
Y0031551D01*
X0004280Y0031593D01*
X0003863D01*
Y0031634D02*
Y0031468D01*
X0036600Y0014400D02*
Y0014756D01*
X0036955Y0014578D01*
Y0014489D01*
X0036422D01*
Y0015311D02*
X0036955D01*
X0036422Y0015356D02*
Y0015089D01*
X0036600Y0015000D01*
X0036778D01*
X0036955Y0015089D01*
Y0015356D01*
X0004363Y0023959D02*
X0003863Y0024209D01*
Y0023876D01*
X0004196Y0023343D02*
X0004280D01*
X0004363Y0023384D01*
Y0023551D01*
X0004280Y0023593D01*
X0003863D01*
Y0023634D02*
Y0023468D01*
X0039125Y0013583D02*
Y0013667D01*
X0038958Y0013417D02*
X0039125Y0013583D01*
X0039292Y0013417D01*
X0038958Y0013667D02*
X0039458D01*
X0036422Y0016900D02*
Y0017256D01*
X0036778Y0016900D01*
X0036867D01*
X0036955Y0016944D01*
Y0017211D01*
X0036867Y0017256D01*
X0036422Y0017811D02*
X0036955D01*
X0036422Y0017856D02*
Y0017589D01*
X0036600Y0017500D01*
X0036778D01*
X0036955Y0017589D01*
Y0017856D01*
X0039125Y0016083D02*
Y0016167D01*
X0038958Y0015917D02*
X0039125Y0016083D01*
X0039292Y0015917D01*
X0038958Y0016167D02*
X0039458D01*
X0039125Y0016083D02*
Y0016167D01*
X0038958Y0015917D02*
X0039125Y0016083D01*
X0039292Y0015917D01*
X0038958Y0016167D02*
X0039458D01*
X0004352Y0050970D02*
Y0050637D01*
X0004019Y0050970D01*
X0003935D01*
X0003852Y0050929D01*
Y0050679D01*
X0003935Y0050637D01*
X0004185Y0050104D02*
X0004269D01*
X0004352Y0050145D01*
Y0050312D01*
X0004269Y0050354D01*
X0003852D01*
Y0050395D02*
Y0050229D01*
X0004113Y0027918D02*
Y0028168D01*
X0004196Y0028209D01*
X0004280D01*
X0004363Y0028168D01*
Y0027918D01*
X0004280Y0027876D01*
X0004196D01*
X0003863Y0028043D01*
X0004196Y0027343D02*
X0004280D01*
X0004363Y0027384D01*
Y0027551D01*
X0004280Y0027593D01*
X0003863D01*
Y0027634D02*
Y0027468D01*
X0039125Y0013583D02*
Y0013667D01*
X0038958Y0013417D02*
X0039125Y0013583D01*
X0039292Y0013417D01*
X0038958Y0013667D02*
X0039458D01*
X0038292Y0009933D02*
X0038125D01*
X0038208D02*
Y0010433D01*
X0038125Y0010350D01*
X0037800Y0010433D02*
Y0010017D01*
X0037758Y0009933D01*
X0037633Y0010183D01*
Y0010267D02*
Y0010183D01*
X0037508Y0009933D01*
X0037467Y0010017D01*
Y0010433D01*
X0037225Y0010350D02*
X0037183Y0010433D01*
X0036933D01*
X0036892Y0010350D01*
Y0010267D01*
X0036933Y0010183D01*
X0037183D01*
X0037225Y0010100D01*
Y0010017D01*
X0037183Y0009933D01*
X0036933D01*
X0036892Y0010017D01*
X0012582Y0004113D02*
X0012541Y0004030D01*
Y0003946D01*
X0012582Y0003863D01*
X0012832D01*
X0012874Y0003946D01*
Y0004030D01*
X0012832Y0004113D01*
X0012582D01*
X0012541Y0004196D01*
Y0004280D01*
X0012582Y0004363D01*
X0012832D01*
X0012874Y0004280D01*
Y0004196D01*
X0012832Y0004113D01*
X0013407Y0004196D02*
Y0004280D01*
X0013366Y0004363D01*
X0013199D01*
X0013157Y0004280D01*
Y0003863D01*
X0013116D02*
X0013282D01*
X0036511Y0012256D02*
X0036422Y0012167D01*
Y0011989D01*
X0036511Y0011900D01*
X0036600D01*
X0036778Y0012078D01*
X0036955Y0011900D01*
Y0012256D01*
X0036422Y0012811D02*
X0036955D01*
X0036422Y0012856D02*
Y0012589D01*
X0036600Y0012500D01*
X0036778D01*
X0036955Y0012589D01*
Y0012856D01*
X0039125Y0011083D02*
Y0011167D01*
X0038958Y0010917D02*
X0039125Y0011083D01*
X0039292Y0010917D01*
X0038958Y0011167D02*
X0039458D01*
X0039125Y0011083D02*
Y0011167D01*
X0038958Y0010917D02*
X0039125Y0011083D01*
X0039292Y0010917D01*
X0038958Y0011167D02*
X0039458D01*
X0009483Y0020117D02*
X0009567Y0020200D01*
Y0020367D01*
X0009483Y0020450D01*
X0009400D01*
X0009233Y0020283D01*
X0009067Y0020450D01*
Y0020117D01*
Y0019875D02*
X0009483D01*
X0009567Y0019833D01*
Y0019583D01*
X0009483Y0019542D01*
X0009067D01*
X0038750Y0014000D02*
X0039000D01*
X0037750D02*
X0037500D01*
X0037750Y0020000D02*
X0037500D01*
X0038750D02*
X0039000D01*
X0038750Y0016500D02*
X0039000D01*
X0037750D02*
X0037500D01*
X0029618Y0032977D02*
X0029743D01*
Y0032852D01*
X0025743D02*
Y0032977D01*
X0025868D01*
Y0028977D02*
X0025743D01*
Y0029102D01*
X0029930Y0029289D02*
Y0029290D01*
X0030243D01*
X0029493Y0028977D02*
X0029617D01*
X0029618Y0028978D01*
X0029930Y0029290D01*
X0038750Y0011500D02*
X0039000D01*
X0037750D02*
X0037500D01*
X0026650Y0004930D02*
Y0000380D01*
X0024650D01*
Y0004930D01*
X0026650D01*
G01X0038250Y0013500D02*
G03X0039250Y0014500I0000000J0001000D01*
G01X0037250D02*
G03X0038250Y0013500I0001000J0000000D01*
Y0015500D02*
G03X0037250Y0014500I0000000J0001000D01*
G01X0039250D02*
G03X0038250Y0015500I0001000J0000000D01*
Y0018500D02*
G03X0039250Y0019500I0000000J0001000D01*
G01X0037250D02*
G03X0038250Y0018500I0001000J0000000D01*
Y0020500D02*
G03X0037250Y0019500I0000000J0001000D01*
G01X0039250D02*
G03X0038250Y0020500I0001000J0000000D01*
Y0016000D02*
G03X0039250Y0017000I0000000J0001000D01*
G01X0037250D02*
G03X0038250Y0016000I0001000J0000000D01*
Y0018000D02*
G03X0037250Y0017000I0000000J0001000D01*
G01X0039250D02*
G03X0038250Y0018000I0001000J0000000D01*
Y0011000D02*
G03X0039250Y0012000I0000000J0001000D01*
G01X0037250D02*
G03X0038250Y0011000I0001000J0000000D01*
Y0013000D02*
G03X0037250Y0012000I0000000J0001000D01*
G01X0039250D02*
G03X0038250Y0013000I0001000J0000000D01*
G54D143*
G01X0009997Y0014251D02*
X0009830D01*
X0009802Y0014306D01*
Y0014362D01*
X0009830Y0014417D01*
X0009997D01*
X0010025Y0014362D01*
Y0014306D01*
X0009913Y0014084D01*
X0010172Y0014417D02*
X0010367D01*
Y0014084D01*
X0011944Y0014784D02*
Y0015007D01*
X0012166Y0014896D01*
Y0014840D01*
X0011833D01*
X0011999Y0015349D02*
Y0015182D01*
X0011944Y0015154D01*
X0011888D01*
X0011833Y0015182D01*
Y0015349D01*
X0011888Y0015377D01*
X0011944D01*
X0012166Y0015266D01*
X0011888Y0015524D02*
X0011833Y0015552D01*
Y0015719D01*
X0011888Y0015747D01*
X0012110D01*
X0012166Y0015719D01*
Y0015552D01*
X0012110Y0015524D01*
X0006117Y0016024D02*
Y0015913D01*
Y0015969D02*
X0005784D01*
X0005839Y0015913D01*
X0006117Y0015710D02*
Y0015487D01*
X0005895Y0015710D01*
X0005839D01*
X0005784Y0015682D01*
Y0015515D01*
X0005839Y0015487D01*
X0006117Y0015340D02*
Y0015229D01*
Y0015284D02*
X0005784D01*
X0005839Y0015229D01*
X0005951Y0014942D02*
X0006117Y0015025D01*
X0005951Y0014803D02*
Y0014970D01*
X0005895Y0015025D01*
X0005839D01*
X0005784Y0014970D01*
Y0014803D01*
X0006117D01*
X0005417Y0016974D02*
Y0016863D01*
Y0016919D02*
X0005084D01*
X0005139Y0016863D01*
X0005417Y0016660D02*
Y0016437D01*
X0005195Y0016660D01*
X0005139D01*
X0005084Y0016632D01*
Y0016465D01*
X0005139Y0016437D01*
X0005417Y0016290D02*
Y0016179D01*
Y0016234D02*
X0005084D01*
X0005139Y0016179D01*
X0005251Y0015892D02*
X0005417Y0015975D01*
X0005251Y0015753D02*
Y0015920D01*
X0005195Y0015975D01*
X0005139D01*
X0005084Y0015920D01*
Y0015753D01*
X0005417D01*
X0004883Y0018559D02*
X0004938Y0018615D01*
X0004994Y0018642D01*
X0005105D01*
X0005160Y0018615D01*
X0005216Y0018559D01*
Y0018503D01*
X0005160Y0018448D01*
X0005105Y0018420D01*
X0004994D01*
X0004938Y0018448D01*
X0004883Y0018503D01*
Y0018559D01*
Y0018790D02*
Y0019012D01*
X0005105Y0018790D01*
X0005160D01*
X0005216Y0018818D01*
Y0018985D01*
X0005160Y0019012D01*
X0004883Y0019160D02*
Y0019271D01*
Y0019216D02*
X0005216D01*
X0005160Y0019271D01*
X0005049Y0019558D02*
X0004883Y0019474D01*
X0005049Y0019697D02*
Y0019530D01*
X0005105Y0019474D01*
X0005160D01*
X0005216Y0019530D01*
Y0019697D01*
X0004883D01*
X0028312Y0025107D02*
X0028367Y0025163D01*
Y0025274D01*
X0028312Y0025330D01*
X0028256D01*
X0028145Y0025219D01*
X0028034Y0025330D01*
Y0025107D01*
X0028367Y0024960D02*
Y0024737D01*
X0028145Y0024960D01*
X0028089D01*
X0028034Y0024932D01*
Y0024765D01*
X0028089Y0024737D01*
X0028367Y0024590D02*
Y0024479D01*
Y0024534D02*
X0028034D01*
X0028089Y0024479D01*
X0028201Y0024192D02*
X0028367Y0024275D01*
X0028201Y0024053D02*
Y0024220D01*
X0028145Y0024275D01*
X0028089D01*
X0028034Y0024220D01*
Y0024053D01*
X0028367D01*
X0005583Y0017609D02*
X0005638Y0017665D01*
X0005694Y0017692D01*
X0005805D01*
X0005860Y0017665D01*
X0005916Y0017609D01*
Y0017553D01*
X0005860Y0017498D01*
X0005805Y0017470D01*
X0005694D01*
X0005638Y0017498D01*
X0005583Y0017553D01*
Y0017609D01*
Y0017840D02*
Y0018062D01*
X0005805Y0017840D01*
X0005860D01*
X0005916Y0017868D01*
Y0018035D01*
X0005860Y0018062D01*
X0005583Y0018210D02*
Y0018321D01*
Y0018266D02*
X0005916D01*
X0005860Y0018321D01*
X0005749Y0018608D02*
X0005583Y0018524D01*
X0005749Y0018747D02*
Y0018580D01*
X0005805Y0018524D01*
X0005860D01*
X0005916Y0018580D01*
Y0018747D01*
X0005583D01*
X0021351Y0043378D02*
X0021295Y0043405D01*
X0021239D01*
X0021184Y0043378D01*
Y0043211D01*
X0021239Y0043183D01*
X0021295D01*
X0021351Y0043211D01*
Y0043378D01*
X0021406Y0043405D01*
X0021462D01*
X0021517Y0043378D01*
Y0043211D01*
X0021462Y0043183D01*
X0021406D01*
X0021351Y0043211D01*
X0021462Y0042813D02*
X0021517Y0042841D01*
Y0043008D01*
X0021462Y0043035D01*
X0021351D01*
X0021295Y0042980D01*
Y0042813D01*
X0021184D01*
Y0043035D01*
X0021351Y0042582D02*
X0021517Y0042665D01*
X0021351Y0042443D02*
Y0042610D01*
X0021295Y0042665D01*
X0021239D01*
X0021184Y0042610D01*
Y0042443D01*
X0021517D01*
X0025190Y0024723D02*
X0025135Y0024696D01*
Y0024529D01*
X0025190Y0024501D01*
X0025302D01*
X0025357Y0024557D01*
Y0024723D01*
X0025468D01*
Y0024501D01*
X0025135Y0024871D02*
Y0024982D01*
Y0024927D02*
X0025468D01*
X0025413Y0024982D01*
X0025190Y0025185D02*
X0025135Y0025213D01*
Y0025380D01*
X0025190Y0025408D01*
X0025413D01*
X0025468Y0025380D01*
Y0025213D01*
X0025413Y0025185D01*
X0012007Y0035362D02*
X0011979Y0035417D01*
X0011812D01*
X0011784Y0035362D01*
Y0035251D01*
X0011840Y0035195D01*
X0012007D01*
Y0035084D01*
X0011784D01*
X0012154Y0035417D02*
X0012377D01*
X0012154Y0035195D01*
Y0035139D01*
X0012182Y0035084D01*
X0012349D01*
X0012377Y0035139D01*
X0012608Y0035251D02*
X0012524Y0035417D01*
X0012747Y0035251D02*
X0012580D01*
X0012524Y0035195D01*
Y0035139D01*
X0012580Y0035084D01*
X0012747D01*
Y0035417D01*
X0019573Y0030698D02*
X0019629Y0030643D01*
X0019740D01*
X0019795Y0030698D01*
Y0030754D01*
X0019684Y0030865D01*
X0019795Y0030976D01*
X0019573D01*
X0019203Y0030698D02*
X0019259Y0030643D01*
X0019370D01*
X0019425Y0030698D01*
Y0030754D01*
X0019314Y0030865D01*
X0019425Y0030976D01*
X0019203D01*
X0019055Y0030698D02*
X0019028Y0030643D01*
X0018861D01*
X0018833Y0030698D01*
Y0030920D01*
X0018861Y0030976D01*
X0019028D01*
X0019055Y0030920D01*
X0024667Y0025799D02*
X0024334Y0025965D01*
Y0025743D01*
X0024667Y0025595D02*
Y0025373D01*
X0024445Y0025595D01*
X0024389D01*
X0024334Y0025568D01*
Y0025401D01*
X0024389Y0025373D01*
X0024612Y0025225D02*
X0024667Y0025198D01*
Y0025031D01*
X0024612Y0025003D01*
X0024389D01*
X0024334Y0025031D01*
Y0025198D01*
X0024389Y0025225D01*
X0011784Y0030917D02*
X0012007D01*
X0011784Y0030695D01*
Y0030639D01*
X0011812Y0030584D01*
X0011979D01*
X0012007Y0030639D01*
X0012377Y0030862D02*
X0012321Y0030917D01*
X0012210D01*
X0012154Y0030862D01*
Y0030806D01*
X0012266Y0030695D01*
X0012154Y0030584D01*
X0012377D01*
X0012608Y0030751D02*
X0012524Y0030917D01*
X0012747Y0030751D02*
X0012580D01*
X0012524Y0030695D01*
Y0030639D01*
X0012580Y0030584D01*
X0012747D01*
Y0030917D01*
X0031738Y0027549D02*
X0031571D01*
X0031543Y0027605D01*
Y0027660D01*
X0031571Y0027716D01*
X0031738D01*
X0031765Y0027660D01*
Y0027605D01*
X0031654Y0027383D01*
X0031201Y0027549D02*
X0031368D01*
X0031395Y0027494D01*
Y0027438D01*
X0031368Y0027383D01*
X0031201D01*
X0031173Y0027438D01*
Y0027494D01*
X0031284Y0027716D01*
X0030942Y0027549D02*
X0031025Y0027383D01*
X0030803Y0027549D02*
X0030970D01*
X0031025Y0027605D01*
Y0027660D01*
X0030970Y0027716D01*
X0030803D01*
Y0027383D01*
X0036071Y0022667D02*
X0035904Y0022334D01*
X0036127D01*
X0036358Y0022501D02*
X0036274Y0022667D01*
X0036497Y0022501D02*
X0036330D01*
X0036274Y0022445D01*
Y0022389D01*
X0036330Y0022334D01*
X0036497D01*
Y0022667D01*
X0011667Y0023576D02*
X0011612Y0023521D01*
X0011556Y0023493D01*
X0011445D01*
X0011389Y0023521D01*
X0011334Y0023576D01*
Y0023632D01*
X0011389Y0023688D01*
X0011445Y0023715D01*
X0011556D01*
X0011612Y0023688D01*
X0011667Y0023632D01*
Y0023576D01*
Y0023345D02*
Y0023123D01*
X0011445Y0023345D01*
X0011389D01*
X0011334Y0023318D01*
Y0023151D01*
X0011389Y0023123D01*
X0011501Y0022892D02*
X0011667Y0022975D01*
X0011501Y0022753D02*
Y0022920D01*
X0011445Y0022975D01*
X0011389D01*
X0011334Y0022920D01*
Y0022753D01*
X0011667D01*
X0031599Y0029633D02*
X0031765Y0029966D01*
X0031543D01*
X0031201Y0029799D02*
X0031368D01*
X0031395Y0029744D01*
Y0029688D01*
X0031368Y0029633D01*
X0031201D01*
X0031173Y0029688D01*
Y0029744D01*
X0031284Y0029966D01*
X0030942Y0029799D02*
X0031025Y0029633D01*
X0030803Y0029799D02*
X0030970D01*
X0031025Y0029855D01*
Y0029910D01*
X0030970Y0029966D01*
X0030803D01*
Y0029633D01*
X0034698Y0027110D02*
Y0027277D01*
X0034754Y0027304D01*
X0034809D01*
X0034865Y0027277D01*
Y0027110D01*
X0034809Y0027082D01*
X0034754D01*
X0034532Y0027193D01*
X0034754Y0026934D02*
Y0026712D01*
X0034532Y0026823D01*
Y0026879D01*
X0034865D01*
X0034809Y0026564D02*
X0034865Y0026537D01*
Y0026370D01*
X0034809Y0026342D01*
X0034587D01*
X0034532Y0026370D01*
Y0026537D01*
X0034587Y0026564D01*
X0011445Y0006365D02*
X0011668D01*
X0011445Y0006143D01*
Y0006087D01*
X0011473Y0006032D01*
X0011640D01*
X0011668Y0006087D01*
X0011815Y0006254D02*
X0012038D01*
X0011927Y0006032D01*
X0011871D01*
Y0006365D01*
X0012185Y0006309D02*
X0012213Y0006365D01*
X0012380D01*
X0012408Y0006309D01*
Y0006087D01*
X0012380Y0006032D01*
X0012213D01*
X0012185Y0006087D01*
X0036629Y0024385D02*
X0036518D01*
X0036573D02*
Y0024718D01*
X0036518Y0024663D01*
X0036314Y0024440D02*
X0036287Y0024385D01*
X0036120D01*
X0036092Y0024440D01*
Y0024663D01*
X0036120Y0024718D01*
X0036287D01*
X0036314Y0024663D01*
X0028451Y0036321D02*
Y0036488D01*
X0028506Y0036515D01*
X0028562D01*
X0028617Y0036488D01*
Y0036321D01*
X0028562Y0036293D01*
X0028506D01*
X0028284Y0036404D01*
X0028562Y0035923D02*
X0028617Y0035951D01*
Y0036118D01*
X0028562Y0036145D01*
X0028451D01*
X0028395Y0036090D01*
Y0035923D01*
X0028284D01*
Y0036145D01*
X0028451Y0035692D02*
X0028617Y0035775D01*
X0028451Y0035553D02*
Y0035720D01*
X0028395Y0035775D01*
X0028339D01*
X0028284Y0035720D01*
Y0035553D01*
X0028617D01*
X0018056Y0051965D02*
Y0051743D01*
X0017834Y0051854D01*
Y0051910D01*
X0018167D01*
X0018001Y0051568D02*
X0017945Y0051595D01*
X0017889D01*
X0017834Y0051568D01*
Y0051401D01*
X0017889Y0051373D01*
X0017945D01*
X0018001Y0051401D01*
Y0051568D01*
X0018056Y0051595D01*
X0018112D01*
X0018167Y0051568D01*
Y0051401D01*
X0018112Y0051373D01*
X0018056D01*
X0018001Y0051401D01*
Y0051142D02*
X0018167Y0051225D01*
X0018001Y0051003D02*
Y0051170D01*
X0017945Y0051225D01*
X0017889D01*
X0017834Y0051170D01*
Y0051003D01*
X0018167D01*
X0020067Y0009337D02*
X0019734Y0009504D01*
Y0009282D01*
X0020067Y0009134D02*
Y0009023D01*
Y0009079D02*
X0019734D01*
X0019789Y0009023D01*
X0020067Y0008820D02*
Y0008709D01*
Y0008764D02*
X0019734D01*
X0019789Y0008709D01*
X0019901Y0008422D02*
X0020067Y0008505D01*
X0019901Y0008283D02*
Y0008450D01*
X0019845Y0008505D01*
X0019789D01*
X0019734Y0008450D01*
Y0008283D01*
X0020067D01*
X0006583Y0018210D02*
Y0018321D01*
Y0018266D02*
X0006916D01*
X0006860Y0018321D01*
X0006749Y0018608D02*
X0006583Y0018524D01*
X0006749Y0018747D02*
Y0018580D01*
X0006805Y0018524D01*
X0006860D01*
X0006916Y0018580D01*
Y0018747D01*
X0006583D01*
X0030001Y0037438D02*
Y0037271D01*
X0029945Y0037243D01*
X0029889D01*
X0029834Y0037271D01*
Y0037438D01*
X0029889Y0037465D01*
X0029945D01*
X0030167Y0037354D01*
X0030112Y0036873D02*
X0030167Y0036929D01*
Y0037040D01*
X0030112Y0037095D01*
X0030056D01*
X0029945Y0036984D01*
X0029834Y0037095D01*
Y0036873D01*
X0030001Y0036642D02*
X0030167Y0036725D01*
X0030001Y0036503D02*
Y0036670D01*
X0029945Y0036725D01*
X0029889D01*
X0029834Y0036670D01*
Y0036503D01*
X0030167D01*
X0012552Y0029573D02*
X0012607Y0029629D01*
Y0029740D01*
X0012552Y0029795D01*
X0012496D01*
X0012385Y0029684D01*
X0012274Y0029795D01*
Y0029573D01*
X0012441Y0029398D02*
X0012385Y0029425D01*
X0012329D01*
X0012274Y0029398D01*
Y0029231D01*
X0012329Y0029203D01*
X0012385D01*
X0012441Y0029231D01*
Y0029398D01*
X0012496Y0029425D01*
X0012552D01*
X0012607Y0029398D01*
Y0029231D01*
X0012552Y0029203D01*
X0012496D01*
X0012441Y0029231D01*
Y0028972D02*
X0012607Y0029055D01*
X0012441Y0028833D02*
Y0029000D01*
X0012385Y0029055D01*
X0012329D01*
X0012274Y0029000D01*
Y0028833D01*
X0012607D01*
X0020052Y0047093D02*
X0020107Y0047065D01*
X0020163D01*
X0020218Y0047093D01*
Y0047260D01*
X0020163Y0047288D01*
X0020107D01*
X0020052Y0047260D01*
Y0047093D01*
X0019996Y0047065D01*
X0019940D01*
X0019885Y0047093D01*
Y0047260D01*
X0019940Y0047288D01*
X0019996D01*
X0020052Y0047260D01*
X0019940Y0047435D02*
X0019885Y0047463D01*
Y0047630D01*
X0019940Y0047658D01*
X0020163D01*
X0020218Y0047630D01*
Y0047463D01*
X0020163Y0047435D01*
X0036112Y0016373D02*
X0036167Y0016401D01*
Y0016568D01*
X0036112Y0016595D01*
X0036001D01*
X0035945Y0016540D01*
Y0016373D01*
X0035834D01*
Y0016595D01*
X0036001Y0016142D02*
X0036167Y0016225D01*
X0036001Y0016003D02*
Y0016170D01*
X0035945Y0016225D01*
X0035889D01*
X0035834Y0016170D01*
Y0016003D01*
X0036167D01*
X0026348Y0020177D02*
X0026293Y0020121D01*
Y0020010D01*
X0026348Y0019954D01*
X0026404D01*
X0026515Y0020066D01*
X0026626Y0019954D01*
Y0020177D01*
X0026293Y0020491D02*
X0026626Y0020324D01*
Y0020547D01*
X0026459Y0020778D02*
X0026293Y0020694D01*
X0026459Y0020917D02*
Y0020750D01*
X0026515Y0020694D01*
X0026570D01*
X0026626Y0020750D01*
Y0020917D01*
X0026293D01*
X0015965Y0020499D02*
X0016132D01*
X0016160Y0020444D01*
Y0020388D01*
X0016132Y0020333D01*
X0015965D01*
X0015937Y0020388D01*
Y0020444D01*
X0016049Y0020666D01*
X0015790Y0020333D02*
X0015679D01*
X0015734D02*
Y0020666D01*
X0015679Y0020610D01*
X0015392Y0020499D02*
X0015475Y0020333D01*
X0015253Y0020499D02*
X0015420D01*
X0015475Y0020555D01*
Y0020610D01*
X0015420Y0020666D01*
X0015253D01*
Y0020333D01*
X0009276Y0006556D02*
X0009498D01*
X0009387Y0006334D01*
X0009331D01*
Y0006667D01*
X0009646D02*
X0009757D01*
X0009701D02*
Y0006334D01*
X0009757Y0006389D01*
X0009960Y0006667D02*
X0010071D01*
X0010016D02*
Y0006334D01*
X0010071Y0006389D01*
X0010358Y0006501D02*
X0010274Y0006667D01*
X0010497Y0006501D02*
X0010330D01*
X0010274Y0006445D01*
Y0006389D01*
X0010330Y0006334D01*
X0010497D01*
Y0006667D01*
X0012717Y0049479D02*
X0012384Y0049645D01*
Y0049423D01*
X0012662Y0049053D02*
X0012717Y0049109D01*
Y0049220D01*
X0012662Y0049275D01*
X0012606D01*
X0012495Y0049164D01*
X0012384Y0049275D01*
Y0049053D01*
X0012662Y0048905D02*
X0012717Y0048878D01*
Y0048711D01*
X0012662Y0048683D01*
X0012439D01*
X0012384Y0048711D01*
Y0048878D01*
X0012439Y0048905D01*
X0029417Y0037465D02*
Y0037243D01*
X0029195Y0037465D01*
X0029139D01*
X0029084Y0037438D01*
Y0037271D01*
X0029139Y0037243D01*
X0029251Y0036901D02*
Y0037068D01*
X0029306Y0037095D01*
X0029362D01*
X0029417Y0037068D01*
Y0036901D01*
X0029362Y0036873D01*
X0029306D01*
X0029084Y0036984D01*
X0029251Y0036642D02*
X0029417Y0036725D01*
X0029251Y0036503D02*
Y0036670D01*
X0029195Y0036725D01*
X0029139D01*
X0029084Y0036670D01*
Y0036503D01*
X0029417D01*
X0026256Y0036515D02*
Y0036293D01*
X0026034Y0036404D01*
Y0036460D01*
X0026367D01*
X0026201Y0035951D02*
Y0036118D01*
X0026256Y0036145D01*
X0026312D01*
X0026367Y0036118D01*
Y0035951D01*
X0026312Y0035923D01*
X0026256D01*
X0026034Y0036034D01*
X0026201Y0035692D02*
X0026367Y0035775D01*
X0026201Y0035553D02*
Y0035720D01*
X0026145Y0035775D01*
X0026089D01*
X0026034Y0035720D01*
Y0035553D01*
X0026367D01*
X0014715Y0007694D02*
X0014493D01*
X0014604Y0007916D01*
X0014660D01*
Y0007583D01*
X0014318Y0007749D02*
X0014151D01*
X0014123Y0007805D01*
Y0007860D01*
X0014151Y0007916D01*
X0014318D01*
X0014345Y0007860D01*
Y0007805D01*
X0014234Y0007583D01*
X0013892Y0007749D02*
X0013975Y0007583D01*
X0013753Y0007749D02*
X0013920D01*
X0013975Y0007805D01*
Y0007860D01*
X0013920Y0007916D01*
X0013753D01*
Y0007583D01*
X0004590Y0022167D02*
X0004701D01*
X0004646D02*
Y0021834D01*
X0004701Y0021889D01*
X0004904Y0022167D02*
X0005127D01*
X0004904Y0021945D01*
Y0021889D01*
X0004932Y0021834D01*
X0005099D01*
X0005127Y0021889D01*
X0005358Y0022001D02*
X0005274Y0022167D01*
X0005497Y0022001D02*
X0005330D01*
X0005274Y0021945D01*
Y0021889D01*
X0005330Y0021834D01*
X0005497D01*
Y0022167D01*
X0006526Y0005667D02*
X0006748D01*
X0006526Y0005445D01*
Y0005389D01*
X0006554Y0005334D01*
X0006720D01*
X0006748Y0005389D01*
X0006896Y0005667D02*
X0007007D01*
X0006951D02*
Y0005334D01*
X0007007Y0005389D01*
X0007210Y0005667D02*
X0007321D01*
X0007266D02*
Y0005334D01*
X0007321Y0005389D01*
X0007608Y0005501D02*
X0007524Y0005667D01*
X0007747Y0005501D02*
X0007580D01*
X0007524Y0005445D01*
Y0005389D01*
X0007580Y0005334D01*
X0007747D01*
Y0005667D01*
X0010123Y0032138D02*
X0010151Y0032083D01*
X0010318D01*
X0010345Y0032138D01*
Y0032249D01*
X0010290Y0032305D01*
X0010123D01*
Y0032416D01*
X0010345D01*
X0009975Y0032138D02*
X0009948Y0032083D01*
X0009781D01*
X0009753Y0032138D01*
Y0032360D01*
X0009781Y0032416D01*
X0009948D01*
X0009975Y0032360D01*
X0013612Y0029800D02*
Y0029578D01*
X0013390Y0029800D01*
X0013334D01*
X0013279Y0029773D01*
Y0029606D01*
X0013334Y0029578D01*
X0013446Y0029403D02*
X0013390Y0029430D01*
X0013334D01*
X0013279Y0029403D01*
Y0029236D01*
X0013334Y0029208D01*
X0013390D01*
X0013446Y0029236D01*
Y0029403D01*
X0013501Y0029430D01*
X0013557D01*
X0013612Y0029403D01*
Y0029236D01*
X0013557Y0029208D01*
X0013501D01*
X0013446Y0029236D01*
Y0028977D02*
X0013612Y0029060D01*
X0013446Y0028838D02*
Y0029005D01*
X0013390Y0029060D01*
X0013334D01*
X0013279Y0029005D01*
Y0028838D01*
X0013612D01*
X0019859Y0031082D02*
Y0031249D01*
X0019915Y0031277D01*
X0019970D01*
X0020026Y0031249D01*
Y0031082D01*
X0019970Y0031054D01*
X0019915D01*
X0019693Y0031166D01*
Y0031591D02*
X0020026Y0031424D01*
Y0031647D01*
X0019859Y0031878D02*
X0019693Y0031794D01*
X0019859Y0032017D02*
Y0031850D01*
X0019915Y0031794D01*
X0019970D01*
X0020026Y0031850D01*
Y0032017D01*
X0019693D01*
X0019435Y0041701D02*
Y0041812D01*
Y0041757D02*
X0019768D01*
X0019713Y0041812D01*
X0019546Y0042015D02*
Y0042238D01*
X0019768Y0042127D01*
Y0042071D01*
X0019435D01*
X0019490Y0042385D02*
X0019435Y0042413D01*
Y0042580D01*
X0019490Y0042608D01*
X0019713D01*
X0019768Y0042580D01*
Y0042413D01*
X0019713Y0042385D01*
X0005302Y0045473D02*
Y0045640D01*
X0005357Y0045668D01*
X0005413D01*
X0005468Y0045640D01*
Y0045473D01*
X0005413Y0045445D01*
X0005357D01*
X0005135Y0045557D01*
X0005246Y0045815D02*
Y0046038D01*
X0005468Y0045927D01*
Y0045871D01*
X0005135D01*
X0005190Y0046185D02*
X0005135Y0046213D01*
Y0046380D01*
X0005190Y0046408D01*
X0005413D01*
X0005468Y0046380D01*
Y0046213D01*
X0005413Y0046185D01*
X0004646Y0026667D02*
X0004757D01*
X0004701D02*
Y0026334D01*
X0004757Y0026389D01*
X0004960Y0026667D02*
X0005071D01*
X0005016D02*
Y0026334D01*
X0005071Y0026389D01*
X0005358Y0026501D02*
X0005274Y0026667D01*
X0005497Y0026501D02*
X0005330D01*
X0005274Y0026445D01*
Y0026389D01*
X0005330Y0026334D01*
X0005497D01*
Y0026667D01*
X0033710Y0030633D02*
X0033599D01*
X0033654D02*
Y0030966D01*
X0033599Y0030910D01*
X0033395Y0030744D02*
X0033173D01*
X0033284Y0030966D01*
X0033340D01*
Y0030633D01*
X0032942Y0030799D02*
X0033025Y0030633D01*
X0032803Y0030799D02*
X0032970D01*
X0033025Y0030855D01*
Y0030910D01*
X0032970Y0030966D01*
X0032803D01*
Y0030633D01*
X0031279Y0033448D02*
X0031251Y0033393D01*
Y0033337D01*
X0031279Y0033282D01*
X0031446D01*
X0031473Y0033337D01*
Y0033393D01*
X0031446Y0033448D01*
X0031279D01*
X0031251Y0033504D01*
Y0033559D01*
X0031279Y0033615D01*
X0031446D01*
X0031473Y0033559D01*
Y0033504D01*
X0031446Y0033448D01*
X0031621Y0033615D02*
X0031732D01*
X0031677D02*
Y0033282D01*
X0031732Y0033337D01*
X0031935Y0033559D02*
X0031963Y0033615D01*
X0032130D01*
X0032158Y0033559D01*
Y0033337D01*
X0032130Y0033282D01*
X0031963D01*
X0031935Y0033337D01*
X0033738Y0030049D02*
X0033765Y0030105D01*
Y0030160D01*
X0033738Y0030216D01*
X0033571D01*
X0033543Y0030160D01*
Y0030105D01*
X0033571Y0030049D01*
X0033738D01*
X0033765Y0029994D01*
Y0029938D01*
X0033738Y0029883D01*
X0033571D01*
X0033543Y0029938D01*
Y0029994D01*
X0033571Y0030049D01*
X0033201D02*
X0033368D01*
X0033395Y0029994D01*
Y0029938D01*
X0033368Y0029883D01*
X0033201D01*
X0033173Y0029938D01*
Y0029994D01*
X0033284Y0030216D01*
X0032942Y0030049D02*
X0033025Y0029883D01*
X0032803Y0030049D02*
X0032970D01*
X0033025Y0030105D01*
Y0030160D01*
X0032970Y0030216D01*
X0032803D01*
Y0029883D01*
X0038802Y0039167D02*
X0039025D01*
X0038802Y0038945D01*
Y0038890D01*
X0038830Y0038834D01*
X0038997D01*
X0039025Y0038890D01*
X0039172Y0039167D02*
X0039367D01*
Y0038834D01*
X0013418Y0006309D02*
X0013390Y0006365D01*
X0013223D01*
X0013195Y0006309D01*
Y0006198D01*
X0013251Y0006143D01*
X0013418D01*
Y0006032D01*
X0013195D01*
X0013565Y0006254D02*
X0013788D01*
X0013677Y0006032D01*
X0013621D01*
Y0006365D01*
X0013935Y0006309D02*
X0013963Y0006365D01*
X0014130D01*
X0014158Y0006309D01*
Y0006087D01*
X0014130Y0006032D01*
X0013963D01*
X0013935Y0006087D01*
X0016988Y0035299D02*
X0017015Y0035355D01*
Y0035410D01*
X0016988Y0035466D01*
X0016821D01*
X0016793Y0035410D01*
Y0035355D01*
X0016821Y0035299D01*
X0016988D01*
X0017015Y0035244D01*
Y0035188D01*
X0016988Y0035133D01*
X0016821D01*
X0016793Y0035188D01*
Y0035244D01*
X0016821Y0035299D01*
X0016423Y0035188D02*
X0016479Y0035133D01*
X0016590D01*
X0016645Y0035188D01*
Y0035244D01*
X0016534Y0035355D01*
X0016645Y0035466D01*
X0016423D01*
X0016192Y0035299D02*
X0016275Y0035133D01*
X0016053Y0035299D02*
X0016220D01*
X0016275Y0035355D01*
Y0035410D01*
X0016220Y0035466D01*
X0016053D01*
Y0035133D01*
X0004362Y0047057D02*
X0004417Y0047085D01*
Y0047252D01*
X0004362Y0047280D01*
X0004251D01*
X0004195Y0047224D01*
Y0047057D01*
X0004084D01*
Y0047280D01*
X0004417Y0046771D02*
X0004362Y0046715D01*
X0004306Y0046687D01*
X0004195D01*
X0004139Y0046715D01*
X0004084Y0046771D01*
Y0046826D01*
X0004139Y0046882D01*
X0004195Y0046910D01*
X0004306D01*
X0004362Y0046882D01*
X0004417Y0046826D01*
Y0046771D01*
Y0046540D02*
Y0046429D01*
Y0046484D02*
X0004084D01*
X0004139Y0046429D01*
X0004251Y0046142D02*
X0004417Y0046225D01*
X0004251Y0046003D02*
Y0046170D01*
X0004195Y0046225D01*
X0004139D01*
X0004084Y0046170D01*
Y0046003D01*
X0004417D01*
X0008609Y0040970D02*
X0008665Y0040914D01*
X0008693Y0040859D01*
Y0040748D01*
X0008665Y0040692D01*
X0008609Y0040637D01*
X0008554D01*
X0008498Y0040692D01*
X0008470Y0040748D01*
Y0040859D01*
X0008498Y0040914D01*
X0008554Y0040970D01*
X0008609D01*
X0009063Y0040914D02*
X0009007Y0040970D01*
X0008896D01*
X0008840Y0040914D01*
Y0040859D01*
X0008952Y0040748D01*
X0008840Y0040637D01*
X0009063D01*
X0009210Y0040914D02*
X0009238Y0040970D01*
X0009405D01*
X0009433Y0040914D01*
Y0040692D01*
X0009405Y0040637D01*
X0009238D01*
X0009210Y0040692D01*
X0002567Y0046262D02*
X0002511Y0046317D01*
X0002400D01*
X0002344Y0046262D01*
Y0046206D01*
X0002456Y0046095D01*
X0002344Y0045984D01*
X0002567D01*
X0002798Y0046151D02*
X0002714Y0046317D01*
X0002937Y0046151D02*
X0002770D01*
X0002714Y0046095D01*
Y0046039D01*
X0002770Y0045984D01*
X0002937D01*
Y0046317D01*
X0028690Y0024168D02*
X0028635Y0024140D01*
Y0023973D01*
X0028690Y0023945D01*
X0028802D01*
X0028857Y0024001D01*
Y0024168D01*
X0028968D01*
Y0023945D01*
X0028635Y0024315D02*
Y0024538D01*
X0028857Y0024315D01*
X0028913D01*
X0028968Y0024343D01*
Y0024510D01*
X0028913Y0024538D01*
X0028690Y0024685D02*
X0028635Y0024713D01*
Y0024880D01*
X0028690Y0024908D01*
X0028913D01*
X0028968Y0024880D01*
Y0024713D01*
X0028913Y0024685D01*
X0032404Y0019954D02*
Y0020177D01*
X0032626Y0020066D01*
Y0020010D01*
X0032293D01*
Y0020491D02*
X0032626Y0020324D01*
Y0020547D01*
X0032459Y0020778D02*
X0032293Y0020694D01*
X0032459Y0020917D02*
Y0020750D01*
X0032515Y0020694D01*
X0032570D01*
X0032626Y0020750D01*
Y0020917D01*
X0032293D01*
X0032521Y0034249D02*
X0032688D01*
X0032715Y0034194D01*
Y0034138D01*
X0032688Y0034083D01*
X0032521D01*
X0032493Y0034138D01*
Y0034194D01*
X0032604Y0034416D01*
X0032345Y0034194D02*
X0032123D01*
X0032234Y0034416D01*
X0032290D01*
Y0034083D01*
X0031892Y0034249D02*
X0031975Y0034083D01*
X0031753Y0034249D02*
X0031920D01*
X0031975Y0034305D01*
Y0034360D01*
X0031920Y0034416D01*
X0031753D01*
Y0034083D01*
X0007751Y0007446D02*
Y0007280D01*
X0007695Y0007252D01*
X0007639D01*
X0007584Y0007280D01*
Y0007446D01*
X0007639Y0007474D01*
X0007695D01*
X0007917Y0007363D01*
Y0007104D02*
Y0006993D01*
Y0007049D02*
X0007584D01*
X0007639Y0006993D01*
X0007917Y0006790D02*
Y0006679D01*
Y0006734D02*
X0007584D01*
X0007639Y0006679D01*
X0007751Y0006392D02*
X0007917Y0006475D01*
X0007751Y0006253D02*
Y0006420D01*
X0007695Y0006475D01*
X0007639D01*
X0007584Y0006420D01*
Y0006253D01*
X0007917D01*
X0015132Y0023499D02*
X0014965D01*
X0014937Y0023555D01*
Y0023610D01*
X0014965Y0023666D01*
X0015132D01*
X0015160Y0023610D01*
Y0023555D01*
X0015049Y0023333D01*
X0014790D02*
X0014679D01*
X0014734D02*
Y0023666D01*
X0014679Y0023610D01*
X0014392Y0023499D02*
X0014475Y0023333D01*
X0014253Y0023499D02*
X0014420D01*
X0014475Y0023555D01*
Y0023610D01*
X0014420Y0023666D01*
X0014253D01*
Y0023333D01*
X0018051Y0043058D02*
Y0042891D01*
X0017995Y0042863D01*
X0017940D01*
X0017884Y0042891D01*
Y0043058D01*
X0017940Y0043085D01*
X0017995D01*
X0018217Y0042974D01*
X0018162Y0042493D02*
X0018217Y0042549D01*
Y0042660D01*
X0018162Y0042715D01*
X0018106D01*
X0017995Y0042604D01*
X0017884Y0042715D01*
Y0042493D01*
X0018162Y0042345D02*
X0018217Y0042318D01*
Y0042151D01*
X0018162Y0042123D01*
X0017940D01*
X0017884Y0042151D01*
Y0042318D01*
X0017940Y0042345D01*
X0017340Y0009448D02*
X0017285Y0009420D01*
Y0009253D01*
X0017340Y0009225D01*
X0017452D01*
X0017507Y0009281D01*
Y0009448D01*
X0017618D01*
Y0009225D01*
X0017340Y0009818D02*
X0017285Y0009790D01*
Y0009623D01*
X0017340Y0009595D01*
X0017452D01*
X0017507Y0009651D01*
Y0009818D01*
X0017618D01*
Y0009595D01*
X0017340Y0009965D02*
X0017285Y0009993D01*
Y0010160D01*
X0017340Y0010188D01*
X0017563D01*
X0017618Y0010160D01*
Y0009993D01*
X0017563Y0009965D01*
X0019663Y0028483D02*
X0019718Y0028539D01*
X0019774Y0028567D01*
X0019885D01*
X0019940Y0028539D01*
X0019996Y0028483D01*
Y0028428D01*
X0019940Y0028372D01*
X0019885Y0028344D01*
X0019774D01*
X0019718Y0028372D01*
X0019663Y0028428D01*
Y0028483D01*
X0019829Y0028742D02*
X0019885Y0028714D01*
X0019940D01*
X0019996Y0028742D01*
Y0028909D01*
X0019940Y0028937D01*
X0019885D01*
X0019829Y0028909D01*
Y0028742D01*
X0019774Y0028714D01*
X0019718D01*
X0019663Y0028742D01*
Y0028909D01*
X0019718Y0028937D01*
X0019774D01*
X0019829Y0028909D01*
Y0029168D02*
X0019663Y0029084D01*
X0019829Y0029307D02*
Y0029140D01*
X0019885Y0029084D01*
X0019940D01*
X0019996Y0029140D01*
Y0029307D01*
X0019663D01*
X0022965Y0027583D02*
X0022743D01*
X0022965Y0027805D01*
Y0027860D01*
X0022938Y0027916D01*
X0022771D01*
X0022743Y0027860D01*
X0022595Y0027694D02*
X0022373D01*
X0022484Y0027916D01*
X0022540D01*
Y0027583D01*
X0022142Y0027749D02*
X0022225Y0027583D01*
X0022003Y0027749D02*
X0022170D01*
X0022225Y0027805D01*
Y0027860D01*
X0022170Y0027916D01*
X0022003D01*
Y0027583D01*
X0023951Y0036321D02*
Y0036488D01*
X0024006Y0036515D01*
X0024062D01*
X0024117Y0036488D01*
Y0036321D01*
X0024062Y0036293D01*
X0024006D01*
X0023784Y0036404D01*
X0024062Y0035923D02*
X0024117Y0035979D01*
Y0036090D01*
X0024062Y0036145D01*
X0024006D01*
X0023895Y0036034D01*
X0023784Y0036145D01*
Y0035923D01*
X0023951Y0035692D02*
X0024117Y0035775D01*
X0023951Y0035553D02*
Y0035720D01*
X0023895Y0035775D01*
X0023839D01*
X0023784Y0035720D01*
Y0035553D01*
X0024117D01*
X0022015Y0032383D02*
X0021793D01*
X0022015Y0032605D01*
Y0032660D01*
X0021988Y0032716D01*
X0021821D01*
X0021793Y0032660D01*
X0021479Y0032383D02*
X0021645Y0032716D01*
X0021423D01*
X0021192Y0032549D02*
X0021275Y0032383D01*
X0021053Y0032549D02*
X0021220D01*
X0021275Y0032605D01*
Y0032660D01*
X0021220Y0032716D01*
X0021053D01*
Y0032383D01*
X0015437Y0017888D02*
X0015465Y0017833D01*
X0015632D01*
X0015660Y0017888D01*
Y0017999D01*
X0015604Y0018055D01*
X0015437D01*
Y0018166D01*
X0015660D01*
X0015290Y0017833D02*
X0015179D01*
X0015234D02*
Y0018166D01*
X0015179Y0018110D01*
X0014892Y0017999D02*
X0014975Y0017833D01*
X0014753Y0017999D02*
X0014920D01*
X0014975Y0018055D01*
Y0018110D01*
X0014920Y0018166D01*
X0014753D01*
Y0017833D01*
X0022556Y0037465D02*
Y0037243D01*
X0022334Y0037354D01*
Y0037410D01*
X0022667D01*
X0022612Y0036873D02*
X0022667Y0036901D01*
Y0037068D01*
X0022612Y0037095D01*
X0022501D01*
X0022445Y0037040D01*
Y0036873D01*
X0022334D01*
Y0037095D01*
X0022501Y0036642D02*
X0022667Y0036725D01*
X0022501Y0036503D02*
Y0036670D01*
X0022445Y0036725D01*
X0022389D01*
X0022334Y0036670D01*
Y0036503D01*
X0022667D01*
X0009667Y0045168D02*
Y0045057D01*
Y0045113D02*
X0009334D01*
X0009389Y0045057D01*
X0009667Y0044854D02*
Y0044743D01*
Y0044799D02*
X0009334D01*
X0009389Y0044743D01*
X0009667Y0044540D02*
Y0044429D01*
Y0044484D02*
X0009334D01*
X0009389Y0044429D01*
X0009501Y0044142D02*
X0009667Y0044225D01*
X0009501Y0044003D02*
Y0044170D01*
X0009445Y0044225D01*
X0009389D01*
X0009334Y0044170D01*
Y0044003D01*
X0009667D01*
X0030751Y0032365D02*
X0030862D01*
X0030807D02*
Y0032032D01*
X0030862Y0032087D01*
X0031065Y0032365D02*
X0031288D01*
X0031065Y0032143D01*
Y0032087D01*
X0031093Y0032032D01*
X0031260D01*
X0031288Y0032087D01*
X0031435Y0032309D02*
X0031463Y0032365D01*
X0031630D01*
X0031658Y0032309D01*
Y0032087D01*
X0031630Y0032032D01*
X0031463D01*
X0031435Y0032087D01*
X0021288Y0006528D02*
X0021233Y0006500D01*
Y0006334D01*
X0021288Y0006306D01*
X0021399D01*
X0021455Y0006361D01*
Y0006528D01*
X0021566D01*
Y0006306D01*
X0021233Y0006676D02*
Y0006787D01*
Y0006731D02*
X0021566D01*
X0021510Y0006787D01*
X0021233Y0006990D02*
Y0007101D01*
Y0007046D02*
X0021566D01*
X0021510Y0007101D01*
X0021399Y0007388D02*
X0021233Y0007304D01*
X0021399Y0007527D02*
Y0007360D01*
X0021455Y0007304D01*
X0021510D01*
X0021566Y0007360D01*
Y0007527D01*
X0021233D01*
X0022743Y0031138D02*
X0022771Y0031083D01*
X0022938D01*
X0022965Y0031138D01*
Y0031249D01*
X0022910Y0031305D01*
X0022743D01*
Y0031416D01*
X0022965D01*
X0022595Y0031194D02*
X0022373D01*
X0022484Y0031416D01*
X0022540D01*
Y0031083D01*
X0022142Y0031249D02*
X0022225Y0031083D01*
X0022003Y0031249D02*
X0022170D01*
X0022225Y0031305D01*
Y0031360D01*
X0022170Y0031416D01*
X0022003D01*
Y0031083D01*
X0018275Y0033564D02*
X0018498D01*
X0018387Y0033342D01*
X0018331D01*
Y0033675D01*
X0018868Y0033619D02*
X0018812Y0033675D01*
X0018701D01*
X0018645Y0033619D01*
Y0033564D01*
X0018757Y0033453D01*
X0018645Y0033342D01*
X0018868D01*
X0019015Y0033619D02*
X0019043Y0033675D01*
X0019210D01*
X0019238Y0033619D01*
Y0033397D01*
X0019210Y0033342D01*
X0019043D01*
X0019015Y0033397D01*
X0036167Y0005660D02*
Y0005437D01*
X0035945Y0005660D01*
X0035889D01*
X0035834Y0005632D01*
Y0005465D01*
X0035889Y0005437D01*
X0036167Y0005290D02*
Y0005179D01*
Y0005234D02*
X0035834D01*
X0035889Y0005179D01*
X0036001Y0004892D02*
X0036167Y0004975D01*
X0036001Y0004753D02*
Y0004920D01*
X0035945Y0004975D01*
X0035889D01*
X0035834Y0004920D01*
Y0004753D01*
X0036167D01*
X0037885Y0004565D02*
Y0004788D01*
X0038107Y0004565D01*
X0038163D01*
X0038218Y0004593D01*
Y0004760D01*
X0038163Y0004788D01*
X0037940Y0004935D02*
X0037885Y0004963D01*
Y0005130D01*
X0037940Y0005158D01*
X0038163D01*
X0038218Y0005130D01*
Y0004963D01*
X0038163Y0004935D01*
X0021988Y0034299D02*
X0021821D01*
X0021793Y0034355D01*
Y0034410D01*
X0021821Y0034466D01*
X0021988D01*
X0022015Y0034410D01*
Y0034355D01*
X0021904Y0034133D01*
X0021645Y0034244D02*
X0021423D01*
X0021534Y0034466D01*
X0021590D01*
Y0034133D01*
X0021192Y0034299D02*
X0021275Y0034133D01*
X0021053Y0034299D02*
X0021220D01*
X0021275Y0034355D01*
Y0034410D01*
X0021220Y0034466D01*
X0021053D01*
Y0034133D01*
X0005215Y0006694D02*
X0004993D01*
X0005104Y0006916D01*
X0005160D01*
Y0006583D01*
X0004623Y0006638D02*
X0004679Y0006583D01*
X0004790D01*
X0004845Y0006638D01*
Y0006694D01*
X0004734Y0006805D01*
X0004845Y0006916D01*
X0004623D01*
X0004392Y0006749D02*
X0004475Y0006583D01*
X0004253Y0006749D02*
X0004420D01*
X0004475Y0006805D01*
Y0006860D01*
X0004420Y0006916D01*
X0004253D01*
Y0006583D01*
X0014993Y0021333D02*
X0015160Y0021666D01*
X0014937D01*
X0014790Y0021333D02*
X0014679D01*
X0014734D02*
Y0021666D01*
X0014679Y0021610D01*
X0014392Y0021499D02*
X0014475Y0021333D01*
X0014253Y0021499D02*
X0014420D01*
X0014475Y0021555D01*
Y0021610D01*
X0014420Y0021666D01*
X0014253D01*
Y0021333D01*
X0009748Y0046501D02*
X0009915D01*
X0009942Y0046445D01*
Y0046389D01*
X0009915Y0046334D01*
X0009748D01*
X0009720Y0046389D01*
Y0046445D01*
X0009831Y0046667D01*
X0010229D02*
X0010285Y0046612D01*
X0010312Y0046556D01*
Y0046445D01*
X0010285Y0046389D01*
X0010229Y0046334D01*
X0010173D01*
X0010118Y0046389D01*
X0010090Y0046445D01*
Y0046556D01*
X0010118Y0046612D01*
X0010173Y0046667D01*
X0010229D01*
X0010460D02*
X0010571D01*
X0010516D02*
Y0046334D01*
X0010571Y0046389D01*
X0010858Y0046501D02*
X0010774Y0046667D01*
X0010997Y0046501D02*
X0010830D01*
X0010774Y0046445D01*
Y0046389D01*
X0010830Y0046334D01*
X0010997D01*
Y0046667D01*
X0002404Y0045167D02*
X0002627D01*
X0002404Y0044945D01*
Y0044889D01*
X0002432Y0044834D01*
X0002599D01*
X0002627Y0044889D01*
X0002858Y0045001D02*
X0002774Y0045167D01*
X0002997Y0045001D02*
X0002830D01*
X0002774Y0044945D01*
Y0044889D01*
X0002830Y0044834D01*
X0002997D01*
Y0045167D01*
X0005198Y0008240D02*
Y0008407D01*
X0005254Y0008434D01*
X0005309D01*
X0005365Y0008407D01*
Y0008240D01*
X0005309Y0008212D01*
X0005254D01*
X0005032Y0008323D01*
X0005309Y0008064D02*
X0005365Y0008037D01*
Y0007870D01*
X0005309Y0007842D01*
X0005087D01*
X0005032Y0007870D01*
Y0008037D01*
X0005087Y0008064D01*
X0017723Y0024448D02*
X0017890D01*
X0017918Y0024393D01*
Y0024337D01*
X0017890Y0024282D01*
X0017723D01*
X0017695Y0024337D01*
Y0024393D01*
X0017807Y0024615D01*
X0018288Y0024559D02*
X0018260Y0024615D01*
X0018093D01*
X0018065Y0024559D01*
Y0024448D01*
X0018121Y0024393D01*
X0018288D01*
Y0024282D01*
X0018065D01*
X0018435Y0024559D02*
X0018463Y0024615D01*
X0018630D01*
X0018658Y0024559D01*
Y0024337D01*
X0018630Y0024282D01*
X0018463D01*
X0018435Y0024337D01*
X0004795Y0025364D02*
X0004573D01*
X0004684Y0025586D01*
X0004740D01*
Y0025253D01*
X0004314Y0025364D02*
X0004425Y0025253D01*
X0004203Y0025308D02*
X0004231Y0025253D01*
X0004342D01*
X0004370Y0025308D01*
X0004425Y0025364D01*
Y0025530D01*
X0004398Y0025586D01*
X0004231D01*
X0004203Y0025530D01*
Y0025308D01*
X0019404Y0008084D02*
Y0007862D01*
X0019182Y0007973D01*
Y0008029D01*
X0019515D01*
X0019459Y0007492D02*
X0019515Y0007520D01*
Y0007687D01*
X0019459Y0007714D01*
X0019348D01*
X0019293Y0007659D01*
Y0007492D01*
X0019182D01*
Y0007714D01*
X0019459Y0007344D02*
X0019515Y0007317D01*
Y0007150D01*
X0019459Y0007122D01*
X0019237D01*
X0019182Y0007150D01*
Y0007317D01*
X0019237Y0007344D01*
X0022910Y0034083D02*
X0022799D01*
X0022854D02*
Y0034416D01*
X0022799Y0034360D01*
X0022401Y0034249D02*
X0022568D01*
X0022595Y0034194D01*
Y0034138D01*
X0022568Y0034083D01*
X0022401D01*
X0022373Y0034138D01*
Y0034194D01*
X0022484Y0034416D01*
X0022142Y0034249D02*
X0022225Y0034083D01*
X0022003Y0034249D02*
X0022170D01*
X0022225Y0034305D01*
Y0034360D01*
X0022170Y0034416D01*
X0022003D01*
Y0034083D01*
X0007635Y0007695D02*
Y0007918D01*
X0007857Y0007695D01*
X0007913D01*
X0007968Y0007723D01*
Y0007890D01*
X0007913Y0007918D01*
X0007690Y0008288D02*
X0007635Y0008260D01*
Y0008093D01*
X0007690Y0008065D01*
X0007802D01*
X0007857Y0008121D01*
Y0008288D01*
X0007968D01*
Y0008065D01*
X0007690Y0008435D02*
X0007635Y0008463D01*
Y0008630D01*
X0007690Y0008658D01*
X0007913D01*
X0007968Y0008630D01*
Y0008463D01*
X0007913Y0008435D01*
X0028612Y0037243D02*
X0028667Y0037299D01*
Y0037410D01*
X0028612Y0037465D01*
X0028556D01*
X0028445Y0037354D01*
X0028334Y0037465D01*
Y0037243D01*
X0028501Y0036901D02*
Y0037068D01*
X0028556Y0037095D01*
X0028612D01*
X0028667Y0037068D01*
Y0036901D01*
X0028612Y0036873D01*
X0028556D01*
X0028334Y0036984D01*
X0028501Y0036642D02*
X0028667Y0036725D01*
X0028501Y0036503D02*
Y0036670D01*
X0028445Y0036725D01*
X0028389D01*
X0028334Y0036670D01*
Y0036503D01*
X0028667D01*
X0039582Y0040440D02*
X0039638Y0040385D01*
X0039749D01*
X0039804Y0040440D01*
Y0040496D01*
X0039693Y0040607D01*
X0039804Y0040718D01*
X0039582D01*
X0039434Y0040496D02*
X0039212D01*
X0039323Y0040718D01*
X0039379D01*
Y0040385D01*
X0039064Y0040440D02*
X0039037Y0040385D01*
X0038870D01*
X0038842Y0040440D01*
Y0040663D01*
X0038870Y0040718D01*
X0039037D01*
X0039064Y0040663D01*
X0020945Y0028004D02*
X0021168D01*
X0021057Y0027782D01*
X0021001D01*
Y0028115D01*
X0021315D02*
X0021538D01*
X0021315Y0027893D01*
Y0027837D01*
X0021343Y0027782D01*
X0021510D01*
X0021538Y0027837D01*
X0021685Y0028059D02*
X0021713Y0028115D01*
X0021880D01*
X0021908Y0028059D01*
Y0027837D01*
X0021880Y0027782D01*
X0021713D01*
X0021685Y0027837D01*
X0017198Y0009907D02*
Y0009740D01*
X0017143Y0009712D01*
X0017087D01*
X0017032Y0009740D01*
Y0009907D01*
X0017087Y0009934D01*
X0017143D01*
X0017365Y0009823D01*
X0017309Y0009564D02*
X0017365Y0009537D01*
Y0009370D01*
X0017309Y0009342D01*
X0017087D01*
X0017032Y0009370D01*
Y0009537D01*
X0017087Y0009564D01*
X0004133Y0012448D02*
X0004105Y0012393D01*
Y0012337D01*
X0004133Y0012282D01*
X0004300D01*
X0004328Y0012337D01*
Y0012393D01*
X0004300Y0012448D01*
X0004133D01*
X0004105Y0012504D01*
Y0012559D01*
X0004133Y0012615D01*
X0004300D01*
X0004328Y0012559D01*
Y0012504D01*
X0004300Y0012448D01*
X0004698Y0012559D02*
X0004670Y0012615D01*
X0004503D01*
X0004475Y0012559D01*
Y0012448D01*
X0004531Y0012393D01*
X0004698D01*
Y0012282D01*
X0004475D01*
X0004845Y0012559D02*
X0004873Y0012615D01*
X0005040D01*
X0005068Y0012559D01*
Y0012337D01*
X0005040Y0012282D01*
X0004873D01*
X0004845Y0012337D01*
X0019217Y0051749D02*
X0018884Y0051915D01*
Y0051693D01*
X0019051Y0051518D02*
X0018995Y0051545D01*
X0018939D01*
X0018884Y0051518D01*
Y0051351D01*
X0018939Y0051323D01*
X0018995D01*
X0019051Y0051351D01*
Y0051518D01*
X0019106Y0051545D01*
X0019162D01*
X0019217Y0051518D01*
Y0051351D01*
X0019162Y0051323D01*
X0019106D01*
X0019051Y0051351D01*
Y0051092D02*
X0019217Y0051175D01*
X0019051Y0050953D02*
Y0051120D01*
X0018995Y0051175D01*
X0018939D01*
X0018884Y0051120D01*
Y0050953D01*
X0019217D01*
X0036056Y0019345D02*
Y0019123D01*
X0035834Y0019234D01*
Y0019290D01*
X0036167D01*
X0036001Y0018892D02*
X0036167Y0018975D01*
X0036001Y0018753D02*
Y0018920D01*
X0035945Y0018975D01*
X0035889D01*
X0035834Y0018920D01*
Y0018753D01*
X0036167D01*
X0020473Y0028198D02*
X0020445Y0028143D01*
Y0028087D01*
X0020473Y0028032D01*
X0020640D01*
X0020668Y0028087D01*
Y0028143D01*
X0020640Y0028198D01*
X0020473D01*
X0020445Y0028254D01*
Y0028309D01*
X0020473Y0028365D01*
X0020640D01*
X0020668Y0028309D01*
Y0028254D01*
X0020640Y0028198D01*
X0020815Y0028365D02*
X0021038D01*
X0020815Y0028143D01*
Y0028087D01*
X0020843Y0028032D01*
X0021010D01*
X0021038Y0028087D01*
X0021185Y0028309D02*
X0021213Y0028365D01*
X0021380D01*
X0021408Y0028309D01*
Y0028087D01*
X0021380Y0028032D01*
X0021213D01*
X0021185Y0028087D01*
X0006212Y0034690D02*
X0006268Y0034635D01*
X0006379D01*
X0006434Y0034690D01*
Y0034746D01*
X0006323Y0034857D01*
X0006434Y0034968D01*
X0006212D01*
X0006064Y0034690D02*
X0006037Y0034635D01*
X0005870D01*
X0005842Y0034690D01*
Y0034913D01*
X0005870Y0034968D01*
X0006037D01*
X0006064Y0034913D01*
X0007307Y0013888D02*
X0007363Y0013833D01*
X0007474D01*
X0007530Y0013888D01*
Y0013944D01*
X0007419Y0014055D01*
X0007530Y0014166D01*
X0007307D01*
X0007021Y0013833D02*
X0006965Y0013888D01*
X0006937Y0013944D01*
Y0014055D01*
X0006965Y0014110D01*
X0007021Y0014166D01*
X0007076D01*
X0007132Y0014110D01*
X0007160Y0014055D01*
Y0013944D01*
X0007132Y0013888D01*
X0007076Y0013833D01*
X0007021D01*
X0006790D02*
X0006679D01*
X0006734D02*
Y0014166D01*
X0006679Y0014110D01*
X0006392Y0013999D02*
X0006475Y0013833D01*
X0006253Y0013999D02*
X0006420D01*
X0006475Y0014055D01*
Y0014110D01*
X0006420Y0014166D01*
X0006253D01*
Y0013833D01*
X0004635Y0003732D02*
X0004968Y0003565D01*
Y0003788D01*
X0004690Y0003935D02*
X0004635Y0003963D01*
Y0004130D01*
X0004690Y0004158D01*
X0004913D01*
X0004968Y0004130D01*
Y0003963D01*
X0004913Y0003935D01*
X0016132Y0022499D02*
X0016160Y0022555D01*
Y0022610D01*
X0016132Y0022666D01*
X0015965D01*
X0015937Y0022610D01*
Y0022555D01*
X0015965Y0022499D01*
X0016132D01*
X0016160Y0022444D01*
Y0022388D01*
X0016132Y0022333D01*
X0015965D01*
X0015937Y0022388D01*
Y0022444D01*
X0015965Y0022499D01*
X0015790Y0022333D02*
X0015679D01*
X0015734D02*
Y0022666D01*
X0015679Y0022610D01*
X0015392Y0022499D02*
X0015475Y0022333D01*
X0015253Y0022499D02*
X0015420D01*
X0015475Y0022555D01*
Y0022610D01*
X0015420Y0022666D01*
X0015253D01*
Y0022333D01*
X0018697Y0025806D02*
X0018642Y0025751D01*
X0018586Y0025723D01*
X0018475D01*
X0018419Y0025751D01*
X0018364Y0025806D01*
Y0025862D01*
X0018419Y0025918D01*
X0018475Y0025945D01*
X0018586D01*
X0018642Y0025918D01*
X0018697Y0025862D01*
Y0025806D01*
X0018531Y0025381D02*
Y0025548D01*
X0018586Y0025575D01*
X0018642D01*
X0018697Y0025548D01*
Y0025381D01*
X0018642Y0025353D01*
X0018586D01*
X0018364Y0025464D01*
X0018642Y0025205D02*
X0018697Y0025178D01*
Y0025011D01*
X0018642Y0024983D01*
X0018419D01*
X0018364Y0025011D01*
Y0025178D01*
X0018419Y0025205D01*
X0016271Y0006999D02*
X0016438D01*
X0016465Y0006944D01*
Y0006888D01*
X0016438Y0006833D01*
X0016271D01*
X0016243Y0006888D01*
Y0006944D01*
X0016354Y0007166D01*
X0016068Y0006999D02*
X0015901D01*
X0015873Y0007055D01*
Y0007110D01*
X0015901Y0007166D01*
X0016068D01*
X0016095Y0007110D01*
Y0007055D01*
X0015984Y0006833D01*
X0015642Y0006999D02*
X0015725Y0006833D01*
X0015503Y0006999D02*
X0015670D01*
X0015725Y0007055D01*
Y0007110D01*
X0015670Y0007166D01*
X0015503D01*
Y0006833D01*
X0016849Y0035883D02*
X0017015Y0036216D01*
X0016793D01*
X0016423Y0035938D02*
X0016479Y0035883D01*
X0016590D01*
X0016645Y0035938D01*
Y0035994D01*
X0016534Y0036105D01*
X0016645Y0036216D01*
X0016423D01*
X0016192Y0036049D02*
X0016275Y0035883D01*
X0016053Y0036049D02*
X0016220D01*
X0016275Y0036105D01*
Y0036160D01*
X0016220Y0036216D01*
X0016053D01*
Y0035883D01*
X0031279Y0034948D02*
X0031446D01*
X0031473Y0034893D01*
Y0034837D01*
X0031446Y0034782D01*
X0031279D01*
X0031251Y0034837D01*
Y0034893D01*
X0031362Y0035115D01*
X0031621D02*
X0031732D01*
X0031677D02*
Y0034782D01*
X0031732Y0034837D01*
X0031935Y0035059D02*
X0031963Y0035115D01*
X0032130D01*
X0032158Y0035059D01*
Y0034837D01*
X0032130Y0034782D01*
X0031963D01*
X0031935Y0034837D01*
X0022743Y0030138D02*
X0022799Y0030083D01*
X0022910D01*
X0022965Y0030138D01*
Y0030194D01*
X0022854Y0030305D01*
X0022965Y0030416D01*
X0022743D01*
X0022595Y0030194D02*
X0022373D01*
X0022484Y0030416D01*
X0022540D01*
Y0030083D01*
X0022142Y0030249D02*
X0022225Y0030083D01*
X0022003Y0030249D02*
X0022170D01*
X0022225Y0030305D01*
Y0030360D01*
X0022170Y0030416D01*
X0022003D01*
Y0030083D01*
X0028440Y0046071D02*
X0028485Y0046094D01*
Y0046227D01*
X0028440Y0046249D01*
X0028351D01*
X0028307Y0046205D01*
Y0046071D01*
X0028218D01*
Y0046249D01*
Y0045929D02*
X0028440D01*
X0028485Y0045907D01*
Y0045774D01*
X0028440Y0045751D01*
X0028218D01*
X0005284Y0031917D02*
X0005507D01*
X0005284Y0031695D01*
Y0031639D01*
X0005312Y0031584D01*
X0005479D01*
X0005507Y0031639D01*
X0005654Y0031917D02*
X0005877D01*
X0005654Y0031695D01*
Y0031639D01*
X0005682Y0031584D01*
X0005849D01*
X0005877Y0031639D01*
X0006108Y0031751D02*
X0006024Y0031917D01*
X0006247Y0031751D02*
X0006080D01*
X0006024Y0031695D01*
Y0031639D01*
X0006080Y0031584D01*
X0006247D01*
Y0031917D01*
X0012965Y0007583D02*
X0012743D01*
X0012965Y0007805D01*
Y0007860D01*
X0012938Y0007916D01*
X0012771D01*
X0012743Y0007860D01*
X0012568Y0007749D02*
X0012401D01*
X0012373Y0007805D01*
Y0007860D01*
X0012401Y0007916D01*
X0012568D01*
X0012595Y0007860D01*
Y0007805D01*
X0012484Y0007583D01*
X0012142Y0007749D02*
X0012225Y0007583D01*
X0012003Y0007749D02*
X0012170D01*
X0012225Y0007805D01*
Y0007860D01*
X0012170Y0007916D01*
X0012003D01*
Y0007583D01*
X0030917Y0024465D02*
Y0024243D01*
X0030695Y0024465D01*
X0030639D01*
X0030584Y0024438D01*
Y0024271D01*
X0030639Y0024243D01*
X0030917Y0024095D02*
Y0023873D01*
X0030695Y0024095D01*
X0030639D01*
X0030584Y0024068D01*
Y0023901D01*
X0030639Y0023873D01*
X0030862Y0023725D02*
X0030917Y0023698D01*
Y0023531D01*
X0030862Y0023503D01*
X0030639D01*
X0030584Y0023531D01*
Y0023698D01*
X0030639Y0023725D01*
X0015112Y0006365D02*
X0014945Y0006032D01*
X0015168D01*
X0015315Y0006254D02*
X0015538D01*
X0015427Y0006032D01*
X0015371D01*
Y0006365D01*
X0015685Y0006309D02*
X0015713Y0006365D01*
X0015880D01*
X0015908Y0006309D01*
Y0006087D01*
X0015880Y0006032D01*
X0015713D01*
X0015685Y0006087D01*
X0011923Y0033917D02*
X0011979Y0033862D01*
X0012007Y0033806D01*
Y0033695D01*
X0011979Y0033639D01*
X0011923Y0033584D01*
X0011868D01*
X0011812Y0033639D01*
X0011784Y0033695D01*
Y0033806D01*
X0011812Y0033862D01*
X0011868Y0033917D01*
X0011923D01*
X0012377Y0033862D02*
X0012321Y0033917D01*
X0012210D01*
X0012154Y0033862D01*
Y0033806D01*
X0012266Y0033695D01*
X0012154Y0033584D01*
X0012377D01*
X0012608Y0033751D02*
X0012524Y0033917D01*
X0012747Y0033751D02*
X0012580D01*
X0012524Y0033695D01*
Y0033639D01*
X0012580Y0033584D01*
X0012747D01*
Y0033917D01*
X0035590Y0021556D02*
X0035812D01*
X0035701Y0021334D01*
X0035646D01*
Y0021667D01*
X0035960D02*
X0036071D01*
X0036016D02*
Y0021334D01*
X0036071Y0021389D01*
X0036358Y0021501D02*
X0036274Y0021667D01*
X0036497Y0021501D02*
X0036330D01*
X0036274Y0021445D01*
Y0021389D01*
X0036330Y0021334D01*
X0036497D01*
Y0021667D01*
X0022743Y0036388D02*
X0022799Y0036333D01*
X0022910D01*
X0022965Y0036388D01*
Y0036444D01*
X0022854Y0036555D01*
X0022965Y0036666D01*
X0022743D01*
X0022373Y0036388D02*
X0022401Y0036333D01*
X0022568D01*
X0022595Y0036388D01*
Y0036499D01*
X0022540Y0036555D01*
X0022373D01*
Y0036666D01*
X0022595D01*
X0022142Y0036499D02*
X0022225Y0036333D01*
X0022003Y0036499D02*
X0022170D01*
X0022225Y0036555D01*
Y0036610D01*
X0022170Y0036666D01*
X0022003D01*
Y0036333D01*
X0021988Y0031549D02*
X0022015Y0031605D01*
Y0031660D01*
X0021988Y0031716D01*
X0021821D01*
X0021793Y0031660D01*
Y0031605D01*
X0021821Y0031549D01*
X0021988D01*
X0022015Y0031494D01*
Y0031438D01*
X0021988Y0031383D01*
X0021821D01*
X0021793Y0031438D01*
Y0031494D01*
X0021821Y0031549D01*
X0021645Y0031494D02*
X0021423D01*
X0021534Y0031716D01*
X0021590D01*
Y0031383D01*
X0021192Y0031549D02*
X0021275Y0031383D01*
X0021053Y0031549D02*
X0021220D01*
X0021275Y0031605D01*
Y0031660D01*
X0021220Y0031716D01*
X0021053D01*
Y0031383D01*
X0036099Y0023501D02*
X0035932D01*
X0035904Y0023556D01*
Y0023612D01*
X0035932Y0023667D01*
X0036099D01*
X0036127Y0023612D01*
Y0023556D01*
X0036016Y0023334D01*
X0036358Y0023501D02*
X0036274Y0023667D01*
X0036497Y0023501D02*
X0036330D01*
X0036274Y0023445D01*
Y0023389D01*
X0036330Y0023334D01*
X0036497D01*
Y0023667D01*
X0019801Y0051721D02*
Y0051888D01*
X0019856Y0051915D01*
X0019912D01*
X0019967Y0051888D01*
Y0051721D01*
X0019912Y0051693D01*
X0019856D01*
X0019634Y0051804D01*
X0019801Y0051518D02*
X0019745Y0051545D01*
X0019689D01*
X0019634Y0051518D01*
Y0051351D01*
X0019689Y0051323D01*
X0019745D01*
X0019801Y0051351D01*
Y0051518D01*
X0019856Y0051545D01*
X0019912D01*
X0019967Y0051518D01*
Y0051351D01*
X0019912Y0051323D01*
X0019856D01*
X0019801Y0051351D01*
Y0051092D02*
X0019967Y0051175D01*
X0019801Y0050953D02*
Y0051120D01*
X0019745Y0051175D01*
X0019689D01*
X0019634Y0051120D01*
Y0050953D01*
X0019967D01*
X0027459Y0019982D02*
X0027515Y0019954D01*
X0027570D01*
X0027626Y0019982D01*
Y0020149D01*
X0027570Y0020177D01*
X0027515D01*
X0027459Y0020149D01*
Y0019982D01*
X0027404Y0019954D01*
X0027348D01*
X0027293Y0019982D01*
Y0020149D01*
X0027348Y0020177D01*
X0027404D01*
X0027459Y0020149D01*
X0027293Y0020491D02*
X0027626Y0020324D01*
Y0020547D01*
X0027459Y0020778D02*
X0027293Y0020694D01*
X0027459Y0020917D02*
Y0020750D01*
X0027515Y0020694D01*
X0027570D01*
X0027626Y0020750D01*
Y0020917D01*
X0027293D01*
X0030885Y0021251D02*
Y0021473D01*
X0031107Y0021251D01*
X0031163D01*
X0031218Y0021279D01*
Y0021446D01*
X0031163Y0021473D01*
X0030885Y0021621D02*
Y0021732D01*
Y0021677D02*
X0031218D01*
X0031163Y0021732D01*
X0030940Y0021935D02*
X0030885Y0021963D01*
Y0022130D01*
X0030940Y0022158D01*
X0031163D01*
X0031218Y0022130D01*
Y0021963D01*
X0031163Y0021935D01*
X0011951Y0032417D02*
X0011784Y0032084D01*
X0012007D01*
X0012154Y0032417D02*
X0012377D01*
X0012154Y0032195D01*
Y0032139D01*
X0012182Y0032084D01*
X0012349D01*
X0012377Y0032139D01*
X0012608Y0032251D02*
X0012524Y0032417D01*
X0012747Y0032251D02*
X0012580D01*
X0012524Y0032195D01*
Y0032139D01*
X0012580Y0032084D01*
X0012747D01*
Y0032417D01*
X0005507Y0035862D02*
X0005451Y0035917D01*
X0005340D01*
X0005284Y0035862D01*
Y0035806D01*
X0005396Y0035695D01*
X0005284Y0035584D01*
X0005507D01*
X0005654Y0035917D02*
X0005877D01*
X0005654Y0035695D01*
Y0035639D01*
X0005682Y0035584D01*
X0005849D01*
X0005877Y0035639D01*
X0006108Y0035751D02*
X0006024Y0035917D01*
X0006247Y0035751D02*
X0006080D01*
X0006024Y0035695D01*
Y0035639D01*
X0006080Y0035584D01*
X0006247D01*
Y0035917D01*
X0033765Y0032883D02*
X0033543D01*
X0033765Y0033105D01*
Y0033160D01*
X0033738Y0033216D01*
X0033571D01*
X0033543Y0033160D01*
X0033173Y0032938D02*
X0033201Y0032883D01*
X0033368D01*
X0033395Y0032938D01*
Y0033049D01*
X0033340Y0033105D01*
X0033173D01*
Y0033216D01*
X0033395D01*
X0032942Y0033049D02*
X0033025Y0032883D01*
X0032803Y0033049D02*
X0032970D01*
X0033025Y0033105D01*
Y0033160D01*
X0032970Y0033216D01*
X0032803D01*
Y0032883D01*
X0024917Y0037326D02*
X0024862Y0037271D01*
X0024806Y0037243D01*
X0024695D01*
X0024639Y0037271D01*
X0024584Y0037326D01*
Y0037382D01*
X0024639Y0037438D01*
X0024695Y0037465D01*
X0024806D01*
X0024862Y0037438D01*
X0024917Y0037382D01*
Y0037326D01*
X0024751Y0036901D02*
Y0037068D01*
X0024806Y0037095D01*
X0024862D01*
X0024917Y0037068D01*
Y0036901D01*
X0024862Y0036873D01*
X0024806D01*
X0024584Y0036984D01*
X0024751Y0036642D02*
X0024917Y0036725D01*
X0024751Y0036503D02*
Y0036670D01*
X0024695Y0036725D01*
X0024639D01*
X0024584Y0036670D01*
Y0036503D01*
X0024917D01*
X0030385Y0024668D02*
X0030718Y0024501D01*
Y0024723D01*
X0030385Y0024871D02*
Y0024982D01*
Y0024927D02*
X0030718D01*
X0030663Y0024982D01*
X0030440Y0025185D02*
X0030385Y0025213D01*
Y0025380D01*
X0030440Y0025408D01*
X0030663D01*
X0030718Y0025380D01*
Y0025213D01*
X0030663Y0025185D01*
X0005479Y0033751D02*
X0005312D01*
X0005284Y0033806D01*
Y0033862D01*
X0005312Y0033917D01*
X0005479D01*
X0005507Y0033862D01*
Y0033806D01*
X0005396Y0033584D01*
X0005654Y0033917D02*
X0005877D01*
X0005654Y0033695D01*
Y0033639D01*
X0005682Y0033584D01*
X0005849D01*
X0005877Y0033639D01*
X0006108Y0033751D02*
X0006024Y0033917D01*
X0006247Y0033751D02*
X0006080D01*
X0006024Y0033695D01*
Y0033639D01*
X0006080Y0033584D01*
X0006247D01*
Y0033917D01*
X0034108Y0020274D02*
Y0020441D01*
X0034164Y0020469D01*
X0034219D01*
X0034275Y0020441D01*
Y0020274D01*
X0034219Y0020246D01*
X0034164D01*
X0033942Y0020358D01*
X0034275Y0020099D02*
Y0019988D01*
Y0020043D02*
X0033942D01*
X0033997Y0019988D01*
X0034219Y0019784D02*
X0034275Y0019757D01*
Y0019590D01*
X0034219Y0019562D01*
X0033997D01*
X0033942Y0019590D01*
Y0019757D01*
X0033997Y0019784D01*
X0020651Y0009476D02*
X0020595Y0009504D01*
X0020539D01*
X0020484Y0009476D01*
Y0009310D01*
X0020539Y0009282D01*
X0020595D01*
X0020651Y0009310D01*
Y0009476D01*
X0020706Y0009504D01*
X0020762D01*
X0020817Y0009476D01*
Y0009310D01*
X0020762Y0009282D01*
X0020706D01*
X0020651Y0009310D01*
X0020817Y0009134D02*
Y0009023D01*
Y0009079D02*
X0020484D01*
X0020539Y0009023D01*
X0020817Y0008820D02*
Y0008709D01*
Y0008764D02*
X0020484D01*
X0020539Y0008709D01*
X0020651Y0008422D02*
X0020817Y0008505D01*
X0020651Y0008283D02*
Y0008450D01*
X0020595Y0008505D01*
X0020539D01*
X0020484Y0008450D01*
Y0008283D01*
X0020817D01*
X0006698Y0046027D02*
X0006643Y0046054D01*
X0006587D01*
X0006532Y0046027D01*
Y0045860D01*
X0006587Y0045832D01*
X0006643D01*
X0006698Y0045860D01*
Y0046027D01*
X0006754Y0046054D01*
X0006809D01*
X0006865Y0046027D01*
Y0045860D01*
X0006809Y0045832D01*
X0006754D01*
X0006698Y0045860D01*
X0006754Y0045684D02*
Y0045462D01*
X0006532Y0045573D01*
Y0045629D01*
X0006865D01*
X0006809Y0045314D02*
X0006865Y0045287D01*
Y0045120D01*
X0006809Y0045092D01*
X0006587D01*
X0006532Y0045120D01*
Y0045287D01*
X0006587Y0045314D01*
X0014818Y0019499D02*
X0014651D01*
X0014623Y0019555D01*
Y0019610D01*
X0014651Y0019666D01*
X0014818D01*
X0014845Y0019610D01*
Y0019555D01*
X0014734Y0019333D01*
X0014392Y0019499D02*
X0014475Y0019333D01*
X0014253Y0019499D02*
X0014420D01*
X0014475Y0019555D01*
Y0019610D01*
X0014420Y0019666D01*
X0014253D01*
Y0019333D01*
X0033626Y0032133D02*
X0033571Y0032188D01*
X0033543Y0032244D01*
Y0032355D01*
X0033571Y0032410D01*
X0033626Y0032466D01*
X0033682D01*
X0033738Y0032410D01*
X0033765Y0032355D01*
Y0032244D01*
X0033738Y0032188D01*
X0033682Y0032133D01*
X0033626D01*
X0033173Y0032188D02*
X0033201Y0032133D01*
X0033368D01*
X0033395Y0032188D01*
Y0032299D01*
X0033340Y0032355D01*
X0033173D01*
Y0032466D01*
X0033395D01*
X0032942Y0032299D02*
X0033025Y0032133D01*
X0032803Y0032299D02*
X0032970D01*
X0033025Y0032355D01*
Y0032410D01*
X0032970Y0032466D01*
X0032803D01*
Y0032133D01*
X0007530Y0013083D02*
X0007307D01*
X0007530Y0013305D01*
Y0013360D01*
X0007502Y0013416D01*
X0007335D01*
X0007307Y0013360D01*
X0007021Y0013083D02*
X0006965Y0013138D01*
X0006937Y0013194D01*
Y0013305D01*
X0006965Y0013360D01*
X0007021Y0013416D01*
X0007076D01*
X0007132Y0013360D01*
X0007160Y0013305D01*
Y0013194D01*
X0007132Y0013138D01*
X0007076Y0013083D01*
X0007021D01*
X0006790D02*
X0006679D01*
X0006734D02*
Y0013416D01*
X0006679Y0013360D01*
X0006392Y0013249D02*
X0006475Y0013083D01*
X0006253Y0013249D02*
X0006420D01*
X0006475Y0013305D01*
Y0013360D01*
X0006420Y0013416D01*
X0006253D01*
Y0013083D01*
X0023756Y0025330D02*
Y0025107D01*
X0023534Y0025219D01*
Y0025274D01*
X0023867D01*
Y0024960D02*
Y0024737D01*
X0023645Y0024960D01*
X0023589D01*
X0023534Y0024932D01*
Y0024765D01*
X0023589Y0024737D01*
X0023867Y0024590D02*
Y0024479D01*
Y0024534D02*
X0023534D01*
X0023589Y0024479D01*
X0023701Y0024192D02*
X0023867Y0024275D01*
X0023701Y0024053D02*
Y0024220D01*
X0023645Y0024275D01*
X0023589D01*
X0023534Y0024220D01*
Y0024053D01*
X0023867D01*
X0009552Y0004890D02*
Y0004723D01*
X0009496Y0004695D01*
X0009440D01*
X0009385Y0004723D01*
Y0004890D01*
X0009440Y0004918D01*
X0009496D01*
X0009718Y0004807D01*
X0009440Y0005288D02*
X0009385Y0005260D01*
Y0005093D01*
X0009440Y0005065D01*
X0009552D01*
X0009607Y0005121D01*
Y0005288D01*
X0009718D01*
Y0005065D01*
X0009440Y0005435D02*
X0009385Y0005463D01*
Y0005630D01*
X0009440Y0005658D01*
X0009663D01*
X0009718Y0005630D01*
Y0005463D01*
X0009663Y0005435D01*
X0011812Y0031501D02*
X0011784Y0031445D01*
Y0031389D01*
X0011812Y0031334D01*
X0011979D01*
X0012007Y0031389D01*
Y0031445D01*
X0011979Y0031501D01*
X0011812D01*
X0011784Y0031556D01*
Y0031612D01*
X0011812Y0031667D01*
X0011979D01*
X0012007Y0031612D01*
Y0031556D01*
X0011979Y0031501D01*
X0012154Y0031667D02*
X0012377D01*
X0012154Y0031445D01*
Y0031389D01*
X0012182Y0031334D01*
X0012349D01*
X0012377Y0031389D01*
X0012608Y0031501D02*
X0012524Y0031667D01*
X0012747Y0031501D02*
X0012580D01*
X0012524Y0031445D01*
Y0031389D01*
X0012580Y0031334D01*
X0012747D01*
Y0031667D01*
X0031940Y0035668D02*
X0031885Y0035612D01*
Y0035501D01*
X0031940Y0035445D01*
X0031996D01*
X0032107Y0035557D01*
X0032218Y0035445D01*
Y0035668D01*
X0031885Y0035815D02*
Y0036038D01*
X0032107Y0035815D01*
X0032163D01*
X0032218Y0035843D01*
Y0036010D01*
X0032163Y0036038D01*
X0031940Y0036185D02*
X0031885Y0036213D01*
Y0036380D01*
X0031940Y0036408D01*
X0032163D01*
X0032218Y0036380D01*
Y0036213D01*
X0032163Y0036185D01*
X0031293Y0020121D02*
X0031626Y0019954D01*
Y0020177D01*
X0031293Y0020491D02*
X0031626Y0020324D01*
Y0020547D01*
X0031459Y0020778D02*
X0031293Y0020694D01*
X0031459Y0020917D02*
Y0020750D01*
X0031515Y0020694D01*
X0031570D01*
X0031626Y0020750D01*
Y0020917D01*
X0031293D01*
X0032493Y0029638D02*
X0032521Y0029583D01*
X0032688D01*
X0032715Y0029638D01*
Y0029749D01*
X0032660Y0029805D01*
X0032493D01*
Y0029916D01*
X0032715D01*
X0032151Y0029749D02*
X0032318D01*
X0032345Y0029694D01*
Y0029638D01*
X0032318Y0029583D01*
X0032151D01*
X0032123Y0029638D01*
Y0029694D01*
X0032234Y0029916D01*
X0031892Y0029749D02*
X0031975Y0029583D01*
X0031753Y0029749D02*
X0031920D01*
X0031975Y0029805D01*
Y0029860D01*
X0031920Y0029916D01*
X0031753D01*
Y0029583D01*
X0011352Y0048673D02*
X0011407Y0048645D01*
X0011463D01*
X0011518Y0048673D01*
Y0048840D01*
X0011463Y0048868D01*
X0011407D01*
X0011352Y0048840D01*
Y0048673D01*
X0011296Y0048645D01*
X0011240D01*
X0011185Y0048673D01*
Y0048840D01*
X0011240Y0048868D01*
X0011296D01*
X0011352Y0048840D01*
X0011240Y0049238D02*
X0011185Y0049182D01*
Y0049071D01*
X0011240Y0049015D01*
X0011296D01*
X0011407Y0049127D01*
X0011518Y0049015D01*
Y0049238D01*
X0011240Y0049385D02*
X0011185Y0049413D01*
Y0049580D01*
X0011240Y0049608D01*
X0011463D01*
X0011518Y0049580D01*
Y0049413D01*
X0011463Y0049385D01*
X0027617Y0025330D02*
Y0025107D01*
X0027395Y0025330D01*
X0027339D01*
X0027284Y0025302D01*
Y0025135D01*
X0027339Y0025107D01*
X0027617Y0024960D02*
Y0024737D01*
X0027395Y0024960D01*
X0027339D01*
X0027284Y0024932D01*
Y0024765D01*
X0027339Y0024737D01*
X0027617Y0024590D02*
Y0024479D01*
Y0024534D02*
X0027284D01*
X0027339Y0024479D01*
X0027451Y0024192D02*
X0027617Y0024275D01*
X0027451Y0024053D02*
Y0024220D01*
X0027395Y0024275D01*
X0027339D01*
X0027284Y0024220D01*
Y0024053D01*
X0027617D01*
X0016438Y0007749D02*
X0016465Y0007805D01*
Y0007860D01*
X0016438Y0007916D01*
X0016271D01*
X0016243Y0007860D01*
Y0007805D01*
X0016271Y0007749D01*
X0016438D01*
X0016465Y0007694D01*
Y0007638D01*
X0016438Y0007583D01*
X0016271D01*
X0016243Y0007638D01*
Y0007694D01*
X0016271Y0007749D01*
X0016068D02*
X0015901D01*
X0015873Y0007805D01*
Y0007860D01*
X0015901Y0007916D01*
X0016068D01*
X0016095Y0007860D01*
Y0007805D01*
X0015984Y0007583D01*
X0015642Y0007749D02*
X0015725Y0007583D01*
X0015503Y0007749D02*
X0015670D01*
X0015725Y0007805D01*
Y0007860D01*
X0015670Y0007916D01*
X0015503D01*
Y0007583D01*
X0030348Y0020177D02*
X0030293Y0020149D01*
Y0019982D01*
X0030348Y0019954D01*
X0030459D01*
X0030515Y0020010D01*
Y0020177D01*
X0030626D01*
Y0019954D01*
X0030293Y0020491D02*
X0030626Y0020324D01*
Y0020547D01*
X0030459Y0020778D02*
X0030293Y0020694D01*
X0030459Y0020917D02*
Y0020750D01*
X0030515Y0020694D01*
X0030570D01*
X0030626Y0020750D01*
Y0020917D01*
X0030293D01*
X0017600Y0028663D02*
X0017489D01*
X0017544D02*
Y0028996D01*
X0017489Y0028940D01*
X0017258Y0028829D02*
X0017285Y0028885D01*
Y0028940D01*
X0017258Y0028996D01*
X0017091D01*
X0017063Y0028940D01*
Y0028885D01*
X0017091Y0028829D01*
X0017258D01*
X0017285Y0028774D01*
Y0028718D01*
X0017258Y0028663D01*
X0017091D01*
X0017063Y0028718D01*
Y0028774D01*
X0017091Y0028829D01*
X0016832D02*
X0016915Y0028663D01*
X0016693Y0028829D02*
X0016860D01*
X0016915Y0028885D01*
Y0028940D01*
X0016860Y0028996D01*
X0016693D01*
Y0028663D01*
X0030890Y0030698D02*
X0030723D01*
X0030695Y0030754D01*
Y0030809D01*
X0030723Y0030865D01*
X0030890D01*
X0030918Y0030809D01*
Y0030754D01*
X0030807Y0030532D01*
X0031065Y0030865D02*
X0031288D01*
X0031065Y0030643D01*
Y0030587D01*
X0031093Y0030532D01*
X0031260D01*
X0031288Y0030587D01*
X0031435Y0030809D02*
X0031463Y0030865D01*
X0031630D01*
X0031658Y0030809D01*
Y0030587D01*
X0031630Y0030532D01*
X0031463D01*
X0031435Y0030587D01*
X0026167Y0025826D02*
X0026112Y0025771D01*
X0026056Y0025743D01*
X0025945D01*
X0025889Y0025771D01*
X0025834Y0025826D01*
Y0025882D01*
X0025889Y0025938D01*
X0025945Y0025965D01*
X0026056D01*
X0026112Y0025938D01*
X0026167Y0025882D01*
Y0025826D01*
Y0025429D02*
X0025834Y0025595D01*
Y0025373D01*
X0026001Y0025142D02*
X0026167Y0025225D01*
X0026001Y0025003D02*
Y0025170D01*
X0025945Y0025225D01*
X0025889D01*
X0025834Y0025170D01*
Y0025003D01*
X0026167D01*
X0019051Y0050138D02*
Y0049971D01*
X0018995Y0049943D01*
X0018939D01*
X0018884Y0049971D01*
Y0050138D01*
X0018939Y0050165D01*
X0018995D01*
X0019217Y0050054D01*
X0019051Y0049768D02*
X0018995Y0049795D01*
X0018939D01*
X0018884Y0049768D01*
Y0049601D01*
X0018939Y0049573D01*
X0018995D01*
X0019051Y0049601D01*
Y0049768D01*
X0019106Y0049795D01*
X0019162D01*
X0019217Y0049768D01*
Y0049601D01*
X0019162Y0049573D01*
X0019106D01*
X0019051Y0049601D01*
Y0049342D02*
X0019217Y0049425D01*
X0019051Y0049203D02*
Y0049370D01*
X0018995Y0049425D01*
X0018939D01*
X0018884Y0049370D01*
Y0049203D01*
X0019217D01*
X0034715Y0032194D02*
X0034493D01*
X0034604Y0032416D01*
X0034660D01*
Y0032083D01*
X0034345Y0032194D02*
X0034123D01*
X0034234Y0032416D01*
X0034290D01*
Y0032083D01*
X0033892Y0032249D02*
X0033975Y0032083D01*
X0033753Y0032249D02*
X0033920D01*
X0033975Y0032305D01*
Y0032360D01*
X0033920Y0032416D01*
X0033753D01*
Y0032083D01*
X0005662Y0013138D02*
X0005717Y0013083D01*
X0005828D01*
X0005884Y0013138D01*
Y0013194D01*
X0005773Y0013305D01*
X0005884Y0013416D01*
X0005662D01*
X0005514Y0013083D02*
X0005403D01*
X0005459D02*
Y0013416D01*
X0005403Y0013360D01*
X0005200Y0013083D02*
X0005089D01*
X0005144D02*
Y0013416D01*
X0005089Y0013360D01*
X0004802Y0013249D02*
X0004885Y0013083D01*
X0004663Y0013249D02*
X0004830D01*
X0004885Y0013305D01*
Y0013360D01*
X0004830Y0013416D01*
X0004663D01*
Y0013083D01*
X0011784Y0036056D02*
X0012007D01*
X0011896Y0035834D01*
X0011840D01*
Y0036167D01*
X0012154D02*
X0012377D01*
X0012154Y0035945D01*
Y0035889D01*
X0012182Y0035834D01*
X0012349D01*
X0012377Y0035889D01*
X0012608Y0036001D02*
X0012524Y0036167D01*
X0012747Y0036001D02*
X0012580D01*
X0012524Y0035945D01*
Y0035889D01*
X0012580Y0035834D01*
X0012747D01*
Y0036167D01*
X0028996Y0024501D02*
Y0024723D01*
X0029218Y0024612D01*
Y0024557D01*
X0028885D01*
Y0024871D02*
Y0024982D01*
Y0024927D02*
X0029218D01*
X0029163Y0024982D01*
X0028940Y0025185D02*
X0028885Y0025213D01*
Y0025380D01*
X0028940Y0025408D01*
X0029163D01*
X0029218Y0025380D01*
Y0025213D01*
X0029163Y0025185D01*
X0020515Y0007918D02*
X0020182Y0008084D01*
Y0007862D01*
X0020459Y0007492D02*
X0020515Y0007520D01*
Y0007687D01*
X0020459Y0007714D01*
X0020348D01*
X0020293Y0007659D01*
Y0007492D01*
X0020182D01*
Y0007714D01*
X0020459Y0007344D02*
X0020515Y0007317D01*
Y0007150D01*
X0020459Y0007122D01*
X0020237D01*
X0020182Y0007150D01*
Y0007317D01*
X0020237Y0007344D01*
X0031599Y0034883D02*
X0031765Y0035216D01*
X0031543D01*
X0031395Y0034994D02*
X0031173D01*
X0031284Y0035216D01*
X0031340D01*
Y0034883D01*
X0030942Y0035049D02*
X0031025Y0034883D01*
X0030803Y0035049D02*
X0030970D01*
X0031025Y0035105D01*
Y0035160D01*
X0030970Y0035216D01*
X0030803D01*
Y0034883D01*
X0036167Y0014660D02*
Y0014549D01*
Y0014604D02*
X0035834D01*
X0035889Y0014549D01*
X0036001Y0014318D02*
Y0014151D01*
X0035945Y0014123D01*
X0035889D01*
X0035834Y0014151D01*
Y0014318D01*
X0035889Y0014345D01*
X0035945D01*
X0036167Y0014234D01*
X0036001Y0013892D02*
X0036167Y0013975D01*
X0036001Y0013753D02*
Y0013920D01*
X0035945Y0013975D01*
X0035889D01*
X0035834Y0013920D01*
Y0013753D01*
X0036167D01*
X0014493Y0006888D02*
X0014521Y0006833D01*
X0014688D01*
X0014715Y0006888D01*
Y0006999D01*
X0014660Y0007055D01*
X0014493D01*
Y0007166D01*
X0014715D01*
X0014318Y0006999D02*
X0014151D01*
X0014123Y0007055D01*
Y0007110D01*
X0014151Y0007166D01*
X0014318D01*
X0014345Y0007110D01*
Y0007055D01*
X0014234Y0006833D01*
X0013892Y0006999D02*
X0013975Y0006833D01*
X0013753Y0006999D02*
X0013920D01*
X0013975Y0007055D01*
Y0007110D01*
X0013920Y0007166D01*
X0013753D01*
Y0006833D01*
X0003747Y0016295D02*
Y0016073D01*
X0003525Y0016295D01*
X0003469D01*
X0003414Y0016268D01*
Y0016101D01*
X0003469Y0016073D01*
X0003636Y0015814D02*
X0003747Y0015925D01*
X0003692Y0015703D02*
X0003747Y0015731D01*
Y0015842D01*
X0003692Y0015870D01*
X0003636Y0015925D01*
X0003469D01*
X0003414Y0015898D01*
Y0015731D01*
X0003469Y0015703D01*
X0003692D01*
X0036167Y0012076D02*
X0036112Y0012021D01*
X0036056Y0011993D01*
X0035945D01*
X0035889Y0012021D01*
X0035834Y0012076D01*
Y0012132D01*
X0035889Y0012188D01*
X0035945Y0012215D01*
X0036056D01*
X0036112Y0012188D01*
X0036167Y0012132D01*
Y0012076D01*
X0036001Y0011818D02*
Y0011651D01*
X0035945Y0011623D01*
X0035889D01*
X0035834Y0011651D01*
Y0011818D01*
X0035889Y0011845D01*
X0035945D01*
X0036167Y0011734D01*
X0036001Y0011392D02*
X0036167Y0011475D01*
X0036001Y0011253D02*
Y0011420D01*
X0035945Y0011475D01*
X0035889D01*
X0035834Y0011420D01*
Y0011253D01*
X0036167D01*
X0012743Y0006888D02*
X0012799Y0006833D01*
X0012910D01*
X0012965Y0006888D01*
Y0006944D01*
X0012854Y0007055D01*
X0012965Y0007166D01*
X0012743D01*
X0012568Y0006999D02*
X0012401D01*
X0012373Y0007055D01*
Y0007110D01*
X0012401Y0007166D01*
X0012568D01*
X0012595Y0007110D01*
Y0007055D01*
X0012484Y0006833D01*
X0012142Y0006999D02*
X0012225Y0006833D01*
X0012003Y0006999D02*
X0012170D01*
X0012225Y0007055D01*
Y0007110D01*
X0012170Y0007166D01*
X0012003D01*
Y0006833D01*
X0003251Y0047252D02*
X0003195Y0047280D01*
X0003139D01*
X0003084Y0047252D01*
Y0047085D01*
X0003139Y0047057D01*
X0003195D01*
X0003251Y0047085D01*
Y0047252D01*
X0003306Y0047280D01*
X0003362D01*
X0003417Y0047252D01*
Y0047085D01*
X0003362Y0047057D01*
X0003306D01*
X0003251Y0047085D01*
X0003417Y0046771D02*
X0003362Y0046715D01*
X0003306Y0046687D01*
X0003195D01*
X0003139Y0046715D01*
X0003084Y0046771D01*
Y0046826D01*
X0003139Y0046882D01*
X0003195Y0046910D01*
X0003306D01*
X0003362Y0046882D01*
X0003417Y0046826D01*
Y0046771D01*
Y0046540D02*
Y0046429D01*
Y0046484D02*
X0003084D01*
X0003139Y0046429D01*
X0003251Y0046142D02*
X0003417Y0046225D01*
X0003251Y0046003D02*
Y0046170D01*
X0003195Y0046225D01*
X0003139D01*
X0003084Y0046170D01*
Y0046003D01*
X0003417D01*
X0011125Y0042165D02*
X0011348D01*
X0011125Y0041943D01*
Y0041887D01*
X0011153Y0041832D01*
X0011320D01*
X0011348Y0041887D01*
X0011718Y0042109D02*
X0011662Y0042165D01*
X0011551D01*
X0011495Y0042109D01*
Y0042054D01*
X0011607Y0041943D01*
X0011495Y0041832D01*
X0011718D01*
X0011865Y0042109D02*
X0011893Y0042165D01*
X0012060D01*
X0012088Y0042109D01*
Y0041887D01*
X0012060Y0041832D01*
X0011893D01*
X0011865Y0041887D01*
X0029459Y0020149D02*
Y0019982D01*
X0029404Y0019954D01*
X0029348D01*
X0029293Y0019982D01*
Y0020149D01*
X0029348Y0020177D01*
X0029404D01*
X0029626Y0020066D01*
X0029293Y0020491D02*
X0029626Y0020324D01*
Y0020547D01*
X0029459Y0020778D02*
X0029293Y0020694D01*
X0029459Y0020917D02*
Y0020750D01*
X0029515Y0020694D01*
X0029570D01*
X0029626Y0020750D01*
Y0020917D01*
X0029293D01*
X0031334Y0032115D02*
X0031390Y0032059D01*
X0031418Y0032004D01*
Y0031893D01*
X0031390Y0031837D01*
X0031334Y0031782D01*
X0031279D01*
X0031223Y0031837D01*
X0031195Y0031893D01*
Y0032004D01*
X0031223Y0032059D01*
X0031279Y0032115D01*
X0031334D01*
X0031565D02*
X0031788D01*
X0031565Y0031893D01*
Y0031837D01*
X0031593Y0031782D01*
X0031760D01*
X0031788Y0031837D01*
X0031935Y0032059D02*
X0031963Y0032115D01*
X0032130D01*
X0032158Y0032059D01*
Y0031837D01*
X0032130Y0031782D01*
X0031963D01*
X0031935Y0031837D01*
X0004932Y0025501D02*
X0004904Y0025445D01*
Y0025389D01*
X0004932Y0025334D01*
X0005099D01*
X0005127Y0025389D01*
Y0025445D01*
X0005099Y0025501D01*
X0004932D01*
X0004904Y0025556D01*
Y0025612D01*
X0004932Y0025667D01*
X0005099D01*
X0005127Y0025612D01*
Y0025556D01*
X0005099Y0025501D01*
X0005358D02*
X0005274Y0025667D01*
X0005497Y0025501D02*
X0005330D01*
X0005274Y0025445D01*
Y0025389D01*
X0005330Y0025334D01*
X0005497D01*
Y0025667D01*
X0019638Y0013775D02*
X0019582Y0013719D01*
Y0013608D01*
X0019638Y0013552D01*
X0019694D01*
X0019805Y0013663D01*
X0019916Y0013552D01*
Y0013775D01*
X0019582Y0013922D02*
Y0014117D01*
X0019916D01*
X0015975Y0024615D02*
X0016198D01*
X0015975Y0024393D01*
Y0024337D01*
X0016003Y0024282D01*
X0016170D01*
X0016198Y0024337D01*
X0016540Y0024448D02*
X0016373D01*
X0016345Y0024504D01*
Y0024559D01*
X0016373Y0024615D01*
X0016540D01*
X0016568Y0024559D01*
Y0024504D01*
X0016457Y0024282D01*
X0016715Y0024559D02*
X0016743Y0024615D01*
X0016910D01*
X0016938Y0024559D01*
Y0024337D01*
X0016910Y0024282D01*
X0016743D01*
X0016715Y0024337D01*
X0030917Y0037326D02*
X0030862Y0037271D01*
X0030806Y0037243D01*
X0030695D01*
X0030639Y0037271D01*
X0030584Y0037326D01*
Y0037382D01*
X0030639Y0037438D01*
X0030695Y0037465D01*
X0030806D01*
X0030862Y0037438D01*
X0030917Y0037382D01*
Y0037326D01*
X0030806Y0037095D02*
Y0036873D01*
X0030584Y0036984D01*
Y0037040D01*
X0030917D01*
X0030751Y0036642D02*
X0030917Y0036725D01*
X0030751Y0036503D02*
Y0036670D01*
X0030695Y0036725D01*
X0030639D01*
X0030584Y0036670D01*
Y0036503D01*
X0030917D01*
X0007917Y0011335D02*
X0007862Y0011280D01*
X0007806Y0011252D01*
X0007695D01*
X0007639Y0011280D01*
X0007584Y0011335D01*
Y0011391D01*
X0007639Y0011446D01*
X0007695Y0011474D01*
X0007806D01*
X0007862Y0011446D01*
X0007917Y0011391D01*
Y0011335D01*
Y0011104D02*
Y0010993D01*
Y0011049D02*
X0007584D01*
X0007639Y0010993D01*
X0007917Y0010790D02*
Y0010679D01*
Y0010734D02*
X0007584D01*
X0007639Y0010679D01*
X0007751Y0010392D02*
X0007917Y0010475D01*
X0007751Y0010253D02*
Y0010420D01*
X0007695Y0010475D01*
X0007639D01*
X0007584Y0010420D01*
Y0010253D01*
X0007917D01*
X0019195Y0014504D02*
X0019418D01*
X0019307Y0014282D01*
X0019251D01*
Y0014615D01*
X0019565Y0014504D02*
X0019788D01*
X0019677Y0014282D01*
X0019621D01*
Y0014615D01*
X0019935Y0014559D02*
X0019963Y0014615D01*
X0020130D01*
X0020158Y0014559D01*
Y0014337D01*
X0020130Y0014282D01*
X0019963D01*
X0019935Y0014337D01*
X0011812Y0034501D02*
X0011979D01*
X0012007Y0034445D01*
Y0034389D01*
X0011979Y0034334D01*
X0011812D01*
X0011784Y0034389D01*
Y0034445D01*
X0011896Y0034667D01*
X0012154D02*
X0012377D01*
X0012154Y0034445D01*
Y0034389D01*
X0012182Y0034334D01*
X0012349D01*
X0012377Y0034389D01*
X0012608Y0034501D02*
X0012524Y0034667D01*
X0012747Y0034501D02*
X0012580D01*
X0012524Y0034445D01*
Y0034389D01*
X0012580Y0034334D01*
X0012747D01*
Y0034667D01*
X0004812Y0021112D02*
X0004757Y0021167D01*
X0004646D01*
X0004590Y0021112D01*
Y0021056D01*
X0004701Y0020945D01*
X0004590Y0020834D01*
X0004812D01*
X0004960Y0021167D02*
X0005071D01*
X0005016D02*
Y0020834D01*
X0005071Y0020889D01*
X0005358Y0021001D02*
X0005274Y0021167D01*
X0005497Y0021001D02*
X0005330D01*
X0005274Y0020945D01*
Y0020889D01*
X0005330Y0020834D01*
X0005497D01*
Y0021167D01*
X0011840Y0033167D02*
X0011951D01*
X0011896D02*
Y0032834D01*
X0011951Y0032889D01*
X0012377Y0033112D02*
X0012321Y0033167D01*
X0012210D01*
X0012154Y0033112D01*
Y0033056D01*
X0012266Y0032945D01*
X0012154Y0032834D01*
X0012377D01*
X0012608Y0033001D02*
X0012524Y0033167D01*
X0012747Y0033001D02*
X0012580D01*
X0012524Y0032945D01*
Y0032889D01*
X0012580Y0032834D01*
X0012747D01*
Y0033167D01*
X0031473Y0029059D02*
X0031418Y0029115D01*
X0031307D01*
X0031251Y0029059D01*
Y0029004D01*
X0031362Y0028893D01*
X0031251Y0028782D01*
X0031473D01*
X0031621Y0029115D02*
X0031732D01*
X0031677D02*
Y0028782D01*
X0031732Y0028837D01*
X0031935Y0029059D02*
X0031963Y0029115D01*
X0032130D01*
X0032158Y0029059D01*
Y0028837D01*
X0032130Y0028782D01*
X0031963D01*
X0031935Y0028837D01*
X0007363Y0012333D02*
X0007530Y0012666D01*
X0007307D01*
X0007021Y0012333D02*
X0006965Y0012388D01*
X0006937Y0012444D01*
Y0012555D01*
X0006965Y0012610D01*
X0007021Y0012666D01*
X0007076D01*
X0007132Y0012610D01*
X0007160Y0012555D01*
Y0012444D01*
X0007132Y0012388D01*
X0007076Y0012333D01*
X0007021D01*
X0006790D02*
X0006679D01*
X0006734D02*
Y0012666D01*
X0006679Y0012610D01*
X0006392Y0012499D02*
X0006475Y0012333D01*
X0006253Y0012499D02*
X0006420D01*
X0006475Y0012555D01*
Y0012610D01*
X0006420Y0012666D01*
X0006253D01*
Y0012333D01*
X0027867Y0036349D02*
X0027534Y0036515D01*
Y0036293D01*
X0027812Y0035923D02*
X0027867Y0035951D01*
Y0036118D01*
X0027812Y0036145D01*
X0027701D01*
X0027645Y0036090D01*
Y0035923D01*
X0027534D01*
Y0036145D01*
X0027701Y0035692D02*
X0027867Y0035775D01*
X0027701Y0035553D02*
Y0035720D01*
X0027645Y0035775D01*
X0027589D01*
X0027534Y0035720D01*
Y0035553D01*
X0027867D01*
X0026251Y0037438D02*
Y0037271D01*
X0026195Y0037243D01*
X0026139D01*
X0026084Y0037271D01*
Y0037438D01*
X0026139Y0037465D01*
X0026195D01*
X0026417Y0037354D01*
X0026362Y0036873D02*
X0026417Y0036901D01*
Y0037068D01*
X0026362Y0037095D01*
X0026251D01*
X0026195Y0037040D01*
Y0036873D01*
X0026084D01*
Y0037095D01*
X0026251Y0036642D02*
X0026417Y0036725D01*
X0026251Y0036503D02*
Y0036670D01*
X0026195Y0036725D01*
X0026139D01*
X0026084Y0036670D01*
Y0036503D01*
X0026417D01*
X0009415Y0009751D02*
X0009248D01*
X0009220Y0009806D01*
Y0009862D01*
X0009248Y0009917D01*
X0009415D01*
X0009442Y0009862D01*
Y0009806D01*
X0009331Y0009584D01*
X0009729Y0009917D02*
X0009785Y0009862D01*
X0009812Y0009806D01*
Y0009695D01*
X0009785Y0009639D01*
X0009729Y0009584D01*
X0009673D01*
X0009618Y0009639D01*
X0009590Y0009695D01*
Y0009806D01*
X0009618Y0009862D01*
X0009673Y0009917D01*
X0009729D01*
X0009960D02*
X0010071D01*
X0010016D02*
Y0009584D01*
X0010071Y0009639D01*
X0010358Y0009751D02*
X0010274Y0009917D01*
X0010497Y0009751D02*
X0010330D01*
X0010274Y0009695D01*
Y0009639D01*
X0010330Y0009584D01*
X0010497D01*
Y0009917D01*
X0033571Y0029299D02*
X0033738D01*
X0033765Y0029244D01*
Y0029188D01*
X0033738Y0029133D01*
X0033571D01*
X0033543Y0029188D01*
Y0029244D01*
X0033654Y0029466D01*
X0033201Y0029299D02*
X0033368D01*
X0033395Y0029244D01*
Y0029188D01*
X0033368Y0029133D01*
X0033201D01*
X0033173Y0029188D01*
Y0029244D01*
X0033284Y0029466D01*
X0032942Y0029299D02*
X0033025Y0029133D01*
X0032803Y0029299D02*
X0032970D01*
X0033025Y0029355D01*
Y0029410D01*
X0032970Y0029466D01*
X0032803D01*
Y0029133D01*
X0004694Y0044220D02*
Y0044442D01*
X0004916Y0044331D01*
Y0044276D01*
X0004583D01*
Y0044729D02*
X0004638Y0044785D01*
X0004694Y0044812D01*
X0004805D01*
X0004860Y0044785D01*
X0004916Y0044729D01*
Y0044673D01*
X0004860Y0044618D01*
X0004805Y0044590D01*
X0004694D01*
X0004638Y0044618D01*
X0004583Y0044673D01*
Y0044729D01*
Y0044960D02*
Y0045071D01*
Y0045016D02*
X0004916D01*
X0004860Y0045071D01*
X0004749Y0045358D02*
X0004583Y0045274D01*
X0004749Y0045497D02*
Y0045330D01*
X0004805Y0045274D01*
X0004860D01*
X0004916Y0045330D01*
Y0045497D01*
X0004583D01*
X0023635Y0021307D02*
Y0021418D01*
Y0021362D02*
X0023968D01*
X0023913Y0021418D01*
X0023635Y0021621D02*
Y0021732D01*
Y0021677D02*
X0023968D01*
X0023913Y0021732D01*
X0023690Y0021935D02*
X0023635Y0021963D01*
Y0022130D01*
X0023690Y0022158D01*
X0023913D01*
X0023968Y0022130D01*
Y0021963D01*
X0023913Y0021935D01*
X0033543Y0033688D02*
X0033571Y0033633D01*
X0033738D01*
X0033765Y0033688D01*
Y0033799D01*
X0033710Y0033855D01*
X0033543D01*
Y0033966D01*
X0033765D01*
X0033173Y0033688D02*
X0033201Y0033633D01*
X0033368D01*
X0033395Y0033688D01*
Y0033799D01*
X0033340Y0033855D01*
X0033173D01*
Y0033966D01*
X0033395D01*
X0032942Y0033799D02*
X0033025Y0033633D01*
X0032803Y0033799D02*
X0032970D01*
X0033025Y0033855D01*
Y0033910D01*
X0032970Y0033966D01*
X0032803D01*
Y0033633D01*
X0005654Y0032806D02*
X0005877D01*
X0005766Y0032584D01*
X0005710D01*
Y0032917D01*
X0006024Y0032862D02*
X0006052Y0032917D01*
X0006219D01*
X0006247Y0032862D01*
Y0032639D01*
X0006219Y0032584D01*
X0006052D01*
X0006024Y0032639D01*
X0022910Y0035583D02*
X0022799D01*
X0022854D02*
Y0035916D01*
X0022799Y0035860D01*
X0022373Y0035638D02*
X0022401Y0035583D01*
X0022568D01*
X0022595Y0035638D01*
Y0035749D01*
X0022540Y0035805D01*
X0022373D01*
Y0035916D01*
X0022595D01*
X0022142Y0035749D02*
X0022225Y0035583D01*
X0022003Y0035749D02*
X0022170D01*
X0022225Y0035805D01*
Y0035860D01*
X0022170Y0035916D01*
X0022003D01*
Y0035583D01*
X0014862Y0051493D02*
X0014917Y0051521D01*
Y0051688D01*
X0014862Y0051715D01*
X0014751D01*
X0014695Y0051660D01*
Y0051493D01*
X0014584D01*
Y0051715D01*
X0014751Y0051318D02*
X0014695Y0051345D01*
X0014639D01*
X0014584Y0051318D01*
Y0051151D01*
X0014639Y0051123D01*
X0014695D01*
X0014751Y0051151D01*
Y0051318D01*
X0014806Y0051345D01*
X0014862D01*
X0014917Y0051318D01*
Y0051151D01*
X0014862Y0051123D01*
X0014806D01*
X0014751Y0051151D01*
Y0050892D02*
X0014917Y0050975D01*
X0014751Y0050753D02*
Y0050920D01*
X0014695Y0050975D01*
X0014639D01*
X0014584Y0050920D01*
Y0050753D01*
X0014917D01*
X0021135Y0051390D02*
X0021190Y0051446D01*
X0021246Y0051473D01*
X0021357D01*
X0021413Y0051446D01*
X0021468Y0051390D01*
Y0051334D01*
X0021413Y0051279D01*
X0021357Y0051251D01*
X0021246D01*
X0021190Y0051279D01*
X0021135Y0051334D01*
Y0051390D01*
Y0051621D02*
Y0051732D01*
Y0051677D02*
X0021468D01*
X0021413Y0051732D01*
X0021190Y0051935D02*
X0021135Y0051963D01*
Y0052130D01*
X0021190Y0052158D01*
X0021413D01*
X0021468Y0052130D01*
Y0051963D01*
X0021413Y0051935D01*
X0005583Y0044276D02*
Y0044387D01*
Y0044331D02*
X0005916D01*
X0005860Y0044387D01*
X0005583Y0044729D02*
X0005638Y0044785D01*
X0005694Y0044812D01*
X0005805D01*
X0005860Y0044785D01*
X0005916Y0044729D01*
Y0044673D01*
X0005860Y0044618D01*
X0005805Y0044590D01*
X0005694D01*
X0005638Y0044618D01*
X0005583Y0044673D01*
Y0044729D01*
Y0044960D02*
Y0045071D01*
Y0045016D02*
X0005916D01*
X0005860Y0045071D01*
X0005749Y0045358D02*
X0005583Y0045274D01*
X0005749Y0045497D02*
Y0045330D01*
X0005805Y0045274D01*
X0005860D01*
X0005916Y0045330D01*
Y0045497D01*
X0005583D01*
X0011115Y0012915D02*
X0011059Y0012860D01*
X0011004Y0012832D01*
X0010893D01*
X0010837Y0012860D01*
X0010782Y0012915D01*
Y0012971D01*
X0010837Y0013027D01*
X0010893Y0013054D01*
X0011004D01*
X0011059Y0013027D01*
X0011115Y0012971D01*
Y0012915D01*
X0011059Y0012462D02*
X0011115Y0012490D01*
Y0012657D01*
X0011059Y0012684D01*
X0010948D01*
X0010893Y0012629D01*
Y0012462D01*
X0010782D01*
Y0012684D01*
X0011059Y0012314D02*
X0011115Y0012287D01*
Y0012120D01*
X0011059Y0012092D01*
X0010837D01*
X0010782Y0012120D01*
Y0012287D01*
X0010837Y0012314D01*
X0019685Y0048784D02*
X0019740Y0048840D01*
X0019796Y0048868D01*
X0019907D01*
X0019963Y0048840D01*
X0020018Y0048784D01*
Y0048729D01*
X0019963Y0048673D01*
X0019907Y0048645D01*
X0019796D01*
X0019740Y0048673D01*
X0019685Y0048729D01*
Y0048784D01*
X0019796Y0049015D02*
Y0049238D01*
X0020018Y0049127D01*
Y0049071D01*
X0019685D01*
X0019740Y0049385D02*
X0019685Y0049413D01*
Y0049580D01*
X0019740Y0049608D01*
X0019963D01*
X0020018Y0049580D01*
Y0049413D01*
X0019963Y0049385D01*
X0024617Y0024960D02*
Y0024849D01*
Y0024904D02*
X0024284D01*
X0024339Y0024849D01*
X0024617Y0024479D02*
X0024284Y0024645D01*
Y0024423D01*
X0024451Y0024192D02*
X0024617Y0024275D01*
X0024451Y0024053D02*
Y0024220D01*
X0024395Y0024275D01*
X0024339D01*
X0024284Y0024220D01*
Y0024053D01*
X0024617D01*
X0015801Y0051888D02*
X0015745Y0051915D01*
X0015689D01*
X0015634Y0051888D01*
Y0051721D01*
X0015689Y0051693D01*
X0015745D01*
X0015801Y0051721D01*
Y0051888D01*
X0015856Y0051915D01*
X0015912D01*
X0015967Y0051888D01*
Y0051721D01*
X0015912Y0051693D01*
X0015856D01*
X0015801Y0051721D01*
Y0051518D02*
X0015745Y0051545D01*
X0015689D01*
X0015634Y0051518D01*
Y0051351D01*
X0015689Y0051323D01*
X0015745D01*
X0015801Y0051351D01*
Y0051518D01*
X0015856Y0051545D01*
X0015912D01*
X0015967Y0051518D01*
Y0051351D01*
X0015912Y0051323D01*
X0015856D01*
X0015801Y0051351D01*
Y0051092D02*
X0015967Y0051175D01*
X0015801Y0050953D02*
Y0051120D01*
X0015745Y0051175D01*
X0015689D01*
X0015634Y0051120D01*
Y0050953D01*
X0015967D01*
X0017419Y0046201D02*
X0017252D01*
X0017224Y0046256D01*
Y0046312D01*
X0017252Y0046367D01*
X0017419D01*
X0017447Y0046312D01*
Y0046256D01*
X0017336Y0046034D01*
X0017817Y0046312D02*
X0017761Y0046367D01*
X0017650D01*
X0017594Y0046312D01*
Y0046256D01*
X0017706Y0046145D01*
X0017594Y0046034D01*
X0017817D01*
X0017964Y0046312D02*
X0017992Y0046367D01*
X0018159D01*
X0018187Y0046312D01*
Y0046089D01*
X0018159Y0046034D01*
X0017992D01*
X0017964Y0046089D01*
X0024812Y0038793D02*
X0024867Y0038821D01*
Y0038988D01*
X0024812Y0039015D01*
X0024701D01*
X0024645Y0038960D01*
Y0038793D01*
X0024534D01*
Y0039015D01*
X0024812Y0038423D02*
X0024867Y0038479D01*
Y0038590D01*
X0024812Y0038645D01*
X0024756D01*
X0024645Y0038534D01*
X0024534Y0038645D01*
Y0038423D01*
X0024701Y0038192D02*
X0024867Y0038275D01*
X0024701Y0038053D02*
Y0038220D01*
X0024645Y0038275D01*
X0024589D01*
X0024534Y0038220D01*
Y0038053D01*
X0024867D01*
X0011667Y0027771D02*
X0011612Y0027715D01*
X0011556Y0027687D01*
X0011445D01*
X0011389Y0027715D01*
X0011334Y0027771D01*
Y0027826D01*
X0011389Y0027882D01*
X0011445Y0027910D01*
X0011556D01*
X0011612Y0027882D01*
X0011667Y0027826D01*
Y0027771D01*
Y0027540D02*
Y0027429D01*
Y0027484D02*
X0011334D01*
X0011389Y0027429D01*
X0011501Y0027142D02*
X0011667Y0027225D01*
X0011501Y0027003D02*
Y0027170D01*
X0011445Y0027225D01*
X0011389D01*
X0011334Y0027170D01*
Y0027003D01*
X0011667D01*
X0017119Y0030845D02*
X0017008D01*
X0017063D02*
Y0031178D01*
X0017008Y0031123D01*
X0016610Y0031012D02*
X0016777D01*
X0016804Y0030956D01*
Y0030900D01*
X0016777Y0030845D01*
X0016610D01*
X0016582Y0030900D01*
Y0030956D01*
X0016693Y0031178D01*
X0016434Y0030900D02*
X0016407Y0030845D01*
X0016240D01*
X0016212Y0030900D01*
Y0031123D01*
X0016240Y0031178D01*
X0016407D01*
X0016434Y0031123D01*
X0023056Y0026280D02*
Y0026057D01*
X0022834Y0026169D01*
Y0026224D01*
X0023167D01*
Y0025910D02*
Y0025687D01*
X0022945Y0025910D01*
X0022889D01*
X0022834Y0025882D01*
Y0025715D01*
X0022889Y0025687D01*
X0023167Y0025540D02*
Y0025429D01*
Y0025484D02*
X0022834D01*
X0022889Y0025429D01*
X0023001Y0025142D02*
X0023167Y0025225D01*
X0023001Y0025003D02*
Y0025170D01*
X0022945Y0025225D01*
X0022889D01*
X0022834Y0025170D01*
Y0025003D01*
X0023167D01*
X0009582Y0046440D02*
X0009638Y0046385D01*
X0009749D01*
X0009804Y0046440D01*
Y0046496D01*
X0009693Y0046607D01*
X0009804Y0046718D01*
X0009582D01*
X0009212Y0046440D02*
X0009240Y0046385D01*
X0009407D01*
X0009434Y0046440D01*
Y0046552D01*
X0009379Y0046607D01*
X0009212D01*
Y0046718D01*
X0009434D01*
X0009064Y0046440D02*
X0009037Y0046385D01*
X0008870D01*
X0008842Y0046440D01*
Y0046663D01*
X0008870Y0046718D01*
X0009037D01*
X0009064Y0046663D01*
X0035448Y0027444D02*
X0035225D01*
X0035336Y0027666D01*
X0035392D01*
Y0027332D01*
X0035078D02*
X0034883D01*
Y0027666D01*
X0004573Y0029808D02*
X0004629Y0029753D01*
X0004740D01*
X0004795Y0029808D01*
Y0029864D01*
X0004684Y0029975D01*
X0004795Y0030086D01*
X0004573D01*
X0004314Y0029864D02*
X0004425Y0029753D01*
X0004203Y0029808D02*
X0004231Y0029753D01*
X0004342D01*
X0004370Y0029808D01*
X0004425Y0029864D01*
Y0030030D01*
X0004398Y0030086D01*
X0004231D01*
X0004203Y0030030D01*
Y0029808D01*
X0006720Y0006251D02*
X0006554D01*
X0006526Y0006306D01*
Y0006362D01*
X0006554Y0006417D01*
X0006720D01*
X0006748Y0006362D01*
Y0006306D01*
X0006637Y0006084D01*
X0006896Y0006417D02*
X0007007D01*
X0006951D02*
Y0006084D01*
X0007007Y0006139D01*
X0007210Y0006417D02*
X0007321D01*
X0007266D02*
Y0006084D01*
X0007321Y0006139D01*
X0007608Y0006251D02*
X0007524Y0006417D01*
X0007747Y0006251D02*
X0007580D01*
X0007524Y0006195D01*
Y0006139D01*
X0007580Y0006084D01*
X0007747D01*
Y0006417D01*
X0007635Y0011501D02*
Y0011612D01*
Y0011557D02*
X0007968D01*
X0007913Y0011612D01*
X0007690Y0012038D02*
X0007635Y0012010D01*
Y0011843D01*
X0007690Y0011815D01*
X0007802D01*
X0007857Y0011871D01*
Y0012038D01*
X0007968D01*
Y0011815D01*
X0007690Y0012185D02*
X0007635Y0012213D01*
Y0012380D01*
X0007690Y0012408D01*
X0007913D01*
X0007968Y0012380D01*
Y0012213D01*
X0007913Y0012185D01*
X0001195Y0047650D02*
Y0046350D01*
X0003445D01*
Y0047650D01*
X0003470D01*
X0001195D01*
X0010525Y0015850D02*
X0008375D01*
Y0014650D01*
X0010525D01*
Y0015850D01*
X0010875Y0014280D02*
X0011625D01*
Y0015880D01*
X0010875D01*
Y0014280D01*
X0006375Y0017220D02*
X0005625D01*
Y0015620D01*
X0006375D01*
Y0017220D01*
X0028625Y0026470D02*
X0027875D01*
Y0024870D01*
X0028625D01*
Y0026470D01*
X0027875D02*
X0027125D01*
Y0024870D01*
X0027875D01*
Y0026470D01*
X0031035Y0018500D02*
X0031785D01*
Y0020100D01*
X0031035D01*
Y0018500D01*
X0004530Y0024700D02*
X0004270D01*
Y0024400D01*
X0004220D01*
X0005470D02*
Y0024700D01*
X0005210D01*
X0018150Y0014275D02*
Y0012125D01*
X0019350D01*
Y0014275D01*
X0018150D01*
X0015150Y0032085D02*
Y0031335D01*
X0016750D01*
Y0032085D01*
X0015150D01*
X0028125Y0037970D02*
X0027375D01*
Y0036370D01*
X0028125D01*
Y0037970D01*
X0023470Y0035375D02*
Y0036125D01*
X0021870D01*
Y0035375D01*
X0023470D01*
X0009030Y0010875D02*
Y0010125D01*
X0010630D01*
Y0010875D01*
X0009030D01*
X0018095Y0047275D02*
X0016945D01*
Y0046630D01*
X0018095D01*
Y0047275D01*
X0004300Y0016030D02*
Y0015770D01*
X0004600D01*
Y0015720D01*
Y0016970D02*
X0004300D01*
Y0016710D01*
X0015720Y0018375D02*
Y0019125D01*
X0014120D01*
Y0018375D01*
X0015720D01*
X0028875Y0037970D02*
X0028125D01*
Y0036370D01*
X0028875D01*
Y0037970D01*
X0015720Y0020375D02*
Y0021125D01*
X0014120D01*
Y0020375D01*
X0015720D01*
X0016720Y0021375D02*
Y0022125D01*
X0015120D01*
Y0021375D01*
X0016720D01*
X0021220Y0013375D02*
Y0014125D01*
X0019620D01*
Y0013375D01*
X0021220D01*
X0009530Y0047625D02*
Y0046875D01*
X0011130D01*
Y0047625D01*
X0009530D01*
X0033220Y0027125D02*
Y0027875D01*
X0031620D01*
Y0027125D01*
X0033220D01*
X0004625Y0017280D02*
X0005375D01*
Y0018880D01*
X0004625D01*
Y0017280D01*
X0031125Y0037970D02*
X0030375D01*
Y0036370D01*
X0031125D01*
Y0037970D01*
X0021125Y0048720D02*
X0020375D01*
Y0047120D01*
X0021125D01*
Y0048720D01*
X0015720Y0022375D02*
Y0023125D01*
X0014120D01*
Y0022375D01*
X0015720D01*
X0004780Y0035875D02*
Y0035125D01*
X0006380D01*
Y0035875D01*
X0004780D01*
X0016970Y0005125D02*
Y0005875D01*
X0015370D01*
Y0005125D01*
X0016970D01*
X0004375Y0047470D02*
X0003625D01*
Y0045870D01*
X0004375D01*
Y0047470D01*
X0003625Y0044030D02*
X0004375D01*
Y0045630D01*
X0003625D01*
Y0044030D01*
X0004530Y0029200D02*
X0004270D01*
Y0028900D01*
X0004220D01*
X0005470D02*
Y0029200D01*
X0005210D01*
X0022375Y0053220D02*
X0021625D01*
Y0051620D01*
X0022375D01*
Y0053220D01*
X0015875Y0052220D02*
X0015125D01*
Y0050620D01*
X0015875D01*
Y0052220D01*
X0023470Y0029125D02*
Y0029875D01*
X0021870D01*
Y0029125D01*
X0023470D01*
X0035220Y0029625D02*
Y0030375D01*
X0033620D01*
Y0029625D01*
X0035220D01*
X0007720Y0011375D02*
Y0012125D01*
X0006120D01*
Y0011375D01*
X0007720D01*
X0021775Y0009750D02*
X0021025D01*
Y0008150D01*
X0021775D01*
Y0009750D01*
X0013150Y0040925D02*
Y0041675D01*
X0011550D01*
Y0040925D01*
X0013150D01*
X0023470Y0028125D02*
Y0028875D01*
X0021870D01*
Y0028125D01*
X0023470D01*
X0020925Y0050670D02*
X0020175D01*
Y0049070D01*
X0020925D01*
Y0050670D01*
X0019125Y0052470D02*
X0018375D01*
Y0050870D01*
X0019125D01*
Y0052470D01*
X0004780Y0034875D02*
Y0034125D01*
X0006380D01*
Y0034875D01*
X0004780D01*
X0022475Y0043910D02*
X0021725D01*
Y0042310D01*
X0022475D01*
Y0043910D01*
X0026375Y0026470D02*
X0025625D01*
Y0024870D01*
X0026375D01*
Y0026470D01*
X0013470Y0005125D02*
Y0005875D01*
X0011870D01*
Y0005125D01*
X0013470D01*
X0013750Y0050700D02*
Y0048500D01*
X0012850D01*
Y0050700D01*
X0013750D01*
X0006375Y0047470D02*
X0005625D01*
Y0045870D01*
X0006375D01*
Y0047470D01*
X0032035Y0018500D02*
X0032785D01*
Y0020100D01*
X0032035D01*
Y0018500D01*
X0024375Y0037970D02*
X0023625D01*
Y0036370D01*
X0024375D01*
Y0037970D01*
X0005720Y0005625D02*
Y0006375D01*
X0004120D01*
Y0005625D01*
X0005720D01*
X0019720Y0023375D02*
Y0024125D01*
X0018120D01*
Y0023375D01*
X0019720D01*
X0006130Y0011375D02*
Y0012125D01*
X0004530D01*
Y0011375D01*
X0006130D01*
X0004780Y0032875D02*
Y0032125D01*
X0006380D01*
Y0032875D01*
X0004780D01*
Y0036875D02*
Y0036125D01*
X0006380D01*
Y0036875D01*
X0004780D01*
X0007720Y0012125D02*
Y0012875D01*
X0006120D01*
Y0012125D01*
X0007720D01*
X0030125Y0026470D02*
X0029375D01*
Y0024870D01*
X0030125D01*
Y0026470D01*
X0033220Y0030875D02*
Y0031625D01*
X0031620D01*
Y0030875D01*
X0033220D01*
X0035220Y0033375D02*
Y0034125D01*
X0033620D01*
Y0033375D01*
X0035220D01*
X0006280Y0007375D02*
Y0006625D01*
X0007880D01*
Y0007375D01*
X0006280D01*
X0037125Y0012720D02*
X0036375D01*
Y0011120D01*
X0037125D01*
Y0012720D01*
X0020175Y0052420D02*
X0019425D01*
Y0050820D01*
X0020175D01*
Y0052420D01*
X0016125Y0008280D02*
X0016875D01*
Y0009880D01*
X0016125D01*
Y0008280D01*
X0033220Y0028625D02*
Y0029375D01*
X0031620D01*
Y0028625D01*
X0033220D01*
X0019275Y0006060D02*
X0020025D01*
Y0007660D01*
X0019275D01*
Y0006060D01*
X0006130Y0012125D02*
Y0012875D01*
X0004530D01*
Y0012125D01*
X0006130D01*
X0007780Y0047625D02*
Y0046875D01*
X0009380D01*
Y0047625D01*
X0007780D01*
X0010495Y0039730D02*
Y0040480D01*
X0008895D01*
Y0039730D01*
X0010495D01*
X0006280Y0006625D02*
Y0005875D01*
X0007880D01*
Y0006625D01*
X0006280D01*
X0035220Y0032625D02*
Y0033375D01*
X0033620D01*
Y0032625D01*
X0035220D01*
X0026625Y0037970D02*
X0025875D01*
Y0036370D01*
X0026625D01*
Y0037970D01*
X0004030Y0027625D02*
Y0026875D01*
X0005630D01*
Y0027625D01*
X0004030D01*
X0015220Y0005125D02*
Y0005875D01*
X0013620D01*
Y0005125D01*
X0015220D01*
X0035220Y0031875D02*
Y0032625D01*
X0033620D01*
Y0031875D01*
X0035220D01*
X0016970Y0005875D02*
Y0006625D01*
X0015370D01*
Y0005875D01*
X0016970D01*
X0011280Y0031875D02*
Y0031125D01*
X0012880D01*
Y0031875D01*
X0011280D01*
X0033220Y0029375D02*
Y0030125D01*
X0031620D01*
Y0029375D01*
X0033220D01*
X0021025Y0009750D02*
X0020275D01*
Y0008150D01*
X0021025D01*
Y0009750D01*
X0026035Y0018500D02*
X0026785D01*
Y0020100D01*
X0026035D01*
Y0018500D01*
X0014570Y0030305D02*
X0013820D01*
Y0028705D01*
X0014570D01*
Y0030305D01*
X0035220Y0030375D02*
Y0031125D01*
X0033620D01*
Y0030375D01*
X0035220D01*
X0039525Y0040600D02*
X0037375D01*
Y0039400D01*
X0039525D01*
Y0040600D01*
X0008875Y0007720D02*
X0008125D01*
Y0006120D01*
X0008875D01*
Y0007720D01*
X0019325Y0044030D02*
X0018275D01*
Y0042050D01*
X0019325D01*
Y0044030D01*
X0016220Y0016875D02*
Y0017625D01*
X0014620D01*
Y0016875D01*
X0016220D01*
X0037125Y0006220D02*
X0036375D01*
Y0004620D01*
X0037125D01*
Y0006220D01*
X0023470Y0033875D02*
Y0034625D01*
X0021870D01*
Y0033875D01*
X0023470D01*
X0029625Y0037970D02*
X0028875D01*
Y0036370D01*
X0029625D01*
Y0037970D01*
X0037780Y0041625D02*
Y0040875D01*
X0039380D01*
Y0041625D01*
X0037780D01*
X0005875Y0005220D02*
X0005125D01*
Y0003620D01*
X0005875D01*
Y0005220D01*
X0011280Y0034875D02*
Y0034125D01*
X0012880D01*
Y0034875D01*
X0011280D01*
X0023470Y0031125D02*
Y0031875D01*
X0021870D01*
Y0031125D01*
X0023470D01*
X0032125Y0023220D02*
X0031375D01*
Y0021620D01*
X0032125D01*
Y0023220D01*
X0033035Y0018500D02*
X0033785D01*
Y0020100D01*
X0033035D01*
Y0018500D01*
X0011280Y0032625D02*
Y0031875D01*
X0012880D01*
Y0032625D01*
X0011280D01*
X0016970Y0006625D02*
Y0007375D01*
X0015370D01*
Y0006625D01*
X0016970D01*
X0018160Y0027705D02*
Y0028455D01*
X0016560D01*
Y0027705D01*
X0018160D01*
X0033220Y0030125D02*
Y0030875D01*
X0031620D01*
Y0030125D01*
X0033220D01*
Y0034625D02*
Y0035375D01*
X0031620D01*
Y0034625D01*
X0033220D01*
X0004030Y0026625D02*
Y0025875D01*
X0005630D01*
Y0026625D01*
X0004030D01*
X0018000Y0023375D02*
Y0024125D01*
X0016400D01*
Y0023375D01*
X0018000D01*
X0033220Y0027875D02*
Y0028625D01*
X0031620D01*
Y0027875D01*
X0033220D01*
X0024875Y0023220D02*
X0024125D01*
Y0021620D01*
X0024875D01*
Y0023220D01*
X0016925Y0052420D02*
X0016175D01*
Y0050820D01*
X0016925D01*
Y0052420D01*
X0025125Y0037970D02*
X0024375D01*
Y0036370D01*
X0025125D01*
Y0037970D01*
X0034725Y0025900D02*
X0036875D01*
Y0027100D01*
X0034725D01*
Y0025900D01*
X0018705Y0027840D02*
X0019455D01*
Y0029440D01*
X0018705D01*
Y0027840D01*
X0020175Y0050670D02*
X0019425D01*
Y0049070D01*
X0020175D01*
Y0050670D01*
X0033220Y0033125D02*
Y0033875D01*
X0031620D01*
Y0033125D01*
X0033220D01*
X0011280Y0033375D02*
Y0032625D01*
X0012880D01*
Y0033375D01*
X0011280D01*
X0008875Y0013470D02*
X0008125D01*
Y0011870D01*
X0008875D01*
Y0013470D01*
X0015220Y0005875D02*
Y0006625D01*
X0013620D01*
Y0005875D01*
X0015220D01*
X0024875Y0026470D02*
X0024125D01*
Y0024870D01*
X0024875D01*
Y0026470D01*
X0039125Y0006220D02*
X0038375D01*
Y0004620D01*
X0039125D01*
Y0006220D01*
X0011280Y0036375D02*
Y0035625D01*
X0012880D01*
Y0036375D01*
X0011280D01*
X0033625Y0025280D02*
X0034375D01*
Y0026880D01*
X0033625D01*
Y0025280D01*
X0020275Y0006060D02*
X0021025D01*
Y0007660D01*
X0020275D01*
Y0006060D01*
X0018470Y0035625D02*
Y0036375D01*
X0016870D01*
Y0035625D01*
X0018470D01*
X0035220Y0031125D02*
Y0031875D01*
X0033620D01*
Y0031125D01*
X0035220D01*
X0005375Y0047470D02*
X0004625D01*
Y0045870D01*
X0005375D01*
Y0047470D01*
X0013565Y0030300D02*
X0012815D01*
Y0028700D01*
X0013565D01*
Y0030300D01*
X0023625Y0037970D02*
X0022875D01*
Y0036370D01*
X0023625D01*
Y0037970D01*
X0033220Y0031625D02*
Y0032375D01*
X0031620D01*
Y0031625D01*
X0033220D01*
X0004780Y0033875D02*
Y0033125D01*
X0006380D01*
Y0033875D01*
X0004780D01*
X0007720Y0012875D02*
Y0013625D01*
X0006120D01*
Y0012875D01*
X0007720D01*
X0020925Y0052420D02*
X0020175D01*
Y0050820D01*
X0020925D01*
Y0052420D01*
X0020300Y0029685D02*
Y0030435D01*
X0018700D01*
Y0029685D01*
X0020300D01*
X0030375Y0037970D02*
X0029625D01*
Y0036370D01*
X0030375D01*
Y0037970D01*
X0023470Y0032125D02*
Y0032875D01*
X0021870D01*
Y0032125D01*
X0023470D01*
X0011280Y0035625D02*
Y0034875D01*
X0012880D01*
Y0035625D01*
X0011280D01*
X0006725Y0048600D02*
X0006650Y0048675D01*
Y0050450D01*
X0005400Y0048600D02*
X0005460Y0048660D01*
Y0050450D01*
X0008875Y0011720D02*
X0008125D01*
Y0010120D01*
X0008875D01*
Y0011720D01*
X0015220Y0006625D02*
Y0007375D01*
X0013620D01*
Y0006625D01*
X0015220D01*
X0023470Y0033125D02*
Y0033875D01*
X0021870D01*
Y0033125D01*
X0023470D01*
X0008875Y0009720D02*
X0008125D01*
Y0008120D01*
X0008875D01*
Y0009720D01*
X0035220Y0028875D02*
Y0029625D01*
X0033620D01*
Y0028875D01*
X0035220D01*
X0012625Y0028470D02*
X0011875D01*
Y0026870D01*
X0012625D01*
Y0028470D01*
X0030875Y0026470D02*
X0030125D01*
Y0024870D01*
X0030875D01*
Y0026470D01*
X0012625Y0024220D02*
X0011875D01*
Y0022620D01*
X0012625D01*
Y0024220D01*
X0010625Y0006720D02*
X0009875D01*
Y0005120D01*
X0010625D01*
Y0006720D01*
X0025625Y0026470D02*
X0024875D01*
Y0024870D01*
X0025625D01*
Y0026470D01*
X0035030Y0025625D02*
Y0024875D01*
X0036630D01*
Y0025625D01*
X0035030D01*
X0015475Y0047850D02*
X0015400Y0047925D01*
Y0049700D01*
X0014150Y0047850D02*
X0014210Y0047910D01*
Y0049700D01*
X0033220Y0033875D02*
Y0034625D01*
X0031620D01*
Y0033875D01*
X0033220D01*
X0011280Y0034125D02*
Y0033375D01*
X0012880D01*
Y0034125D01*
X0011280D01*
X0016720Y0019375D02*
Y0020125D01*
X0015120D01*
Y0019375D01*
X0016720D01*
X0018525Y0011250D02*
X0017775D01*
Y0009650D01*
X0018525D01*
Y0011250D01*
X0018735Y0030550D02*
X0019485D01*
Y0032150D01*
X0018735D01*
Y0030550D01*
X0035030Y0023625D02*
Y0022875D01*
X0036630D01*
Y0023625D01*
X0035030D01*
X0005625Y0017280D02*
X0006375D01*
Y0018880D01*
X0005625D01*
Y0017280D01*
X0037125Y0017470D02*
X0036375D01*
Y0015870D01*
X0037125D01*
Y0017470D01*
X0009030Y0007625D02*
Y0006875D01*
X0010630D01*
Y0007625D01*
X0009030D01*
X0004030Y0023125D02*
Y0022375D01*
X0005630D01*
Y0023125D01*
X0004030D01*
X0011220Y0031125D02*
Y0031875D01*
X0009620D01*
Y0031125D01*
X0011220D01*
X0020675Y0043670D02*
X0019925D01*
Y0042070D01*
X0020675D01*
Y0043670D01*
X0033220Y0032375D02*
Y0033125D01*
X0031620D01*
Y0032375D01*
X0033220D01*
X0018470Y0034875D02*
Y0035625D01*
X0016870D01*
Y0034875D01*
X0018470D01*
X0029375Y0026470D02*
X0028625D01*
Y0024870D01*
X0029375D01*
Y0026470D01*
X0023470Y0026625D02*
Y0027375D01*
X0021870D01*
Y0026625D01*
X0023470D01*
X0010625Y0045470D02*
X0009875D01*
Y0043870D01*
X0010625D01*
Y0045470D01*
X0023470Y0030125D02*
Y0030875D01*
X0021870D01*
Y0030125D01*
X0023470D01*
X0020300Y0032435D02*
Y0033185D01*
X0018700D01*
Y0032435D01*
X0020300D01*
X0001530Y0046125D02*
Y0045375D01*
X0003130D01*
Y0046125D01*
X0001530D01*
X0004125Y0006780D02*
X0004875D01*
Y0008380D01*
X0004125D01*
Y0006780D01*
X0018275Y0006060D02*
X0019025D01*
Y0007660D01*
X0018275D01*
Y0006060D01*
X0023470Y0027375D02*
Y0028125D01*
X0021870D01*
Y0027375D01*
X0023470D01*
X0037125Y0020220D02*
X0036375D01*
Y0018620D01*
X0037125D01*
Y0020220D01*
X0019730Y0027000D02*
Y0024800D01*
X0018830D01*
Y0027000D01*
X0019730D01*
X0013470Y0006625D02*
Y0007375D01*
X0011870D01*
Y0006625D01*
X0013470D01*
X0035030Y0022625D02*
Y0021875D01*
X0036630D01*
Y0022625D01*
X0035030D01*
Y0024625D02*
Y0023875D01*
X0036630D01*
Y0024625D01*
X0035030D01*
X0027035Y0018500D02*
X0027785D01*
Y0020100D01*
X0027035D01*
Y0018500D01*
X0025875Y0037970D02*
X0025125D01*
Y0036370D01*
X0025875D01*
Y0037970D01*
X0031625Y0026470D02*
X0030875D01*
Y0024870D01*
X0031625D01*
Y0026470D01*
X0005625Y0044030D02*
X0006375D01*
Y0045630D01*
X0005625D01*
Y0044030D01*
X0032625Y0037970D02*
X0031875D01*
Y0036370D01*
X0032625D01*
Y0037970D01*
X0012425Y0050670D02*
X0011675D01*
Y0049070D01*
X0012425D01*
Y0050670D01*
X0030035Y0018500D02*
X0030785D01*
Y0020100D01*
X0030035D01*
Y0018500D01*
X0027125Y0026470D02*
X0026375D01*
Y0024870D01*
X0027125D01*
Y0026470D01*
X0011280Y0037125D02*
Y0036375D01*
X0012880D01*
Y0037125D01*
X0011280D01*
X0037125Y0015220D02*
X0036375D01*
Y0013620D01*
X0037125D01*
Y0015220D01*
X0013470Y0005875D02*
Y0006625D01*
X0011870D01*
Y0005875D01*
X0013470D01*
X0029035Y0018500D02*
X0029785D01*
Y0020100D01*
X0029035D01*
Y0018500D01*
X0031875Y0037970D02*
X0031125D01*
Y0036370D01*
X0031875D01*
Y0037970D01*
X0004030Y0022125D02*
Y0021375D01*
X0005630D01*
Y0022125D01*
X0004030D01*
X0027375Y0037970D02*
X0026625D01*
Y0036370D01*
X0027375D01*
Y0037970D01*
X0023470Y0034625D02*
Y0035375D01*
X0021870D01*
Y0034625D01*
X0023470D01*
X0004625Y0044030D02*
X0005375D01*
Y0045630D01*
X0004625D01*
Y0044030D01*
X0009875Y0011030D02*
X0010625D01*
Y0012630D01*
X0009875D01*
Y0011030D01*
X0024125Y0026470D02*
X0023375D01*
Y0024870D01*
X0024125D01*
Y0026470D01*
G54D144*
G01X0036770Y0049748D02*
X0036114D01*
X0036770Y0049693D02*
Y0050021D01*
X0036552Y0050131D01*
X0036333D01*
X0036114Y0050021D01*
Y0049693D01*
X0036442Y0049239D02*
X0036770Y0049403D01*
X0036442Y0048965D02*
Y0049293D01*
X0036333Y0049403D01*
X0036224D01*
X0036114Y0049293D01*
Y0048965D01*
X0036770D01*
X0036552Y0048675D02*
Y0048237D01*
X0036770Y0048675D02*
X0036442D01*
X0036114Y0048511D01*
Y0048401D01*
X0036442Y0048237D01*
X0036770D01*
X0036661Y0047947D02*
X0036770Y0047892D01*
Y0047564D01*
X0036661Y0047509D01*
X0036224D01*
X0036114Y0047564D01*
Y0047892D01*
X0036224Y0047947D01*
X0036770Y0045862D02*
X0036114D01*
X0036770Y0045807D02*
Y0046135D01*
X0036552Y0046245D01*
X0036333D01*
X0036114Y0046135D01*
Y0045807D01*
X0036224Y0045517D02*
X0036114Y0045462D01*
Y0045134D01*
X0036224Y0045079D01*
X0036333D01*
X0036442Y0045134D01*
Y0045462D01*
X0036552Y0045517D01*
X0036661D01*
X0036770Y0045462D01*
Y0045134D01*
X0036661Y0045079D01*
X0003551Y0004039D02*
Y0007658D01*
X-0000147D01*
Y0003135D01*
X0003551D01*
Y0004039D01*
X0003540Y0050800D02*
Y0049896D01*
X-0000158D01*
Y0053082D01*
X0003540D01*
Y0050800D01*
X0003551Y0028039D02*
Y0027135D01*
X-0000147D01*
Y0030321D01*
X0003551D01*
Y0028039D01*
X0017711Y0003551D02*
X0014092D01*
Y-0000147D01*
X0018615D01*
Y0003551D01*
X0017711D01*
X0003551Y0020039D02*
Y0019135D01*
X-0000147D01*
Y0022321D01*
X0003551D01*
Y0020039D01*
X0012711Y0003551D02*
X0007715D01*
Y-0000147D01*
X0013615D01*
Y0003551D01*
X0012711D01*
X0003551Y0009339D02*
Y0014335D01*
X-0000147D01*
Y0008435D01*
X0003551D01*
Y0009339D01*
Y0016039D02*
Y0015135D01*
X-0000147D01*
Y0018321D01*
X0003551D01*
Y0016039D01*
Y0032039D02*
Y0037035D01*
X-0000147D01*
Y0031135D01*
X0003551D01*
Y0032039D01*
Y0024039D02*
Y0023135D01*
X-0000147D01*
Y0026321D01*
X0003551D01*
Y0024039D01*
G54D145*
G01X0018674Y0024553D02*
X0017099D01*
Y0026128D01*
X0018674D01*
Y0024553D01*
G54D146*
G01X0025550Y0023719D02*
X0025488D01*
X0025519D02*
Y0023905D01*
X0025488Y0023874D01*
X0025299Y0023719D02*
Y0023812D01*
X0025362Y0023905D02*
X0025315Y0023812D01*
X0025284D01*
X0025237Y0023905D01*
X0010900Y0022250D02*
X0009900D01*
Y0022600D01*
X0009100D01*
Y0022250D01*
X0008050D01*
Y0025750D01*
X0010900D01*
Y0022250D01*
X0017050Y0047950D02*
Y0050450D01*
X0018300D01*
Y0047950D01*
X0017050D01*
X0018300Y0048200D02*
X0017050D01*
X0010900Y0026250D02*
X0009900D01*
Y0026600D01*
X0009100D01*
Y0026250D01*
X0008050D01*
Y0029750D01*
X0010900D01*
Y0026250D01*
G54D147*
G01X0018307Y0026219D02*
Y0026267D01*
X0018259D01*
Y0026219D01*
X0018307D01*
X0019768Y0010137D02*
X0019866D01*
Y0009507D01*
X0019748D01*
Y0009232D01*
X0019866D01*
Y0008583D01*
X0018686D01*
Y0010137D01*
X0019768D01*
G54D148*
G01X0018605Y0026421D02*
Y0026351D01*
Y0026386D02*
X0018395D01*
X0018430Y0026351D01*
X0017261Y0047199D02*
X0017349D01*
X0017305D02*
Y0046937D01*
X0017349Y0046980D01*
X0017572Y0047199D02*
X0017725D01*
Y0046937D01*
X0024162Y0042330D02*
X0032953D01*
Y0043176D01*
X0032422Y0043333D01*
Y0043510D01*
X0029610D01*
Y0047070D01*
X0029728D01*
Y0048997D01*
X0029610D01*
Y0050217D01*
X0029393D01*
Y0051003D01*
X0030298D01*
X0030308Y0052190D01*
X0032422D01*
Y0052360D01*
X0032953Y0052459D01*
Y0053108D01*
X0032961Y0053328D01*
X0024157D01*
X0024162Y0052026D01*
X0023769D01*
Y0043589D01*
X0024162D01*
Y0042330D01*
X0031812Y0053328D02*
Y0053757D01*
X0030632D01*
X0030633Y0053318D01*
X0031832Y0042330D02*
Y0041524D01*
X0030632Y0042311D02*
Y0041524D01*
X0031832D01*
X0025872Y0021539D02*
X0030353D01*
X0025864Y0023445D02*
X0030345D01*
X0030353Y0023441D02*
Y0022909D01*
X0030357Y0022094D02*
Y0021543D01*
X0030353Y0023441D02*
Y0022909D01*
X0025860Y0023453D02*
Y0022921D01*
X0030357Y0022094D02*
Y0021543D01*
X0025868Y0022102D02*
Y0021551D01*
X0025872Y0021539D02*
X0030353D01*
G54D149*
G01X0033012Y0043137D02*
X0037339D01*
Y0052557D01*
X0032973D01*
M02*
