*
G04 Mass Parameters ***
*
G04 Image ***
*
%INC:\SRC\BSM-2\SCHEMATICS\BSM-2.AST*%
%ICAS*%
%MOIN*%
%IPPOS*%
%ASAXBY*%
G74*%FSLAN2X34Y34*%
*
G04 Aperture Definitions ***
*
%ADD10R,0.0500X0.0500*%
%ADD11C,0.0520*%
%ADD12R,0.0520X0.0520*%
%ADD13R,0.0320X0.0380*%
%ADD14R,0.0600X0.0600*%
%ADD15R,0.0740X0.0480*%
%ADD16C,0.0570*%
%ADD17R,0.0570X0.0570*%
%ADD18R,0.0900X0.1000*%
%ADD19C,0.0740*%
%ADD20C,0.0580*%
%ADD21R,0.0580X0.0580*%
%ADD22C,0.0748*%
%ADD23R,0.0748X0.0748*%
%ADD24R,0.1968X0.1575*%
%ADD25R,0.0720X0.0780*%
%ADD26R,0.0780X0.0720*%
%ADD27R,0.0500X0.0340*%
%ADD28R,0.0400X0.0340*%
%ADD29R,0.0340X0.0500*%
%ADD30R,0.0340X0.0400*%
%ADD31R,0.0640X0.1000*%
%ADD32C,0.2362*%
%ADD33R,0.0600X0.0700*%
%ADD34O,0.0860X0.0240*%
%ADD35R,0.0860X0.0240*%
%ADD36O,0.0110X0.0700*%
%ADD37R,0.0110X0.0700*%
%ADD38O,0.0700X0.0110*%
%ADD39R,0.0700X0.0110*%
%ADD40R,0.1181X0.0984*%
%ADD41C,0.0680*%
%ADD42C,0.0840*%
%ADD43R,0.0984X0.0275*%
%ADD44R,0.1378X0.0275*%
%ADD45R,0.1496X0.0433*%
%ADD46O,0.0250X0.0940*%
%ADD47R,0.0250X0.0940*%
%ADD48C,0.1470*%
%ADD49R,0.0750X0.0750*%
%ADD50C,0.0750*%
%ADD51O,0.0940X0.0250*%
%ADD52R,0.0940X0.0250*%
%ADD53R,0.0950X0.1220*%
%ADD54R,0.0750X0.0240*%
%ADD55R,0.0550X0.0550*%
%ADD56C,0.0550*%
%ADD57R,0.0177X0.0701*%
%ADD58O,0.0394X0.0118*%
%ADD59O,0.0118X0.0394*%
%ADD60R,0.2165X0.0787*%
%ADD61C,0.0375*%
%ADD62C,0.0280*%
%ADD63C,0.0120*%
%ADD64C,0.0080*%
%ADD65C,0.0280*%
%ADD66C,0.0500*%
%ADD67C,0.0520*%
%ADD68R,0.0520X0.0520*%
%ADD69C,0.0570*%
%ADD70R,0.0570X0.0570*%
%ADD71C,0.0740*%
%ADD72C,0.0580*%
%ADD73R,0.0580X0.0580*%
%ADD74C,0.0748*%
%ADD75R,0.0748X0.0748*%
%ADD76R,0.0500X0.0670*%
%ADD77C,0.2362*%
%ADD78C,0.0680*%
%ADD79C,0.0840*%
%ADD80C,0.1470*%
%ADD81R,0.0750X0.0750*%
%ADD82C,0.0750*%
%ADD83R,0.0550X0.0550*%
%ADD84C,0.0550*%
%ADD85C,0.0280*%
%ADD86C,0.0720*%
%ADD87R,0.0720X0.0720*%
%ADD88R,0.0740X0.0740*%
%ADD89C,0.0900*%
%ADD90C,0.0780*%
%ADD91R,0.0780X0.0780*%
%ADD92C,0.0945*%
%ADD93R,0.0945X0.0945*%
%ADD94C,0.2401*%
%ADD95C,0.0880*%
%ADD96C,0.1040*%
%ADD97C,0.1750*%
%ADD98R,0.0950X0.0950*%
%ADD99C,0.0950*%
%ADD100C,0.0750*%
%ADD101R,0.0500X0.0500*%
%ADD102R,0.0320X0.0380*%
%ADD103R,0.0600X0.0600*%
%ADD104R,0.0740X0.0480*%
%ADD105R,0.0680X0.0680*%
%ADD106R,0.0900X0.1000*%
%ADD107C,0.0866*%
%ADD108R,0.0866X0.0866*%
%ADD109R,0.1968X0.1575*%
%ADD110R,0.0720X0.0780*%
%ADD111R,0.0780X0.0720*%
%ADD112R,0.0500X0.0340*%
%ADD113R,0.0400X0.0340*%
%ADD114R,0.0340X0.0500*%
%ADD115R,0.0340X0.0400*%
%ADD116R,0.0640X0.1000*%
%ADD117R,0.0600X0.0700*%
%ADD118O,0.0860X0.0240*%
%ADD119R,0.0860X0.0240*%
%ADD120O,0.0110X0.0700*%
%ADD121R,0.0110X0.0700*%
%ADD122O,0.0700X0.0110*%
%ADD123R,0.0700X0.0110*%
%ADD124R,0.1181X0.0984*%
%ADD125R,0.0984X0.0275*%
%ADD126R,0.1378X0.0275*%
%ADD127R,0.1496X0.0433*%
%ADD128O,0.0250X0.0940*%
%ADD129R,0.0250X0.0940*%
%ADD130O,0.0940X0.0250*%
%ADD131R,0.0940X0.0250*%
%ADD132R,0.0950X0.1220*%
%ADD133R,0.0750X0.0240*%
%ADD134C,0.2450*%
%ADD135R,0.0177X0.0701*%
%ADD136O,0.0394X0.0118*%
%ADD137O,0.0118X0.0394*%
%ADD138R,0.2165X0.0787*%
%ADD139C,0.0160*%
%ADD140C,0.0160*%
%ADD141C,0.0157*%
%ADD142C,0.0100*%
%ADD143C,0.0060*%
%ADD144C,0.0118*%
%ADD145C,0.0010*%
%ADD146C,0.0040*%
%ADD147C,0.0039*%
%ADD148C,0.0079*%
%ADD149C,0.0031*%
*
G04 Plot Data ***
*
G54D64*
G01X0041000D01*
Y0056000D01*
X0000000D01*
Y0000000D01*
X0033910Y0016220D02*
X0023910D01*
Y0018220D01*
X0033910D01*
Y0016220D01*
X0006800Y0052700D02*
Y0051700D01*
X0004800D01*
Y0052700D01*
X0006800D01*
X0016085Y0028830D02*
Y0030830D01*
X0016835D01*
Y0028830D01*
X0016085D01*
X0016835Y0029080D02*
X0016085D01*
X0015625Y0010395D02*
X0011875D01*
Y0009645D01*
X0015625D01*
Y0010395D01*
X0015375D02*
Y0009645D01*
X0007655Y0046325D02*
Y0044575D01*
X0008405D01*
Y0046325D01*
X0007655D01*
Y0046075D02*
X0008405D01*
X0039500Y0026750D02*
Y0021750D01*
X0037500D01*
Y0026750D01*
X0039500D01*
X0006750Y0032750D02*
X0006875D01*
Y0036250D01*
X0006750D01*
Y0036500D01*
X0010750D01*
Y0032500D01*
X0006750D01*
Y0032750D01*
X0037500Y0028500D02*
Y0038500D01*
X0039500D01*
Y0028500D01*
X0037500D01*
X0008375Y0021500D02*
Y0017000D01*
X0010875D01*
Y0021500D01*
X0008375D01*
X0010875Y0017250D02*
X0008375D01*
X0003250Y0045000D02*
Y0044000D01*
X0001250D01*
Y0045000D01*
X0003250D01*
X0007625Y0009895D02*
X0005875D01*
Y0009145D01*
X0007625D01*
Y0009895D01*
X0007375D02*
Y0009145D01*
X0006950Y0042080D02*
Y0037880D01*
X0000500D01*
Y0042080D01*
X0006950D01*
X0016015Y0032460D02*
Y0034460D01*
X0016765D01*
Y0032460D01*
X0016015D01*
X0016765Y0032710D02*
X0016015D01*
X0004500Y0030750D02*
Y0031750D01*
X0006500D01*
Y0030750D01*
X0004500D01*
X0022500Y0044750D02*
X0021500D01*
Y0048750D01*
X0022500D01*
Y0044750D01*
X0022150Y0004930D02*
X0034150D01*
Y0012030D01*
X0022150D01*
Y0004930D01*
X0004000Y0042080D02*
Y0037880D01*
G01X0011055Y0039300D02*
G03X0012305Y0038050I0001250J0000000D01*
G03X0013555Y0039300I0000000J0001250D01*
G03X0012305Y0040550I0001250J0000000D01*
G03X0011055Y0039300I0000000J0001250D01*
G01X0014750Y0027250D02*
G03X0013750Y0028250I0001000J0000000D01*
G03X0012750Y0027250I0000000J0001000D01*
G03X0013750Y0026250I0001000J0000000D01*
G03X0014750Y0027250I0000000J0001000D01*
G01X0008650Y0042105D02*
G03X0009900Y0040855I0001250J0000000D01*
G03X0011150Y0042105I0000000J0001250D01*
G03X0009900Y0043355I0001250J0000000D01*
G03X0008650Y0042105I0000000J0001250D01*
G54D142*
G01X0029618Y0032977D02*
X0029743D01*
Y0032852D01*
X0025743D02*
Y0032977D01*
X0025868D01*
Y0028977D02*
X0025743D01*
Y0029102D01*
X0029930Y0029289D02*
Y0029290D01*
X0030243D01*
X0029493Y0028977D02*
X0029617D01*
X0029618Y0028978D01*
X0029930Y0029290D01*
G54D143*
G01X0001195Y0047650D02*
Y0046350D01*
X0003445D01*
Y0047650D01*
X0003470D01*
X0001195D01*
X0010525Y0015850D02*
X0008375D01*
Y0014650D01*
X0010525D01*
Y0015850D01*
X0010875Y0014280D02*
X0011625D01*
Y0015880D01*
X0010875D01*
Y0014280D01*
X0006375Y0017220D02*
X0005625D01*
Y0015620D01*
X0006375D01*
Y0017220D01*
X0028625Y0026470D02*
X0027875D01*
Y0024870D01*
X0028625D01*
Y0026470D01*
X0004530Y0024700D02*
X0004270D01*
Y0024400D01*
X0004220D01*
X0005470D02*
Y0024700D01*
X0005210D01*
X0018150Y0014275D02*
Y0012125D01*
X0019350D01*
Y0014275D01*
X0018150D01*
X0015150Y0032085D02*
Y0031335D01*
X0016750D01*
Y0032085D01*
X0015150D01*
X0028125Y0037970D02*
X0027375D01*
Y0036370D01*
X0028125D01*
Y0037970D01*
X0023470Y0035375D02*
Y0036125D01*
X0021870D01*
Y0035375D01*
X0023470D01*
X0009030Y0010875D02*
Y0010125D01*
X0010630D01*
Y0010875D01*
X0009030D01*
X0018095Y0047275D02*
X0016945D01*
Y0046630D01*
X0018095D01*
Y0047275D01*
X0004300Y0016030D02*
Y0015770D01*
X0004600D01*
Y0015720D01*
Y0016970D02*
X0004300D01*
Y0016710D01*
X0015720Y0018375D02*
Y0019125D01*
X0014120D01*
Y0018375D01*
X0015720D01*
X0028875Y0037970D02*
X0028125D01*
Y0036370D01*
X0028875D01*
Y0037970D01*
X0015720Y0020375D02*
Y0021125D01*
X0014120D01*
Y0020375D01*
X0015720D01*
X0016720Y0021375D02*
Y0022125D01*
X0015120D01*
Y0021375D01*
X0016720D01*
X0021220Y0013375D02*
Y0014125D01*
X0019620D01*
Y0013375D01*
X0021220D01*
X0009530Y0047625D02*
Y0046875D01*
X0011130D01*
Y0047625D01*
X0009530D01*
X0033220Y0027125D02*
Y0027875D01*
X0031620D01*
Y0027125D01*
X0033220D01*
X0004625Y0017280D02*
X0005375D01*
Y0018880D01*
X0004625D01*
Y0017280D01*
X0027875Y0026470D02*
X0027125D01*
Y0024870D01*
X0027875D01*
Y0026470D01*
X0031125Y0037970D02*
X0030375D01*
Y0036370D01*
X0031125D01*
Y0037970D01*
X0021125Y0048720D02*
X0020375D01*
Y0047120D01*
X0021125D01*
Y0048720D01*
X0015720Y0022375D02*
Y0023125D01*
X0014120D01*
Y0022375D01*
X0015720D01*
X0004780Y0035875D02*
Y0035125D01*
X0006380D01*
Y0035875D01*
X0004780D01*
X0016970Y0005125D02*
Y0005875D01*
X0015370D01*
Y0005125D01*
X0016970D01*
X0004375Y0047470D02*
X0003625D01*
Y0045870D01*
X0004375D01*
Y0047470D01*
X0003625Y0044030D02*
X0004375D01*
Y0045630D01*
X0003625D01*
Y0044030D01*
X0004530Y0029200D02*
X0004270D01*
Y0028900D01*
X0004220D01*
X0005470D02*
Y0029200D01*
X0005210D01*
X0022375Y0053220D02*
X0021625D01*
Y0051620D01*
X0022375D01*
Y0053220D01*
X0015875Y0052220D02*
X0015125D01*
Y0050620D01*
X0015875D01*
Y0052220D01*
X0023470Y0029125D02*
Y0029875D01*
X0021870D01*
Y0029125D01*
X0023470D01*
X0035220Y0029625D02*
Y0030375D01*
X0033620D01*
Y0029625D01*
X0035220D01*
X0007720Y0011375D02*
Y0012125D01*
X0006120D01*
Y0011375D01*
X0007720D01*
X0021775Y0009750D02*
X0021025D01*
Y0008150D01*
X0021775D01*
Y0009750D01*
X0013150Y0040925D02*
Y0041675D01*
X0011550D01*
Y0040925D01*
X0013150D01*
X0023470Y0028125D02*
Y0028875D01*
X0021870D01*
Y0028125D01*
X0023470D01*
X0020925Y0050670D02*
X0020175D01*
Y0049070D01*
X0020925D01*
Y0050670D01*
X0019125Y0052470D02*
X0018375D01*
Y0050870D01*
X0019125D01*
Y0052470D01*
X0004780Y0034875D02*
Y0034125D01*
X0006380D01*
Y0034875D01*
X0004780D01*
X0022475Y0043910D02*
X0021725D01*
Y0042310D01*
X0022475D01*
Y0043910D01*
X0026375Y0026470D02*
X0025625D01*
Y0024870D01*
X0026375D01*
Y0026470D01*
X0013470Y0005125D02*
Y0005875D01*
X0011870D01*
Y0005125D01*
X0013470D01*
X0013750Y0050700D02*
Y0048500D01*
X0012850D01*
Y0050700D01*
X0013750D01*
X0006375Y0047470D02*
X0005625D01*
Y0045870D01*
X0006375D01*
Y0047470D01*
X0032035Y0018500D02*
X0032785D01*
Y0020100D01*
X0032035D01*
Y0018500D01*
X0024375Y0037970D02*
X0023625D01*
Y0036370D01*
X0024375D01*
Y0037970D01*
X0005720Y0005625D02*
Y0006375D01*
X0004120D01*
Y0005625D01*
X0005720D01*
X0019720Y0023375D02*
Y0024125D01*
X0018120D01*
Y0023375D01*
X0019720D01*
X0006130Y0011375D02*
Y0012125D01*
X0004530D01*
Y0011375D01*
X0006130D01*
X0004780Y0032875D02*
Y0032125D01*
X0006380D01*
Y0032875D01*
X0004780D01*
Y0036875D02*
Y0036125D01*
X0006380D01*
Y0036875D01*
X0004780D01*
X0007720Y0012125D02*
Y0012875D01*
X0006120D01*
Y0012125D01*
X0007720D01*
X0030125Y0026470D02*
X0029375D01*
Y0024870D01*
X0030125D01*
Y0026470D01*
X0033220Y0030875D02*
Y0031625D01*
X0031620D01*
Y0030875D01*
X0033220D01*
X0035220Y0033375D02*
Y0034125D01*
X0033620D01*
Y0033375D01*
X0035220D01*
X0006280Y0007375D02*
Y0006625D01*
X0007880D01*
Y0007375D01*
X0006280D01*
X0037125Y0012720D02*
X0036375D01*
Y0011120D01*
X0037125D01*
Y0012720D01*
X0020175Y0052420D02*
X0019425D01*
Y0050820D01*
X0020175D01*
Y0052420D01*
X0016125Y0008280D02*
X0016875D01*
Y0009880D01*
X0016125D01*
Y0008280D01*
X0033220Y0028625D02*
Y0029375D01*
X0031620D01*
Y0028625D01*
X0033220D01*
X0019275Y0006060D02*
X0020025D01*
Y0007660D01*
X0019275D01*
Y0006060D01*
X0006130Y0012125D02*
Y0012875D01*
X0004530D01*
Y0012125D01*
X0006130D01*
X0007780Y0047625D02*
Y0046875D01*
X0009380D01*
Y0047625D01*
X0007780D01*
X0010495Y0039730D02*
Y0040480D01*
X0008895D01*
Y0039730D01*
X0010495D01*
X0006280Y0006625D02*
Y0005875D01*
X0007880D01*
Y0006625D01*
X0006280D01*
X0035220Y0032625D02*
Y0033375D01*
X0033620D01*
Y0032625D01*
X0035220D01*
X0026625Y0037970D02*
X0025875D01*
Y0036370D01*
X0026625D01*
Y0037970D01*
X0004030Y0027625D02*
Y0026875D01*
X0005630D01*
Y0027625D01*
X0004030D01*
X0015220Y0005125D02*
Y0005875D01*
X0013620D01*
Y0005125D01*
X0015220D01*
X0035220Y0031875D02*
Y0032625D01*
X0033620D01*
Y0031875D01*
X0035220D01*
X0016970Y0005875D02*
Y0006625D01*
X0015370D01*
Y0005875D01*
X0016970D01*
X0011280Y0031875D02*
Y0031125D01*
X0012880D01*
Y0031875D01*
X0011280D01*
X0033220Y0029375D02*
Y0030125D01*
X0031620D01*
Y0029375D01*
X0033220D01*
X0021025Y0009750D02*
X0020275D01*
Y0008150D01*
X0021025D01*
Y0009750D01*
X0026035Y0018500D02*
X0026785D01*
Y0020100D01*
X0026035D01*
Y0018500D01*
X0014570Y0030305D02*
X0013820D01*
Y0028705D01*
X0014570D01*
Y0030305D01*
X0035220Y0030375D02*
Y0031125D01*
X0033620D01*
Y0030375D01*
X0035220D01*
X0039525Y0040600D02*
X0037375D01*
Y0039400D01*
X0039525D01*
Y0040600D01*
X0008875Y0007720D02*
X0008125D01*
Y0006120D01*
X0008875D01*
Y0007720D01*
X0019325Y0044030D02*
X0018275D01*
Y0042050D01*
X0019325D01*
Y0044030D01*
X0016220Y0016875D02*
Y0017625D01*
X0014620D01*
Y0016875D01*
X0016220D01*
X0037125Y0006220D02*
X0036375D01*
Y0004620D01*
X0037125D01*
Y0006220D01*
X0023470Y0033875D02*
Y0034625D01*
X0021870D01*
Y0033875D01*
X0023470D01*
X0029625Y0037970D02*
X0028875D01*
Y0036370D01*
X0029625D01*
Y0037970D01*
X0037780Y0041625D02*
Y0040875D01*
X0039380D01*
Y0041625D01*
X0037780D01*
X0005875Y0005220D02*
X0005125D01*
Y0003620D01*
X0005875D01*
Y0005220D01*
X0011280Y0034875D02*
Y0034125D01*
X0012880D01*
Y0034875D01*
X0011280D01*
X0023470Y0031125D02*
Y0031875D01*
X0021870D01*
Y0031125D01*
X0023470D01*
X0032125Y0023220D02*
X0031375D01*
Y0021620D01*
X0032125D01*
Y0023220D01*
X0033035Y0018500D02*
X0033785D01*
Y0020100D01*
X0033035D01*
Y0018500D01*
X0011280Y0032625D02*
Y0031875D01*
X0012880D01*
Y0032625D01*
X0011280D01*
X0016970Y0006625D02*
Y0007375D01*
X0015370D01*
Y0006625D01*
X0016970D01*
X0018160Y0027705D02*
Y0028455D01*
X0016560D01*
Y0027705D01*
X0018160D01*
X0033220Y0030125D02*
Y0030875D01*
X0031620D01*
Y0030125D01*
X0033220D01*
Y0034625D02*
Y0035375D01*
X0031620D01*
Y0034625D01*
X0033220D01*
X0004030Y0026625D02*
Y0025875D01*
X0005630D01*
Y0026625D01*
X0004030D01*
X0018000Y0023375D02*
Y0024125D01*
X0016400D01*
Y0023375D01*
X0018000D01*
X0033220Y0027875D02*
Y0028625D01*
X0031620D01*
Y0027875D01*
X0033220D01*
X0024875Y0023220D02*
X0024125D01*
Y0021620D01*
X0024875D01*
Y0023220D01*
X0016925Y0052420D02*
X0016175D01*
Y0050820D01*
X0016925D01*
Y0052420D01*
X0025125Y0037970D02*
X0024375D01*
Y0036370D01*
X0025125D01*
Y0037970D01*
X0034725Y0025900D02*
X0036875D01*
Y0027100D01*
X0034725D01*
Y0025900D01*
X0018705Y0027840D02*
X0019455D01*
Y0029440D01*
X0018705D01*
Y0027840D01*
X0020175Y0050670D02*
X0019425D01*
Y0049070D01*
X0020175D01*
Y0050670D01*
X0033220Y0033125D02*
Y0033875D01*
X0031620D01*
Y0033125D01*
X0033220D01*
X0011280Y0033375D02*
Y0032625D01*
X0012880D01*
Y0033375D01*
X0011280D01*
X0008875Y0013470D02*
X0008125D01*
Y0011870D01*
X0008875D01*
Y0013470D01*
X0015220Y0005875D02*
Y0006625D01*
X0013620D01*
Y0005875D01*
X0015220D01*
X0024875Y0026470D02*
X0024125D01*
Y0024870D01*
X0024875D01*
Y0026470D01*
X0039125Y0006220D02*
X0038375D01*
Y0004620D01*
X0039125D01*
Y0006220D01*
X0011280Y0036375D02*
Y0035625D01*
X0012880D01*
Y0036375D01*
X0011280D01*
X0033625Y0025280D02*
X0034375D01*
Y0026880D01*
X0033625D01*
Y0025280D01*
X0020275Y0006060D02*
X0021025D01*
Y0007660D01*
X0020275D01*
Y0006060D01*
X0018470Y0035625D02*
Y0036375D01*
X0016870D01*
Y0035625D01*
X0018470D01*
X0035220Y0031125D02*
Y0031875D01*
X0033620D01*
Y0031125D01*
X0035220D01*
X0005375Y0047470D02*
X0004625D01*
Y0045870D01*
X0005375D01*
Y0047470D01*
X0013565Y0030300D02*
X0012815D01*
Y0028700D01*
X0013565D01*
Y0030300D01*
X0023625Y0037970D02*
X0022875D01*
Y0036370D01*
X0023625D01*
Y0037970D01*
X0033220Y0031625D02*
Y0032375D01*
X0031620D01*
Y0031625D01*
X0033220D01*
X0004780Y0033875D02*
Y0033125D01*
X0006380D01*
Y0033875D01*
X0004780D01*
X0007720Y0012875D02*
Y0013625D01*
X0006120D01*
Y0012875D01*
X0007720D01*
X0020925Y0052420D02*
X0020175D01*
Y0050820D01*
X0020925D01*
Y0052420D01*
X0018735Y0030550D02*
X0019485D01*
Y0032150D01*
X0018735D01*
Y0030550D01*
X0030375Y0037970D02*
X0029625D01*
Y0036370D01*
X0030375D01*
Y0037970D01*
X0023470Y0032125D02*
Y0032875D01*
X0021870D01*
Y0032125D01*
X0023470D01*
X0011280Y0035625D02*
Y0034875D01*
X0012880D01*
Y0035625D01*
X0011280D01*
X0006725Y0048600D02*
X0006650Y0048675D01*
Y0050450D01*
X0005400Y0048600D02*
X0005460Y0048660D01*
Y0050450D01*
X0008875Y0011720D02*
X0008125D01*
Y0010120D01*
X0008875D01*
Y0011720D01*
X0015220Y0006625D02*
Y0007375D01*
X0013620D01*
Y0006625D01*
X0015220D01*
X0023470Y0033125D02*
Y0033875D01*
X0021870D01*
Y0033125D01*
X0023470D01*
X0008875Y0009720D02*
X0008125D01*
Y0008120D01*
X0008875D01*
Y0009720D01*
X0035220Y0028875D02*
Y0029625D01*
X0033620D01*
Y0028875D01*
X0035220D01*
X0012625Y0028470D02*
X0011875D01*
Y0026870D01*
X0012625D01*
Y0028470D01*
X0030875Y0026470D02*
X0030125D01*
Y0024870D01*
X0030875D01*
Y0026470D01*
X0012625Y0024220D02*
X0011875D01*
Y0022620D01*
X0012625D01*
Y0024220D01*
X0010625Y0006720D02*
X0009875D01*
Y0005120D01*
X0010625D01*
Y0006720D01*
X0025625Y0026470D02*
X0024875D01*
Y0024870D01*
X0025625D01*
Y0026470D01*
X0035030Y0025625D02*
Y0024875D01*
X0036630D01*
Y0025625D01*
X0035030D01*
X0015475Y0047850D02*
X0015400Y0047925D01*
Y0049700D01*
X0014150Y0047850D02*
X0014210Y0047910D01*
Y0049700D01*
X0033220Y0033875D02*
Y0034625D01*
X0031620D01*
Y0033875D01*
X0033220D01*
X0011280Y0034125D02*
Y0033375D01*
X0012880D01*
Y0034125D01*
X0011280D01*
X0016720Y0019375D02*
Y0020125D01*
X0015120D01*
Y0019375D01*
X0016720D01*
X0018525Y0011250D02*
X0017775D01*
Y0009650D01*
X0018525D01*
Y0011250D01*
X0020300Y0029685D02*
Y0030435D01*
X0018700D01*
Y0029685D01*
X0020300D01*
X0035030Y0023625D02*
Y0022875D01*
X0036630D01*
Y0023625D01*
X0035030D01*
X0005625Y0017280D02*
X0006375D01*
Y0018880D01*
X0005625D01*
Y0017280D01*
X0037125Y0017470D02*
X0036375D01*
Y0015870D01*
X0037125D01*
Y0017470D01*
X0009030Y0007625D02*
Y0006875D01*
X0010630D01*
Y0007625D01*
X0009030D01*
X0004030Y0023125D02*
Y0022375D01*
X0005630D01*
Y0023125D01*
X0004030D01*
X0011220Y0031125D02*
Y0031875D01*
X0009620D01*
Y0031125D01*
X0011220D01*
X0020675Y0043670D02*
X0019925D01*
Y0042070D01*
X0020675D01*
Y0043670D01*
X0033220Y0032375D02*
Y0033125D01*
X0031620D01*
Y0032375D01*
X0033220D01*
X0018470Y0034875D02*
Y0035625D01*
X0016870D01*
Y0034875D01*
X0018470D01*
X0029375Y0026470D02*
X0028625D01*
Y0024870D01*
X0029375D01*
Y0026470D01*
X0023470Y0026625D02*
Y0027375D01*
X0021870D01*
Y0026625D01*
X0023470D01*
X0010625Y0045470D02*
X0009875D01*
Y0043870D01*
X0010625D01*
Y0045470D01*
X0023470Y0030125D02*
Y0030875D01*
X0021870D01*
Y0030125D01*
X0023470D01*
X0020300Y0032435D02*
Y0033185D01*
X0018700D01*
Y0032435D01*
X0020300D01*
X0001530Y0046125D02*
Y0045375D01*
X0003130D01*
Y0046125D01*
X0001530D01*
X0004125Y0006780D02*
X0004875D01*
Y0008380D01*
X0004125D01*
Y0006780D01*
X0018275Y0006060D02*
X0019025D01*
Y0007660D01*
X0018275D01*
Y0006060D01*
X0023470Y0027375D02*
Y0028125D01*
X0021870D01*
Y0027375D01*
X0023470D01*
X0037125Y0020220D02*
X0036375D01*
Y0018620D01*
X0037125D01*
Y0020220D01*
X0019730Y0027000D02*
Y0024800D01*
X0018830D01*
Y0027000D01*
X0019730D01*
X0013470Y0006625D02*
Y0007375D01*
X0011870D01*
Y0006625D01*
X0013470D01*
X0035030Y0022625D02*
Y0021875D01*
X0036630D01*
Y0022625D01*
X0035030D01*
Y0024625D02*
Y0023875D01*
X0036630D01*
Y0024625D01*
X0035030D01*
X0027035Y0018500D02*
X0027785D01*
Y0020100D01*
X0027035D01*
Y0018500D01*
X0025875Y0037970D02*
X0025125D01*
Y0036370D01*
X0025875D01*
Y0037970D01*
X0031625Y0026470D02*
X0030875D01*
Y0024870D01*
X0031625D01*
Y0026470D01*
X0005625Y0044030D02*
X0006375D01*
Y0045630D01*
X0005625D01*
Y0044030D01*
X0032625Y0037970D02*
X0031875D01*
Y0036370D01*
X0032625D01*
Y0037970D01*
X0012425Y0050670D02*
X0011675D01*
Y0049070D01*
X0012425D01*
Y0050670D01*
X0030035Y0018500D02*
X0030785D01*
Y0020100D01*
X0030035D01*
Y0018500D01*
X0027125Y0026470D02*
X0026375D01*
Y0024870D01*
X0027125D01*
Y0026470D01*
X0011280Y0037125D02*
Y0036375D01*
X0012880D01*
Y0037125D01*
X0011280D01*
X0037125Y0015220D02*
X0036375D01*
Y0013620D01*
X0037125D01*
Y0015220D01*
X0013470Y0005875D02*
Y0006625D01*
X0011870D01*
Y0005875D01*
X0013470D01*
X0029035Y0018500D02*
X0029785D01*
Y0020100D01*
X0029035D01*
Y0018500D01*
X0031875Y0037970D02*
X0031125D01*
Y0036370D01*
X0031875D01*
Y0037970D01*
X0004030Y0022125D02*
Y0021375D01*
X0005630D01*
Y0022125D01*
X0004030D01*
X0027375Y0037970D02*
X0026625D01*
Y0036370D01*
X0027375D01*
Y0037970D01*
X0023470Y0034625D02*
Y0035375D01*
X0021870D01*
Y0034625D01*
X0023470D01*
X0004625Y0044030D02*
X0005375D01*
Y0045630D01*
X0004625D01*
Y0044030D01*
X0009875Y0011030D02*
X0010625D01*
Y0012630D01*
X0009875D01*
Y0011030D01*
X0024125Y0026470D02*
X0023375D01*
Y0024870D01*
X0024125D01*
Y0026470D01*
X0031035Y0018500D02*
X0031785D01*
Y0020100D01*
X0031035D01*
Y0018500D01*
G54D67*
X0007750Y0034500D03*
X0008750Y0033500D03*
X0013250Y0027250D03*
X0012930Y0039300D03*
X0010525Y0042105D03*
G54D68*
X0008750Y0035500D03*
X0014250Y0027250D03*
X0011680Y0039300D03*
X0009275Y0042105D03*
G54D72*
X0002750Y0044500D03*
X0033410Y0016720D03*
X0032410Y0017720D03*
Y0016720D03*
X0031410Y0017720D03*
Y0016720D03*
X0030410Y0017720D03*
Y0016720D03*
X0029410Y0017720D03*
X0028410D03*
Y0016720D03*
X0027410Y0017720D03*
Y0016720D03*
X0026410Y0017720D03*
Y0016720D03*
X0025410Y0017720D03*
Y0016720D03*
X0024410Y0017720D03*
Y0016720D03*
X0038000Y0029000D03*
X0039000Y0030000D03*
X0038000D03*
X0039000Y0031000D03*
X0038000D03*
X0039000Y0032000D03*
X0038000D03*
X0039000Y0033000D03*
Y0034000D03*
X0038000D03*
X0039000Y0035000D03*
X0038000D03*
X0039000Y0036000D03*
X0038000D03*
X0039000Y0037000D03*
X0038000D03*
X0039000Y0038000D03*
X0038000D03*
X0022000Y0047250D03*
Y0046250D03*
Y0045250D03*
X0005000Y0031250D03*
X0039000Y0026250D03*
X0038000Y0025250D03*
X0039000D03*
X0038000Y0024250D03*
X0039000D03*
X0038000Y0023250D03*
X0039000D03*
X0038000Y0022250D03*
X0039000D03*
X0006300Y0052200D03*
G54D73*
X0001750Y0044500D03*
X0033410Y0017720D03*
X0029410Y0016720D03*
X0039000Y0029000D03*
X0038000Y0033000D03*
X0022000Y0048250D03*
X0006000Y0031250D03*
X0038000Y0026250D03*
X0005300Y0052200D03*
G54D74*
X0003000Y0005378D03*
Y0006756D03*
Y0010678D03*
Y0012056D03*
Y0013434D03*
Y0033378D03*
Y0034756D03*
Y0036134D03*
X0016372Y0003000D03*
X0014994D03*
X0011372D03*
X0009994D03*
X0008616D03*
X0003000Y0025378D03*
Y0029378D03*
Y0021378D03*
Y0017378D03*
X0002989Y0052139D03*
G54D75*
X0003000Y0004000D03*
Y0009300D03*
Y0032000D03*
X0017750Y0003000D03*
X0012750D03*
X0003000Y0024000D03*
Y0028000D03*
Y0020000D03*
Y0016000D03*
X0002989Y0050761D03*
G54D78*
X0030046Y0042933D03*
G54D79*
X0030093Y0052696D03*
G54D80*
X0001700Y0039980D03*
G54D81*
X0007650Y0038980D03*
G54D82*
Y0040980D03*
Y0039980D03*
G54D83*
X0026650Y0012530D03*
G54D84*
X0029650D03*
X0028650D03*
X0027650D03*
G54D101*
X0023750Y0025250D03*
Y0026090D03*
X0028250Y0025250D03*
Y0026090D03*
X0027500Y0025250D03*
Y0026090D03*
X0006000Y0016000D03*
Y0016840D03*
X0005000Y0018500D03*
Y0017660D03*
X0008500Y0006500D03*
Y0007340D03*
X0021400Y0008530D03*
Y0009370D03*
X0020650Y0008530D03*
Y0009370D03*
X0007500Y0007000D03*
X0006660D03*
X0020650Y0007280D03*
Y0006440D03*
X0010250Y0007250D03*
X0009410D03*
X0004910Y0012500D03*
X0005750D03*
X0007500Y0006250D03*
X0006660D03*
X0010250Y0044250D03*
Y0045090D03*
X0008500Y0010500D03*
Y0011340D03*
X0010750Y0047250D03*
X0009910D03*
X0004000Y0046250D03*
Y0047090D03*
X0006500Y0011750D03*
X0007340D03*
X0010250Y0010500D03*
X0009410D03*
X0005000Y0046250D03*
Y0047090D03*
X0004000Y0045250D03*
Y0044410D03*
X0006500Y0013250D03*
X0007340D03*
X0006500Y0012500D03*
X0007340D03*
X0005000Y0045250D03*
Y0044410D03*
X0015750Y0007000D03*
X0016590D03*
X0015750Y0006250D03*
X0016590D03*
X0014000D03*
X0014840D03*
X0014000Y0007000D03*
X0014840D03*
X0012250Y0006250D03*
X0013090D03*
X0012250Y0007000D03*
X0013090D03*
X0036750Y0014000D03*
Y0014840D03*
Y0011500D03*
Y0012340D03*
X0019800Y0049450D03*
Y0050290D03*
X0016550Y0051200D03*
Y0052040D03*
X0019800Y0051200D03*
Y0052040D03*
X0020550Y0051200D03*
Y0052040D03*
X0015500Y0051000D03*
Y0051840D03*
X0018750Y0051250D03*
Y0052090D03*
X0013190Y0029080D03*
Y0029920D03*
X0014195Y0029085D03*
Y0029925D03*
X0016940Y0028080D03*
X0017780D03*
X0019080Y0029060D03*
Y0028220D03*
X0019110Y0031770D03*
Y0030930D03*
X0027410Y0019720D03*
Y0018880D03*
X0031410Y0019720D03*
Y0018880D03*
X0029410Y0019720D03*
Y0018880D03*
X0030410Y0019720D03*
Y0018880D03*
X0032410Y0019720D03*
Y0018880D03*
X0026410Y0019720D03*
Y0018880D03*
X0022250Y0032500D03*
X0023090D03*
X0024500Y0025250D03*
Y0026090D03*
X0026750Y0025250D03*
Y0026090D03*
X0032000Y0027500D03*
X0032840D03*
X0034000Y0030000D03*
X0034840D03*
X0032000Y0029750D03*
X0032840D03*
X0034000Y0029250D03*
X0034840D03*
X0032000Y0029000D03*
X0032840D03*
X0026250Y0036750D03*
Y0037590D03*
X0029250Y0036750D03*
Y0037590D03*
X0030000Y0036750D03*
Y0037590D03*
X0022250Y0033500D03*
X0023090D03*
X0025500Y0036750D03*
Y0037590D03*
X0027000Y0036750D03*
Y0037590D03*
X0022100Y0042690D03*
Y0043530D03*
X0027750Y0036750D03*
Y0037590D03*
X0028500Y0036750D03*
Y0037590D03*
X0034000Y0033750D03*
X0034840D03*
X0023250Y0036750D03*
Y0037590D03*
X0022250Y0035750D03*
X0023090D03*
X0034000Y0033000D03*
X0034840D03*
X0022250Y0035000D03*
X0023090D03*
X0034000Y0032250D03*
X0034840D03*
X0022250Y0034250D03*
X0023090D03*
X0022250Y0031500D03*
X0023090D03*
X0032000Y0035000D03*
X0032840D03*
X0032000Y0033500D03*
X0032840D03*
X0022250Y0030500D03*
X0023090D03*
X0034000Y0031500D03*
X0034840D03*
X0022250Y0029500D03*
X0023090D03*
X0022250Y0027000D03*
X0023090D03*
X0034000Y0030750D03*
X0034840D03*
X0031500Y0036750D03*
Y0037590D03*
X0030750Y0036750D03*
Y0037590D03*
X0017250Y0035250D03*
X0018090D03*
X0017250Y0036000D03*
X0018090D03*
X0024000Y0036750D03*
Y0037590D03*
X0024750Y0036750D03*
Y0037590D03*
X0004500Y0006000D03*
X0005340D03*
X0012500Y0031500D03*
X0011660D03*
X0012500Y0033750D03*
X0011660D03*
X0012500Y0034500D03*
X0011660D03*
X0012500Y0035250D03*
X0011660D03*
X0012500Y0032250D03*
X0011660D03*
X0012500Y0033000D03*
X0011660D03*
X0006000Y0034500D03*
X0005160D03*
X0012500Y0036000D03*
X0011660D03*
X0012500Y0036750D03*
X0011660D03*
X0006000Y0036500D03*
X0005160D03*
X0006000Y0032500D03*
X0005160D03*
X0005250Y0022750D03*
X0004410D03*
X0012250Y0023000D03*
Y0023840D03*
X0014500Y0022750D03*
X0015340D03*
X0015500Y0021750D03*
X0016340D03*
X0014500Y0020750D03*
X0015340D03*
X0015500Y0019750D03*
X0016340D03*
X0015000Y0017250D03*
X0015840D03*
X0036250Y0022250D03*
X0035410D03*
X0005250Y0021750D03*
X0004410D03*
X0036750Y0005000D03*
Y0005840D03*
X0005250Y0027250D03*
X0004410D03*
X0012250D03*
Y0028090D03*
X0014500Y0018750D03*
X0015340D03*
X0005250Y0026250D03*
X0004410D03*
X0036250Y0023250D03*
X0035410D03*
X0036250Y0024250D03*
X0035410D03*
X0036750Y0016250D03*
Y0017090D03*
Y0019000D03*
Y0019840D03*
X0002750Y0045750D03*
X0001910D03*
X0006000Y0018500D03*
Y0017660D03*
X0011250Y0015500D03*
Y0014660D03*
X0016780Y0023750D03*
X0017620D03*
X0016370Y0031710D03*
X0015530D03*
X0018500Y0023750D03*
X0019340D03*
X0004910Y0011750D03*
X0005750D03*
X0019650Y0007280D03*
Y0006440D03*
X0010250Y0005500D03*
Y0006340D03*
X0018150Y0010030D03*
Y0010870D03*
X0018650Y0007280D03*
Y0006440D03*
X0009000Y0047250D03*
X0008160D03*
X0008500Y0008500D03*
Y0009340D03*
Y0012250D03*
Y0013090D03*
X0010250Y0012250D03*
Y0011410D03*
X0006000Y0046250D03*
Y0047090D03*
Y0045250D03*
Y0044410D03*
X0015750Y0005500D03*
X0016590D03*
X0034000Y0026500D03*
Y0025660D03*
X0014000Y0005500D03*
X0014840D03*
X0020000Y0013750D03*
X0020840D03*
X0039000Y0041250D03*
X0038160D03*
X0012250Y0005500D03*
X0013090D03*
X0020300Y0042450D03*
Y0043290D03*
X0020550Y0049450D03*
Y0050290D03*
X0012050Y0049450D03*
Y0050290D03*
X0019080Y0032810D03*
X0019920D03*
X0019080Y0030060D03*
X0019920D03*
X0011930Y0041300D03*
X0012770D03*
X0009275Y0040105D03*
X0010115D03*
X0022250Y0028500D03*
X0023090D03*
X0025250Y0025250D03*
Y0026090D03*
X0032000Y0030500D03*
X0032840D03*
X0029000Y0025250D03*
Y0026090D03*
X0022250Y0027750D03*
X0023090D03*
X0032250Y0036750D03*
Y0037590D03*
X0030500Y0025250D03*
Y0026090D03*
X0032000Y0032000D03*
X0032840D03*
X0032000Y0031250D03*
X0032840D03*
X0032000Y0034250D03*
X0032840D03*
X0032000Y0032750D03*
X0032840D03*
X0031250Y0025250D03*
Y0026090D03*
X0033410Y0019720D03*
Y0018880D03*
X0026000Y0025250D03*
Y0026090D03*
X0029750Y0025250D03*
Y0026090D03*
X0032000Y0028250D03*
X0032840D03*
X0031750Y0022000D03*
Y0022840D03*
X0024500Y0022000D03*
Y0022840D03*
X0022000Y0052000D03*
Y0052840D03*
X0016500Y0009500D03*
Y0008660D03*
X0020750Y0047500D03*
Y0048340D03*
X0005500Y0004000D03*
Y0004840D03*
X0004500Y0008000D03*
Y0007160D03*
X0010000Y0031500D03*
X0010840D03*
X0006000Y0033500D03*
X0005160D03*
X0006000Y0035500D03*
X0005160D03*
X0038750Y0005000D03*
Y0005840D03*
X0036250Y0025250D03*
X0035410D03*
G54D102*
X0017800Y0046950D03*
X0017240D03*
G54D103*
X0019280Y0025250D03*
Y0026550D03*
X0013300Y0048950D03*
Y0050250D03*
G54D104*
X0018800Y0042450D03*
Y0043630D03*
G54D106*
X0014800Y0047950D03*
Y0049650D03*
X0006050Y0048700D03*
Y0050400D03*
G54D109*
X0015800Y0045950D03*
Y0042407D03*
G54D110*
X0010000Y0015250D03*
X0008900D03*
X0035250Y0026500D03*
X0036350D03*
X0039000Y0040000D03*
X0037900D03*
G54D111*
X0018750Y0013750D03*
Y0012650D03*
G54D112*
X0004210Y0016370D03*
G54D113*
X0005000Y0016000D03*
Y0016740D03*
G54D114*
X0004870Y0024790D03*
Y0029290D03*
G54D115*
X0004500Y0024000D03*
X0005240D03*
X0004500Y0028500D03*
X0005240D03*
G54D116*
X0003000Y0047000D03*
X0001650D03*
G54D117*
X0011250Y0023000D03*
Y0024000D03*
Y0025000D03*
X0007700D03*
Y0024000D03*
Y0023000D03*
X0011250Y0027000D03*
Y0028000D03*
Y0029000D03*
X0007700D03*
Y0028000D03*
Y0027000D03*
G54D118*
X0011500Y0017750D03*
Y0018250D03*
Y0018750D03*
Y0019250D03*
Y0019750D03*
Y0020250D03*
Y0020750D03*
Y0021250D03*
X0007750D03*
Y0020750D03*
Y0020250D03*
Y0019750D03*
Y0019250D03*
Y0018750D03*
Y0018250D03*
Y0017750D03*
Y0017250D03*
G54D119*
X0011500D03*
G54D120*
X0029220Y0033235D03*
X0029023D03*
X0028826D03*
X0028432D03*
X0028235D03*
X0028038D03*
X0027841D03*
X0027644D03*
X0027447D03*
X0027250D03*
X0027053D03*
X0026856D03*
X0026462D03*
X0026265D03*
Y0028720D03*
X0026659D03*
X0026856D03*
X0027053D03*
X0027250D03*
X0027447D03*
X0027644D03*
X0027841D03*
X0028038D03*
X0028235D03*
X0028629D03*
X0028826D03*
X0029023D03*
X0029220D03*
G54D121*
X0028629Y0033235D03*
X0026659D03*
X0026462Y0028720D03*
X0028432D03*
G54D122*
X0030000Y0029697D03*
Y0029894D03*
Y0030091D03*
Y0030288D03*
Y0030485D03*
Y0030682D03*
Y0030879D03*
Y0031076D03*
Y0031470D03*
Y0031667D03*
Y0031864D03*
Y0032061D03*
Y0032258D03*
Y0032455D03*
X0025485D03*
Y0032258D03*
Y0032061D03*
Y0031864D03*
Y0031667D03*
Y0031470D03*
Y0031273D03*
Y0030879D03*
Y0030682D03*
Y0030485D03*
Y0030288D03*
Y0030091D03*
Y0029894D03*
Y0029697D03*
Y0029500D03*
G54D123*
X0030000D03*
Y0031273D03*
X0025485Y0031076D03*
G54D124*
X0031168Y0053661D03*
Y0041890D03*
G54D125*
X0023255Y0043582D03*
G54D126*
X0023452Y0042598D03*
Y0042992D03*
G54D127*
X0030180Y0050610D03*
X0030377Y0049626D03*
X0030495Y0048641D03*
Y0047657D03*
X0030377Y0046673D03*
Y0045689D03*
Y0044704D03*
Y0044063D03*
X0031062Y0051594D03*
G54D128*
X0007000Y0010500D03*
X0006500D03*
X0006000D03*
Y0008540D03*
X0006500D03*
X0007000D03*
X0007500D03*
X0015000Y0011000D03*
X0014500D03*
X0014000D03*
X0013500D03*
X0013000D03*
X0012500D03*
X0012000D03*
Y0009040D03*
X0012500D03*
X0013000D03*
X0013500D03*
X0014000D03*
X0014500D03*
X0015000D03*
X0015500D03*
G54D129*
X0007500Y0010500D03*
X0015500Y0011000D03*
G54D130*
X0017370Y0033210D03*
Y0033710D03*
Y0034210D03*
X0015410D03*
Y0033710D03*
Y0033210D03*
Y0032710D03*
X0007050Y0045700D03*
Y0045200D03*
Y0044700D03*
X0009010D03*
Y0045200D03*
Y0045700D03*
Y0046200D03*
X0017440Y0029580D03*
Y0030080D03*
Y0030580D03*
X0015480D03*
Y0030080D03*
Y0029580D03*
Y0029080D03*
G54D131*
X0017370Y0032710D03*
X0007050Y0046200D03*
X0017440Y0029080D03*
G54D132*
X0017705Y0049200D03*
G54D133*
X0018800Y0048450D03*
Y0048950D03*
Y0049450D03*
Y0049950D03*
X0016610D03*
Y0049450D03*
Y0048950D03*
Y0048450D03*
G54D135*
X0019650Y0010530D03*
X0019394D03*
X0019138D03*
X0018882D03*
Y0008191D03*
X0019138D03*
X0019394D03*
X0019650D03*
G54D136*
X0017296Y0025144D03*
Y0025340D03*
Y0025537D03*
X0018477D03*
Y0025340D03*
Y0025144D03*
G54D137*
X0018280Y0024750D03*
X0018083D03*
X0017886D03*
X0017689D03*
X0017493D03*
Y0025931D03*
X0017689D03*
X0017886D03*
X0018083D03*
X0018280D03*
G54D138*
X0026250Y0022500D03*
X0029990D03*
M02*
