*
G04 Mass Parameters ***
*
G04 Image ***
*
%INC:\SRC\BSM-2\SCHEMATICS\BSM-2.SMT*%
%ICAS*%
%MOIN*%
%IPPOS*%
%ASAXBY*%
G74*%FSLAN2X34Y34*%
*
G04 Aperture Definitions ***
*
%ADD10R,0.0500X0.0500*%
%ADD11C,0.0520*%
%ADD12R,0.0520X0.0520*%
%ADD13R,0.0320X0.0380*%
%ADD14R,0.0600X0.0600*%
%ADD15R,0.0740X0.0480*%
%ADD16C,0.0570*%
%ADD17R,0.0570X0.0570*%
%ADD18R,0.0900X0.1000*%
%ADD19C,0.0740*%
%ADD20C,0.0580*%
%ADD21R,0.0580X0.0580*%
%ADD22C,0.0748*%
%ADD23R,0.0748X0.0748*%
%ADD24R,0.1968X0.1575*%
%ADD25R,0.0720X0.0780*%
%ADD26R,0.0780X0.0720*%
%ADD27R,0.0500X0.0340*%
%ADD28R,0.0400X0.0340*%
%ADD29R,0.0340X0.0500*%
%ADD30R,0.0340X0.0400*%
%ADD31R,0.0640X0.1000*%
%ADD32C,0.2362*%
%ADD33R,0.0600X0.0700*%
%ADD34O,0.0860X0.0240*%
%ADD35R,0.0860X0.0240*%
%ADD36O,0.0110X0.0700*%
%ADD37R,0.0110X0.0700*%
%ADD38O,0.0700X0.0110*%
%ADD39R,0.0700X0.0110*%
%ADD40R,0.1181X0.0984*%
%ADD41C,0.0680*%
%ADD42C,0.0840*%
%ADD43R,0.0984X0.0275*%
%ADD44R,0.1378X0.0275*%
%ADD45R,0.1496X0.0433*%
%ADD46O,0.0250X0.0940*%
%ADD47R,0.0250X0.0940*%
%ADD48C,0.1470*%
%ADD49R,0.0750X0.0750*%
%ADD50C,0.0750*%
%ADD51O,0.0940X0.0250*%
%ADD52R,0.0940X0.0250*%
%ADD53R,0.0950X0.1220*%
%ADD54R,0.0750X0.0240*%
%ADD55R,0.0550X0.0550*%
%ADD56C,0.0550*%
%ADD57R,0.0177X0.0701*%
%ADD58O,0.0394X0.0118*%
%ADD59O,0.0118X0.0394*%
%ADD60R,0.2165X0.0787*%
%ADD61C,0.0375*%
%ADD62C,0.0280*%
%ADD63C,0.0120*%
%ADD64C,0.0080*%
%ADD65C,0.0280*%
%ADD66C,0.0500*%
%ADD67C,0.0520*%
%ADD68R,0.0520X0.0520*%
%ADD69C,0.0570*%
%ADD70R,0.0570X0.0570*%
%ADD71C,0.0740*%
%ADD72C,0.0580*%
%ADD73R,0.0580X0.0580*%
%ADD74C,0.0748*%
%ADD75R,0.0748X0.0748*%
%ADD76R,0.0500X0.0670*%
%ADD77C,0.2362*%
%ADD78C,0.0680*%
%ADD79C,0.0840*%
%ADD80C,0.1470*%
%ADD81R,0.0750X0.0750*%
%ADD82C,0.0750*%
%ADD83R,0.0550X0.0550*%
%ADD84C,0.0550*%
%ADD85C,0.0280*%
%ADD86C,0.0720*%
%ADD87R,0.0720X0.0720*%
%ADD88R,0.0740X0.0740*%
%ADD89C,0.0900*%
%ADD90C,0.0780*%
%ADD91R,0.0780X0.0780*%
%ADD92C,0.0945*%
%ADD93R,0.0945X0.0945*%
%ADD94C,0.2401*%
%ADD95C,0.0880*%
%ADD96C,0.1040*%
%ADD97C,0.1750*%
%ADD98R,0.0950X0.0950*%
%ADD99C,0.0950*%
%ADD100C,0.0750*%
%ADD101R,0.0500X0.0500*%
%ADD102R,0.0320X0.0380*%
%ADD103R,0.0600X0.0600*%
%ADD104R,0.0740X0.0480*%
%ADD105R,0.0680X0.0680*%
%ADD106R,0.0900X0.1000*%
%ADD107C,0.0866*%
%ADD108R,0.0866X0.0866*%
%ADD109R,0.1968X0.1575*%
%ADD110R,0.0720X0.0780*%
%ADD111R,0.0780X0.0720*%
%ADD112R,0.0500X0.0340*%
%ADD113R,0.0400X0.0340*%
%ADD114R,0.0340X0.0500*%
%ADD115R,0.0340X0.0400*%
%ADD116R,0.0640X0.1000*%
%ADD117R,0.0600X0.0700*%
%ADD118O,0.0860X0.0240*%
%ADD119R,0.0860X0.0240*%
%ADD120O,0.0110X0.0700*%
%ADD121R,0.0110X0.0700*%
%ADD122O,0.0700X0.0110*%
%ADD123R,0.0700X0.0110*%
%ADD124R,0.1181X0.0984*%
%ADD125R,0.0984X0.0275*%
%ADD126R,0.1378X0.0275*%
%ADD127R,0.1496X0.0433*%
%ADD128O,0.0250X0.0940*%
%ADD129R,0.0250X0.0940*%
%ADD130O,0.0940X0.0250*%
%ADD131R,0.0940X0.0250*%
%ADD132R,0.0950X0.1220*%
%ADD133R,0.0750X0.0240*%
%ADD134C,0.2450*%
%ADD135R,0.0177X0.0701*%
%ADD136O,0.0394X0.0118*%
%ADD137O,0.0118X0.0394*%
%ADD138R,0.2165X0.0787*%
%ADD139C,0.0160*%
%ADD140C,0.0160*%
*
G04 Plot Data ***
*
G54D65*
X0006000Y0023500D03*
G54D67*
X0007750Y0034500D03*
X0008750Y0033500D03*
X0013250Y0027250D03*
X0012930Y0039300D03*
X0010525Y0042105D03*
G54D68*
X0008750Y0035500D03*
X0014250Y0027250D03*
X0011680Y0039300D03*
X0009275Y0042105D03*
G54D72*
X0002750Y0044500D03*
X0033410Y0016720D03*
X0032410Y0017720D03*
Y0016720D03*
X0031410Y0017720D03*
Y0016720D03*
X0030410Y0017720D03*
Y0016720D03*
X0029410Y0017720D03*
X0028410D03*
Y0016720D03*
X0027410Y0017720D03*
Y0016720D03*
X0026410Y0017720D03*
Y0016720D03*
X0025410Y0017720D03*
Y0016720D03*
X0024410Y0017720D03*
Y0016720D03*
X0038000Y0029000D03*
X0039000Y0030000D03*
X0038000D03*
X0039000Y0031000D03*
X0038000D03*
X0039000Y0032000D03*
X0038000D03*
X0039000Y0033000D03*
Y0034000D03*
X0038000D03*
X0039000Y0035000D03*
X0038000D03*
X0039000Y0036000D03*
X0038000D03*
X0039000Y0037000D03*
X0038000D03*
X0039000Y0038000D03*
X0038000D03*
X0022000Y0047250D03*
Y0046250D03*
Y0045250D03*
X0005000Y0031250D03*
X0039000Y0026250D03*
X0038000Y0025250D03*
X0039000D03*
X0038000Y0024250D03*
X0039000D03*
X0038000Y0023250D03*
X0039000D03*
X0038000Y0022250D03*
X0039000D03*
X0006300Y0052200D03*
G54D73*
X0001750Y0044500D03*
X0033410Y0017720D03*
X0029410Y0016720D03*
X0039000Y0029000D03*
X0038000Y0033000D03*
X0022000Y0048250D03*
X0006000Y0031250D03*
X0038000Y0026250D03*
X0005300Y0052200D03*
G54D77*
X0001500Y0054500D03*
X0038120Y0047750D03*
X0039500Y0054280D03*
Y0001500D03*
X0001500D03*
G54D78*
X0030046Y0042933D03*
X0038250Y0015000D03*
Y0012500D03*
Y0017500D03*
Y0019000D03*
G54D79*
X0030093Y0052696D03*
X0021000Y0020000D03*
Y0017000D03*
X0023000D03*
Y0020000D03*
X0036250Y0007250D03*
X0039250D03*
Y0009250D03*
X0036250D03*
X0009300Y0051450D03*
X0007900Y0049450D03*
G54D80*
X0001700Y0039980D03*
G54D81*
X0007650Y0038980D03*
G54D82*
Y0040980D03*
Y0039980D03*
G54D83*
X0026650Y0012530D03*
G54D84*
X0029650D03*
X0028650D03*
X0027650D03*
G54D101*
X0023750Y0025250D03*
Y0026090D03*
X0028250Y0025250D03*
Y0026090D03*
X0027500Y0025250D03*
Y0026090D03*
X0006000Y0016000D03*
Y0016840D03*
X0005000Y0018500D03*
Y0017660D03*
X0008500Y0006500D03*
Y0007340D03*
X0021400Y0008530D03*
Y0009370D03*
X0020650Y0008530D03*
Y0009370D03*
X0007500Y0007000D03*
X0006660D03*
X0020650Y0007280D03*
Y0006440D03*
X0010250Y0007250D03*
X0009410D03*
X0004910Y0012500D03*
X0005750D03*
X0007500Y0006250D03*
X0006660D03*
X0010250Y0044250D03*
Y0045090D03*
X0008500Y0010500D03*
Y0011340D03*
X0010750Y0047250D03*
X0009910D03*
X0004000Y0046250D03*
Y0047090D03*
X0006500Y0011750D03*
X0007340D03*
X0010250Y0010500D03*
X0009410D03*
X0005000Y0046250D03*
Y0047090D03*
X0004000Y0045250D03*
Y0044410D03*
X0006500Y0013250D03*
X0007340D03*
X0006500Y0012500D03*
X0007340D03*
X0005000Y0045250D03*
Y0044410D03*
X0015750Y0007000D03*
X0016590D03*
X0015750Y0006250D03*
X0016590D03*
X0014000D03*
X0014840D03*
X0014000Y0007000D03*
X0014840D03*
X0012250Y0006250D03*
X0013090D03*
X0012250Y0007000D03*
X0013090D03*
X0036750Y0014000D03*
Y0014840D03*
Y0011500D03*
Y0012340D03*
X0019800Y0049450D03*
Y0050290D03*
X0016550Y0051200D03*
Y0052040D03*
X0019800Y0051200D03*
Y0052040D03*
X0020550Y0051200D03*
Y0052040D03*
X0015500Y0051000D03*
Y0051840D03*
X0018750Y0051250D03*
Y0052090D03*
X0013190Y0029080D03*
Y0029920D03*
X0014195Y0029085D03*
Y0029925D03*
X0016940Y0028080D03*
X0017780D03*
X0019080Y0029060D03*
Y0028220D03*
X0019110Y0031770D03*
Y0030930D03*
X0027410Y0019720D03*
Y0018880D03*
X0031410Y0019720D03*
Y0018880D03*
X0029410Y0019720D03*
Y0018880D03*
X0030410Y0019720D03*
Y0018880D03*
X0032410Y0019720D03*
Y0018880D03*
X0026410Y0019720D03*
Y0018880D03*
X0022250Y0032500D03*
X0023090D03*
X0024500Y0025250D03*
Y0026090D03*
X0026750Y0025250D03*
Y0026090D03*
X0032000Y0027500D03*
X0032840D03*
X0034000Y0030000D03*
X0034840D03*
X0032000Y0029750D03*
X0032840D03*
X0034000Y0029250D03*
X0034840D03*
X0032000Y0029000D03*
X0032840D03*
X0026250Y0036750D03*
Y0037590D03*
X0029250Y0036750D03*
Y0037590D03*
X0030000Y0036750D03*
Y0037590D03*
X0022250Y0033500D03*
X0023090D03*
X0025500Y0036750D03*
Y0037590D03*
X0027000Y0036750D03*
Y0037590D03*
X0022100Y0042690D03*
Y0043530D03*
X0027750Y0036750D03*
Y0037590D03*
X0028500Y0036750D03*
Y0037590D03*
X0034000Y0033750D03*
X0034840D03*
X0023250Y0036750D03*
Y0037590D03*
X0022250Y0035750D03*
X0023090D03*
X0034000Y0033000D03*
X0034840D03*
X0022250Y0035000D03*
X0023090D03*
X0034000Y0032250D03*
X0034840D03*
X0022250Y0034250D03*
X0023090D03*
X0022250Y0031500D03*
X0023090D03*
X0032000Y0035000D03*
X0032840D03*
X0032000Y0033500D03*
X0032840D03*
X0022250Y0030500D03*
X0023090D03*
X0034000Y0031500D03*
X0034840D03*
X0022250Y0029500D03*
X0023090D03*
X0022250Y0027000D03*
X0023090D03*
X0034000Y0030750D03*
X0034840D03*
X0031500Y0036750D03*
Y0037590D03*
X0030750Y0036750D03*
Y0037590D03*
X0017250Y0035250D03*
X0018090D03*
X0017250Y0036000D03*
X0018090D03*
X0024000Y0036750D03*
Y0037590D03*
X0024750Y0036750D03*
Y0037590D03*
X0004500Y0006000D03*
X0005340D03*
X0012500Y0031500D03*
X0011660D03*
X0012500Y0033750D03*
X0011660D03*
X0012500Y0034500D03*
X0011660D03*
X0012500Y0035250D03*
X0011660D03*
X0012500Y0032250D03*
X0011660D03*
X0012500Y0033000D03*
X0011660D03*
X0006000Y0034500D03*
X0005160D03*
X0012500Y0036000D03*
X0011660D03*
X0012500Y0036750D03*
X0011660D03*
X0006000Y0036500D03*
X0005160D03*
X0006000Y0032500D03*
X0005160D03*
X0005250Y0022750D03*
X0004410D03*
X0012250Y0023000D03*
Y0023840D03*
X0014500Y0022750D03*
X0015340D03*
X0015500Y0021750D03*
X0016340D03*
X0014500Y0020750D03*
X0015340D03*
X0015500Y0019750D03*
X0016340D03*
X0015000Y0017250D03*
X0015840D03*
X0036250Y0022250D03*
X0035410D03*
X0005250Y0021750D03*
X0004410D03*
X0036750Y0005000D03*
Y0005840D03*
X0005250Y0027250D03*
X0004410D03*
X0012250D03*
Y0028090D03*
X0014500Y0018750D03*
X0015340D03*
X0005250Y0026250D03*
X0004410D03*
X0036250Y0023250D03*
X0035410D03*
X0036250Y0024250D03*
X0035410D03*
X0036750Y0016250D03*
Y0017090D03*
Y0019000D03*
Y0019840D03*
X0002750Y0045750D03*
X0001910D03*
X0006000Y0018500D03*
Y0017660D03*
X0011250Y0015500D03*
Y0014660D03*
X0016780Y0023750D03*
X0017620D03*
X0016370Y0031710D03*
X0015530D03*
X0018500Y0023750D03*
X0019340D03*
X0004910Y0011750D03*
X0005750D03*
X0019650Y0007280D03*
Y0006440D03*
X0010250Y0005500D03*
Y0006340D03*
X0018150Y0010030D03*
Y0010870D03*
X0018650Y0007280D03*
Y0006440D03*
X0009000Y0047250D03*
X0008160D03*
X0008500Y0008500D03*
Y0009340D03*
Y0012250D03*
Y0013090D03*
X0010250Y0012250D03*
Y0011410D03*
X0006000Y0046250D03*
Y0047090D03*
Y0045250D03*
Y0044410D03*
X0015750Y0005500D03*
X0016590D03*
X0034000Y0026500D03*
Y0025660D03*
X0014000Y0005500D03*
X0014840D03*
X0020000Y0013750D03*
X0020840D03*
X0039000Y0041250D03*
X0038160D03*
X0012250Y0005500D03*
X0013090D03*
X0020300Y0042450D03*
Y0043290D03*
X0020550Y0049450D03*
Y0050290D03*
X0012050Y0049450D03*
Y0050290D03*
X0019080Y0032810D03*
X0019920D03*
X0019080Y0030060D03*
X0019920D03*
X0011930Y0041300D03*
X0012770D03*
X0009275Y0040105D03*
X0010115D03*
X0022250Y0028500D03*
X0023090D03*
X0025250Y0025250D03*
Y0026090D03*
X0032000Y0030500D03*
X0032840D03*
X0029000Y0025250D03*
Y0026090D03*
X0022250Y0027750D03*
X0023090D03*
X0032250Y0036750D03*
Y0037590D03*
X0030500Y0025250D03*
Y0026090D03*
X0032000Y0032000D03*
X0032840D03*
X0032000Y0031250D03*
X0032840D03*
X0032000Y0034250D03*
X0032840D03*
X0032000Y0032750D03*
X0032840D03*
X0031250Y0025250D03*
Y0026090D03*
X0033410Y0019720D03*
Y0018880D03*
X0026000Y0025250D03*
Y0026090D03*
X0029750Y0025250D03*
Y0026090D03*
X0032000Y0028250D03*
X0032840D03*
X0031750Y0022000D03*
Y0022840D03*
X0024500Y0022000D03*
Y0022840D03*
X0022000Y0052000D03*
Y0052840D03*
X0016500Y0009500D03*
Y0008660D03*
X0020750Y0047500D03*
Y0048340D03*
X0005500Y0004000D03*
Y0004840D03*
X0004500Y0008000D03*
Y0007160D03*
X0010000Y0031500D03*
X0010840D03*
X0006000Y0033500D03*
X0005160D03*
X0006000Y0035500D03*
X0005160D03*
X0038750Y0005000D03*
Y0005840D03*
X0036250Y0025250D03*
X0035410D03*
G54D102*
X0017800Y0046950D03*
X0017240D03*
G54D103*
X0019280Y0025250D03*
Y0026550D03*
X0013300Y0048950D03*
Y0050250D03*
G54D104*
X0018800Y0042450D03*
Y0043630D03*
G54D105*
X0038250Y0014000D03*
Y0011500D03*
Y0016500D03*
Y0020000D03*
G54D106*
X0014800Y0047950D03*
Y0049650D03*
X0006050Y0048700D03*
Y0050400D03*
G54D107*
X0003000Y0005378D03*
Y0006756D03*
Y0010678D03*
Y0012056D03*
Y0013434D03*
Y0033378D03*
Y0034756D03*
Y0036134D03*
X0016372Y0003000D03*
X0014994D03*
X0011372D03*
X0009994D03*
X0008616D03*
X0003000Y0025378D03*
Y0029378D03*
Y0021378D03*
Y0017378D03*
X0002989Y0052139D03*
G54D108*
X0003000Y0004000D03*
Y0009300D03*
Y0032000D03*
X0017750Y0003000D03*
X0012750D03*
X0003000Y0024000D03*
Y0028000D03*
Y0020000D03*
Y0016000D03*
X0002989Y0050761D03*
G54D109*
X0015800Y0045950D03*
Y0042407D03*
G54D110*
X0010000Y0015250D03*
X0008900D03*
X0035250Y0026500D03*
X0036350D03*
X0039000Y0040000D03*
X0037900D03*
G54D111*
X0018750Y0013750D03*
Y0012650D03*
G54D112*
X0004210Y0016370D03*
G54D113*
X0005000Y0016000D03*
Y0016740D03*
G54D114*
X0004870Y0024790D03*
Y0029290D03*
G54D115*
X0004500Y0024000D03*
X0005240D03*
X0004500Y0028500D03*
X0005240D03*
G54D116*
X0003000Y0047000D03*
X0001650D03*
G54D117*
X0011250Y0023000D03*
Y0024000D03*
Y0025000D03*
X0007700D03*
Y0024000D03*
Y0023000D03*
X0011250Y0027000D03*
Y0028000D03*
Y0029000D03*
X0007700D03*
Y0028000D03*
Y0027000D03*
G54D118*
X0011500Y0017750D03*
Y0018250D03*
Y0018750D03*
Y0019250D03*
Y0019750D03*
Y0020250D03*
Y0020750D03*
Y0021250D03*
X0007750D03*
Y0020750D03*
Y0020250D03*
Y0019750D03*
Y0019250D03*
Y0018750D03*
Y0018250D03*
Y0017750D03*
Y0017250D03*
G54D119*
X0011500D03*
G54D120*
X0029220Y0033235D03*
X0029023D03*
X0028826D03*
X0028432D03*
X0028235D03*
X0028038D03*
X0027841D03*
X0027644D03*
X0027447D03*
X0027250D03*
X0027053D03*
X0026856D03*
X0026462D03*
X0026265D03*
Y0028720D03*
X0026659D03*
X0026856D03*
X0027053D03*
X0027250D03*
X0027447D03*
X0027644D03*
X0027841D03*
X0028038D03*
X0028235D03*
X0028629D03*
X0028826D03*
X0029023D03*
X0029220D03*
G54D121*
X0028629Y0033235D03*
X0026659D03*
X0026462Y0028720D03*
X0028432D03*
G54D122*
X0030000Y0029697D03*
Y0029894D03*
Y0030091D03*
Y0030288D03*
Y0030485D03*
Y0030682D03*
Y0030879D03*
Y0031076D03*
Y0031470D03*
Y0031667D03*
Y0031864D03*
Y0032061D03*
Y0032258D03*
Y0032455D03*
X0025485D03*
Y0032258D03*
Y0032061D03*
Y0031864D03*
Y0031667D03*
Y0031470D03*
Y0031273D03*
Y0030879D03*
Y0030682D03*
Y0030485D03*
Y0030288D03*
Y0030091D03*
Y0029894D03*
Y0029697D03*
Y0029500D03*
G54D123*
X0030000D03*
Y0031273D03*
X0025485Y0031076D03*
G54D124*
X0031168Y0053661D03*
Y0041890D03*
G54D125*
X0023255Y0043582D03*
G54D126*
X0023452Y0042598D03*
Y0042992D03*
G54D127*
X0030180Y0050610D03*
X0030377Y0049626D03*
X0030495Y0048641D03*
Y0047657D03*
X0030377Y0046673D03*
Y0045689D03*
Y0044704D03*
Y0044063D03*
X0031062Y0051594D03*
G54D128*
X0007000Y0010500D03*
X0006500D03*
X0006000D03*
Y0008540D03*
X0006500D03*
X0007000D03*
X0007500D03*
X0015000Y0011000D03*
X0014500D03*
X0014000D03*
X0013500D03*
X0013000D03*
X0012500D03*
X0012000D03*
Y0009040D03*
X0012500D03*
X0013000D03*
X0013500D03*
X0014000D03*
X0014500D03*
X0015000D03*
X0015500D03*
G54D129*
X0007500Y0010500D03*
X0015500Y0011000D03*
G54D130*
X0017370Y0033210D03*
Y0033710D03*
Y0034210D03*
X0015410D03*
Y0033710D03*
Y0033210D03*
Y0032710D03*
X0007050Y0045700D03*
Y0045200D03*
Y0044700D03*
X0009010D03*
Y0045200D03*
Y0045700D03*
Y0046200D03*
X0017440Y0029580D03*
Y0030080D03*
Y0030580D03*
X0015480D03*
Y0030080D03*
Y0029580D03*
Y0029080D03*
G54D131*
X0017370Y0032710D03*
X0007050Y0046200D03*
X0017440Y0029080D03*
G54D132*
X0017705Y0049200D03*
G54D133*
X0018800Y0048450D03*
Y0048950D03*
Y0049450D03*
Y0049950D03*
X0016610D03*
Y0049450D03*
Y0048950D03*
Y0048450D03*
G54D134*
X0032700Y0008530D03*
X0023600D03*
G54D135*
X0019650Y0010530D03*
X0019394D03*
X0019138D03*
X0018882D03*
Y0008191D03*
X0019138D03*
X0019394D03*
X0019650D03*
G54D136*
X0017296Y0025144D03*
Y0025340D03*
Y0025537D03*
X0018477D03*
Y0025340D03*
Y0025144D03*
G54D137*
X0018280Y0024750D03*
X0018083D03*
X0017886D03*
X0017689D03*
X0017493D03*
Y0025931D03*
X0017689D03*
X0017886D03*
X0018083D03*
X0018280D03*
G54D138*
X0026250Y0022500D03*
X0029990D03*
G54D139*
X0011250Y0008125D03*
X0031625Y0046750D03*
X0029250Y0049625D03*
X0016250Y0039000D03*
X0012500Y0008250D03*
X0035375Y0030750D03*
X0033125Y0041000D03*
X0016000Y0038750D03*
X0012000Y0008250D03*
X0026875Y0053875D03*
X0016750Y0038250D03*
X0014375Y0017250D03*
X0029250Y0038250D03*
X0015000Y0021750D03*
X0016500Y0039500D03*
X0030750D03*
Y0038125D03*
X0035125Y0004000D03*
X0034875Y0015625D03*
X0025250Y0054375D03*
X0020625Y0035750D03*
X0021000Y0024250D03*
X0027750Y0038125D03*
Y0039000D03*
X0036750Y0038750D03*
X0035500Y0032250D03*
X0012625Y0046250D03*
X0003750Y0026750D03*
X0034500Y0039250D03*
X0021375Y0032250D03*
X0037000Y0038500D03*
X0011625Y0010000D03*
X0015750Y0039125D03*
X0028500Y0039250D03*
Y0038125D03*
X0037250Y0021125D03*
X0020750D03*
X0020250Y0035000D03*
X0033375Y0033500D03*
X0033750Y0020500D03*
X0004125Y0028500D03*
X0039750Y0015750D03*
X0004500Y0021000D03*
X0026250Y0050625D03*
Y0038250D03*
X0022375Y0019375D03*
X0030000Y0038375D03*
X0034875Y0023250D03*
X0037000Y0020875D03*
X0035750Y0031500D03*
X0034250Y0024250D03*
Y0015875D03*
X0037250Y0039375D03*
X0021500Y0040250D03*
Y0033500D03*
X0035500Y0011875D03*
Y0029250D03*
G54D140*
X0032875Y0041875D03*
Y0047625D03*
X0032250Y0045625D03*
X0034000Y0014625D03*
X0033500Y0027500D03*
X0019750Y0014500D03*
X0032250Y0041250D03*
X0031750Y0048750D03*
X0032410Y0034590D03*
X0032250Y0038125D03*
X0021625Y0021500D03*
Y0030500D03*
X0016500Y0016375D03*
Y0008125D03*
X0040000Y0039000D03*
X0019000Y0040750D03*
X0019125Y0033375D03*
X0014875Y0007625D03*
X0015375Y0014875D03*
X0018125Y0004625D03*
X0028625Y0014500D03*
X0018125D03*
Y0009375D03*
X0036750Y0025250D03*
Y0015500D03*
X0011125Y0013750D03*
X0009125Y0008500D03*
X0040000Y0019250D03*
X0025500Y0044750D03*
Y0038250D03*
X0033375Y0029000D03*
X0033250Y0023875D03*
X0009375Y0022375D03*
Y0034875D03*
X0035750Y0035500D03*
X0033375Y0039750D03*
X0021250D03*
X0021625Y0031500D03*
X0023625Y0031000D03*
X0032375Y0022250D03*
X0031500Y0038500D03*
X0034875Y0034375D03*
X0034000Y0021375D03*
X0035125Y0039875D03*
X0018125Y0041000D03*
Y0036750D03*
X0035875Y0021500D03*
X0035375Y0033000D03*
X0034500Y0003250D03*
X0013125Y0046625D03*
X0008875Y0014125D03*
X0021375Y0020875D03*
Y0029500D03*
X0019750Y0029000D03*
M02*
