*
G04 Mass Parameters ***
*
G04 Image ***
*
%INC:\SRC\BSM-2\SCHEMATICS\BSM-2.FAB*%
%ICAS*%
%MOIN*%
%IPPOS*%
%ASAXBY*%
G74*%FSLAN2X34Y34*%
*
G04 Aperture Definitions ***
*
%ADD10R,0.0500X0.0500*%
%ADD11C,0.0520*%
%ADD12R,0.0520X0.0520*%
%ADD13R,0.0320X0.0380*%
%ADD14R,0.0600X0.0600*%
%ADD15R,0.0740X0.0480*%
%ADD16C,0.0570*%
%ADD17R,0.0570X0.0570*%
%ADD18R,0.0900X0.1000*%
%ADD19C,0.0740*%
%ADD20C,0.0580*%
%ADD21R,0.0580X0.0580*%
%ADD22C,0.0748*%
%ADD23R,0.0748X0.0748*%
%ADD24R,0.1968X0.1575*%
%ADD25R,0.0720X0.0780*%
%ADD26R,0.0780X0.0720*%
%ADD27R,0.0500X0.0340*%
%ADD28R,0.0400X0.0340*%
%ADD29R,0.0340X0.0500*%
%ADD30R,0.0340X0.0400*%
%ADD31R,0.0640X0.1000*%
%ADD32C,0.2362*%
%ADD33R,0.0600X0.0700*%
%ADD34O,0.0860X0.0240*%
%ADD35R,0.0860X0.0240*%
%ADD36O,0.0110X0.0700*%
%ADD37R,0.0110X0.0700*%
%ADD38O,0.0700X0.0110*%
%ADD39R,0.0700X0.0110*%
%ADD40R,0.1181X0.0984*%
%ADD41C,0.0680*%
%ADD42C,0.0840*%
%ADD43R,0.0984X0.0275*%
%ADD44R,0.1378X0.0275*%
%ADD45R,0.1496X0.0433*%
%ADD46O,0.0250X0.0940*%
%ADD47R,0.0250X0.0940*%
%ADD48C,0.1470*%
%ADD49R,0.0750X0.0750*%
%ADD50C,0.0750*%
%ADD51O,0.0940X0.0250*%
%ADD52R,0.0940X0.0250*%
%ADD53R,0.0950X0.1220*%
%ADD54R,0.0750X0.0240*%
%ADD55R,0.0550X0.0550*%
%ADD56C,0.0550*%
%ADD57R,0.0177X0.0701*%
%ADD58O,0.0787X0.0118*%
%ADD59O,0.0118X0.0787*%
%ADD60R,0.2165X0.0787*%
%ADD61C,0.0280*%
%ADD62C,0.0100*%
%ADD63C,0.0080*%
%ADD64C,0.0010*%
%ADD65C,0.0120*%
%ADD66C,0.0375*%
%ADD67C,0.0280*%
%ADD68C,0.0500*%
%ADD69C,0.0280*%
%ADD70C,0.0520*%
%ADD71R,0.0520X0.0520*%
%ADD72C,0.0570*%
%ADD73R,0.0570X0.0570*%
%ADD74C,0.0740*%
%ADD75C,0.0580*%
%ADD76R,0.0580X0.0580*%
%ADD77C,0.0748*%
%ADD78R,0.0748X0.0748*%
%ADD79R,0.0500X0.0670*%
%ADD80C,0.2362*%
%ADD81C,0.0680*%
%ADD82C,0.0840*%
%ADD83C,0.1470*%
%ADD84R,0.0750X0.0750*%
%ADD85C,0.0750*%
%ADD86R,0.0550X0.0550*%
%ADD87C,0.0550*%
%ADD88C,0.0280*%
%ADD89C,0.0280*%
%ADD90R,0.0500X0.0500*%
%ADD91R,0.0320X0.0380*%
%ADD92R,0.0600X0.0600*%
%ADD93R,0.0740X0.0480*%
%ADD94R,0.0680X0.0680*%
%ADD95R,0.0900X0.1000*%
%ADD96C,0.0866*%
%ADD97R,0.0866X0.0866*%
%ADD98R,0.1968X0.1575*%
%ADD99R,0.0720X0.0780*%
%ADD100R,0.0780X0.0720*%
%ADD101R,0.0500X0.0340*%
%ADD102R,0.0400X0.0340*%
%ADD103R,0.0340X0.0500*%
%ADD104R,0.0340X0.0400*%
%ADD105R,0.0640X0.1000*%
%ADD106R,0.0600X0.0700*%
%ADD107O,0.0860X0.0240*%
%ADD108R,0.0860X0.0240*%
%ADD109O,0.0110X0.0700*%
%ADD110R,0.0110X0.0700*%
%ADD111O,0.0700X0.0110*%
%ADD112R,0.0700X0.0110*%
%ADD113R,0.1181X0.0984*%
%ADD114R,0.0984X0.0275*%
%ADD115R,0.1378X0.0275*%
%ADD116R,0.1496X0.0433*%
%ADD117O,0.0250X0.0940*%
%ADD118R,0.0250X0.0940*%
%ADD119O,0.0940X0.0250*%
%ADD120R,0.0940X0.0250*%
%ADD121R,0.0950X0.1220*%
%ADD122R,0.0750X0.0240*%
%ADD123C,0.2450*%
%ADD124R,0.0177X0.0701*%
%ADD125O,0.0787X0.0118*%
%ADD126O,0.0118X0.0787*%
%ADD127R,0.2165X0.0787*%
%ADD128C,0.0160*%
%ADD129C,0.0160*%
%ADD130C,0.0160*%
%ADD131C,0.0079*%
%ADD132C,0.0031*%
%ADD133C,0.0060*%
%ADD134C,0.0118*%
%ADD135C,0.0040*%
%ADD136C,0.0039*%
%ADD137C,0.0157*%
*
G04 Plot Data ***
*
G54D63*
G01Y0056000D01*
X0041000D01*
Y0000000D01*
X0000000D01*
G54D69*
X0039625Y0033625D03*
X0006000Y0023500D03*
G54D128*
X0017125Y0041687D03*
Y0043250D03*
X0017000Y0044000D03*
X0016000D03*
X0015000D03*
X0014062D03*
X0013812Y0042562D03*
X0006437Y0039125D03*
Y0040687D03*
X0006375Y0041625D03*
X0005437D03*
X0004500D03*
X0002125D03*
X0001000D03*
X0002062Y0038250D03*
X0001000D03*
X0005750D03*
X0005062D03*
X0014250Y0047187D03*
X0015250Y0050437D03*
X0014687D03*
X0014062D03*
Y0049375D03*
X0014250Y0041937D03*
X0018125Y0046312D03*
Y0044500D03*
Y0045437D03*
X0014250Y0046500D03*
X0016437Y0047500D03*
X0015812D03*
G54D129*
X0031437Y0031125D03*
X0027062Y0027750D03*
X0027250Y0023312D03*
X0029437Y0023437D03*
X0018250Y0027750D03*
X0021000Y0036562D03*
X0033875Y0021625D03*
X0011125Y0041312D03*
X0007500Y0014125D03*
X0019000Y0034375D03*
X0017312Y0027312D03*
X0018125Y0033187D03*
X0026500Y0027812D03*
Y0024625D03*
X0030437Y0024562D03*
X0006000Y0015250D03*
X0006625Y0018500D03*
X0036000Y0047062D03*
X0025562Y0028750D03*
Y0027437D03*
X0025875Y0027812D03*
X0029250Y0042687D03*
X0036437Y0042750D03*
X0015000Y0021750D03*
X0016625Y0039750D03*
X0030750D03*
Y0038250D03*
X0009375Y0034875D03*
X0009250Y0021750D03*
X0032750Y0023875D03*
X0033375Y0029000D03*
X0030000Y0038250D03*
X0031625Y0047062D03*
X0026250Y0023187D03*
X0026687Y0029562D03*
X0018625Y0031937D03*
X0032375Y0022250D03*
X0031500Y0038250D03*
X0038750Y0045062D03*
X0035375Y0039000D03*
X0034625Y0036000D03*
X0031437Y0032750D03*
X0035375Y0033000D03*
X0034500Y0003250D03*
X0022250Y0019625D03*
Y0026437D03*
X0010875Y0007000D03*
Y0010375D03*
X0020625Y0035750D03*
X0020875Y0024250D03*
X0028562Y0027125D03*
X0027312Y0026875D03*
X0029250Y0038250D03*
Y0050062D03*
X0023875Y0030375D03*
X0023562Y0031875D03*
X0035625Y0031250D03*
X0037125Y0020750D03*
X0030187Y0032437D03*
Y0034312D03*
X0021625Y0021625D03*
Y0030500D03*
X0026437Y0030687D03*
X0025250Y0032562D03*
X0023687Y0033750D03*
X0023875Y0031500D03*
X0036000Y0021625D03*
X0021000Y0033750D03*
X0034875Y0015625D03*
X0026875Y0053875D03*
X0039625Y0015750D03*
X0025250Y0054375D03*
X0026125Y0031812D03*
X0025625Y0032687D03*
X0032562Y0043750D03*
X0035375Y0030750D03*
X0023125Y0018000D03*
X0039750Y0010750D03*
X0028625Y0011250D03*
X0025250Y0028250D03*
X0033500Y0031375D03*
X0033375Y0035062D03*
X0030750Y0034437D03*
X0030875Y0030937D03*
X0024125Y0030687D03*
X0023750Y0034625D03*
X0034312Y0034375D03*
X0034125Y0037312D03*
X0024000Y0038250D03*
X0033375Y0029750D03*
X0033125Y0035687D03*
X0034625Y0037000D03*
X0035000Y0034875D03*
X0029250Y0029687D03*
X0030000Y0023187D03*
X0021250Y0020750D03*
Y0029500D03*
X0024437Y0034125D03*
Y0032250D03*
X0008750Y0030500D03*
Y0020250D03*
X0019125Y0008875D03*
X0020625Y0007875D03*
X0018062Y0024187D03*
X0018625Y0027187D03*
X0007000Y0020750D03*
X0027625Y0011375D03*
X0012000Y0008250D03*
X0015875Y0037625D03*
X0026312Y0051000D03*
X0026250Y0038250D03*
X0038500Y0036500D03*
X0010875Y0045062D03*
X0011312Y0047250D03*
X0037500Y0021250D03*
X0020500D03*
X0020250Y0035000D03*
X0007250Y0016875D03*
X0007000Y0018500D03*
X0023625Y0035625D03*
X0024875Y0032562D03*
X0014375Y0017250D03*
X0017125Y0038250D03*
X0029625Y0010750D03*
X0020375Y0010625D03*
X0019250Y0009875D03*
X0007000Y0019750D03*
X0006625Y0022250D03*
X0018000Y0036500D03*
X0018125Y0041375D03*
X0036812Y0040500D03*
Y0042250D03*
X0039750D03*
X0035625Y0011750D03*
X0035500Y0029250D03*
X0034875Y0023250D03*
Y0019500D03*
X0035250Y0004000D03*
X0035375Y0032250D03*
X0006625Y0022875D03*
X0006125Y0020875D03*
X0023687Y0027000D03*
X0023750Y0029187D03*
X0024750Y0038250D03*
X0033625Y0020625D03*
X0033562Y0033375D03*
X0026875Y0033625D03*
X0026625Y0036000D03*
X0036375Y0038625D03*
X0031125Y0032375D03*
Y0033812D03*
X0021500Y0033500D03*
X0021125Y0040875D03*
X0036437Y0040000D03*
X0034250Y0024250D03*
Y0016000D03*
X0031000Y0019250D03*
Y0020250D03*
X0028750Y0020125D03*
X0028812Y0031875D03*
X0024375Y0031437D03*
X0026000Y0030875D03*
X0003750Y0026750D03*
X0007125Y0027000D03*
X0026250Y0033875D03*
X0026750Y0042625D03*
X0025750Y0034375D03*
X0026625Y0032250D03*
X0025500Y0044750D03*
Y0038250D03*
X0019125Y0029562D03*
Y0027687D03*
X0010500Y0026250D03*
X0010375Y0019250D03*
X0013125Y0033750D03*
Y0031500D03*
G54D130*
X0006875Y0028000D03*
Y0024000D03*
X0012875Y0007500D03*
X0040000Y0019250D03*
X0010125Y0026875D03*
X0015687Y0048937D03*
X0015750Y0050250D03*
X0013375Y0048125D03*
Y0051125D03*
X0010125Y0023000D03*
Y0030375D03*
Y0021250D03*
X0009500Y0008000D03*
X0040000Y0030000D03*
X0040062Y0038812D03*
X0024062Y0028500D03*
Y0029687D03*
X0027937Y0029125D03*
Y0030375D03*
X0028937Y0032375D03*
X0013750Y0035250D03*
X0013875Y0032687D03*
X0031250Y0026625D03*
X0018562Y0026562D03*
X0028812Y0019687D03*
X0025250Y0026687D03*
X0025687Y0019562D03*
X0016500Y0008125D03*
Y0016375D03*
X0021000Y0041750D03*
X0017625D03*
X0017375Y0036625D03*
X0031375Y0030500D03*
X0031000Y0021812D03*
X0029125D03*
Y0024687D03*
X0035875Y0005000D03*
X0035750Y0010375D03*
X0033375Y0010250D03*
X0013875Y0031687D03*
X0013812Y0026062D03*
X0016312Y0023875D03*
X0018625Y0024312D03*
X0036750Y0012875D03*
X0037375Y0014875D03*
X0022000Y0023000D03*
X0021875Y0014125D03*
X0023750Y0022875D03*
X0016125Y0018750D03*
X0017000Y0020875D03*
Y0019750D03*
Y0022625D03*
X0032250Y0025250D03*
X0023750Y0024625D03*
X0033500Y0030375D03*
X0020500Y0045250D03*
X0022000Y0051187D03*
X0020125Y0047500D03*
X0032250Y0049062D03*
X0028687Y0044187D03*
X0033500Y0034250D03*
X0032937Y0037562D03*
X0017437Y0031750D03*
X0030750Y0027062D03*
X0021562Y0032875D03*
X0022687Y0029000D03*
X0032625Y0023000D03*
X0032375Y0010625D03*
X0036500Y0010250D03*
X0015875Y0016625D03*
X0010375Y0018750D03*
X0010875Y0011000D03*
X0015875Y0009625D03*
Y0012750D03*
X0013000Y0012875D03*
Y0011750D03*
X0026125Y0029625D03*
X0028312Y0029937D03*
X0028250Y0029312D03*
X0033312Y0033125D03*
X0033500Y0030937D03*
X0013500Y0033250D03*
X0013125Y0030875D03*
X0028687Y0046062D03*
Y0041750D03*
X0029562Y0032875D03*
X0031000Y0031562D03*
X0030750Y0029062D03*
X0029312Y0030125D03*
X0024500Y0028812D03*
Y0028187D03*
X0016125Y0024250D03*
X0017000Y0021750D03*
X0018125Y0034250D03*
X0018812Y0033312D03*
X0030875Y0033125D03*
X0031250Y0039750D03*
X0032250D03*
Y0041562D03*
X0008125Y0048125D03*
Y0044250D03*
X0008000Y0003625D03*
X0017625Y0012125D03*
X0010875Y0012250D03*
X0010750Y0014625D03*
X0037375Y0005000D03*
X0023750Y0020687D03*
X0011125Y0025875D03*
X0011250Y0029875D03*
X0032875Y0020125D03*
X0017687Y0048062D03*
X0012625Y0021625D03*
X0011937Y0042125D03*
X0010812Y0040062D03*
X0019937Y0033312D03*
X0020000Y0030562D03*
X0004375Y0030000D03*
X0002312Y0043437D03*
X0008750Y0031500D03*
X0004375Y0034500D03*
X0005000Y0043750D03*
X0018687Y0044250D03*
X0020875Y0012125D03*
X0021500Y0013750D03*
X0019562Y0030875D03*
X0011625Y0010000D03*
X0015625Y0039000D03*
X0017375Y0012625D03*
X0018125Y0014500D03*
X0007000Y0013875D03*
X0017625Y0010875D03*
X0008000Y0009375D03*
Y0012250D03*
Y0007000D03*
Y0005000D03*
X0040375Y0033000D03*
Y0027500D03*
X0015625Y0002500D03*
X0017250Y0006250D03*
X0021125Y0051187D03*
X0019687Y0042437D03*
X0039250Y0026812D03*
X0034875Y0025250D03*
Y0028000D03*
X0039125D03*
X0002437Y0047062D03*
X0017625Y0007000D03*
Y0005500D03*
X0004500Y0010500D03*
Y0008125D03*
X0004000Y0043625D03*
X0004500Y0049937D03*
X0036750Y0025875D03*
X0039000Y0027125D03*
X0014250Y0037125D03*
X0018125Y0009375D03*
X0017875Y0004375D03*
X0007500Y0004000D03*
Y0005750D03*
X0019750Y0014500D03*
Y0029000D03*
X0028625Y0014500D03*
X0033875D03*
X0033125Y0027000D03*
X0006750Y0014750D03*
X0006625Y0017625D03*
X0015750Y0014875D03*
X0014875Y0007625D03*
X0014000Y0003000D03*
X0008875Y0014125D03*
X0036750Y0025250D03*
Y0015375D03*
X0039625Y0025750D03*
X0013125Y0046625D03*
X0011250Y0008125D03*
X0018062Y0031500D03*
X0017812Y0027500D03*
X0003875Y0006625D03*
X0019000Y0040500D03*
X0019500Y0033250D03*
X0021250Y0011375D03*
Y0006375D03*
X0018625Y0005750D03*
X0016875Y0024250D03*
X0022500Y0037250D03*
X0022750Y0023500D03*
X0026750D03*
Y0029125D03*
X0012625Y0047750D03*
X0011125Y0013750D03*
X0028500Y0038250D03*
Y0039375D03*
X0034375D03*
X0008750Y0047812D03*
X0008312Y0046125D03*
X0016562Y0052750D03*
X0016625Y0050312D03*
X0003875Y0009000D03*
X0009125Y0013625D03*
Y0008500D03*
X0018750Y0009625D03*
X0019375Y0013250D03*
X0014375D03*
Y0015500D03*
X0033500Y0032250D03*
X0032812Y0036375D03*
X0031437Y0035437D03*
Y0034250D03*
X0029125Y0029062D03*
X0005375Y0009625D03*
X0006500Y0011250D03*
X0004125Y0028500D03*
X0007125Y0029000D03*
X0019375Y0022625D03*
Y0024250D03*
X0030562Y0031562D03*
X0030625Y0033500D03*
X0029187Y0031437D03*
X0029312Y0032250D03*
X0023000Y0048125D03*
X0022562Y0052812D03*
X0027500Y0024750D03*
X0014375Y0004375D03*
X0014000Y0011875D03*
X0008375Y0025000D03*
X0008125Y0021750D03*
X0004875Y0008625D03*
Y0011125D03*
X0035625Y0035500D03*
X0033250Y0040125D03*
X0020625D03*
X0021625Y0031500D03*
X0032875Y0041875D03*
Y0048000D03*
X0027250Y0031437D03*
X0014000Y0008125D03*
X0013500Y0004625D03*
X0011625D03*
Y0005500D03*
X0018812Y0052750D03*
Y0050437D03*
X0027750Y0038250D03*
Y0039000D03*
X0016250Y0038625D03*
X0012500Y0008250D03*
X0023625Y0030625D03*
X0027750Y0032312D03*
X0027250Y0029187D03*
Y0030687D03*
M02*
