*
G04 Mass Parameters ***
*
G04 Image ***
*
%INC:\SRC\BSM-2\SCHEMATICS\BSM-2.FAB*%
%ICAS*%
%MOIN*%
%IPPOS*%
%ASAXBY*%
G74*%FSLAN2X34Y34*%
*
G04 Aperture Definitions ***
*
%ADD10R,0.0500X0.0500*%
%ADD11C,0.0520*%
%ADD12R,0.0520X0.0520*%
%ADD13R,0.0320X0.0380*%
%ADD14R,0.0600X0.0600*%
%ADD15R,0.0740X0.0480*%
%ADD16C,0.0570*%
%ADD17R,0.0570X0.0570*%
%ADD18R,0.0900X0.1000*%
%ADD19C,0.0740*%
%ADD20C,0.0580*%
%ADD21R,0.0580X0.0580*%
%ADD22C,0.0748*%
%ADD23R,0.0748X0.0748*%
%ADD24R,0.1968X0.1575*%
%ADD25R,0.0720X0.0780*%
%ADD26R,0.0780X0.0720*%
%ADD27R,0.0500X0.0340*%
%ADD28R,0.0400X0.0340*%
%ADD29R,0.0340X0.0500*%
%ADD30R,0.0340X0.0400*%
%ADD31R,0.0640X0.1000*%
%ADD32C,0.2362*%
%ADD33R,0.0600X0.0700*%
%ADD34O,0.0860X0.0240*%
%ADD35R,0.0860X0.0240*%
%ADD36O,0.0110X0.0700*%
%ADD37R,0.0110X0.0700*%
%ADD38O,0.0700X0.0110*%
%ADD39R,0.0700X0.0110*%
%ADD40R,0.1181X0.0984*%
%ADD41C,0.0680*%
%ADD42C,0.0840*%
%ADD43R,0.0984X0.0275*%
%ADD44R,0.1378X0.0275*%
%ADD45R,0.1496X0.0433*%
%ADD46O,0.0250X0.0940*%
%ADD47R,0.0250X0.0940*%
%ADD48C,0.1470*%
%ADD49R,0.0750X0.0750*%
%ADD50C,0.0750*%
%ADD51O,0.0940X0.0250*%
%ADD52R,0.0940X0.0250*%
%ADD53R,0.0950X0.1220*%
%ADD54R,0.0750X0.0240*%
%ADD55R,0.0550X0.0550*%
%ADD56C,0.0550*%
%ADD57R,0.0177X0.0701*%
%ADD58O,0.0394X0.0118*%
%ADD59O,0.0118X0.0394*%
%ADD60R,0.2165X0.0787*%
%ADD61C,0.0375*%
%ADD62C,0.0280*%
%ADD63C,0.0120*%
%ADD64C,0.0080*%
%ADD65C,0.0280*%
%ADD66C,0.0500*%
%ADD67C,0.0520*%
%ADD68R,0.0520X0.0520*%
%ADD69C,0.0570*%
%ADD70R,0.0570X0.0570*%
%ADD71C,0.0740*%
%ADD72C,0.0580*%
%ADD73R,0.0580X0.0580*%
%ADD74C,0.0748*%
%ADD75R,0.0748X0.0748*%
%ADD76R,0.0500X0.0670*%
%ADD77C,0.2362*%
%ADD78C,0.0680*%
%ADD79C,0.0840*%
%ADD80C,0.1470*%
%ADD81R,0.0750X0.0750*%
%ADD82C,0.0750*%
%ADD83R,0.0550X0.0550*%
%ADD84C,0.0550*%
%ADD85C,0.0280*%
%ADD86C,0.0720*%
%ADD87R,0.0720X0.0720*%
%ADD88R,0.0740X0.0740*%
%ADD89C,0.0900*%
%ADD90C,0.0780*%
%ADD91R,0.0780X0.0780*%
%ADD92C,0.0945*%
%ADD93R,0.0945X0.0945*%
%ADD94C,0.2401*%
%ADD95C,0.0880*%
%ADD96C,0.1040*%
%ADD97C,0.1750*%
%ADD98R,0.0950X0.0950*%
%ADD99C,0.0950*%
%ADD100C,0.0750*%
%ADD101R,0.0500X0.0500*%
%ADD102R,0.0320X0.0380*%
%ADD103R,0.0600X0.0600*%
%ADD104R,0.0740X0.0480*%
%ADD105R,0.0680X0.0680*%
%ADD106R,0.0900X0.1000*%
%ADD107C,0.0866*%
%ADD108R,0.0866X0.0866*%
%ADD109R,0.1968X0.1575*%
%ADD110R,0.0720X0.0780*%
%ADD111R,0.0780X0.0720*%
%ADD112R,0.0500X0.0340*%
%ADD113R,0.0400X0.0340*%
%ADD114R,0.0340X0.0500*%
%ADD115R,0.0340X0.0400*%
%ADD116R,0.0640X0.1000*%
%ADD117R,0.0600X0.0700*%
%ADD118O,0.0860X0.0240*%
%ADD119R,0.0860X0.0240*%
%ADD120O,0.0110X0.0700*%
%ADD121R,0.0110X0.0700*%
%ADD122O,0.0700X0.0110*%
%ADD123R,0.0700X0.0110*%
%ADD124R,0.1181X0.0984*%
%ADD125R,0.0984X0.0275*%
%ADD126R,0.1378X0.0275*%
%ADD127R,0.1496X0.0433*%
%ADD128O,0.0250X0.0940*%
%ADD129R,0.0250X0.0940*%
%ADD130O,0.0940X0.0250*%
%ADD131R,0.0940X0.0250*%
%ADD132R,0.0950X0.1220*%
%ADD133R,0.0750X0.0240*%
%ADD134C,0.2450*%
%ADD135R,0.0177X0.0701*%
%ADD136O,0.0394X0.0118*%
%ADD137O,0.0118X0.0394*%
%ADD138R,0.2165X0.0787*%
%ADD139C,0.0160*%
%ADD140C,0.0160*%
%ADD141C,0.0157*%
%ADD142C,0.0100*%
%ADD143C,0.0060*%
%ADD144C,0.0118*%
%ADD145C,0.0010*%
%ADD146C,0.0040*%
%ADD147C,0.0039*%
%ADD148C,0.0079*%
%ADD149C,0.0031*%
*
G04 Plot Data ***
*
G54D64*
G01X0041000D01*
Y0056000D01*
X0000000D01*
Y0000000D01*
G54D65*
X0006000Y0023500D03*
G54D139*
X0011250Y0008125D03*
X0031625Y0046750D03*
X0029250Y0049625D03*
X0016250Y0039000D03*
X0012500Y0008250D03*
X0035375Y0030750D03*
X0033125Y0041000D03*
X0016000Y0038750D03*
X0012000Y0008250D03*
X0026875Y0053875D03*
X0016750Y0038250D03*
X0014375Y0017250D03*
X0029250Y0038250D03*
X0015000Y0021750D03*
X0016500Y0039500D03*
X0030750D03*
Y0038125D03*
X0035125Y0004000D03*
X0034875Y0015625D03*
X0025250Y0054375D03*
X0020625Y0035750D03*
X0021000Y0024250D03*
X0027750Y0038125D03*
Y0039000D03*
X0036750Y0038750D03*
X0035500Y0032250D03*
X0012625Y0046250D03*
X0003750Y0026750D03*
X0034500Y0039250D03*
X0021375Y0032250D03*
X0037000Y0038500D03*
X0011625Y0010000D03*
X0015750Y0039125D03*
X0028500Y0039250D03*
Y0038125D03*
X0037250Y0021125D03*
X0020750D03*
X0020250Y0035000D03*
X0033375Y0033500D03*
X0033750Y0020500D03*
X0004125Y0028500D03*
X0039750Y0015750D03*
X0004500Y0021000D03*
X0026250Y0050625D03*
Y0038250D03*
X0022375Y0019375D03*
X0030000Y0038375D03*
X0034875Y0023250D03*
X0037000Y0020875D03*
X0035750Y0031500D03*
X0034250Y0024250D03*
Y0015875D03*
X0037250Y0039375D03*
X0021500Y0040250D03*
Y0033500D03*
X0035500Y0011875D03*
Y0029250D03*
G54D140*
X0032875Y0041875D03*
Y0047625D03*
X0032250Y0045625D03*
X0034000Y0014625D03*
X0033500Y0027500D03*
X0019750Y0014500D03*
X0032250Y0041250D03*
X0031750Y0048750D03*
X0032410Y0034590D03*
X0032250Y0038125D03*
X0021625Y0021500D03*
Y0030500D03*
X0016500Y0016375D03*
Y0008125D03*
X0040000Y0039000D03*
X0019000Y0040750D03*
X0019125Y0033375D03*
X0014875Y0007625D03*
X0015375Y0014875D03*
X0018125Y0004625D03*
X0028625Y0014500D03*
X0018125D03*
Y0009375D03*
X0036750Y0025250D03*
Y0015500D03*
X0011125Y0013750D03*
X0009125Y0008500D03*
X0040000Y0019250D03*
X0025500Y0044750D03*
Y0038250D03*
X0033375Y0029000D03*
X0033250Y0023875D03*
X0009375Y0022375D03*
Y0034875D03*
X0035750Y0035500D03*
X0033375Y0039750D03*
X0021250D03*
X0021625Y0031500D03*
X0023625Y0031000D03*
X0032375Y0022250D03*
X0031500Y0038500D03*
X0034875Y0034375D03*
X0034000Y0021375D03*
X0035125Y0039875D03*
X0018125Y0041000D03*
Y0036750D03*
X0035875Y0021500D03*
X0035375Y0033000D03*
X0034500Y0003250D03*
X0013125Y0046625D03*
X0008875Y0014125D03*
X0021375Y0020875D03*
Y0029500D03*
X0019750Y0029000D03*
M02*
