*
G04 Mass Parameters ***
*
G04 Image ***
*
%INC:\SRC\BSM-2\SCHEMATICS\BSM-2.PWR*%
%ICAS*%
%MOIN*%
%IPPOS*%
%ASAXBY*%
G74*%FSLAN2X34Y34*%
*
G04 Aperture Definitions ***
*
%ADD10R,0.0500X0.0500*%
%ADD11C,0.0520*%
%ADD12R,0.0520X0.0520*%
%ADD13R,0.0320X0.0380*%
%ADD14R,0.0600X0.0600*%
%ADD15R,0.0740X0.0480*%
%ADD16C,0.0570*%
%ADD17R,0.0570X0.0570*%
%ADD18R,0.0900X0.1000*%
%ADD19C,0.0740*%
%ADD20C,0.0580*%
%ADD21R,0.0580X0.0580*%
%ADD22C,0.0748*%
%ADD23R,0.0748X0.0748*%
%ADD24R,0.1968X0.1575*%
%ADD25R,0.0720X0.0780*%
%ADD26R,0.0780X0.0720*%
%ADD27R,0.0500X0.0340*%
%ADD28R,0.0400X0.0340*%
%ADD29R,0.0340X0.0500*%
%ADD30R,0.0340X0.0400*%
%ADD31R,0.0640X0.1000*%
%ADD32C,0.2362*%
%ADD33R,0.0600X0.0700*%
%ADD34O,0.0860X0.0240*%
%ADD35R,0.0860X0.0240*%
%ADD36O,0.0110X0.0700*%
%ADD37R,0.0110X0.0700*%
%ADD38O,0.0700X0.0110*%
%ADD39R,0.0700X0.0110*%
%ADD40R,0.1181X0.0984*%
%ADD41C,0.0680*%
%ADD42C,0.0840*%
%ADD43R,0.0984X0.0275*%
%ADD44R,0.1378X0.0275*%
%ADD45R,0.1496X0.0433*%
%ADD46O,0.0250X0.0940*%
%ADD47R,0.0250X0.0940*%
%ADD48C,0.1470*%
%ADD49R,0.0750X0.0750*%
%ADD50C,0.0750*%
%ADD51O,0.0940X0.0250*%
%ADD52R,0.0940X0.0250*%
%ADD53R,0.0950X0.1220*%
%ADD54R,0.0750X0.0240*%
%ADD55R,0.0550X0.0550*%
%ADD56C,0.0550*%
%ADD57R,0.0177X0.0701*%
%ADD58O,0.0394X0.0118*%
%ADD59O,0.0118X0.0394*%
%ADD60R,0.2165X0.0787*%
%ADD61C,0.0375*%
%ADD62C,0.0280*%
%ADD63C,0.0120*%
%ADD64C,0.0080*%
%ADD65C,0.0280*%
%ADD66C,0.0500*%
%ADD67C,0.0520*%
%ADD68R,0.0520X0.0520*%
%ADD69C,0.0570*%
%ADD70R,0.0570X0.0570*%
%ADD71C,0.0740*%
%ADD72C,0.0580*%
%ADD73R,0.0580X0.0580*%
%ADD74C,0.0748*%
%ADD75R,0.0748X0.0748*%
%ADD76R,0.0500X0.0670*%
%ADD77C,0.2362*%
%ADD78C,0.0680*%
%ADD79C,0.0840*%
%ADD80C,0.1470*%
%ADD81R,0.0750X0.0750*%
%ADD82C,0.0750*%
%ADD83R,0.0550X0.0550*%
%ADD84C,0.0550*%
%ADD85C,0.0280*%
%ADD86C,0.0720*%
%ADD87R,0.0720X0.0720*%
%ADD88R,0.0740X0.0740*%
%ADD89C,0.0900*%
%ADD90C,0.0780*%
%ADD91R,0.0780X0.0780*%
%ADD92C,0.0945*%
%ADD93R,0.0945X0.0945*%
%ADD94C,0.2401*%
%ADD95C,0.0880*%
%ADD96C,0.1040*%
%ADD97C,0.1750*%
%ADD98R,0.0950X0.0950*%
%ADD99C,0.0950*%
%ADD100C,0.0750*%
*
G04 Plot Data ***
*
G54D64*
G01X0041000D01*
Y0056000D01*
X0000000D01*
Y0000000D01*
G54D65*
X0032875Y0041875D03*
Y0047625D03*
X0032250Y0045625D03*
X0034000Y0014625D03*
X0032250Y0038125D03*
X0021625Y0021500D03*
Y0030500D03*
X0016500Y0016375D03*
Y0008125D03*
X0040000Y0039000D03*
X0019125Y0033375D03*
X0018125Y0004625D03*
X0036750Y0025250D03*
Y0015500D03*
X0009125Y0008500D03*
X0040000Y0019250D03*
X0025500Y0044750D03*
X0033375Y0029000D03*
X0033250Y0023875D03*
X0009375Y0022375D03*
X0035750Y0035500D03*
X0033375Y0039750D03*
X0021250D03*
X0023625Y0031000D03*
X0032375Y0022250D03*
X0031500Y0038500D03*
X0034000Y0021375D03*
X0035125Y0039875D03*
X0018125Y0041000D03*
Y0036750D03*
X0034500Y0003250D03*
X0021375Y0020875D03*
Y0029500D03*
G54D71*
X0038250Y0015000D03*
Y0012500D03*
Y0017500D03*
Y0019000D03*
G54D81*
X0026650Y0012530D03*
G54D82*
X0029650D03*
X0028650D03*
X0027650D03*
G54D85*
X0035875Y0021500D03*
X0011250Y0008125D03*
X0013125Y0046625D03*
X0033500Y0027500D03*
X0031625Y0046750D03*
X0029250Y0049625D03*
X0016250Y0039000D03*
X0012500Y0008250D03*
X0021625Y0031500D03*
X0035375Y0030750D03*
X0033125Y0041000D03*
X0016000Y0038750D03*
X0012000Y0008250D03*
X0026875Y0053875D03*
X0016750Y0038250D03*
X0014375Y0017250D03*
X0029250Y0038250D03*
X0015000Y0021750D03*
X0016500Y0039500D03*
X0030750D03*
Y0038125D03*
X0032410Y0034590D03*
X0034875Y0034375D03*
X0035125Y0004000D03*
X0034875Y0015625D03*
X0025250Y0054375D03*
X0032250Y0041250D03*
X0031750Y0048750D03*
X0018125Y0009375D03*
Y0014500D03*
X0014875Y0007625D03*
X0035375Y0033000D03*
X0028625Y0014500D03*
X0019750D03*
Y0029000D03*
X0020625Y0035750D03*
X0021000Y0024250D03*
X0027750Y0038125D03*
Y0039000D03*
X0036750Y0038750D03*
X0035500Y0032250D03*
X0009375Y0034875D03*
X0011125Y0013750D03*
X0012625Y0046250D03*
X0003750Y0026750D03*
X0034500Y0039250D03*
X0021375Y0032250D03*
X0037000Y0038500D03*
X0011625Y0010000D03*
X0015750Y0039125D03*
X0028500Y0039250D03*
Y0038125D03*
X0037250Y0021125D03*
X0020750D03*
X0020250Y0035000D03*
X0033375Y0033500D03*
X0033750Y0020500D03*
X0004125Y0028500D03*
X0039750Y0015750D03*
X0004500Y0021000D03*
X0026250Y0050625D03*
Y0038250D03*
X0022375Y0019375D03*
X0030000Y0038375D03*
X0025500Y0038250D03*
X0034875Y0023250D03*
X0037000Y0020875D03*
X0035750Y0031500D03*
X0034250Y0024250D03*
Y0015875D03*
X0037250Y0039375D03*
X0021500Y0040250D03*
Y0033500D03*
X0019000Y0040750D03*
X0008875Y0014125D03*
X0015375Y0014875D03*
X0035500Y0011875D03*
Y0029250D03*
G54D86*
X0007750Y0034500D03*
X0008750Y0033500D03*
X0013250Y0027250D03*
X0012930Y0039300D03*
X0010525Y0042105D03*
G54D87*
X0008750Y0035500D03*
X0014250Y0027250D03*
X0011680Y0039300D03*
X0009275Y0042105D03*
G54D88*
X0038250Y0014000D03*
Y0011500D03*
Y0016500D03*
Y0020000D03*
G54D89*
X0021000D03*
Y0017000D03*
X0023000D03*
Y0020000D03*
X0036250Y0007250D03*
X0039250D03*
Y0009250D03*
X0036250D03*
X0009300Y0051450D03*
X0007900Y0049450D03*
G54D90*
X0002750Y0044500D03*
X0033410Y0016720D03*
X0032410Y0017720D03*
Y0016720D03*
X0031410Y0017720D03*
Y0016720D03*
X0030410Y0017720D03*
Y0016720D03*
X0029410Y0017720D03*
X0028410D03*
Y0016720D03*
X0027410Y0017720D03*
Y0016720D03*
X0026410Y0017720D03*
Y0016720D03*
X0025410Y0017720D03*
Y0016720D03*
X0024410Y0017720D03*
Y0016720D03*
X0038000Y0029000D03*
X0039000Y0030000D03*
X0038000D03*
X0039000Y0031000D03*
X0038000D03*
X0039000Y0032000D03*
X0038000D03*
X0039000Y0033000D03*
Y0034000D03*
X0038000D03*
X0039000Y0035000D03*
X0038000D03*
X0039000Y0036000D03*
X0038000D03*
X0039000Y0037000D03*
X0038000D03*
X0039000Y0038000D03*
X0038000D03*
X0022000Y0047250D03*
Y0046250D03*
Y0045250D03*
X0005000Y0031250D03*
X0039000Y0026250D03*
X0038000Y0025250D03*
X0039000D03*
X0038000Y0024250D03*
X0039000D03*
X0038000Y0023250D03*
X0039000D03*
X0038000Y0022250D03*
X0039000D03*
X0006300Y0052200D03*
G54D91*
X0001750Y0044500D03*
X0033410Y0017720D03*
X0029410Y0016720D03*
X0039000Y0029000D03*
X0038000Y0033000D03*
X0022000Y0048250D03*
X0006000Y0031250D03*
X0038000Y0026250D03*
X0005300Y0052200D03*
G54D92*
X0003000Y0005378D03*
Y0006756D03*
Y0010678D03*
Y0012056D03*
Y0013434D03*
Y0033378D03*
Y0034756D03*
Y0036134D03*
X0016372Y0003000D03*
X0014994D03*
X0011372D03*
X0009994D03*
X0008616D03*
X0003000Y0025378D03*
Y0029378D03*
Y0021378D03*
Y0017378D03*
X0002989Y0052139D03*
G54D93*
X0003000Y0004000D03*
Y0009300D03*
Y0032000D03*
X0017750Y0003000D03*
X0012750D03*
X0003000Y0024000D03*
Y0028000D03*
Y0020000D03*
Y0016000D03*
X0002989Y0050761D03*
G54D94*
X0001500Y0054500D03*
X0038120Y0047750D03*
X0039500Y0054280D03*
Y0001500D03*
X0001500D03*
G54D95*
X0030046Y0042933D03*
G54D96*
X0030093Y0052696D03*
G54D97*
X0001700Y0039980D03*
G54D98*
X0007650Y0038980D03*
G54D99*
Y0040980D03*
Y0039980D03*
G54D100*
X0006000Y0023500D03*
M02*
