%
T2C0.0280F200S100
X006000Y023500
T1C0.0160F200S100
X003750Y026750
X004125Y028500
X004500Y021000
X008875Y014125
X009125Y008500
X009375Y022375
X009375Y034875
X011125Y013750
X011250Y008125
X011625Y010000
X012000Y008250
X012500Y008250
X012625Y046250
X013125Y046625
X014375Y017250
X014875Y007625
X015000Y021750
X015375Y014875
X015750Y039125
X016000Y038750
X016250Y039000
X016500Y008125
X016500Y016375
X016750Y038250
X016500Y039500
X018125Y004625
X018125Y009375
X018125Y014500
X018125Y036750
X019000Y040750
X018125Y041000
X019125Y033375
X019750Y014500
X019750Y029000
X020250Y035000
X020625Y035750
X020750Y021125
X021000Y024250
X021250Y039750
X021375Y020875
X021375Y029500
X021375Y032250
X021500Y033500
X021500Y040250
X021625Y021500
X021625Y030500
X021625Y031500
X022375Y019375
X023625Y031000
X025250Y054375
X025500Y038250
X025500Y044750
X026250Y038250
X026250Y050625
X026875Y053875
X027750Y038125
X028500Y038125
X028500Y039250
X027750Y039000
X028625Y014500
X029250Y038250
X029250Y049625
X030000Y038375
X030750Y038125
X030750Y039500
X031500Y038500
X031625Y046750
X031750Y048750
X032250Y038125
X032250Y041250
X032250Y045625
X032375Y022250
X032410Y034590
X032875Y041875
X033125Y041000
X032875Y047625
X033250Y023875
X033375Y029000
X033375Y033500
X033375Y039750
X033500Y027500
X033750Y020500
X034000Y014625
X034250Y015875
X034000Y021375
X034250Y024250
X034500Y003250
X034875Y015625
X034875Y023250
X034875Y034375
X034500Y039250
X035125Y004000
X035375Y030750
X035375Y033000
X035125Y039875
X035500Y011875
X035500Y029250
X035750Y031500
X035500Y032250
X035750Y035500
X035875Y021500
X036750Y015500
X036750Y025250
X036750Y038750
X037000Y020875
X037250Y021125
X037000Y038500
X037250Y039375
X039750Y015750
X040000Y019250
X040000Y039000
T7C0.0390F200S100
X007900Y049450
X009300Y051450
X021000Y017000
X023000Y017000
X023000Y020000
X021000Y020000
X036250Y007250
X036250Y009250
X038250Y011500
X038250Y012500
X038250Y014000
X038250Y015000
X038250Y016500
X038250Y017500
X038250Y019000
X038250Y020000
X039250Y007250
X039250Y009250
T10C0.0551F200S100
X002989Y050761
X002989Y052139
X003000Y004000
X003000Y005378
X003000Y006756
X003000Y009300
X003000Y010678
X003000Y012056
X003000Y013434
X003000Y016000
X003000Y017378
X003000Y020000
X003000Y021378
X003000Y024000
X003000Y025378
X003000Y028000
X003000Y029378
X003000Y032000
X003000Y033378
X003000Y034756
X003000Y036134
X008616Y003000
X009994Y003000
X011372Y003000
X012750Y003000
X014994Y003000
X016372Y003000
X017750Y003000
T6C0.0370F200S100
X001750Y044500
X002750Y044500
X005000Y031250
X005300Y052200
X006000Y031250
X006300Y052200
X022000Y045250
X022000Y046250
X022000Y047250
X022000Y048250
X024410Y016720
X024410Y017720
X025410Y016720
X025410Y017720
X026410Y016720
X026410Y017720
X027410Y016720
X027410Y017720
X028410Y016720
X028410Y017720
X029410Y016720
X029410Y017720
X030410Y016720
X030410Y017720
X031410Y016720
X031410Y017720
X032410Y016720
X032410Y017720
X033410Y016720
X033410Y017720
X038000Y022250
X038000Y023250
X038000Y024250
X038000Y025250
X038000Y026250
X038000Y029000
X038000Y030000
X038000Y031000
X038000Y032000
X038000Y033000
X038000Y034000
X038000Y035000
X038000Y036000
X038000Y037000
X038000Y038000
X039000Y022250
X039000Y023250
X039000Y024250
X039000Y025250
X039000Y026250
X039000Y029000
X039000Y030000
X039000Y031000
X039000Y032000
X039000Y033000
X039000Y034000
X039000Y035000
X039000Y036000
X039000Y037000
X039000Y038000
T9C0.0540F200S100
X007650Y038980
X007650Y039980
X007650Y040980
T13C0.1470F200S100
X001700Y039980
T5C0.0350F200S100
X026650Y012530
T4C0.0340F200S100
X027650Y012530
X028650Y012530
X029650Y012530
T14C0.2450F200S100
X023600Y008530
X032700Y008530
T3C0.0310F200S100
X007750Y034500
X008750Y033500
X008750Y035500
X009275Y042105
X010525Y042105
X011680Y039300
X012930Y039300
X013250Y027250
X014250Y027250
T12C0.1220F200S100
X001500Y001500
X001500Y054500
X038120Y047750
X039500Y001500
X039500Y054280
M30
