%
T2C0.0280F200S100
X006000Y023500
X039625Y033625
T1C0.0160F200S100
X001000Y038250
X002062Y038250
X001000Y041625
X002125Y041625
X002312Y043437
X002437Y047062
X003750Y026750
X003875Y006625
X003875Y009000
X004000Y043625
X004125Y028500
X004375Y030000
X004375Y034500
X004500Y008125
X004875Y008625
X004500Y010500
X004875Y011125
X004500Y041625
X004500Y049937
X005000Y043750
X005062Y038250
X005375Y009625
X005437Y041625
X005750Y038250
X006000Y015250
X006125Y020875
X006375Y041625
X006437Y039125
X006437Y040687
X006500Y011250
X006625Y017625
X006625Y018500
X006625Y022250
X006625Y022875
X006750Y014750
X006875Y024000
X006875Y028000
X007000Y013875
X007000Y018500
X007000Y019750
X007000Y020750
X007125Y027000
X007125Y029000
X007250Y016875
X007500Y004000
X008000Y003625
X008000Y005000
X007500Y005750
X008000Y007000
X008000Y009375
X008000Y012250
X007500Y014125
X008125Y021750
X008125Y044250
X008312Y046125
X008125Y048125
X008375Y025000
X008750Y020250
X008750Y030500
X008750Y031500
X008750Y047812
X008875Y014125
X009125Y008500
X009125Y013625
X009250Y021750
X009375Y034875
X009500Y008000
X010125Y021250
X010125Y023000
X010125Y026875
X010125Y030375
X010375Y018750
X010375Y019250
X010500Y026250
X010750Y014625
X010812Y040062
X010875Y007000
X010875Y010375
X010875Y011000
X010875Y012250
X011125Y013750
X011125Y025875
X011125Y041312
X010875Y045062
X011250Y008125
X011250Y029875
X011312Y047250
X011625Y004625
X011625Y005500
X011625Y010000
X011937Y042125
X012000Y008250
X012500Y008250
X012625Y021625
X012875Y007500
X012625Y047750
X013000Y011750
X013000Y012875
X013125Y030875
X013125Y031500
X013125Y033750
X013125Y046625
X013375Y048125
X013375Y051125
X013500Y004625
X013500Y033250
X013750Y035250
X013812Y026062
X013812Y042562
X013875Y031687
X013875Y032687
X014000Y003000
X014000Y008125
X014000Y011875
X014062Y044000
X014062Y049375
X014062Y050437
X014250Y037125
X014250Y041937
X014250Y046500
X014250Y047187
X014375Y004375
X014375Y013250
X014375Y015500
X014375Y017250
X014687Y050437
X014875Y007625
X015000Y021750
X015000Y044000
X015250Y050437
X015625Y002500
X015625Y039000
X015687Y048937
X015750Y014875
X015750Y050250
X015812Y047500
X015875Y009625
X015875Y012750
X015875Y016625
X015875Y037625
X016000Y044000
X016125Y018750
X016125Y024250
X016250Y038625
X016312Y023875
X016437Y047500
X016500Y008125
X016500Y016375
X016562Y052750
X016625Y039750
X016625Y050312
X016875Y024250
X017000Y019750
X017000Y020875
X017000Y021750
X017000Y022625
X017000Y044000
X017125Y038250
X017125Y041687
X017125Y043250
X017250Y006250
X017312Y027312
X017375Y012625
X017375Y036625
X017437Y031750
X017625Y005500
X017625Y007000
X017625Y010875
X017625Y012125
X017625Y041750
X017687Y048062
X017812Y027500
X017875Y004375
X018000Y036500
X018062Y024187
X018062Y031500
X018125Y009375
X018125Y014500
X018125Y033187
X018125Y034250
X018125Y041375
X018125Y044500
X018125Y045437
X018125Y046312
X018250Y027750
X018562Y026562
X018625Y005750
X018625Y024312
X018625Y027187
X018625Y031937
X018687Y044250
X018750Y009625
X018812Y033312
X018812Y050437
X018812Y052750
X019000Y034375
X019000Y040500
X019125Y008875
X019125Y027687
X019125Y029562
X019250Y009875
X019375Y013250
X019375Y022625
X019375Y024250
X019500Y033250
X019562Y030875
X019687Y042437
X019750Y014500
X019750Y029000
X019937Y033312
X020000Y030562
X020125Y047500
X020250Y035000
X020375Y010625
X020500Y021250
X020500Y045250
X020625Y007875
X020875Y012125
X020875Y024250
X020625Y035750
X020625Y040125
X021000Y033750
X021000Y036562
X021125Y040875
X021000Y041750
X021125Y051187
X021250Y006375
X021250Y011375
X021500Y013750
X021250Y020750
X021250Y029500
X021500Y033500
X021562Y032875
X021625Y021625
X021625Y030500
X021625Y031500
X021875Y014125
X022000Y023000
X022000Y051187
X022250Y019625
X022250Y026437
X022500Y037250
X022562Y052812
X022687Y029000
X022750Y023500
X023000Y048125
X023125Y018000
X023562Y031875
X023625Y030625
X023687Y027000
X023687Y033750
X023625Y035625
X023750Y020687
X023750Y022875
X023750Y024625
X023750Y029187
X023875Y030375
X023875Y031500
X023750Y034625
X024000Y038250
X024062Y028500
X024062Y029687
X024125Y030687
X024375Y031437
X024437Y032250
X024437Y034125
X024500Y028187
X024500Y028812
X024750Y038250
X024875Y032562
X025250Y026687
X025250Y028250
X025250Y032562
X025500Y038250
X025500Y044750
X025250Y054375
X025562Y027437
X025562Y028750
X025625Y032687
X025687Y019562
X025750Y034375
X025875Y027812
X026000Y030875
X026125Y029625
X026125Y031812
X026250Y023187
X026250Y033875
X026250Y038250
X026312Y051000
X026437Y030687
X026500Y024625
X026500Y027812
X026625Y032250
X026625Y036000
X026687Y029562
X026750Y023500
X026750Y029125
X026750Y042625
X026875Y033625
X027062Y027750
X026875Y053875
X027250Y023312
X027312Y026875
X027250Y029187
X027250Y030687
X027250Y031437
X027500Y024750
X027625Y011375
X027750Y032312
X027937Y029125
X027937Y030375
X027750Y038250
X027750Y039000
X028250Y029312
X028312Y029937
X028500Y038250
X028500Y039375
X028562Y027125
X028625Y011250
X028625Y014500
X028687Y041750
X028687Y044187
X028687Y046062
X028750Y020125
X028812Y019687
X028812Y031875
X028937Y032375
X029125Y021812
X029125Y024687
X029125Y029062
X029187Y031437
X029250Y029687
X029250Y038250
X029250Y042687
X029250Y050062
X029312Y030125
X029312Y032250
X029437Y023437
X029562Y032875
X029625Y010750
X030000Y023187
X030187Y032437
X030187Y034312
X030000Y038250
X030437Y024562
X030562Y031562
X030625Y033500
X030750Y027062
X030750Y029062
X030750Y034437
X030750Y038250
X030750Y039750
X030875Y030937
X030875Y033125
X031000Y019250
X031000Y020250
X031000Y021812
X031000Y031562
X031125Y032375
X031125Y033812
X031250Y026625
X031250Y039750
X031375Y030500
X031437Y031125
X031437Y032750
X031437Y034250
X031437Y035437
X031500Y038250
X031625Y047062
X032250Y025250
X032250Y039750
X032250Y041562
X032250Y049062
X032375Y010625
X032375Y022250
X032562Y043750
X032625Y023000
X032750Y023875
X032812Y036375
X032875Y020125
X032937Y037562
X032875Y041875
X032875Y048000
X033125Y027000
X033125Y035687
X033250Y040125
X033312Y033125
X033375Y010250
X033375Y029000
X033375Y029750
X033375Y035062
X033500Y030375
X033500Y030937
X033500Y031375
X033500Y032250
X033562Y033375
X033500Y034250
X033625Y020625
X033875Y014500
X033875Y021625
X034125Y037312
X034250Y016000
X034250Y024250
X034312Y034375
X034375Y039375
X034500Y003250
X034625Y036000
X034625Y037000
X034875Y015625
X034875Y019500
X034875Y023250
X034875Y025250
X034875Y028000
X035000Y034875
X035250Y004000
X035375Y030750
X035375Y032250
X035375Y033000
X035375Y039000
X035500Y029250
X035625Y011750
X035625Y031250
X035625Y035500
X035750Y010375
X035875Y005000
X036000Y021625
X036375Y038625
X036000Y047062
X036437Y040000
X036437Y042750
X036500Y010250
X036750Y012875
X036750Y015375
X036750Y025250
X036750Y025875
X036812Y040500
X036812Y042250
X037125Y020750
X037375Y005000
X037375Y014875
X037500Y021250
X038500Y036500
X038750Y045062
X039000Y027125
X039125Y028000
X039250Y026812
X039625Y015750
X039750Y010750
X039625Y025750
X039750Y042250
X040000Y019250
X040000Y030000
X040062Y038812
X040375Y027500
X040375Y033000
T7C0.0390F200S100
X007900Y049450
X009300Y051450
X021000Y017000
X023000Y017000
X023000Y020000
X021000Y020000
X036250Y007250
X036250Y009250
X038250Y011500
X038250Y012500
X038250Y014000
X038250Y015000
X038250Y016500
X038250Y017500
X038250Y019000
X038250Y020000
X039250Y007250
X039250Y009250
T10C0.0551F200S100
X002989Y050761
X002989Y052139
X003000Y004000
X003000Y005378
X003000Y006756
X003000Y009300
X003000Y010678
X003000Y012056
X003000Y013434
X003000Y016000
X003000Y017378
X003000Y020000
X003000Y021378
X003000Y024000
X003000Y025378
X003000Y028000
X003000Y029378
X003000Y032000
X003000Y033378
X003000Y034756
X003000Y036134
X008616Y003000
X009994Y003000
X011372Y003000
X012750Y003000
X014994Y003000
X016372Y003000
X017750Y003000
T6C0.0370F200S100
X001750Y044500
X002750Y044500
X005000Y031250
X005300Y052200
X006000Y031250
X006300Y052200
X022000Y045250
X022000Y046250
X022000Y047250
X022000Y048250
X024410Y016720
X024410Y017720
X025410Y016720
X025410Y017720
X026410Y016720
X026410Y017720
X027410Y016720
X027410Y017720
X028410Y016720
X028410Y017720
X029410Y016720
X029410Y017720
X030410Y016720
X030410Y017720
X031410Y016720
X031410Y017720
X032410Y016720
X032410Y017720
X033410Y016720
X033410Y017720
X038000Y022250
X038000Y023250
X038000Y024250
X038000Y025250
X038000Y026250
X038000Y029000
X038000Y030000
X038000Y031000
X038000Y032000
X038000Y033000
X038000Y034000
X038000Y035000
X038000Y036000
X038000Y037000
X038000Y038000
X039000Y022250
X039000Y023250
X039000Y024250
X039000Y025250
X039000Y026250
X039000Y029000
X039000Y030000
X039000Y031000
X039000Y032000
X039000Y033000
X039000Y034000
X039000Y035000
X039000Y036000
X039000Y037000
X039000Y038000
T9C0.0540F200S100
X007650Y038980
X007650Y039980
X007650Y040980
T13C0.1470F200S100
X001700Y039980
T5C0.0350F200S100
X026650Y012530
T4C0.0340F200S100
X027650Y012530
X028650Y012530
X029650Y012530
T14C0.2450F200S100
X023600Y008530
X032700Y008530
T3C0.0310F200S100
X007750Y034500
X008750Y033500
X008750Y035500
X009275Y042105
X010525Y042105
X011680Y039300
X012930Y039300
X013250Y027250
X014250Y027250
T11C0.0630F200S100
X030163Y053086
T8C0.0470F200S100
X030116Y043323
T12C0.1220F200S100
X001500Y001500
X001500Y054500
X038120Y047750
X039500Y001500
X039500Y054280
M30
