  0
SECTION
  2
HEADER
  9
$ACADVER
  1
AC1015
  9
$ACADMAINTVER
 70
    20
  9
$DWGCODEPAGE
  3
ANSI_1252
  9
$INSBASE
 10
0.0
 20
0.0
 30
0.0
  9
$EXTMIN
 10
-0.0391926239396054
 20
0.0
 30
0.0
  9
$EXTMAX
 10
1.257152451309603
 20
0.8500000000000284
 30
0.0
  9
$LIMMIN
 10
0.0
 20
0.0
  9
$LIMMAX
 10
12.0
 20
9.0
  9
$ORTHOMODE
 70
     0
  9
$REGENMODE
 70
     1
  9
$FILLMODE
 70
     1
  9
$QTEXTMODE
 70
     0
  9
$MIRRTEXT
 70
     1
  9
$LTSCALE
 40
1.0
  9
$ATTMODE
 70
     1
  9
$TEXTSIZE
 40
0.2
  9
$TRACEWID
 40
0.05
  9
$TEXTSTYLE
  7
Standard
  9
$CLAYER
  8
0
  9
$CELTYPE
  6
ByLayer
  9
$CECOLOR
 62
   256
  9
$CELTSCALE
 40
1.0
  9
$DISPSILH
 70
     0
  9
$DIMSCALE
 40
1.0
  9
$DIMASZ
 40
0.18
  9
$DIMEXO
 40
0.0625
  9
$DIMDLI
 40
0.38
  9
$DIMRND
 40
0.0
  9
$DIMDLE
 40
0.0
  9
$DIMEXE
 40
0.18
  9
$DIMTP
 40
0.0
  9
$DIMTM
 40
0.0
  9
$DIMTXT
 40
0.18
  9
$DIMCEN
 40
0.09
  9
$DIMTSZ
 40
0.0
  9
$DIMTOL
 70
     0
  9
$DIMLIM
 70
     0
  9
$DIMTIH
 70
     1
  9
$DIMTOH
 70
     1
  9
$DIMSE1
 70
     0
  9
$DIMSE2
 70
     0
  9
$DIMTAD
 70
     0
  9
$DIMZIN
 70
     0
  9
$DIMBLK
  1

  9
$DIMASO
 70
     1
  9
$DIMSHO
 70
     1
  9
$DIMPOST
  1

  9
$DIMAPOST
  1

  9
$DIMALT
 70
     0
  9
$DIMALTD
 70
     2
  9
$DIMALTF
 40
25.4
  9
$DIMLFAC
 40
1.0
  9
$DIMTOFL
 70
     0
  9
$DIMTVP
 40
0.0
  9
$DIMTIX
 70
     0
  9
$DIMSOXD
 70
     0
  9
$DIMSAH
 70
     0
  9
$DIMBLK1
  1

  9
$DIMBLK2
  1

  9
$DIMSTYLE
  2
Standard
  9
$DIMCLRD
 70
     0
  9
$DIMCLRE
 70
     0
  9
$DIMCLRT
 70
     0
  9
$DIMTFAC
 40
1.0
  9
$DIMGAP
 40
0.09
  9
$DIMJUST
 70
     0
  9
$DIMSD1
 70
     0
  9
$DIMSD2
 70
     0
  9
$DIMTOLJ
 70
     1
  9
$DIMTZIN
 70
     0
  9
$DIMALTZ
 70
     0
  9
$DIMALTTZ
 70
     0
  9
$DIMUPT
 70
     0
  9
$DIMDEC
 70
     4
  9
$DIMTDEC
 70
     4
  9
$DIMALTU
 70
     2
  9
$DIMALTTD
 70
     2
  9
$DIMTXSTY
  7
Standard
  9
$DIMAUNIT
 70
     0
  9
$DIMADEC
 70
     0
  9
$DIMALTRND
 40
0.0
  9
$DIMAZIN
 70
     0
  9
$DIMDSEP
 70
    46
  9
$DIMATFIT
 70
     3
  9
$DIMFRAC
 70
     0
  9
$DIMLDRBLK
  1

  9
$DIMLUNIT
 70
     2
  9
$DIMLWD
 70
    -2
  9
$DIMLWE
 70
    -2
  9
$DIMTMOVE
 70
     0
  9
$LUNITS
 70
     2
  9
$LUPREC
 70
     4
  9
$SKETCHINC
 40
0.1
  9
$FILLETRAD
 40
0.5
  9
$AUNITS
 70
     0
  9
$AUPREC
 70
     0
  9
$MENU
  1
.
  9
$ELEVATION
 40
0.0
  9
$PELEVATION
 40
0.0
  9
$THICKNESS
 40
0.0
  9
$LIMCHECK
 70
     0
  9
$CHAMFERA
 40
0.5
  9
$CHAMFERB
 40
0.5
  9
$CHAMFERC
 40
1.0
  9
$CHAMFERD
 40
0.0
  9
$SKPOLY
 70
     0
  9
$TDCREATE
 40
2455668.657106482
  9
$TDUCREATE
 40
2455668.573773148
  9
$TDUPDATE
 40
2455669.059424294
  9
$TDUUPDATE
 40
2455668.976090961
  9
$TDINDWG
 40
0.0556896644
  9
$TDUSRTIMER
 40
0.0556876852
  9
$USRTIMER
 70
     1
  9
$ANGBASE
 50
0.0
  9
$ANGDIR
 70
     0
  9
$PDMODE
 70
     0
  9
$PDSIZE
 40
0.0
  9
$PLINEWID
 40
0.0
  9
$SPLFRAME
 70
     0
  9
$SPLINETYPE
 70
     6
  9
$SPLINESEGS
 70
     8
  9
$HANDSEED
  5
4F3
  9
$SURFTAB1
 70
     6
  9
$SURFTAB2
 70
     6
  9
$SURFTYPE
 70
     6
  9
$SURFU
 70
     6
  9
$SURFV
 70
     6
  9
$UCSBASE
  2

  9
$UCSNAME
  2

  9
$UCSORG
 10
0.0
 20
0.0
 30
0.0
  9
$UCSXDIR
 10
1.0
 20
0.0
 30
0.0
  9
$UCSYDIR
 10
0.0
 20
1.0
 30
0.0
  9
$UCSORTHOREF
  2

  9
$UCSORTHOVIEW
 70
     0
  9
$UCSORGTOP
 10
0.0
 20
0.0
 30
0.0
  9
$UCSORGBOTTOM
 10
0.0
 20
0.0
 30
0.0
  9
$UCSORGLEFT
 10
0.0
 20
0.0
 30
0.0
  9
$UCSORGRIGHT
 10
0.0
 20
0.0
 30
0.0
  9
$UCSORGFRONT
 10
0.0
 20
0.0
 30
0.0
  9
$UCSORGBACK
 10
0.0
 20
0.0
 30
0.0
  9
$PUCSBASE
  2

  9
$PUCSNAME
  2

  9
$PUCSORG
 10
0.0
 20
0.0
 30
0.0
  9
$PUCSXDIR
 10
1.0
 20
0.0
 30
0.0
  9
$PUCSYDIR
 10
0.0
 20
1.0
 30
0.0
  9
$PUCSORTHOREF
  2

  9
$PUCSORTHOVIEW
 70
     0
  9
$PUCSORGTOP
 10
0.0
 20
0.0
 30
0.0
  9
$PUCSORGBOTTOM
 10
0.0
 20
0.0
 30
0.0
  9
$PUCSORGLEFT
 10
0.0
 20
0.0
 30
0.0
  9
$PUCSORGRIGHT
 10
0.0
 20
0.0
 30
0.0
  9
$PUCSORGFRONT
 10
0.0
 20
0.0
 30
0.0
  9
$PUCSORGBACK
 10
0.0
 20
0.0
 30
0.0
  9
$USERI1
 70
     0
  9
$USERI2
 70
     0
  9
$USERI3
 70
     0
  9
$USERI4
 70
     0
  9
$USERI5
 70
     0
  9
$USERR1
 40
0.0
  9
$USERR2
 40
0.0
  9
$USERR3
 40
0.0
  9
$USERR4
 40
0.0
  9
$USERR5
 40
0.0
  9
$WORLDVIEW
 70
     1
  9
$SHADEDGE
 70
     3
  9
$SHADEDIF
 70
    70
  9
$TILEMODE
 70
     1
  9
$MAXACTVP
 70
    64
  9
$PINSBASE
 10
0.0
 20
0.0
 30
0.0
  9
$PLIMCHECK
 70
     0
  9
$PEXTMIN
 10
1.000000000000000E+20
 20
1.000000000000000E+20
 30
1.000000000000000E+20
  9
$PEXTMAX
 10
-1.000000000000000E+20
 20
-1.000000000000000E+20
 30
-1.000000000000000E+20
  9
$PLIMMIN
 10
0.0
 20
0.0
  9
$PLIMMAX
 10
12.0
 20
9.0
  9
$UNITMODE
 70
     0
  9
$VISRETAIN
 70
     1
  9
$PLINEGEN
 70
     0
  9
$PSLTSCALE
 70
     1
  9
$TREEDEPTH
 70
  3020
  9
$CMLSTYLE
  2
Standard
  9
$CMLJUST
 70
     0
  9
$CMLSCALE
 40
1.0
  9
$PROXYGRAPHICS
 70
     1
  9
$MEASUREMENT
 70
     0
  9
$CELWEIGHT
370
    -1
  9
$ENDCAPS
280
     0
  9
$JOINSTYLE
280
     0
  9
$LWDISPLAY
290
     1
  9
$INSUNITS
 70
     1
  9
$HYPERLINKBASE
  1

  9
$STYLESHEET
  1

  9
$XEDIT
290
     1
  9
$CEPSNTYPE
380
     0
  9
$PSTYLEMODE
290
     1
  9
$FINGERPRINTGUID
  2
{C7588786-7FCC-FA0C-D812-CF112D7E1240}
  9
$VERSIONGUID
  2
{71DBCCBA-99AB-4655-B068-918D3F66C9AE}
  9
$EXTNAMES
290
     1
  9
$PSVPSCALE
 40
0.0
  9
$OLESTARTUP
290
     0
  0
ENDSEC
  0
SECTION
  2
CLASSES
  0
CLASS
  1
ACDBDICTIONARYWDFLT
  2
AcDbDictionaryWithDefault
  3
ObjectDBX Classes
 90
        0
280
     0
281
     0
  0
CLASS
  1
VISUALSTYLE
  2
AcDbVisualStyle
  3
ObjectDBX Classes
 90
     4095
280
     0
281
     0
  0
CLASS
  1
ACDBPLACEHOLDER
  2
AcDbPlaceHolder
  3
ObjectDBX Classes
 90
        0
280
     0
281
     0
  0
CLASS
  1
LAYOUT
  2
AcDbLayout
  3
ObjectDBX Classes
 90
        0
280
     0
281
     0
  0
CLASS
  1
TABLESTYLE
  2
AcDbTableStyle
  3
ObjectDBX Classes
 90
     2047
280
     0
281
     0
  0
CLASS
  1
SORTENTSTABLE
  2
AcDbSortentsTable
  3
ObjectDBX Classes
 90
        0
280
     0
281
     0
  0
CLASS
  1
DICTIONARYVAR
  2
AcDbDictionaryVar
  3
ObjectDBX Classes
 90
        0
280
     0
281
     0
  0
ENDSEC
  0
SECTION
  2
TABLES
  0
TABLE
  2
VPORT
  5
8
330
0
100
AcDbSymbolTable
 70
     6
  0
VPORT
  5
4EB
330
8
100
AcDbSymbolTableRecord
100
AcDbViewportTableRecord
  2
*Active
 70
     0
 10
0.0
 20
0.0
 11
1.0
 21
1.0
 12
-140.7908070690545
 22
-105.4880812966483
 13
0.0
 23
0.0
 14
0.05
 24
0.05
 15
0.5
 25
0.5
 16
0.0
 26
0.0
 36
1.0
 17
141.1112041661107
 27
105.833403124583
 37
0.0
 40
1.252441673035491
 41
2.109567901234568
 42
50.0
 43
0.0
 44
0.0
 50
0.0
 51
0.0
 71
     0
 72
   100
 73
     1
 74
     3
 75
     0
 76
     1
 77
     0
 78
     0
281
     0
 65
     1
110
0.0
120
0.0
130
0.0
111
1.0
121
0.0
131
0.0
112
0.0
122
1.0
132
0.0
 79
     0
146
0.0
  0
ENDTAB
  0
TABLE
  2
LTYPE
  5
5
330
0
100
AcDbSymbolTable
 70
     1
  0
LTYPE
  5
14
330
5
100
AcDbSymbolTableRecord
100
AcDbLinetypeTableRecord
  2
ByBlock
 70
     0
  3

 72
    65
 73
     0
 40
0.0
  0
LTYPE
  5
15
330
5
100
AcDbSymbolTableRecord
100
AcDbLinetypeTableRecord
  2
ByLayer
 70
     0
  3

 72
    65
 73
     0
 40
0.0
  0
LTYPE
  5
16
330
5
100
AcDbSymbolTableRecord
100
AcDbLinetypeTableRecord
  2
Continuous
 70
     0
  3
Solid line
 72
    65
 73
     0
 40
0.0
  0
ENDTAB
  0
TABLE
  2
LAYER
  5
2
102
{ACAD_XDICTIONARY
360
22D
102
}
330
0
100
AcDbSymbolTable
 70
     3
  0
LAYER
  5
10
330
2
100
AcDbSymbolTableRecord
100
AcDbLayerTableRecord
  2
0
 70
     0
 62
     7
  6
Continuous
370
    -3
390
F
  0
LAYER
  5
3B
330
2
100
AcDbSymbolTableRecord
100
AcDbLayerTableRecord
  2
Livello 1
 70
     0
 62
     7
  6
Continuous
370
    -3
390
F
  0
LAYER
  5
22B
330
2
100
AcDbSymbolTableRecord
100
AcDbLayerTableRecord
  2
Layer1
 70
     0
 62
     1
  6
Continuous
370
    -3
390
F
1001
AcAecLayerStandard
1000

1000

  0
ENDTAB
  0
TABLE
  2
STYLE
  5
3
330
0
100
AcDbSymbolTable
 70
     1
  0
STYLE
  5
11
330
3
100
AcDbSymbolTableRecord
100
AcDbTextStyleTableRecord
  2
Standard
 70
     0
 40
0.0
 41
1.0
 50
0.0
 71
     0
 42
0.2
  3
txt
  4

  0
ENDTAB
  0
TABLE
  2
VIEW
  5
6
330
0
100
AcDbSymbolTable
 70
     0
  0
ENDTAB
  0
TABLE
  2
UCS
  5
7
330
0
100
AcDbSymbolTable
 70
     0
  0
ENDTAB
  0
TABLE
  2
APPID
  5
9
330
0
100
AcDbSymbolTable
 70
     2
  0
APPID
  5
12
330
9
100
AcDbSymbolTableRecord
100
AcDbRegAppTableRecord
  2
ACAD
 70
     0
  0
APPID
  5
22C
330
9
100
AcDbSymbolTableRecord
100
AcDbRegAppTableRecord
  2
AcAecLayerStandard
 70
     0
  0
ENDTAB
  0
TABLE
  2
DIMSTYLE
  5
A
330
0
100
AcDbSymbolTable
 70
     1
100
AcDbDimStyleTable
 71
     0
  0
DIMSTYLE
105
27
330
A
100
AcDbSymbolTableRecord
100
AcDbDimStyleTableRecord
  2
Standard
 70
     0
340
11
  0
ENDTAB
  0
TABLE
  2
BLOCK_RECORD
  5
1
330
0
100
AcDbSymbolTable
 70
    17
  0
BLOCK_RECORD
  5
1F
102
{ACAD_XDICTIONARY
360
176
102
}
330
1
100
AcDbSymbolTableRecord
100
AcDbBlockTableRecord
  2
*Model_Space
340
22
  0
BLOCK_RECORD
  5
1B
330
1
100
AcDbSymbolTableRecord
100
AcDbBlockTableRecord
  2
*Paper_Space
340
1E
  0
BLOCK_RECORD
  5
23
330
1
100
AcDbSymbolTableRecord
100
AcDbBlockTableRecord
  2
*Paper_Space0
340
26
  0
BLOCK_RECORD
  5
3C
330
1
100
AcDbSymbolTableRecord
100
AcDbBlockTableRecord
  2
block 2
340
0
  0
BLOCK_RECORD
  5
40
330
1
100
AcDbSymbolTableRecord
100
AcDbBlockTableRecord
  2
block 3
340
0
102
{BLKREFS
331
41
102
}
  0
BLOCK_RECORD
  5
4B
330
1
100
AcDbSymbolTableRecord
100
AcDbBlockTableRecord
  2
block 4
340
0
102
{BLKREFS
331
4C
102
}
  0
BLOCK_RECORD
  5
63
330
1
100
AcDbSymbolTableRecord
100
AcDbBlockTableRecord
  2
block 5
340
0
  0
BLOCK_RECORD
  5
69
330
1
100
AcDbSymbolTableRecord
100
AcDbBlockTableRecord
  2
block 6
340
0
102
{BLKREFS
331
6A
102
}
  0
BLOCK_RECORD
  5
D3
330
1
100
AcDbSymbolTableRecord
100
AcDbBlockTableRecord
  2
block 7
340
0
102
{BLKREFS
331
D4
102
}
  0
BLOCK_RECORD
  5
D7
330
1
100
AcDbSymbolTableRecord
100
AcDbBlockTableRecord
  2
block 8
340
0
102
{BLKREFS
331
D8
102
}
  0
BLOCK_RECORD
  5
EF
330
1
100
AcDbSymbolTableRecord
100
AcDbBlockTableRecord
  2
block 9
340
0
102
{BLKREFS
331
F0
102
}
  0
BLOCK_RECORD
  5
F3
330
1
100
AcDbSymbolTableRecord
100
AcDbBlockTableRecord
  2
block 10
340
0
102
{BLKREFS
331
F4
102
}
  0
BLOCK_RECORD
  5
11E
330
1
100
AcDbSymbolTableRecord
100
AcDbBlockTableRecord
  2
block 11
340
0
102
{BLKREFS
331
11F
102
}
  0
BLOCK_RECORD
  5
126
330
1
100
AcDbSymbolTableRecord
100
AcDbBlockTableRecord
  2
block 12
340
0
102
{BLKREFS
331
127
102
}
  0
BLOCK_RECORD
  5
12A
330
1
100
AcDbSymbolTableRecord
100
AcDbBlockTableRecord
  2
block 13
340
0
102
{BLKREFS
331
12B
102
}
  0
BLOCK_RECORD
  5
136
330
1
100
AcDbSymbolTableRecord
100
AcDbBlockTableRecord
  2
block 14
340
0
102
{BLKREFS
331
137
102
}
  0
BLOCK_RECORD
  5
142
330
1
100
AcDbSymbolTableRecord
100
AcDbBlockTableRecord
  2
block 15
340
0
102
{BLKREFS
331
143
102
}
  0
BLOCK_RECORD
  5
14E
330
1
100
AcDbSymbolTableRecord
100
AcDbBlockTableRecord
  2
block 16
340
0
102
{BLKREFS
331
14F
102
}
  0
BLOCK_RECORD
  5
15A
330
1
100
AcDbSymbolTableRecord
100
AcDbBlockTableRecord
  2
block 17
340
0
102
{BLKREFS
331
15B
102
}
  0
ENDTAB
  0
ENDSEC
  0
SECTION
  2
BLOCKS
  0
BLOCK
  5
20
330
1F
100
AcDbEntity
  8
0
100
AcDbBlockBegin
  2
*Model_Space
 70
     0
 10
0.0
 20
0.0
 30
0.0
  3
*Model_Space
  1

  0
ENDBLK
  5
21
330
1F
100
AcDbEntity
  8
0
100
AcDbBlockEnd
  0
BLOCK
  5
1C
330
1B
100
AcDbEntity
 67
     1
  8
0
100
AcDbBlockBegin
  2
*Paper_Space
 70
     0
 10
0.0
 20
0.0
 30
0.0
  3
*Paper_Space
  1

  0
ENDBLK
  5
1D
330
1B
100
AcDbEntity
 67
     1
  8
0
100
AcDbBlockEnd
  0
BLOCK
  5
24
330
23
100
AcDbEntity
  8
0
100
AcDbBlockBegin
  2
*Paper_Space0
 70
     0
 10
0.0
 20
0.0
 30
0.0
  3
*Paper_Space0
  1

  0
ENDBLK
  5
25
330
23
100
AcDbEntity
  8
0
100
AcDbBlockEnd
  0
BLOCK
  5
3E
330
3C
100
AcDbEntity
  8
0
100
AcDbBlockBegin
  2
block 2
 70
     0
 10
0.0
 20
0.0
 30
0.0
  3
block 2
  1

  0
INSERT
  5
41
330
3C
100
AcDbEntity
  8
Livello 1
100
AcDbBlockReference
  2
block 3
 10
0.0
 20
0.0
 30
0.0
  0
INSERT
  5
4C
330
3C
100
AcDbEntity
  8
Livello 1
100
AcDbBlockReference
  2
block 4
 10
0.0
 20
0.0
 30
0.0
  0
ENDBLK
  5
3F
330
3C
100
AcDbEntity
  8
0
100
AcDbBlockEnd
  0
BLOCK
  5
42
330
40
100
AcDbEntity
  8
0
100
AcDbBlockBegin
  2
block 3
 70
     0
 10
0.0
 20
0.0
 30
0.0
  3
block 3
  1

  0
SPLINE
  5
44
330
40
100
AcDbEntity
  8
Livello 1
370
     0
100
AcDbSpline
210
0.0
220
0.0
230
1.0
 70
    11
 71
     3
 72
    44
 73
    40
 74
     0
 42
0.0000000001
 43
0.0000000001
 40
0.0
 40
0.0
 40
0.0
 40
0.0
 40
1.0
 40
1.0
 40
1.0
 40
2.0
 40
2.0
 40
2.0
 40
3.0
 40
3.0
 40
3.0
 40
4.0
 40
4.0
 40
4.0
 40
5.0
 40
5.0
 40
5.0
 40
6.0
 40
6.0
 40
6.0
 40
7.0
 40
7.0
 40
7.0
 40
8.0
 40
8.0
 40
8.0
 40
9.0
 40
9.0
 40
9.0
 40
10.0
 40
10.0
 40
10.0
 40
11.0
 40
11.0
 40
11.0
 40
12.0
 40
12.0
 40
12.0
 40
13.0
 40
13.0
 40
13.0
 40
13.0
 10
99.90370086357941
 20
110.2663826646403
 30
0.0
 10
99.90370086357941
 20
110.2663826646403
 30
0.0
 10
99.90370086357941
 20
135.3396318921975
 30
0.0
 10
99.90370086357941
 20
135.3396318921975
 30
0.0
 10
99.90370086357941
 20
135.3396318921975
 30
0.0
 10
111.0523817181192
 20
135.3396318921975
 30
0.0
 10
111.0523817181192
 20
135.3396318921975
 30
0.0
 10
112.5754594369141
 20
135.3396318921975
 30
0.0
 10
113.8847688398274
 20
134.789449780251
 30
0.0
 10
114.9778983584287
 20
133.6894300661339
 30
0.0
 10
116.0715446416936
 20
132.5885490775772
 30
0.0
 10
116.61845391077
 20
131.282340262646
 30
0.0
 10
116.61845391077
 20
129.7690810724614
 30
0.0
 10
116.61845391077
 20
129.7690810724614
 30
0.0
 10
116.61845391077
 20
128.3638256969888
 30
0.0
 10
116.61845391077
 20
128.3638256969888
 30
0.0
 10
116.61845391077
 20
126.7303325950513
 30
0.0
 10
116.1576720856426
 20
125.44789495465
 30
0.0
 10
115.2355916707242
 20
124.5172017953367
 30
0.0
 10
114.312994491142
 20
123.5861641262475
 30
0.0
 10
112.9239310751319
 20
123.0120385848832
 30
0.0
 10
111.0682291678058
 20
122.7937916419163
 30
0.0
 10
112.9239310751319
 20
122.7937916419163
 30
0.0
 10
114.312994491142
 20
122.2337910013597
 30
0.0
 10
115.2355916707242
 20
121.1136174653584
 30
0.0
 10
116.1576720856426
 20
119.9929271646935
 30
0.0
 10
116.61845391077
 20
118.6996374663547
 30
0.0
 10
116.61845391077
 20
117.2315090567993
 30
0.0
 10
116.61845391077
 20
117.2315090567993
 30
0.0
 10
116.61845391077
 20
115.8288375046452
 30
0.0
 10
116.61845391077
 20
115.8288375046452
 30
0.0
 10
116.61845391077
 20
114.3178176280032
 30
0.0
 10
116.0694775830388
 20
113.0112643032962
 30
0.0
 10
114.9694578689216
 20
111.9131393929459
 30
0.0
 10
113.8706439390197
 20
110.8146699728199
 30
0.0
 10
112.5649518887523
 20
110.2663826646403
 30
0.0
 10
111.0523817181192
 20
110.2663826646403
 30
0.0
 10
111.0523817181192
 20
110.2663826646403
 30
0.0
 10
99.90370086357941
 20
110.2663826646403
 30
0.0
 10
99.90370086357941
 20
110.2663826646403
 30
0.0
  0
SPLINE
  5
45
330
40
100
AcDbEntity
  8
Livello 1
370
     0
100
AcDbSpline
210
0.0
220
0.0
230
1.0
 70
    11
 71
     3
 72
    29
 73
    25
 74
     0
 42
0.0000000001
 43
0.0000000001
 40
0.0
 40
0.0
 40
0.0
 40
0.0
 40
1.0
 40
1.0
 40
1.0
 40
2.0
 40
2.0
 40
2.0
 40
3.0
 40
3.0
 40
3.0
 40
4.0
 40
4.0
 40
4.0
 40
5.0
 40
5.0
 40
5.0
 40
6.0
 40
6.0
 40
6.0
 40
7.0
 40
7.0
 40
7.0
 40
8.0
 40
8.0
 40
8.0
 40
8.0
 10
105.470117566006
 20
124.188711724115
 30
0.0
 10
105.470117566006
 20
124.188711724115
 30
0.0
 10
108.2615080243944
 20
124.188711724115
 30
0.0
 10
108.2615080243944
 20
124.188711724115
 30
0.0
 10
109.0230468837919
 20
124.188711724115
 30
0.0
 10
109.6779599675804
 20
124.4639750349762
 30
0.0
 10
110.2284865893027
 20
125.0145016566984
 30
0.0
 10
110.7774629170339
 20
125.562961219766
 30
0.0
 10
111.0523817181192
 20
126.2195968524334
 30
0.0
 10
111.0523817181192
 20
126.9801021825035
 30
0.0
 10
111.0523817181192
 20
126.9801021825035
 30
0.0
 10
111.0523817181192
 20
129.7723539153314
 30
0.0
 10
111.0523817181192
 20
129.7723539153314
 30
0.0
 10
111.0523817181192
 20
130.533720519841
 30
0.0
 10
110.7774629170339
 20
131.1870833096384
 30
0.0
 10
110.2284865893027
 20
131.7308919907327
 30
0.0
 10
109.6779599675804
 20
132.2748729267148
 30
0.0
 10
109.0230468837919
 20
132.5482414338091
 30
0.0
 10
108.2615080243944
 20
132.5482414338091
 30
0.0
 10
108.2615080243944
 20
132.5482414338091
 30
0.0
 10
105.470117566006
 20
132.5482414338091
 30
0.0
 10
105.470117566006
 20
132.5482414338091
 30
0.0
 10
105.470117566006
 20
132.5482414338091
 30
0.0
 10
105.470117566006
 20
124.188711724115
 30
0.0
 10
105.470117566006
 20
124.188711724115
 30
0.0
  0
SPLINE
  5
46
330
40
100
AcDbEntity
  8
Livello 1
370
     0
100
AcDbSpline
210
0.0
220
0.0
230
1.0
 70
    11
 71
     3
 72
    26
 73
    22
 74
     0
 42
0.0000000001
 43
0.0000000001
 40
0.0
 40
0.0
 40
0.0
 40
0.0
 40
1.0
 40
1.0
 40
1.0
 40
2.0
 40
2.0
 40
2.0
 40
3.0
 40
3.0
 40
3.0
 40
4.0
 40
4.0
 40
4.0
 40
5.0
 40
5.0
 40
5.0
 40
6.0
 40
6.0
 40
6.0
 40
7.0
 40
7.0
 40
7.0
 40
7.0
 10
105.470117566006
 20
113.0577731230287
 30
0.0
 10
105.470117566006
 20
113.0577731230287
 30
0.0
 10
108.2615080243944
 20
113.0577731230287
 30
0.0
 10
108.2615080243944
 20
113.0577731230287
 30
0.0
 10
109.0230468837919
 20
113.0577731230287
 30
0.0
 10
109.6779599675804
 20
113.3307971203472
 30
0.0
 10
110.2284865893027
 20
113.8797734480784
 30
0.0
 10
110.7774629170339
 20
114.4282330111459
 30
0.0
 10
111.0523817181192
 20
115.0779784482974
 30
0.0
 10
111.0523817181192
 20
115.8271149557662
 30
0.0
 10
111.0523817181192
 20
115.8271149557662
 30
0.0
 10
111.0523817181192
 20
118.6124764930782
 30
0.0
 10
111.0523817181192
 20
118.6124764930782
 30
0.0
 10
111.0523817181192
 20
120.4693841846196
 30
0.0
 10
110.1225498332453
 20
121.3980102852781
 30
0.0
 10
108.2615080243944
 20
121.3980102852781
 30
0.0
 10
108.2615080243944
 20
121.3980102852781
 30
0.0
 10
105.470117566006
 20
121.3980102852781
 30
0.0
 10
105.470117566006
 20
121.3980102852781
 30
0.0
 10
105.470117566006
 20
121.3980102852781
 30
0.0
 10
105.470117566006
 20
113.0577731230287
 30
0.0
 10
105.470117566006
 20
113.0577731230287
 30
0.0
  0
HATCH
  5
47
330
40
100
AcDbEntity
  8
Livello 1
 62
     7
100
AcDbHatch
 10
0.0
 20
0.0
 30
0.0
210
0.0
220
0.0
230
1.0
  2
SOLID
 70
     1
 71
     0
 91
        3
 92
        1
 93
        1
 72
     4
 94
        3
 73
     0
 74
     1
 95
       40
 96
       40
 40
0.0
 40
0.0
 40
0.0
 40
1.0
 40
1.0
 40
1.0
 40
2.0
 40
2.0
 40
2.0
 40
3.0
 40
3.0
 40
3.0
 40
4.0
 40
4.0
 40
4.0
 40
5.0
 40
5.0
 40
5.0
 40
6.0
 40
6.0
 40
6.0
 40
7.0
 40
7.0
 40
7.0
 40
8.0
 40
8.0
 40
8.0
 40
9.0
 40
9.0
 40
9.0
 40
10.0
 40
10.0
 40
10.0
 40
11.0
 40
11.0
 40
11.0
 40
12.0
 40
12.0
 40
12.0
 40
13.0
 10
99.90370086357941
 20
110.2663826646403
 10
99.90370086357941
 20
110.2663826646403
 10
99.90370086357941
 20
110.2663826646403
 10
99.90370086357941
 20
135.3396318921975
 10
99.90370086357941
 20
135.3396318921975
 10
99.90370086357941
 20
135.3396318921975
 10
111.0523817181192
 20
135.3396318921975
 10
111.0523817181192
 20
135.3396318921975
 10
112.5754594369141
 20
135.3396318921975
 10
113.8847688398274
 20
134.789449780251
 10
114.9778983584287
 20
133.6894300661339
 10
116.0715446416936
 20
132.5885490775772
 10
116.61845391077
 20
131.282340262646
 10
116.61845391077
 20
129.7690810724614
 10
116.61845391077
 20
129.7690810724614
 10
116.61845391077
 20
128.3638256969888
 10
116.61845391077
 20
128.3638256969888
 10
116.61845391077
 20
126.7303325950513
 10
116.1576720856426
 20
125.44789495465
 10
115.2355916707242
 20
124.5172017953367
 10
114.312994491142
 20
123.5861641262475
 10
112.9239310751319
 20
123.0120385848832
 10
111.0682291678058
 20
122.7937916419163
 10
112.9239310751319
 20
122.7937916419163
 10
114.312994491142
 20
122.2337910013597
 10
115.2355916707242
 20
121.1136174653584
 10
116.1576720856426
 20
119.9929271646935
 10
116.61845391077
 20
118.6996374663547
 10
116.61845391077
 20
117.2315090567993
 10
116.61845391077
 20
117.2315090567993
 10
116.61845391077
 20
115.8288375046452
 10
116.61845391077
 20
115.8288375046452
 10
116.61845391077
 20
114.3178176280032
 10
116.0694775830388
 20
113.0112643032962
 10
114.9694578689216
 20
111.9131393929459
 10
113.8706439390197
 20
110.8146699728199
 10
112.5649518887523
 20
110.2663826646403
 10
111.0523817181192
 20
110.2663826646403
 10
111.0523817181192
 20
110.2663826646403
 10
99.90370086357941
 20
110.2663826646403
 97
        0
 92
        1
 93
        1
 72
     4
 94
        3
 73
     0
 74
     1
 95
       25
 96
       25
 40
0.0
 40
0.0
 40
0.0
 40
1.0
 40
1.0
 40
1.0
 40
2.0
 40
2.0
 40
2.0
 40
3.0
 40
3.0
 40
3.0
 40
4.0
 40
4.0
 40
4.0
 40
5.0
 40
5.0
 40
5.0
 40
6.0
 40
6.0
 40
6.0
 40
7.0
 40
7.0
 40
7.0
 40
8.0
 10
105.470117566006
 20
124.188711724115
 10
105.470117566006
 20
124.188711724115
 10
105.470117566006
 20
124.188711724115
 10
108.2615080243944
 20
124.188711724115
 10
108.2615080243944
 20
124.188711724115
 10
109.0230468837919
 20
124.188711724115
 10
109.6779599675804
 20
124.4639750349762
 10
110.2284865893027
 20
125.0145016566984
 10
110.7774629170339
 20
125.562961219766
 10
111.0523817181192
 20
126.2195968524334
 10
111.0523817181192
 20
126.9801021825035
 10
111.0523817181192
 20
126.9801021825035
 10
111.0523817181192
 20
129.7723539153314
 10
111.0523817181192
 20
129.7723539153314
 10
111.0523817181192
 20
130.533720519841
 10
110.7774629170339
 20
131.1870833096384
 10
110.2284865893027
 20
131.7308919907327
 10
109.6779599675804
 20
132.2748729267148
 10
109.0230468837919
 20
132.5482414338091
 10
108.2615080243944
 20
132.5482414338091
 10
108.2615080243944
 20
132.5482414338091
 10
105.470117566006
 20
132.5482414338091
 10
105.470117566006
 20
132.5482414338091
 10
105.470117566006
 20
132.5482414338091
 10
105.470117566006
 20
124.188711724115
 97
        0
 92
        1
 93
        1
 72
     4
 94
        3
 73
     0
 74
     1
 95
       22
 96
       22
 40
0.0
 40
0.0
 40
0.0
 40
1.0
 40
1.0
 40
1.0
 40
2.0
 40
2.0
 40
2.0
 40
3.0
 40
3.0
 40
3.0
 40
4.0
 40
4.0
 40
4.0
 40
5.0
 40
5.0
 40
5.0
 40
6.0
 40
6.0
 40
6.0
 40
7.0
 10
105.470117566006
 20
113.0577731230287
 10
105.470117566006
 20
113.0577731230287
 10
105.470117566006
 20
113.0577731230287
 10
108.2615080243944
 20
113.0577731230287
 10
108.2615080243944
 20
113.0577731230287
 10
109.0230468837919
 20
113.0577731230287
 10
109.6779599675804
 20
113.3307971203472
 10
110.2284865893027
 20
113.8797734480784
 10
110.7774629170339
 20
114.4282330111459
 10
111.0523817181192
 20
115.0779784482974
 10
111.0523817181192
 20
115.8271149557662
 10
111.0523817181192
 20
115.8271149557662
 10
111.0523817181192
 20
118.6124764930782
 10
111.0523817181192
 20
118.6124764930782
 10
111.0523817181192
 20
120.4693841846196
 10
110.1225498332453
 20
121.3980102852781
 10
108.2615080243944
 20
121.3980102852781
 10
108.2615080243944
 20
121.3980102852781
 10
105.470117566006
 20
121.3980102852781
 10
105.470117566006
 20
121.3980102852781
 10
105.470117566006
 20
121.3980102852781
 10
105.470117566006
 20
113.0577731230287
 97
        0
 75
     2
 76
     1
 98
        0
  0
SPLINE
  5
48
330
40
100
AcDbEntity
  8
Livello 1
370
     0
100
AcDbSpline
210
0.0
220
0.0
230
1.0
 70
    11
 71
     3
 72
    59
 73
    55
 74
     0
 42
0.0000000001
 43
0.0000000001
 40
0.0
 40
0.0
 40
0.0
 40
0.0
 40
1.0
 40
1.0
 40
1.0
 40
2.0
 40
2.0
 40
2.0
 40
3.0
 40
3.0
 40
3.0
 40
4.0
 40
4.0
 40
4.0
 40
5.0
 40
5.0
 40
5.0
 40
6.0
 40
6.0
 40
6.0
 40
7.0
 40
7.0
 40
7.0
 40
8.0
 40
8.0
 40
8.0
 40
9.0
 40
9.0
 40
9.0
 40
10.0
 40
10.0
 40
10.0
 40
11.0
 40
11.0
 40
11.0
 40
12.0
 40
12.0
 40
12.0
 40
13.0
 40
13.0
 40
13.0
 40
14.0
 40
14.0
 40
14.0
 40
15.0
 40
15.0
 40
15.0
 40
16.0
 40
16.0
 40
16.0
 40
17.0
 40
17.0
 40
17.0
 40
18.0
 40
18.0
 40
18.0
 40
18.0
 10
138.9163323845133
 20
118.6236730607916
 30
0.0
 10
138.9163323845133
 20
118.6236730607916
 30
0.0
 10
127.7514595705111
 20
118.6236730607916
 30
0.0
 10
127.7514595705111
 20
118.6236730607916
 30
0.0
 10
127.7514595705111
 20
118.6236730607916
 30
0.0
 10
127.7514595705111
 20
115.8321103475153
 30
0.0
 10
127.7514595705111
 20
115.8321103475153
 30
0.0
 10
127.7514595705111
 20
115.0812512911675
 30
0.0
 10
128.0239668031659
 20
114.4311613442401
 30
0.0
 10
128.5691535233633
 20
113.8808069774058
 30
0.0
 10
129.1150292631124
 20
113.3318306496746
 30
0.0
 10
129.7740764642104
 20
113.0577731230287
 30
0.0
 10
130.5481899304244
 20
113.0577731230287
 30
0.0
 10
130.5481899304244
 20
113.0577731230287
 30
0.0
 10
133.3449202903377
 20
113.0577731230287
 30
0.0
 10
133.3449202903377
 20
113.0577731230287
 30
0.0
 10
135.1976938645695
 20
113.0577731230287
 30
0.0
 10
136.124769671237
 20
113.9881217725663
 30
0.0
 10
136.124769671237
 20
115.8488190716414
 30
0.0
 10
136.124769671237
 20
115.8488190716414
 30
0.0
 10
138.9163323845133
 20
115.8488190716414
 30
0.0
 10
138.9163323845133
 20
115.8488190716414
 30
0.0
 10
138.480872027907
 20
112.1267354539396
 30
0.0
 10
136.6232753168141
 20
110.2663826646403
 30
0.0
 10
133.3449202903377
 20
110.2663826646403
 30
0.0
 10
133.3449202903377
 20
110.2663826646403
 30
0.0
 10
127.7573162366996
 20
110.2663826646403
 30
0.0
 10
127.7573162366996
 20
110.2663826646403
 30
0.0
 10
126.2316546945863
 20
110.2663826646403
 30
0.0
 10
124.922345291673
 20
110.8129474239409
 30
0.0
 10
123.8266319497532
 20
111.90624919743
 30
0.0
 10
122.731779882273
 20
113.0000677355829
 30
0.0
 10
122.1845261034208
 20
114.307999099393
 30
0.0
 10
122.1845261034208
 20
115.8321103475153
 30
0.0
 10
122.1845261034208
 20
115.8321103475153
 30
0.0
 10
122.1845261034208
 20
124.188711724115
 30
0.0
 10
122.1845261034208
 20
124.188711724115
 30
0.0
 10
122.1845261034208
 20
125.7240195399506
 30
0.0
 10
122.7345359604794
 20
127.038324334613
 30
0.0
 10
123.8349001843724
 20
128.1330041472054
 30
0.0
 10
124.9354366631532
 20
129.2252723913671
 30
0.0
 10
126.2421622427481
 20
129.7723539153314
 30
0.0
 10
127.7573162366996
 20
129.7723539153314
 30
0.0
 10
127.7573162366996
 20
129.7723539153314
 30
0.0
 10
133.3449202903377
 20
129.7723539153314
 30
0.0
 10
133.3449202903377
 20
129.7723539153314
 30
0.0
 10
134.8693760482358
 20
129.7723539153314
 30
0.0
 10
136.178857706037
 20
129.2233775876002
 30
0.0
 10
137.2743987930688
 20
128.1237023832589
 30
0.0
 10
138.3685618409975
 20
127.0250607082449
 30
0.0
 10
138.9163323845133
 20
125.7129952271252
 30
0.0
 10
138.9163323845133
 20
124.188711724115
 30
0.0
 10
138.9163323845133
 20
124.188711724115
 30
0.0
 10
138.9163323845133
 20
118.6236730607916
 30
0.0
 10
138.9163323845133
 20
118.6236730607916
 30
0.0
  0
SPLINE
  5
49
330
40
100
AcDbEntity
  8
Livello 1
370
     0
100
AcDbSpline
210
0.0
220
0.0
230
1.0
 70
    11
 71
     3
 72
    26
 73
    22
 74
     0
 42
0.0000000001
 43
0.0000000001
 40
0.0
 40
0.0
 40
0.0
 40
0.0
 40
1.0
 40
1.0
 40
1.0
 40
2.0
 40
2.0
 40
2.0
 40
3.0
 40
3.0
 40
3.0
 40
4.0
 40
4.0
 40
4.0
 40
5.0
 40
5.0
 40
5.0
 40
6.0
 40
6.0
 40
6.0
 40
7.0
 40
7.0
 40
7.0
 40
7.0
 10
127.7514595705111
 20
121.4145467545164
 30
0.0
 10
127.7514595705111
 20
121.4145467545164
 30
0.0
 10
133.3497434271988
 20
121.4145467545164
 30
0.0
 10
133.3497434271988
 20
121.4145467545164
 30
0.0
 10
133.3497434271988
 20
121.4145467545164
 30
0.0
 10
133.3497434271988
 20
124.188711724115
 30
0.0
 10
133.3497434271988
 20
124.188711724115
 30
0.0
 10
133.3497434271988
 20
124.9512841128398
 30
0.0
 10
133.0748246261135
 20
125.6070584710679
 30
0.0
 10
132.5236089848396
 20
126.1574128379022
 30
0.0
 10
131.97204883379
 20
126.7062169107455
 30
0.0
 10
131.3148964364588
 20
126.9801021825035
 30
0.0
 10
130.5512905184066
 20
126.9801021825035
 30
0.0
 10
129.7861343063633
 20
126.9801021825035
 30
0.0
 10
129.1296709285837
 20
126.7062169107455
 30
0.0
 10
128.5770772482066
 20
126.1574128379022
 30
0.0
 10
128.0265506264844
 20
125.6070584710679
 30
0.0
 10
127.7514595705111
 20
124.9512841128398
 30
0.0
 10
127.7514595705111
 20
124.188711724115
 30
0.0
 10
127.7514595705111
 20
124.188711724115
 30
0.0
 10
127.7514595705111
 20
121.4145467545164
 30
0.0
 10
127.7514595705111
 20
121.4145467545164
 30
0.0
  0
HATCH
  5
4A
330
40
100
AcDbEntity
  8
Livello 1
 62
     7
100
AcDbHatch
 10
0.0
 20
0.0
 30
0.0
210
0.0
220
0.0
230
1.0
  2
SOLID
 70
     1
 71
     0
 91
        2
 92
        1
 93
        1
 72
     4
 94
        3
 73
     0
 74
     1
 95
       55
 96
       55
 40
0.0
 40
0.0
 40
0.0
 40
1.0
 40
1.0
 40
1.0
 40
2.0
 40
2.0
 40
2.0
 40
3.0
 40
3.0
 40
3.0
 40
4.0
 40
4.0
 40
4.0
 40
5.0
 40
5.0
 40
5.0
 40
6.0
 40
6.0
 40
6.0
 40
7.0
 40
7.0
 40
7.0
 40
8.0
 40
8.0
 40
8.0
 40
9.0
 40
9.0
 40
9.0
 40
10.0
 40
10.0
 40
10.0
 40
11.0
 40
11.0
 40
11.0
 40
12.0
 40
12.0
 40
12.0
 40
13.0
 40
13.0
 40
13.0
 40
14.0
 40
14.0
 40
14.0
 40
15.0
 40
15.0
 40
15.0
 40
16.0
 40
16.0
 40
16.0
 40
17.0
 40
17.0
 40
17.0
 40
18.0
 10
138.9163323845133
 20
118.6236730607916
 10
138.9163323845133
 20
118.6236730607916
 10
138.9163323845133
 20
118.6236730607916
 10
127.7514595705111
 20
118.6236730607916
 10
127.7514595705111
 20
118.6236730607916
 10
127.7514595705111
 20
118.6236730607916
 10
127.7514595705111
 20
115.8321103475153
 10
127.7514595705111
 20
115.8321103475153
 10
127.7514595705111
 20
115.0812512911675
 10
128.0239668031659
 20
114.4311613442401
 10
128.5691535233633
 20
113.8808069774058
 10
129.1150292631124
 20
113.3318306496746
 10
129.7740764642104
 20
113.0577731230287
 10
130.5481899304244
 20
113.0577731230287
 10
130.5481899304244
 20
113.0577731230287
 10
133.3449202903377
 20
113.0577731230287
 10
133.3449202903377
 20
113.0577731230287
 10
135.1976938645695
 20
113.0577731230287
 10
136.124769671237
 20
113.9881217725663
 10
136.124769671237
 20
115.8488190716414
 10
136.124769671237
 20
115.8488190716414
 10
138.9163323845133
 20
115.8488190716414
 10
138.9163323845133
 20
115.8488190716414
 10
138.480872027907
 20
112.1267354539396
 10
136.6232753168141
 20
110.2663826646403
 10
133.3449202903377
 20
110.2663826646403
 10
133.3449202903377
 20
110.2663826646403
 10
127.7573162366996
 20
110.2663826646403
 10
127.7573162366996
 20
110.2663826646403
 10
126.2316546945863
 20
110.2663826646403
 10
124.922345291673
 20
110.8129474239409
 10
123.8266319497532
 20
111.90624919743
 10
122.731779882273
 20
113.0000677355829
 10
122.1845261034208
 20
114.307999099393
 10
122.1845261034208
 20
115.8321103475153
 10
122.1845261034208
 20
115.8321103475153
 10
122.1845261034208
 20
124.188711724115
 10
122.1845261034208
 20
124.188711724115
 10
122.1845261034208
 20
125.7240195399506
 10
122.7345359604794
 20
127.038324334613
 10
123.8349001843724
 20
128.1330041472054
 10
124.9354366631532
 20
129.2252723913671
 10
126.2421622427481
 20
129.7723539153314
 10
127.7573162366996
 20
129.7723539153314
 10
127.7573162366996
 20
129.7723539153314
 10
133.3449202903377
 20
129.7723539153314
 10
133.3449202903377
 20
129.7723539153314
 10
134.8693760482358
 20
129.7723539153314
 10
136.178857706037
 20
129.2233775876002
 10
137.2743987930688
 20
128.1237023832589
 10
138.3685618409975
 20
127.0250607082449
 10
138.9163323845133
 20
125.7129952271252
 10
138.9163323845133
 20
124.188711724115
 10
138.9163323845133
 20
124.188711724115
 10
138.9163323845133
 20
118.6236730607916
 97
        0
 92
        1
 93
        1
 72
     4
 94
        3
 73
     0
 74
     1
 95
       22
 96
       22
 40
0.0
 40
0.0
 40
0.0
 40
1.0
 40
1.0
 40
1.0
 40
2.0
 40
2.0
 40
2.0
 40
3.0
 40
3.0
 40
3.0
 40
4.0
 40
4.0
 40
4.0
 40
5.0
 40
5.0
 40
5.0
 40
6.0
 40
6.0
 40
6.0
 40
7.0
 10
127.7514595705111
 20
121.4145467545164
 10
127.7514595705111
 20
121.4145467545164
 10
127.7514595705111
 20
121.4145467545164
 10
133.3497434271988
 20
121.4145467545164
 10
133.3497434271988
 20
121.4145467545164
 10
133.3497434271988
 20
121.4145467545164
 10
133.3497434271988
 20
124.188711724115
 10
133.3497434271988
 20
124.188711724115
 10
133.3497434271988
 20
124.9512841128398
 10
133.0748246261135
 20
125.6070584710679
 10
132.5236089848396
 20
126.1574128379022
 10
131.97204883379
 20
126.7062169107455
 10
131.3148964364588
 20
126.9801021825035
 10
130.5512905184066
 20
126.9801021825035
 10
129.7861343063633
 20
126.9801021825035
 10
129.1296709285837
 20
126.7062169107455
 10
128.5770772482066
 20
126.1574128379022
 10
128.0265506264844
 20
125.6070584710679
 10
127.7514595705111
 20
124.9512841128398
 10
127.7514595705111
 20
124.188711724115
 10
127.7514595705111
 20
124.188711724115
 10
127.7514595705111
 20
121.4145467545164
 97
        0
 75
     2
 76
     1
 98
        0
  0
ENDBLK
  5
43
330
40
100
AcDbEntity
  8
0
100
AcDbBlockEnd
  0
BLOCK
  5
4D
330
4B
100
AcDbEntity
  8
0
100
AcDbBlockBegin
  2
block 4
 70
     0
 10
0.0
 20
0.0
 30
0.0
  3
block 4
  1

  0
SPLINE
  5
4F
330
4B
100
AcDbEntity
  8
Livello 1
370
     0
100
AcDbSpline
210
0.0
220
0.0
230
1.0
 70
    11
 71
     3
 72
    59
 73
    55
 74
     0
 42
0.0000000001
 43
0.0000000001
 40
0.0
 40
0.0
 40
0.0
 40
0.0
 40
1.0
 40
1.0
 40
1.0
 40
2.0
 40
2.0
 40
2.0
 40
3.0
 40
3.0
 40
3.0
 40
4.0
 40
4.0
 40
4.0
 40
5.0
 40
5.0
 40
5.0
 40
6.0
 40
6.0
 40
6.0
 40
7.0
 40
7.0
 40
7.0
 40
8.0
 40
8.0
 40
8.0
 40
9.0
 40
9.0
 40
9.0
 40
10.0
 40
10.0
 40
10.0
 40
11.0
 40
11.0
 40
11.0
 40
12.0
 40
12.0
 40
12.0
 40
13.0
 40
13.0
 40
13.0
 40
14.0
 40
14.0
 40
14.0
 40
15.0
 40
15.0
 40
15.0
 40
16.0
 40
16.0
 40
16.0
 40
17.0
 40
17.0
 40
17.0
 40
18.0
 40
18.0
 40
18.0
 40
18.0
 10
143.2850608513845
 20
110.0243645471434
 30
0.0
 10
143.2850608513845
 20
110.0243645471434
 30
0.0
 10
143.2850608513845
 20
135.0969247551491
 30
0.0
 10
143.2850608513845
 20
135.0969247551491
 30
0.0
 10
143.2850608513845
 20
135.0969247551491
 30
0.0
 10
154.434430725476
 20
135.0969247551491
 30
0.0
 10
154.434430725476
 20
135.0969247551491
 30
0.0
 10
155.9578529540466
 20
135.0969247551491
 30
0.0
 10
157.2663010825205
 20
134.5467426432026
 30
0.0
 10
158.3604641304491
 20
133.4477564584128
 30
0.0
 10
159.4535936490504
 20
132.347219979632
 30
0.0
 10
159.9999861534631
 20
131.0410111647008
 30
0.0
 10
159.9999861534631
 20
129.5263739354129
 30
0.0
 10
159.9999861534631
 20
129.5263739354129
 30
0.0
 10
159.9999861534631
 20
128.0079470985914
 30
0.0
 10
159.9999861534631
 20
128.0079470985914
 30
0.0
 10
159.9999861534631
 20
126.7670228861736
 30
0.0
 10
159.5731385412516
 20
125.5689901408424
 30
0.0
 10
158.7187542972771
 20
124.4148823919252
 30
0.0
 10
157.8650590728542
 20
123.2600856234564
 30
0.0
 10
156.4363770326275
 20
122.6838930234374
 30
0.0
 10
154.434430725476
 20
122.6838930234374
 30
0.0
 10
154.434430725476
 20
122.6838930234374
 30
0.0
 10
157.2084234401867
 20
122.6838930234374
 30
0.0
 10
157.2084234401867
 20
122.6838930234374
 30
0.0
 10
157.9704790642479
 20
122.6838930234374
 30
0.0
 10
158.6271146969154
 20
122.4088019674641
 30
0.0
 10
159.1755742599828
 20
121.8598256397329
 30
0.0
 10
159.7264453914809
 20
121.3106770571138
 30
0.0
 10
159.9999861534631
 20
120.6547304439979
 30
0.0
 10
159.9999861534631
 20
119.8937083492642
 30
0.0
 10
159.9999861534631
 20
119.8937083492642
 30
0.0
 10
159.9999861534631
 20
110.0243645471434
 30
0.0
 10
159.9999861534631
 20
110.0243645471434
 30
0.0
 10
159.9999861534631
 20
110.0243645471434
 30
0.0
 10
154.434430725476
 20
110.0243645471434
 30
0.0
 10
154.434430725476
 20
110.0243645471434
 30
0.0
 10
154.434430725476
 20
110.0243645471434
 30
0.0
 10
154.434430725476
 20
118.3689080815903
 30
0.0
 10
154.434430725476
 20
118.3689080815903
 30
0.0
 10
154.434430725476
 20
119.1295856665483
 30
0.0
 10
154.1595119243906
 20
119.7844987503368
 30
0.0
 10
153.6100188319958
 20
120.3333028231801
 30
0.0
 10
153.0598367200493
 20
120.8824514057992
 30
0.0
 10
152.4049236362607
 20
121.1566811873329
 30
0.0
 10
151.6435570317512
 20
121.1566811873329
 30
0.0
 10
151.6435570317512
 20
121.1566811873329
 30
0.0
 10
148.851649808699
 20
121.1566811873329
 30
0.0
 10
148.851649808699
 20
121.1566811873329
 30
0.0
 10
148.851649808699
 20
121.1566811873329
 30
0.0
 10
148.851649808699
 20
110.0243645471434
 30
0.0
 10
148.851649808699
 20
110.0243645471434
 30
0.0
 10
148.851649808699
 20
110.0243645471434
 30
0.0
 10
143.2850608513845
 20
110.0243645471434
 30
0.0
 10
143.2850608513845
 20
110.0243645471434
 30
0.0
  0
SPLINE
  5
50
330
4B
100
AcDbEntity
  8
Livello 1
370
     0
100
AcDbSpline
210
0.0
220
0.0
230
1.0
 70
    11
 71
     3
 72
    29
 73
    25
 74
     0
 42
0.0000000001
 43
0.0000000001
 40
0.0
 40
0.0
 40
0.0
 40
0.0
 40
1.0
 40
1.0
 40
1.0
 40
2.0
 40
2.0
 40
2.0
 40
3.0
 40
3.0
 40
3.0
 40
4.0
 40
4.0
 40
4.0
 40
5.0
 40
5.0
 40
5.0
 40
6.0
 40
6.0
 40
6.0
 40
7.0
 40
7.0
 40
7.0
 40
8.0
 40
8.0
 40
8.0
 40
8.0
 10
148.851649808699
 20
123.9478993908335
 30
0.0
 10
148.851649808699
 20
123.9478993908335
 30
0.0
 10
151.6435570317512
 20
123.9478993908335
 30
0.0
 10
151.6435570317512
 20
123.9478993908335
 30
0.0
 10
152.4049236362607
 20
123.9478993908335
 30
0.0
 10
153.0598367200493
 20
124.2228181919188
 30
0.0
 10
153.6100188319958
 20
124.7730003038653
 30
0.0
 10
154.1595119243906
 20
125.3209431022691
 30
0.0
 10
154.434430725476
 20
125.976889715385
 30
0.0
 10
154.434430725476
 20
126.7384285747825
 30
0.0
 10
154.434430725476
 20
126.7384285747825
 30
0.0
 10
154.434430725476
 20
129.5301635429467
 30
0.0
 10
154.434430725476
 20
129.5301635429467
 30
0.0
 10
154.434430725476
 20
130.2918746572321
 30
0.0
 10
154.1595119243906
 20
130.9447206823658
 30
0.0
 10
153.6100188319958
 20
131.4888738732358
 30
0.0
 10
153.0598367200493
 20
132.0331993189938
 30
0.0
 10
152.4049236362607
 20
132.3055342967607
 30
0.0
 10
151.6435570317512
 20
132.3055342967607
 30
0.0
 10
151.6435570317512
 20
132.3055342967607
 30
0.0
 10
148.851649808699
 20
132.3055342967607
 30
0.0
 10
148.851649808699
 20
132.3055342967607
 30
0.0
 10
148.851649808699
 20
132.3055342967607
 30
0.0
 10
148.851649808699
 20
123.9478993908335
 30
0.0
 10
148.851649808699
 20
123.9478993908335
 30
0.0
  0
HATCH
  5
51
330
4B
100
AcDbEntity
  8
Livello 1
 62
     7
100
AcDbHatch
 10
0.0
 20
0.0
 30
0.0
210
0.0
220
0.0
230
1.0
  2
SOLID
 70
     1
 71
     0
 91
        2
 92
        1
 93
        1
 72
     4
 94
        3
 73
     0
 74
     1
 95
       55
 96
       55
 40
0.0
 40
0.0
 40
0.0
 40
1.0
 40
1.0
 40
1.0
 40
2.0
 40
2.0
 40
2.0
 40
3.0
 40
3.0
 40
3.0
 40
4.0
 40
4.0
 40
4.0
 40
5.0
 40
5.0
 40
5.0
 40
6.0
 40
6.0
 40
6.0
 40
7.0
 40
7.0
 40
7.0
 40
8.0
 40
8.0
 40
8.0
 40
9.0
 40
9.0
 40
9.0
 40
10.0
 40
10.0
 40
10.0
 40
11.0
 40
11.0
 40
11.0
 40
12.0
 40
12.0
 40
12.0
 40
13.0
 40
13.0
 40
13.0
 40
14.0
 40
14.0
 40
14.0
 40
15.0
 40
15.0
 40
15.0
 40
16.0
 40
16.0
 40
16.0
 40
17.0
 40
17.0
 40
17.0
 40
18.0
 10
143.2850608513845
 20
110.0243645471434
 10
143.2850608513845
 20
110.0243645471434
 10
143.2850608513845
 20
110.0243645471434
 10
143.2850608513845
 20
135.0969247551491
 10
143.2850608513845
 20
135.0969247551491
 10
143.2850608513845
 20
135.0969247551491
 10
154.434430725476
 20
135.0969247551491
 10
154.434430725476
 20
135.0969247551491
 10
155.9578529540466
 20
135.0969247551491
 10
157.2663010825205
 20
134.5467426432026
 10
158.3604641304491
 20
133.4477564584128
 10
159.4535936490504
 20
132.347219979632
 10
159.9999861534631
 20
131.0410111647008
 10
159.9999861534631
 20
129.5263739354129
 10
159.9999861534631
 20
129.5263739354129
 10
159.9999861534631
 20
128.0079470985914
 10
159.9999861534631
 20
128.0079470985914
 10
159.9999861534631
 20
126.7670228861736
 10
159.5731385412516
 20
125.5689901408424
 10
158.7187542972771
 20
124.4148823919252
 10
157.8650590728542
 20
123.2600856234564
 10
156.4363770326275
 20
122.6838930234374
 10
154.434430725476
 20
122.6838930234374
 10
154.434430725476
 20
122.6838930234374
 10
157.2084234401867
 20
122.6838930234374
 10
157.2084234401867
 20
122.6838930234374
 10
157.9704790642479
 20
122.6838930234374
 10
158.6271146969154
 20
122.4088019674641
 10
159.1755742599828
 20
121.8598256397329
 10
159.7264453914809
 20
121.3106770571138
 10
159.9999861534631
 20
120.6547304439979
 10
159.9999861534631
 20
119.8937083492642
 10
159.9999861534631
 20
119.8937083492642
 10
159.9999861534631
 20
110.0243645471434
 10
159.9999861534631
 20
110.0243645471434
 10
159.9999861534631
 20
110.0243645471434
 10
154.434430725476
 20
110.0243645471434
 10
154.434430725476
 20
110.0243645471434
 10
154.434430725476
 20
110.0243645471434
 10
154.434430725476
 20
118.3689080815903
 10
154.434430725476
 20
118.3689080815903
 10
154.434430725476
 20
119.1295856665483
 10
154.1595119243906
 20
119.7844987503368
 10
153.6100188319958
 20
120.3333028231801
 10
153.0598367200493
 20
120.8824514057992
 10
152.4049236362607
 20
121.1566811873329
 10
151.6435570317512
 20
121.1566811873329
 10
151.6435570317512
 20
121.1566811873329
 10
148.851649808699
 20
121.1566811873329
 10
148.851649808699
 20
121.1566811873329
 10
148.851649808699
 20
121.1566811873329
 10
148.851649808699
 20
110.0243645471434
 10
148.851649808699
 20
110.0243645471434
 10
148.851649808699
 20
110.0243645471434
 10
143.2850608513845
 20
110.0243645471434
 97
        0
 92
        1
 93
        1
 72
     4
 94
        3
 73
     0
 74
     1
 95
       25
 96
       25
 40
0.0
 40
0.0
 40
0.0
 40
1.0
 40
1.0
 40
1.0
 40
2.0
 40
2.0
 40
2.0
 40
3.0
 40
3.0
 40
3.0
 40
4.0
 40
4.0
 40
4.0
 40
5.0
 40
5.0
 40
5.0
 40
6.0
 40
6.0
 40
6.0
 40
7.0
 40
7.0
 40
7.0
 40
8.0
 10
148.851649808699
 20
123.9478993908335
 10
148.851649808699
 20
123.9478993908335
 10
148.851649808699
 20
123.9478993908335
 10
151.6435570317512
 20
123.9478993908335
 10
151.6435570317512
 20
123.9478993908335
 10
152.4049236362607
 20
123.9478993908335
 10
153.0598367200493
 20
124.2228181919188
 10
153.6100188319958
 20
124.7730003038653
 10
154.1595119243906
 20
125.3209431022691
 10
154.434430725476
 20
125.976889715385
 10
154.434430725476
 20
126.7384285747825
 10
154.434430725476
 20
126.7384285747825
 10
154.434430725476
 20
129.5301635429467
 10
154.434430725476
 20
129.5301635429467
 10
154.434430725476
 20
130.2918746572321
 10
154.1595119243906
 20
130.9447206823658
 10
153.6100188319958
 20
131.4888738732358
 10
153.0598367200493
 20
132.0331993189938
 10
152.4049236362607
 20
132.3055342967607
 10
151.6435570317512
 20
132.3055342967607
 10
151.6435570317512
 20
132.3055342967607
 10
148.851649808699
 20
132.3055342967607
 10
148.851649808699
 20
132.3055342967607
 10
148.851649808699
 20
132.3055342967607
 10
148.851649808699
 20
123.9478993908335
 97
        0
 75
     2
 76
     1
 98
        0
  0
POLYLINE
  5
52
330
4B
100
AcDbEntity
  8
Livello 1
370
     0
100
AcDb2dPolyline
 66
     1
 10
0.0
 20
0.0
 30
0.0
  0
VERTEX
  5
53
330
52
100
AcDbEntity
  8
Livello 1
370
     0
100
AcDbVertex
100
AcDb2dVertex
 10
168.3584823338297
 20
110.0243645471434
 30
0.0
  0
VERTEX
  5
54
330
52
100
AcDbEntity
  8
Livello 1
370
     0
100
AcDbVertex
100
AcDb2dVertex
 10
168.3584823338297
 20
132.3055342967607
 30
0.0
  0
VERTEX
  5
55
330
52
100
AcDbEntity
  8
Livello 1
370
     0
100
AcDbVertex
100
AcDb2dVertex
 10
162.7915488667395
 20
132.3055342967607
 30
0.0
  0
VERTEX
  5
56
330
52
100
AcDbEntity
  8
Livello 1
370
     0
100
AcDbVertex
100
AcDb2dVertex
 10
162.7915488667395
 20
135.0969247551491
 30
0.0
  0
VERTEX
  5
57
330
52
100
AcDbEntity
  8
Livello 1
370
     0
100
AcDbVertex
100
AcDb2dVertex
 10
179.4906267191313
 20
135.0969247551491
 30
0.0
  0
VERTEX
  5
58
330
52
100
AcDbEntity
  8
Livello 1
370
     0
100
AcDbVertex
100
AcDb2dVertex
 10
179.4906267191313
 20
132.3055342967607
 30
0.0
  0
VERTEX
  5
59
330
52
100
AcDbEntity
  8
Livello 1
370
     0
100
AcDbVertex
100
AcDb2dVertex
 10
173.9247267813684
 20
132.3055342967607
 30
0.0
  0
VERTEX
  5
5A
330
52
100
AcDbEntity
  8
Livello 1
370
     0
100
AcDbVertex
100
AcDb2dVertex
 10
173.9247267813684
 20
110.0243645471434
 30
0.0
  0
VERTEX
  5
5B
330
52
100
AcDbEntity
  8
Livello 1
370
     0
100
AcDbVertex
100
AcDb2dVertex
 10
168.3584823338297
 20
110.0243645471434
 30
0.0
  0
SEQEND
  5
5C
330
52
100
AcDbEntity
  8
Livello 1
370
     0
  0
HATCH
  5
5D
330
4B
100
AcDbEntity
  8
Livello 1
 62
     7
100
AcDbHatch
 10
0.0
 20
0.0
 30
0.0
210
0.0
220
0.0
230
1.0
  2
SOLID
 70
     1
 71
     0
 91
        1
 92
        1
 93
        8
 72
     1
 10
168.3584823338297
 20
110.0243645471434
 11
168.3584823338297
 21
132.3055342967607
 72
     1
 10
168.3584823338297
 20
132.3055342967607
 11
162.7915488667395
 21
132.3055342967607
 72
     1
 10
162.7915488667395
 20
132.3055342967607
 11
162.7915488667395
 21
135.0969247551491
 72
     1
 10
162.7915488667395
 20
135.0969247551491
 11
179.4906267191313
 21
135.0969247551491
 72
     1
 10
179.4906267191313
 20
135.0969247551491
 11
179.4906267191313
 21
132.3055342967607
 72
     1
 10
179.4906267191313
 20
132.3055342967607
 11
173.9247267813684
 21
132.3055342967607
 72
     1
 10
173.9247267813684
 20
132.3055342967607
 11
173.9247267813684
 21
110.0243645471434
 72
     1
 10
173.9247267813684
 20
110.0243645471434
 11
168.3584823338297
 21
110.0243645471434
 97
        0
 75
     2
 76
     1
 98
        0
  0
SPLINE
  5
5E
330
4B
100
AcDbEntity
  8
Livello 1
370
     0
100
AcDbSpline
210
0.0
220
0.0
230
1.0
 70
    11
 71
     3
 72
    41
 73
    37
 74
     0
 42
0.0000000001
 43
0.0000000001
 40
0.0
 40
0.0
 40
0.0
 40
0.0
 40
1.0
 40
1.0
 40
1.0
 40
2.0
 40
2.0
 40
2.0
 40
3.0
 40
3.0
 40
3.0
 40
4.0
 40
4.0
 40
4.0
 40
5.0
 40
5.0
 40
5.0
 40
6.0
 40
6.0
 40
6.0
 40
7.0
 40
7.0
 40
7.0
 40
8.0
 40
8.0
 40
8.0
 40
9.0
 40
9.0
 40
9.0
 40
10.0
 40
10.0
 40
10.0
 40
11.0
 40
11.0
 40
11.0
 40
12.0
 40
12.0
 40
12.0
 40
12.0
 10
187.847400350619
 20
135.0969247551491
 30
0.0
 10
187.847400350619
 20
135.0969247551491
 30
0.0
 10
193.4305257771717
 20
135.0969247551491
 30
0.0
 10
193.4305257771717
 20
135.0969247551491
 30
0.0
 10
194.9532589861908
 20
135.0969247551491
 30
0.0
 10
196.2620516244404
 20
134.5470871529784
 30
0.0
 10
197.3569036919207
 20
133.4477564584128
 30
0.0
 10
198.449688700746
 20
132.3487702736231
 30
0.0
 10
198.9964257149346
 20
131.0425614586919
 30
0.0
 10
198.9964257149346
 20
129.5301635429467
 30
0.0
 10
198.9964257149346
 20
129.5301635429467
 30
0.0
 10
198.9964257149346
 20
115.5909535044579
 30
0.0
 10
198.9964257149346
 20
115.5909535044579
 30
0.0
 10
198.9964257149346
 20
114.0778665691612
 30
0.0
 10
198.449688700746
 20
112.7714854993421
 30
0.0
 10
197.3569036919207
 20
111.6733605889918
 30
0.0
 10
196.2620516244404
 20
110.5735131297625
 30
0.0
 10
194.9532589861908
 20
110.0243645471434
 30
0.0
 10
193.4305257771717
 20
110.0243645471434
 30
0.0
 10
193.4305257771717
 20
110.0243645471434
 30
0.0
 10
187.847400350619
 20
110.0243645471434
 30
0.0
 10
187.847400350619
 20
110.0243645471434
 30
0.0
 10
186.3246671415999
 20
110.0243645471434
 30
0.0
 10
185.0158745033503
 20
110.5717905808835
 30
0.0
 10
183.9220559651975
 20
111.6640588250453
 30
0.0
 10
182.8282374270446
 20
112.7585663827497
 30
0.0
 10
182.2815004128561
 20
114.0666700014478
 30
0.0
 10
182.2815004128561
 20
115.5909535044579
 30
0.0
 10
182.2815004128561
 20
115.5909535044579
 30
0.0
 10
182.2815004128561
 20
129.5301635429467
 30
0.0
 10
182.2815004128561
 20
129.5301635429467
 30
0.0
 10
182.2815004128561
 20
131.0541025361811
 30
0.0
 10
182.8282374270446
 20
132.3618616451033
 30
0.0
 10
183.9220559651975
 20
133.4568859674715
 30
0.0
 10
185.0158745033503
 20
134.549498721409
 30
0.0
 10
186.3246671415999
 20
135.0969247551491
 30
0.0
 10
187.847400350619
 20
135.0969247551491
 30
0.0
  0
SPLINE
  5
5F
330
4B
100
AcDbEntity
  8
Livello 1
370
     0
100
AcDbSpline
210
0.0
220
0.0
230
1.0
 70
    11
 71
     3
 72
    35
 73
    31
 74
     0
 42
0.0000000001
 43
0.0000000001
 40
0.0
 40
0.0
 40
0.0
 40
0.0
 40
1.0
 40
1.0
 40
1.0
 40
2.0
 40
2.0
 40
2.0
 40
3.0
 40
3.0
 40
3.0
 40
4.0
 40
4.0
 40
4.0
 40
5.0
 40
5.0
 40
5.0
 40
6.0
 40
6.0
 40
6.0
 40
7.0
 40
7.0
 40
7.0
 40
8.0
 40
8.0
 40
8.0
 40
9.0
 40
9.0
 40
9.0
 40
10.0
 40
10.0
 40
10.0
 40
10.0
 10
187.847400350619
 20
129.5301635429467
 30
0.0
 10
187.847400350619
 20
129.5301635429467
 30
0.0
 10
187.847400350619
 20
115.5909535044579
 30
0.0
 10
187.847400350619
 20
115.5909535044579
 30
0.0
 10
187.847400350619
 20
114.8399221932223
 30
0.0
 10
188.119563073498
 20
114.1900045011828
 30
0.0
 10
188.6642330290316
 20
113.6394778794605
 30
0.0
 10
189.2089029845655
 20
113.089295767514
 30
0.0
 10
189.8658831270088
 20
112.8152382408682
 30
0.0
 10
190.6396520834469
 20
112.8152382408682
 30
0.0
 10
191.4110094714546
 20
112.8152382408682
 30
0.0
 10
192.0700566725526
 20
113.089295767514
 30
0.0
 10
192.613693098759
 20
113.6394778794605
 30
0.0
 10
193.1583630542928
 20
114.1900045011828
 30
0.0
 10
193.4305257771717
 20
114.8399221932223
 30
0.0
 10
193.4305257771717
 20
115.5909535044579
 30
0.0
 10
193.4305257771717
 20
115.5909535044579
 30
0.0
 10
193.4305257771717
 20
129.5301635429467
 30
0.0
 10
193.4305257771717
 20
129.5301635429467
 30
0.0
 10
193.4305257771717
 20
130.2918746572321
 30
0.0
 10
193.1552624663106
 20
130.9447206823658
 30
0.0
 10
192.6064583934673
 20
131.4888738732358
 30
0.0
 10
192.0566207912966
 20
132.0331993189938
 30
0.0
 10
191.4013631977323
 20
132.3055342967607
 30
0.0
 10
190.6396520834469
 20
132.3055342967607
 30
0.0
 10
189.8775964593857
 20
132.3055342967607
 30
0.0
 10
189.2216498462699
 20
132.0331993189938
 30
0.0
 10
188.6725012636508
 20
131.4888738732358
 30
0.0
 10
188.1226636614801
 20
130.9447206823658
 30
0.0
 10
187.847400350619
 20
130.2918746572321
 30
0.0
 10
187.847400350619
 20
129.5301635429467
 30
0.0
  0
HATCH
  5
60
330
4B
100
AcDbEntity
  8
Livello 1
 62
     7
100
AcDbHatch
 10
0.0
 20
0.0
 30
0.0
210
0.0
220
0.0
230
1.0
  2
SOLID
 70
     1
 71
     0
 91
        2
 92
        1
 93
        1
 72
     4
 94
        3
 73
     0
 74
     1
 95
       37
 96
       37
 40
0.0
 40
0.0
 40
0.0
 40
1.0
 40
1.0
 40
1.0
 40
2.0
 40
2.0
 40
2.0
 40
3.0
 40
3.0
 40
3.0
 40
4.0
 40
4.0
 40
4.0
 40
5.0
 40
5.0
 40
5.0
 40
6.0
 40
6.0
 40
6.0
 40
7.0
 40
7.0
 40
7.0
 40
8.0
 40
8.0
 40
8.0
 40
9.0
 40
9.0
 40
9.0
 40
10.0
 40
10.0
 40
10.0
 40
11.0
 40
11.0
 40
11.0
 40
12.0
 10
186.3246671415999
 20
135.0969247551491
 10
187.847400350619
 20
135.0969247551491
 10
187.847400350619
 20
135.0969247551491
 10
193.4305257771717
 20
135.0969247551491
 10
193.4305257771717
 20
135.0969247551491
 10
194.9532589861908
 20
135.0969247551491
 10
196.2620516244404
 20
134.5470871529784
 10
197.3569036919207
 20
133.4477564584128
 10
198.449688700746
 20
132.3487702736231
 10
198.9964257149346
 20
131.0425614586919
 10
198.9964257149346
 20
129.5301635429467
 10
198.9964257149346
 20
129.5301635429467
 10
198.9964257149346
 20
115.5909535044579
 10
198.9964257149346
 20
115.5909535044579
 10
198.9964257149346
 20
114.0778665691612
 10
198.449688700746
 20
112.7714854993421
 10
197.3569036919207
 20
111.6733605889918
 10
196.2620516244404
 20
110.5735131297625
 10
194.9532589861908
 20
110.0243645471434
 10
193.4305257771717
 20
110.0243645471434
 10
193.4305257771717
 20
110.0243645471434
 10
187.847400350619
 20
110.0243645471434
 10
187.847400350619
 20
110.0243645471434
 10
186.3246671415999
 20
110.0243645471434
 10
185.0158745033503
 20
110.5717905808835
 10
183.9220559651975
 20
111.6640588250453
 10
182.8282374270446
 20
112.7585663827497
 10
182.2815004128561
 20
114.0666700014478
 10
182.2815004128561
 20
115.5909535044579
 10
182.2815004128561
 20
115.5909535044579
 10
182.2815004128561
 20
129.5301635429467
 10
182.2815004128561
 20
129.5301635429467
 10
182.2815004128561
 20
131.0541025361811
 10
182.8282374270446
 20
132.3618616451033
 10
183.9220559651975
 20
133.4568859674715
 10
185.0158745033503
 20
134.549498721409
 10
186.3246671415999
 20
135.0969247551491
 97
        0
 92
        1
 93
        1
 72
     4
 94
        3
 73
     0
 74
     1
 95
       31
 96
       31
 40
0.0
 40
0.0
 40
0.0
 40
1.0
 40
1.0
 40
1.0
 40
2.0
 40
2.0
 40
2.0
 40
3.0
 40
3.0
 40
3.0
 40
4.0
 40
4.0
 40
4.0
 40
5.0
 40
5.0
 40
5.0
 40
6.0
 40
6.0
 40
6.0
 40
7.0
 40
7.0
 40
7.0
 40
8.0
 40
8.0
 40
8.0
 40
9.0
 40
9.0
 40
9.0
 40
10.0
 10
187.847400350619
 20
130.2918746572321
 10
187.847400350619
 20
129.5301635429467
 10
187.847400350619
 20
129.5301635429467
 10
187.847400350619
 20
115.5909535044579
 10
187.847400350619
 20
115.5909535044579
 10
187.847400350619
 20
114.8399221932223
 10
188.119563073498
 20
114.1900045011828
 10
188.6642330290316
 20
113.6394778794605
 10
189.2089029845655
 20
113.089295767514
 10
189.8658831270088
 20
112.8152382408682
 10
190.6396520834469
 20
112.8152382408682
 10
191.4110094714546
 20
112.8152382408682
 10
192.0700566725526
 20
113.089295767514
 10
192.613693098759
 20
113.6394778794605
 10
193.1583630542928
 20
114.1900045011828
 10
193.4305257771717
 20
114.8399221932223
 10
193.4305257771717
 20
115.5909535044579
 10
193.4305257771717
 20
115.5909535044579
 10
193.4305257771717
 20
129.5301635429467
 10
193.4305257771717
 20
129.5301635429467
 10
193.4305257771717
 20
130.2918746572321
 10
193.1552624663106
 20
130.9447206823658
 10
192.6064583934673
 20
131.4888738732358
 10
192.0566207912966
 20
132.0331993189938
 10
191.4013631977323
 20
132.3055342967607
 10
190.6396520834469
 20
132.3055342967607
 10
189.8775964593857
 20
132.3055342967607
 10
189.2216498462699
 20
132.0331993189938
 10
188.6725012636508
 20
131.4888738732358
 10
188.1226636614801
 20
130.9447206823658
 10
187.847400350619
 20
130.2918746572321
 97
        0
 75
     2
 76
     1
 98
        0
  0
SPLINE
  5
61
330
4B
100
AcDbEntity
  8
Livello 1
370
     0
100
AcDbSpline
210
0.0
220
0.0
230
1.0
 70
    11
 71
     3
 72
    86
 73
    82
 74
     0
 42
0.0000000001
 43
0.0000000001
 40
0.0
 40
0.0
 40
0.0
 40
0.0
 40
1.0
 40
1.0
 40
1.0
 40
2.0
 40
2.0
 40
2.0
 40
3.0
 40
3.0
 40
3.0
 40
4.0
 40
4.0
 40
4.0
 40
5.0
 40
5.0
 40
5.0
 40
6.0
 40
6.0
 40
6.0
 40
7.0
 40
7.0
 40
7.0
 40
8.0
 40
8.0
 40
8.0
 40
9.0
 40
9.0
 40
9.0
 40
10.0
 40
10.0
 40
10.0
 40
11.0
 40
11.0
 40
11.0
 40
12.0
 40
12.0
 40
12.0
 40
13.0
 40
13.0
 40
13.0
 40
14.0
 40
14.0
 40
14.0
 40
15.0
 40
15.0
 40
15.0
 40
16.0
 40
16.0
 40
16.0
 40
17.0
 40
17.0
 40
17.0
 40
18.0
 40
18.0
 40
18.0
 40
19.0
 40
19.0
 40
19.0
 40
20.0
 40
20.0
 40
20.0
 40
21.0
 40
21.0
 40
21.0
 40
22.0
 40
22.0
 40
22.0
 40
23.0
 40
23.0
 40
23.0
 40
24.0
 40
24.0
 40
24.0
 40
25.0
 40
25.0
 40
25.0
 40
26.0
 40
26.0
 40
26.0
 40
27.0
 40
27.0
 40
27.0
 40
27.0
 10
218.5032582400653
 20
129.5132825639327
 30
0.0
 10
218.5032582400653
 20
129.5132825639327
 30
0.0
 10
215.7123845463406
 20
129.5132825639327
 30
0.0
 10
215.7123845463406
 20
129.5132825639327
 30
0.0
 10
215.4729502521622
 20
131.3750133923352
 30
0.0
 10
214.5954838532095
 20
132.3055342967607
 30
0.0
 10
213.0841194667916
 20
132.3055342967607
 30
0.0
 10
212.1036446448757
 20
132.3055342967607
 30
0.0
 10
211.3681162735509
 20
132.0714399041072
 30
0.0
 10
210.872711215956
 20
131.6032511188002
 30
0.0
 10
210.3773061583611
 20
131.1359236079327
 30
0.0
 10
210.1296036295636
 20
130.4353629788511
 30
0.0
 10
210.1296036295636
 20
129.5000189375646
 30
0.0
 10
210.1296036295636
 20
128.8035924257926
 30
0.0
 10
210.4024553719942
 20
128.1507464006589
 30
0.0
 10
210.9471253275279
 20
127.5426866463786
 30
0.0
 10
210.9471253275279
 20
127.5426866463786
 30
0.0
 10
216.8678703343609
 20
120.9205197360247
 30
0.0
 10
216.8678703343609
 20
120.9205197360247
 30
0.0
 10
217.9575547552042
 20
119.7014718943699
 30
0.0
 10
218.5032582400653
 20
118.3909567072413
 30
0.0
 10
218.5032582400653
 20
116.9893186844146
 30
0.0
 10
218.5032582400653
 20
116.9893186844146
 30
0.0
 10
218.5032582400653
 20
115.5861303675968
 30
0.0
 10
218.5032582400653
 20
115.5861303675968
 30
0.0
 10
218.5032582400653
 20
114.0742492165153
 30
0.0
 10
217.959621813859
 20
112.7695906955752
 30
0.0
 10
216.8689038636883
 20
111.6716380401128
 30
0.0
 10
215.7795639526208
 20
110.5735131297625
 30
0.0
 10
214.4662926872858
 20
110.0243645471434
 30
0.0
 10
212.9297790872349
 20
110.0243645471434
 30
0.0
 10
212.9297790872349
 20
110.0243645471434
 30
0.0
 10
210.135804805528
 20
110.0243645471434
 30
0.0
 10
210.135804805528
 20
110.0243645471434
 30
0.0
 10
208.2844092703993
 20
110.0243645471434
 30
0.0
 10
206.8915562468554
 20
110.4903140189078
 30
0.0
 10
205.9603463228784
 20
111.4239355113154
 30
0.0
 10
205.0284473793498
 20
112.3573847488351
 30
0.0
 10
204.5633591820249
 20
113.7507545370427
 30
0.0
 10
204.5633591820249
 20
115.606111934593
 30
0.0
 10
204.5633591820249
 20
115.606111934593
 30
0.0
 10
207.3542328757497
 20
115.606111934593
 30
0.0
 10
207.3542328757497
 20
115.606111934593
 30
0.0
 10
207.3438975824758
 20
115.4093968526133
 30
0.0
 10
207.3387299358389
 20
115.2564345121598
 30
0.0
 10
207.3387299358389
 20
115.146363638793
 30
0.0
 10
207.3387299358389
 20
114.380690662086
 30
0.0
 10
207.6305297159382
 20
113.8000194349816
 30
0.0
 10
208.2141292761369
 20
113.4062447612464
 30
0.0
 10
208.7984178558872
 20
113.0126423423994
 30
0.0
 10
209.4398950584197
 20
112.8152382408682
 30
0.0
 10
210.1378718641828
 20
112.8152382408682
 30
0.0
 10
211.1297155086999
 20
112.8152382408682
 30
0.0
 10
211.8456068228043
 20
113.053983515495
 30
0.0
 10
212.2821007087381
 20
113.5333688685153
 30
0.0
 10
212.7189391044476
 20
114.0130987313115
 30
0.0
 10
212.9359802631992
 20
114.7090084784197
 30
0.0
 10
212.9359802631992
 20
115.6224761489433
 30
0.0
 10
212.9359802631992
 20
116.3304437382044
 30
0.0
 10
212.6641620500961
 20
116.9826007437866
 30
0.0
 10
212.1194920945623
 20
117.5820477536719
 30
0.0
 10
212.1194920945623
 20
117.5820477536719
 30
0.0
 10
206.1997806170567
 20
124.1931903512004
 30
0.0
 10
206.1997806170567
 20
124.1931903512004
 30
0.0
 10
205.1094071766619
 20
125.4012138800296
 30
0.0
 10
204.5633591820249
 20
126.7117290671583
 30
0.0
 10
204.5633591820249
 20
128.1273197359047
 30
0.0
 10
204.5633591820249
 20
128.1273197359047
 30
0.0
 10
204.5633591820249
 20
129.5301635429467
 30
0.0
 10
204.5633591820249
 20
129.5301635429467
 30
0.0
 10
204.5633591820249
 20
131.0425614586919
 30
0.0
 10
205.1069956082313
 20
132.3487702736231
 30
0.0
 10
206.197713558402
 20
133.4477564584128
 30
0.0
 10
207.2870534694694
 20
134.5470871529784
 30
0.0
 10
208.599291205477
 20
135.0969247551491
 30
0.0
 10
210.135804805528
 20
135.0969247551491
 30
0.0
 10
210.135804805528
 20
135.0969247551491
 30
0.0
 10
212.9297790872349
 20
135.0969247551491
 30
0.0
 10
212.9297790872349
 20
135.0969247551491
 30
0.0
 10
216.4165625280679
 20
135.0969247551491
 30
0.0
 10
218.2731257098335
 20
133.2357106914103
 30
0.0
 10
218.5032582400653
 20
129.5132825639327
 30
0.0
  0
HATCH
  5
62
330
4B
100
AcDbEntity
  8
Livello 1
 62
     7
100
AcDbHatch
 10
0.0
 20
0.0
 30
0.0
210
0.0
220
0.0
230
1.0
  2
SOLID
 70
     1
 71
     0
 91
        1
 92
        1
 93
        1
 72
     4
 94
        3
 73
     0
 74
     1
 95
       82
 96
       82
 40
0.0
 40
0.0
 40
0.0
 40
1.0
 40
1.0
 40
1.0
 40
2.0
 40
2.0
 40
2.0
 40
3.0
 40
3.0
 40
3.0
 40
4.0
 40
4.0
 40
4.0
 40
5.0
 40
5.0
 40
5.0
 40
6.0
 40
6.0
 40
6.0
 40
7.0
 40
7.0
 40
7.0
 40
8.0
 40
8.0
 40
8.0
 40
9.0
 40
9.0
 40
9.0
 40
10.0
 40
10.0
 40
10.0
 40
11.0
 40
11.0
 40
11.0
 40
12.0
 40
12.0
 40
12.0
 40
13.0
 40
13.0
 40
13.0
 40
14.0
 40
14.0
 40
14.0
 40
15.0
 40
15.0
 40
15.0
 40
16.0
 40
16.0
 40
16.0
 40
17.0
 40
17.0
 40
17.0
 40
18.0
 40
18.0
 40
18.0
 40
19.0
 40
19.0
 40
19.0
 40
20.0
 40
20.0
 40
20.0
 40
21.0
 40
21.0
 40
21.0
 40
22.0
 40
22.0
 40
22.0
 40
23.0
 40
23.0
 40
23.0
 40
24.0
 40
24.0
 40
24.0
 40
25.0
 40
25.0
 40
25.0
 40
26.0
 40
26.0
 40
26.0
 40
27.0
 10
218.2731257098335
 20
133.2357106914103
 10
218.5032582400653
 20
129.5132825639327
 10
218.5032582400653
 20
129.5132825639327
 10
215.7123845463406
 20
129.5132825639327
 10
215.7123845463406
 20
129.5132825639327
 10
215.4729502521622
 20
131.3750133923352
 10
214.5954838532095
 20
132.3055342967607
 10
213.0841194667916
 20
132.3055342967607
 10
212.1036446448757
 20
132.3055342967607
 10
211.3681162735509
 20
132.0714399041072
 10
210.872711215956
 20
131.6032511188002
 10
210.3773061583611
 20
131.1359236079327
 10
210.1296036295636
 20
130.4353629788511
 10
210.1296036295636
 20
129.5000189375646
 10
210.1296036295636
 20
128.8035924257926
 10
210.4024553719942
 20
128.1507464006589
 10
210.9471253275279
 20
127.5426866463786
 10
210.9471253275279
 20
127.5426866463786
 10
216.8678703343609
 20
120.9205197360247
 10
216.8678703343609
 20
120.9205197360247
 10
217.9575547552042
 20
119.7014718943699
 10
218.5032582400653
 20
118.3909567072413
 10
218.5032582400653
 20
116.9893186844146
 10
218.5032582400653
 20
116.9893186844146
 10
218.5032582400653
 20
115.5861303675968
 10
218.5032582400653
 20
115.5861303675968
 10
218.5032582400653
 20
114.0742492165153
 10
217.959621813859
 20
112.7695906955752
 10
216.8689038636883
 20
111.6716380401128
 10
215.7795639526208
 20
110.5735131297625
 10
214.4662926872858
 20
110.0243645471434
 10
212.9297790872349
 20
110.0243645471434
 10
212.9297790872349
 20
110.0243645471434
 10
210.135804805528
 20
110.0243645471434
 10
210.135804805528
 20
110.0243645471434
 10
208.2844092703993
 20
110.0243645471434
 10
206.8915562468554
 20
110.4903140189078
 10
205.9603463228784
 20
111.4239355113154
 10
205.0284473793498
 20
112.3573847488351
 10
204.5633591820249
 20
113.7507545370427
 10
204.5633591820249
 20
115.606111934593
 10
204.5633591820249
 20
115.606111934593
 10
207.3542328757497
 20
115.606111934593
 10
207.3542328757497
 20
115.606111934593
 10
207.3438975824758
 20
115.4093968526133
 10
207.3387299358389
 20
115.2564345121598
 10
207.3387299358389
 20
115.146363638793
 10
207.3387299358389
 20
114.380690662086
 10
207.6305297159382
 20
113.8000194349816
 10
208.2141292761369
 20
113.4062447612464
 10
208.7984178558872
 20
113.0126423423994
 10
209.4398950584197
 20
112.8152382408682
 10
210.1378718641828
 20
112.8152382408682
 10
211.1297155086999
 20
112.8152382408682
 10
211.8456068228043
 20
113.053983515495
 10
212.2821007087381
 20
113.5333688685153
 10
212.7189391044476
 20
114.0130987313115
 10
212.9359802631992
 20
114.7090084784197
 10
212.9359802631992
 20
115.6224761489433
 10
212.9359802631992
 20
116.3304437382044
 10
212.6641620500961
 20
116.9826007437866
 10
212.1194920945623
 20
117.5820477536719
 10
212.1194920945623
 20
117.5820477536719
 10
206.1997806170567
 20
124.1931903512004
 10
206.1997806170567
 20
124.1931903512004
 10
205.1094071766619
 20
125.4012138800296
 10
204.5633591820249
 20
126.7117290671583
 10
204.5633591820249
 20
128.1273197359047
 10
204.5633591820249
 20
128.1273197359047
 10
204.5633591820249
 20
129.5301635429467
 10
204.5633591820249
 20
129.5301635429467
 10
204.5633591820249
 20
131.0425614586919
 10
205.1069956082313
 20
132.3487702736231
 10
206.197713558402
 20
133.4477564584128
 10
207.2870534694694
 20
134.5470871529784
 10
208.599291205477
 20
135.0969247551491
 10
210.135804805528
 20
135.0969247551491
 10
210.135804805528
 20
135.0969247551491
 10
212.9297790872349
 20
135.0969247551491
 10
212.9297790872349
 20
135.0969247551491
 10
216.4165625280679
 20
135.0969247551491
 10
218.2731257098335
 20
133.2357106914103
 97
        0
 75
     2
 76
     1
 98
        0
  0
ENDBLK
  5
4E
330
4B
100
AcDbEntity
  8
0
100
AcDbBlockEnd
  0
BLOCK
  5
65
330
63
100
AcDbEntity
  8
0
100
AcDbBlockBegin
  2
block 5
 70
     0
 10
0.0
 20
0.0
 30
0.0
  3
block 5
  1

  0
SPLINE
  5
67
330
63
100
AcDbEntity
  8
Livello 1
370
     0
100
AcDbSpline
210
0.0
220
0.0
230
1.0
 70
    11
 71
     3
 72
    17
 73
    13
 74
     0
 42
0.0000000001
 43
0.0000000001
 40
0.0
 40
0.0
 40
0.0
 40
0.0
 40
1.0
 40
1.0
 40
1.0
 40
2.0
 40
2.0
 40
2.0
 40
3.0
 40
3.0
 40
3.0
 40
4.0
 40
4.0
 40
4.0
 40
4.0
 10
103.4190786158035
 20
79.83393936479778
 30
0.0
 10
103.4190786158035
 20
79.21313274881311
 30
0.0
 10
95.37477535096298
 20
78.7080814174959
 30
0.0
 10
85.45082674937853
 20
78.7080814174959
 30
0.0
 10
75.52756716734568
 20
78.7080814174959
 30
0.0
 10
67.48326390250515
 20
79.21313274881311
 30
0.0
 10
67.48326390250515
 20
79.83393936479778
 30
0.0
 10
67.48326390250515
 20
80.45612401988568
 30
0.0
 10
75.52756716734568
 20
80.95979731209968
 30
0.0
 10
85.45082674937853
 20
80.95979731209968
 30
0.0
 10
95.37477535096298
 20
80.95979731209968
 30
0.0
 10
103.4190786158035
 20
80.45612401988568
 30
0.0
 10
103.4190786158035
 20
79.83393936479778
 30
0.0
  0
HATCH
  5
68
330
63
100
AcDbEntity
  8
Livello 1
 62
     7
100
AcDbHatch
 10
0.0
 20
0.0
 30
0.0
210
0.0
220
0.0
230
1.0
  2
SOLID
 70
     1
 71
     0
 91
        1
 92
        1
 93
        1
 72
     4
 94
        3
 73
     0
 74
     1
 95
       13
 96
       13
 40
0.0
 40
0.0
 40
0.0
 40
1.0
 40
1.0
 40
1.0
 40
2.0
 40
2.0
 40
2.0
 40
3.0
 40
3.0
 40
3.0
 40
4.0
 10
103.4190786158035
 20
80.45612401988568
 10
103.4190786158035
 20
79.83393936479778
 10
103.4190786158035
 20
79.21313274881311
 10
95.37477535096298
 20
78.7080814174959
 10
85.45082674937853
 20
78.7080814174959
 10
75.52756716734568
 20
78.7080814174959
 10
67.48326390250515
 20
79.21313274881311
 10
67.48326390250515
 20
79.83393936479778
 10
67.48326390250515
 20
80.45612401988568
 10
75.52756716734568
 20
80.95979731209968
 10
85.45082674937853
 20
80.95979731209968
 10
95.37477535096298
 20
80.95979731209968
 10
103.4190786158035
 20
80.45612401988568
 97
        0
 75
     0
 76
     1
 98
        0
  0
INSERT
  5
6A
330
63
100
AcDbEntity
  8
Livello 1
100
AcDbBlockReference
  2
block 6
 10
0.0
 20
0.0
 30
0.0
  0
INSERT
  5
127
330
63
100
AcDbEntity
  8
Livello 1
100
AcDbBlockReference
  2
block 12
 10
0.0
 20
0.0
 30
0.0
  0
ENDBLK
  5
66
330
63
100
AcDbEntity
  8
0
100
AcDbBlockEnd
  0
BLOCK
  5
6B
330
69
100
AcDbEntity
  8
0
100
AcDbBlockBegin
  2
block 6
 70
     0
 10
0.0
 20
0.0
 30
0.0
  3
block 6
  1

  0
SPLINE
  5
6D
330
69
100
AcDbEntity
  8
Livello 1
 62
     7
370
    50
100
AcDbSpline
210
0.0
220
0.0
230
1.0
 70
    11
 71
     3
 72
    17
 73
    13
 74
     0
 42
0.0000000001
 43
0.0000000001
 40
0.0
 40
0.0
 40
0.0
 40
0.0
 40
1.0
 40
1.0
 40
1.0
 40
2.0
 40
2.0
 40
2.0
 40
3.0
 40
3.0
 40
3.0
 40
4.0
 40
4.0
 40
4.0
 40
4.0
 10
87.52167501168932
 20
82.23172740433914
 30
0.0
 10
87.52167501168932
 20
81.04523573649712
 30
0.0
 10
86.5598037176664
 20
80.08301993269844
 30
0.0
 10
85.37296754004861
 20
80.08301993269844
 30
0.0
 10
84.18630361731869
 20
80.08301993269844
 30
0.0
 10
83.22408781352001
 20
81.04523573649712
 30
0.0
 10
83.22408781352001
 20
82.23172740433914
 30
0.0
 10
83.22408781352001
 20
83.41821907218117
 30
0.0
 10
84.18630361731869
 20
84.38077938575563
 30
0.0
 10
85.37296754004861
 20
84.38077938575563
 30
0.0
 10
86.5598037176664
 20
84.38077938575563
 30
0.0
 10
87.52167501168932
 20
83.41821907218117
 30
0.0
 10
87.52167501168932
 20
82.23172740433914
 30
0.0
  0
SPLINE
  5
6E
330
69
100
AcDbEntity
  8
Livello 1
370
     0
100
AcDbSpline
210
0.0
220
0.0
230
1.0
 70
    11
 71
     3
 72
    17
 73
    13
 74
     0
 42
0.0000000001
 43
0.0000000001
 40
0.0
 40
0.0
 40
0.0
 40
0.0
 40
1.0
 40
1.0
 40
1.0
 40
2.0
 40
2.0
 40
2.0
 40
3.0
 40
3.0
 40
3.0
 40
4.0
 40
4.0
 40
4.0
 40
4.0
 10
87.0095612299683
 20
82.22966034568434
 30
0.0
 10
87.0095612299683
 20
81.51859216844107
 30
0.0
 10
86.57048352071608
 20
80.94257182330988
 30
0.0
 10
86.02891415316452
 20
80.94257182330988
 30
0.0
 10
85.48700027583713
 20
80.94257182330988
 30
0.0
 10
85.04757805680911
 20
81.51859216844107
 30
0.0
 10
85.04757805680911
 20
82.22966034568434
 30
0.0
 10
85.04757805680911
 20
82.94141754247924
 30
0.0
 10
85.48700027583713
 20
83.51743788761044
 30
0.0
 10
86.02891415316452
 20
83.51743788761044
 30
0.0
 10
86.57048352071608
 20
83.51743788761044
 30
0.0
 10
87.0095612299683
 20
82.94141754247924
 30
0.0
 10
87.0095612299683
 20
82.22966034568434
 30
0.0
  0
HATCH
  5
6F
330
69
100
AcDbEntity
  8
Livello 1
 62
     7
100
AcDbHatch
 10
0.0
 20
0.0
 30
0.0
210
0.0
220
0.0
230
1.0
  2
SOLID
 70
     1
 71
     0
 91
        1
 92
        1
 93
        1
 72
     4
 94
        3
 73
     0
 74
     1
 95
       13
 96
       13
 40
0.0
 40
0.0
 40
0.0
 40
1.0
 40
1.0
 40
1.0
 40
2.0
 40
2.0
 40
2.0
 40
3.0
 40
3.0
 40
3.0
 40
4.0
 10
87.0095612299683
 20
82.94141754247924
 10
87.0095612299683
 20
82.22966034568434
 10
87.0095612299683
 20
81.51859216844107
 10
86.57048352071608
 20
80.94257182330988
 10
86.02891415316452
 20
80.94257182330988
 10
85.48700027583713
 20
80.94257182330988
 10
85.04757805680911
 20
81.51859216844107
 10
85.04757805680911
 20
82.22966034568434
 10
85.04757805680911
 20
82.94141754247924
 10
85.48700027583713
 20
83.51743788761044
 10
86.02891415316452
 20
83.51743788761044
 10
86.57048352071608
 20
83.51743788761044
 10
87.0095612299683
 20
82.94141754247924
 97
        0
 75
     2
 76
     1
 98
        0
  0
SPLINE
  5
70
330
69
100
AcDbEntity
  8
Livello 1
 62
     7
370
    50
100
AcDbSpline
210
0.0
220
0.0
230
1.0
 70
    11
 71
     3
 72
    17
 73
    13
 74
     0
 42
0.0000000001
 43
0.0000000001
 40
0.0
 40
0.0
 40
0.0
 40
0.0
 40
1.0
 40
1.0
 40
1.0
 40
2.0
 40
2.0
 40
2.0
 40
3.0
 40
3.0
 40
3.0
 40
4.0
 40
4.0
 40
4.0
 40
4.0
 10
87.52167501168932
 20
82.23172740433914
 30
0.0
 10
87.52167501168932
 20
81.04523573649712
 30
0.0
 10
86.5598037176664
 20
80.08301993269844
 30
0.0
 10
85.37296754004861
 20
80.08301993269844
 30
0.0
 10
84.18630361731869
 20
80.08301993269844
 30
0.0
 10
83.22408781352001
 20
81.04523573649712
 30
0.0
 10
83.22408781352001
 20
82.23172740433914
 30
0.0
 10
83.22408781352001
 20
83.41821907218117
 30
0.0
 10
84.18630361731869
 20
84.38077938575563
 30
0.0
 10
85.37296754004861
 20
84.38077938575563
 30
0.0
 10
86.5598037176664
 20
84.38077938575563
 30
0.0
 10
87.52167501168932
 20
83.41821907218117
 30
0.0
 10
87.52167501168932
 20
82.23172740433914
 30
0.0
  0
HATCH
  5
71
330
69
100
AcDbEntity
  8
Livello 1
 62
     7
100
AcDbHatch
 10
0.0
 20
0.0
 30
0.0
210
0.0
220
0.0
230
1.0
  2
SOLID
 70
     1
 71
     0
 91
        1
 92
        1
 93
        1
 72
     4
 94
        3
 73
     0
 74
     1
 95
       13
 96
       13
 40
0.0
 40
0.0
 40
0.0
 40
1.0
 40
1.0
 40
1.0
 40
2.0
 40
2.0
 40
2.0
 40
3.0
 40
3.0
 40
3.0
 40
4.0
 10
87.52167501168932
 20
83.41821907218117
 10
87.52167501168932
 20
82.23172740433914
 10
87.52167501168932
 20
81.04523573649712
 10
86.5598037176664
 20
80.08301993269844
 10
85.37296754004861
 20
80.08301993269844
 10
84.18630361731869
 20
80.08301993269844
 10
83.22408781352001
 20
81.04523573649712
 10
83.22408781352001
 20
82.23172740433914
 10
83.22408781352001
 20
83.41821907218117
 10
84.18630361731869
 20
84.38077938575563
 10
85.37296754004861
 20
84.38077938575563
 10
86.5598037176664
 20
84.38077938575563
 10
87.52167501168932
 20
83.41821907218117
 97
        0
 75
     2
 76
     1
 98
        0
  0
SPLINE
  5
72
330
69
100
AcDbEntity
  8
Livello 1
370
     0
100
AcDbSpline
210
0.0
220
0.0
230
1.0
 70
    11
 71
     3
 72
    17
 73
    13
 74
     0
 42
0.0000000001
 43
0.0000000001
 40
0.0
 40
0.0
 40
0.0
 40
0.0
 40
1.0
 40
1.0
 40
1.0
 40
2.0
 40
2.0
 40
2.0
 40
3.0
 40
3.0
 40
3.0
 40
4.0
 40
4.0
 40
4.0
 40
4.0
 10
87.0095612299683
 20
82.22966034568434
 30
0.0
 10
87.0095612299683
 20
81.51859216844107
 30
0.0
 10
86.57048352071608
 20
80.94257182330988
 30
0.0
 10
86.02891415316452
 20
80.94257182330988
 30
0.0
 10
85.48700027583713
 20
80.94257182330988
 30
0.0
 10
85.04757805680911
 20
81.51859216844107
 30
0.0
 10
85.04757805680911
 20
82.22966034568434
 30
0.0
 10
85.04757805680911
 20
82.94141754247924
 30
0.0
 10
85.48700027583713
 20
83.51743788761044
 30
0.0
 10
86.02891415316452
 20
83.51743788761044
 30
0.0
 10
86.57048352071608
 20
83.51743788761044
 30
0.0
 10
87.0095612299683
 20
82.94141754247924
 30
0.0
 10
87.0095612299683
 20
82.22966034568434
 30
0.0
  0
HATCH
  5
73
330
69
100
AcDbEntity
  8
Livello 1
 62
     7
100
AcDbHatch
 10
0.0
 20
0.0
 30
0.0
210
0.0
220
0.0
230
1.0
  2
SOLID
 70
     1
 71
     0
 91
        1
 92
        1
 93
        1
 72
     4
 94
        3
 73
     0
 74
     1
 95
       13
 96
       13
 40
0.0
 40
0.0
 40
0.0
 40
1.0
 40
1.0
 40
1.0
 40
2.0
 40
2.0
 40
2.0
 40
3.0
 40
3.0
 40
3.0
 40
4.0
 10
87.0095612299683
 20
82.94141754247924
 10
87.0095612299683
 20
82.22966034568434
 10
87.0095612299683
 20
81.51859216844107
 10
86.57048352071608
 20
80.94257182330988
 10
86.02891415316452
 20
80.94257182330988
 10
85.48700027583713
 20
80.94257182330988
 10
85.04757805680911
 20
81.51859216844107
 10
85.04757805680911
 20
82.22966034568434
 10
85.04757805680911
 20
82.94141754247924
 10
85.48700027583713
 20
83.51743788761044
 10
86.02891415316452
 20
83.51743788761044
 10
86.57048352071608
 20
83.51743788761044
 10
87.0095612299683
 20
82.94141754247924
 97
        0
 75
     2
 76
     1
 98
        0
  0
POLYLINE
  5
74
330
69
100
AcDbEntity
  8
Livello 1
370
     0
100
AcDb2dPolyline
 66
     1
 10
0.0
 20
0.0
 30
0.0
  0
VERTEX
  5
75
330
74
100
AcDbEntity
  8
Livello 1
370
     0
100
AcDbVertex
100
AcDb2dVertex
 10
107.0746718467766
 20
99.86580478824185
 30
0.0
  0
VERTEX
  5
76
330
74
100
AcDbEntity
  8
Livello 1
370
     0
100
AcDbVertex
100
AcDb2dVertex
 10
100.9008844096214
 20
93.87133468938849
 30
0.0
  0
VERTEX
  5
77
330
74
100
AcDbEntity
  8
Livello 1
370
     0
100
AcDbVertex
100
AcDb2dVertex
 10
100.8852092148227
 20
93.87030116006108
 30
0.0
  0
VERTEX
  5
78
330
74
100
AcDbEntity
  8
Livello 1
370
     0
100
AcDbVertex
100
AcDb2dVertex
 10
98.47157372559474
 20
99.38280208257559
 30
0.0
  0
VERTEX
  5
79
330
74
100
AcDbEntity
  8
Livello 1
370
     0
100
AcDbVertex
100
AcDb2dVertex
 10
98.48294254819599
 20
99.39417090517686
 30
0.0
  0
VERTEX
  5
7A
330
74
100
AcDbEntity
  8
Livello 1
370
     0
100
AcDbVertex
100
AcDb2dVertex
 10
107.0746718467766
 20
99.86580478824185
 30
0.0
  0
SEQEND
  5
7B
330
74
100
AcDbEntity
  8
Livello 1
370
     0
  0
HATCH
  5
7C
330
69
100
AcDbEntity
  8
Livello 1
 62
     7
100
AcDbHatch
 10
0.0
 20
0.0
 30
0.0
210
0.0
220
0.0
230
1.0
  2
SOLID
 70
     1
 71
     0
 91
        1
 92
        1
 93
        5
 72
     1
 10
107.0746718467766
 20
99.86580478824185
 11
100.9008844096214
 21
93.87133468938849
 72
     1
 10
100.9008844096214
 20
93.87133468938849
 11
100.8852092148227
 21
93.87030116006108
 72
     1
 10
100.8852092148227
 20
93.87030116006108
 11
98.47157372559474
 21
99.38280208257559
 72
     1
 10
98.47157372559474
 20
99.38280208257559
 11
98.48294254819599
 21
99.39417090517686
 72
     1
 10
98.48294254819599
 20
99.39417090517686
 11
107.0746718467766
 21
99.86580478824185
 97
        0
 75
     2
 76
     1
 98
        0
  0
POLYLINE
  5
7D
330
69
100
AcDbEntity
  8
Livello 1
370
     0
100
AcDb2dPolyline
 66
     1
 10
0.0
 20
0.0
 30
0.0
  0
VERTEX
  5
7E
330
7D
100
AcDbEntity
  8
Livello 1
370
     0
100
AcDbVertex
100
AcDb2dVertex
 10
63.78701851798805
 20
91.24134706096054
 30
0.0
  0
VERTEX
  5
7F
330
7D
100
AcDbEntity
  8
Livello 1
370
     0
100
AcDbVertex
100
AcDb2dVertex
 10
72.31260193961585
 20
92.40785716180635
 30
0.0
  0
VERTEX
  5
80
330
7D
100
AcDbEntity
  8
Livello 1
370
     0
100
AcDbVertex
100
AcDb2dVertex
 10
72.32328174266553
 20
92.42025951373504
 30
0.0
  0
VERTEX
  5
81
330
7D
100
AcDbEntity
  8
Livello 1
370
     0
100
AcDbVertex
100
AcDb2dVertex
 10
69.47022403440955
 20
97.71881986548011
 30
0.0
  0
VERTEX
  5
82
330
7D
100
AcDbEntity
  8
Livello 1
370
     0
100
AcDbVertex
100
AcDb2dVertex
 10
69.45437658472292
 20
97.71606378727376
 30
0.0
  0
VERTEX
  5
83
330
7D
100
AcDbEntity
  8
Livello 1
370
     0
100
AcDbVertex
100
AcDb2dVertex
 10
63.78701851798805
 20
91.24134706096054
 30
0.0
  0
SEQEND
  5
84
330
7D
100
AcDbEntity
  8
Livello 1
370
     0
  0
HATCH
  5
85
330
69
100
AcDbEntity
  8
Livello 1
 62
     7
100
AcDbHatch
 10
0.0
 20
0.0
 30
0.0
210
0.0
220
0.0
230
1.0
  2
SOLID
 70
     1
 71
     0
 91
        1
 92
        1
 93
        5
 72
     1
 10
63.78701851798805
 20
91.24134706096054
 11
72.31260193961585
 21
92.40785716180635
 72
     1
 10
72.31260193961585
 20
92.40785716180635
 11
72.32328174266553
 21
92.42025951373504
 72
     1
 10
72.32328174266553
 20
92.42025951373504
 11
69.47022403440955
 21
97.71881986548011
 72
     1
 10
69.47022403440955
 20
97.71881986548011
 11
69.45437658472292
 21
97.71606378727376
 72
     1
 10
69.45437658472292
 20
97.71606378727376
 11
63.78701851798805
 21
91.24134706096054
 97
        0
 75
     2
 76
     1
 98
        0
  0
POLYLINE
  5
86
330
69
100
AcDbEntity
  8
Livello 1
 62
     7
370
    80
100
AcDb2dPolyline
 66
     1
 10
0.0
 20
0.0
 30
0.0
  0
VERTEX
  5
87
330
86
100
AcDbEntity
  8
Livello 1
 62
     7
370
    80
100
AcDbVertex
100
AcDb2dVertex
 10
85.55986409341803
 20
122.3088941324832
 30
0.0
  0
VERTEX
  5
88
330
86
100
AcDbEntity
  8
Livello 1
 62
     7
370
    80
100
AcDbVertex
100
AcDb2dVertex
 10
82.94400136579772
 20
118.5718243395343
 30
0.0
  0
VERTEX
  5
89
330
86
100
AcDbEntity
  8
Livello 1
 62
     7
370
    80
100
AcDbVertex
100
AcDb2dVertex
 10
86.1203814986384
 20
119.1323417447547
 30
0.0
  0
VERTEX
  5
8A
330
86
100
AcDbEntity
  8
Livello 1
 62
     7
370
    80
100
AcDbVertex
100
AcDb2dVertex
 10
84.25193272960788
 20
115.0218233548427
 30
0.0
  0
SEQEND
  5
8B
330
86
100
AcDbEntity
  8
Livello 1
370
    80
  0
SPLINE
  5
8C
330
69
100
AcDbEntity
  8
Livello 1
 62
     7
370
    60
100
AcDbSpline
210
0.0
220
0.0
230
1.0
 70
    11
 71
     3
 72
    20
 73
    16
 74
     0
 42
0.0000000001
 43
0.0000000001
 40
0.0
 40
0.0
 40
0.0
 40
0.0
 40
1.0
 40
1.0
 40
1.0
 40
2.0
 40
2.0
 40
2.0
 40
3.0
 40
3.0
 40
3.0
 40
4.0
 40
4.0
 40
4.0
 40
5.0
 40
5.0
 40
5.0
 40
5.0
 10
102.7496961214315
 20
91.9458695524637
 30
0.0
 10
102.7496961214315
 20
104.9996894671563
 30
0.0
 10
94.96980410951458
 20
115.5821685051751
 30
0.0
 10
85.37296754004861
 20
115.5821685051751
 30
0.0
 10
75.77595871569473
 20
115.5821685051751
 30
0.0
 10
67.99606670377774
 20
104.9996894671563
 30
0.0
 10
67.99606670377774
 20
91.9458695524637
 30
0.0
 10
67.99606670377774
 20
91.41187939997966
 30
0.0
 10
68.01036385947329
 20
90.88236787458091
 30
0.0
 10
68.0360298377701
 20
90.35733497626756
 30
0.0
 10
68.0360298377701
 20
90.35733497626756
 30
0.0
 10
102.7097329874392
 20
90.35733497626756
 30
0.0
 10
102.7097329874392
 20
90.35733497626756
 30
0.0
 10
102.735398965736
 20
90.88236787458091
 30
0.0
 10
102.7496961214315
 20
91.41187939997966
 30
0.0
 10
102.7496961214315
 20
91.9458695524637
 30
0.0
  0
HATCH
  5
8D
330
69
100
AcDbEntity
  8
Livello 1
 62
     7
100
AcDbHatch
 10
0.0
 20
0.0
 30
0.0
210
0.0
220
0.0
230
1.0
  2
SOLID
 70
     1
 71
     0
 91
        1
 92
        1
 93
        1
 72
     4
 94
        3
 73
     0
 74
     1
 95
       16
 96
       16
 40
0.0
 40
0.0
 40
0.0
 40
1.0
 40
1.0
 40
1.0
 40
2.0
 40
2.0
 40
2.0
 40
3.0
 40
3.0
 40
3.0
 40
4.0
 40
4.0
 40
4.0
 40
5.0
 10
102.7496961214315
 20
91.41187939997966
 10
102.7496961214315
 20
91.9458695524637
 10
102.7496961214315
 20
104.9996894671563
 10
94.96980410951458
 20
115.5821685051751
 10
85.37296754004861
 20
115.5821685051751
 10
75.77595871569473
 20
115.5821685051751
 10
67.99606670377774
 20
104.9996894671563
 10
67.99606670377774
 20
91.9458695524637
 10
67.99606670377774
 20
91.41187939997966
 10
68.01036385947329
 20
90.88236787458091
 10
68.0360298377701
 20
90.35733497626756
 10
68.0360298377701
 20
90.35733497626756
 10
102.7097329874392
 20
90.35733497626756
 10
102.7097329874392
 20
90.35733497626756
 10
102.735398965736
 20
90.88236787458091
 10
102.7496961214315
 20
91.41187939997966
 97
        0
 75
     2
 76
     1
 98
        0
  0
POLYLINE
  5
8E
330
69
100
AcDbEntity
  8
Livello 1
370
     0
100
AcDb2dPolyline
 66
     1
 10
0.0
 20
0.0
 30
0.0
  0
VERTEX
  5
8F
330
8E
100
AcDbEntity
  8
Livello 1
370
     0
100
AcDbVertex
100
AcDb2dVertex
 10
85.24946078542567
 20
84.19198802861933
 30
0.0
  0
VERTEX
  5
90
330
8E
100
AcDbEntity
  8
Livello 1
370
     0
100
AcDbVertex
100
AcDb2dVertex
 10
102.7297145544354
 20
90.4441514397682
 30
0.0
  0
VERTEX
  5
91
330
8E
100
AcDbEntity
  8
Livello 1
370
     0
100
AcDbVertex
100
AcDb2dVertex
 10
67.76920701641596
 20
90.4441514397682
 30
0.0
  0
VERTEX
  5
92
330
8E
100
AcDbEntity
  8
Livello 1
370
     0
100
AcDbVertex
100
AcDb2dVertex
 10
85.24946078542567
 20
84.19198802861933
 30
0.0
  0
SEQEND
  5
93
330
8E
100
AcDbEntity
  8
Livello 1
370
     0
  0
HATCH
  5
94
330
69
100
AcDbEntity
  8
Livello 1
 62
     7
100
AcDbHatch
 10
0.0
 20
0.0
 30
0.0
210
0.0
220
0.0
230
1.0
  2
SOLID
 70
     1
 71
     0
 91
        1
 92
        1
 93
        3
 72
     1
 10
85.24946078542567
 20
84.19198802861933
 11
102.7297145544354
 21
90.4441514397682
 72
     1
 10
102.7297145544354
 20
90.4441514397682
 11
67.76920701641596
 21
90.4441514397682
 72
     1
 10
67.76920701641596
 20
90.4441514397682
 11
85.24946078542567
 21
84.19198802861933
 97
        0
 75
     2
 76
     1
 98
        0
  0
SPLINE
  5
95
330
69
100
AcDbEntity
  8
Livello 1
 62
     7
370
    50
100
AcDbSpline
210
0.0
220
0.0
230
1.0
 70
    11
 71
     3
 72
    17
 73
    13
 74
     0
 42
0.0000000001
 43
0.0000000001
 40
0.0
 40
0.0
 40
0.0
 40
0.0
 40
1.0
 40
1.0
 40
1.0
 40
2.0
 40
2.0
 40
2.0
 40
3.0
 40
3.0
 40
3.0
 40
4.0
 40
4.0
 40
4.0
 40
4.0
 10
88.08236467179758
 20
123.9902740932564
 30
0.0
 10
88.08236467179758
 20
122.4940681369737
 30
0.0
 10
86.86917349633134
 20
121.2812214712833
 30
0.0
 10
85.37296754004861
 20
121.2812214712833
 30
0.0
 10
83.87658932887793
 20
121.2812214712833
 30
0.0
 10
82.66357040829964
 20
122.4940681369737
 30
0.0
 10
82.66357040829964
 20
123.9902740932564
 30
0.0
 10
82.66357040829964
 20
125.486824559315
 30
0.0
 10
83.87658932887793
 20
126.6996712250054
 30
0.0
 10
85.37296754004861
 20
126.6996712250054
 30
0.0
 10
86.86917349633134
 20
126.6996712250054
 30
0.0
 10
88.08236467179758
 20
125.486824559315
 30
0.0
 10
88.08236467179758
 20
123.9902740932564
 30
0.0
  0
HATCH
  5
96
330
69
100
AcDbEntity
  8
Livello 1
 62
     7
100
AcDbHatch
 10
0.0
 20
0.0
 30
0.0
210
0.0
220
0.0
230
1.0
  2
SOLID
 70
     1
 71
     0
 91
        1
 92
        1
 93
        1
 72
     4
 94
        3
 73
     0
 74
     1
 95
       13
 96
       13
 40
0.0
 40
0.0
 40
0.0
 40
1.0
 40
1.0
 40
1.0
 40
2.0
 40
2.0
 40
2.0
 40
3.0
 40
3.0
 40
3.0
 40
4.0
 10
88.08236467179758
 20
125.486824559315
 10
88.08236467179758
 20
123.9902740932564
 10
88.08236467179758
 20
122.4940681369737
 10
86.86917349633134
 20
121.2812214712833
 10
85.37296754004861
 20
121.2812214712833
 10
83.87658932887793
 20
121.2812214712833
 10
82.66357040829964
 20
122.4940681369737
 10
82.66357040829964
 20
123.9902740932564
 10
82.66357040829964
 20
125.486824559315
 10
83.87658932887793
 20
126.6996712250054
 10
85.37296754004861
 20
126.6996712250054
 10
86.86917349633134
 20
126.6996712250054
 10
88.08236467179758
 20
125.486824559315
 97
        0
 75
     2
 76
     1
 98
        0
  0
SPLINE
  5
97
330
69
100
AcDbEntity
  8
Livello 1
 62
     7
370
    60
100
AcDbSpline
210
0.0
220
0.0
230
1.0
 70
    11
 71
     3
 72
    29
 73
    25
 74
     0
 42
0.0000000001
 43
0.0000000001
 40
0.0
 40
0.0
 40
0.0
 40
0.0
 40
1.0
 40
1.0
 40
1.0
 40
2.0
 40
2.0
 40
2.0
 40
3.0
 40
3.0
 40
3.0
 40
4.0
 40
4.0
 40
4.0
 40
5.0
 40
5.0
 40
5.0
 40
6.0
 40
6.0
 40
6.0
 40
7.0
 40
7.0
 40
7.0
 40
8.0
 40
8.0
 40
8.0
 40
8.0
 10
108.5042151614429
 20
101.714444245164
 30
0.0
 10
107.7085698342416
 20
103.2189184360659
 30
0.0
 10
108.2325692032276
 20
105.1664321986417
 30
0.0
 10
109.6655576156517
 20
106.7625459899053
 30
0.0
 10
109.6655576156517
 20
106.7625459899053
 30
0.0
 10
108.575011920369
 20
108.8256427822607
 30
0.0
 10
108.575011920369
 20
108.8256427822607
 30
0.0
 10
108.4442704604543
 20
108.7677651399269
 30
0.0
 10
108.3142180200912
 20
108.7066146547231
 30
0.0
 10
108.1860603834951
 20
108.6387462288913
 30
0.0
 10
105.0966689690429
 20
107.0057698916174
 30
0.0
 10
103.9237854373449
 20
103.1641413817143
 30
0.0
 10
105.5653745190136
 20
100.0587302626877
 30
0.0
 10
107.2071358555703
 20
96.95331914366102
 30
0.0
 10
111.0422186797332
 20
95.7595927705273
 30
0.0
 10
114.1316100941854
 20
97.39222459802533
 30
0.0
 10
114.2594232210057
 20
97.460437533633
 30
0.0
 10
114.3834467402924
 20
97.53347360610177
 30
0.0
 10
114.5052309460363
 20
97.60857673722531
 30
0.0
 10
114.5052309460363
 20
97.60857673722531
 30
0.0
 10
113.3297635910198
 20
99.83204283021379
 30
0.0
 10
113.3297635910198
 20
99.83204283021379
 30
0.0
 10
111.2039660194695
 20
99.54609971630301
 30
0.0
 10
109.2995159788683
 20
100.2096255444864
 30
0.0
 10
108.5042151614429
 20
101.714444245164
 30
0.0
  0
HATCH
  5
98
330
69
100
AcDbEntity
  8
Livello 1
 62
     7
100
AcDbHatch
 10
0.0
 20
0.0
 30
0.0
210
0.0
220
0.0
230
1.0
  2
SOLID
 70
     1
 71
     0
 91
        1
 92
        1
 93
        1
 72
     4
 94
        3
 73
     0
 74
     1
 95
       25
 96
       25
 40
0.0
 40
0.0
 40
0.0
 40
1.0
 40
1.0
 40
1.0
 40
2.0
 40
2.0
 40
2.0
 40
3.0
 40
3.0
 40
3.0
 40
4.0
 40
4.0
 40
4.0
 40
5.0
 40
5.0
 40
5.0
 40
6.0
 40
6.0
 40
6.0
 40
7.0
 40
7.0
 40
7.0
 40
8.0
 10
109.2995159788683
 20
100.2096255444864
 10
108.5042151614429
 20
101.714444245164
 10
107.7085698342416
 20
103.2189184360659
 10
108.2325692032276
 20
105.1664321986417
 10
109.6655576156517
 20
106.7625459899053
 10
109.6655576156517
 20
106.7625459899053
 10
108.575011920369
 20
108.8256427822607
 10
108.575011920369
 20
108.8256427822607
 10
108.4442704604543
 20
108.7677651399269
 10
108.3142180200912
 20
108.7066146547231
 10
108.1860603834951
 20
108.6387462288913
 10
105.0966689690429
 20
107.0057698916174
 10
103.9237854373449
 20
103.1641413817143
 10
105.5653745190136
 20
100.0587302626877
 10
107.2071358555703
 20
96.95331914366102
 10
111.0422186797332
 20
95.7595927705273
 10
114.1316100941854
 20
97.39222459802533
 10
114.2594232210057
 20
97.460437533633
 10
114.3834467402924
 20
97.53347360610177
 10
114.5052309460363
 20
97.60857673722531
 10
114.5052309460363
 20
97.60857673722531
 10
113.3297635910198
 20
99.83204283021379
 10
113.3297635910198
 20
99.83204283021379
 10
111.2039660194695
 20
99.54609971630301
 10
109.2995159788683
 20
100.2096255444864
 97
        0
 75
     2
 76
     1
 98
        0
  0
SPLINE
  5
99
330
69
100
AcDbEntity
  8
Livello 1
 62
     7
370
    60
100
AcDbSpline
210
0.0
220
0.0
230
1.0
 70
    11
 71
     3
 72
    29
 73
    25
 74
     0
 42
0.0000000001
 43
0.0000000001
 40
0.0
 40
0.0
 40
0.0
 40
0.0
 40
1.0
 40
1.0
 40
1.0
 40
2.0
 40
2.0
 40
2.0
 40
3.0
 40
3.0
 40
3.0
 40
4.0
 40
4.0
 40
4.0
 40
5.0
 40
5.0
 40
5.0
 40
6.0
 40
6.0
 40
6.0
 40
7.0
 40
7.0
 40
7.0
 40
8.0
 40
8.0
 40
8.0
 40
8.0
 10
61.67121172993589
 20
91.65544781146754
 30
0.0
 10
60.9770245317066
 20
93.20918690030827
 30
0.0
 10
59.12028909505314
 20
93.99742526732989
 30
0.0
 10
56.98019436780735
 20
93.85204214194391
 30
0.0
 10
56.98019436780735
 20
93.85204214194391
 30
0.0
 10
56.02796934750672
 20
95.983179615019
 30
0.0
 10
56.02796934750672
 20
95.983179615019
 30
0.0
 10
56.15405992544813
 20
96.05001451152347
 30
0.0
 10
56.28256207182009
 20
96.11478234937315
 30
0.0
 10
56.41468157083792
 20
96.17403803081007
 30
0.0
 10
59.60501434959835
 20
97.59961948305464
 30
0.0
 10
63.35293620048489
 20
96.1561235224687
 30
0.0
 10
64.78678588734853
 20
92.94873750980634
 30
0.0
 10
66.2199465546606
 20
89.74204051669561
 30
0.0
 10
64.79608765129502
 20
85.98653945074158
 30
0.0
 10
61.6060993823104
 20
84.56061348872124
 30
0.0
 10
61.47363537351678
 20
84.50135780728428
 30
0.0
 10
61.33979332561996
 20
84.44864781158747
 30
0.0
 10
61.20543451305946
 20
84.39938291364862
 30
0.0
 10
61.20543451305946
 20
84.39938291364862
 30
0.0
 10
60.17948440073847
 20
86.69519605955429
 30
0.0
 10
60.17948440073847
 20
86.69519605955429
 30
0.0
 10
61.71496447146199
 20
88.19278005494025
 30
0.0
 10
62.36574343794096
 20
90.10170872262682
 30
0.0
 10
61.67121172993589
 20
91.65544781146754
 30
0.0
  0
HATCH
  5
9A
330
69
100
AcDbEntity
  8
Livello 1
 62
     7
100
AcDbHatch
 10
0.0
 20
0.0
 30
0.0
210
0.0
220
0.0
230
1.0
  2
SOLID
 70
     1
 71
     0
 91
        1
 92
        1
 93
        1
 72
     4
 94
        3
 73
     0
 74
     1
 95
       25
 96
       25
 40
0.0
 40
0.0
 40
0.0
 40
1.0
 40
1.0
 40
1.0
 40
2.0
 40
2.0
 40
2.0
 40
3.0
 40
3.0
 40
3.0
 40
4.0
 40
4.0
 40
4.0
 40
5.0
 40
5.0
 40
5.0
 40
6.0
 40
6.0
 40
6.0
 40
7.0
 40
7.0
 40
7.0
 40
8.0
 10
62.36574343794096
 20
90.10170872262682
 10
61.67121172993589
 20
91.65544781146754
 10
60.9770245317066
 20
93.20918690030827
 10
59.12028909505314
 20
93.99742526732989
 10
56.98019436780735
 20
93.85204214194391
 10
56.98019436780735
 20
93.85204214194391
 10
56.02796934750672
 20
95.983179615019
 10
56.02796934750672
 20
95.983179615019
 10
56.15405992544813
 20
96.05001451152347
 10
56.28256207182009
 20
96.11478234937315
 10
56.41468157083792
 20
96.17403803081007
 10
59.60501434959835
 20
97.59961948305464
 10
63.35293620048489
 20
96.1561235224687
 10
64.78678588734853
 20
92.94873750980634
 10
66.2199465546606
 20
89.74204051669561
 10
64.79608765129502
 20
85.98653945074158
 10
61.6060993823104
 20
84.56061348872124
 10
61.47363537351678
 20
84.50135780728428
 10
61.33979332561996
 20
84.44864781158747
 10
61.20543451305946
 20
84.39938291364862
 10
61.20543451305946
 20
84.39938291364862
 10
60.17948440073847
 20
86.69519605955429
 10
60.17948440073847
 20
86.69519605955429
 10
61.71496447146199
 20
88.19278005494025
 10
62.36574343794096
 20
90.10170872262682
 97
        0
 75
     2
 76
     1
 98
        0
  0
POLYLINE
  5
9B
330
69
100
AcDbEntity
  8
Livello 1
 62
     7
370
    60
100
AcDb2dPolyline
 66
     1
 10
0.0
 20
0.0
 30
0.0
  0
VERTEX
  5
9C
330
9B
100
AcDbEntity
  8
Livello 1
 62
     7
370
    60
100
AcDbVertex
100
AcDb2dVertex
 10
68.18279100225925
 20
91.35916940428284
 30
0.0
  0
VERTEX
  5
9D
330
9B
100
AcDbEntity
  8
Livello 1
 62
     7
370
    60
100
AcDbVertex
100
AcDb2dVertex
 10
102.56297182295
 20
91.35916940428284
 30
0.0
  0
SEQEND
  5
9E
330
9B
100
AcDbEntity
  8
Livello 1
370
    60
  0
POLYLINE
  5
9F
330
69
100
AcDbEntity
  8
Livello 1
 62
     7
370
    60
100
AcDb2dPolyline
 66
     1
 10
0.0
 20
0.0
 30
0.0
  0
VERTEX
  5
A0
330
9F
100
AcDbEntity
  8
Livello 1
 62
     7
370
    60
100
AcDbVertex
100
AcDb2dVertex
 10
68.22585472423378
 20
92.3961438294293
 30
0.0
  0
VERTEX
  5
A1
330
9F
100
AcDbEntity
  8
Livello 1
 62
     7
370
    60
100
AcDbVertex
100
AcDb2dVertex
 10
102.6058632900366
 20
92.3961438294293
 30
0.0
  0
SEQEND
  5
A2
330
9F
100
AcDbEntity
  8
Livello 1
370
    60
  0
POLYLINE
  5
A3
330
69
100
AcDbEntity
  8
Livello 1
370
     0
100
AcDb2dPolyline
 66
     1
 10
0.0
 20
0.0
 30
0.0
  0
VERTEX
  5
A4
330
A3
100
AcDbEntity
  8
Livello 1
370
     0
100
AcDbVertex
100
AcDb2dVertex
 10
107.0746718467766
 20
99.86580478824185
 30
0.0
  0
VERTEX
  5
A5
330
A3
100
AcDbEntity
  8
Livello 1
370
     0
100
AcDbVertex
100
AcDb2dVertex
 10
100.9008844096214
 20
93.87133468938849
 30
0.0
  0
VERTEX
  5
A6
330
A3
100
AcDbEntity
  8
Livello 1
370
     0
100
AcDbVertex
100
AcDb2dVertex
 10
100.8852092148227
 20
93.87030116006108
 30
0.0
  0
VERTEX
  5
A7
330
A3
100
AcDbEntity
  8
Livello 1
370
     0
100
AcDbVertex
100
AcDb2dVertex
 10
98.47157372559474
 20
99.38280208257559
 30
0.0
  0
VERTEX
  5
A8
330
A3
100
AcDbEntity
  8
Livello 1
370
     0
100
AcDbVertex
100
AcDb2dVertex
 10
98.48294254819599
 20
99.39417090517686
 30
0.0
  0
VERTEX
  5
A9
330
A3
100
AcDbEntity
  8
Livello 1
370
     0
100
AcDbVertex
100
AcDb2dVertex
 10
107.0746718467766
 20
99.86580478824185
 30
0.0
  0
SEQEND
  5
AA
330
A3
100
AcDbEntity
  8
Livello 1
370
     0
  0
HATCH
  5
AB
330
69
100
AcDbEntity
  8
Livello 1
 62
     7
100
AcDbHatch
 10
0.0
 20
0.0
 30
0.0
210
0.0
220
0.0
230
1.0
  2
SOLID
 70
     1
 71
     0
 91
        1
 92
        1
 93
        5
 72
     1
 10
107.0746718467766
 20
99.86580478824185
 11
100.9008844096214
 21
93.87133468938849
 72
     1
 10
100.9008844096214
 20
93.87133468938849
 11
100.8852092148227
 21
93.87030116006108
 72
     1
 10
100.8852092148227
 20
93.87030116006108
 11
98.47157372559474
 21
99.38280208257559
 72
     1
 10
98.47157372559474
 20
99.38280208257559
 11
98.48294254819599
 21
99.39417090517686
 72
     1
 10
98.48294254819599
 20
99.39417090517686
 11
107.0746718467766
 21
99.86580478824185
 97
        0
 75
     2
 76
     1
 98
        0
  0
POLYLINE
  5
AC
330
69
100
AcDbEntity
  8
Livello 1
370
     0
100
AcDb2dPolyline
 66
     1
 10
0.0
 20
0.0
 30
0.0
  0
VERTEX
  5
AD
330
AC
100
AcDbEntity
  8
Livello 1
370
     0
100
AcDbVertex
100
AcDb2dVertex
 10
63.78701851798805
 20
91.24134706096054
 30
0.0
  0
VERTEX
  5
AE
330
AC
100
AcDbEntity
  8
Livello 1
370
     0
100
AcDbVertex
100
AcDb2dVertex
 10
72.31260193961585
 20
92.40785716180635
 30
0.0
  0
VERTEX
  5
AF
330
AC
100
AcDbEntity
  8
Livello 1
370
     0
100
AcDbVertex
100
AcDb2dVertex
 10
72.32328174266553
 20
92.42025951373504
 30
0.0
  0
VERTEX
  5
B0
330
AC
100
AcDbEntity
  8
Livello 1
370
     0
100
AcDbVertex
100
AcDb2dVertex
 10
69.47022403440955
 20
97.71881986548011
 30
0.0
  0
VERTEX
  5
B1
330
AC
100
AcDbEntity
  8
Livello 1
370
     0
100
AcDbVertex
100
AcDb2dVertex
 10
69.45437658472292
 20
97.71606378727376
 30
0.0
  0
VERTEX
  5
B2
330
AC
100
AcDbEntity
  8
Livello 1
370
     0
100
AcDbVertex
100
AcDb2dVertex
 10
63.78701851798805
 20
91.24134706096054
 30
0.0
  0
SEQEND
  5
B3
330
AC
100
AcDbEntity
  8
Livello 1
370
     0
  0
HATCH
  5
B4
330
69
100
AcDbEntity
  8
Livello 1
 62
     7
100
AcDbHatch
 10
0.0
 20
0.0
 30
0.0
210
0.0
220
0.0
230
1.0
  2
SOLID
 70
     1
 71
     0
 91
        1
 92
        1
 93
        5
 72
     1
 10
63.78701851798805
 20
91.24134706096054
 11
72.31260193961585
 21
92.40785716180635
 72
     1
 10
72.31260193961585
 20
92.40785716180635
 11
72.32328174266553
 21
92.42025951373504
 72
     1
 10
72.32328174266553
 20
92.42025951373504
 11
69.47022403440955
 21
97.71881986548011
 72
     1
 10
69.47022403440955
 20
97.71881986548011
 11
69.45437658472292
 21
97.71606378727376
 72
     1
 10
69.45437658472292
 20
97.71606378727376
 11
63.78701851798805
 21
91.24134706096054
 97
        0
 75
     2
 76
     1
 98
        0
  0
POLYLINE
  5
B5
330
69
100
AcDbEntity
  8
Livello 1
 62
     7
370
    80
100
AcDb2dPolyline
 66
     1
 10
0.0
 20
0.0
 30
0.0
  0
VERTEX
  5
B6
330
B5
100
AcDbEntity
  8
Livello 1
 62
     7
370
    80
100
AcDbVertex
100
AcDb2dVertex
 10
85.55986409341803
 20
122.3088941324832
 30
0.0
  0
VERTEX
  5
B7
330
B5
100
AcDbEntity
  8
Livello 1
 62
     7
370
    80
100
AcDbVertex
100
AcDb2dVertex
 10
82.94400136579772
 20
118.5718243395343
 30
0.0
  0
VERTEX
  5
B8
330
B5
100
AcDbEntity
  8
Livello 1
 62
     7
370
    80
100
AcDbVertex
100
AcDb2dVertex
 10
86.1203814986384
 20
119.1323417447547
 30
0.0
  0
VERTEX
  5
B9
330
B5
100
AcDbEntity
  8
Livello 1
 62
     7
370
    80
100
AcDbVertex
100
AcDb2dVertex
 10
84.25193272960788
 20
115.0218233548427
 30
0.0
  0
SEQEND
  5
BA
330
B5
100
AcDbEntity
  8
Livello 1
370
    80
  0
SPLINE
  5
BB
330
69
100
AcDbEntity
  8
Livello 1
 62
     7
370
    60
100
AcDbSpline
210
0.0
220
0.0
230
1.0
 70
    11
 71
     3
 72
    20
 73
    16
 74
     0
 42
0.0000000001
 43
0.0000000001
 40
0.0
 40
0.0
 40
0.0
 40
0.0
 40
1.0
 40
1.0
 40
1.0
 40
2.0
 40
2.0
 40
2.0
 40
3.0
 40
3.0
 40
3.0
 40
4.0
 40
4.0
 40
4.0
 40
5.0
 40
5.0
 40
5.0
 40
5.0
 10
102.7496961214315
 20
91.9458695524637
 30
0.0
 10
102.7496961214315
 20
104.9996894671563
 30
0.0
 10
94.96980410951458
 20
115.5821685051751
 30
0.0
 10
85.37296754004861
 20
115.5821685051751
 30
0.0
 10
75.77595871569473
 20
115.5821685051751
 30
0.0
 10
67.99606670377774
 20
104.9996894671563
 30
0.0
 10
67.99606670377774
 20
91.9458695524637
 30
0.0
 10
67.99606670377774
 20
91.41187939997966
 30
0.0
 10
68.01036385947329
 20
90.88236787458091
 30
0.0
 10
68.0360298377701
 20
90.35733497626756
 30
0.0
 10
68.0360298377701
 20
90.35733497626756
 30
0.0
 10
102.7097329874392
 20
90.35733497626756
 30
0.0
 10
102.7097329874392
 20
90.35733497626756
 30
0.0
 10
102.735398965736
 20
90.88236787458091
 30
0.0
 10
102.7496961214315
 20
91.41187939997966
 30
0.0
 10
102.7496961214315
 20
91.9458695524637
 30
0.0
  0
HATCH
  5
BC
330
69
100
AcDbEntity
  8
Livello 1
 62
     7
100
AcDbHatch
 10
0.0
 20
0.0
 30
0.0
210
0.0
220
0.0
230
1.0
  2
SOLID
 70
     1
 71
     0
 91
        1
 92
        1
 93
        1
 72
     4
 94
        3
 73
     0
 74
     1
 95
       16
 96
       16
 40
0.0
 40
0.0
 40
0.0
 40
1.0
 40
1.0
 40
1.0
 40
2.0
 40
2.0
 40
2.0
 40
3.0
 40
3.0
 40
3.0
 40
4.0
 40
4.0
 40
4.0
 40
5.0
 10
102.7496961214315
 20
91.41187939997966
 10
102.7496961214315
 20
91.9458695524637
 10
102.7496961214315
 20
104.9996894671563
 10
94.96980410951458
 20
115.5821685051751
 10
85.37296754004861
 20
115.5821685051751
 10
75.77595871569473
 20
115.5821685051751
 10
67.99606670377774
 20
104.9996894671563
 10
67.99606670377774
 20
91.9458695524637
 10
67.99606670377774
 20
91.41187939997966
 10
68.01036385947329
 20
90.88236787458091
 10
68.0360298377701
 20
90.35733497626756
 10
68.0360298377701
 20
90.35733497626756
 10
102.7097329874392
 20
90.35733497626756
 10
102.7097329874392
 20
90.35733497626756
 10
102.735398965736
 20
90.88236787458091
 10
102.7496961214315
 20
91.41187939997966
 97
        0
 75
     2
 76
     1
 98
        0
  0
POLYLINE
  5
BD
330
69
100
AcDbEntity
  8
Livello 1
370
     0
100
AcDb2dPolyline
 66
     1
 10
0.0
 20
0.0
 30
0.0
  0
VERTEX
  5
BE
330
BD
100
AcDbEntity
  8
Livello 1
370
     0
100
AcDbVertex
100
AcDb2dVertex
 10
85.24946078542567
 20
84.19198802861933
 30
0.0
  0
VERTEX
  5
BF
330
BD
100
AcDbEntity
  8
Livello 1
370
     0
100
AcDbVertex
100
AcDb2dVertex
 10
102.7297145544354
 20
90.4441514397682
 30
0.0
  0
VERTEX
  5
C0
330
BD
100
AcDbEntity
  8
Livello 1
370
     0
100
AcDbVertex
100
AcDb2dVertex
 10
67.76920701641596
 20
90.4441514397682
 30
0.0
  0
VERTEX
  5
C1
330
BD
100
AcDbEntity
  8
Livello 1
370
     0
100
AcDbVertex
100
AcDb2dVertex
 10
85.24946078542567
 20
84.19198802861933
 30
0.0
  0
SEQEND
  5
C2
330
BD
100
AcDbEntity
  8
Livello 1
370
     0
  0
HATCH
  5
C3
330
69
100
AcDbEntity
  8
Livello 1
 62
     7
100
AcDbHatch
 10
0.0
 20
0.0
 30
0.0
210
0.0
220
0.0
230
1.0
  2
SOLID
 70
     1
 71
     0
 91
        1
 92
        1
 93
        3
 72
     1
 10
85.24946078542567
 20
84.19198802861933
 11
102.7297145544354
 21
90.4441514397682
 72
     1
 10
102.7297145544354
 20
90.4441514397682
 11
67.76920701641596
 21
90.4441514397682
 72
     1
 10
67.76920701641596
 20
90.4441514397682
 11
85.24946078542567
 21
84.19198802861933
 97
        0
 75
     2
 76
     1
 98
        0
  0
SPLINE
  5
C4
330
69
100
AcDbEntity
  8
Livello 1
 62
     7
370
    50
100
AcDbSpline
210
0.0
220
0.0
230
1.0
 70
    11
 71
     3
 72
    17
 73
    13
 74
     0
 42
0.0000000001
 43
0.0000000001
 40
0.0
 40
0.0
 40
0.0
 40
0.0
 40
1.0
 40
1.0
 40
1.0
 40
2.0
 40
2.0
 40
2.0
 40
3.0
 40
3.0
 40
3.0
 40
4.0
 40
4.0
 40
4.0
 40
4.0
 10
88.08236467179758
 20
123.9902740932564
 30
0.0
 10
88.08236467179758
 20
122.4940681369737
 30
0.0
 10
86.86917349633134
 20
121.2812214712833
 30
0.0
 10
85.37296754004861
 20
121.2812214712833
 30
0.0
 10
83.87658932887793
 20
121.2812214712833
 30
0.0
 10
82.66357040829964
 20
122.4940681369737
 30
0.0
 10
82.66357040829964
 20
123.9902740932564
 30
0.0
 10
82.66357040829964
 20
125.486824559315
 30
0.0
 10
83.87658932887793
 20
126.6996712250054
 30
0.0
 10
85.37296754004861
 20
126.6996712250054
 30
0.0
 10
86.86917349633134
 20
126.6996712250054
 30
0.0
 10
88.08236467179758
 20
125.486824559315
 30
0.0
 10
88.08236467179758
 20
123.9902740932564
 30
0.0
  0
HATCH
  5
C5
330
69
100
AcDbEntity
  8
Livello 1
 62
     7
100
AcDbHatch
 10
0.0
 20
0.0
 30
0.0
210
0.0
220
0.0
230
1.0
  2
SOLID
 70
     1
 71
     0
 91
        1
 92
        1
 93
        1
 72
     4
 94
        3
 73
     0
 74
     1
 95
       13
 96
       13
 40
0.0
 40
0.0
 40
0.0
 40
1.0
 40
1.0
 40
1.0
 40
2.0
 40
2.0
 40
2.0
 40
3.0
 40
3.0
 40
3.0
 40
4.0
 10
88.08236467179758
 20
125.486824559315
 10
88.08236467179758
 20
123.9902740932564
 10
88.08236467179758
 20
122.4940681369737
 10
86.86917349633134
 20
121.2812214712833
 10
85.37296754004861
 20
121.2812214712833
 10
83.87658932887793
 20
121.2812214712833
 10
82.66357040829964
 20
122.4940681369737
 10
82.66357040829964
 20
123.9902740932564
 10
82.66357040829964
 20
125.486824559315
 10
83.87658932887793
 20
126.6996712250054
 10
85.37296754004861
 20
126.6996712250054
 10
86.86917349633134
 20
126.6996712250054
 10
88.08236467179758
 20
125.486824559315
 97
        0
 75
     2
 76
     1
 98
        0
  0
SPLINE
  5
C6
330
69
100
AcDbEntity
  8
Livello 1
 62
     7
370
    60
100
AcDbSpline
210
0.0
220
0.0
230
1.0
 70
    11
 71
     3
 72
    29
 73
    25
 74
     0
 42
0.0000000001
 43
0.0000000001
 40
0.0
 40
0.0
 40
0.0
 40
0.0
 40
1.0
 40
1.0
 40
1.0
 40
2.0
 40
2.0
 40
2.0
 40
3.0
 40
3.0
 40
3.0
 40
4.0
 40
4.0
 40
4.0
 40
5.0
 40
5.0
 40
5.0
 40
6.0
 40
6.0
 40
6.0
 40
7.0
 40
7.0
 40
7.0
 40
8.0
 40
8.0
 40
8.0
 40
8.0
 10
108.5042151614429
 20
101.714444245164
 30
0.0
 10
107.7085698342416
 20
103.2189184360659
 30
0.0
 10
108.2325692032276
 20
105.1664321986417
 30
0.0
 10
109.6655576156517
 20
106.7625459899053
 30
0.0
 10
109.6655576156517
 20
106.7625459899053
 30
0.0
 10
108.575011920369
 20
108.8256427822607
 30
0.0
 10
108.575011920369
 20
108.8256427822607
 30
0.0
 10
108.4442704604543
 20
108.7677651399269
 30
0.0
 10
108.3142180200912
 20
108.7066146547231
 30
0.0
 10
108.1860603834951
 20
108.6387462288913
 30
0.0
 10
105.0966689690429
 20
107.0057698916174
 30
0.0
 10
103.9237854373449
 20
103.1641413817143
 30
0.0
 10
105.5653745190136
 20
100.0587302626877
 30
0.0
 10
107.2071358555703
 20
96.95331914366102
 30
0.0
 10
111.0422186797332
 20
95.7595927705273
 30
0.0
 10
114.1316100941854
 20
97.39222459802533
 30
0.0
 10
114.2594232210057
 20
97.460437533633
 30
0.0
 10
114.3834467402924
 20
97.53347360610177
 30
0.0
 10
114.5052309460363
 20
97.60857673722531
 30
0.0
 10
114.5052309460363
 20
97.60857673722531
 30
0.0
 10
113.3297635910198
 20
99.83204283021379
 30
0.0
 10
113.3297635910198
 20
99.83204283021379
 30
0.0
 10
111.2039660194695
 20
99.54609971630301
 30
0.0
 10
109.2995159788683
 20
100.2096255444864
 30
0.0
 10
108.5042151614429
 20
101.714444245164
 30
0.0
  0
HATCH
  5
C7
330
69
100
AcDbEntity
  8
Livello 1
 62
     7
100
AcDbHatch
 10
0.0
 20
0.0
 30
0.0
210
0.0
220
0.0
230
1.0
  2
SOLID
 70
     1
 71
     0
 91
        1
 92
        1
 93
        1
 72
     4
 94
        3
 73
     0
 74
     1
 95
       25
 96
       25
 40
0.0
 40
0.0
 40
0.0
 40
1.0
 40
1.0
 40
1.0
 40
2.0
 40
2.0
 40
2.0
 40
3.0
 40
3.0
 40
3.0
 40
4.0
 40
4.0
 40
4.0
 40
5.0
 40
5.0
 40
5.0
 40
6.0
 40
6.0
 40
6.0
 40
7.0
 40
7.0
 40
7.0
 40
8.0
 10
109.2995159788683
 20
100.2096255444864
 10
108.5042151614429
 20
101.714444245164
 10
107.7085698342416
 20
103.2189184360659
 10
108.2325692032276
 20
105.1664321986417
 10
109.6655576156517
 20
106.7625459899053
 10
109.6655576156517
 20
106.7625459899053
 10
108.575011920369
 20
108.8256427822607
 10
108.575011920369
 20
108.8256427822607
 10
108.4442704604543
 20
108.7677651399269
 10
108.3142180200912
 20
108.7066146547231
 10
108.1860603834951
 20
108.6387462288913
 10
105.0966689690429
 20
107.0057698916174
 10
103.9237854373449
 20
103.1641413817143
 10
105.5653745190136
 20
100.0587302626877
 10
107.2071358555703
 20
96.95331914366102
 10
111.0422186797332
 20
95.7595927705273
 10
114.1316100941854
 20
97.39222459802533
 10
114.2594232210057
 20
97.460437533633
 10
114.3834467402924
 20
97.53347360610177
 10
114.5052309460363
 20
97.60857673722531
 10
114.5052309460363
 20
97.60857673722531
 10
113.3297635910198
 20
99.83204283021379
 10
113.3297635910198
 20
99.83204283021379
 10
111.2039660194695
 20
99.54609971630301
 10
109.2995159788683
 20
100.2096255444864
 97
        0
 75
     2
 76
     1
 98
        0
  0
SPLINE
  5
C8
330
69
100
AcDbEntity
  8
Livello 1
 62
     7
370
    60
100
AcDbSpline
210
0.0
220
0.0
230
1.0
 70
    11
 71
     3
 72
    29
 73
    25
 74
     0
 42
0.0000000001
 43
0.0000000001
 40
0.0
 40
0.0
 40
0.0
 40
0.0
 40
1.0
 40
1.0
 40
1.0
 40
2.0
 40
2.0
 40
2.0
 40
3.0
 40
3.0
 40
3.0
 40
4.0
 40
4.0
 40
4.0
 40
5.0
 40
5.0
 40
5.0
 40
6.0
 40
6.0
 40
6.0
 40
7.0
 40
7.0
 40
7.0
 40
8.0
 40
8.0
 40
8.0
 40
8.0
 10
61.67121172993589
 20
91.65544781146754
 30
0.0
 10
60.9770245317066
 20
93.20918690030827
 30
0.0
 10
59.12028909505314
 20
93.99742526732989
 30
0.0
 10
56.98019436780735
 20
93.85204214194391
 30
0.0
 10
56.98019436780735
 20
93.85204214194391
 30
0.0
 10
56.02796934750672
 20
95.983179615019
 30
0.0
 10
56.02796934750672
 20
95.983179615019
 30
0.0
 10
56.15405992544813
 20
96.05001451152347
 30
0.0
 10
56.28256207182009
 20
96.11478234937315
 30
0.0
 10
56.41468157083792
 20
96.17403803081007
 30
0.0
 10
59.60501434959835
 20
97.59961948305464
 30
0.0
 10
63.35293620048489
 20
96.1561235224687
 30
0.0
 10
64.78678588734853
 20
92.94873750980634
 30
0.0
 10
66.2199465546606
 20
89.74204051669561
 30
0.0
 10
64.79608765129502
 20
85.98653945074158
 30
0.0
 10
61.6060993823104
 20
84.56061348872124
 30
0.0
 10
61.47363537351678
 20
84.50135780728428
 30
0.0
 10
61.33979332561996
 20
84.44864781158747
 30
0.0
 10
61.20543451305946
 20
84.39938291364862
 30
0.0
 10
61.20543451305946
 20
84.39938291364862
 30
0.0
 10
60.17948440073847
 20
86.69519605955429
 30
0.0
 10
60.17948440073847
 20
86.69519605955429
 30
0.0
 10
61.71496447146199
 20
88.19278005494025
 30
0.0
 10
62.36574343794096
 20
90.10170872262682
 30
0.0
 10
61.67121172993589
 20
91.65544781146754
 30
0.0
  0
HATCH
  5
C9
330
69
100
AcDbEntity
  8
Livello 1
 62
     7
100
AcDbHatch
 10
0.0
 20
0.0
 30
0.0
210
0.0
220
0.0
230
1.0
  2
SOLID
 70
     1
 71
     0
 91
        1
 92
        1
 93
        1
 72
     4
 94
        3
 73
     0
 74
     1
 95
       25
 96
       25
 40
0.0
 40
0.0
 40
0.0
 40
1.0
 40
1.0
 40
1.0
 40
2.0
 40
2.0
 40
2.0
 40
3.0
 40
3.0
 40
3.0
 40
4.0
 40
4.0
 40
4.0
 40
5.0
 40
5.0
 40
5.0
 40
6.0
 40
6.0
 40
6.0
 40
7.0
 40
7.0
 40
7.0
 40
8.0
 10
62.36574343794096
 20
90.10170872262682
 10
61.67121172993589
 20
91.65544781146754
 10
60.9770245317066
 20
93.20918690030827
 10
59.12028909505314
 20
93.99742526732989
 10
56.98019436780735
 20
93.85204214194391
 10
56.98019436780735
 20
93.85204214194391
 10
56.02796934750672
 20
95.983179615019
 10
56.02796934750672
 20
95.983179615019
 10
56.15405992544813
 20
96.05001451152347
 10
56.28256207182009
 20
96.11478234937315
 10
56.41468157083792
 20
96.17403803081007
 10
59.60501434959835
 20
97.59961948305464
 10
63.35293620048489
 20
96.1561235224687
 10
64.78678588734853
 20
92.94873750980634
 10
66.2199465546606
 20
89.74204051669561
 10
64.79608765129502
 20
85.98653945074158
 10
61.6060993823104
 20
84.56061348872124
 10
61.47363537351678
 20
84.50135780728428
 10
61.33979332561996
 20
84.44864781158747
 10
61.20543451305946
 20
84.39938291364862
 10
61.20543451305946
 20
84.39938291364862
 10
60.17948440073847
 20
86.69519605955429
 10
60.17948440073847
 20
86.69519605955429
 10
61.71496447146199
 20
88.19278005494025
 10
62.36574343794096
 20
90.10170872262682
 97
        0
 75
     2
 76
     1
 98
        0
  0
POLYLINE
  5
CA
330
69
100
AcDbEntity
  8
Livello 1
 62
     7
370
    60
100
AcDb2dPolyline
 66
     1
 10
0.0
 20
0.0
 30
0.0
  0
VERTEX
  5
CB
330
CA
100
AcDbEntity
  8
Livello 1
 62
     7
370
    60
100
AcDbVertex
100
AcDb2dVertex
 10
68.18279100225925
 20
91.35916940428284
 30
0.0
  0
VERTEX
  5
CC
330
CA
100
AcDbEntity
  8
Livello 1
 62
     7
370
    60
100
AcDbVertex
100
AcDb2dVertex
 10
102.56297182295
 20
91.35916940428284
 30
0.0
  0
SEQEND
  5
CD
330
CA
100
AcDbEntity
  8
Livello 1
370
    60
  0
POLYLINE
  5
CE
330
69
100
AcDbEntity
  8
Livello 1
 62
     7
370
    60
100
AcDb2dPolyline
 66
     1
 10
0.0
 20
0.0
 30
0.0
  0
VERTEX
  5
CF
330
CE
100
AcDbEntity
  8
Livello 1
 62
     7
370
    60
100
AcDbVertex
100
AcDb2dVertex
 10
68.22585472423378
 20
92.3961438294293
 30
0.0
  0
VERTEX
  5
D0
330
CE
100
AcDbEntity
  8
Livello 1
 62
     7
370
    60
100
AcDbVertex
100
AcDb2dVertex
 10
102.6058632900366
 20
92.3961438294293
 30
0.0
  0
SEQEND
  5
D1
330
CE
100
AcDbEntity
  8
Livello 1
370
    60
  0
SPLINE
  5
D2
330
69
100
AcDbEntity
  8
Livello 1
 62
     7
370
    60
100
AcDbSpline
210
0.0
220
0.0
230
1.0
 70
    11
 71
     3
 72
    20
 73
    16
 74
     0
 42
0.0000000001
 43
0.0000000001
 40
0.0
 40
0.0
 40
0.0
 40
0.0
 40
1.0
 40
1.0
 40
1.0
 40
2.0
 40
2.0
 40
2.0
 40
3.0
 40
3.0
 40
3.0
 40
4.0
 40
4.0
 40
4.0
 40
5.0
 40
5.0
 40
5.0
 40
5.0
 10
102.7496961214315
 20
91.99720150905731
 30
0.0
 10
102.7496961214315
 20
105.0513659335257
 30
0.0
 10
94.96980410951458
 20
115.6338449715446
 30
0.0
 10
85.37262303027281
 20
115.6338449715446
 30
0.0
 10
75.77595871569473
 20
115.6338449715446
 30
0.0
 10
67.99606670377774
 20
105.0513659335257
 30
0.0
 10
67.99606670377774
 20
91.99720150905731
 30
0.0
 10
67.99606670377774
 20
91.46390037612489
 30
0.0
 10
68.01019160458539
 20
90.93404434095035
 30
0.0
 10
68.0360298377701
 20
90.40970046218857
 30
0.0
 10
68.0360298377701
 20
90.40970046218857
 30
0.0
 10
102.7097329874392
 20
90.40970046218857
 30
0.0
 10
102.7097329874392
 20
90.40970046218857
 30
0.0
 10
102.735398965736
 20
90.93404434095035
 30
0.0
 10
102.7496961214315
 20
91.46390037612489
 30
0.0
 10
102.7496961214315
 20
91.99720150905731
 30
0.0
  0
INSERT
  5
D4
330
69
100
AcDbEntity
  8
Livello 1
100
AcDbBlockReference
  2
block 7
 10
0.0
 20
0.0
 30
0.0
  0
SPLINE
  5
ED
330
69
100
AcDbEntity
  8
Livello 1
370
     0
100
AcDbSpline
210
0.0
220
0.0
230
1.0
 70
     8
 71
     3
 72
    68
 73
    64
 74
     0
 42
0.0000000001
 43
0.0000000001
 40
0.0
 40
0.0
 40
0.0
 40
0.0
 40
1.0
 40
1.0
 40
1.0
 40
2.0
 40
2.0
 40
2.0
 40
3.0
 40
3.0
 40
3.0
 40
4.0
 40
4.0
 40
4.0
 40
5.0
 40
5.0
 40
5.0
 40
6.0
 40
6.0
 40
6.0
 40
7.0
 40
7.0
 40
7.0
 40
8.0
 40
8.0
 40
8.0
 40
9.0
 40
9.0
 40
9.0
 40
10.0
 40
10.0
 40
10.0
 40
11.0
 40
11.0
 40
11.0
 40
12.0
 40
12.0
 40
12.0
 40
13.0
 40
13.0
 40
13.0
 40
14.0
 40
14.0
 40
14.0
 40
15.0
 40
15.0
 40
15.0
 40
16.0
 40
16.0
 40
16.0
 40
17.0
 40
17.0
 40
17.0
 40
18.0
 40
18.0
 40
18.0
 40
19.0
 40
19.0
 40
19.0
 40
20.0
 40
20.0
 40
20.0
 40
21.0
 40
21.0
 40
21.0
 40
21.0
 10
80.97633378133791
 20
112.9695786204249
 30
0.0
 10
81.41868433346017
 20
113.151996546709
 30
0.0
 10
81.86792508109837
 20
113.3039253578351
 30
0.0
 10
82.3219889655977
 20
113.4265708380185
 30
0.0
 10
82.77553608543339
 20
113.5488718084261
 30
0.0
 10
83.23425085190597
 20
113.642061702779
 30
0.0
 10
83.69382689281808
 20
113.7073463052924
 30
0.0
 10
84.48551035759768
 20
113.8132830613497
 30
0.0
 10
85.29011293896962
 20
113.8425663922924
 30
0.0
 10
86.09506003011736
 20
113.7995026703179
 30
0.0
 10
86.4976197031352
 20
113.7781430642185
 30
0.0
 10
86.9000071212651
 20
113.7388689497777
 30
0.0
 10
87.29912169652498
 20
113.6846086600898
 30
0.0
 10
87.69169058604472
 20
113.6515357216134
 30
0.0
 10
88.08184790713388
 20
113.6000315101319
 30
0.0
 10
88.47028267934403
 20
113.5330243587395
 30
0.0
 10
93.92869556705857
 20
112.6224850213102
 30
0.0
 10
98.58112783429794
 20
108.1250821531791
 30
0.0
 10
99.82170753693992
 20
102.8523600346188
 30
0.0
 10
99.89922223649408
 20
102.3869273275182
 30
0.0
 10
99.8606371416049
 20
101.8829095255284
 30
0.0
 10
99.72490028994121
 20
101.4174768184277
 30
0.0
 10
99.58899118338962
 20
100.9523886211029
 30
0.0
 10
99.35679159450302
 20
100.5258855186673
 30
0.0
 10
99.04656054139856
 20
100.2158267204507
 30
0.0
 10
98.11586738208522
 20
99.51784991468771
 30
0.0
 10
97.01085227621902
 20
99.95399929084566
 30
0.0
 10
95.92771354111579
 20
100.2158267204507
 30
0.0
 10
95.56666729608144
 20
100.3026431839513
 30
0.0
 10
95.20820487436552
 20
100.370856119559
 30
0.0
 10
94.859216471484
 20
100.370856119559
 30
0.0
 10
94.54898541837955
 20
100.370856119559
 30
0.0
 10
94.08372496616683
 20
100.2158267204507
 30
0.0
 10
93.80346626355663
 20
100.0780228101322
 30
0.0
 10
93.51046069924199
 20
99.89646615828769
 30
0.0
 10
93.27119865995156
 20
99.61017853460107
 30
0.0
 10
93.10859004577578
 20
99.17954131485586
 30
0.0
 10
93.00678740702801
 20
98.78025448470813
 30
0.0
 10
93.00317005438214
 20
98.30724256253995
 30
0.0
 10
93.12822710299617
 20
97.73914594225209
 30
0.0
 10
93.1339115142968
 20
97.21101245595654
 30
0.0
 10
93.15320406174135
 20
96.68735759674641
 30
0.0
 10
93.15320406174135
 20
96.18368430453237
 30
0.0
 10
93.15320406174135
 20
95.09778949122283
 30
0.0
 10
91.60239330599493
 20
94.78773069300631
 30
0.0
 10
90.67204465645737
 20
95.09778949122283
 30
0.0
 10
87.7034039184218
 20
96.28565919816805
 30
0.0
 10
87.2605366016358
 20
98.9246040807667
 30
0.0
 10
87.57007863518865
 20
101.646920329108
 30
0.0
 10
87.63209039483198
 20
102.1915902846417
 30
0.0
 10
87.72407450496954
 20
102.7397053379335
 30
0.0
 10
87.83362861367272
 20
103.2826527445882
 30
0.0
 10
88.96585999182685
 20
105.9539815461117
 30
0.0
 10
88.34557014050584
 20
109.3656618558212
 30
0.0
 10
85.69129457288426
 20
110.7850421321014
 30
0.0
 10
85.35298597305242
 20
111.0406683857421
 30
0.0
 10
84.99882992353397
 20
111.2771743468262
 30
0.0
 10
84.63468309051741
 20
111.4924929566988
 30
0.0
 10
83.90725069892381
 20
111.923130176444
 30
0.0
 10
83.14054419288941
 20
112.2688457364555
 30
0.0
 10
82.38572327412001
 20
112.5146534614861
 30
0.0
 10
81.9743786018194
 20
112.6801904087561
 30
0.0
 10
81.55734951821813
 20
112.8322914747701
 30
0.0
 10
81.14152621883215
 20
112.9730237181828
 30
0.0
  0
HATCH
  5
EE
330
69
100
AcDbEntity
  8
Livello 1
 62
     7
100
AcDbHatch
 10
0.0
 20
0.0
 30
0.0
210
0.0
220
0.0
230
1.0
  2
SOLID
 70
     1
 71
     0
 91
        1
 92
        1
 93
        2
 72
     4
 94
        3
 73
     0
 74
     0
 95
       68
 96
       64
 40
0.0
 40
0.0
 40
0.0
 40
0.0
 40
0.3527780104152769
 40
0.3527780104152769
 40
0.3527780104152769
 40
0.7055560208305538
 40
0.7055560208305538
 40
0.7055560208305538
 40
1.058334031245829
 40
1.058334031245829
 40
1.058334031245829
 40
1.411112041661106
 40
1.411112041661106
 40
1.411112041661106
 40
1.763890052076384
 40
1.763890052076384
 40
1.763890052076384
 40
2.11666806249166
 40
2.11666806249166
 40
2.11666806249166
 40
2.469446072906937
 40
2.469446072906937
 40
2.469446072906937
 40
2.822224083322215
 40
2.822224083322215
 40
2.822224083322215
 40
3.175002093737492
 40
3.175002093737492
 40
3.175002093737492
 40
3.527780104152768
 40
3.527780104152768
 40
3.527780104152768
 40
3.880558114568044
 40
3.880558114568044
 40
3.880558114568044
 40
4.233336124983321
 40
4.233336124983321
 40
4.233336124983321
 40
4.586114135398599
 40
4.586114135398599
 40
4.586114135398599
 40
4.938892145813875
 40
4.938892145813875
 40
4.938892145813875
 40
5.291670156229153
 40
5.291670156229153
 40
5.291670156229153
 40
5.64444816664443
 40
5.64444816664443
 40
5.64444816664443
 40
5.997226177059706
 40
5.997226177059706
 40
5.997226177059706
 40
6.350004187474984
 40
6.350004187474984
 40
6.350004187474984
 40
6.702782197890261
 40
6.702782197890261
 40
6.702782197890261
 40
7.055560208305537
 40
7.055560208305537
 40
7.055560208305537
 40
7.408338218720813
 40
7.408338218720813
 40
7.408338218720813
 40
7.408338218720813
 10
80.97633378133791
 20
112.9695786204249
 10
81.41868433346017
 20
113.151996546709
 10
81.86792508109837
 20
113.3039253578351
 10
82.3219889655977
 20
113.4265708380185
 10
82.77553608543339
 20
113.5488718084261
 10
83.23425085190597
 20
113.642061702779
 10
83.69382689281808
 20
113.7073463052924
 10
84.48551035759768
 20
113.8132830613497
 10
85.29011293896962
 20
113.8425663922924
 10
86.09506003011736
 20
113.7995026703179
 10
86.4976197031352
 20
113.7781430642185
 10
86.9000071212651
 20
113.7388689497777
 10
87.29912169652498
 20
113.6846086600898
 10
87.69169058604472
 20
113.6515357216134
 10
88.08184790713388
 20
113.6000315101319
 10
88.47028267934403
 20
113.5330243587395
 10
93.92869556705857
 20
112.6224850213102
 10
98.58112783429794
 20
108.1250821531791
 10
99.82170753693992
 20
102.8523600346188
 10
99.89922223649408
 20
102.3869273275182
 10
99.8606371416049
 20
101.8829095255284
 10
99.72490028994121
 20
101.4174768184277
 10
99.58899118338962
 20
100.9523886211029
 10
99.35679159450302
 20
100.5258855186673
 10
99.04656054139856
 20
100.2158267204507
 10
98.11586738208522
 20
99.51784991468771
 10
97.01085227621902
 20
99.95399929084566
 10
95.92771354111579
 20
100.2158267204507
 10
95.56666729608144
 20
100.3026431839513
 10
95.20820487436552
 20
100.370856119559
 10
94.859216471484
 20
100.370856119559
 10
94.54898541837955
 20
100.370856119559
 10
94.08372496616683
 20
100.2158267204507
 10
93.80346626355663
 20
100.0780228101322
 10
93.51046069924199
 20
99.89646615828769
 10
93.27119865995156
 20
99.61017853460107
 10
93.10859004577578
 20
99.17954131485586
 10
93.00678740702801
 20
98.78025448470813
 10
93.00317005438214
 20
98.30724256253995
 10
93.12822710299617
 20
97.73914594225209
 10
93.1339115142968
 20
97.21101245595654
 10
93.15320406174135
 20
96.68735759674641
 10
93.15320406174135
 20
96.18368430453237
 10
93.15320406174135
 20
95.09778949122283
 10
91.60239330599493
 20
94.78773069300631
 10
90.67204465645737
 20
95.09778949122283
 10
87.7034039184218
 20
96.28565919816805
 10
87.2605366016358
 20
98.9246040807667
 10
87.57007863518865
 20
101.646920329108
 10
87.63209039483198
 20
102.1915902846417
 10
87.72407450496954
 20
102.7397053379335
 10
87.83362861367272
 20
103.2826527445882
 10
88.96585999182685
 20
105.9539815461117
 10
88.34557014050584
 20
109.3656618558212
 10
85.69129457288426
 20
110.7850421321014
 10
85.35298597305242
 20
111.0406683857421
 10
84.99882992353397
 20
111.2771743468262
 10
84.63468309051741
 20
111.4924929566988
 10
83.90725069892381
 20
111.923130176444
 10
83.14054419288941
 20
112.2688457364555
 10
82.38572327412001
 20
112.5146534614861
 10
81.9743786018194
 20
112.6801904087561
 10
81.55734951821813
 20
112.8322914747701
 10
81.14152621883215
 20
112.9730237181828
 72
     1
 10
81.14152621883215
 20
112.9730237181828
 11
80.97633378133791
 21
112.9695786204249
 97
        0
 75
     2
 76
     1
 98
        0
  0
INSERT
  5
F0
330
69
100
AcDbEntity
  8
Livello 1
100
AcDbBlockReference
  2
block 9
 10
0.0
 20
0.0
 30
0.0
  0
SPLINE
  5
109
330
69
100
AcDbEntity
  8
Livello 1
 62
     7
370
    13
100
AcDbSpline
210
0.0
220
0.0
230
1.0
 70
     8
 71
     3
 72
     8
 73
     4
 74
     0
 42
0.0000000001
 43
0.0000000001
 40
0.0
 40
0.0
 40
0.0
 40
0.0
 40
1.0
 40
1.0
 40
1.0
 40
1.0
 10
57.48386766002134
 20
95.25281889033111
 30
0.0
 10
61.05074962372698
 20
95.56322219832347
 30
0.0
 10
63.68728293789506
 20
92.15154188861404
 30
0.0
 10
63.22185023079444
 20
88.89454646823704
 30
0.0
  0
SPLINE
  5
10A
330
69
100
AcDbEntity
  8
Livello 1
 62
     7
370
    13
100
AcDbSpline
210
0.0
220
0.0
230
1.0
 70
     8
 71
     3
 72
     8
 73
     4
 74
     0
 42
0.0000000001
 43
0.0000000001
 40
0.0
 40
0.0
 40
0.0
 40
0.0
 40
1.0
 40
1.0
 40
1.0
 40
1.0
 10
107.0743273370008
 20
104.3692365774493
 30
0.0
 10
106.4848711106136
 20
100.8380113755386
 30
0.0
 10
109.6793380066836
 20
97.94137318064443
 30
0.0
 10
112.9625161700211
 20
98.14980159500112
 30
0.0
  0
SPLINE
  5
10B
330
69
100
AcDbEntity
  8
Livello 1
 62
     7
370
    13
100
AcDbSpline
210
0.0
220
0.0
230
1.0
 70
     8
 71
     3
 72
     8
 73
     4
 74
     0
 42
0.0000000001
 43
0.0000000001
 40
0.0
 40
0.0
 40
0.0
 40
0.0
 40
1.0
 40
1.0
 40
1.0
 40
1.0
 10
84.61814662127919
 20
83.59564160671617
 30
0.0
 10
83.80510355040023
 20
82.79327833888689
 30
0.0
 10
84.0886350958805
 20
81.44693413507544
 30
0.0
 10
84.97574776855563
 20
80.88607222007929
 30
0.0
  0
POLYLINE
  5
10C
330
69
100
AcDbEntity
  8
Livello 1
370
     0
100
AcDb2dPolyline
 66
     1
 10
0.0
 20
0.0
 30
0.0
  0
VERTEX
  5
10D
330
10C
100
AcDbEntity
  8
Livello 1
370
     0
100
AcDbVertex
100
AcDb2dVertex
 10
83.6931378732665
 20
85.79258044696834
 30
0.0
  0
VERTEX
  5
10E
330
10C
100
AcDbEntity
  8
Livello 1
370
     0
100
AcDbVertex
100
AcDb2dVertex
 10
74.38827333878776
 20
89.20494977622938
 30
0.0
  0
VERTEX
  5
10F
330
10C
100
AcDbEntity
  8
Livello 1
370
     0
100
AcDbVertex
100
AcDb2dVertex
 10
92.84314526352483
 20
89.51500857444592
 30
0.0
  0
VERTEX
  5
110
330
10C
100
AcDbEntity
  8
Livello 1
370
     0
100
AcDbVertex
100
AcDb2dVertex
 10
81.67706666530731
 20
87.96402556381158
 30
0.0
  0
VERTEX
  5
111
330
10C
100
AcDbEntity
  8
Livello 1
370
     0
100
AcDbVertex
100
AcDb2dVertex
 10
83.6931378732665
 20
85.79258044696834
 30
0.0
  0
SEQEND
  5
112
330
10C
100
AcDbEntity
  8
Livello 1
370
     0
  0
HATCH
  5
113
330
69
100
AcDbEntity
  8
Livello 1
 62
     7
100
AcDbHatch
 10
0.0
 20
0.0
 30
0.0
210
0.0
220
0.0
230
1.0
  2
SOLID
 70
     1
 71
     0
 91
        1
 92
        1
 93
        4
 72
     1
 10
83.6931378732665
 20
85.79258044696834
 11
74.38827333878776
 21
89.20494977622938
 72
     1
 10
74.38827333878776
 20
89.20494977622938
 11
92.84314526352483
 21
89.51500857444592
 72
     1
 10
92.84314526352483
 20
89.51500857444592
 11
81.67706666530731
 21
87.96402556381158
 72
     1
 10
81.67706666530731
 20
87.96402556381158
 11
83.6931378732665
 21
85.79258044696834
 97
        0
 75
     2
 76
     1
 98
        0
  0
SPLINE
  5
114
330
69
100
AcDbEntity
  8
Livello 1
370
     0
100
AcDbSpline
210
0.0
220
0.0
230
1.0
 70
    11
 71
     3
 72
    17
 73
    13
 74
     0
 42
0.0000000001
 43
0.0000000001
 40
0.0
 40
0.0
 40
0.0
 40
0.0
 40
1.0
 40
1.0
 40
1.0
 40
2.0
 40
2.0
 40
2.0
 40
3.0
 40
3.0
 40
3.0
 40
4.0
 40
4.0
 40
4.0
 40
4.0
 10
86.63955773076322
 20
82.22621524792639
 30
0.0
 10
86.63955773076322
 20
81.85380018029073
 30
0.0
 10
86.40976971030717
 20
81.55166510691747
 30
0.0
 10
86.12589365505114
 20
81.55166510691747
 30
0.0
 10
85.84236210957087
 20
81.55166510691747
 30
0.0
 10
85.61222957933905
 20
81.85380018029073
 30
0.0
 10
85.61222957933905
 20
82.22621524792639
 30
0.0
 10
85.61222957933905
 20
82.59863031556205
 30
0.0
 10
85.84236210957087
 20
82.90007636938367
 30
0.0
 10
86.12589365505114
 20
82.90007636938367
 30
0.0
 10
86.40976971030717
 20
82.90007636938367
 30
0.0
 10
86.63955773076322
 20
82.59863031556205
 30
0.0
 10
86.63955773076322
 20
82.22621524792639
 30
0.0
  0
HATCH
  5
115
330
69
100
AcDbEntity
  8
Livello 1
 62
     7
100
AcDbHatch
 10
0.0
 20
0.0
 30
0.0
210
0.0
220
0.0
230
1.0
  2
SOLID
 70
     1
 71
     0
 91
        1
 92
        1
 93
        1
 72
     4
 94
        3
 73
     0
 74
     1
 95
       13
 96
       13
 40
0.0
 40
0.0
 40
0.0
 40
1.0
 40
1.0
 40
1.0
 40
2.0
 40
2.0
 40
2.0
 40
3.0
 40
3.0
 40
3.0
 40
4.0
 10
86.63955773076322
 20
82.59863031556205
 10
86.63955773076322
 20
82.22621524792639
 10
86.63955773076322
 20
81.85380018029073
 10
86.40976971030717
 20
81.55166510691747
 10
86.12589365505114
 20
81.55166510691747
 10
85.84236210957087
 20
81.55166510691747
 10
85.61222957933905
 20
81.85380018029073
 10
85.61222957933905
 20
82.22621524792639
 10
85.61222957933905
 20
82.59863031556205
 10
85.84236210957087
 20
82.90007636938367
 10
86.12589365505114
 20
82.90007636938367
 10
86.40976971030717
 20
82.90007636938367
 10
86.63955773076322
 20
82.59863031556205
 97
        0
 75
     2
 76
     1
 98
        0
  0
POLYLINE
  5
116
330
69
100
AcDbEntity
  8
Livello 1
370
     0
100
AcDb2dPolyline
 66
     1
 10
0.0
 20
0.0
 30
0.0
  0
VERTEX
  5
117
330
116
100
AcDbEntity
  8
Livello 1
370
     0
100
AcDbVertex
100
AcDb2dVertex
 10
85.3989780281212
 20
125.804634827487
 30
0.0
  0
VERTEX
  5
118
330
116
100
AcDbEntity
  8
Livello 1
370
     0
100
AcDbVertex
100
AcDb2dVertex
 10
86.03545983890462
 20
123.9339467449138
 30
0.0
  0
VERTEX
  5
119
330
116
100
AcDbEntity
  8
Livello 1
370
     0
100
AcDbVertex
100
AcDb2dVertex
 10
84.95714424066262
 20
122.6220535186819
 30
0.0
  0
VERTEX
  5
11A
330
116
100
AcDbEntity
  8
Livello 1
370
     0
100
AcDbVertex
100
AcDb2dVertex
 10
87.10481818297594
 20
123.1844657276692
 30
0.0
  0
VERTEX
  5
11B
330
116
100
AcDbEntity
  8
Livello 1
370
     0
100
AcDbVertex
100
AcDb2dVertex
 10
85.3989780281212
 20
125.804634827487
 30
0.0
  0
SEQEND
  5
11C
330
116
100
AcDbEntity
  8
Livello 1
370
     0
  0
HATCH
  5
11D
330
69
100
AcDbEntity
  8
Livello 1
 62
     7
100
AcDbHatch
 10
0.0
 20
0.0
 30
0.0
210
0.0
220
0.0
230
1.0
  2
SOLID
 70
     1
 71
     0
 91
        1
 92
        1
 93
        4
 72
     1
 10
85.3989780281212
 20
125.804634827487
 11
86.03545983890462
 21
123.9339467449138
 72
     1
 10
86.03545983890462
 20
123.9339467449138
 11
84.95714424066262
 21
122.6220535186819
 72
     1
 10
84.95714424066262
 20
122.6220535186819
 11
87.10481818297594
 21
123.1844657276692
 72
     1
 10
87.10481818297594
 20
123.1844657276692
 11
85.3989780281212
 21
125.804634827487
 97
        0
 75
     2
 76
     1
 98
        0
  0
INSERT
  5
11F
330
69
100
AcDbEntity
  8
Livello 1
100
AcDbBlockReference
  2
block 11
 10
0.0
 20
0.0
 30
0.0
  0
ENDBLK
  5
6C
330
69
100
AcDbEntity
  8
0
100
AcDbBlockEnd
  0
BLOCK
  5
D5
330
D3
100
AcDbEntity
  8
0
100
AcDbBlockBegin
  2
block 7
 70
     0
 10
0.0
 20
0.0
 30
0.0
  3
block 7
  1

  0
INSERT
  5
D8
330
D3
100
AcDbEntity
  8
Livello 1
100
AcDbBlockReference
  2
block 8
 10
0.0
 20
0.0
 30
0.0
  0
SPLINE
  5
E4
330
D3
100
AcDbEntity
  8
Livello 1
 62
     7
370
    50
100
AcDbSpline
210
0.0
220
0.0
230
1.0
 70
    11
 71
     3
 72
    17
 73
    13
 74
     0
 42
0.0000000001
 43
0.0000000001
 40
0.0
 40
0.0
 40
0.0
 40
0.0
 40
1.0
 40
1.0
 40
1.0
 40
2.0
 40
2.0
 40
2.0
 40
3.0
 40
3.0
 40
3.0
 40
4.0
 40
4.0
 40
4.0
 40
4.0
 10
81.61229882745763
 20
100.4366574867361
 30
0.0
 10
81.61229882745763
 20
97.31367636914384
 30
0.0
 10
79.08032423024367
 20
94.78152951704194
 30
0.0
 10
75.9568263479877
 20
94.78152951704194
 30
0.0
 10
72.83332846573175
 20
94.78152951704194
 30
0.0
 10
70.30187063318151
 20
97.31367636914384
 30
0.0
 10
70.30187063318151
 20
100.4366574867361
 30
0.0
 10
70.30187063318151
 20
103.5596386043283
 30
0.0
 10
72.83332846573175
 20
106.0919577113181
 30
0.0
 10
75.9568263479877
 20
106.0919577113181
 30
0.0
 10
79.08032423024367
 20
106.0919577113181
 30
0.0
 10
81.61229882745763
 20
103.5596386043283
 30
0.0
 10
81.61229882745763
 20
100.4366574867361
 30
0.0
  0
SPLINE
  5
E5
330
D3
100
AcDbEntity
  8
Livello 1
370
     0
100
AcDbSpline
210
0.0
220
0.0
230
1.0
 70
    11
 71
     3
 72
    17
 73
    13
 74
     0
 42
0.0000000001
 43
0.0000000001
 40
0.0
 40
0.0
 40
0.0
 40
0.0
 40
1.0
 40
1.0
 40
1.0
 40
2.0
 40
2.0
 40
2.0
 40
3.0
 40
3.0
 40
3.0
 40
4.0
 40
4.0
 40
4.0
 40
4.0
 10
80.56033822706401
 20
100.4535384657501
 30
0.0
 10
80.56033822706401
 20
97.84628848252468
 30
0.0
 10
78.44659849766663
 20
95.73237649823941
 30
0.0
 10
75.83917625955333
 20
95.73237649823941
 30
0.0
 10
73.23192627632791
 20
95.73237649823941
 30
0.0
 10
71.11818654693052
 20
97.84628848252468
 30
0.0
 10
71.11818654693052
 20
100.4535384657501
 30
0.0
 10
71.11818654693052
 20
103.0607884489755
 30
0.0
 10
73.23192627632791
 20
105.1747004332608
 30
0.0
 10
75.83917625955333
 20
105.1747004332608
 30
0.0
 10
78.44659849766663
 20
105.1747004332608
 30
0.0
 10
80.56033822706401
 20
103.0607884489755
 30
0.0
 10
80.56033822706401
 20
100.4535384657501
 30
0.0
  0
HATCH
  5
E6
330
D3
100
AcDbEntity
  8
Livello 1
 62
     7
100
AcDbHatch
 10
0.0
 20
0.0
 30
0.0
210
0.0
220
0.0
230
1.0
  2
SOLID
 70
     1
 71
     0
 91
        1
 92
        1
 93
        1
 72
     4
 94
        3
 73
     0
 74
     1
 95
       13
 96
       13
 40
0.0
 40
0.0
 40
0.0
 40
1.0
 40
1.0
 40
1.0
 40
2.0
 40
2.0
 40
2.0
 40
3.0
 40
3.0
 40
3.0
 40
4.0
 10
80.56033822706401
 20
103.0607884489755
 10
80.56033822706401
 20
100.4535384657501
 10
80.56033822706401
 20
97.84628848252468
 10
78.44659849766663
 20
95.73237649823941
 10
75.83917625955333
 20
95.73237649823941
 10
73.23192627632791
 20
95.73237649823941
 10
71.11818654693052
 20
97.84628848252468
 10
71.11818654693052
 20
100.4535384657501
 10
71.11818654693052
 20
103.0607884489755
 10
73.23192627632791
 20
105.1747004332608
 10
75.83917625955333
 20
105.1747004332608
 10
78.44659849766663
 20
105.1747004332608
 10
80.56033822706401
 20
103.0607884489755
 97
        0
 75
     2
 76
     1
 98
        0
  0
SPLINE
  5
E7
330
D3
100
AcDbEntity
  8
Livello 1
370
     0
100
AcDbSpline
210
0.0
220
0.0
230
1.0
 70
    11
 71
     3
 72
    17
 73
    13
 74
     0
 42
0.0000000001
 43
0.0000000001
 40
0.0
 40
0.0
 40
0.0
 40
0.0
 40
1.0
 40
1.0
 40
1.0
 40
2.0
 40
2.0
 40
2.0
 40
3.0
 40
3.0
 40
3.0
 40
4.0
 40
4.0
 40
4.0
 40
4.0
 10
79.59863918792902
 20
100.463873759024
 30
0.0
 10
79.59863918792902
 20
98.37304392971702
 30
0.0
 10
77.90347883612397
 20
96.67771132302409
 30
0.0
 10
75.81213224215331
 20
96.67771132302409
 30
0.0
 10
73.72026888351898
 20
96.67771132302409
 30
0.0
 10
72.02493627682605
 20
98.37304392971702
 30
0.0
 10
72.02493627682605
 20
100.463873759024
 30
0.0
 10
72.02493627682605
 20
102.5553926078825
 30
0.0
 10
73.72026888351898
 20
104.2507252145755
 30
0.0
 10
75.81213224215331
 20
104.2507252145755
 30
0.0
 10
77.90347883612397
 20
104.2507252145755
 30
0.0
 10
79.59863918792902
 20
102.5553926078825
 30
0.0
 10
79.59863918792902
 20
100.463873759024
 30
0.0
  0
HATCH
  5
E8
330
D3
100
AcDbEntity
  8
Livello 1
 62
     7
100
AcDbHatch
 10
0.0
 20
0.0
 30
0.0
210
0.0
220
0.0
230
1.0
  2
SOLID
 70
     1
 71
     0
 91
        1
 92
        1
 93
        1
 72
     4
 94
        3
 73
     0
 74
     1
 95
       13
 96
       13
 40
0.0
 40
0.0
 40
0.0
 40
1.0
 40
1.0
 40
1.0
 40
2.0
 40
2.0
 40
2.0
 40
3.0
 40
3.0
 40
3.0
 40
4.0
 10
79.59863918792902
 20
102.5553926078825
 10
79.59863918792902
 20
100.463873759024
 10
79.59863918792902
 20
98.37304392971702
 10
77.90347883612397
 20
96.67771132302409
 10
75.81213224215331
 20
96.67771132302409
 10
73.72026888351898
 20
96.67771132302409
 10
72.02493627682605
 20
98.37304392971702
 10
72.02493627682605
 20
100.463873759024
 10
72.02493627682605
 20
102.5553926078825
 10
73.72026888351898
 20
104.2507252145755
 10
75.81213224215331
 20
104.2507252145755
 10
77.90347883612397
 20
104.2507252145755
 10
79.59863918792902
 20
102.5553926078825
 97
        0
 75
     2
 76
     1
 98
        0
  0
SPLINE
  5
E9
330
D3
100
AcDbEntity
  8
Livello 1
370
     0
100
AcDbSpline
210
0.0
220
0.0
230
1.0
 70
    11
 71
     3
 72
    17
 73
    13
 74
     0
 42
0.0000000001
 43
0.0000000001
 40
0.0
 40
0.0
 40
0.0
 40
0.0
 40
1.0
 40
1.0
 40
1.0
 40
2.0
 40
2.0
 40
2.0
 40
3.0
 40
3.0
 40
3.0
 40
4.0
 40
4.0
 40
4.0
 40
4.0
 10
78.98403374790865
 20
100.4156423904125
 30
0.0
 10
78.98403374790865
 20
98.5821613636253
 30
0.0
 10
77.49747406534819
 20
97.09663521039223
 30
0.0
 10
75.66399303856099
 20
97.09663521039223
 30
0.0
 10
73.83068426666167
 20
97.09663521039223
 30
0.0
 10
72.34481360365278
 20
98.5821613636253
 30
0.0
 10
72.34481360365278
 20
100.4156423904125
 30
0.0
 10
72.34481360365278
 20
102.2491234171997
 30
0.0
 10
73.83068426666167
 20
103.7353385899844
 30
0.0
 10
75.66399303856099
 20
103.7353385899844
 30
0.0
 10
77.49747406534819
 20
103.7353385899844
 30
0.0
 10
78.98403374790865
 20
102.2491234171997
 30
0.0
 10
78.98403374790865
 20
100.4156423904125
 30
0.0
  0
HATCH
  5
EA
330
D3
100
AcDbEntity
  8
Livello 1
 62
     7
100
AcDbHatch
 10
0.0
 20
0.0
 30
0.0
210
0.0
220
0.0
230
1.0
  2
SOLID
 70
     1
 71
     0
 91
        1
 92
        1
 93
        1
 72
     4
 94
        3
 73
     0
 74
     1
 95
       13
 96
       13
 40
0.0
 40
0.0
 40
0.0
 40
1.0
 40
1.0
 40
1.0
 40
2.0
 40
2.0
 40
2.0
 40
3.0
 40
3.0
 40
3.0
 40
4.0
 10
78.98403374790865
 20
102.2491234171997
 10
78.98403374790865
 20
100.4156423904125
 10
78.98403374790865
 20
98.5821613636253
 10
77.49747406534819
 20
97.09663521039223
 10
75.66399303856099
 20
97.09663521039223
 10
73.83068426666167
 20
97.09663521039223
 10
72.34481360365278
 20
98.5821613636253
 10
72.34481360365278
 20
100.4156423904125
 10
72.34481360365278
 20
102.2491234171997
 10
73.83068426666167
 20
103.7353385899844
 10
75.66399303856099
 20
103.7353385899844
 10
77.49747406534819
 20
103.7353385899844
 10
78.98403374790865
 20
102.2491234171997
 97
        0
 75
     2
 76
     1
 98
        0
  0
SPLINE
  5
EB
330
D3
100
AcDbEntity
  8
Livello 1
370
     0
100
AcDbSpline
210
0.0
220
0.0
230
1.0
 70
    11
 71
     3
 72
    17
 73
    13
 74
     0
 42
0.0000000001
 43
0.0000000001
 40
0.0
 40
0.0
 40
0.0
 40
0.0
 40
1.0
 40
1.0
 40
1.0
 40
2.0
 40
2.0
 40
2.0
 40
3.0
 40
3.0
 40
3.0
 40
4.0
 40
4.0
 40
4.0
 40
4.0
 10
78.03094745316855
 20
102.1154536241908
 30
0.0
 10
78.03094745316855
 20
101.1594389963564
 30
0.0
 10
77.25580045762717
 20
100.384292000815
 30
0.0
 10
76.29944132001701
 20
100.384292000815
 30
0.0
 10
75.34290992751895
 20
100.384292000815
 30
0.0
 10
74.56793518686545
 20
101.1594389963564
 30
0.0
 10
74.56793518686545
 20
102.1154536241908
 30
0.0
 10
74.56793518686545
 20
103.0714682520252
 30
0.0
 10
75.34290992751895
 20
103.8466152475665
 30
0.0
 10
76.29944132001701
 20
103.8466152475665
 30
0.0
 10
77.25580045762717
 20
103.8466152475665
 30
0.0
 10
78.03094745316855
 20
103.0714682520252
 30
0.0
 10
78.03094745316855
 20
102.1154536241908
 30
0.0
  0
SPLINE
  5
EC
330
D3
100
AcDbEntity
  8
Livello 1
370
     0
100
AcDbSpline
210
0.0
220
0.0
230
1.0
 70
    11
 71
     3
 72
    17
 73
    13
 74
     0
 42
0.0000000001
 43
0.0000000001
 40
0.0
 40
0.0
 40
0.0
 40
0.0
 40
1.0
 40
1.0
 40
1.0
 40
2.0
 40
2.0
 40
2.0
 40
3.0
 40
3.0
 40
3.0
 40
4.0
 40
4.0
 40
4.0
 40
4.0
 10
75.56287941936479
 20
100.3067773012609
 30
0.0
 10
75.56287941936479
 20
99.94573105622656
 30
0.0
 10
75.27021836482595
 20
99.65324225657559
 30
0.0
 10
74.90934437467945
 20
99.65324225657559
 30
0.0
 10
74.54864263942088
 20
99.65324225657559
 30
0.0
 10
74.25632609465781
 20
99.94573105622656
 30
0.0
 10
74.25632609465781
 20
100.3067773012609
 30
0.0
 10
74.25632609465781
 20
100.6671345267437
 30
0.0
 10
74.54864263942088
 20
100.9599678361704
 30
0.0
 10
74.90934437467945
 20
100.9599678361704
 30
0.0
 10
75.27021836482595
 20
100.9599678361704
 30
0.0
 10
75.56287941936479
 20
100.6671345267437
 30
0.0
 10
75.56287941936479
 20
100.3067773012609
 30
0.0
  0
ENDBLK
  5
D6
330
D3
100
AcDbEntity
  8
0
100
AcDbBlockEnd
  0
BLOCK
  5
D9
330
D7
100
AcDbEntity
  8
0
100
AcDbBlockBegin
  2
block 8
 70
     0
 10
0.0
 20
0.0
 30
0.0
  3
block 8
  1

  0
SPLINE
  5
DB
330
D7
100
AcDbEntity
  8
Livello 1
 62
     7
370
    50
100
AcDbSpline
210
0.0
220
0.0
230
1.0
 70
    11
 71
     3
 72
    17
 73
    13
 74
     0
 42
0.0000000001
 43
0.0000000001
 40
0.0
 40
0.0
 40
0.0
 40
0.0
 40
1.0
 40
1.0
 40
1.0
 40
2.0
 40
2.0
 40
2.0
 40
3.0
 40
3.0
 40
3.0
 40
4.0
 40
4.0
 40
4.0
 40
4.0
 10
81.61229882745763
 20
100.4366574867361
 30
0.0
 10
81.61229882745763
 20
97.31367636914384
 30
0.0
 10
79.08032423024367
 20
94.78152951704194
 30
0.0
 10
75.9568263479877
 20
94.78152951704194
 30
0.0
 10
72.83332846573175
 20
94.78152951704194
 30
0.0
 10
70.30187063318151
 20
97.31367636914384
 30
0.0
 10
70.30187063318151
 20
100.4366574867361
 30
0.0
 10
70.30187063318151
 20
103.5596386043283
 30
0.0
 10
72.83332846573175
 20
106.0919577113181
 30
0.0
 10
75.9568263479877
 20
106.0919577113181
 30
0.0
 10
79.08032423024367
 20
106.0919577113181
 30
0.0
 10
81.61229882745763
 20
103.5596386043283
 30
0.0
 10
81.61229882745763
 20
100.4366574867361
 30
0.0
  0
SPLINE
  5
DC
330
D7
100
AcDbEntity
  8
Livello 1
370
     0
100
AcDbSpline
210
0.0
220
0.0
230
1.0
 70
    11
 71
     3
 72
    17
 73
    13
 74
     0
 42
0.0000000001
 43
0.0000000001
 40
0.0
 40
0.0
 40
0.0
 40
0.0
 40
1.0
 40
1.0
 40
1.0
 40
2.0
 40
2.0
 40
2.0
 40
3.0
 40
3.0
 40
3.0
 40
4.0
 40
4.0
 40
4.0
 40
4.0
 10
80.56033822706401
 20
100.4535384657501
 30
0.0
 10
80.56033822706401
 20
97.84628848252468
 30
0.0
 10
78.44659849766663
 20
95.73237649823941
 30
0.0
 10
75.83917625955333
 20
95.73237649823941
 30
0.0
 10
73.23192627632791
 20
95.73237649823941
 30
0.0
 10
71.11818654693052
 20
97.84628848252468
 30
0.0
 10
71.11818654693052
 20
100.4535384657501
 30
0.0
 10
71.11818654693052
 20
103.0607884489755
 30
0.0
 10
73.23192627632791
 20
105.1747004332608
 30
0.0
 10
75.83917625955333
 20
105.1747004332608
 30
0.0
 10
78.44659849766663
 20
105.1747004332608
 30
0.0
 10
80.56033822706401
 20
103.0607884489755
 30
0.0
 10
80.56033822706401
 20
100.4535384657501
 30
0.0
  0
HATCH
  5
DD
330
D7
100
AcDbEntity
  8
Livello 1
 62
     7
100
AcDbHatch
 10
0.0
 20
0.0
 30
0.0
210
0.0
220
0.0
230
1.0
  2
SOLID
 70
     1
 71
     0
 91
        1
 92
        1
 93
        1
 72
     4
 94
        3
 73
     0
 74
     1
 95
       13
 96
       13
 40
0.0
 40
0.0
 40
0.0
 40
1.0
 40
1.0
 40
1.0
 40
2.0
 40
2.0
 40
2.0
 40
3.0
 40
3.0
 40
3.0
 40
4.0
 10
80.56033822706401
 20
103.0607884489755
 10
80.56033822706401
 20
100.4535384657501
 10
80.56033822706401
 20
97.84628848252468
 10
78.44659849766663
 20
95.73237649823941
 10
75.83917625955333
 20
95.73237649823941
 10
73.23192627632791
 20
95.73237649823941
 10
71.11818654693052
 20
97.84628848252468
 10
71.11818654693052
 20
100.4535384657501
 10
71.11818654693052
 20
103.0607884489755
 10
73.23192627632791
 20
105.1747004332608
 10
75.83917625955333
 20
105.1747004332608
 10
78.44659849766663
 20
105.1747004332608
 10
80.56033822706401
 20
103.0607884489755
 97
        0
 75
     2
 76
     1
 98
        0
  0
SPLINE
  5
DE
330
D7
100
AcDbEntity
  8
Livello 1
370
     0
100
AcDbSpline
210
0.0
220
0.0
230
1.0
 70
    11
 71
     3
 72
    17
 73
    13
 74
     0
 42
0.0000000001
 43
0.0000000001
 40
0.0
 40
0.0
 40
0.0
 40
0.0
 40
1.0
 40
1.0
 40
1.0
 40
2.0
 40
2.0
 40
2.0
 40
3.0
 40
3.0
 40
3.0
 40
4.0
 40
4.0
 40
4.0
 40
4.0
 10
79.59863918792902
 20
100.463873759024
 30
0.0
 10
79.59863918792902
 20
98.37304392971702
 30
0.0
 10
77.90347883612397
 20
96.67771132302409
 30
0.0
 10
75.81213224215331
 20
96.67771132302409
 30
0.0
 10
73.72026888351898
 20
96.67771132302409
 30
0.0
 10
72.02493627682605
 20
98.37304392971702
 30
0.0
 10
72.02493627682605
 20
100.463873759024
 30
0.0
 10
72.02493627682605
 20
102.5553926078825
 30
0.0
 10
73.72026888351898
 20
104.2507252145755
 30
0.0
 10
75.81213224215331
 20
104.2507252145755
 30
0.0
 10
77.90347883612397
 20
104.2507252145755
 30
0.0
 10
79.59863918792902
 20
102.5553926078825
 30
0.0
 10
79.59863918792902
 20
100.463873759024
 30
0.0
  0
HATCH
  5
DF
330
D7
100
AcDbEntity
  8
Livello 1
 62
     7
100
AcDbHatch
 10
0.0
 20
0.0
 30
0.0
210
0.0
220
0.0
230
1.0
  2
SOLID
 70
     1
 71
     0
 91
        1
 92
        1
 93
        1
 72
     4
 94
        3
 73
     0
 74
     1
 95
       13
 96
       13
 40
0.0
 40
0.0
 40
0.0
 40
1.0
 40
1.0
 40
1.0
 40
2.0
 40
2.0
 40
2.0
 40
3.0
 40
3.0
 40
3.0
 40
4.0
 10
79.59863918792902
 20
102.5553926078825
 10
79.59863918792902
 20
100.463873759024
 10
79.59863918792902
 20
98.37304392971702
 10
77.90347883612397
 20
96.67771132302409
 10
75.81213224215331
 20
96.67771132302409
 10
73.72026888351898
 20
96.67771132302409
 10
72.02493627682605
 20
98.37304392971702
 10
72.02493627682605
 20
100.463873759024
 10
72.02493627682605
 20
102.5553926078825
 10
73.72026888351898
 20
104.2507252145755
 10
75.81213224215331
 20
104.2507252145755
 10
77.90347883612397
 20
104.2507252145755
 10
79.59863918792902
 20
102.5553926078825
 97
        0
 75
     2
 76
     1
 98
        0
  0
SPLINE
  5
E0
330
D7
100
AcDbEntity
  8
Livello 1
370
     0
100
AcDbSpline
210
0.0
220
0.0
230
1.0
 70
    11
 71
     3
 72
    17
 73
    13
 74
     0
 42
0.0000000001
 43
0.0000000001
 40
0.0
 40
0.0
 40
0.0
 40
0.0
 40
1.0
 40
1.0
 40
1.0
 40
2.0
 40
2.0
 40
2.0
 40
3.0
 40
3.0
 40
3.0
 40
4.0
 40
4.0
 40
4.0
 40
4.0
 10
78.98403374790865
 20
100.4156423904125
 30
0.0
 10
78.98403374790865
 20
98.5821613636253
 30
0.0
 10
77.49747406534819
 20
97.09663521039223
 30
0.0
 10
75.66399303856099
 20
97.09663521039223
 30
0.0
 10
73.83068426666167
 20
97.09663521039223
 30
0.0
 10
72.34481360365278
 20
98.5821613636253
 30
0.0
 10
72.34481360365278
 20
100.4156423904125
 30
0.0
 10
72.34481360365278
 20
102.2491234171997
 30
0.0
 10
73.83068426666167
 20
103.7353385899844
 30
0.0
 10
75.66399303856099
 20
103.7353385899844
 30
0.0
 10
77.49747406534819
 20
103.7353385899844
 30
0.0
 10
78.98403374790865
 20
102.2491234171997
 30
0.0
 10
78.98403374790865
 20
100.4156423904125
 30
0.0
  0
HATCH
  5
E1
330
D7
100
AcDbEntity
  8
Livello 1
 62
     7
100
AcDbHatch
 10
0.0
 20
0.0
 30
0.0
210
0.0
220
0.0
230
1.0
  2
SOLID
 70
     1
 71
     0
 91
        1
 92
        1
 93
        1
 72
     4
 94
        3
 73
     0
 74
     1
 95
       13
 96
       13
 40
0.0
 40
0.0
 40
0.0
 40
1.0
 40
1.0
 40
1.0
 40
2.0
 40
2.0
 40
2.0
 40
3.0
 40
3.0
 40
3.0
 40
4.0
 10
78.98403374790865
 20
102.2491234171997
 10
78.98403374790865
 20
100.4156423904125
 10
78.98403374790865
 20
98.5821613636253
 10
77.49747406534819
 20
97.09663521039223
 10
75.66399303856099
 20
97.09663521039223
 10
73.83068426666167
 20
97.09663521039223
 10
72.34481360365278
 20
98.5821613636253
 10
72.34481360365278
 20
100.4156423904125
 10
72.34481360365278
 20
102.2491234171997
 10
73.83068426666167
 20
103.7353385899844
 10
75.66399303856099
 20
103.7353385899844
 10
77.49747406534819
 20
103.7353385899844
 10
78.98403374790865
 20
102.2491234171997
 97
        0
 75
     2
 76
     1
 98
        0
  0
SPLINE
  5
E2
330
D7
100
AcDbEntity
  8
Livello 1
370
     0
100
AcDbSpline
210
0.0
220
0.0
230
1.0
 70
    11
 71
     3
 72
    17
 73
    13
 74
     0
 42
0.0000000001
 43
0.0000000001
 40
0.0
 40
0.0
 40
0.0
 40
0.0
 40
1.0
 40
1.0
 40
1.0
 40
2.0
 40
2.0
 40
2.0
 40
3.0
 40
3.0
 40
3.0
 40
4.0
 40
4.0
 40
4.0
 40
4.0
 10
78.03094745316855
 20
102.1154536241908
 30
0.0
 10
78.03094745316855
 20
101.1594389963564
 30
0.0
 10
77.25580045762717
 20
100.384292000815
 30
0.0
 10
76.29944132001701
 20
100.384292000815
 30
0.0
 10
75.34290992751895
 20
100.384292000815
 30
0.0
 10
74.56793518686545
 20
101.1594389963564
 30
0.0
 10
74.56793518686545
 20
102.1154536241908
 30
0.0
 10
74.56793518686545
 20
103.0714682520252
 30
0.0
 10
75.34290992751895
 20
103.8466152475665
 30
0.0
 10
76.29944132001701
 20
103.8466152475665
 30
0.0
 10
77.25580045762717
 20
103.8466152475665
 30
0.0
 10
78.03094745316855
 20
103.0714682520252
 30
0.0
 10
78.03094745316855
 20
102.1154536241908
 30
0.0
  0
SPLINE
  5
E3
330
D7
100
AcDbEntity
  8
Livello 1
370
     0
100
AcDbSpline
210
0.0
220
0.0
230
1.0
 70
    11
 71
     3
 72
    17
 73
    13
 74
     0
 42
0.0000000001
 43
0.0000000001
 40
0.0
 40
0.0
 40
0.0
 40
0.0
 40
1.0
 40
1.0
 40
1.0
 40
2.0
 40
2.0
 40
2.0
 40
3.0
 40
3.0
 40
3.0
 40
4.0
 40
4.0
 40
4.0
 40
4.0
 10
75.56287941936479
 20
100.3067773012609
 30
0.0
 10
75.56287941936479
 20
99.94573105622656
 30
0.0
 10
75.27021836482595
 20
99.65324225657559
 30
0.0
 10
74.90934437467945
 20
99.65324225657559
 30
0.0
 10
74.54864263942088
 20
99.65324225657559
 30
0.0
 10
74.25632609465781
 20
99.94573105622656
 30
0.0
 10
74.25632609465781
 20
100.3067773012609
 30
0.0
 10
74.25632609465781
 20
100.6671345267437
 30
0.0
 10
74.54864263942088
 20
100.9599678361704
 30
0.0
 10
74.90934437467945
 20
100.9599678361704
 30
0.0
 10
75.27021836482595
 20
100.9599678361704
 30
0.0
 10
75.56287941936479
 20
100.6671345267437
 30
0.0
 10
75.56287941936479
 20
100.3067773012609
 30
0.0
  0
ENDBLK
  5
DA
330
D7
100
AcDbEntity
  8
0
100
AcDbBlockEnd
  0
BLOCK
  5
F1
330
EF
100
AcDbEntity
  8
0
100
AcDbBlockBegin
  2
block 9
 70
     0
 10
0.0
 20
0.0
 30
0.0
  3
block 9
  1

  0
INSERT
  5
F4
330
EF
100
AcDbEntity
  8
Livello 1
100
AcDbBlockReference
  2
block 10
 10
0.0
 20
0.0
 30
0.0
  0
SPLINE
  5
100
330
EF
100
AcDbEntity
  8
Livello 1
 62
     7
370
    50
100
AcDbSpline
210
0.0
220
0.0
230
1.0
 70
    11
 71
     3
 72
    17
 73
    13
 74
     0
 42
0.0000000001
 43
0.0000000001
 40
0.0
 40
0.0
 40
0.0
 40
0.0
 40
1.0
 40
1.0
 40
1.0
 40
2.0
 40
2.0
 40
2.0
 40
3.0
 40
3.0
 40
3.0
 40
4.0
 40
4.0
 40
4.0
 40
4.0
 10
89.0237376341606
 20
100.4363129769603
 30
0.0
 10
89.0237376341606
 20
97.31367636914384
 30
0.0
 10
91.55571223137457
 20
94.78152951704194
 30
0.0
 10
94.67903785874261
 20
94.78152951704194
 30
0.0
 10
97.80219123122281
 20
94.78152951704194
 30
0.0
 10
100.3341658284367
 20
97.31367636914384
 30
0.0
 10
100.3341658284367
 20
100.4363129769603
 30
0.0
 10
100.3341658284367
 20
103.5596386043283
 30
0.0
 10
97.80219123122281
 20
106.0919577113181
 30
0.0
 10
94.67903785874261
 20
106.0919577113181
 30
0.0
 10
91.55571223137457
 20
106.0919577113181
 30
0.0
 10
89.0237376341606
 20
103.5596386043283
 30
0.0
 10
89.0237376341606
 20
100.4363129769603
 30
0.0
  0
SPLINE
  5
101
330
EF
100
AcDbEntity
  8
Livello 1
370
     0
100
AcDbSpline
210
0.0
220
0.0
230
1.0
 70
    11
 71
     3
 72
    17
 73
    13
 74
     0
 42
0.0000000001
 43
0.0000000001
 40
0.0
 40
0.0
 40
0.0
 40
0.0
 40
1.0
 40
1.0
 40
1.0
 40
2.0
 40
2.0
 40
2.0
 40
3.0
 40
3.0
 40
3.0
 40
4.0
 40
4.0
 40
4.0
 40
4.0
 10
90.07552597966631
 20
100.4535384657501
 30
0.0
 10
90.07552597966631
 20
97.84628848252468
 30
0.0
 10
92.1892657090637
 20
95.73237649823941
 30
0.0
 10
94.79668794717699
 20
95.73237649823941
 30
0.0
 10
97.4041101852903
 20
95.73237649823941
 30
0.0
 10
99.5176776597998
 20
97.84628848252468
 30
0.0
 10
99.5176776597998
 20
100.4535384657501
 30
0.0
 10
99.5176776597998
 20
103.0607884489755
 30
0.0
 10
97.4041101852903
 20
105.1747004332608
 30
0.0
 10
94.79668794717699
 20
105.1747004332608
 30
0.0
 10
92.1892657090637
 20
105.1747004332608
 30
0.0
 10
90.07552597966631
 20
103.0607884489755
 30
0.0
 10
90.07552597966631
 20
100.4535384657501
 30
0.0
  0
HATCH
  5
102
330
EF
100
AcDbEntity
  8
Livello 1
 62
     7
100
AcDbHatch
 10
0.0
 20
0.0
 30
0.0
210
0.0
220
0.0
230
1.0
  2
SOLID
 70
     1
 71
     0
 91
        1
 92
        1
 93
        1
 72
     4
 94
        3
 73
     0
 74
     1
 95
       13
 96
       13
 40
0.0
 40
0.0
 40
0.0
 40
1.0
 40
1.0
 40
1.0
 40
2.0
 40
2.0
 40
2.0
 40
3.0
 40
3.0
 40
3.0
 40
4.0
 10
90.07552597966631
 20
103.0607884489755
 10
90.07552597966631
 20
100.4535384657501
 10
90.07552597966631
 20
97.84628848252468
 10
92.1892657090637
 20
95.73237649823941
 10
94.79668794717699
 20
95.73237649823941
 10
97.4041101852903
 20
95.73237649823941
 10
99.5176776597998
 20
97.84628848252468
 10
99.5176776597998
 20
100.4535384657501
 10
99.5176776597998
 20
103.0607884489755
 10
97.4041101852903
 20
105.1747004332608
 10
94.79668794717699
 20
105.1747004332608
 10
92.1892657090637
 20
105.1747004332608
 10
90.07552597966631
 20
103.0607884489755
 97
        0
 75
     2
 76
     1
 98
        0
  0
SPLINE
  5
103
330
EF
100
AcDbEntity
  8
Livello 1
370
     0
100
AcDbSpline
210
0.0
220
0.0
230
1.0
 70
    11
 71
     3
 72
    17
 73
    13
 74
     0
 42
0.0000000001
 43
0.0000000001
 40
0.0
 40
0.0
 40
0.0
 40
0.0
 40
1.0
 40
1.0
 40
1.0
 40
2.0
 40
2.0
 40
2.0
 40
3.0
 40
3.0
 40
3.0
 40
4.0
 40
4.0
 40
4.0
 40
4.0
 10
91.03739727368919
 20
100.463873759024
 30
0.0
 10
91.03739727368919
 20
98.37304392971702
 30
0.0
 10
92.73272988038215
 20
96.67771132302409
 30
0.0
 10
94.82407647435278
 20
96.67771132302409
 30
0.0
 10
96.91542306832346
 20
96.67771132302409
 30
0.0
 10
98.61092792990429
 20
98.37304392971702
 30
0.0
 10
98.61092792990429
 20
100.463873759024
 30
0.0
 10
98.61092792990429
 20
102.5553926078825
 30
0.0
 10
96.91542306832346
 20
104.2507252145755
 30
0.0
 10
94.82407647435278
 20
104.2507252145755
 30
0.0
 10
92.73272988038215
 20
104.2507252145755
 30
0.0
 10
91.03739727368919
 20
102.5553926078825
 30
0.0
 10
91.03739727368919
 20
100.463873759024
 30
0.0
  0
HATCH
  5
104
330
EF
100
AcDbEntity
  8
Livello 1
 62
     7
100
AcDbHatch
 10
0.0
 20
0.0
 30
0.0
210
0.0
220
0.0
230
1.0
  2
SOLID
 70
     1
 71
     0
 91
        1
 92
        1
 93
        1
 72
     4
 94
        3
 73
     0
 74
     1
 95
       13
 96
       13
 40
0.0
 40
0.0
 40
0.0
 40
1.0
 40
1.0
 40
1.0
 40
2.0
 40
2.0
 40
2.0
 40
3.0
 40
3.0
 40
3.0
 40
4.0
 10
91.03739727368919
 20
102.5553926078825
 10
91.03739727368919
 20
100.463873759024
 10
91.03739727368919
 20
98.37304392971702
 10
92.73272988038215
 20
96.67771132302409
 10
94.82407647435278
 20
96.67771132302409
 10
96.91542306832346
 20
96.67771132302409
 10
98.61092792990429
 20
98.37304392971702
 10
98.61092792990429
 20
100.463873759024
 10
98.61092792990429
 20
102.5553926078825
 10
96.91542306832346
 20
104.2507252145755
 10
94.82407647435278
 20
104.2507252145755
 10
92.73272988038215
 20
104.2507252145755
 10
91.03739727368919
 20
102.5553926078825
 97
        0
 75
     2
 76
     1
 98
        0
  0
SPLINE
  5
105
330
EF
100
AcDbEntity
  8
Livello 1
370
     0
100
AcDbSpline
210
0.0
220
0.0
230
1.0
 70
    11
 71
     3
 72
    17
 73
    13
 74
     0
 42
0.0000000001
 43
0.0000000001
 40
0.0
 40
0.0
 40
0.0
 40
0.0
 40
1.0
 40
1.0
 40
1.0
 40
2.0
 40
2.0
 40
2.0
 40
3.0
 40
3.0
 40
3.0
 40
4.0
 40
4.0
 40
4.0
 40
4.0
 10
91.65217496859749
 20
100.4156423904125
 30
0.0
 10
91.65217496859749
 20
98.5821613636253
 30
0.0
 10
93.13839014138215
 20
97.09594619084064
 30
0.0
 10
94.97169891328146
 20
97.09594619084064
 30
0.0
 10
96.80535219495657
 20
97.09594619084064
 30
0.0
 10
98.29139511285333
 20
98.5821613636253
 30
0.0
 10
98.29139511285333
 20
100.4156423904125
 30
0.0
 10
98.29139511285333
 20
102.2491234171997
 30
0.0
 10
96.80535219495657
 20
103.7353385899844
 30
0.0
 10
94.97169891328146
 20
103.7353385899844
 30
0.0
 10
93.13839014138215
 20
103.7353385899844
 30
0.0
 10
91.65217496859749
 20
102.2491234171997
 30
0.0
 10
91.65217496859749
 20
100.4156423904125
 30
0.0
  0
HATCH
  5
106
330
EF
100
AcDbEntity
  8
Livello 1
 62
     7
100
AcDbHatch
 10
0.0
 20
0.0
 30
0.0
210
0.0
220
0.0
230
1.0
  2
SOLID
 70
     1
 71
     0
 91
        1
 92
        1
 93
        1
 72
     4
 94
        3
 73
     0
 74
     1
 95
       13
 96
       13
 40
0.0
 40
0.0
 40
0.0
 40
1.0
 40
1.0
 40
1.0
 40
2.0
 40
2.0
 40
2.0
 40
3.0
 40
3.0
 40
3.0
 40
4.0
 10
91.65217496859749
 20
102.2491234171997
 10
91.65217496859749
 20
100.4156423904125
 10
91.65217496859749
 20
98.5821613636253
 10
93.13839014138215
 20
97.09594619084064
 10
94.97169891328146
 20
97.09594619084064
 10
96.80535219495657
 20
97.09594619084064
 10
98.29139511285333
 20
98.5821613636253
 10
98.29139511285333
 20
100.4156423904125
 10
98.29139511285333
 20
102.2491234171997
 10
96.80535219495657
 20
103.7353385899844
 10
94.97169891328146
 20
103.7353385899844
 10
93.13839014138215
 20
103.7353385899844
 10
91.65217496859749
 20
102.2491234171997
 97
        0
 75
     2
 76
     1
 98
        0
  0
SPLINE
  5
107
330
EF
100
AcDbEntity
  8
Livello 1
370
     0
100
AcDbSpline
210
0.0
220
0.0
230
1.0
 70
    11
 71
     3
 72
    17
 73
    13
 74
     0
 42
0.0000000001
 43
0.0000000001
 40
0.0
 40
0.0
 40
0.0
 40
0.0
 40
1.0
 40
1.0
 40
1.0
 40
2.0
 40
2.0
 40
2.0
 40
3.0
 40
3.0
 40
3.0
 40
4.0
 40
4.0
 40
4.0
 40
4.0
 10
92.60526126333756
 20
102.1154536241908
 30
0.0
 10
92.60526126333756
 20
101.1594389963564
 30
0.0
 10
93.38023600399107
 20
100.384292000815
 30
0.0
 10
94.33642288671331
 20
100.384292000815
 30
0.0
 10
95.29278202432349
 20
100.384292000815
 30
0.0
 10
96.06792901986487
 20
101.1594389963564
 30
0.0
 10
96.06792901986487
 20
102.1154536241908
 30
0.0
 10
96.06792901986487
 20
103.0714682520252
 30
0.0
 10
95.29278202432349
 20
103.8466152475665
 30
0.0
 10
94.33642288671331
 20
103.8466152475665
 30
0.0
 10
93.38023600399107
 20
103.8466152475665
 30
0.0
 10
92.60526126333756
 20
103.0714682520252
 30
0.0
 10
92.60526126333756
 20
102.1154536241908
 30
0.0
  0
SPLINE
  5
108
330
EF
100
AcDbEntity
  8
Livello 1
370
     0
100
AcDbSpline
210
0.0
220
0.0
230
1.0
 70
    11
 71
     3
 72
    17
 73
    13
 74
     0
 42
0.0000000001
 43
0.0000000001
 40
0.0
 40
0.0
 40
0.0
 40
0.0
 40
1.0
 40
1.0
 40
1.0
 40
2.0
 40
2.0
 40
2.0
 40
3.0
 40
3.0
 40
3.0
 40
4.0
 40
4.0
 40
4.0
 40
4.0
 10
95.07332929714129
 20
100.3067773012609
 30
0.0
 10
95.07332929714129
 20
99.94573105622656
 30
0.0
 10
95.36564584190436
 20
99.65324225657559
 30
0.0
 10
95.72669208693877
 20
99.65324225657559
 30
0.0
 10
96.08739382219736
 20
99.65324225657559
 30
0.0
 10
96.37971036696042
 20
99.94573105622656
 30
0.0
 10
96.37971036696042
 20
100.3067773012609
 30
0.0
 10
96.37971036696042
 20
100.6671345267437
 30
0.0
 10
96.08739382219736
 20
100.9599678361704
 30
0.0
 10
95.72669208693877
 20
100.9599678361704
 30
0.0
 10
95.36564584190436
 20
100.9599678361704
 30
0.0
 10
95.07332929714129
 20
100.6671345267437
 30
0.0
 10
95.07332929714129
 20
100.3067773012609
 30
0.0
  0
ENDBLK
  5
F2
330
EF
100
AcDbEntity
  8
0
100
AcDbBlockEnd
  0
BLOCK
  5
F5
330
F3
100
AcDbEntity
  8
0
100
AcDbBlockBegin
  2
block 10
 70
     0
 10
0.0
 20
0.0
 30
0.0
  3
block 10
  1

  0
SPLINE
  5
F7
330
F3
100
AcDbEntity
  8
Livello 1
 62
     7
370
    50
100
AcDbSpline
210
0.0
220
0.0
230
1.0
 70
    11
 71
     3
 72
    17
 73
    13
 74
     0
 42
0.0000000001
 43
0.0000000001
 40
0.0
 40
0.0
 40
0.0
 40
0.0
 40
1.0
 40
1.0
 40
1.0
 40
2.0
 40
2.0
 40
2.0
 40
3.0
 40
3.0
 40
3.0
 40
4.0
 40
4.0
 40
4.0
 40
4.0
 10
89.0237376341606
 20
100.4363129769603
 30
0.0
 10
89.0237376341606
 20
97.31367636914384
 30
0.0
 10
91.55571223137457
 20
94.78152951704194
 30
0.0
 10
94.67903785874261
 20
94.78152951704194
 30
0.0
 10
97.80219123122281
 20
94.78152951704194
 30
0.0
 10
100.3341658284367
 20
97.31367636914384
 30
0.0
 10
100.3341658284367
 20
100.4363129769603
 30
0.0
 10
100.3341658284367
 20
103.5596386043283
 30
0.0
 10
97.80219123122281
 20
106.0919577113181
 30
0.0
 10
94.67903785874261
 20
106.0919577113181
 30
0.0
 10
91.55571223137457
 20
106.0919577113181
 30
0.0
 10
89.0237376341606
 20
103.5596386043283
 30
0.0
 10
89.0237376341606
 20
100.4363129769603
 30
0.0
  0
SPLINE
  5
F8
330
F3
100
AcDbEntity
  8
Livello 1
370
     0
100
AcDbSpline
210
0.0
220
0.0
230
1.0
 70
    11
 71
     3
 72
    17
 73
    13
 74
     0
 42
0.0000000001
 43
0.0000000001
 40
0.0
 40
0.0
 40
0.0
 40
0.0
 40
1.0
 40
1.0
 40
1.0
 40
2.0
 40
2.0
 40
2.0
 40
3.0
 40
3.0
 40
3.0
 40
4.0
 40
4.0
 40
4.0
 40
4.0
 10
90.07552597966631
 20
100.4535384657501
 30
0.0
 10
90.07552597966631
 20
97.84628848252468
 30
0.0
 10
92.1892657090637
 20
95.73237649823941
 30
0.0
 10
94.79668794717699
 20
95.73237649823941
 30
0.0
 10
97.4041101852903
 20
95.73237649823941
 30
0.0
 10
99.5176776597998
 20
97.84628848252468
 30
0.0
 10
99.5176776597998
 20
100.4535384657501
 30
0.0
 10
99.5176776597998
 20
103.0607884489755
 30
0.0
 10
97.4041101852903
 20
105.1747004332608
 30
0.0
 10
94.79668794717699
 20
105.1747004332608
 30
0.0
 10
92.1892657090637
 20
105.1747004332608
 30
0.0
 10
90.07552597966631
 20
103.0607884489755
 30
0.0
 10
90.07552597966631
 20
100.4535384657501
 30
0.0
  0
HATCH
  5
F9
330
F3
100
AcDbEntity
  8
Livello 1
 62
     7
100
AcDbHatch
 10
0.0
 20
0.0
 30
0.0
210
0.0
220
0.0
230
1.0
  2
SOLID
 70
     1
 71
     0
 91
        1
 92
        1
 93
        1
 72
     4
 94
        3
 73
     0
 74
     1
 95
       13
 96
       13
 40
0.0
 40
0.0
 40
0.0
 40
1.0
 40
1.0
 40
1.0
 40
2.0
 40
2.0
 40
2.0
 40
3.0
 40
3.0
 40
3.0
 40
4.0
 10
90.07552597966631
 20
103.0607884489755
 10
90.07552597966631
 20
100.4535384657501
 10
90.07552597966631
 20
97.84628848252468
 10
92.1892657090637
 20
95.73237649823941
 10
94.79668794717699
 20
95.73237649823941
 10
97.4041101852903
 20
95.73237649823941
 10
99.5176776597998
 20
97.84628848252468
 10
99.5176776597998
 20
100.4535384657501
 10
99.5176776597998
 20
103.0607884489755
 10
97.4041101852903
 20
105.1747004332608
 10
94.79668794717699
 20
105.1747004332608
 10
92.1892657090637
 20
105.1747004332608
 10
90.07552597966631
 20
103.0607884489755
 97
        0
 75
     2
 76
     1
 98
        0
  0
SPLINE
  5
FA
330
F3
100
AcDbEntity
  8
Livello 1
370
     0
100
AcDbSpline
210
0.0
220
0.0
230
1.0
 70
    11
 71
     3
 72
    17
 73
    13
 74
     0
 42
0.0000000001
 43
0.0000000001
 40
0.0
 40
0.0
 40
0.0
 40
0.0
 40
1.0
 40
1.0
 40
1.0
 40
2.0
 40
2.0
 40
2.0
 40
3.0
 40
3.0
 40
3.0
 40
4.0
 40
4.0
 40
4.0
 40
4.0
 10
91.03739727368919
 20
100.463873759024
 30
0.0
 10
91.03739727368919
 20
98.37304392971702
 30
0.0
 10
92.73272988038215
 20
96.67771132302409
 30
0.0
 10
94.82407647435278
 20
96.67771132302409
 30
0.0
 10
96.91542306832346
 20
96.67771132302409
 30
0.0
 10
98.61092792990429
 20
98.37304392971702
 30
0.0
 10
98.61092792990429
 20
100.463873759024
 30
0.0
 10
98.61092792990429
 20
102.5553926078825
 30
0.0
 10
96.91542306832346
 20
104.2507252145755
 30
0.0
 10
94.82407647435278
 20
104.2507252145755
 30
0.0
 10
92.73272988038215
 20
104.2507252145755
 30
0.0
 10
91.03739727368919
 20
102.5553926078825
 30
0.0
 10
91.03739727368919
 20
100.463873759024
 30
0.0
  0
HATCH
  5
FB
330
F3
100
AcDbEntity
  8
Livello 1
 62
     7
100
AcDbHatch
 10
0.0
 20
0.0
 30
0.0
210
0.0
220
0.0
230
1.0
  2
SOLID
 70
     1
 71
     0
 91
        1
 92
        1
 93
        1
 72
     4
 94
        3
 73
     0
 74
     1
 95
       13
 96
       13
 40
0.0
 40
0.0
 40
0.0
 40
1.0
 40
1.0
 40
1.0
 40
2.0
 40
2.0
 40
2.0
 40
3.0
 40
3.0
 40
3.0
 40
4.0
 10
91.03739727368919
 20
102.5553926078825
 10
91.03739727368919
 20
100.463873759024
 10
91.03739727368919
 20
98.37304392971702
 10
92.73272988038215
 20
96.67771132302409
 10
94.82407647435278
 20
96.67771132302409
 10
96.91542306832346
 20
96.67771132302409
 10
98.61092792990429
 20
98.37304392971702
 10
98.61092792990429
 20
100.463873759024
 10
98.61092792990429
 20
102.5553926078825
 10
96.91542306832346
 20
104.2507252145755
 10
94.82407647435278
 20
104.2507252145755
 10
92.73272988038215
 20
104.2507252145755
 10
91.03739727368919
 20
102.5553926078825
 97
        0
 75
     2
 76
     1
 98
        0
  0
SPLINE
  5
FC
330
F3
100
AcDbEntity
  8
Livello 1
370
     0
100
AcDbSpline
210
0.0
220
0.0
230
1.0
 70
    11
 71
     3
 72
    17
 73
    13
 74
     0
 42
0.0000000001
 43
0.0000000001
 40
0.0
 40
0.0
 40
0.0
 40
0.0
 40
1.0
 40
1.0
 40
1.0
 40
2.0
 40
2.0
 40
2.0
 40
3.0
 40
3.0
 40
3.0
 40
4.0
 40
4.0
 40
4.0
 40
4.0
 10
91.65217496859749
 20
100.4156423904125
 30
0.0
 10
91.65217496859749
 20
98.5821613636253
 30
0.0
 10
93.13839014138215
 20
97.09594619084064
 30
0.0
 10
94.97169891328146
 20
97.09594619084064
 30
0.0
 10
96.80535219495657
 20
97.09594619084064
 30
0.0
 10
98.29139511285333
 20
98.5821613636253
 30
0.0
 10
98.29139511285333
 20
100.4156423904125
 30
0.0
 10
98.29139511285333
 20
102.2491234171997
 30
0.0
 10
96.80535219495657
 20
103.7353385899844
 30
0.0
 10
94.97169891328146
 20
103.7353385899844
 30
0.0
 10
93.13839014138215
 20
103.7353385899844
 30
0.0
 10
91.65217496859749
 20
102.2491234171997
 30
0.0
 10
91.65217496859749
 20
100.4156423904125
 30
0.0
  0
HATCH
  5
FD
330
F3
100
AcDbEntity
  8
Livello 1
 62
     7
100
AcDbHatch
 10
0.0
 20
0.0
 30
0.0
210
0.0
220
0.0
230
1.0
  2
SOLID
 70
     1
 71
     0
 91
        1
 92
        1
 93
        1
 72
     4
 94
        3
 73
     0
 74
     1
 95
       13
 96
       13
 40
0.0
 40
0.0
 40
0.0
 40
1.0
 40
1.0
 40
1.0
 40
2.0
 40
2.0
 40
2.0
 40
3.0
 40
3.0
 40
3.0
 40
4.0
 10
91.65217496859749
 20
102.2491234171997
 10
91.65217496859749
 20
100.4156423904125
 10
91.65217496859749
 20
98.5821613636253
 10
93.13839014138215
 20
97.09594619084064
 10
94.97169891328146
 20
97.09594619084064
 10
96.80535219495657
 20
97.09594619084064
 10
98.29139511285333
 20
98.5821613636253
 10
98.29139511285333
 20
100.4156423904125
 10
98.29139511285333
 20
102.2491234171997
 10
96.80535219495657
 20
103.7353385899844
 10
94.97169891328146
 20
103.7353385899844
 10
93.13839014138215
 20
103.7353385899844
 10
91.65217496859749
 20
102.2491234171997
 97
        0
 75
     2
 76
     1
 98
        0
  0
SPLINE
  5
FE
330
F3
100
AcDbEntity
  8
Livello 1
370
     0
100
AcDbSpline
210
0.0
220
0.0
230
1.0
 70
    11
 71
     3
 72
    17
 73
    13
 74
     0
 42
0.0000000001
 43
0.0000000001
 40
0.0
 40
0.0
 40
0.0
 40
0.0
 40
1.0
 40
1.0
 40
1.0
 40
2.0
 40
2.0
 40
2.0
 40
3.0
 40
3.0
 40
3.0
 40
4.0
 40
4.0
 40
4.0
 40
4.0
 10
92.60526126333756
 20
102.1154536241908
 30
0.0
 10
92.60526126333756
 20
101.1594389963564
 30
0.0
 10
93.38023600399107
 20
100.384292000815
 30
0.0
 10
94.33642288671331
 20
100.384292000815
 30
0.0
 10
95.29278202432349
 20
100.384292000815
 30
0.0
 10
96.06792901986487
 20
101.1594389963564
 30
0.0
 10
96.06792901986487
 20
102.1154536241908
 30
0.0
 10
96.06792901986487
 20
103.0714682520252
 30
0.0
 10
95.29278202432349
 20
103.8466152475665
 30
0.0
 10
94.33642288671331
 20
103.8466152475665
 30
0.0
 10
93.38023600399107
 20
103.8466152475665
 30
0.0
 10
92.60526126333756
 20
103.0714682520252
 30
0.0
 10
92.60526126333756
 20
102.1154536241908
 30
0.0
  0
SPLINE
  5
FF
330
F3
100
AcDbEntity
  8
Livello 1
370
     0
100
AcDbSpline
210
0.0
220
0.0
230
1.0
 70
    11
 71
     3
 72
    17
 73
    13
 74
     0
 42
0.0000000001
 43
0.0000000001
 40
0.0
 40
0.0
 40
0.0
 40
0.0
 40
1.0
 40
1.0
 40
1.0
 40
2.0
 40
2.0
 40
2.0
 40
3.0
 40
3.0
 40
3.0
 40
4.0
 40
4.0
 40
4.0
 40
4.0
 10
95.07332929714129
 20
100.3067773012609
 30
0.0
 10
95.07332929714129
 20
99.94573105622656
 30
0.0
 10
95.36564584190436
 20
99.65324225657559
 30
0.0
 10
95.72669208693877
 20
99.65324225657559
 30
0.0
 10
96.08739382219736
 20
99.65324225657559
 30
0.0
 10
96.37971036696042
 20
99.94573105622656
 30
0.0
 10
96.37971036696042
 20
100.3067773012609
 30
0.0
 10
96.37971036696042
 20
100.6671345267437
 30
0.0
 10
96.08739382219736
 20
100.9599678361704
 30
0.0
 10
95.72669208693877
 20
100.9599678361704
 30
0.0
 10
95.36564584190436
 20
100.9599678361704
 30
0.0
 10
95.07332929714129
 20
100.6671345267437
 30
0.0
 10
95.07332929714129
 20
100.3067773012609
 30
0.0
  0
ENDBLK
  5
F6
330
F3
100
AcDbEntity
  8
0
100
AcDbBlockEnd
  0
BLOCK
  5
120
330
11E
100
AcDbEntity
  8
0
100
AcDbBlockBegin
  2
block 11
 70
     0
 10
0.0
 20
0.0
 30
0.0
  3
block 11
  1

  0
SPLINE
  5
122
330
11E
100
AcDbEntity
  8
Livello 1
370
     0
100
AcDbSpline
210
0.0
220
0.0
230
1.0
 70
    11
 71
     3
 72
    44
 73
    40
 74
     0
 42
0.0000000001
 43
0.0000000001
 40
0.0
 40
0.0
 40
0.0
 40
0.0
 40
1.0
 40
1.0
 40
1.0
 40
2.0
 40
2.0
 40
2.0
 40
3.0
 40
3.0
 40
3.0
 40
4.0
 40
4.0
 40
4.0
 40
5.0
 40
5.0
 40
5.0
 40
6.0
 40
6.0
 40
6.0
 40
7.0
 40
7.0
 40
7.0
 40
8.0
 40
8.0
 40
8.0
 40
9.0
 40
9.0
 40
9.0
 40
10.0
 40
10.0
 40
10.0
 40
11.0
 40
11.0
 40
11.0
 40
12.0
 40
12.0
 40
12.0
 40
13.0
 40
13.0
 40
13.0
 40
13.0
 10
83.88451305372125
 20
122.2458488435125
 30
0.0
 10
83.88451305372125
 20
122.2458488435125
 30
0.0
 10
83.88451305372125
 20
125.6241117049698
 30
0.0
 10
83.88451305372125
 20
125.6241117049698
 30
0.0
 10
83.88451305372125
 20
125.6241117049698
 30
0.0
 10
86.03253150581037
 20
125.6241117049698
 30
0.0
 10
86.03253150581037
 20
125.6241117049698
 30
0.0
 10
86.32622608967659
 20
125.6241117049698
 30
0.0
 10
86.5782349906715
 20
125.5502143580615
 30
0.0
 10
86.78890271857083
 20
125.4019028995812
 30
0.0
 10
86.99957044647019
 20
125.253591441101
 30
0.0
 10
87.10481818297594
 20
125.077719200557
 30
0.0
 10
87.10481818297594
 20
124.8737694132857
 30
0.0
 10
87.10481818297594
 20
124.8737694132857
 30
0.0
 10
87.10481818297594
 20
124.6844612914857
 30
0.0
 10
87.10481818297594
 20
124.6844612914857
 30
0.0
 10
87.10481818297594
 20
124.464319544752
 30
0.0
 10
87.01627917059633
 20
124.2917201470781
 30
0.0
 10
86.83851212628551
 20
124.1663185886883
 30
0.0
 10
86.66091733686258
 20
124.0407447754106
 30
0.0
 10
86.39323324106895
 20
123.9632300758564
 30
0.0
 10
86.03545983890462
 20
123.9339467449138
 30
0.0
 10
86.39323324106895
 20
123.9339467449138
 30
0.0
 10
86.66091733686258
 20
123.8584991040144
 30
0.0
 10
86.83851212628551
 20
123.7076038222157
 30
0.0
 10
87.01627917059633
 20
123.556708540417
 30
0.0
 10
87.10481818297594
 20
123.3823865938641
 30
0.0
 10
87.10481818297594
 20
123.1844657276692
 30
0.0
 10
87.10481818297594
 20
123.1844657276692
 30
0.0
 10
87.10481818297594
 20
122.995502115645
 30
0.0
 10
87.10481818297594
 20
122.995502115645
 30
0.0
 10
87.10481818297594
 20
122.7917245832616
 30
0.0
 10
86.99922593669441
 20
122.6160245976055
 30
0.0
 10
86.78752467946766
 20
122.4678853940132
 30
0.0
 10
86.57582342224094
 20
122.3199184453087
 30
0.0
 10
86.32415903102183
 20
122.2458488435125
 30
0.0
 10
86.03253150581037
 20
122.2458488435125
 30
0.0
 10
86.03253150581037
 20
122.2458488435125
 30
0.0
 10
83.88451305372125
 20
122.2458488435125
 30
0.0
 10
83.88451305372125
 20
122.2458488435125
 30
0.0
  0
SPLINE
  5
123
330
11E
100
AcDbEntity
  8
Livello 1
370
     0
100
AcDbSpline
210
0.0
220
0.0
230
1.0
 70
    11
 71
     3
 72
    29
 73
    25
 74
     0
 42
0.0000000001
 43
0.0000000001
 40
0.0
 40
0.0
 40
0.0
 40
0.0
 40
1.0
 40
1.0
 40
1.0
 40
2.0
 40
2.0
 40
2.0
 40
3.0
 40
3.0
 40
3.0
 40
4.0
 40
4.0
 40
4.0
 40
5.0
 40
5.0
 40
5.0
 40
6.0
 40
6.0
 40
6.0
 40
7.0
 40
7.0
 40
7.0
 40
8.0
 40
8.0
 40
8.0
 40
8.0
 10
84.95714424066262
 20
124.1220490824985
 30
0.0
 10
84.95714424066262
 20
124.1220490824985
 30
0.0
 10
85.49475174579255
 20
124.1220490824985
 30
0.0
 10
85.49475174579255
 20
124.1220490824985
 30
0.0
 10
85.64151291028172
 20
124.1220490824985
 30
0.0
 10
85.76794799799889
 20
124.1589116285086
 30
0.0
 10
85.87354024428043
 20
124.2333257400806
 30
0.0
 10
85.97964925522566
 20
124.307050832101
 30
0.0
 10
86.03253150581037
 20
124.3955898444806
 30
0.0
 10
86.03253150581037
 20
124.4982537576679
 30
0.0
 10
86.03253150581037
 20
124.4982537576679
 30
0.0
 10
86.03253150581037
 20
124.8741139230615
 30
0.0
 10
86.03253150581037
 20
124.8741139230615
 30
0.0
 10
86.03253150581037
 20
124.9769500911367
 30
0.0
 10
85.97964925522566
 20
125.0648000839647
 30
0.0
 10
85.87354024428043
 20
125.1381806662093
 30
0.0
 10
85.76794799799889
 20
125.2115612484538
 30
0.0
 10
85.64151291028172
 20
125.2482515395761
 30
0.0
 10
85.49475174579255
 20
125.2482515395761
 30
0.0
 10
85.49475174579255
 20
125.2482515395761
 30
0.0
 10
84.95714424066262
 20
125.2482515395761
 30
0.0
 10
84.95714424066262
 20
125.2482515395761
 30
0.0
 10
84.95714424066262
 20
125.2482515395761
 30
0.0
 10
84.95714424066262
 20
124.1220490824985
 30
0.0
 10
84.95714424066262
 20
124.1220490824985
 30
0.0
  0
SPLINE
  5
124
330
11E
100
AcDbEntity
  8
Livello 1
370
     0
100
AcDbSpline
210
0.0
220
0.0
230
1.0
 70
    11
 71
     3
 72
    26
 73
    22
 74
     0
 42
0.0000000001
 43
0.0000000001
 40
0.0
 40
0.0
 40
0.0
 40
0.0
 40
1.0
 40
1.0
 40
1.0
 40
2.0
 40
2.0
 40
2.0
 40
3.0
 40
3.0
 40
3.0
 40
4.0
 40
4.0
 40
4.0
 40
5.0
 40
5.0
 40
5.0
 40
6.0
 40
6.0
 40
6.0
 40
7.0
 40
7.0
 40
7.0
 40
7.0
 10
84.95714424066262
 20
122.6220535186819
 30
0.0
 10
84.95714424066262
 20
122.6220535186819
 30
0.0
 10
85.49475174579255
 20
122.6220535186819
 30
0.0
 10
85.49475174579255
 20
122.6220535186819
 30
0.0
 10
85.64151291028172
 20
122.6220535186819
 30
0.0
 10
85.76794799799889
 20
122.65908831958
 30
0.0
 10
85.87354024428043
 20
122.7329856664883
 30
0.0
 10
85.97964925522566
 20
122.8068830133966
 30
0.0
 10
86.03253150581037
 20
122.8942162415609
 30
0.0
 10
86.03253150581037
 20
122.9951576058692
 30
0.0
 10
86.03253150581037
 20
122.9951576058692
 30
0.0
 10
86.03253150581037
 20
123.370673261487
 30
0.0
 10
86.03253150581037
 20
123.370673261487
 30
0.0
 10
86.03253150581037
 20
123.620787358715
 30
0.0
 10
85.85321416750845
 20
123.745844407329
 30
0.0
 10
85.49475174579255
 20
123.745844407329
 30
0.0
 10
85.49475174579255
 20
123.745844407329
 30
0.0
 10
84.95714424066262
 20
123.745844407329
 30
0.0
 10
84.95714424066262
 20
123.745844407329
 30
0.0
 10
84.95714424066262
 20
123.745844407329
 30
0.0
 10
84.95714424066262
 20
122.6220535186819
 30
0.0
 10
84.95714424066262
 20
122.6220535186819
 30
0.0
  0
HATCH
  5
125
330
11E
100
AcDbEntity
  8
Livello 1
 62
     7
100
AcDbHatch
 10
0.0
 20
0.0
 30
0.0
210
0.0
220
0.0
230
1.0
  2
SOLID
 70
     1
 71
     0
 91
        3
 92
        1
 93
        1
 72
     4
 94
        3
 73
     0
 74
     1
 95
       40
 96
       40
 40
0.0
 40
0.0
 40
0.0
 40
1.0
 40
1.0
 40
1.0
 40
2.0
 40
2.0
 40
2.0
 40
3.0
 40
3.0
 40
3.0
 40
4.0
 40
4.0
 40
4.0
 40
5.0
 40
5.0
 40
5.0
 40
6.0
 40
6.0
 40
6.0
 40
7.0
 40
7.0
 40
7.0
 40
8.0
 40
8.0
 40
8.0
 40
9.0
 40
9.0
 40
9.0
 40
10.0
 40
10.0
 40
10.0
 40
11.0
 40
11.0
 40
11.0
 40
12.0
 40
12.0
 40
12.0
 40
13.0
 10
83.88451305372125
 20
122.2458488435125
 10
83.88451305372125
 20
122.2458488435125
 10
83.88451305372125
 20
122.2458488435125
 10
83.88451305372125
 20
125.6241117049698
 10
83.88451305372125
 20
125.6241117049698
 10
83.88451305372125
 20
125.6241117049698
 10
86.03253150581037
 20
125.6241117049698
 10
86.03253150581037
 20
125.6241117049698
 10
86.32622608967659
 20
125.6241117049698
 10
86.5782349906715
 20
125.5502143580615
 10
86.78890271857083
 20
125.4019028995812
 10
86.99957044647019
 20
125.253591441101
 10
87.10481818297594
 20
125.077719200557
 10
87.10481818297594
 20
124.8737694132857
 10
87.10481818297594
 20
124.8737694132857
 10
87.10481818297594
 20
124.6844612914857
 10
87.10481818297594
 20
124.6844612914857
 10
87.10481818297594
 20
124.464319544752
 10
87.01627917059633
 20
124.2917201470781
 10
86.83851212628551
 20
124.1663185886883
 10
86.66091733686258
 20
124.0407447754106
 10
86.39323324106895
 20
123.9632300758564
 10
86.03545983890462
 20
123.9339467449138
 10
86.39323324106895
 20
123.9339467449138
 10
86.66091733686258
 20
123.8584991040144
 10
86.83851212628551
 20
123.7076038222157
 10
87.01627917059633
 20
123.556708540417
 10
87.10481818297594
 20
123.3823865938641
 10
87.10481818297594
 20
123.1844657276692
 10
87.10481818297594
 20
123.1844657276692
 10
87.10481818297594
 20
122.995502115645
 10
87.10481818297594
 20
122.995502115645
 10
87.10481818297594
 20
122.7917245832616
 10
86.99922593669441
 20
122.6160245976055
 10
86.78752467946766
 20
122.4678853940132
 10
86.57582342224094
 20
122.3199184453087
 10
86.32415903102183
 20
122.2458488435125
 10
86.03253150581037
 20
122.2458488435125
 10
86.03253150581037
 20
122.2458488435125
 10
83.88451305372125
 20
122.2458488435125
 97
        0
 92
        1
 93
        1
 72
     4
 94
        3
 73
     0
 74
     1
 95
       25
 96
       25
 40
0.0
 40
0.0
 40
0.0
 40
1.0
 40
1.0
 40
1.0
 40
2.0
 40
2.0
 40
2.0
 40
3.0
 40
3.0
 40
3.0
 40
4.0
 40
4.0
 40
4.0
 40
5.0
 40
5.0
 40
5.0
 40
6.0
 40
6.0
 40
6.0
 40
7.0
 40
7.0
 40
7.0
 40
8.0
 10
84.95714424066262
 20
124.1220490824985
 10
84.95714424066262
 20
124.1220490824985
 10
84.95714424066262
 20
124.1220490824985
 10
85.49475174579255
 20
124.1220490824985
 10
85.49475174579255
 20
124.1220490824985
 10
85.64151291028172
 20
124.1220490824985
 10
85.76794799799889
 20
124.1589116285086
 10
85.87354024428043
 20
124.2333257400806
 10
85.97964925522566
 20
124.307050832101
 10
86.03253150581037
 20
124.3955898444806
 10
86.03253150581037
 20
124.4982537576679
 10
86.03253150581037
 20
124.4982537576679
 10
86.03253150581037
 20
124.8741139230615
 10
86.03253150581037
 20
124.8741139230615
 10
86.03253150581037
 20
124.9769500911367
 10
85.97964925522566
 20
125.0648000839647
 10
85.87354024428043
 20
125.1381806662093
 10
85.76794799799889
 20
125.2115612484538
 10
85.64151291028172
 20
125.2482515395761
 10
85.49475174579255
 20
125.2482515395761
 10
85.49475174579255
 20
125.2482515395761
 10
84.95714424066262
 20
125.2482515395761
 10
84.95714424066262
 20
125.2482515395761
 10
84.95714424066262
 20
125.2482515395761
 10
84.95714424066262
 20
124.1220490824985
 97
        0
 92
        1
 93
        1
 72
     4
 94
        3
 73
     0
 74
     1
 95
       22
 96
       22
 40
0.0
 40
0.0
 40
0.0
 40
1.0
 40
1.0
 40
1.0
 40
2.0
 40
2.0
 40
2.0
 40
3.0
 40
3.0
 40
3.0
 40
4.0
 40
4.0
 40
4.0
 40
5.0
 40
5.0
 40
5.0
 40
6.0
 40
6.0
 40
6.0
 40
7.0
 10
84.95714424066262
 20
122.6220535186819
 10
84.95714424066262
 20
122.6220535186819
 10
84.95714424066262
 20
122.6220535186819
 10
85.49475174579255
 20
122.6220535186819
 10
85.49475174579255
 20
122.6220535186819
 10
85.64151291028172
 20
122.6220535186819
 10
85.76794799799889
 20
122.65908831958
 10
85.87354024428043
 20
122.7329856664883
 10
85.97964925522566
 20
122.8068830133966
 10
86.03253150581037
 20
122.8942162415609
 10
86.03253150581037
 20
122.9951576058692
 10
86.03253150581037
 20
122.9951576058692
 10
86.03253150581037
 20
123.370673261487
 10
86.03253150581037
 20
123.370673261487
 10
86.03253150581037
 20
123.620787358715
 10
85.85321416750845
 20
123.745844407329
 10
85.49475174579255
 20
123.745844407329
 10
85.49475174579255
 20
123.745844407329
 10
84.95714424066262
 20
123.745844407329
 10
84.95714424066262
 20
123.745844407329
 10
84.95714424066262
 20
123.745844407329
 10
84.95714424066262
 20
122.6220535186819
 97
        0
 75
     2
 76
     1
 98
        0
  0
ENDBLK
  5
121
330
11E
100
AcDbEntity
  8
0
100
AcDbBlockEnd
  0
BLOCK
  5
128
330
126
100
AcDbEntity
  8
0
100
AcDbBlockBegin
  2
block 12
 70
     0
 10
0.0
 20
0.0
 30
0.0
  3
block 12
  1

  0
INSERT
  5
12B
330
126
100
AcDbEntity
  8
Livello 1
100
AcDbBlockReference
  2
block 13
 10
0.0
 20
0.0
 30
0.0
  0
INSERT
  5
137
330
126
100
AcDbEntity
  8
Livello 1
100
AcDbBlockReference
  2
block 14
 10
0.0
 20
0.0
 30
0.0
  0
INSERT
  5
143
330
126
100
AcDbEntity
  8
Livello 1
100
AcDbBlockReference
  2
block 15
 10
0.0
 20
0.0
 30
0.0
  0
INSERT
  5
14F
330
126
100
AcDbEntity
  8
Livello 1
100
AcDbBlockReference
  2
block 16
 10
0.0
 20
0.0
 30
0.0
  0
INSERT
  5
15B
330
126
100
AcDbEntity
  8
Livello 1
100
AcDbBlockReference
  2
block 17
 10
0.0
 20
0.0
 30
0.0
  0
ENDBLK
  5
129
330
126
100
AcDbEntity
  8
0
100
AcDbBlockEnd
  0
BLOCK
  5
12C
330
12A
100
AcDbEntity
  8
0
100
AcDbBlockBegin
  2
block 13
 70
     0
 10
0.0
 20
0.0
 30
0.0
  3
block 13
  1

  0
POLYLINE
  5
12E
330
12A
100
AcDbEntity
  8
Livello 1
370
     0
100
AcDb2dPolyline
 66
     1
 10
0.0
 20
0.0
 30
0.0
  0
VERTEX
  5
12F
330
12E
100
AcDbEntity
  8
Livello 1
370
     0
100
AcDbVertex
100
AcDb2dVertex
 10
84.97764257232248
 20
129.5975152041149
 30
0.0
  0
VERTEX
  5
130
330
12E
100
AcDbEntity
  8
Livello 1
370
     0
100
AcDbVertex
100
AcDb2dVertex
 10
84.8789405215569
 20
134.5181483318115
 30
0.0
  0
VERTEX
  5
131
330
12E
100
AcDbEntity
  8
Livello 1
370
     0
100
AcDbVertex
100
AcDb2dVertex
 10
85.55555772122056
 20
134.5181483318115
 30
0.0
  0
VERTEX
  5
132
330
12E
100
AcDbEntity
  8
Livello 1
370
     0
100
AcDbVertex
100
AcDb2dVertex
 10
85.45668341556707
 20
129.5975152041149
 30
0.0
  0
VERTEX
  5
133
330
12E
100
AcDbEntity
  8
Livello 1
370
     0
100
AcDbVertex
100
AcDb2dVertex
 10
84.97764257232248
 20
129.5975152041149
 30
0.0
  0
SEQEND
  5
134
330
12E
100
AcDbEntity
  8
Livello 1
370
     0
  0
HATCH
  5
135
330
12A
100
AcDbEntity
  8
Livello 1
 62
     7
100
AcDbHatch
 10
0.0
 20
0.0
 30
0.0
210
0.0
220
0.0
230
1.0
  2
SOLID
 70
     1
 71
     0
 91
        1
 92
        1
 93
        4
 72
     1
 10
84.97764257232248
 20
129.5975152041149
 11
84.8789405215569
 21
134.5181483318115
 72
     1
 10
84.8789405215569
 20
134.5181483318115
 11
85.55555772122056
 21
134.5181483318115
 72
     1
 10
85.55555772122056
 20
134.5181483318115
 11
85.45668341556707
 21
129.5975152041149
 72
     1
 10
85.45668341556707
 20
129.5975152041149
 11
84.97764257232248
 21
129.5975152041149
 97
        0
 75
     2
 76
     1
 98
        0
  0
ENDBLK
  5
12D
330
12A
100
AcDbEntity
  8
0
100
AcDbBlockEnd
  0
BLOCK
  5
138
330
136
100
AcDbEntity
  8
0
100
AcDbBlockBegin
  2
block 14
 70
     0
 10
0.0
 20
0.0
 30
0.0
  3
block 14
  1

  0
POLYLINE
  5
13A
330
136
100
AcDbEntity
  8
Livello 1
370
     0
100
AcDb2dPolyline
 66
     1
 10
0.0
 20
0.0
 30
0.0
  0
VERTEX
  5
13B
330
13A
100
AcDbEntity
  8
Livello 1
370
     0
100
AcDbVertex
100
AcDb2dVertex
 10
88.09838437637209
 20
126.9120615017838
 30
0.0
  0
VERTEX
  5
13C
330
13A
100
AcDbEntity
  8
Livello 1
370
     0
100
AcDbVertex
100
AcDb2dVertex
 10
91.97532513829427
 20
129.9440920385658
 30
0.0
  0
VERTEX
  5
13D
330
13A
100
AcDbEntity
  8
Livello 1
370
     0
100
AcDbVertex
100
AcDb2dVertex
 10
92.38132990907004
 20
129.40286718079
 30
0.0
  0
VERTEX
  5
13E
330
13A
100
AcDbEntity
  8
Livello 1
370
     0
100
AcDbVertex
100
AcDb2dVertex
 10
88.38605003916191
 20
126.5286221213226
 30
0.0
  0
VERTEX
  5
13F
330
13A
100
AcDbEntity
  8
Livello 1
370
     0
100
AcDbVertex
100
AcDb2dVertex
 10
88.09838437637209
 20
126.9120615017838
 30
0.0
  0
SEQEND
  5
140
330
13A
100
AcDbEntity
  8
Livello 1
370
     0
  0
HATCH
  5
141
330
136
100
AcDbEntity
  8
Livello 1
 62
     7
100
AcDbHatch
 10
0.0
 20
0.0
 30
0.0
210
0.0
220
0.0
230
1.0
  2
SOLID
 70
     1
 71
     0
 91
        1
 92
        1
 93
        4
 72
     1
 10
88.09838437637209
 20
126.9120615017838
 11
91.97532513829427
 21
129.9440920385658
 72
     1
 10
91.97532513829427
 20
129.9440920385658
 11
92.38132990907004
 21
129.40286718079
 72
     1
 10
92.38132990907004
 20
129.40286718079
 11
88.38605003916191
 21
126.5286221213226
 72
     1
 10
88.38605003916191
 20
126.5286221213226
 11
88.09838437637209
 21
126.9120615017838
 97
        0
 75
     2
 76
     1
 98
        0
  0
ENDBLK
  5
139
330
136
100
AcDbEntity
  8
0
100
AcDbBlockEnd
  0
BLOCK
  5
144
330
142
100
AcDbEntity
  8
0
100
AcDbBlockBegin
  2
block 15
 70
     0
 10
0.0
 20
0.0
 30
0.0
  3
block 15
  1

  0
POLYLINE
  5
146
330
142
100
AcDbEntity
  8
Livello 1
370
     0
100
AcDb2dPolyline
 66
     1
 10
0.0
 20
0.0
 30
0.0
  0
VERTEX
  5
147
330
146
100
AcDbEntity
  8
Livello 1
370
     0
100
AcDbVertex
100
AcDb2dVertex
 10
81.33531296771748
 20
126.4225131103774
 30
0.0
  0
VERTEX
  5
148
330
146
100
AcDbEntity
  8
Livello 1
370
     0
100
AcDbVertex
100
AcDb2dVertex
 10
77.28904565099148
 20
129.2244111169276
 30
0.0
  0
VERTEX
  5
149
330
146
100
AcDbEntity
  8
Livello 1
370
     0
100
AcDbVertex
100
AcDb2dVertex
 10
77.68557640293289
 20
129.7732151897709
 30
0.0
  0
VERTEX
  5
14A
330
146
100
AcDbEntity
  8
Livello 1
370
     0
100
AcDbVertex
100
AcDb2dVertex
 10
81.61608843499138
 20
126.8107756276997
 30
0.0
  0
VERTEX
  5
14B
330
146
100
AcDbEntity
  8
Livello 1
370
     0
100
AcDbVertex
100
AcDb2dVertex
 10
81.33531296771748
 20
126.4225131103774
 30
0.0
  0
SEQEND
  5
14C
330
146
100
AcDbEntity
  8
Livello 1
370
     0
  0
HATCH
  5
14D
330
142
100
AcDbEntity
  8
Livello 1
 62
     7
100
AcDbHatch
 10
0.0
 20
0.0
 30
0.0
210
0.0
220
0.0
230
1.0
  2
SOLID
 70
     1
 71
     0
 91
        1
 92
        1
 93
        4
 72
     1
 10
81.33531296771748
 20
126.4225131103774
 11
77.28904565099148
 21
129.2244111169276
 72
     1
 10
77.28904565099148
 20
129.2244111169276
 11
77.68557640293289
 21
129.7732151897709
 72
     1
 10
77.68557640293289
 20
129.7732151897709
 11
81.61608843499138
 21
126.8107756276997
 72
     1
 10
81.61608843499138
 20
126.8107756276997
 11
81.33531296771748
 21
126.4225131103774
 97
        0
 75
     2
 76
     1
 98
        0
  0
ENDBLK
  5
145
330
142
100
AcDbEntity
  8
0
100
AcDbBlockEnd
  0
BLOCK
  5
150
330
14E
100
AcDbEntity
  8
0
100
AcDbBlockBegin
  2
block 16
 70
     0
 10
0.0
 20
0.0
 30
0.0
  3
block 16
  1

  0
POLYLINE
  5
152
330
14E
100
AcDbEntity
  8
Livello 1
370
     0
100
AcDb2dPolyline
 66
     1
 10
0.0
 20
0.0
 30
0.0
  0
VERTEX
  5
153
330
152
100
AcDbEntity
  8
Livello 1
370
     0
100
AcDbVertex
100
AcDb2dVertex
 10
82.42723670210345
 20
128.431005103269
 30
0.0
  0
VERTEX
  5
154
330
152
100
AcDbEntity
  8
Livello 1
370
     0
100
AcDbVertex
100
AcDb2dVertex
 10
80.50435538849715
 20
132.9616531647645
 30
0.0
  0
VERTEX
  5
155
330
152
100
AcDbEntity
  8
Livello 1
370
     0
100
AcDbVertex
100
AcDb2dVertex
 10
81.13239670977355
 20
133.2134898108715
 30
0.0
  0
VERTEX
  5
156
330
152
100
AcDbEntity
  8
Livello 1
370
     0
100
AcDbVertex
100
AcDb2dVertex
 10
82.8719988226563
 20
128.6091166573557
 30
0.0
  0
VERTEX
  5
157
330
152
100
AcDbEntity
  8
Livello 1
370
     0
100
AcDbVertex
100
AcDb2dVertex
 10
82.42723670210345
 20
128.431005103269
 30
0.0
  0
SEQEND
  5
158
330
152
100
AcDbEntity
  8
Livello 1
370
     0
  0
HATCH
  5
159
330
14E
100
AcDbEntity
  8
Livello 1
 62
     7
100
AcDbHatch
 10
0.0
 20
0.0
 30
0.0
210
0.0
220
0.0
230
1.0
  2
SOLID
 70
     1
 71
     0
 91
        1
 92
        1
 93
        4
 72
     1
 10
82.42723670210345
 20
128.431005103269
 11
80.50435538849715
 21
132.9616531647645
 72
     1
 10
80.50435538849715
 20
132.9616531647645
 11
81.13239670977355
 21
133.2134898108715
 72
     1
 10
81.13239670977355
 20
133.2134898108715
 11
82.8719988226563
 21
128.6091166573557
 72
     1
 10
82.8719988226563
 20
128.6091166573557
 11
82.42723670210345
 21
128.431005103269
 97
        0
 75
     2
 76
     1
 98
        0
  0
ENDBLK
  5
151
330
14E
100
AcDbEntity
  8
0
100
AcDbBlockEnd
  0
BLOCK
  5
15C
330
15A
100
AcDbEntity
  8
0
100
AcDbBlockBegin
  2
block 17
 70
     0
 10
0.0
 20
0.0
 30
0.0
  3
block 17
  1

  0
POLYLINE
  5
15E
330
15A
100
AcDbEntity
  8
Livello 1
370
     0
100
AcDb2dPolyline
 66
     1
 10
0.0
 20
0.0
 30
0.0
  0
VERTEX
  5
15F
330
15E
100
AcDbEntity
  8
Livello 1
370
     0
100
AcDbVertex
100
AcDb2dVertex
 10
87.20868788037847
 20
128.8320144822958
 30
0.0
  0
VERTEX
  5
160
330
15E
100
AcDbEntity
  8
Livello 1
370
     0
100
AcDbVertex
100
AcDb2dVertex
 10
89.6998380691606
 20
133.077408449432
 30
0.0
  0
VERTEX
  5
161
330
15E
100
AcDbEntity
  8
Livello 1
370
     0
100
AcDbVertex
100
AcDb2dVertex
 10
90.27637517895547
 20
132.7235969096893
 30
0.0
  0
VERTEX
  5
162
330
15E
100
AcDbEntity
  8
Livello 1
370
     0
100
AcDbVertex
100
AcDb2dVertex
 10
87.61693196469694
 20
128.581555875292
 30
0.0
  0
VERTEX
  5
163
330
15E
100
AcDbEntity
  8
Livello 1
370
     0
100
AcDbVertex
100
AcDb2dVertex
 10
87.20868788037847
 20
128.8320144822958
 30
0.0
  0
SEQEND
  5
164
330
15E
100
AcDbEntity
  8
Livello 1
370
     0
  0
HATCH
  5
165
330
15A
100
AcDbEntity
  8
Livello 1
 62
     7
100
AcDbHatch
 10
0.0
 20
0.0
 30
0.0
210
0.0
220
0.0
230
1.0
  2
SOLID
 70
     1
 71
     0
 91
        1
 92
        1
 93
        4
 72
     1
 10
87.20868788037847
 20
128.8320144822958
 11
89.6998380691606
 21
133.077408449432
 72
     1
 10
89.6998380691606
 20
133.077408449432
 11
90.27637517895547
 21
132.7235969096893
 72
     1
 10
90.27637517895547
 20
132.7235969096893
 11
87.61693196469694
 21
128.581555875292
 72
     1
 10
87.61693196469694
 20
128.581555875292
 11
87.20868788037847
 21
128.8320144822958
 97
        0
 75
     2
 76
     1
 98
        0
  0
ENDBLK
  5
15D
330
15A
100
AcDbEntity
  8
0
100
AcDbBlockEnd
  0
ENDSEC
  0
SECTION
  2
ENTITIES
  0
CIRCLE
  5
4D5
330
1F
100
AcDbEntity
  8
0
100
AcDbCircle
 10
0.2626479032015128
 20
0.4139198298676931
 30
0.0
 40
0.1000000000000142
  0
TEXT
  5
4E3
330
1F
100
AcDbEntity
  8
0
100
AcDbText
 10
0.0074267679369123
 20
0.0388742497564878
 30
0.0
 40
0.05
  1
BSM-2
100
AcDbText
  0
LINE
  5
4E4
330
1F
100
AcDbEntity
  8
0
100
AcDbLine
 10
0.1174023879736832
 20
0.2104407392804549
 30
0.0
 11
0.2045496971103761
 21
0.3325281936327907
 31
0.0
  0
LINE
  5
4E5
330
1F
100
AcDbEntity
  8
0
100
AcDbLine
 10
0.0476574668106738
 20
0.1987940242085738
 30
0.0
 11
0.1174023879736832
 21
0.2104407392804549
 31
0.0
  0
LINE
  5
4E6
330
1F
100
AcDbEntity
  8
0
100
AcDbLine
 10
0.1174023879736832
 20
0.2104407392804549
 30
0.0
 11
0.1290491030455642
 21
0.1406958181174453
 31
0.0
  0
LINE
  5
4E7
330
1F
100
AcDbEntity
  8
0
100
AcDbLine
 10
0.0186083637651095
 20
0.1580982060911285
 30
0.0
 11
0.1
 21
0.1
 31
0.0
  0
LINE
  5
4E8
330
1F
100
AcDbEntity
  8
0
100
AcDbLine
 10
0.1
 20
0.1
 30
0.0
 11
0.1290491030455642
 21
0.1406958181174453
 31
0.0
  0
LINE
  5
4E9
330
1F
100
AcDbEntity
  8
0
100
AcDbLine
 10
0.1290491030455642
 20
0.1406958181174453
 30
0.0
 11
0.0476574668106738
 21
0.1987940242085738
 31
0.0
  0
LINE
  5
4EA
330
1F
100
AcDbEntity
  8
0
100
AcDbLine
 10
0.0476574668106738
 20
0.1987940242085738
 30
0.0
 11
0.0186083637651095
 21
0.1580982060911285
 31
0.0
  0
ENDSEC
  0
SECTION
  2
OBJECTS
  0
DICTIONARY
  5
C
330
0
100
AcDbDictionary
281
     1
  3
ACAD_COLOR
350
16C
  3
ACAD_GROUP
350
D
  3
ACAD_LAYOUT
350
1A
  3
ACAD_MATERIAL
350
16B
  3
ACAD_MLINESTYLE
350
17
  3
ACAD_PLOTSETTINGS
350
19
  3
ACAD_PLOTSTYLENAME
350
E
  3
ACAD_TABLESTYLE
350
169
  3
ACAD_VISUALSTYLE
350
2A
  3
ACDBHEADERROUNDTRIPXREC
350
4EC
  3
AcDbVariableDictionary
350
21E
  0
DICTIONARY
  5
22D
330
2
100
AcDbDictionary
280
     1
281
     1
  3
ACAD_LAYERFILTERS
360
22F
  3
ACLYDICTIONARY
360
22E
  0
DICTIONARY
  5
176
330
1F
100
AcDbDictionary
280
     1
281
     1
  3
ACAD_SORTENTS
360
177
  0
DICTIONARY
  5
16C
102
{ACAD_REACTORS
330
C
102
}
330
C
100
AcDbDictionary
281
     1
  0
DICTIONARY
  5
D
102
{ACAD_REACTORS
330
C
102
}
330
C
100
AcDbDictionary
281
     1
  0
DICTIONARY
  5
1A
102
{ACAD_REACTORS
330
C
102
}
330
C
100
AcDbDictionary
281
     1
  3
Layout1
350
1E
  3
Layout2
350
26
  3
Model
350
22
  0
DICTIONARY
  5
16B
102
{ACAD_REACTORS
330
C
102
}
330
C
100
AcDbDictionary
281
     1
  0
DICTIONARY
  5
17
102
{ACAD_REACTORS
330
C
102
}
330
C
100
AcDbDictionary
281
     1
  3
Standard
350
18
  0
DICTIONARY
  5
19
102
{ACAD_REACTORS
330
C
102
}
330
C
100
AcDbDictionary
281
     1
  0
ACDBDICTIONARYWDFLT
  5
E
102
{ACAD_REACTORS
330
C
102
}
330
C
100
AcDbDictionary
281
     1
  3
Normal
350
F
100
AcDbDictionaryWithDefault
340
F
  0
DICTIONARY
  5
169
102
{ACAD_REACTORS
330
C
102
}
330
C
100
AcDbDictionary
281
     1
  3
Standard
350
16D
  0
DICTIONARY
  5
2A
102
{ACAD_REACTORS
330
C
102
}
330
C
100
AcDbDictionary
281
     1
  3
2dWireframe
350
2F
  3
3D Hidden
350
31
  3
3dWireframe
350
30
  3
Basic
350
32
  3
Brighten
350
36
  3
ColorChange
350
3A
  3
Conceptual
350
34
  3
Dim
350
35
  3
Facepattern
350
39
  3
Flat
350
2B
  3
FlatWithEdges
350
2C
  3
Gouraud
350
2D
  3
GouraudWithEdges
350
2E
  3
Linepattern
350
38
  3
Realistic
350
33
  3
Thicken
350
37
  0
DICTIONARY
  5
4EC
102
{ACAD_REACTORS
330
C
102
}
330
C
100
AcDbDictionary
281
     1
  0
DICTIONARY
  5
21E
102
{ACAD_REACTORS
330
C
102
}
330
C
100
AcDbDictionary
281
     1
  3
CTABLESTYLE
350
21F
  3
DIMASSOC
350
220
  3
PROJECTNAME
350
221
  0
DICTIONARY
  5
22F
102
{ACAD_REACTORS
330
22D
102
}
330
22D
100
AcDbDictionary
281
     1
  0
DICTIONARY
  5
22E
102
{ACAD_REACTORS
330
22D
102
}
330
22D
100
AcDbDictionary
281
     1
1001
ACAD
1000
<All
  0
SORTENTSTABLE
  5
177
102
{ACAD_REACTORS
330
176
102
}
330
176
100
AcDbSortentsTable
330
1F
331
4E3
  5
4EA
331
4D5
  5
4E9
331
4EA
  5
4E5
331
4E8
  5
4E3
331
4E6
  5
4E7
331
4E4
  5
4E8
331
4E9
  5
4E4
331
4E7
  5
4D5
331
4E5
  5
4E6
  0
LAYOUT
  5
1E
102
{ACAD_XDICTIONARY
360
4ED
102
}
102
{ACAD_REACTORS
330
1A
102
}
330
1A
100
AcDbPlotSettings
  1

  2
none_device
  4

  6

 40
0.0
 41
0.0
 42
0.0
 43
0.0
 44
0.0
 45
0.0
 46
0.0
 47
0.0
 48
0.0
 49
0.0
140
0.0
141
0.0
142
1.0
143
1.0
 70
   688
 72
     0
 73
     0
 74
     5
  7

 75
    16
147
1.0
148
0.0
149
0.0
100
AcDbLayout
  1
Layout1
 70
     1
 71
     1
 10
0.0
 20
0.0
 11
12.0
 21
9.0
 12
0.0
 22
0.0
 32
0.0
 14
1.000000000000000E+20
 24
1.000000000000000E+20
 34
1.000000000000000E+20
 15
-1.000000000000000E+20
 25
-1.000000000000000E+20
 35
-1.000000000000000E+20
146
0.0
 13
0.0
 23
0.0
 33
0.0
 16
1.0
 26
0.0
 36
0.0
 17
0.0
 27
1.0
 37
0.0
 76
     0
330
1B
  0
LAYOUT
  5
26
102
{ACAD_XDICTIONARY
360
4F1
102
}
102
{ACAD_REACTORS
330
1A
102
}
330
1A
100
AcDbPlotSettings
  1

  2
none_device
  4

  6

 40
0.0
 41
0.0
 42
0.0
 43
0.0
 44
0.0
 45
0.0
 46
0.0
 47
0.0
 48
0.0
 49
0.0
140
0.0
141
0.0
142
1.0
143
1.0
 70
   688
 72
     0
 73
     0
 74
     5
  7

 75
    16
147
1.0
148
0.0
149
0.0
100
AcDbLayout
  1
Layout2
 70
     1
 71
     2
 10
0.0
 20
0.0
 11
0.0
 21
0.0
 12
0.0
 22
0.0
 32
0.0
 14
0.0
 24
0.0
 34
0.0
 15
0.0
 25
0.0
 35
0.0
146
0.0
 13
0.0
 23
0.0
 33
0.0
 16
1.0
 26
0.0
 36
0.0
 17
0.0
 27
1.0
 37
0.0
 76
     0
330
23
  0
LAYOUT
  5
22
102
{ACAD_XDICTIONARY
360
4EF
102
}
102
{ACAD_REACTORS
330
1A
102
}
330
1A
100
AcDbPlotSettings
  1

  2
none_device
  4

  6

 40
0.0
 41
0.0
 42
0.0
 43
0.0
 44
0.0
 45
0.0
 46
0.0
 47
0.0
 48
0.0
 49
0.0
140
0.0
141
0.0
142
1.0
143
1.0
 70
  1712
 72
     0
 73
     0
 74
     0
  7

 75
     0
147
1.0
148
0.0
149
0.0
100
AcDbLayout
  1
Model
 70
     1
 71
     0
 10
0.0
 20
0.0
 11
12.0
 21
9.0
 12
0.0
 22
0.0
 32
0.0
 14
1.000000000000000E+20
 24
1.000000000000000E+20
 34
1.000000000000000E+20
 15
-1.000000000000000E+20
 25
-1.000000000000000E+20
 35
-1.000000000000000E+20
146
0.0
 13
0.0
 23
0.0
 33
0.0
 16
1.0
 26
0.0
 36
0.0
 17
0.0
 27
1.0
 37
0.0
 76
     0
330
1F
  0
MLINESTYLE
  5
18
102
{ACAD_REACTORS
330
17
102
}
330
17
100
AcDbMlineStyle
  2
STANDARD
 70
     0
  3

 62
   256
 51
90.0
 52
90.0
 71
     2
 49
0.5
 62
   256
  6
BYLAYER
 49
-0.5
 62
   256
  6
BYLAYER
  0
ACDBPLACEHOLDER
  5
F
102
{ACAD_REACTORS
330
E
102
}
330
E
  0
TABLESTYLE
  5
16D
102
{ACAD_REACTORS
330
169
102
}
330
169
100
AcDbTableStyle
  3
Standard
 70
     0
 71
     0
 40
0.06
 41
0.06
280
     0
281
     0
  7
Standard
140
0.18
170
     2
 62
     0
 63
     7
283
     0
274
    -2
284
     1
 64
     0
275
    -2
285
     1
 65
     0
276
    -2
286
     1
 66
     0
277
    -2
287
     1
 67
     0
278
    -2
288
     1
 68
     0
279
    -2
289
     1
 69
     0
  7
Standard
140
0.25
170
     5
 62
     0
 63
     7
283
     0
274
    -2
284
     1
 64
     0
275
    -2
285
     1
 65
     0
276
    -2
286
     1
 66
     0
277
    -2
287
     1
 67
     0
278
    -2
288
     1
 68
     0
279
    -2
289
     1
 69
     0
  7
Standard
140
0.18
170
     5
 62
     0
 63
     7
283
     0
274
    -2
284
     1
 64
     0
275
    -2
285
     1
 65
     0
276
    -2
286
     1
 66
     0
277
    -2
287
     1
 67
     0
278
    -2
288
     1
 68
     0
279
    -2
289
     1
 69
     0
  0
ACAD_PROXY_OBJECT
  5
2F
102
{ACAD_REACTORS
330
2A
102
}
330
2A
100
AcDbProxyObject
 90
      499
 91
      501
 95
   393239
 70
     0
 93
      436
310
42CC9915DA5C99599C985B595049028333333333333E3BF0000000000000FB0107901411070040501600405405064090741402480A0340
 94
        0
1001
ACAD
1000
AcDbSavedByObjectVersion
1070
     0
1000
AcRTDxfName
1000
VISUALSTYLE
1000
AcRTDxfName
1000
VISUALSTYLE
  0
ACAD_PROXY_OBJECT
  5
31
102
{ACAD_REACTORS
330
2A
102
}
330
2A
100
AcDbProxyObject
 90
      499
 91
      501
 95
   393239
 70
     0
 93
      500
310
424CD108121A5919195B90640502408333333333333E3BF0000000000000FB01079024090700405020000000000001110200405405064090740C02480A0340
 94
        0
1001
ACAD
1000
AcDbSavedByObjectVersion
1070
     0
1000
AcRTDxfName
1000
VISUALSTYLE
1000
AcRTDxfName
1000
VISUALSTYLE
  0
ACAD_PROXY_OBJECT
  5
30
102
{ACAD_REACTORS
330
2A
102
}
330
2A
100
AcDbProxyObject
 90
      499
 91
      501
 95
   393239
 70
     0
 93
      436
310
42CCD915DA5C99599C985B595059028333333333333E3BF0000000000000FB0107901411070040501600405405064090741402480A0340
 94
        0
1001
ACAD
1000
AcDbSavedByObjectVersion
1070
     0
1000
AcRTDxfName
1000
VISUALSTYLE
1000
AcRTDxfName
1000
VISUALSTYLE
  0
ACAD_PROXY_OBJECT
  5
32
102
{ACAD_REACTORS
330
2A
102
}
330
2A
100
AcDbProxyObject
 90
      499
 91
      501
 95
   393239
 70
     0
 93
      388
310
4150985CDA58D07406404333333333333E3BF0000000000000FB0107A41107004050150841D405064090741402480A0351
 94
        0
1001
ACAD
1000
AcDbSavedByObjectVersion
1070
     0
1000
AcRTDxfName
1000
VISUALSTYLE
1000
AcRTDxfName
1000
VISUALSTYLE
  0
ACAD_PROXY_OBJECT
  5
36
102
{ACAD_REACTORS
330
2A
102
}
330
2A
100
AcDbProxyObject
 90
      499
 91
      501
 95
   393239
 70
     0
 93
      428
310
42109C9A59DA1D195B90C409028333333333333E3BF0000000000000FB010790141107004050150841D405064090741402480A02995A
 94
        0
1001
ACAD
1000
AcDbSavedByObjectVersion
1070
     0
1000
AcRTDxfName
1000
VISUALSTYLE
1000
AcRTDxfName
1000
VISUALSTYLE
  0
ACAD_PROXY_OBJECT
  5
3A
102
{ACAD_REACTORS
330
2A
102
}
330
2A
100
AcDbProxyObject
 90
      499
 91
      501
 95
   393239
 70
     0
 93
      452
310
42D0DBDB1BDC90DA185B99D95104090240C333333333333E3BF0000000000000FB0108901411070040501508421405064090741402480A0350
 94
        0
1001
ACAD
1000
AcDbSavedByObjectVersion
1070
     0
1000
AcRTDxfName
1000
VISUALSTYLE
1000
AcRTDxfName
1000
VISUALSTYLE
  0
ACAD_PROXY_OBJECT
  5
34
102
{ACAD_REACTORS
330
2A
102
}
330
2A
100
AcDbProxyObject
 90
      499
 91
      501
 95
   393239
 70
     0
 93
      500
310
4290DBDB98D95C1D1D585B10940D028333333333333E3BF0000000000000FB0107902409070040501000000000000111010841D405064090740C02480A0340
 94
        0
1001
ACAD
1000
AcDbSavedByObjectVersion
1070
     0
1000
AcRTDxfName
1000
VISUALSTYLE
1000
AcRTDxfName
1000
VISUALSTYLE
  0
ACAD_PROXY_OBJECT
  5
35
102
{ACAD_REACTORS
330
2A
102
}
330
2A
100
AcDbProxyObject
 90
      499
 91
      501
 95
   393239
 70
     0
 93
      412
310
40D11A5B50B409028333333333333E3BF0000000000000FB010790141107004050150841D405064090741402480A02677FFFFFD2
 94
        0
1001
ACAD
1000
AcDbSavedByObjectVersion
1070
     0
1000
AcRTDxfName
1000
VISUALSTYLE
1000
AcRTDxfName
1000
VISUALSTYLE
  0
ACAD_PROXY_OBJECT
  5
39
102
{ACAD_REACTORS
330
2A
102
}
330
2A
100
AcDbProxyObject
 90
      499
 91
      501
 95
   393239
 70
     0
 93
      444
310
42D19858D95C185D1D195C9B90F409028333333333333E3BF0000000000000FB010790141107004050150841D405064090741402480A0350
 94
        0
1001
ACAD
1000
AcDbSavedByObjectVersion
1070
     0
1000
AcRTDxfName
1000
VISUALSTYLE
1000
AcRTDxfName
1000
VISUALSTYLE
  0
ACAD_PROXY_OBJECT
  5
2B
102
{ACAD_REACTORS
330
2A
102
}
330
2A
100
AcDbProxyObject
 90
      499
 91
      501
 95
   393239
 70
     0
 93
      388
310
41119B185D240901404333333333333E3BF0000000000000F9010740A41107004050150841D405064090741402480A1B58
 94
        0
1001
ACAD
1000
AcDbSavedByObjectVersion
1070
     0
1000
AcRTDxfName
1000
VISUALSTYLE
1000
AcRTDxfName
1000
VISUALSTYLE
  0
ACAD_PROXY_OBJECT
  5
2C
102
{ACAD_REACTORS
330
2A
102
}
330
2A
100
AcDbProxyObject
 90
      499
 91
      501
 95
   393239
 70
     0
 93
      476
310
43519B185D15DA5D1A115919D95CD0140901404333333333333E3BF0000000000000F9010740901411070040501600405405064090741402480A1B58
 94
        0
1001
ACAD
1000
AcDbSavedByObjectVersion
1070
     0
1000
AcRTDxfName
1000
VISUALSTYLE
1000
AcRTDxfName
1000
VISUALSTYLE
  0
ACAD_PROXY_OBJECT
  5
2D
102
{ACAD_REACTORS
330
2A
102
}
330
2A
100
AcDbProxyObject
 90
      499
 91
      501
 95
   393239
 70
     0
 93
      412
310
41D1DBDD5C985D5910240902404333333333333E3BF0000000000000F9010740A411070040501641D405064090741402480A1B58
 94
        0
1001
ACAD
1000
AcDbSavedByObjectVersion
1070
     0
1000
AcRTDxfName
1000
VISUALSTYLE
1000
AcRTDxfName
1000
VISUALSTYLE
  0
ACAD_PROXY_OBJECT
  5
2E
102
{ACAD_REACTORS
330
2A
102
}
330
2A
100
AcDbProxyObject
 90
      499
 91
      501
 95
   393239
 70
     0
 93
      500
310
4411DBDD5C985D5915DA5D1A115919D95CD0340902404333333333333E3BF0000000000000F9010740901411070040501600405405064090741402480A1B50
 94
        0
1001
ACAD
1000
AcDbSavedByObjectVersion
1070
     0
1000
AcRTDxfName
1000
VISUALSTYLE
1000
AcRTDxfName
1000
VISUALSTYLE
  0
ACAD_PROXY_OBJECT
  5
38
102
{ACAD_REACTORS
330
2A
102
}
330
2A
100
AcDbProxyObject
 90
      499
 91
      501
 95
   393239
 70
     0
 93
      444
310
42D31A5B995C185D1D195C9B90E409028333333333333E3BF0000000000000FB010790141107004050750841D405064090741402483A0353
 94
        0
1001
ACAD
1000
AcDbSavedByObjectVersion
1070
     0
1000
AcRTDxfName
1000
VISUALSTYLE
1000
AcRTDxfName
1000
VISUALSTYLE
  0
ACAD_PROXY_OBJECT
  5
33
102
{ACAD_REACTORS
330
2A
102
}
330
2A
100
AcDbProxyObject
 90
      499
 91
      501
 95
   393239
 70
     0
 93
      420
310
425499585B1A5CDD1A58D08409028333333333333E3BF0000000000000FB01079019070040501508421405064090741402480A1B48
 94
        0
1001
ACAD
1000
AcDbSavedByObjectVersion
1070
     0
1000
AcRTDxfName
1000
VISUALSTYLE
1000
AcRTDxfName
1000
VISUALSTYLE
  0
ACAD_PROXY_OBJECT
  5
37
102
{ACAD_REACTORS
330
2A
102
}
330
2A
100
AcDbProxyObject
 90
      499
 91
      501
 95
   393239
 70
     0
 93
      412
310
41D51A1A58DAD95B90D409028333333333333E3BF0000000000000FB010790141107004050150C41D405064090741402480A0352
 94
        0
1001
ACAD
1000
AcDbSavedByObjectVersion
1070
     0
1000
AcRTDxfName
1000
VISUALSTYLE
1000
AcRTDxfName
1000
VISUALSTYLE
  0
DICTIONARYVAR
  5
21F
102
{ACAD_REACTORS
330
21E
102
}
330
21E
100
DictionaryVariables
280
     0
  1
STANDARD
  0
DICTIONARYVAR
  5
220
102
{ACAD_REACTORS
330
21E
102
}
330
21E
100
DictionaryVariables
280
     0
  1
1
  0
DICTIONARYVAR
  5
221
102
{ACAD_REACTORS
330
21E
102
}
330
21E
100
DictionaryVariables
280
     0
  1

  0
DICTIONARY
  5
4ED
330
1E
100
AcDbDictionary
280
     1
281
     1
  3
ACAD_XREC_ROUNDTRIP
360
4EE
  0
DICTIONARY
  5
4F1
330
26
100
AcDbDictionary
280
     1
281
     1
  3
ACAD_XREC_ROUNDTRIP
360
4F2
  0
DICTIONARY
  5
4EF
330
22
100
AcDbDictionary
280
     1
281
     1
  3
ACAD_XREC_ROUNDTRIP
360
4F0
  0
XRECORD
  5
4EE
102
{ACAD_REACTORS
330
4ED
102
}
330
4ED
100
AcDbXrecord
280
     1
102
SHADEPLOT
 70
     0
102
SHADEPLOTRESLEVEL
 70
     2
102
SHADEPLOTCUSTOMDPI
 70
   300
  0
XRECORD
  5
4F2
102
{ACAD_REACTORS
330
4F1
102
}
330
4F1
100
AcDbXrecord
280
     1
102
SHADEPLOT
 70
     0
102
SHADEPLOTRESLEVEL
 70
     2
102
SHADEPLOTCUSTOMDPI
 70
   300
  0
XRECORD
  5
4F0
102
{ACAD_REACTORS
330
4EF
102
}
330
4EF
100
AcDbXrecord
280
     1
102
SHADEPLOT
 70
     0
102
SHADEPLOTRESLEVEL
 70
     2
102
SHADEPLOTCUSTOMDPI
 70
   300
  0
ENDSEC
  0
EOF
