G04 ================== begin FILE IDENTIFICATION RECORD ==================*
G04 Layout Name:  c:/src/bsm-2/schematics/bsm-radio.brd*
G04 Film Name:    AssemblyTOP*
G04 File Format:  Gerber RS274X*
G04 File Origin:  16.0-s004*
G04 Origin Date:  Mon Jan 30 17:24:18 2012*
G04 *
G04 Layer:  USER PART NUMBER/ASSEMBLY_TOP*
G04 Layer:  TOLERANCE/ASSEMBLY_TOP*
G04 Layer:  REF DES/ASSEMBLY_TOP*
G04 Layer:  PACKAGE GEOMETRY/ASSEMBLY_TOP*
G04 Layer:  MANUFACTURING/PHOTOPLOT_OUTLINE*
G04 Layer:  DEVICE TYPE/ASSEMBLY_TOP*
G04 Layer:  COMPONENT VALUE/ASSEMBLY_TOP*
G04 Layer:  BOARD GEOMETRY/SWITCH_AREA_TOP*
G04 *
G04 Offset:    (0.00 0.00)*
G04 Mirror:    No*
G04 Mode:      Positive*
G04 Rotation:  0*
G04 FullContactRelief:  No*
G04 UndefLineWidth:     8.00*
G04 ================== end FILE IDENTIFICATION RECORD ====================*
%FSLAX55Y55*MOIN*%
%IR0*IPPOS*OFA0.00000B0.00000*MIA0B0*SFA1.00000B1.00000*%
%ADD10C,.0001*%
%ADD11C,.008*%
%ADD12C,.006*%
%ADD13C,.0059*%
%ADD14C,.0079*%
G75*
%LPD*%
G75*
G54D10*
G01X98810Y118880D02*
Y78780D01*
X58120D01*
Y119280D01*
X98810D01*
Y118690D01*
G54D11*
G01X0Y0D02*
Y140550D01*
X250000D01*
Y0D01*
X0D01*
G01D02*
Y140550D01*
X250000D01*
Y0D01*
X0D01*
G54D12*
G01X47190Y23890D02*
Y34380D01*
G01X66990Y23890D02*
X47190D01*
G01Y34380D02*
X66990D01*
G01X41240Y60350D02*
Y71850D01*
G01X47690Y60350D02*
X41240D01*
G01X47690Y71850D02*
Y60350D01*
G01X41240Y71850D02*
X47690D01*
G01X44650Y77480D02*
Y83930D01*
G01X56150Y77480D02*
X44650D01*
G01Y83930D02*
X56150D01*
G01X44650Y91810D02*
X56150D01*
G01X44650Y85360D02*
Y91810D01*
G01X56150Y85360D02*
X44650D01*
G01X46170Y118600D02*
X57670D01*
G01X46170Y112150D02*
Y118600D01*
G01X57670Y112150D02*
X46170D01*
G01X66990Y34380D02*
Y23890D01*
G01X75490Y22940D02*
Y34440D01*
G01X81940Y22940D02*
X75490D01*
G01Y34440D02*
X81940D01*
G01X68010Y22940D02*
Y34440D01*
G01X74460Y22940D02*
X68010D01*
G01X74460Y34440D02*
Y22940D01*
G01X68010Y34440D02*
X74460D01*
G01X70760Y65260D02*
X59260D01*
G01X70760Y71700D02*
Y65260D01*
G01X59260Y71700D02*
X70760D01*
G01X59260Y65260D02*
Y71700D01*
G01X79630Y75480D02*
Y63980D01*
G01X73180Y75480D02*
X79630D01*
G01X73180Y63980D02*
Y75480D01*
G01X79630Y63980D02*
X73180D01*
G01X57667Y63012D02*
X69167D01*
G01X57667Y56562D02*
Y63012D01*
G01X69167Y56562D02*
X57667D01*
G01X69167Y63012D02*
Y56562D01*
G01X50300Y60350D02*
Y71850D01*
G01X56740Y60350D02*
X50300D01*
G01X56740Y71850D02*
Y60350D01*
G01X50300Y71850D02*
X56740D01*
G01X56150Y83930D02*
Y77480D01*
G01X81675Y56500D02*
X70175D01*
G01Y62950D02*
X81675D01*
G01X70175Y56500D02*
Y62950D01*
G01X56150Y91810D02*
Y85360D01*
G01X57670Y118600D02*
Y112150D01*
G01X96792Y45096D02*
X107292D01*
G01X96792Y25296D02*
Y45096D01*
G01X107292Y25296D02*
X96792D01*
G01X107292Y45096D02*
Y25296D01*
G01X81940Y34440D02*
Y22940D01*
G01X97139Y58470D02*
X113139D01*
G01X97139Y50980D02*
Y58470D01*
G01X113139Y50980D02*
X97139D01*
G01X109340Y60930D02*
X97840D01*
G01X109340Y67370D02*
Y60930D01*
G01X97840Y67370D02*
X109340D01*
G01X97840Y60930D02*
Y67370D01*
G01X109340Y69190D02*
X97840D01*
G01X109340Y75640D02*
Y69190D01*
G01X97840Y75640D02*
X109340D01*
G01X97840Y69190D02*
Y75640D01*
G01X114460Y77460D02*
X102960D01*
G01D02*
Y83910D01*
G01X81675Y62950D02*
Y56500D01*
G01X113819Y85730D02*
X102319D01*
G01Y92180D02*
X113819D01*
G01X102319Y85730D02*
Y92180D01*
G01X112490Y94780D02*
X100990D01*
G01Y101230D02*
X112490D01*
G01X100990Y94780D02*
Y101230D01*
G01X115640Y102260D02*
X104140D01*
G01Y108710D02*
X115640D01*
G01X104140Y102260D02*
Y108710D01*
G01X102960Y83910D02*
X114460D01*
G01X104440Y116801D02*
X115940D01*
G01X104440Y110351D02*
Y116801D01*
G01X115940Y110351D02*
X104440D01*
G01X110520Y117698D02*
X99020D01*
G01Y124148D02*
X110520D01*
G01X99020Y117698D02*
Y124148D01*
G01X113139Y58470D02*
Y50980D01*
G01X116070Y52520D02*
Y64020D01*
G01X122520Y52520D02*
X116070D01*
G01X122520Y64020D02*
Y52520D01*
G01X116070Y64020D02*
X122520D01*
G01X114460Y83910D02*
Y77460D01*
G01X122780Y80600D02*
Y69100D01*
G01X116330D02*
Y80600D01*
G01X122780Y69100D02*
X116330D01*
G01X135280Y52290D02*
X123780D01*
G01X135280Y58740D02*
Y52290D01*
G01X123780Y58740D02*
X135280D01*
G01X123780Y52290D02*
Y58740D01*
G01X138290Y71150D02*
Y59650D01*
G01X131840Y71150D02*
X138290D01*
G01X131840Y59650D02*
Y71150D01*
G01X138290Y59650D02*
X131840D01*
G01X113819Y92180D02*
Y85730D01*
G01X112490Y101230D02*
Y94780D01*
G01X115640Y108710D02*
Y102260D01*
G01X116330Y80600D02*
X122780D01*
G01X127480Y111960D02*
Y123460D01*
G01X133930Y111960D02*
X127480D01*
G01X133930Y123460D02*
Y111960D01*
G01X127480Y123460D02*
X133930D01*
G01X115940Y116801D02*
Y110351D01*
G01X126060Y123470D02*
Y111970D01*
G01X119610Y123470D02*
X126060D01*
G01X119610Y111970D02*
Y123470D01*
G01X126060Y111970D02*
X119610D01*
G01X135360Y123470D02*
X141810D01*
G01X135360Y111970D02*
Y123470D01*
G01X141810Y111970D02*
X135360D01*
G01X110520Y124148D02*
Y117698D01*
G01X153470Y52520D02*
Y64020D01*
G01X159920Y52520D02*
X153470D01*
G01X159920Y64020D02*
Y52520D01*
G01X153470Y64020D02*
X159920D01*
G01X180410Y74640D02*
X168910D01*
G01D02*
Y81090D01*
G01X158940Y79430D02*
X147440D01*
G01X158940Y85880D02*
Y79430D01*
G01X147440D02*
Y85880D01*
G01X152250Y52260D02*
X140750D01*
G01X152250Y58710D02*
Y52260D01*
G01X140750Y58710D02*
X152250D01*
G01X140750Y52260D02*
Y58710D01*
G01X158940Y95180D02*
X147440D01*
G01X158940Y101630D02*
Y95180D01*
G01X147440Y101630D02*
X158940D01*
G01X147440Y95180D02*
Y101630D01*
G01X158940Y87300D02*
X147440D01*
G01X158940Y93750D02*
Y87300D01*
G01X147440Y93750D02*
X158940D01*
G01X147440Y87300D02*
Y93750D01*
G01X168830Y82440D02*
Y93940D01*
G01X175280Y82440D02*
X168830D01*
G01Y93940D02*
X175280D01*
G01X160530Y88690D02*
Y100190D01*
G01X166980Y88690D02*
X160530D01*
G01X166980Y100190D02*
Y88690D01*
G01X160530Y100190D02*
X166980D01*
G01X168910Y81090D02*
X180410D01*
G01X168660Y106910D02*
X175110D01*
G01X168660Y95410D02*
Y106910D01*
G01X175110Y95410D02*
X168660D01*
G01X147440Y85880D02*
X158940D01*
G01Y103050D02*
X147440D01*
G01X158940Y109500D02*
Y103050D01*
G01X147440Y109500D02*
X158940D01*
G01X147440Y103050D02*
Y109500D01*
G01X141810Y123470D02*
Y111970D01*
G01X200280Y69590D02*
X188780D01*
G01X200280Y76040D02*
Y69590D01*
G01X188780Y76040D02*
X200280D01*
G01X188780Y69590D02*
Y76040D01*
G01X195370Y88870D02*
Y77370D01*
G01X188930D02*
Y88870D01*
G01X195370Y77370D02*
X188930D01*
G01X180410Y81090D02*
Y74640D01*
G01X187690Y100690D02*
X176190D01*
G01X187690Y107140D02*
Y100690D01*
G01X176190Y107140D02*
X187690D01*
G01X176190Y100690D02*
Y107140D01*
G01X196750Y86720D02*
Y98220D01*
G01X203200Y86720D02*
X196750D01*
G01Y98220D02*
X203200D01*
G01X195170Y91630D02*
X183670D01*
G01X195170Y98080D02*
Y91630D01*
G01X183670Y98080D02*
X195170D01*
G01X183670Y91630D02*
Y98080D01*
G01X175280Y93940D02*
Y82440D01*
G01X188930Y88870D02*
X195370D01*
G01X195190Y112030D02*
Y100530D01*
G01X188740D02*
Y112030D01*
G01X195190Y100530D02*
X188740D01*
G01X187890Y82520D02*
X176390D01*
G01X187890Y88960D02*
Y82520D01*
G01X176390Y88960D02*
X187890D01*
G01X176390Y82520D02*
Y88960D01*
G01X175110Y106910D02*
Y95410D01*
G01X188740Y112030D02*
X195190D01*
G01X204440Y79180D02*
Y90680D01*
G01X210890Y79180D02*
X204440D01*
G01X210890Y90680D02*
Y79180D01*
G01X203200Y98220D02*
Y86720D01*
G01X215990Y91660D02*
X204490D01*
G01X215990Y98110D02*
Y91660D01*
G01X204490Y98110D02*
X215990D01*
G01X204490Y91660D02*
Y98110D01*
G01X204440Y90680D02*
X210890D01*
G54D13*
G01X21352Y55120D02*
X81192D01*
Y35040D01*
X21352D01*
Y55120D01*
X24892D01*
G01X28484Y91964D02*
X40304D01*
Y56134D01*
X28484D01*
Y91964D01*
X32814D01*
G01X108090Y49270D02*
X167930D01*
Y29190D01*
X108090D01*
Y49270D01*
X111630D01*
G01X145590Y51180D02*
Y27560D01*
X129840D01*
Y51180D01*
X145590D01*
G01X145080Y110730D02*
Y81590D01*
X116340D01*
Y110730D01*
X145080D01*
G01X213430Y86650D02*
X246890D01*
Y53190D01*
X213430D01*
Y86650D01*
G54D14*
G01X18973Y102363D02*
X15823D01*
Y103307D01*
X15981Y103622D01*
X16348Y103858D01*
X16768Y103937D01*
X17188Y103858D01*
X17503Y103661D01*
X17661Y103307D01*
Y102363D01*
G01X18343Y105235D02*
X18711Y105471D01*
X18921Y105785D01*
X18973Y106139D01*
X18921Y106454D01*
X18658Y106769D01*
X18343Y106965D01*
X18028Y107005D01*
X17661Y106926D01*
X17398Y106651D01*
X17293Y106375D01*
Y106021D01*
G01Y106375D02*
X17136Y106611D01*
X16873Y106808D01*
X16558Y106887D01*
X16243Y106808D01*
X15981Y106611D01*
X15823Y106257D01*
X15875Y105903D01*
X16086Y105549D01*
G01X16348Y108303D02*
X16033Y108539D01*
X15875Y108814D01*
X15823Y109129D01*
X15928Y109522D01*
X16191Y109797D01*
X16505Y109876D01*
X16821Y109837D01*
X17083Y109679D01*
X17608Y108893D01*
X17976Y108539D01*
X18501Y108303D01*
X18973Y108224D01*
Y109876D01*
G01X48632Y43500D02*
Y44917D01*
X47845Y46650D01*
G01X49419D02*
X48632Y44917D01*
G01X50835Y46125D02*
X51071Y46440D01*
X51346Y46598D01*
X51661Y46650D01*
X52054Y46545D01*
X52329Y46282D01*
X52408Y45968D01*
X52369Y45652D01*
X52211Y45390D01*
X51425Y44865D01*
X51071Y44497D01*
X50835Y43972D01*
X50756Y43500D01*
X52408D01*
G01X46267Y68135D02*
X46425Y68371D01*
X46530Y68646D01*
Y68961D01*
X46372Y69315D01*
X46110Y69590D01*
X45795Y69787D01*
X45270Y69944D01*
X44797Y69983D01*
X44325Y69905D01*
X44010Y69787D01*
X43695Y69551D01*
X43485Y69275D01*
X43380Y69000D01*
Y68725D01*
X43485Y68449D01*
X43642Y68213D01*
X43852Y68017D01*
G01X46005Y66797D02*
X46320Y66561D01*
X46478Y66286D01*
X46530Y65971D01*
X46425Y65578D01*
X46162Y65303D01*
X45848Y65224D01*
X45532Y65263D01*
X45270Y65421D01*
X44745Y66207D01*
X44377Y66561D01*
X43852Y66797D01*
X43380Y66876D01*
Y65224D01*
G01X46530Y63100D02*
X46425Y63415D01*
X46162Y63651D01*
X45848Y63808D01*
X45427Y63926D01*
X44955Y63965D01*
X44482Y63926D01*
X44062Y63808D01*
X43747Y63651D01*
X43485Y63415D01*
X43380Y63100D01*
X43485Y62785D01*
X43747Y62549D01*
X44062Y62392D01*
X44482Y62274D01*
X44955Y62235D01*
X45427Y62274D01*
X45848Y62392D01*
X46162Y62549D01*
X46425Y62785D01*
X46530Y63100D01*
G01X48645Y82177D02*
X48409Y82335D01*
X48134Y82440D01*
X47819D01*
X47465Y82282D01*
X47190Y82020D01*
X46993Y81705D01*
X46836Y81180D01*
X46797Y80707D01*
X46875Y80235D01*
X46993Y79920D01*
X47229Y79605D01*
X47505Y79395D01*
X47780Y79290D01*
X48055D01*
X48331Y79395D01*
X48567Y79552D01*
X48763Y79762D01*
G01X50730Y79290D02*
Y82440D01*
X50258Y81810D01*
G01Y79290D02*
X51202D01*
G01X53680D02*
Y82440D01*
X53208Y81810D01*
G01Y79290D02*
X54152D01*
G01X33604Y66764D02*
Y68181D01*
X32817Y69914D01*
G01X34391D02*
X33604Y68181D01*
G01X36554Y66764D02*
Y69914D01*
X36082Y69284D01*
G01Y66764D02*
X37026D01*
G01X49235Y89667D02*
X48999Y89825D01*
X48724Y89930D01*
X48409D01*
X48055Y89772D01*
X47780Y89510D01*
X47583Y89195D01*
X47426Y88670D01*
X47387Y88197D01*
X47465Y87725D01*
X47583Y87410D01*
X47819Y87095D01*
X48095Y86885D01*
X48370Y86780D01*
X48645D01*
X48921Y86885D01*
X49157Y87042D01*
X49353Y87252D01*
G01X50573Y88092D02*
X50848Y88460D01*
X51084Y88670D01*
X51399Y88775D01*
X51674Y88670D01*
X51871Y88460D01*
X52028Y88145D01*
X52067Y87777D01*
X52028Y87462D01*
X51871Y87147D01*
X51635Y86885D01*
X51359Y86780D01*
X51045Y86885D01*
X50769Y87200D01*
X50612Y87673D01*
X50573Y88197D01*
X50651Y88880D01*
X50769Y89248D01*
X50966Y89615D01*
X51241Y89878D01*
X51517Y89930D01*
X51792Y89825D01*
X51989Y89562D01*
G01X51155Y116847D02*
X50919Y117005D01*
X50644Y117110D01*
X50329D01*
X49975Y116952D01*
X49700Y116690D01*
X49503Y116375D01*
X49346Y115850D01*
X49307Y115377D01*
X49385Y114905D01*
X49503Y114590D01*
X49739Y114275D01*
X50015Y114065D01*
X50290Y113960D01*
X50565D01*
X50841Y114065D01*
X51077Y114222D01*
X51273Y114432D01*
G01X52571Y114327D02*
X52847Y114065D01*
X53161Y113960D01*
X53476Y114065D01*
X53751Y114380D01*
X53948Y114853D01*
X54027Y115325D01*
Y115902D01*
X53948Y116375D01*
X53751Y116795D01*
X53515Y117005D01*
X53240Y117110D01*
X52925Y117005D01*
X52689Y116795D01*
X52532Y116480D01*
X52453Y116060D01*
X52532Y115693D01*
X52729Y115325D01*
X52965Y115115D01*
X53240Y115062D01*
X53555Y115167D01*
X53791Y115430D01*
X54027Y115902D01*
G01X60597Y26730D02*
Y29880D01*
X59023D01*
G01X56860D02*
Y26730D01*
X57332Y27360D01*
G01Y29880D02*
X56388D01*
G01X80127Y29155D02*
X80285Y29391D01*
X80390Y29666D01*
Y29981D01*
X80232Y30335D01*
X79970Y30610D01*
X79655Y30807D01*
X79130Y30964D01*
X78657Y31003D01*
X78185Y30925D01*
X77870Y30807D01*
X77555Y30571D01*
X77345Y30295D01*
X77240Y30020D01*
Y29745D01*
X77345Y29469D01*
X77502Y29233D01*
X77712Y29037D01*
G01X77870Y27935D02*
X77502Y27699D01*
X77292Y27385D01*
X77240Y27031D01*
X77292Y26716D01*
X77555Y26401D01*
X77870Y26205D01*
X78185Y26165D01*
X78552Y26244D01*
X78815Y26519D01*
X78920Y26795D01*
Y27149D01*
G01Y26795D02*
X79077Y26559D01*
X79340Y26362D01*
X79655Y26283D01*
X79970Y26362D01*
X80232Y26559D01*
X80390Y26913D01*
X80338Y27267D01*
X80127Y27621D01*
G01X72257Y29155D02*
X72415Y29391D01*
X72520Y29666D01*
Y29981D01*
X72362Y30335D01*
X72100Y30610D01*
X71785Y30807D01*
X71260Y30964D01*
X70787Y31003D01*
X70315Y30925D01*
X70000Y30807D01*
X69685Y30571D01*
X69475Y30295D01*
X69370Y30020D01*
Y29745D01*
X69475Y29469D01*
X69632Y29233D01*
X69842Y29037D01*
G01X71995Y27817D02*
X72310Y27581D01*
X72468Y27306D01*
X72520Y26991D01*
X72415Y26598D01*
X72152Y26323D01*
X71838Y26244D01*
X71522Y26283D01*
X71260Y26441D01*
X70735Y27227D01*
X70367Y27581D01*
X69842Y27817D01*
X69370Y27896D01*
Y26244D01*
G01X63683Y67000D02*
Y70150D01*
X64667D01*
X64981Y69992D01*
X65178Y69782D01*
X65257Y69362D01*
X65178Y68942D01*
X64942Y68680D01*
X64667Y68522D01*
X63683D01*
G01X64667D02*
X65257Y67000D01*
G01X67420D02*
X67695Y67052D01*
X68010Y67210D01*
X68207Y67472D01*
X68285Y67840D01*
X68207Y68207D01*
X67971Y68522D01*
X67617Y68680D01*
X67223D01*
X66987Y68785D01*
X66791Y69047D01*
X66712Y69415D01*
X66830Y69782D01*
X67105Y70045D01*
X67420Y70150D01*
X67735Y70045D01*
X68010Y69782D01*
X68128Y69415D01*
X68049Y69047D01*
X67853Y68785D01*
X67617Y68680D01*
X67223D01*
X66869Y68522D01*
X66633Y68207D01*
X66555Y67840D01*
X66633Y67472D01*
X66830Y67210D01*
X67145Y67052D01*
X67420Y67000D01*
G01X78270Y66433D02*
X75120D01*
Y67417D01*
X75278Y67731D01*
X75488Y67928D01*
X75908Y68007D01*
X76328Y67928D01*
X76590Y67692D01*
X76748Y67417D01*
Y66433D01*
G01Y67417D02*
X78270Y68007D01*
G01Y70170D02*
X75120D01*
X75750Y69698D01*
G01X78270D02*
Y70642D01*
G01X75645Y72373D02*
X75330Y72609D01*
X75172Y72884D01*
X75120Y73199D01*
X75225Y73592D01*
X75488Y73867D01*
X75802Y73946D01*
X76118Y73907D01*
X76380Y73749D01*
X76905Y72963D01*
X77273Y72609D01*
X77798Y72373D01*
X78270Y72294D01*
Y73946D01*
G01X65852Y57985D02*
X66088Y57827D01*
X66363Y57722D01*
X66678D01*
X67032Y57880D01*
X67307Y58142D01*
X67504Y58457D01*
X67661Y58982D01*
X67700Y59455D01*
X67622Y59927D01*
X67504Y60242D01*
X67268Y60557D01*
X66992Y60767D01*
X66717Y60872D01*
X66442D01*
X66166Y60767D01*
X65930Y60610D01*
X65734Y60400D01*
G01X64514Y58247D02*
X64278Y57932D01*
X64003Y57774D01*
X63688Y57722D01*
X63295Y57827D01*
X63020Y58090D01*
X62941Y58404D01*
X62980Y58720D01*
X63138Y58982D01*
X63924Y59507D01*
X64278Y59875D01*
X64514Y60400D01*
X64593Y60872D01*
X62941D01*
G01X61564Y58247D02*
X61328Y57932D01*
X61053Y57774D01*
X60738Y57722D01*
X60345Y57827D01*
X60070Y58090D01*
X59991Y58404D01*
X60030Y58720D01*
X60188Y58982D01*
X60974Y59507D01*
X61328Y59875D01*
X61564Y60400D01*
X61643Y60872D01*
X59991D01*
G01X54927Y68135D02*
X55085Y68371D01*
X55190Y68646D01*
Y68961D01*
X55032Y69315D01*
X54770Y69590D01*
X54455Y69787D01*
X53930Y69944D01*
X53457Y69983D01*
X52985Y69905D01*
X52670Y69787D01*
X52355Y69551D01*
X52145Y69275D01*
X52040Y69000D01*
Y68725D01*
X52145Y68449D01*
X52302Y68213D01*
X52512Y68017D01*
G01X54665Y66797D02*
X54980Y66561D01*
X55138Y66286D01*
X55190Y65971D01*
X55085Y65578D01*
X54822Y65303D01*
X54508Y65224D01*
X54192Y65263D01*
X53930Y65421D01*
X53405Y66207D01*
X53037Y66561D01*
X52512Y66797D01*
X52040Y66876D01*
Y65224D01*
G01Y63100D02*
X55190D01*
X54560Y63572D01*
G01X52040D02*
Y62628D01*
G01X71920Y54837D02*
X71684Y54995D01*
X71409Y55100D01*
X71094D01*
X70740Y54942D01*
X70465Y54680D01*
X70268Y54365D01*
X70111Y53840D01*
X70072Y53367D01*
X70150Y52895D01*
X70268Y52580D01*
X70504Y52265D01*
X70780Y52055D01*
X71055Y51950D01*
X71330D01*
X71606Y52055D01*
X71842Y52212D01*
X72038Y52422D01*
G01X73258Y54575D02*
X73494Y54890D01*
X73769Y55048D01*
X74084Y55100D01*
X74477Y54995D01*
X74752Y54732D01*
X74831Y54418D01*
X74792Y54102D01*
X74634Y53840D01*
X73848Y53315D01*
X73494Y52947D01*
X73258Y52422D01*
X73179Y51950D01*
X74831D01*
G01X76090Y52580D02*
X76326Y52212D01*
X76640Y52002D01*
X76994Y51950D01*
X77309Y52002D01*
X77624Y52265D01*
X77820Y52580D01*
X77860Y52895D01*
X77781Y53262D01*
X77506Y53525D01*
X77230Y53630D01*
X76876D01*
G01X77230D02*
X77466Y53787D01*
X77663Y54050D01*
X77742Y54365D01*
X77663Y54680D01*
X77466Y54942D01*
X77112Y55100D01*
X76758Y55048D01*
X76404Y54837D01*
G01X77435Y102530D02*
Y100273D01*
X77592Y99800D01*
X77907Y99485D01*
X78300Y99380D01*
X78693Y99485D01*
X79008Y99800D01*
X79165Y100273D01*
Y102530D01*
G01X81250Y99380D02*
Y102530D01*
X80778Y101900D01*
G01Y99380D02*
X81722D01*
G01X101602Y30509D02*
X104752D01*
Y32083D01*
G01X103440Y33499D02*
X103072Y33774D01*
X102862Y34010D01*
X102757Y34325D01*
X102862Y34600D01*
X103072Y34797D01*
X103387Y34954D01*
X103755Y34993D01*
X104070Y34954D01*
X104385Y34797D01*
X104647Y34561D01*
X104752Y34285D01*
X104647Y33971D01*
X104332Y33695D01*
X103859Y33538D01*
X103335Y33499D01*
X102652Y33577D01*
X102284Y33695D01*
X101917Y33892D01*
X101654Y34167D01*
X101602Y34443D01*
X101707Y34718D01*
X101970Y34915D01*
G01X103214Y56007D02*
X102978Y56165D01*
X102703Y56270D01*
X102388D01*
X102034Y56112D01*
X101759Y55850D01*
X101562Y55535D01*
X101405Y55010D01*
X101366Y54537D01*
X101444Y54065D01*
X101562Y53750D01*
X101798Y53435D01*
X102074Y53225D01*
X102349Y53120D01*
X102624D01*
X102900Y53225D01*
X103136Y53382D01*
X103332Y53592D01*
G01X104552Y55745D02*
X104788Y56060D01*
X105063Y56218D01*
X105378Y56270D01*
X105771Y56165D01*
X106046Y55902D01*
X106125Y55588D01*
X106086Y55272D01*
X105928Y55010D01*
X105142Y54485D01*
X104788Y54117D01*
X104552Y53592D01*
X104473Y53120D01*
X106125D01*
G01X107502Y54432D02*
X107777Y54800D01*
X108013Y55010D01*
X108328Y55115D01*
X108603Y55010D01*
X108800Y54800D01*
X108957Y54485D01*
X108996Y54117D01*
X108957Y53802D01*
X108800Y53487D01*
X108564Y53225D01*
X108288Y53120D01*
X107974Y53225D01*
X107698Y53540D01*
X107541Y54013D01*
X107502Y54537D01*
X107580Y55220D01*
X107698Y55588D01*
X107895Y55955D01*
X108170Y56218D01*
X108446Y56270D01*
X108721Y56165D01*
X108918Y55902D01*
G01X102653Y61890D02*
Y65040D01*
X103637D01*
X103951Y64882D01*
X104148Y64672D01*
X104227Y64252D01*
X104148Y63832D01*
X103912Y63570D01*
X103637Y63412D01*
X102653D01*
G01X103637D02*
X104227Y61890D01*
G01X105643Y64515D02*
X105879Y64830D01*
X106154Y64988D01*
X106469Y65040D01*
X106862Y64935D01*
X107137Y64672D01*
X107216Y64358D01*
X107177Y64042D01*
X107019Y63780D01*
X106233Y63255D01*
X105879Y62887D01*
X105643Y62362D01*
X105564Y61890D01*
X107216D01*
G01X101473Y70550D02*
Y73700D01*
X102457D01*
X102771Y73542D01*
X102968Y73332D01*
X103047Y72912D01*
X102968Y72492D01*
X102732Y72230D01*
X102457Y72072D01*
X101473D01*
G01X102457D02*
X103047Y70550D01*
G01X104345Y71180D02*
X104581Y70812D01*
X104895Y70602D01*
X105249Y70550D01*
X105564Y70602D01*
X105879Y70865D01*
X106075Y71180D01*
X106115Y71495D01*
X106036Y71862D01*
X105761Y72125D01*
X105485Y72230D01*
X105131D01*
G01X105485D02*
X105721Y72387D01*
X105918Y72650D01*
X105997Y72965D01*
X105918Y73280D01*
X105721Y73542D01*
X105367Y73700D01*
X105013Y73648D01*
X104659Y73437D01*
G01X107855Y81697D02*
X107619Y81855D01*
X107344Y81960D01*
X107029D01*
X106675Y81802D01*
X106400Y81540D01*
X106203Y81225D01*
X106046Y80700D01*
X106007Y80227D01*
X106085Y79755D01*
X106203Y79440D01*
X106439Y79125D01*
X106715Y78915D01*
X106990Y78810D01*
X107265D01*
X107541Y78915D01*
X107777Y79072D01*
X107973Y79282D01*
G01X109940Y78810D02*
Y81960D01*
X109468Y81330D01*
G01Y78810D02*
X110412D01*
G01X105562Y87080D02*
Y90230D01*
X106546D01*
X106860Y90072D01*
X107057Y89862D01*
X107136Y89442D01*
X107057Y89022D01*
X106821Y88760D01*
X106546Y88602D01*
X105562D01*
G01X106546D02*
X107136Y87080D01*
G01X108434Y87552D02*
X108670Y87290D01*
X108945Y87132D01*
X109299Y87080D01*
X109653Y87185D01*
X109928Y87395D01*
X110125Y87762D01*
X110164Y88182D01*
X110086Y88602D01*
X109889Y88865D01*
X109614Y89075D01*
X109338Y89127D01*
X109063Y89075D01*
X108709Y88865D01*
X108827Y90230D01*
X109889D01*
G01X104623Y95740D02*
Y98890D01*
X105607D01*
X105921Y98732D01*
X106118Y98522D01*
X106197Y98102D01*
X106118Y97682D01*
X105882Y97420D01*
X105607Y97262D01*
X104623D01*
G01X105607D02*
X106197Y95740D01*
G01X108832D02*
Y98890D01*
X107377Y96633D01*
X109343D01*
G01X108173Y104010D02*
Y107160D01*
X109157D01*
X109471Y107002D01*
X109668Y106792D01*
X109747Y106372D01*
X109668Y105952D01*
X109432Y105690D01*
X109157Y105532D01*
X108173D01*
G01X109157D02*
X109747Y104010D01*
G01X111163Y105322D02*
X111438Y105690D01*
X111674Y105900D01*
X111989Y106005D01*
X112264Y105900D01*
X112461Y105690D01*
X112618Y105375D01*
X112657Y105007D01*
X112618Y104692D01*
X112461Y104377D01*
X112225Y104115D01*
X111949Y104010D01*
X111635Y104115D01*
X111359Y104430D01*
X111202Y104903D01*
X111163Y105427D01*
X111241Y106110D01*
X111359Y106478D01*
X111556Y106845D01*
X111831Y107108D01*
X112107Y107160D01*
X112382Y107055D01*
X112579Y106792D01*
G01X112697Y115451D02*
Y112301D01*
X111713D01*
X111399Y112459D01*
X111202Y112669D01*
X111123Y113089D01*
X111202Y113509D01*
X111438Y113771D01*
X111713Y113929D01*
X112697D01*
G01X111713D02*
X111123Y115451D01*
G01X108960D02*
Y112301D01*
X109432Y112931D01*
G01Y115451D02*
X108488D01*
G01X106010Y112301D02*
X106325Y112406D01*
X106561Y112669D01*
X106718Y112983D01*
X106836Y113404D01*
X106875Y113876D01*
X106836Y114349D01*
X106718Y114769D01*
X106561Y115084D01*
X106325Y115346D01*
X106010Y115451D01*
X105695Y115346D01*
X105459Y115084D01*
X105302Y114769D01*
X105184Y114349D01*
X105145Y113876D01*
X105184Y113404D01*
X105302Y112983D01*
X105459Y112669D01*
X105695Y112406D01*
X106010Y112301D01*
G01X105885Y122335D02*
X105649Y122493D01*
X105374Y122598D01*
X105059D01*
X104705Y122440D01*
X104430Y122178D01*
X104233Y121863D01*
X104076Y121338D01*
X104037Y120865D01*
X104115Y120393D01*
X104233Y120078D01*
X104469Y119763D01*
X104745Y119553D01*
X105020Y119448D01*
X105295D01*
X105571Y119553D01*
X105807Y119710D01*
X106003Y119920D01*
G01X107891Y119448D02*
X107970Y120130D01*
X108088Y120708D01*
X108245Y121233D01*
X108442Y121810D01*
X108757Y122598D01*
X107183D01*
G01X120410Y38050D02*
Y39467D01*
X119623Y41200D01*
G01X121197D02*
X120410Y39467D01*
G01X123832Y38050D02*
Y41200D01*
X122377Y38943D01*
X124343D01*
G01X136180Y40750D02*
X137597D01*
X139330Y41537D01*
G01Y39963D02*
X137597Y40750D01*
G01X136810Y38665D02*
X136442Y38429D01*
X136232Y38115D01*
X136180Y37761D01*
X136232Y37446D01*
X136495Y37131D01*
X136810Y36935D01*
X137125Y36895D01*
X137492Y36974D01*
X137755Y37249D01*
X137860Y37525D01*
Y37879D01*
G01Y37525D02*
X138017Y37289D01*
X138280Y37092D01*
X138595Y37013D01*
X138910Y37092D01*
X139172Y37289D01*
X139330Y37643D01*
X139278Y37997D01*
X139067Y38351D01*
G01X118210Y61557D02*
X121360D01*
Y60573D01*
X121202Y60259D01*
X120992Y60062D01*
X120572Y59983D01*
X120152Y60062D01*
X119890Y60298D01*
X119732Y60573D01*
Y61557D01*
G01Y60573D02*
X118210Y59983D01*
G01Y57820D02*
X121360D01*
X120730Y58292D01*
G01X118210D02*
Y57348D01*
G01Y54870D02*
X121360D01*
X120730Y55342D01*
G01X118210D02*
Y54398D01*
G01X118533Y73995D02*
X118375Y73759D01*
X118270Y73484D01*
Y73169D01*
X118428Y72815D01*
X118690Y72540D01*
X119005Y72343D01*
X119530Y72186D01*
X120003Y72147D01*
X120475Y72225D01*
X120790Y72343D01*
X121105Y72579D01*
X121315Y72855D01*
X121420Y73130D01*
Y73405D01*
X121315Y73681D01*
X121158Y73917D01*
X120948Y74113D01*
G01Y75215D02*
X121210Y75451D01*
X121368Y75726D01*
X121420Y76080D01*
X121315Y76434D01*
X121105Y76709D01*
X120738Y76906D01*
X120318Y76945D01*
X119898Y76867D01*
X119635Y76670D01*
X119425Y76395D01*
X119373Y76119D01*
X119425Y75844D01*
X119635Y75490D01*
X118270Y75608D01*
Y76670D01*
G01X127885Y56927D02*
X127649Y57085D01*
X127374Y57190D01*
X127059D01*
X126705Y57032D01*
X126430Y56770D01*
X126233Y56455D01*
X126076Y55930D01*
X126037Y55457D01*
X126115Y54985D01*
X126233Y54670D01*
X126469Y54355D01*
X126745Y54145D01*
X127020Y54040D01*
X127295D01*
X127571Y54145D01*
X127807Y54302D01*
X128003Y54512D01*
G01X129223Y56665D02*
X129459Y56980D01*
X129734Y57138D01*
X130049Y57190D01*
X130442Y57085D01*
X130717Y56822D01*
X130796Y56508D01*
X130757Y56192D01*
X130599Y55930D01*
X129813Y55405D01*
X129459Y55037D01*
X129223Y54512D01*
X129144Y54040D01*
X130796D01*
G01X133392D02*
Y57190D01*
X131937Y54933D01*
X133903D01*
G01X133653Y63365D02*
X133495Y63129D01*
X133390Y62854D01*
Y62539D01*
X133548Y62185D01*
X133810Y61910D01*
X134125Y61713D01*
X134650Y61556D01*
X135123Y61517D01*
X135595Y61595D01*
X135910Y61713D01*
X136225Y61949D01*
X136435Y62225D01*
X136540Y62500D01*
Y62775D01*
X136435Y63051D01*
X136278Y63287D01*
X136068Y63483D01*
G01X136540Y65450D02*
X133390D01*
X134020Y64978D01*
G01X136540D02*
Y65922D01*
G01X135910Y67535D02*
X136278Y67771D01*
X136488Y68085D01*
X136540Y68439D01*
X136488Y68754D01*
X136225Y69069D01*
X135910Y69265D01*
X135595Y69305D01*
X135228Y69226D01*
X134965Y68951D01*
X134860Y68675D01*
Y68321D01*
G01Y68675D02*
X134703Y68911D01*
X134440Y69108D01*
X134125Y69187D01*
X133810Y69108D01*
X133548Y68911D01*
X133390Y68557D01*
X133442Y68203D01*
X133653Y67849D01*
G01X130910Y99385D02*
X128653D01*
X128180Y99228D01*
X127865Y98913D01*
X127760Y98520D01*
X127865Y98127D01*
X128180Y97812D01*
X128653Y97655D01*
X130910D01*
G01X130385Y96317D02*
X130700Y96081D01*
X130858Y95806D01*
X130910Y95491D01*
X130805Y95098D01*
X130542Y94823D01*
X130228Y94744D01*
X129912Y94783D01*
X129650Y94941D01*
X129125Y95727D01*
X128757Y96081D01*
X128232Y96317D01*
X127760Y96396D01*
Y94744D01*
G01X128840Y119437D02*
X131990D01*
Y118453D01*
X131832Y118139D01*
X131622Y117942D01*
X131202Y117863D01*
X130782Y117942D01*
X130520Y118178D01*
X130362Y118453D01*
Y119437D01*
G01Y118453D02*
X128840Y117863D01*
G01Y115700D02*
X131990D01*
X131360Y116172D01*
G01X128840D02*
Y115228D01*
G01X121813Y115685D02*
X121655Y115449D01*
X121550Y115174D01*
Y114859D01*
X121708Y114505D01*
X121970Y114230D01*
X122285Y114033D01*
X122810Y113876D01*
X123283Y113837D01*
X123755Y113915D01*
X124070Y114033D01*
X124385Y114269D01*
X124595Y114545D01*
X124700Y114820D01*
Y115095D01*
X124595Y115371D01*
X124438Y115607D01*
X124228Y115803D01*
G01X124700Y117770D02*
X121550D01*
X122180Y117298D01*
G01X124700D02*
Y118242D01*
G01X122075Y119973D02*
X121760Y120209D01*
X121602Y120484D01*
X121550Y120799D01*
X121655Y121192D01*
X121918Y121467D01*
X122232Y121546D01*
X122548Y121507D01*
X122810Y121349D01*
X123335Y120563D01*
X123703Y120209D01*
X124228Y119973D01*
X124700Y119894D01*
Y121546D01*
G01X137563Y117255D02*
X137405Y117019D01*
X137300Y116744D01*
Y116429D01*
X137458Y116075D01*
X137720Y115800D01*
X138035Y115603D01*
X138560Y115446D01*
X139033Y115407D01*
X139505Y115485D01*
X139820Y115603D01*
X140135Y115839D01*
X140345Y116115D01*
X140450Y116390D01*
Y116665D01*
X140345Y116941D01*
X140188Y117177D01*
X139978Y117373D01*
G01X140450Y119812D02*
X137300D01*
X139557Y118357D01*
Y120323D01*
G01X154830Y59587D02*
X157980D01*
Y58603D01*
X157822Y58289D01*
X157612Y58092D01*
X157192Y58013D01*
X156772Y58092D01*
X156510Y58328D01*
X156352Y58603D01*
Y59587D01*
G01Y58603D02*
X154830Y58013D01*
G01X155197Y56519D02*
X154935Y56243D01*
X154830Y55929D01*
X154935Y55614D01*
X155250Y55339D01*
X155723Y55142D01*
X156195Y55063D01*
X156772D01*
X157245Y55142D01*
X157665Y55339D01*
X157875Y55575D01*
X157980Y55850D01*
X157875Y56165D01*
X157665Y56401D01*
X157350Y56558D01*
X156930Y56637D01*
X156563Y56558D01*
X156195Y56361D01*
X155985Y56125D01*
X155932Y55850D01*
X156037Y55535D01*
X156300Y55299D01*
X156772Y55063D01*
G01X152345Y83667D02*
X152109Y83825D01*
X151834Y83930D01*
X151519D01*
X151165Y83772D01*
X150890Y83510D01*
X150693Y83195D01*
X150536Y82670D01*
X150497Y82197D01*
X150575Y81725D01*
X150693Y81410D01*
X150929Y81095D01*
X151205Y80885D01*
X151480Y80780D01*
X151755D01*
X152031Y80885D01*
X152267Y81042D01*
X152463Y81252D01*
G01X154430Y80780D02*
Y83930D01*
X153958Y83300D01*
G01Y80780D02*
X154902D01*
G01X157380Y83930D02*
X157065Y83825D01*
X156829Y83562D01*
X156672Y83248D01*
X156554Y82827D01*
X156515Y82355D01*
X156554Y81882D01*
X156672Y81462D01*
X156829Y81147D01*
X157065Y80885D01*
X157380Y80780D01*
X157695Y80885D01*
X157931Y81147D01*
X158088Y81462D01*
X158206Y81882D01*
X158245Y82355D01*
X158206Y82827D01*
X158088Y83248D01*
X157931Y83562D01*
X157695Y83825D01*
X157380Y83930D01*
G01X145255Y56107D02*
X145019Y56265D01*
X144744Y56370D01*
X144429D01*
X144075Y56212D01*
X143800Y55950D01*
X143603Y55635D01*
X143446Y55110D01*
X143407Y54637D01*
X143485Y54165D01*
X143603Y53850D01*
X143839Y53535D01*
X144115Y53325D01*
X144390Y53220D01*
X144665D01*
X144941Y53325D01*
X145177Y53482D01*
X145373Y53692D01*
G01X146593Y55845D02*
X146829Y56160D01*
X147104Y56318D01*
X147419Y56370D01*
X147812Y56265D01*
X148087Y56002D01*
X148166Y55688D01*
X148127Y55372D01*
X147969Y55110D01*
X147183Y54585D01*
X146829Y54217D01*
X146593Y53692D01*
X146514Y53220D01*
X148166D01*
G01X149425Y53692D02*
X149661Y53430D01*
X149936Y53272D01*
X150290Y53220D01*
X150644Y53325D01*
X150919Y53535D01*
X151116Y53902D01*
X151155Y54322D01*
X151077Y54742D01*
X150880Y55005D01*
X150605Y55215D01*
X150329Y55267D01*
X150054Y55215D01*
X149700Y55005D01*
X149818Y56370D01*
X150880D01*
G01X150693Y100080D02*
Y96930D01*
X152267D01*
G01X154430D02*
X154705Y96982D01*
X155020Y97140D01*
X155217Y97402D01*
X155295Y97770D01*
X155217Y98137D01*
X154981Y98452D01*
X154627Y98610D01*
X154233D01*
X153997Y98715D01*
X153801Y98977D01*
X153722Y99345D01*
X153840Y99712D01*
X154115Y99975D01*
X154430Y100080D01*
X154745Y99975D01*
X155020Y99712D01*
X155138Y99345D01*
X155059Y98977D01*
X154863Y98715D01*
X154627Y98610D01*
X154233D01*
X153879Y98452D01*
X153643Y98137D01*
X153565Y97770D01*
X153643Y97402D01*
X153840Y97140D01*
X154155Y96982D01*
X154430Y96930D01*
G01X151473Y92590D02*
Y89440D01*
X153047D01*
G01X155131D02*
X155210Y90122D01*
X155328Y90700D01*
X155485Y91225D01*
X155682Y91802D01*
X155997Y92590D01*
X154423D01*
G01X174510Y89517D02*
X171360D01*
Y87943D01*
G01X173985Y86527D02*
X174300Y86291D01*
X174458Y86016D01*
X174510Y85701D01*
X174405Y85308D01*
X174142Y85033D01*
X173828Y84954D01*
X173512Y84993D01*
X173250Y85151D01*
X172725Y85937D01*
X172357Y86291D01*
X171832Y86527D01*
X171360Y86606D01*
Y84954D01*
G01X164777Y95695D02*
X164935Y95931D01*
X165040Y96206D01*
Y96521D01*
X164882Y96875D01*
X164620Y97150D01*
X164305Y97347D01*
X163780Y97504D01*
X163307Y97543D01*
X162835Y97465D01*
X162520Y97347D01*
X162205Y97111D01*
X161995Y96835D01*
X161890Y96560D01*
Y96285D01*
X161995Y96009D01*
X162152Y95773D01*
X162362Y95577D01*
G01X164515Y94357D02*
X164830Y94121D01*
X164988Y93846D01*
X165040Y93531D01*
X164935Y93138D01*
X164672Y92863D01*
X164358Y92784D01*
X164042Y92823D01*
X163780Y92981D01*
X163255Y93767D01*
X162887Y94121D01*
X162362Y94357D01*
X161890Y94436D01*
Y92784D01*
G01Y90739D02*
X162572Y90660D01*
X163150Y90542D01*
X163675Y90385D01*
X164252Y90188D01*
X165040Y89873D01*
Y91447D01*
G01X152735Y107297D02*
X152499Y107455D01*
X152224Y107560D01*
X151909D01*
X151555Y107402D01*
X151280Y107140D01*
X151083Y106825D01*
X150926Y106300D01*
X150887Y105827D01*
X150965Y105355D01*
X151083Y105040D01*
X151319Y104725D01*
X151595Y104515D01*
X151870Y104410D01*
X152145D01*
X152421Y104515D01*
X152657Y104672D01*
X152853Y104882D01*
G01X154820Y104410D02*
X155095Y104462D01*
X155410Y104620D01*
X155607Y104882D01*
X155685Y105250D01*
X155607Y105617D01*
X155371Y105932D01*
X155017Y106090D01*
X154623D01*
X154387Y106195D01*
X154191Y106457D01*
X154112Y106825D01*
X154230Y107192D01*
X154505Y107455D01*
X154820Y107560D01*
X155135Y107455D01*
X155410Y107192D01*
X155528Y106825D01*
X155449Y106457D01*
X155253Y106195D01*
X155017Y106090D01*
X154623D01*
X154269Y105932D01*
X154033Y105617D01*
X153955Y105250D01*
X154033Y104882D01*
X154230Y104620D01*
X154545Y104462D01*
X154820Y104410D01*
G01X191243Y74090D02*
Y70940D01*
X192817D01*
G01X194311Y71307D02*
X194587Y71045D01*
X194901Y70940D01*
X195216Y71045D01*
X195491Y71360D01*
X195688Y71833D01*
X195767Y72305D01*
Y72882D01*
X195688Y73355D01*
X195491Y73775D01*
X195255Y73985D01*
X194980Y74090D01*
X194665Y73985D01*
X194429Y73775D01*
X194272Y73460D01*
X194193Y73040D01*
X194272Y72673D01*
X194469Y72305D01*
X194705Y72095D01*
X194980Y72042D01*
X195295Y72147D01*
X195531Y72410D01*
X195767Y72882D01*
G01X190343Y81085D02*
X190185Y80849D01*
X190080Y80574D01*
Y80259D01*
X190238Y79905D01*
X190500Y79630D01*
X190815Y79433D01*
X191340Y79276D01*
X191813Y79237D01*
X192285Y79315D01*
X192600Y79433D01*
X192915Y79669D01*
X193125Y79945D01*
X193230Y80220D01*
Y80495D01*
X193125Y80771D01*
X192968Y81007D01*
X192758Y81203D01*
G01X190605Y82423D02*
X190290Y82659D01*
X190132Y82934D01*
X190080Y83249D01*
X190185Y83642D01*
X190448Y83917D01*
X190762Y83996D01*
X191078Y83957D01*
X191340Y83799D01*
X191865Y83013D01*
X192233Y82659D01*
X192758Y82423D01*
X193230Y82344D01*
Y83996D01*
G01Y86120D02*
X193178Y86395D01*
X193020Y86710D01*
X192758Y86907D01*
X192390Y86985D01*
X192023Y86907D01*
X191708Y86671D01*
X191550Y86317D01*
Y85923D01*
X191445Y85687D01*
X191183Y85491D01*
X190815Y85412D01*
X190448Y85530D01*
X190185Y85805D01*
X190080Y86120D01*
X190185Y86435D01*
X190448Y86710D01*
X190815Y86828D01*
X191183Y86749D01*
X191445Y86553D01*
X191550Y86317D01*
Y85923D01*
X191708Y85569D01*
X192023Y85333D01*
X192390Y85255D01*
X192758Y85333D01*
X193020Y85530D01*
X193178Y85845D01*
X193230Y86120D01*
G01X173415Y78887D02*
X173179Y79045D01*
X172904Y79150D01*
X172589D01*
X172235Y78992D01*
X171960Y78730D01*
X171763Y78415D01*
X171606Y77890D01*
X171567Y77417D01*
X171645Y76945D01*
X171763Y76630D01*
X171999Y76315D01*
X172275Y76105D01*
X172550Y76000D01*
X172825D01*
X173101Y76105D01*
X173337Y76262D01*
X173533Y76472D01*
G01X175500Y76000D02*
Y79150D01*
X175028Y78520D01*
G01Y76000D02*
X175972D01*
G01X177585Y76472D02*
X177821Y76210D01*
X178096Y76052D01*
X178450Y76000D01*
X178804Y76105D01*
X179079Y76315D01*
X179276Y76682D01*
X179315Y77102D01*
X179237Y77522D01*
X179040Y77785D01*
X178765Y77995D01*
X178489Y78047D01*
X178214Y77995D01*
X177860Y77785D01*
X177978Y79150D01*
X179040D01*
G01X180213Y104800D02*
Y101650D01*
X181787D01*
G01X183085Y102122D02*
X183321Y101860D01*
X183596Y101702D01*
X183950Y101650D01*
X184304Y101755D01*
X184579Y101965D01*
X184776Y102332D01*
X184815Y102752D01*
X184737Y103172D01*
X184540Y103435D01*
X184265Y103645D01*
X183989Y103697D01*
X183714Y103645D01*
X183360Y103435D01*
X183478Y104800D01*
X184540D01*
G01X201260Y94587D02*
X198110D01*
Y93013D01*
G01Y90378D02*
X201260D01*
X199003Y91833D01*
Y89867D01*
G01X187693Y96140D02*
Y92990D01*
X189267D01*
G01X190565Y93620D02*
X190801Y93252D01*
X191115Y93042D01*
X191469Y92990D01*
X191784Y93042D01*
X192099Y93305D01*
X192295Y93620D01*
X192335Y93935D01*
X192256Y94302D01*
X191981Y94565D01*
X191705Y94670D01*
X191351D01*
G01X191705D02*
X191941Y94827D01*
X192138Y95090D01*
X192217Y95405D01*
X192138Y95720D01*
X191941Y95982D01*
X191587Y96140D01*
X191233Y96088D01*
X190879Y95877D01*
G01X191733Y104245D02*
X191575Y104009D01*
X191470Y103734D01*
Y103419D01*
X191628Y103065D01*
X191890Y102790D01*
X192205Y102593D01*
X192730Y102436D01*
X193203Y102397D01*
X193675Y102475D01*
X193990Y102593D01*
X194305Y102829D01*
X194515Y103105D01*
X194620Y103380D01*
Y103655D01*
X194515Y103931D01*
X194358Y104167D01*
X194148Y104363D01*
G01X194620Y106330D02*
X191470D01*
X192100Y105858D01*
G01X194620D02*
Y106802D01*
G01Y109201D02*
X193938Y109280D01*
X193360Y109398D01*
X192835Y109555D01*
X192258Y109752D01*
X191470Y110067D01*
Y108493D01*
G01X180495Y87147D02*
X180259Y87305D01*
X179984Y87410D01*
X179669D01*
X179315Y87252D01*
X179040Y86990D01*
X178843Y86675D01*
X178686Y86150D01*
X178647Y85677D01*
X178725Y85205D01*
X178843Y84890D01*
X179079Y84575D01*
X179355Y84365D01*
X179630Y84260D01*
X179905D01*
X180181Y84365D01*
X180417Y84522D01*
X180613Y84732D01*
G01X182580Y84260D02*
Y87410D01*
X182108Y86780D01*
G01Y84260D02*
X183052D01*
G01X186002D02*
Y87410D01*
X184547Y85153D01*
X186513D01*
G01X170863Y99125D02*
X170705Y98889D01*
X170600Y98614D01*
Y98299D01*
X170758Y97945D01*
X171020Y97670D01*
X171335Y97473D01*
X171860Y97316D01*
X172333Y97277D01*
X172805Y97355D01*
X173120Y97473D01*
X173435Y97709D01*
X173645Y97985D01*
X173750Y98260D01*
Y98535D01*
X173645Y98811D01*
X173488Y99047D01*
X173278Y99243D01*
G01X173750Y101210D02*
X170600D01*
X171230Y100738D01*
G01X173750D02*
Y101682D01*
G01X173383Y103491D02*
X173645Y103767D01*
X173750Y104081D01*
X173645Y104396D01*
X173330Y104671D01*
X172857Y104868D01*
X172385Y104947D01*
X171808D01*
X171335Y104868D01*
X170915Y104671D01*
X170705Y104435D01*
X170600Y104160D01*
X170705Y103845D01*
X170915Y103609D01*
X171230Y103452D01*
X171650Y103373D01*
X172017Y103452D01*
X172385Y103649D01*
X172595Y103885D01*
X172648Y104160D01*
X172543Y104475D01*
X172280Y104711D01*
X171808Y104947D01*
G01X227993Y68780D02*
X228190Y68465D01*
X228426Y68255D01*
X228701Y68150D01*
X229016Y68255D01*
X229252Y68465D01*
X229488Y68780D01*
X229567Y69200D01*
Y71300D01*
G01X231730Y68150D02*
Y71300D01*
X231258Y70670D01*
G01Y68150D02*
X232202D01*
G01X208677Y86175D02*
X208835Y86411D01*
X208940Y86686D01*
Y87001D01*
X208782Y87355D01*
X208520Y87630D01*
X208205Y87827D01*
X207680Y87984D01*
X207207Y88023D01*
X206735Y87945D01*
X206420Y87827D01*
X206105Y87591D01*
X205895Y87315D01*
X205790Y87040D01*
Y86765D01*
X205895Y86489D01*
X206052Y86253D01*
X206262Y86057D01*
G01X205790Y84090D02*
X208940D01*
X208310Y84562D01*
G01X205790D02*
Y83618D01*
G01X207102Y81887D02*
X207470Y81612D01*
X207680Y81376D01*
X207785Y81061D01*
X207680Y80786D01*
X207470Y80589D01*
X207155Y80432D01*
X206787Y80393D01*
X206472Y80432D01*
X206157Y80589D01*
X205895Y80825D01*
X205790Y81101D01*
X205895Y81415D01*
X206210Y81691D01*
X206683Y81848D01*
X207207Y81887D01*
X207890Y81809D01*
X208258Y81691D01*
X208625Y81494D01*
X208888Y81219D01*
X208940Y80943D01*
X208835Y80668D01*
X208572Y80471D01*
G01X208205Y96297D02*
X207969Y96455D01*
X207694Y96560D01*
X207379D01*
X207025Y96402D01*
X206750Y96140D01*
X206553Y95825D01*
X206396Y95300D01*
X206357Y94827D01*
X206435Y94355D01*
X206553Y94040D01*
X206789Y93725D01*
X207065Y93515D01*
X207340Y93410D01*
X207615D01*
X207891Y93515D01*
X208127Y93672D01*
X208323Y93882D01*
G01X210290Y93410D02*
Y96560D01*
X209818Y95930D01*
G01Y93410D02*
X210762D01*
G01X213240D02*
X213515Y93462D01*
X213830Y93620D01*
X214027Y93882D01*
X214105Y94250D01*
X214027Y94617D01*
X213791Y94932D01*
X213437Y95090D01*
X213043D01*
X212807Y95195D01*
X212611Y95457D01*
X212532Y95825D01*
X212650Y96192D01*
X212925Y96455D01*
X213240Y96560D01*
X213555Y96455D01*
X213830Y96192D01*
X213948Y95825D01*
X213869Y95457D01*
X213673Y95195D01*
X213437Y95090D01*
X213043D01*
X212689Y94932D01*
X212453Y94617D01*
X212375Y94250D01*
X212453Y93882D01*
X212650Y93620D01*
X212965Y93462D01*
X213240Y93410D01*
G01X236380Y4723D02*
X233230D01*
Y5667D01*
X233388Y5982D01*
X233755Y6218D01*
X234175Y6297D01*
X234595Y6218D01*
X234910Y6021D01*
X235068Y5667D01*
Y4723D01*
G01X235750Y7595D02*
X236118Y7831D01*
X236328Y8145D01*
X236380Y8499D01*
X236328Y8814D01*
X236065Y9129D01*
X235750Y9325D01*
X235435Y9365D01*
X235068Y9286D01*
X234805Y9011D01*
X234700Y8735D01*
Y8381D01*
G01Y8735D02*
X234543Y8971D01*
X234280Y9168D01*
X233965Y9247D01*
X233650Y9168D01*
X233388Y8971D01*
X233230Y8617D01*
X233282Y8263D01*
X233493Y7909D01*
G01X235750Y10545D02*
X236118Y10781D01*
X236328Y11095D01*
X236380Y11449D01*
X236328Y11764D01*
X236065Y12079D01*
X235750Y12275D01*
X235435Y12315D01*
X235068Y12236D01*
X234805Y11961D01*
X234700Y11685D01*
Y11331D01*
G01Y11685D02*
X234543Y11921D01*
X234280Y12118D01*
X233965Y12197D01*
X233650Y12118D01*
X233388Y11921D01*
X233230Y11567D01*
X233282Y11213D01*
X233493Y10859D01*
M02*
