G04 ================== begin FILE IDENTIFICATION RECORD ==================*
G04 Layout Name:  c:/src/bsm-2/schematics/bsm-radio.brd*
G04 Film Name:    AssemblyTOP*
G04 File Format:  Gerber RS274X*
G04 File Origin:  16.0-s004*
G04 Origin Date:  Fri Jan 20 19:16:42 2012*
G04 *
G04 Layer:  USER PART NUMBER/ASSEMBLY_TOP*
G04 Layer:  TOLERANCE/ASSEMBLY_TOP*
G04 Layer:  REF DES/ASSEMBLY_TOP*
G04 Layer:  PACKAGE GEOMETRY/ASSEMBLY_TOP*
G04 Layer:  MANUFACTURING/PHOTOPLOT_OUTLINE*
G04 Layer:  DEVICE TYPE/ASSEMBLY_TOP*
G04 Layer:  COMPONENT VALUE/ASSEMBLY_TOP*
G04 Layer:  BOARD GEOMETRY/SWITCH_AREA_TOP*
G04 *
G04 Offset:    (0.000 0.000)*
G04 Mirror:    No*
G04 Mode:      Positive*
G04 Rotation:  0*
G04 FullContactRelief:  No*
G04 UndefLineWidth:     0.000*
G04 ================== end FILE IDENTIFICATION RECORD ====================*
%FSLAX55Y55*MOIN*%
%IR0*IPPOS*OFA0.00000B0.00000*MIA0B0*SFA1.00000B1.00000*%
%ADD10C,.007874*%
%ADD11C,.005906*%
%ADD12C,.005984*%
G75*
%LPD*%
G75*
G54D10*
G01X50311Y43504D02*
Y44921D01*
X49654Y46654D01*
G01X50969D02*
X50311Y44921D01*
G01X52248Y46130D02*
X52445Y46445D01*
X52673Y46602D01*
X52937Y46654D01*
X53264Y46547D01*
X53492Y46287D01*
X53559Y45972D01*
X53528Y45657D01*
X53394Y45394D01*
X52740Y44870D01*
X52445Y44500D01*
X52248Y43976D01*
X52181Y43504D01*
X53559D01*
G01X60665Y26728D02*
Y29878D01*
X59350D01*
G01X57449D02*
Y26728D01*
X57843Y27358D01*
G01Y29878D02*
X57055D01*
G01X30906Y67717D02*
Y69134D01*
X30248Y70866D01*
G01X31563D02*
X30906Y69134D01*
G01X33465Y67717D02*
Y70866D01*
X33071Y70236D01*
G01Y67717D02*
X33858D01*
G01X54929Y68472D02*
X55087Y68669D01*
X55193Y68898D01*
Y69161D01*
X55035Y69457D01*
X54772Y69685D01*
X54457Y69850D01*
X53933Y69980D01*
X53461Y70012D01*
X52988Y69949D01*
X52673Y69850D01*
X52358Y69654D01*
X52150Y69421D01*
X52043Y69193D01*
Y68965D01*
X52150Y68732D01*
X52307Y68535D01*
X52516Y68374D01*
G01X54669Y67256D02*
X54984Y67059D01*
X55142Y66831D01*
X55193Y66567D01*
X55087Y66240D01*
X54827Y66012D01*
X54512Y65945D01*
X54197Y65976D01*
X53933Y66110D01*
X53409Y66764D01*
X53039Y67059D01*
X52516Y67256D01*
X52043Y67323D01*
Y65945D01*
G01Y64075D02*
X55193D01*
X54563Y64469D01*
G01X52043D02*
Y63681D01*
G01X46268Y68472D02*
X46425Y68669D01*
X46531Y68898D01*
Y69161D01*
X46374Y69457D01*
X46110Y69685D01*
X45795Y69850D01*
X45272Y69980D01*
X44799Y70012D01*
X44327Y69949D01*
X44012Y69850D01*
X43697Y69654D01*
X43488Y69421D01*
X43382Y69193D01*
Y68965D01*
X43488Y68732D01*
X43646Y68535D01*
X43854Y68374D01*
G01X46008Y67256D02*
X46323Y67059D01*
X46480Y66831D01*
X46531Y66567D01*
X46425Y66240D01*
X46165Y66012D01*
X45850Y65945D01*
X45535Y65976D01*
X45272Y66110D01*
X44748Y66764D01*
X44378Y67059D01*
X43854Y67256D01*
X43382Y67323D01*
Y65945D01*
G01X46531Y64075D02*
X46425Y64339D01*
X46165Y64535D01*
X45850Y64665D01*
X45429Y64764D01*
X44957Y64795D01*
X44484Y64764D01*
X44063Y64665D01*
X43748Y64535D01*
X43488Y64339D01*
X43382Y64075D01*
X43488Y63811D01*
X43748Y63614D01*
X44063Y63484D01*
X44484Y63386D01*
X44957Y63354D01*
X45429Y63386D01*
X45850Y63484D01*
X46165Y63614D01*
X46425Y63811D01*
X46531Y64075D01*
G01X48307Y82177D02*
X48110Y82335D01*
X47882Y82441D01*
X47618D01*
X47323Y82283D01*
X47094Y82020D01*
X46929Y81705D01*
X46799Y81181D01*
X46768Y80709D01*
X46831Y80236D01*
X46929Y79921D01*
X47126Y79606D01*
X47358Y79398D01*
X47587Y79291D01*
X47815D01*
X48047Y79398D01*
X48244Y79555D01*
X48406Y79764D01*
G01X50146Y79291D02*
Y82441D01*
X49752Y81811D01*
G01Y79291D02*
X50539D01*
G01X52705D02*
Y82441D01*
X52311Y81811D01*
G01Y79291D02*
X53098D01*
G01X48898Y89661D02*
X48701Y89819D01*
X48472Y89925D01*
X48209D01*
X47913Y89768D01*
X47685Y89504D01*
X47520Y89189D01*
X47390Y88665D01*
X47358Y88193D01*
X47421Y87720D01*
X47520Y87406D01*
X47717Y87091D01*
X47949Y86882D01*
X48177Y86776D01*
X48406D01*
X48638Y86882D01*
X48835Y87039D01*
X48996Y87248D01*
G01X50114Y88087D02*
X50343Y88457D01*
X50539Y88665D01*
X50803Y88772D01*
X51031Y88665D01*
X51197Y88457D01*
X51327Y88142D01*
X51358Y87772D01*
X51327Y87457D01*
X51197Y87142D01*
X51000Y86882D01*
X50768Y86776D01*
X50508Y86882D01*
X50276Y87197D01*
X50146Y87669D01*
X50114Y88193D01*
X50177Y88874D01*
X50276Y89244D01*
X50441Y89610D01*
X50669Y89874D01*
X50902Y89925D01*
X51130Y89819D01*
X51295Y89559D01*
G01X50819Y116850D02*
X50622Y117008D01*
X50394Y117114D01*
X50130D01*
X49835Y116957D01*
X49606Y116693D01*
X49441Y116378D01*
X49311Y115854D01*
X49280Y115382D01*
X49343Y114909D01*
X49441Y114594D01*
X49638Y114280D01*
X49870Y114071D01*
X50098Y113965D01*
X50327D01*
X50559Y114071D01*
X50756Y114228D01*
X50917Y114437D01*
G01X52098Y114331D02*
X52331Y114071D01*
X52591Y113965D01*
X52854Y114071D01*
X53083Y114386D01*
X53248Y114858D01*
X53315Y115331D01*
Y115906D01*
X53248Y116378D01*
X53083Y116799D01*
X52886Y117008D01*
X52657Y117114D01*
X52394Y117008D01*
X52197Y116799D01*
X52067Y116484D01*
X52000Y116063D01*
X52067Y115697D01*
X52232Y115331D01*
X52429Y115118D01*
X52657Y115067D01*
X52921Y115173D01*
X53118Y115433D01*
X53315Y115906D01*
G01X80126Y29496D02*
X80283Y29693D01*
X80390Y29921D01*
Y30185D01*
X80232Y30480D01*
X79969Y30709D01*
X79654Y30874D01*
X79130Y31004D01*
X78657Y31035D01*
X78185Y30972D01*
X77870Y30874D01*
X77555Y30677D01*
X77346Y30445D01*
X77240Y30217D01*
Y29988D01*
X77346Y29756D01*
X77504Y29559D01*
X77713Y29398D01*
G01X77870Y28378D02*
X77504Y28181D01*
X77291Y27921D01*
X77240Y27626D01*
X77291Y27362D01*
X77555Y27098D01*
X77870Y26937D01*
X78185Y26902D01*
X78551Y26969D01*
X78815Y27197D01*
X78921Y27429D01*
Y27724D01*
G01Y27429D02*
X79079Y27232D01*
X79339Y27067D01*
X79654Y27000D01*
X79969Y27067D01*
X80232Y27232D01*
X80390Y27528D01*
X80339Y27823D01*
X80126Y28118D01*
G01X72252Y29496D02*
X72409Y29693D01*
X72516Y29921D01*
Y30185D01*
X72358Y30480D01*
X72094Y30709D01*
X71780Y30874D01*
X71256Y31004D01*
X70783Y31035D01*
X70311Y30972D01*
X69996Y30874D01*
X69681Y30677D01*
X69472Y30445D01*
X69366Y30217D01*
Y29988D01*
X69472Y29756D01*
X69630Y29559D01*
X69839Y29398D01*
G01X71992Y28280D02*
X72307Y28083D01*
X72465Y27854D01*
X72516Y27591D01*
X72409Y27264D01*
X72150Y27035D01*
X71835Y26969D01*
X71520Y27000D01*
X71256Y27134D01*
X70732Y27787D01*
X70362Y28083D01*
X69839Y28280D01*
X69366Y28346D01*
Y26969D01*
G01X74835Y60441D02*
X74638Y60598D01*
X74409Y60705D01*
X74146D01*
X73850Y60547D01*
X73622Y60283D01*
X73457Y59969D01*
X73327Y59445D01*
X73295Y58972D01*
X73358Y58500D01*
X73457Y58185D01*
X73654Y57870D01*
X73886Y57661D01*
X74114Y57555D01*
X74343D01*
X74575Y57661D01*
X74772Y57819D01*
X74933Y58028D01*
G01X76051Y60181D02*
X76248Y60496D01*
X76476Y60654D01*
X76740Y60705D01*
X77067Y60598D01*
X77295Y60339D01*
X77362Y60024D01*
X77331Y59709D01*
X77197Y59445D01*
X76543Y58921D01*
X76248Y58551D01*
X76051Y58028D01*
X75984Y57555D01*
X77362D01*
G01X78512Y58185D02*
X78709Y57819D01*
X78969Y57606D01*
X79264Y57555D01*
X79528Y57606D01*
X79791Y57870D01*
X79953Y58185D01*
X79988Y58500D01*
X79921Y58866D01*
X79693Y59130D01*
X79461Y59236D01*
X79165D01*
G01X79461D02*
X79657Y59394D01*
X79823Y59654D01*
X79890Y59969D01*
X79823Y60283D01*
X79657Y60547D01*
X79362Y60705D01*
X79067Y60654D01*
X78772Y60441D01*
G01X63614Y67004D02*
Y70154D01*
X64437D01*
X64697Y69996D01*
X64862Y69787D01*
X64929Y69366D01*
X64862Y68945D01*
X64665Y68685D01*
X64437Y68528D01*
X63614D01*
G01X64437D02*
X64929Y67004D01*
G01X66831D02*
X67059Y67055D01*
X67323Y67213D01*
X67488Y67476D01*
X67551Y67843D01*
X67488Y68213D01*
X67291Y68528D01*
X66996Y68685D01*
X66665D01*
X66469Y68787D01*
X66307Y69051D01*
X66240Y69417D01*
X66339Y69787D01*
X66567Y70047D01*
X66831Y70154D01*
X67094Y70047D01*
X67323Y69787D01*
X67421Y69417D01*
X67354Y69051D01*
X67193Y68787D01*
X66996Y68685D01*
X66665D01*
X66370Y68528D01*
X66173Y68213D01*
X66110Y67843D01*
X66173Y67476D01*
X66339Y67213D01*
X66602Y67055D01*
X66831Y67004D01*
G01X78272Y66370D02*
X75122D01*
Y67193D01*
X75280Y67453D01*
X75488Y67618D01*
X75909Y67685D01*
X76331Y67618D01*
X76591Y67421D01*
X76748Y67193D01*
Y66370D01*
G01Y67193D02*
X78272Y67685D01*
G01Y69587D02*
X75122D01*
X75752Y69193D01*
G01X78272D02*
Y69980D01*
G01X75646Y71524D02*
X75331Y71720D01*
X75173Y71949D01*
X75122Y72213D01*
X75228Y72539D01*
X75488Y72768D01*
X75803Y72835D01*
X76118Y72803D01*
X76382Y72669D01*
X76906Y72016D01*
X77276Y71720D01*
X77799Y71524D01*
X78272Y71457D01*
Y72835D01*
G01X66504Y57669D02*
X66701Y57512D01*
X66929Y57406D01*
X67193D01*
X67488Y57563D01*
X67717Y57827D01*
X67882Y58142D01*
X68012Y58665D01*
X68043Y59138D01*
X67980Y59610D01*
X67882Y59925D01*
X67685Y60240D01*
X67453Y60449D01*
X67224Y60555D01*
X66996D01*
X66764Y60449D01*
X66567Y60291D01*
X66406Y60083D01*
G01X65287Y57929D02*
X65091Y57614D01*
X64862Y57457D01*
X64598Y57406D01*
X64272Y57512D01*
X64043Y57772D01*
X63976Y58087D01*
X64008Y58402D01*
X64142Y58665D01*
X64795Y59189D01*
X65091Y59559D01*
X65287Y60083D01*
X65354Y60555D01*
X63976D01*
G01X62728Y57929D02*
X62531Y57614D01*
X62303Y57457D01*
X62039Y57406D01*
X61713Y57512D01*
X61484Y57772D01*
X61417Y58087D01*
X61449Y58402D01*
X61583Y58665D01*
X62236Y59189D01*
X62531Y59559D01*
X62728Y60083D01*
X62795Y60555D01*
X61417D01*
G01X75394Y97016D02*
X77650D01*
X78122Y97146D01*
X78437Y97409D01*
X78543Y97736D01*
X78437Y98063D01*
X78122Y98327D01*
X77650Y98457D01*
X75394D01*
G01X78543Y100295D02*
X75394D01*
X76024Y99902D01*
G01X78543D02*
Y100689D01*
G01X101937Y56004D02*
X101740Y56161D01*
X101512Y56268D01*
X101248D01*
X100953Y56110D01*
X100724Y55846D01*
X100559Y55531D01*
X100429Y55008D01*
X100398Y54535D01*
X100461Y54063D01*
X100559Y53748D01*
X100756Y53433D01*
X100988Y53224D01*
X101217Y53118D01*
X101445D01*
X101677Y53224D01*
X101874Y53382D01*
X102035Y53591D01*
G01X103154Y55744D02*
X103350Y56059D01*
X103579Y56217D01*
X103843Y56268D01*
X104169Y56161D01*
X104398Y55902D01*
X104465Y55587D01*
X104433Y55272D01*
X104299Y55008D01*
X103646Y54484D01*
X103350Y54114D01*
X103154Y53591D01*
X103087Y53118D01*
X104465D01*
G01X105713Y54429D02*
X105941Y54799D01*
X106138Y55008D01*
X106402Y55114D01*
X106630Y55008D01*
X106795Y54799D01*
X106925Y54484D01*
X106957Y54114D01*
X106925Y53799D01*
X106795Y53484D01*
X106598Y53224D01*
X106366Y53118D01*
X106106Y53224D01*
X105874Y53539D01*
X105744Y54012D01*
X105713Y54535D01*
X105776Y55217D01*
X105874Y55587D01*
X106039Y55953D01*
X106268Y56217D01*
X106500Y56268D01*
X106728Y56161D01*
X106894Y55902D01*
G01X100350Y31067D02*
X103500D01*
Y32382D01*
G01X102189Y33661D02*
X101819Y33890D01*
X101610Y34087D01*
X101504Y34350D01*
X101610Y34579D01*
X101819Y34744D01*
X102134Y34874D01*
X102504Y34906D01*
X102819Y34874D01*
X103134Y34744D01*
X103394Y34547D01*
X103500Y34315D01*
X103394Y34055D01*
X103079Y33823D01*
X102606Y33693D01*
X102083Y33661D01*
X101402Y33724D01*
X101031Y33823D01*
X100665Y33988D01*
X100402Y34217D01*
X100350Y34449D01*
X100457Y34677D01*
X100717Y34843D01*
G01X102591Y61886D02*
Y65035D01*
X103413D01*
X103673Y64878D01*
X103839Y64669D01*
X103906Y64248D01*
X103839Y63827D01*
X103642Y63567D01*
X103413Y63409D01*
X102591D01*
G01X103413D02*
X103906Y61886D01*
G01X105185Y64512D02*
X105382Y64827D01*
X105610Y64984D01*
X105874Y65035D01*
X106201Y64929D01*
X106429Y64669D01*
X106496Y64354D01*
X106465Y64039D01*
X106331Y63776D01*
X105677Y63252D01*
X105382Y62882D01*
X105185Y62358D01*
X105118Y61886D01*
X106496D01*
G01X104559Y87083D02*
Y90232D01*
X105382D01*
X105642Y90075D01*
X105807Y89866D01*
X105874Y89445D01*
X105807Y89024D01*
X105610Y88764D01*
X105382Y88606D01*
X104559D01*
G01X105382D02*
X105874Y87083D01*
G01X107055Y87555D02*
X107252Y87291D01*
X107480Y87134D01*
X107776Y87083D01*
X108071Y87189D01*
X108299Y87398D01*
X108465Y87764D01*
X108496Y88185D01*
X108433Y88606D01*
X108268Y88866D01*
X108039Y89079D01*
X107807Y89130D01*
X107579Y89079D01*
X107283Y88866D01*
X107382Y90232D01*
X108268D01*
G01X101409Y70547D02*
Y73697D01*
X102232D01*
X102492Y73539D01*
X102657Y73331D01*
X102724Y72909D01*
X102657Y72488D01*
X102461Y72228D01*
X102232Y72071D01*
X101409D01*
G01X102232D02*
X102724Y70547D01*
G01X103906Y71177D02*
X104102Y70811D01*
X104362Y70598D01*
X104657Y70547D01*
X104921Y70598D01*
X105185Y70862D01*
X105346Y71177D01*
X105382Y71492D01*
X105315Y71858D01*
X105087Y72122D01*
X104854Y72228D01*
X104559D01*
G01X104854D02*
X105051Y72386D01*
X105217Y72646D01*
X105283Y72961D01*
X105217Y73276D01*
X105051Y73539D01*
X104756Y73697D01*
X104461Y73646D01*
X104165Y73433D01*
G01X107512Y81701D02*
X107315Y81858D01*
X107087Y81965D01*
X106823D01*
X106528Y81807D01*
X106299Y81543D01*
X106134Y81228D01*
X106004Y80705D01*
X105972Y80232D01*
X106035Y79760D01*
X106134Y79445D01*
X106331Y79130D01*
X106563Y78921D01*
X106791Y78815D01*
X107020D01*
X107252Y78921D01*
X107449Y79079D01*
X107610Y79287D01*
G01X109350Y78815D02*
Y81965D01*
X108957Y81335D01*
G01Y78815D02*
X109744D01*
G01X112764Y114886D02*
Y111736D01*
X111941D01*
X111681Y111894D01*
X111516Y112102D01*
X111449Y112524D01*
X111516Y112945D01*
X111713Y113205D01*
X111941Y113362D01*
X112764D01*
G01X111941D02*
X111449Y114886D01*
G01X109547D02*
Y111736D01*
X109941Y112366D01*
G01Y114886D02*
X109154D01*
G01X106988Y111736D02*
X107252Y111843D01*
X107449Y112102D01*
X107579Y112417D01*
X107677Y112839D01*
X107709Y113311D01*
X107677Y113783D01*
X107579Y114205D01*
X107449Y114520D01*
X107252Y114780D01*
X106988Y114886D01*
X106724Y114780D01*
X106528Y114520D01*
X106398Y114205D01*
X106299Y113783D01*
X106268Y113311D01*
X106299Y112839D01*
X106398Y112417D01*
X106528Y112102D01*
X106724Y111843D01*
X106988Y111736D01*
G01X104559Y95744D02*
Y98894D01*
X105382D01*
X105642Y98736D01*
X105807Y98528D01*
X105874Y98106D01*
X105807Y97685D01*
X105610Y97425D01*
X105382Y97268D01*
X104559D01*
G01X105382D02*
X105874Y95744D01*
G01X108169D02*
Y98894D01*
X106957Y96638D01*
X108594D01*
G01X108102Y104012D02*
Y107161D01*
X108925D01*
X109185Y107004D01*
X109350Y106795D01*
X109417Y106374D01*
X109350Y105953D01*
X109154Y105693D01*
X108925Y105535D01*
X108102D01*
G01X108925D02*
X109417Y104012D01*
G01X110697Y105323D02*
X110925Y105693D01*
X111122Y105902D01*
X111386Y106008D01*
X111614Y105902D01*
X111780Y105693D01*
X111909Y105378D01*
X111941Y105008D01*
X111909Y104693D01*
X111780Y104378D01*
X111583Y104118D01*
X111350Y104012D01*
X111091Y104118D01*
X110858Y104433D01*
X110728Y104906D01*
X110697Y105429D01*
X110760Y106110D01*
X110858Y106480D01*
X111024Y106846D01*
X111252Y107110D01*
X111484Y107161D01*
X111713Y107055D01*
X111878Y106795D01*
G01X105543Y122646D02*
X105346Y122803D01*
X105118Y122909D01*
X104854D01*
X104559Y122752D01*
X104331Y122488D01*
X104165Y122173D01*
X104035Y121650D01*
X104004Y121177D01*
X104067Y120705D01*
X104165Y120390D01*
X104362Y120075D01*
X104594Y119866D01*
X104823Y119760D01*
X105051D01*
X105283Y119866D01*
X105480Y120024D01*
X105642Y120232D01*
G01X107315Y119760D02*
X107382Y120441D01*
X107480Y121020D01*
X107610Y121543D01*
X107776Y122122D01*
X108039Y122909D01*
X106724D01*
G01X120213Y38051D02*
Y39469D01*
X119555Y41201D01*
G01X120870D02*
X120213Y39469D01*
G01X123165Y38051D02*
Y41201D01*
X121953Y38945D01*
X123591D01*
G01X136181Y40941D02*
X137598D01*
X139331Y41598D01*
G01Y40283D02*
X137598Y40941D01*
G01X136811Y39102D02*
X136445Y38906D01*
X136232Y38646D01*
X136181Y38350D01*
X136232Y38087D01*
X136496Y37823D01*
X136811Y37661D01*
X137126Y37626D01*
X137492Y37693D01*
X137756Y37921D01*
X137862Y38154D01*
Y38449D01*
G01Y38154D02*
X138020Y37957D01*
X138280Y37791D01*
X138594Y37724D01*
X138909Y37791D01*
X139173Y37957D01*
X139331Y38252D01*
X139280Y38547D01*
X139067Y38843D01*
G01X118213Y61626D02*
X121362D01*
Y60803D01*
X121205Y60543D01*
X120996Y60378D01*
X120575Y60311D01*
X120154Y60378D01*
X119894Y60575D01*
X119736Y60803D01*
Y61626D01*
G01Y60803D02*
X118213Y60311D01*
G01Y58409D02*
X121362D01*
X120732Y58803D01*
G01X118213D02*
Y58016D01*
G01Y55850D02*
X121362D01*
X120732Y56244D01*
G01X118213D02*
Y55457D01*
G01X144913Y56110D02*
X144717Y56268D01*
X144488Y56374D01*
X144224D01*
X143929Y56217D01*
X143701Y55953D01*
X143535Y55638D01*
X143406Y55114D01*
X143374Y54642D01*
X143437Y54169D01*
X143535Y53854D01*
X143732Y53539D01*
X143965Y53331D01*
X144193Y53224D01*
X144421D01*
X144654Y53331D01*
X144850Y53488D01*
X145012Y53697D01*
G01X146130Y55850D02*
X146327Y56165D01*
X146555Y56323D01*
X146819Y56374D01*
X147146Y56268D01*
X147374Y56008D01*
X147441Y55693D01*
X147409Y55378D01*
X147276Y55114D01*
X146622Y54591D01*
X146327Y54220D01*
X146130Y53697D01*
X146063Y53224D01*
X147441D01*
G01X148591Y53697D02*
X148787Y53433D01*
X149016Y53276D01*
X149311Y53224D01*
X149606Y53331D01*
X149835Y53539D01*
X150000Y53906D01*
X150031Y54327D01*
X149969Y54748D01*
X149803Y55008D01*
X149575Y55220D01*
X149343Y55272D01*
X149114Y55220D01*
X148819Y55008D01*
X148917Y56374D01*
X149803D01*
G01X127543Y56921D02*
X127346Y57079D01*
X127118Y57185D01*
X126854D01*
X126559Y57028D01*
X126331Y56764D01*
X126165Y56449D01*
X126035Y55925D01*
X126004Y55453D01*
X126067Y54980D01*
X126165Y54665D01*
X126362Y54350D01*
X126594Y54142D01*
X126823Y54035D01*
X127051D01*
X127283Y54142D01*
X127480Y54299D01*
X127642Y54508D01*
G01X128760Y56661D02*
X128957Y56976D01*
X129185Y57134D01*
X129449Y57185D01*
X129776Y57079D01*
X130004Y56819D01*
X130071Y56504D01*
X130039Y56189D01*
X129906Y55925D01*
X129252Y55402D01*
X128957Y55031D01*
X128760Y54508D01*
X128693Y54035D01*
X130071D01*
G01X132335D02*
Y57185D01*
X131122Y54929D01*
X132760D01*
G01X118535Y73654D02*
X118378Y73457D01*
X118272Y73228D01*
Y72965D01*
X118429Y72669D01*
X118693Y72441D01*
X119008Y72276D01*
X119531Y72146D01*
X120004Y72114D01*
X120476Y72177D01*
X120791Y72276D01*
X121106Y72472D01*
X121315Y72705D01*
X121421Y72933D01*
Y73161D01*
X121315Y73394D01*
X121157Y73591D01*
X120949Y73752D01*
G01Y74772D02*
X121213Y74969D01*
X121370Y75197D01*
X121421Y75492D01*
X121315Y75787D01*
X121106Y76016D01*
X120740Y76181D01*
X120319Y76213D01*
X119898Y76150D01*
X119638Y75984D01*
X119425Y75756D01*
X119374Y75524D01*
X119425Y75295D01*
X119638Y75000D01*
X118272Y75098D01*
Y75984D01*
G01X133654Y63024D02*
X133496Y62827D01*
X133390Y62598D01*
Y62335D01*
X133547Y62039D01*
X133811Y61811D01*
X134126Y61646D01*
X134650Y61516D01*
X135122Y61484D01*
X135594Y61547D01*
X135909Y61646D01*
X136224Y61843D01*
X136433Y62075D01*
X136539Y62303D01*
Y62531D01*
X136433Y62764D01*
X136276Y62961D01*
X136067Y63122D01*
G01X136539Y64862D02*
X133390D01*
X134020Y64469D01*
G01X136539D02*
Y65256D01*
G01X135909Y66701D02*
X136276Y66898D01*
X136488Y67157D01*
X136539Y67453D01*
X136488Y67717D01*
X136224Y67980D01*
X135909Y68142D01*
X135594Y68177D01*
X135228Y68110D01*
X134965Y67882D01*
X134858Y67650D01*
Y67354D01*
G01Y67650D02*
X134701Y67846D01*
X134441Y68012D01*
X134126Y68079D01*
X133811Y68012D01*
X133547Y67846D01*
X133390Y67551D01*
X133441Y67256D01*
X133654Y66961D01*
G01X130906Y99441D02*
X128650D01*
X128177Y99311D01*
X127862Y99047D01*
X127756Y98720D01*
X127862Y98394D01*
X128177Y98130D01*
X128650Y98000D01*
X130906D01*
G01X130382Y96783D02*
X130697Y96587D01*
X130854Y96358D01*
X130906Y96094D01*
X130799Y95768D01*
X130539Y95539D01*
X130224Y95472D01*
X129909Y95504D01*
X129646Y95638D01*
X129122Y96291D01*
X128752Y96587D01*
X128228Y96783D01*
X127756Y96850D01*
Y95472D01*
G01X128839Y119500D02*
X131988D01*
Y118677D01*
X131831Y118417D01*
X131622Y118252D01*
X131201Y118185D01*
X130780Y118252D01*
X130520Y118449D01*
X130362Y118677D01*
Y119500D01*
G01Y118677D02*
X128839Y118185D01*
G01Y116283D02*
X131988D01*
X131358Y116677D01*
G01X128839D02*
Y115890D01*
G01X121819Y115343D02*
X121661Y115146D01*
X121555Y114917D01*
Y114654D01*
X121713Y114358D01*
X121976Y114130D01*
X122291Y113965D01*
X122815Y113835D01*
X123287Y113803D01*
X123760Y113866D01*
X124075Y113965D01*
X124390Y114161D01*
X124598Y114394D01*
X124705Y114622D01*
Y114850D01*
X124598Y115083D01*
X124441Y115280D01*
X124232Y115441D01*
G01X124705Y117181D02*
X121555D01*
X122185Y116787D01*
G01X124705D02*
Y117575D01*
G01X122079Y119118D02*
X121764Y119315D01*
X121606Y119543D01*
X121555Y119807D01*
X121661Y120134D01*
X121921Y120362D01*
X122236Y120429D01*
X122551Y120398D01*
X122815Y120264D01*
X123339Y119610D01*
X123709Y119315D01*
X124232Y119118D01*
X124705Y119051D01*
Y120429D01*
G01X137567Y116917D02*
X137409Y116720D01*
X137303Y116492D01*
Y116228D01*
X137461Y115933D01*
X137724Y115705D01*
X138039Y115539D01*
X138563Y115409D01*
X139035Y115378D01*
X139508Y115441D01*
X139823Y115539D01*
X140138Y115736D01*
X140346Y115969D01*
X140453Y116197D01*
Y116425D01*
X140346Y116657D01*
X140189Y116854D01*
X139980Y117016D01*
G01X140453Y119150D02*
X137303D01*
X139559Y117937D01*
Y119575D01*
G01X154827Y59657D02*
X157976D01*
Y58835D01*
X157819Y58575D01*
X157610Y58409D01*
X157189Y58343D01*
X156768Y58409D01*
X156508Y58606D01*
X156350Y58835D01*
Y59657D01*
G01Y58835D02*
X154827Y58343D01*
G01X155193Y57000D02*
X154933Y56768D01*
X154827Y56508D01*
X154933Y56244D01*
X155248Y56016D01*
X155720Y55850D01*
X156193Y55783D01*
X156768D01*
X157240Y55850D01*
X157661Y56016D01*
X157870Y56213D01*
X157976Y56441D01*
X157870Y56705D01*
X157661Y56902D01*
X157346Y57031D01*
X156925Y57098D01*
X156559Y57031D01*
X156193Y56866D01*
X155980Y56669D01*
X155929Y56441D01*
X156035Y56177D01*
X156295Y55980D01*
X156768Y55783D01*
G01X174512Y89583D02*
X171362D01*
Y88268D01*
G01X173988Y86988D02*
X174303Y86791D01*
X174461Y86563D01*
X174512Y86299D01*
X174406Y85972D01*
X174146Y85744D01*
X173831Y85677D01*
X173516Y85709D01*
X173252Y85843D01*
X172728Y86496D01*
X172358Y86791D01*
X171835Y86988D01*
X171362Y87055D01*
Y85677D01*
G01X173071Y78882D02*
X172874Y79039D01*
X172646Y79146D01*
X172382D01*
X172087Y78988D01*
X171858Y78724D01*
X171693Y78409D01*
X171563Y77886D01*
X171531Y77413D01*
X171594Y76941D01*
X171693Y76626D01*
X171890Y76311D01*
X172122Y76102D01*
X172350Y75996D01*
X172579D01*
X172811Y76102D01*
X173008Y76260D01*
X173169Y76469D01*
G01X174909Y75996D02*
Y79146D01*
X174516Y78516D01*
G01Y75996D02*
X175303D01*
G01X176748Y76469D02*
X176945Y76205D01*
X177173Y76047D01*
X177469Y75996D01*
X177764Y76102D01*
X177992Y76311D01*
X178157Y76677D01*
X178189Y77098D01*
X178126Y77520D01*
X177961Y77780D01*
X177732Y77992D01*
X177500Y78043D01*
X177272Y77992D01*
X176976Y77780D01*
X177075Y79146D01*
X177961D01*
G01X152000Y83669D02*
X151803Y83827D01*
X151575Y83933D01*
X151311D01*
X151016Y83776D01*
X150787Y83512D01*
X150622Y83197D01*
X150492Y82673D01*
X150461Y82201D01*
X150524Y81728D01*
X150622Y81413D01*
X150819Y81098D01*
X151051Y80890D01*
X151280Y80783D01*
X151508D01*
X151740Y80890D01*
X151937Y81047D01*
X152098Y81256D01*
G01X153839Y80783D02*
Y83933D01*
X153445Y83303D01*
G01Y80783D02*
X154232D01*
G01X156398Y83933D02*
X156134Y83827D01*
X155937Y83567D01*
X155807Y83252D01*
X155709Y82831D01*
X155677Y82358D01*
X155709Y81886D01*
X155807Y81465D01*
X155937Y81150D01*
X156134Y80890D01*
X156398Y80783D01*
X156661Y80890D01*
X156858Y81150D01*
X156988Y81465D01*
X157087Y81886D01*
X157118Y82358D01*
X157087Y82831D01*
X156988Y83252D01*
X156858Y83567D01*
X156661Y83827D01*
X156398Y83933D01*
G01X150622Y100075D02*
Y96925D01*
X151937D01*
G01X153839D02*
X154067Y96976D01*
X154331Y97134D01*
X154496Y97398D01*
X154559Y97764D01*
X154496Y98134D01*
X154299Y98449D01*
X154004Y98606D01*
X153673D01*
X153476Y98709D01*
X153315Y98972D01*
X153248Y99339D01*
X153346Y99709D01*
X153575Y99969D01*
X153839Y100075D01*
X154102Y99969D01*
X154331Y99709D01*
X154429Y99339D01*
X154362Y98972D01*
X154201Y98709D01*
X154004Y98606D01*
X153673D01*
X153378Y98449D01*
X153181Y98134D01*
X153118Y97764D01*
X153181Y97398D01*
X153346Y97134D01*
X153610Y96976D01*
X153839Y96925D01*
G01X151409Y92594D02*
Y89445D01*
X152724D01*
G01X154559D02*
X154626Y90126D01*
X154724Y90705D01*
X154854Y91228D01*
X155020Y91807D01*
X155283Y92594D01*
X153969D01*
G01X164772Y96031D02*
X164929Y96228D01*
X165035Y96457D01*
Y96720D01*
X164878Y97016D01*
X164614Y97244D01*
X164299Y97409D01*
X163776Y97539D01*
X163303Y97571D01*
X162831Y97508D01*
X162516Y97409D01*
X162201Y97213D01*
X161992Y96980D01*
X161886Y96752D01*
Y96524D01*
X161992Y96291D01*
X162150Y96094D01*
X162358Y95933D01*
G01X164512Y94815D02*
X164827Y94618D01*
X164984Y94390D01*
X165035Y94126D01*
X164929Y93799D01*
X164669Y93571D01*
X164354Y93504D01*
X164039Y93535D01*
X163776Y93669D01*
X163252Y94323D01*
X162882Y94618D01*
X162358Y94815D01*
X161886Y94882D01*
Y93504D01*
G01Y91701D02*
X162567Y91634D01*
X163146Y91535D01*
X163669Y91406D01*
X164248Y91240D01*
X165035Y90976D01*
Y92291D01*
G01X170866Y98787D02*
X170709Y98591D01*
X170602Y98362D01*
Y98098D01*
X170760Y97803D01*
X171024Y97575D01*
X171339Y97409D01*
X171862Y97280D01*
X172335Y97248D01*
X172807Y97311D01*
X173122Y97409D01*
X173437Y97606D01*
X173646Y97839D01*
X173752Y98067D01*
Y98295D01*
X173646Y98528D01*
X173488Y98724D01*
X173280Y98886D01*
G01X173752Y100626D02*
X170602D01*
X171232Y100232D01*
G01X173752D02*
Y101020D01*
G01X173386Y102626D02*
X173646Y102858D01*
X173752Y103118D01*
X173646Y103382D01*
X173331Y103610D01*
X172858Y103776D01*
X172386Y103843D01*
X171811D01*
X171339Y103776D01*
X170917Y103610D01*
X170709Y103413D01*
X170602Y103185D01*
X170709Y102921D01*
X170917Y102724D01*
X171232Y102594D01*
X171654Y102528D01*
X172020Y102594D01*
X172386Y102760D01*
X172598Y102957D01*
X172650Y103185D01*
X172543Y103449D01*
X172283Y103646D01*
X171811Y103843D01*
G01X152394Y107291D02*
X152197Y107449D01*
X151969Y107555D01*
X151705D01*
X151409Y107398D01*
X151181Y107134D01*
X151016Y106819D01*
X150886Y106295D01*
X150854Y105823D01*
X150917Y105350D01*
X151016Y105035D01*
X151213Y104720D01*
X151445Y104512D01*
X151673Y104406D01*
X151902D01*
X152134Y104512D01*
X152331Y104669D01*
X152492Y104878D01*
G01X154232Y104406D02*
X154461Y104457D01*
X154724Y104614D01*
X154890Y104878D01*
X154953Y105244D01*
X154890Y105614D01*
X154693Y105929D01*
X154398Y106087D01*
X154067D01*
X153870Y106189D01*
X153709Y106453D01*
X153642Y106819D01*
X153740Y107189D01*
X153969Y107449D01*
X154232Y107555D01*
X154496Y107449D01*
X154724Y107189D01*
X154823Y106819D01*
X154756Y106453D01*
X154594Y106189D01*
X154398Y106087D01*
X154067D01*
X153772Y105929D01*
X153575Y105614D01*
X153512Y105244D01*
X153575Y104878D01*
X153740Y104614D01*
X154004Y104457D01*
X154232Y104406D01*
G01X191173Y74091D02*
Y70941D01*
X192488D01*
G01X193831Y71307D02*
X194063Y71047D01*
X194323Y70941D01*
X194587Y71047D01*
X194815Y71362D01*
X194980Y71835D01*
X195047Y72307D01*
Y72882D01*
X194980Y73354D01*
X194815Y73776D01*
X194618Y73984D01*
X194390Y74091D01*
X194126Y73984D01*
X193929Y73776D01*
X193799Y73461D01*
X193732Y73039D01*
X193799Y72673D01*
X193965Y72307D01*
X194161Y72094D01*
X194390Y72043D01*
X194654Y72150D01*
X194850Y72409D01*
X195047Y72882D01*
G01X190346Y80740D02*
X190189Y80543D01*
X190083Y80315D01*
Y80051D01*
X190240Y79756D01*
X190504Y79528D01*
X190819Y79362D01*
X191343Y79232D01*
X191815Y79201D01*
X192287Y79264D01*
X192602Y79362D01*
X192917Y79559D01*
X193126Y79791D01*
X193232Y80020D01*
Y80248D01*
X193126Y80480D01*
X192969Y80677D01*
X192760Y80839D01*
G01X190606Y81957D02*
X190291Y82154D01*
X190134Y82382D01*
X190083Y82646D01*
X190189Y82972D01*
X190449Y83201D01*
X190764Y83268D01*
X191079Y83236D01*
X191343Y83102D01*
X191866Y82449D01*
X192236Y82154D01*
X192760Y81957D01*
X193232Y81890D01*
Y83268D01*
G01Y85138D02*
X193181Y85366D01*
X193024Y85630D01*
X192760Y85795D01*
X192394Y85858D01*
X192024Y85795D01*
X191709Y85598D01*
X191551Y85303D01*
Y84972D01*
X191449Y84776D01*
X191185Y84614D01*
X190819Y84547D01*
X190449Y84646D01*
X190189Y84874D01*
X190083Y85138D01*
X190189Y85402D01*
X190449Y85630D01*
X190819Y85728D01*
X191185Y85661D01*
X191449Y85500D01*
X191551Y85303D01*
Y84972D01*
X191709Y84677D01*
X192024Y84480D01*
X192394Y84417D01*
X192760Y84480D01*
X193024Y84646D01*
X193181Y84909D01*
X193232Y85138D01*
G01X208677Y86520D02*
X208835Y86717D01*
X208941Y86945D01*
Y87209D01*
X208783Y87504D01*
X208520Y87732D01*
X208205Y87898D01*
X207681Y88028D01*
X207209Y88059D01*
X206736Y87996D01*
X206421Y87898D01*
X206106Y87701D01*
X205898Y87469D01*
X205791Y87240D01*
Y87012D01*
X205898Y86780D01*
X206055Y86583D01*
X206264Y86421D01*
G01X205791Y84681D02*
X208941D01*
X208311Y85075D01*
G01X205791D02*
Y84287D01*
G01X207102Y82744D02*
X207472Y82516D01*
X207681Y82319D01*
X207787Y82055D01*
X207681Y81827D01*
X207472Y81661D01*
X207157Y81531D01*
X206787Y81500D01*
X206472Y81531D01*
X206157Y81661D01*
X205898Y81858D01*
X205791Y82091D01*
X205898Y82350D01*
X206213Y82583D01*
X206685Y82713D01*
X207209Y82744D01*
X207890Y82681D01*
X208260Y82583D01*
X208626Y82417D01*
X208890Y82189D01*
X208941Y81957D01*
X208835Y81728D01*
X208575Y81563D01*
G01X180157Y87150D02*
X179961Y87307D01*
X179732Y87413D01*
X179469D01*
X179173Y87256D01*
X178945Y86992D01*
X178780Y86677D01*
X178650Y86154D01*
X178618Y85681D01*
X178681Y85209D01*
X178780Y84894D01*
X178976Y84579D01*
X179209Y84370D01*
X179437Y84264D01*
X179665D01*
X179898Y84370D01*
X180094Y84528D01*
X180256Y84736D01*
G01X181996Y84264D02*
Y87413D01*
X181602Y86783D01*
G01Y84264D02*
X182390D01*
G01X184949D02*
Y87413D01*
X183736Y85157D01*
X185374D01*
G01X180150Y104799D02*
Y101650D01*
X181465D01*
G01X182646Y102122D02*
X182843Y101858D01*
X183071Y101701D01*
X183366Y101650D01*
X183661Y101756D01*
X183890Y101965D01*
X184055Y102331D01*
X184087Y102752D01*
X184024Y103173D01*
X183858Y103433D01*
X183630Y103646D01*
X183398Y103697D01*
X183169Y103646D01*
X182874Y103433D01*
X182972Y104799D01*
X183858D01*
G01X201256Y94654D02*
X198106D01*
Y93339D01*
G01Y91043D02*
X201256D01*
X199000Y92256D01*
Y90618D01*
G01X187630Y96138D02*
Y92988D01*
X188945D01*
G01X190126Y93618D02*
X190323Y93252D01*
X190583Y93039D01*
X190878Y92988D01*
X191142Y93039D01*
X191406Y93303D01*
X191567Y93618D01*
X191602Y93933D01*
X191535Y94299D01*
X191307Y94563D01*
X191075Y94669D01*
X190780D01*
G01X191075D02*
X191272Y94827D01*
X191437Y95087D01*
X191504Y95402D01*
X191437Y95717D01*
X191272Y95980D01*
X190976Y96138D01*
X190681Y96087D01*
X190386Y95874D01*
G01X207862Y96295D02*
X207665Y96453D01*
X207437Y96559D01*
X207173D01*
X206878Y96402D01*
X206650Y96138D01*
X206484Y95823D01*
X206354Y95299D01*
X206323Y94827D01*
X206386Y94354D01*
X206484Y94039D01*
X206681Y93724D01*
X206913Y93516D01*
X207142Y93409D01*
X207370D01*
X207602Y93516D01*
X207799Y93673D01*
X207961Y93882D01*
G01X209701Y93409D02*
Y96559D01*
X209307Y95929D01*
G01Y93409D02*
X210094D01*
G01X212260D02*
X212488Y93461D01*
X212752Y93618D01*
X212917Y93882D01*
X212980Y94248D01*
X212917Y94618D01*
X212720Y94933D01*
X212425Y95091D01*
X212094D01*
X211898Y95193D01*
X211736Y95457D01*
X211669Y95823D01*
X211768Y96193D01*
X211996Y96453D01*
X212260Y96559D01*
X212524Y96453D01*
X212752Y96193D01*
X212850Y95823D01*
X212783Y95457D01*
X212622Y95193D01*
X212425Y95091D01*
X212094D01*
X211799Y94933D01*
X211602Y94618D01*
X211539Y94248D01*
X211602Y93882D01*
X211768Y93618D01*
X212031Y93461D01*
X212260Y93409D01*
G01X191732Y103906D02*
X191575Y103709D01*
X191469Y103480D01*
Y103217D01*
X191626Y102921D01*
X191890Y102693D01*
X192205Y102528D01*
X192728Y102398D01*
X193201Y102366D01*
X193673Y102429D01*
X193988Y102528D01*
X194303Y102724D01*
X194512Y102957D01*
X194618Y103185D01*
Y103413D01*
X194512Y103646D01*
X194354Y103843D01*
X194146Y104004D01*
G01X194618Y105744D02*
X191469D01*
X192098Y105350D01*
G01X194618D02*
Y106138D01*
G01Y108236D02*
X193937Y108303D01*
X193358Y108402D01*
X192835Y108531D01*
X192256Y108697D01*
X191469Y108961D01*
Y107646D01*
G01X227925Y68780D02*
X228091Y68465D01*
X228287Y68256D01*
X228516Y68150D01*
X228780Y68256D01*
X228976Y68465D01*
X229173Y68780D01*
X229240Y69201D01*
Y71299D01*
G01X231142Y68150D02*
Y71299D01*
X230748Y70669D01*
G01Y68150D02*
X231535D01*
G54D11*
G01X23228Y55118D02*
X83071D01*
Y35039D01*
X23228D01*
Y55118D01*
X26772D01*
G01X25984Y92913D02*
X37795D01*
Y57087D01*
X25984D01*
Y92913D01*
X30315D01*
G01X108091Y49272D02*
X167933D01*
Y29193D01*
X108091D01*
Y49272D01*
X111634D01*
G01X145079Y110728D02*
Y81594D01*
X116339D01*
Y110728D01*
X145079D01*
G01X145591Y51181D02*
Y27559D01*
X129843D01*
Y51181D01*
X145591D01*
G01X213425Y86654D02*
X246890D01*
Y53189D01*
X213425D01*
Y86654D01*
G54D12*
G01X47193Y23886D02*
Y34382D01*
G01X66992Y23886D02*
X47193D01*
G01Y34382D02*
X66992D01*
G01X50295Y60346D02*
Y71846D01*
G01X56744Y60346D02*
X50295D01*
G01Y71846D02*
X56744D01*
G01X41240Y60346D02*
Y71846D01*
G01X47689Y60346D02*
X41240D01*
G01X47689Y71846D02*
Y60346D01*
G01X41240Y71846D02*
X47689D01*
G01X44646Y83929D02*
X56146D01*
G01X44646Y77480D02*
Y83929D01*
G01X56146Y77480D02*
X44646D01*
G01X56146Y83929D02*
Y77480D01*
G01X44646Y85358D02*
Y91807D01*
G01X56146Y85358D02*
X44646D01*
G01X56146Y91807D02*
Y85358D01*
G01X46173Y112154D02*
Y118602D01*
G01X57673Y112154D02*
X46173D01*
G01X44646Y91807D02*
X56146D01*
G01X46173Y118602D02*
X57673D01*
G01X66992Y34382D02*
Y23886D01*
G01X75492Y22945D02*
Y34445D01*
G01X81941Y22945D02*
X75492D01*
G01X81941Y34445D02*
Y22945D01*
G01X68012D02*
Y34445D01*
G01X74461Y22945D02*
X68012D01*
G01X74461Y34445D02*
Y22945D01*
G01X82173Y56201D02*
X70673D01*
G01X82173Y62650D02*
Y56201D01*
G01X70673D02*
Y62650D01*
G01X57984Y56248D02*
Y62697D01*
G01X69484Y56248D02*
X57984D01*
G01X69484Y62697D02*
Y56248D01*
G01X75492Y34445D02*
X81941D01*
G01X68012D02*
X74461D01*
G01X70756Y65256D02*
X59256D01*
G01X70756Y71705D02*
Y65256D01*
G01X59256Y71705D02*
X70756D01*
G01X59256Y65256D02*
Y71705D01*
G01X79626Y75480D02*
Y63980D01*
G01X73177Y75480D02*
X79626D01*
G01X73177Y63980D02*
Y75480D01*
G01X79626Y63980D02*
X73177D01*
G01X70673Y62650D02*
X82173D01*
G01X57984Y62697D02*
X69484D01*
G01X56744Y71846D02*
Y60346D01*
G01X57673Y118602D02*
Y112154D01*
G01X95539Y25921D02*
Y45720D01*
G01X106035Y25921D02*
X95539D01*
G01X106035Y45720D02*
Y25921D01*
G01X112201Y58472D02*
Y50976D01*
G01X96201D02*
Y58472D01*
G01X112201Y50976D02*
X96201D01*
G01X116071Y52516D02*
Y64016D01*
G01X122520Y52516D02*
X116071D01*
G01X95539Y45720D02*
X106035D01*
G01X96201Y58472D02*
X112201D01*
G01X109339Y60925D02*
X97839D01*
G01X109339Y67374D02*
Y60925D01*
G01X97839Y67374D02*
X109339D01*
G01X97839Y60925D02*
Y67374D01*
G01X112882Y85728D02*
X101382D01*
G01X112882Y92177D02*
Y85728D01*
G01X101382D02*
Y92177D01*
G01X116071Y64016D02*
X122520D01*
G01X109339Y69193D02*
X97839D01*
G01X109339Y75642D02*
Y69193D01*
G01X97839Y75642D02*
X109339D01*
G01X97839Y69193D02*
Y75642D01*
G01X114457Y77461D02*
X102957D01*
G01X114457Y83909D02*
Y77461D01*
G01X102957Y83909D02*
X114457D01*
G01X102957Y77461D02*
Y83909D01*
G01X116327Y80598D02*
X122776D01*
G01X116327Y69098D02*
Y80598D01*
G01X122776Y69098D02*
X116327D01*
G01X101382Y92177D02*
X112882D01*
G01X104441Y116240D02*
X115941D01*
G01X104441Y109791D02*
Y116240D01*
G01X115941Y109791D02*
X104441D01*
G01X115941Y116240D02*
Y109791D01*
G01X112488Y94783D02*
X100988D01*
G01X112488Y101232D02*
Y94783D01*
G01X100988Y101232D02*
X112488D01*
G01X100988Y94783D02*
Y101232D01*
G01X115638Y102264D02*
X104138D01*
G01X115638Y108713D02*
Y102264D01*
G01X104138Y108713D02*
X115638D01*
G01X104138Y102264D02*
Y108713D01*
G01X110520Y118012D02*
X99020D01*
G01X110520Y124461D02*
Y118012D01*
G01X99020Y124461D02*
X110520D01*
G01X99020Y118012D02*
Y124461D01*
G01X122520Y64016D02*
Y52516D01*
G01X152252Y52264D02*
X140752D01*
G01D02*
Y58713D01*
G01X135276Y52287D02*
X123776D01*
G01X135276Y58736D02*
Y52287D01*
G01X123776D02*
Y58736D01*
G01X122776Y80598D02*
Y69098D01*
G01X140752Y58713D02*
X152252D01*
G01X123776Y58736D02*
X135276D01*
G01X138287Y71150D02*
Y59650D01*
G01X131839Y71150D02*
X138287D01*
G01X131839Y59650D02*
Y71150D01*
G01X138287Y59650D02*
X131839D01*
G01X127484Y111965D02*
Y123465D01*
G01X133933Y111965D02*
X127484D01*
G01X133933Y123465D02*
Y111965D01*
G01X126059Y123469D02*
Y111969D01*
G01X119610D02*
Y123469D01*
G01X126059Y111969D02*
X119610D01*
G01X141807Y123469D02*
Y111969D01*
G01X135358D02*
Y123469D01*
G01X141807Y111969D02*
X135358D01*
G01X127484Y123465D02*
X133933D01*
G01X119610Y123469D02*
X126059D01*
G01X135358D02*
X141807D01*
G01X153472Y52516D02*
Y64016D01*
G01X159921Y52516D02*
X153472D01*
G01X159921Y64016D02*
Y52516D01*
G01X152252Y58713D02*
Y52264D01*
G01X168827Y82441D02*
Y93941D01*
G01X175276Y82441D02*
X168827D01*
G01X175276Y93941D02*
Y82441D01*
G01X153472Y64016D02*
X159921D01*
G01X180409Y74642D02*
X168909D01*
G01Y81091D02*
X180409D01*
G01X168909Y74642D02*
Y81091D01*
G01X187890Y82516D02*
X176390D01*
G01D02*
Y88965D01*
G01X158945Y79429D02*
X147445D01*
G01X158945Y85878D02*
Y79429D01*
G01X147445Y85878D02*
X158945D01*
G01X147445Y79429D02*
Y85878D01*
G01X158945Y95177D02*
X147445D01*
G01X158945Y101626D02*
Y95177D01*
G01X147445Y101626D02*
X158945D01*
G01X147445Y95177D02*
Y101626D01*
G01X158945Y87303D02*
X147445D01*
G01X158945Y93752D02*
Y87303D01*
G01X147445Y93752D02*
X158945D01*
G01X147445Y87303D02*
Y93752D01*
G01X187685Y100689D02*
X176185D01*
G01Y107138D02*
X187685D01*
G01X176185Y100689D02*
Y107138D01*
G01X168827Y93941D02*
X175276D01*
G01X160531Y88693D02*
Y100193D01*
G01X166980Y88693D02*
X160531D01*
G01X166980Y100193D02*
Y88693D01*
G01X160531Y100193D02*
X166980D01*
G01X176390Y88965D02*
X187890D01*
G01X175106Y106913D02*
Y95413D01*
G01X168657Y106913D02*
X175106D01*
G01X168657Y95413D02*
Y106913D01*
G01X175106Y95413D02*
X168657D01*
G01X158945Y103051D02*
X147445D01*
G01X158945Y109500D02*
Y103051D01*
G01X147445Y109500D02*
X158945D01*
G01X147445Y103051D02*
Y109500D01*
G01X200283Y69587D02*
X188783D01*
G01X200283Y76035D02*
Y69587D01*
G01X188783Y76035D02*
X200283D01*
G01X188783Y69587D02*
Y76035D01*
G01X195374Y88866D02*
Y77366D01*
G01X188925D02*
Y88866D01*
G01X195374Y77366D02*
X188925D01*
G01X180409Y81091D02*
Y74642D01*
G01X204437Y79181D02*
Y90681D01*
G01X210886Y79181D02*
X204437D01*
G01X187890Y88965D02*
Y82516D01*
G01X187685Y107138D02*
Y100689D01*
G01X196752Y86724D02*
Y98224D01*
G01X203201Y86724D02*
X196752D01*
G01X203201Y98224D02*
Y86724D01*
G01X196752Y98224D02*
X203201D01*
G01X195165Y91634D02*
X183665D01*
G01X195165Y98083D02*
Y91634D01*
G01X183665Y98083D02*
X195165D01*
G01X183665Y91634D02*
Y98083D01*
G01X188925Y88866D02*
X195374D01*
G01X215988Y91661D02*
X204488D01*
G01Y98110D02*
X215988D01*
G01X204488Y91661D02*
Y98110D01*
G01X195185Y112031D02*
Y100531D01*
G01X188736Y112031D02*
X195185D01*
G01X188736Y100531D02*
Y112031D01*
G01X195185Y100531D02*
X188736D01*
G01X204437Y90681D02*
X210886D01*
G01D02*
Y79181D01*
G01X215988Y98110D02*
Y91661D01*
M02*
