G04 ================== begin FILE IDENTIFICATION RECORD ==================*
G04 Layout Name:  c:/src/bsm-2/schematics/bsm-radio.brd*
G04 Film Name:    AssemblyTOP*
G04 File Format:  Gerber RS274X*
G04 File Origin:  16.0-s004*
G04 Origin Date:  Tue Jan 24 15:16:14 2012*
G04 *
G04 Layer:  USER PART NUMBER/ASSEMBLY_TOP*
G04 Layer:  TOLERANCE/ASSEMBLY_TOP*
G04 Layer:  REF DES/ASSEMBLY_TOP*
G04 Layer:  PACKAGE GEOMETRY/ASSEMBLY_TOP*
G04 Layer:  MANUFACTURING/PHOTOPLOT_OUTLINE*
G04 Layer:  DEVICE TYPE/ASSEMBLY_TOP*
G04 Layer:  COMPONENT VALUE/ASSEMBLY_TOP*
G04 Layer:  BOARD GEOMETRY/SWITCH_AREA_TOP*
G04 *
G04 Offset:    (0.000 0.000)*
G04 Mirror:    No*
G04 Mode:      Positive*
G04 Rotation:  0*
G04 FullContactRelief:  Yes*
G04 UndefLineWidth:     0.000*
G04 ================== end FILE IDENTIFICATION RECORD ====================*
%FSLAX53Y53*MOIN*%
%IR0*IPPOS*OFA0.00000B0.00000*MIA0B0*SFA1.00000B1.00000*%
%ADD10C,.007874*%
%ADD11C,.005906*%
%ADD12C,.000118*%
%ADD13C,.005984*%
G75*
%LPD*%
G75*
G54D10*
G01X187Y1024D02*
X155D01*
Y1033D01*
X157Y1036D01*
X160Y1039D01*
X165Y1039D01*
X169Y1039D01*
X172Y1037D01*
X174Y1033D01*
Y1024D01*
G01X180Y1052D02*
X184Y1055D01*
X186Y1058D01*
X187Y1061D01*
X186Y1065D01*
X183Y1068D01*
X180Y1070D01*
X177Y1070D01*
X174Y1069D01*
X171Y1067D01*
X170Y1064D01*
Y1060D01*
G01Y1064D02*
X168Y1066D01*
X166Y1068D01*
X162Y1069D01*
X159Y1068D01*
X157Y1066D01*
X155Y1063D01*
X156Y1059D01*
X158Y1056D01*
G01X160Y1083D02*
X157Y1085D01*
X156Y1088D01*
X155Y1091D01*
X156Y1095D01*
X159Y1098D01*
X162Y1099D01*
X165Y1098D01*
X168Y1097D01*
X173Y1089D01*
X177Y1085D01*
X182Y1083D01*
X187Y1082D01*
Y1099D01*
G01X505Y435D02*
Y449D01*
X497Y467D01*
G01X513D02*
X505Y449D01*
G01X527Y461D02*
X529Y464D01*
X532Y466D01*
X535Y467D01*
X539Y465D01*
X542Y463D01*
X543Y460D01*
X542Y457D01*
X541Y454D01*
X533Y449D01*
X529Y445D01*
X527Y440D01*
X526Y435D01*
X543D01*
G01X606Y267D02*
Y299D01*
X590D01*
G01X569D02*
Y267D01*
X573Y274D01*
G01Y299D02*
X564D01*
G01X549Y681D02*
X551Y684D01*
X552Y686D01*
Y690D01*
X550Y693D01*
X548Y696D01*
X545Y698D01*
X539Y699D01*
X535Y700D01*
X530Y699D01*
X527Y698D01*
X524Y695D01*
X521Y693D01*
X520Y690D01*
Y687D01*
X521Y684D01*
X523Y682D01*
X525Y680D01*
G01X547Y668D02*
X550Y666D01*
X551Y663D01*
X552Y660D01*
X551Y656D01*
X548Y653D01*
X545Y652D01*
X542Y653D01*
X539Y654D01*
X534Y662D01*
X530Y666D01*
X525Y668D01*
X520Y669D01*
Y652D01*
G01Y631D02*
X552D01*
X546Y636D01*
G01X520D02*
Y626D01*
G01X463Y681D02*
X464Y684D01*
X465Y686D01*
Y690D01*
X464Y693D01*
X461Y696D01*
X458Y698D01*
X453Y699D01*
X448Y700D01*
X443Y699D01*
X440Y698D01*
X437Y695D01*
X435Y693D01*
X434Y690D01*
Y687D01*
X435Y684D01*
X436Y682D01*
X439Y680D01*
G01X460Y668D02*
X463Y666D01*
X465Y663D01*
X465Y660D01*
X464Y656D01*
X462Y653D01*
X459Y652D01*
X455Y653D01*
X453Y654D01*
X447Y662D01*
X444Y666D01*
X439Y668D01*
X434Y669D01*
Y652D01*
G01X465Y631D02*
X464Y634D01*
X462Y636D01*
X459Y638D01*
X454Y639D01*
X450Y640D01*
X445Y639D01*
X441Y638D01*
X437Y636D01*
X435Y634D01*
X434Y631D01*
X435Y628D01*
X437Y625D01*
X441Y624D01*
X445Y623D01*
X450Y622D01*
X454Y623D01*
X459Y624D01*
X462Y625D01*
X464Y628D01*
X465Y631D01*
G01X486Y822D02*
X484Y823D01*
X481Y824D01*
X478D01*
X475Y823D01*
X472Y820D01*
X470Y817D01*
X468Y812D01*
X468Y807D01*
X469Y802D01*
X470Y799D01*
X472Y796D01*
X475Y794D01*
X478Y793D01*
X481D01*
X483Y794D01*
X486Y796D01*
X488Y798D01*
G01X507Y793D02*
Y824D01*
X503Y818D01*
G01Y793D02*
X512D01*
G01X537D02*
Y824D01*
X532Y818D01*
G01Y793D02*
X542D01*
G01X492Y897D02*
X490Y898D01*
X487Y899D01*
X484D01*
X481Y898D01*
X478Y895D01*
X476Y892D01*
X474Y887D01*
X474Y882D01*
X475Y877D01*
X476Y874D01*
X478Y871D01*
X481Y869D01*
X484Y868D01*
X486D01*
X489Y869D01*
X492Y870D01*
X494Y872D01*
G01X506Y881D02*
X509Y885D01*
X511Y887D01*
X514Y888D01*
X517Y887D01*
X519Y885D01*
X520Y881D01*
X521Y878D01*
X520Y875D01*
X519Y871D01*
X516Y869D01*
X514Y868D01*
X511Y869D01*
X508Y872D01*
X506Y877D01*
X506Y882D01*
X507Y889D01*
X508Y892D01*
X510Y896D01*
X512Y899D01*
X515Y899D01*
X518Y898D01*
X520Y896D01*
G01X311Y661D02*
Y676D01*
X303Y693D01*
G01X319D02*
X311Y676D01*
G01X341Y661D02*
Y693D01*
X336Y687D01*
G01Y661D02*
X345D01*
G01X512Y1169D02*
X509Y1170D01*
X506Y1171D01*
X503D01*
X500Y1170D01*
X497Y1167D01*
X495Y1164D01*
X494Y1159D01*
X493Y1154D01*
X494Y1149D01*
X495Y1146D01*
X497Y1143D01*
X500Y1141D01*
X503Y1140D01*
X506D01*
X508Y1141D01*
X511Y1142D01*
X513Y1144D01*
G01X526Y1143D02*
X529Y1141D01*
X532Y1140D01*
X535Y1141D01*
X538Y1144D01*
X540Y1149D01*
X540Y1153D01*
Y1159D01*
X540Y1164D01*
X538Y1168D01*
X535Y1170D01*
X532Y1171D01*
X529Y1170D01*
X527Y1168D01*
X525Y1165D01*
X525Y1161D01*
X525Y1157D01*
X527Y1153D01*
X530Y1151D01*
X532Y1151D01*
X536Y1152D01*
X538Y1154D01*
X540Y1159D01*
G01X801Y292D02*
X803Y294D01*
X804Y297D01*
Y300D01*
X802Y303D01*
X800Y306D01*
X797Y308D01*
X791Y310D01*
X787Y310D01*
X782Y309D01*
X779Y308D01*
X776Y306D01*
X773Y303D01*
X772Y300D01*
Y297D01*
X773Y295D01*
X775Y292D01*
X777Y290D01*
G01X779Y279D02*
X775Y277D01*
X773Y274D01*
X772Y270D01*
X773Y267D01*
X776Y264D01*
X779Y262D01*
X782Y262D01*
X786Y262D01*
X788Y265D01*
X789Y268D01*
Y271D01*
G01Y268D02*
X791Y266D01*
X793Y264D01*
X797Y263D01*
X800Y264D01*
X802Y266D01*
X804Y269D01*
X803Y273D01*
X801Y276D01*
G01X723Y292D02*
X724Y294D01*
X725Y297D01*
Y300D01*
X724Y303D01*
X721Y306D01*
X718Y308D01*
X713Y310D01*
X708Y310D01*
X703Y309D01*
X700Y308D01*
X697Y306D01*
X695Y303D01*
X694Y300D01*
Y297D01*
X695Y295D01*
X696Y292D01*
X698Y290D01*
G01X720Y278D02*
X723Y276D01*
X725Y273D01*
X725Y270D01*
X724Y266D01*
X721Y263D01*
X718Y262D01*
X715Y263D01*
X713Y264D01*
X707Y272D01*
X704Y276D01*
X698Y278D01*
X694Y279D01*
Y262D01*
G01X752Y604D02*
X749Y606D01*
X747Y607D01*
X744D01*
X740Y605D01*
X737Y603D01*
X735Y600D01*
X734Y594D01*
X733Y590D01*
X734Y585D01*
X735Y582D01*
X738Y579D01*
X740Y577D01*
X743Y576D01*
X746D01*
X749Y577D01*
X751Y578D01*
X753Y580D01*
G01X765Y602D02*
X768Y605D01*
X770Y607D01*
X773Y607D01*
X777Y606D01*
X780Y603D01*
X781Y600D01*
X781Y597D01*
X779Y594D01*
X771Y589D01*
X768Y586D01*
X765Y580D01*
X764Y576D01*
X781D01*
G01X794Y582D02*
X796Y578D01*
X799Y576D01*
X803Y576D01*
X806Y576D01*
X809Y579D01*
X811Y582D01*
X811Y585D01*
X810Y589D01*
X808Y591D01*
X805Y592D01*
X801D01*
G01X805D02*
X807Y594D01*
X809Y597D01*
X810Y600D01*
X809Y603D01*
X807Y605D01*
X804Y607D01*
X800Y607D01*
X797Y604D01*
G01X637Y670D02*
Y702D01*
X647D01*
X650Y700D01*
X652Y698D01*
X653Y694D01*
X652Y689D01*
X649Y687D01*
X647Y685D01*
X637D01*
G01X647D02*
X653Y670D01*
G01X674D02*
X677Y671D01*
X680Y672D01*
X682Y675D01*
X683Y678D01*
X682Y682D01*
X680Y685D01*
X676Y687D01*
X672D01*
X670Y688D01*
X668Y691D01*
X667Y694D01*
X668Y698D01*
X671Y700D01*
X674Y702D01*
X677Y700D01*
X680Y698D01*
X681Y694D01*
X681Y691D01*
X679Y688D01*
X676Y687D01*
X672D01*
X669Y685D01*
X666Y682D01*
X666Y678D01*
X666Y675D01*
X668Y672D01*
X671Y671D01*
X674Y670D01*
G01X783Y664D02*
X751D01*
Y674D01*
X753Y677D01*
X755Y679D01*
X759Y680D01*
X763Y679D01*
X766Y677D01*
X767Y674D01*
Y664D01*
G01Y674D02*
X783Y680D01*
G01Y702D02*
X751D01*
X758Y697D01*
G01X783D02*
Y706D01*
G01X756Y724D02*
X753Y726D01*
X752Y729D01*
X751Y732D01*
X752Y736D01*
X755Y739D01*
X758Y740D01*
X761Y739D01*
X764Y738D01*
X769Y730D01*
X773Y726D01*
X778Y724D01*
X783Y723D01*
Y740D01*
G01X662Y577D02*
X664Y575D01*
X667Y574D01*
X670D01*
X673Y576D01*
X676Y578D01*
X678Y581D01*
X680Y587D01*
X680Y591D01*
X679Y596D01*
X678Y599D01*
X676Y602D01*
X673Y604D01*
X670Y606D01*
X668D01*
X665Y604D01*
X662Y603D01*
X660Y601D01*
G01X648Y579D02*
X646Y576D01*
X643Y575D01*
X640Y574D01*
X636Y575D01*
X633Y578D01*
X632Y581D01*
X633Y584D01*
X634Y587D01*
X642Y592D01*
X646Y596D01*
X648Y601D01*
X649Y606D01*
X632D01*
G01X619Y579D02*
X616Y576D01*
X614Y575D01*
X610Y574D01*
X606Y575D01*
X604Y578D01*
X603Y581D01*
X603Y584D01*
X605Y587D01*
X613Y592D01*
X616Y596D01*
X619Y601D01*
X619Y606D01*
X603D01*
G01X774Y1025D02*
Y1003D01*
X776Y998D01*
X779Y995D01*
X783Y994D01*
X787Y995D01*
X790Y998D01*
X792Y1003D01*
Y1025D01*
G01X813Y994D02*
Y1025D01*
X808Y1019D01*
G01Y994D02*
X817D01*
G01X1023Y560D02*
X1020Y562D01*
X1018Y563D01*
X1015D01*
X1011Y561D01*
X1008Y558D01*
X1006Y555D01*
X1005Y550D01*
X1004Y545D01*
X1005Y541D01*
X1006Y537D01*
X1009Y534D01*
X1011Y532D01*
X1014Y531D01*
X1017D01*
X1020Y532D01*
X1022Y534D01*
X1024Y536D01*
G01X1036Y557D02*
X1039Y561D01*
X1041Y562D01*
X1044Y563D01*
X1048Y562D01*
X1051Y559D01*
X1052Y556D01*
X1052Y553D01*
X1050Y550D01*
X1042Y545D01*
X1039Y541D01*
X1036Y536D01*
X1035Y531D01*
X1052D01*
G01X1066Y544D02*
X1068Y548D01*
X1071Y550D01*
X1074Y551D01*
X1077Y550D01*
X1079Y548D01*
X1080Y545D01*
X1081Y541D01*
X1080Y538D01*
X1079Y535D01*
X1076Y532D01*
X1074Y531D01*
X1070Y532D01*
X1068Y535D01*
X1066Y540D01*
X1066Y545D01*
X1066Y552D01*
X1068Y556D01*
X1070Y560D01*
X1072Y562D01*
X1075Y563D01*
X1078Y562D01*
X1080Y559D01*
G01X1004Y311D02*
X1035D01*
Y327D01*
G01X1022Y341D02*
X1018Y344D01*
X1016Y346D01*
X1015Y350D01*
X1016Y352D01*
X1018Y354D01*
X1021Y356D01*
X1025Y356D01*
X1028Y356D01*
X1031Y354D01*
X1034Y352D01*
X1035Y349D01*
X1034Y346D01*
X1031Y343D01*
X1026Y342D01*
X1021Y341D01*
X1014Y342D01*
X1010Y343D01*
X1007Y345D01*
X1004Y348D01*
X1004Y351D01*
X1005Y353D01*
X1007Y355D01*
G01X1027Y619D02*
Y650D01*
X1036D01*
X1040Y649D01*
X1042Y647D01*
X1042Y642D01*
X1042Y638D01*
X1039Y636D01*
X1036Y634D01*
X1027D01*
G01X1036D02*
X1042Y619D01*
G01X1056Y645D02*
X1059Y648D01*
X1062Y650D01*
X1065Y650D01*
X1069Y649D01*
X1071Y647D01*
X1072Y644D01*
X1072Y640D01*
X1070Y638D01*
X1062Y633D01*
X1059Y629D01*
X1056Y624D01*
X1056Y619D01*
X1072D01*
G01X1046Y871D02*
Y902D01*
X1056D01*
X1059Y901D01*
X1061Y899D01*
X1062Y894D01*
X1061Y890D01*
X1059Y888D01*
X1056Y886D01*
X1046D01*
G01X1056D02*
X1062Y871D01*
G01X1075Y876D02*
X1077Y873D01*
X1080Y871D01*
X1084Y871D01*
X1087Y872D01*
X1090Y874D01*
X1092Y878D01*
X1092Y882D01*
X1092Y886D01*
X1090Y889D01*
X1087Y891D01*
X1084Y891D01*
X1081Y891D01*
X1078Y889D01*
X1079Y902D01*
X1090D01*
G01X1015Y705D02*
Y737D01*
X1025D01*
X1028Y735D01*
X1030Y733D01*
X1031Y729D01*
X1030Y725D01*
X1027Y722D01*
X1025Y721D01*
X1015D01*
G01X1025D02*
X1031Y705D01*
G01X1044Y712D02*
X1046Y708D01*
X1049Y706D01*
X1053Y705D01*
X1056Y706D01*
X1059Y709D01*
X1061Y712D01*
X1061Y715D01*
X1060Y719D01*
X1058Y721D01*
X1055Y722D01*
X1051D01*
G01X1055D02*
X1057Y724D01*
X1059Y726D01*
X1060Y730D01*
X1059Y733D01*
X1057Y735D01*
X1054Y737D01*
X1050Y736D01*
X1047Y734D01*
G01X1079Y817D02*
X1076Y819D01*
X1073Y820D01*
X1070D01*
X1067Y818D01*
X1064Y815D01*
X1062Y812D01*
X1060Y807D01*
X1060Y802D01*
X1061Y798D01*
X1062Y794D01*
X1064Y791D01*
X1067Y789D01*
X1070Y788D01*
X1073D01*
X1075Y789D01*
X1078Y791D01*
X1080Y793D01*
G01X1099Y788D02*
Y820D01*
X1095Y813D01*
G01Y788D02*
X1104D01*
G01X1127Y1149D02*
Y1117D01*
X1117D01*
X1114Y1119D01*
X1112Y1121D01*
X1111Y1125D01*
X1112Y1129D01*
X1114Y1132D01*
X1117Y1134D01*
X1127D01*
G01X1117D02*
X1111Y1149D01*
G01X1090D02*
Y1117D01*
X1094Y1124D01*
G01Y1149D02*
X1085D01*
G01X1060Y1117D02*
X1063Y1118D01*
X1066Y1121D01*
X1067Y1124D01*
X1068Y1128D01*
X1069Y1133D01*
X1068Y1138D01*
X1067Y1142D01*
X1066Y1145D01*
X1063Y1148D01*
X1060Y1149D01*
X1057Y1148D01*
X1055Y1145D01*
X1053Y1142D01*
X1052Y1138D01*
X1051Y1133D01*
X1052Y1128D01*
X1053Y1124D01*
X1055Y1121D01*
X1057Y1118D01*
X1060Y1117D01*
G01X1046Y957D02*
Y989D01*
X1056D01*
X1059Y987D01*
X1061Y985D01*
X1062Y981D01*
X1061Y977D01*
X1059Y974D01*
X1056Y973D01*
X1046D01*
G01X1056D02*
X1062Y957D01*
G01X1088D02*
Y989D01*
X1074Y966D01*
X1094D01*
G01X1082Y1040D02*
Y1072D01*
X1092D01*
X1095Y1070D01*
X1097Y1068D01*
X1097Y1064D01*
X1097Y1060D01*
X1094Y1057D01*
X1092Y1055D01*
X1082D01*
G01X1092D02*
X1097Y1040D01*
G01X1112Y1053D02*
X1114Y1057D01*
X1117Y1059D01*
X1120Y1060D01*
X1123Y1059D01*
X1125Y1057D01*
X1126Y1054D01*
X1127Y1050D01*
X1126Y1047D01*
X1125Y1044D01*
X1122Y1041D01*
X1119Y1040D01*
X1116Y1041D01*
X1114Y1044D01*
X1112Y1049D01*
X1112Y1054D01*
X1112Y1061D01*
X1114Y1065D01*
X1116Y1068D01*
X1118Y1071D01*
X1121Y1072D01*
X1124Y1071D01*
X1126Y1068D01*
G01X1059Y1226D02*
X1056Y1228D01*
X1054Y1229D01*
X1051D01*
X1047Y1228D01*
X1044Y1225D01*
X1042Y1222D01*
X1041Y1216D01*
X1040Y1212D01*
X1041Y1207D01*
X1042Y1204D01*
X1045Y1201D01*
X1047Y1199D01*
X1050Y1198D01*
X1053D01*
X1056Y1199D01*
X1058Y1200D01*
X1060Y1202D01*
G01X1079Y1198D02*
X1080Y1204D01*
X1081Y1210D01*
X1082Y1215D01*
X1084Y1221D01*
X1088Y1229D01*
X1072D01*
G01X1204Y381D02*
Y395D01*
X1196Y412D01*
G01X1212D02*
X1204Y395D01*
G01X1238Y381D02*
Y412D01*
X1224Y389D01*
X1243D01*
G01X1362Y407D02*
X1376D01*
X1393Y415D01*
G01Y400D02*
X1376Y407D01*
G01X1368Y387D02*
X1364Y384D01*
X1362Y381D01*
X1362Y378D01*
X1362Y374D01*
X1365Y371D01*
X1368Y369D01*
X1371Y369D01*
X1375Y370D01*
X1378Y372D01*
X1379Y375D01*
Y379D01*
G01Y375D02*
X1380Y373D01*
X1383Y371D01*
X1386Y370D01*
X1389Y371D01*
X1392Y373D01*
X1393Y376D01*
X1393Y380D01*
X1391Y383D01*
G01X1182Y616D02*
X1214D01*
Y606D01*
X1212Y603D01*
X1210Y601D01*
X1206Y600D01*
X1202Y601D01*
X1199Y603D01*
X1197Y606D01*
Y616D01*
G01Y606D02*
X1182Y600D01*
G01Y578D02*
X1214D01*
X1207Y583D01*
G01X1182D02*
Y573D01*
G01Y549D02*
X1214D01*
X1207Y553D01*
G01X1182D02*
Y544D01*
G01X1453Y561D02*
X1450Y563D01*
X1447Y564D01*
X1444D01*
X1441Y562D01*
X1438Y560D01*
X1436Y556D01*
X1434Y551D01*
X1434Y546D01*
X1435Y542D01*
X1436Y539D01*
X1438Y535D01*
X1441Y533D01*
X1444Y532D01*
X1447D01*
X1449Y533D01*
X1452Y535D01*
X1454Y537D01*
G01X1466Y559D02*
X1468Y562D01*
X1471Y563D01*
X1474Y564D01*
X1478Y563D01*
X1481Y560D01*
X1482Y557D01*
X1481Y554D01*
X1480Y551D01*
X1472Y546D01*
X1468Y542D01*
X1466Y537D01*
X1465Y532D01*
X1482D01*
G01X1494Y537D02*
X1497Y534D01*
X1499Y533D01*
X1503Y532D01*
X1506Y533D01*
X1509Y535D01*
X1511Y539D01*
X1512Y543D01*
X1511Y547D01*
X1509Y550D01*
X1506Y552D01*
X1503Y553D01*
X1501Y552D01*
X1497Y550D01*
X1498Y564D01*
X1509D01*
G01X1279Y569D02*
X1276Y571D01*
X1274Y572D01*
X1271D01*
X1267Y570D01*
X1264Y568D01*
X1262Y564D01*
X1261Y559D01*
X1260Y555D01*
X1261Y550D01*
X1262Y547D01*
X1265Y544D01*
X1267Y541D01*
X1270Y540D01*
X1273D01*
X1276Y541D01*
X1278Y543D01*
X1280Y545D01*
G01X1292Y567D02*
X1295Y570D01*
X1297Y571D01*
X1301Y572D01*
X1304Y571D01*
X1307Y568D01*
X1308Y565D01*
X1308Y562D01*
X1306Y559D01*
X1298Y554D01*
X1295Y550D01*
X1292Y545D01*
X1291Y540D01*
X1308D01*
G01X1334D02*
Y572D01*
X1319Y549D01*
X1339D01*
G01X1185Y740D02*
X1184Y738D01*
X1183Y735D01*
Y732D01*
X1184Y728D01*
X1187Y725D01*
X1190Y723D01*
X1195Y722D01*
X1200Y721D01*
X1205Y722D01*
X1208Y723D01*
X1211Y726D01*
X1213Y729D01*
X1214Y731D01*
Y734D01*
X1213Y737D01*
X1212Y739D01*
X1209Y741D01*
G01Y752D02*
X1212Y755D01*
X1214Y757D01*
X1214Y761D01*
X1213Y764D01*
X1211Y767D01*
X1207Y769D01*
X1203Y769D01*
X1199Y769D01*
X1196Y767D01*
X1194Y764D01*
X1194Y761D01*
X1194Y758D01*
X1196Y755D01*
X1183Y756D01*
Y767D01*
G01X1337Y634D02*
X1335Y631D01*
X1334Y629D01*
Y625D01*
X1335Y622D01*
X1338Y619D01*
X1341Y617D01*
X1346Y616D01*
X1351Y615D01*
X1356Y616D01*
X1359Y617D01*
X1362Y619D01*
X1364Y622D01*
X1365Y625D01*
Y628D01*
X1364Y631D01*
X1363Y633D01*
X1361Y635D01*
G01X1365Y655D02*
X1334D01*
X1340Y650D01*
G01X1365D02*
Y659D01*
G01X1359Y675D02*
X1363Y678D01*
X1365Y681D01*
X1365Y684D01*
X1365Y688D01*
X1362Y691D01*
X1359Y693D01*
X1356Y693D01*
X1352Y692D01*
X1350Y690D01*
X1349Y687D01*
Y683D01*
G01Y687D02*
X1347Y689D01*
X1344Y691D01*
X1341Y692D01*
X1338Y691D01*
X1335Y689D01*
X1334Y686D01*
X1334Y682D01*
X1337Y679D01*
G01X1288Y1194D02*
X1320D01*
Y1184D01*
X1318Y1181D01*
X1316Y1179D01*
X1312Y1179D01*
X1308Y1179D01*
X1305Y1182D01*
X1304Y1184D01*
Y1194D01*
G01Y1184D02*
X1288Y1179D01*
G01Y1157D02*
X1320D01*
X1314Y1162D01*
G01X1288D02*
Y1152D01*
G01X1218Y1157D02*
X1217Y1154D01*
X1216Y1152D01*
Y1149D01*
X1217Y1145D01*
X1220Y1142D01*
X1223Y1140D01*
X1228Y1139D01*
X1233Y1138D01*
X1238Y1139D01*
X1241Y1140D01*
X1244Y1143D01*
X1246Y1145D01*
X1247Y1148D01*
Y1151D01*
X1246Y1154D01*
X1244Y1156D01*
X1242Y1158D01*
G01X1247Y1178D02*
X1216D01*
X1222Y1173D01*
G01X1247D02*
Y1182D01*
G01X1221Y1200D02*
X1218Y1202D01*
X1216Y1205D01*
X1216Y1208D01*
X1217Y1212D01*
X1219Y1215D01*
X1222Y1216D01*
X1226Y1215D01*
X1228Y1214D01*
X1233Y1206D01*
X1237Y1202D01*
X1242Y1200D01*
X1247Y1199D01*
Y1216D01*
G01X1376Y1173D02*
X1374Y1170D01*
X1373Y1167D01*
Y1164D01*
X1375Y1161D01*
X1377Y1158D01*
X1380Y1156D01*
X1386Y1154D01*
X1390Y1154D01*
X1395Y1155D01*
X1398Y1156D01*
X1401Y1158D01*
X1403Y1161D01*
X1405Y1164D01*
Y1167D01*
X1403Y1169D01*
X1402Y1172D01*
X1400Y1174D01*
G01X1405Y1198D02*
X1373D01*
X1396Y1184D01*
Y1203D01*
G01X1309Y994D02*
X1286D01*
X1282Y992D01*
X1279Y989D01*
X1278Y985D01*
X1279Y981D01*
X1282Y978D01*
X1286Y977D01*
X1309D01*
G01X1304Y963D02*
X1307Y961D01*
X1309Y958D01*
X1309Y955D01*
X1308Y951D01*
X1305Y948D01*
X1302Y947D01*
X1299Y948D01*
X1296Y949D01*
X1291Y957D01*
X1288Y961D01*
X1282Y963D01*
X1278Y964D01*
Y947D01*
G01X1548Y596D02*
X1580D01*
Y586D01*
X1578Y583D01*
X1576Y581D01*
X1572Y580D01*
X1568Y581D01*
X1565Y583D01*
X1564Y586D01*
Y596D01*
G01Y586D02*
X1548Y580D01*
G01X1552Y565D02*
X1549Y562D01*
X1548Y559D01*
X1549Y556D01*
X1552Y553D01*
X1557Y551D01*
X1562Y551D01*
X1568D01*
X1572Y551D01*
X1577Y553D01*
X1579Y556D01*
X1580Y559D01*
X1579Y562D01*
X1577Y564D01*
X1573Y566D01*
X1569Y566D01*
X1566Y566D01*
X1562Y564D01*
X1560Y561D01*
X1559Y559D01*
X1560Y555D01*
X1563Y553D01*
X1568Y551D01*
G01X1745Y895D02*
X1714D01*
Y879D01*
G01X1740Y865D02*
X1743Y863D01*
X1745Y860D01*
X1745Y857D01*
X1744Y853D01*
X1741Y850D01*
X1738Y849D01*
X1735Y850D01*
X1733Y851D01*
X1727Y859D01*
X1724Y863D01*
X1718Y865D01*
X1714Y866D01*
Y849D01*
G01X1734Y789D02*
X1732Y790D01*
X1729Y791D01*
X1726D01*
X1722Y790D01*
X1720Y787D01*
X1718Y784D01*
X1716Y779D01*
X1716Y774D01*
X1716Y769D01*
X1718Y766D01*
X1720Y763D01*
X1723Y761D01*
X1725Y760D01*
X1728D01*
X1731Y761D01*
X1733Y763D01*
X1735Y765D01*
G01X1755Y760D02*
Y791D01*
X1750Y785D01*
G01Y760D02*
X1760D01*
G01X1776Y765D02*
X1778Y762D01*
X1781Y760D01*
X1785Y760D01*
X1788Y761D01*
X1791Y763D01*
X1793Y767D01*
X1793Y771D01*
X1792Y775D01*
X1790Y778D01*
X1788Y780D01*
X1785Y780D01*
X1782Y780D01*
X1779Y778D01*
X1780Y791D01*
X1790D01*
G01X1523Y837D02*
X1521Y838D01*
X1518Y839D01*
X1515D01*
X1512Y838D01*
X1509Y835D01*
X1507Y832D01*
X1505Y827D01*
X1505Y822D01*
X1506Y817D01*
X1507Y814D01*
X1509Y811D01*
X1512Y809D01*
X1515Y808D01*
X1518D01*
X1520Y809D01*
X1523Y810D01*
X1525Y813D01*
G01X1544Y808D02*
Y839D01*
X1540Y833D01*
G01Y808D02*
X1549D01*
G01X1574Y839D02*
X1571Y838D01*
X1568Y836D01*
X1567Y833D01*
X1566Y828D01*
X1565Y824D01*
X1566Y819D01*
X1567Y815D01*
X1568Y811D01*
X1571Y809D01*
X1574Y808D01*
X1577Y809D01*
X1579Y811D01*
X1581Y815D01*
X1582Y819D01*
X1582Y824D01*
X1582Y828D01*
X1581Y833D01*
X1579Y836D01*
X1577Y838D01*
X1574Y839D01*
G01X1507Y1001D02*
Y969D01*
X1523D01*
G01X1544D02*
X1547Y970D01*
X1550Y971D01*
X1552Y974D01*
X1553Y978D01*
X1552Y981D01*
X1550Y984D01*
X1546Y986D01*
X1542D01*
X1540Y987D01*
X1538Y990D01*
X1537Y993D01*
X1538Y997D01*
X1541Y1000D01*
X1544Y1001D01*
X1547Y1000D01*
X1550Y997D01*
X1551Y993D01*
X1551Y990D01*
X1549Y987D01*
X1546Y986D01*
X1542D01*
X1539Y984D01*
X1536Y981D01*
X1536Y978D01*
X1536Y974D01*
X1538Y971D01*
X1542Y970D01*
X1544Y969D01*
G01X1515Y926D02*
Y894D01*
X1531D01*
G01X1551D02*
X1552Y901D01*
X1553Y907D01*
X1555Y912D01*
X1557Y918D01*
X1560Y926D01*
X1544D01*
G01X1648Y957D02*
X1649Y959D01*
X1650Y962D01*
Y965D01*
X1649Y969D01*
X1646Y971D01*
X1643Y973D01*
X1638Y975D01*
X1633Y975D01*
X1628Y975D01*
X1625Y973D01*
X1622Y971D01*
X1620Y968D01*
X1619Y966D01*
Y963D01*
X1620Y960D01*
X1621Y958D01*
X1624Y956D01*
G01X1645Y944D02*
X1648Y941D01*
X1650Y938D01*
X1650Y935D01*
X1649Y931D01*
X1647Y929D01*
X1644Y928D01*
X1640Y928D01*
X1638Y930D01*
X1633Y938D01*
X1629Y941D01*
X1624Y944D01*
X1619Y944D01*
Y928D01*
G01Y907D02*
X1626Y906D01*
X1631Y905D01*
X1637Y904D01*
X1642Y902D01*
X1650Y899D01*
Y914D01*
G01X1709Y991D02*
X1707Y989D01*
X1706Y986D01*
Y983D01*
X1708Y979D01*
X1710Y977D01*
X1713Y975D01*
X1719Y973D01*
X1723Y973D01*
X1728Y974D01*
X1731Y975D01*
X1734Y977D01*
X1736Y980D01*
X1738Y983D01*
Y985D01*
X1736Y988D01*
X1735Y991D01*
X1733Y992D01*
G01X1738Y1012D02*
X1706D01*
X1712Y1007D01*
G01X1738D02*
Y1017D01*
G01X1734Y1035D02*
X1736Y1038D01*
X1738Y1041D01*
X1736Y1044D01*
X1733Y1047D01*
X1729Y1049D01*
X1724Y1050D01*
X1718D01*
X1713Y1049D01*
X1709Y1047D01*
X1707Y1044D01*
X1706Y1042D01*
X1707Y1039D01*
X1709Y1036D01*
X1712Y1035D01*
X1717Y1034D01*
X1720Y1035D01*
X1724Y1037D01*
X1726Y1039D01*
X1726Y1042D01*
X1725Y1045D01*
X1723Y1047D01*
X1718Y1050D01*
G01X1527Y1073D02*
X1525Y1074D01*
X1522Y1076D01*
X1519D01*
X1516Y1074D01*
X1513Y1071D01*
X1511Y1068D01*
X1509Y1063D01*
X1509Y1058D01*
X1510Y1054D01*
X1511Y1050D01*
X1513Y1047D01*
X1516Y1045D01*
X1519Y1044D01*
X1521D01*
X1524Y1045D01*
X1527Y1047D01*
X1529Y1049D01*
G01X1548Y1044D02*
X1551Y1045D01*
X1554Y1046D01*
X1556Y1049D01*
X1557Y1052D01*
X1556Y1056D01*
X1554Y1059D01*
X1550Y1061D01*
X1546D01*
X1544Y1062D01*
X1542Y1065D01*
X1541Y1068D01*
X1542Y1072D01*
X1545Y1074D01*
X1548Y1076D01*
X1551Y1074D01*
X1554Y1072D01*
X1555Y1068D01*
X1555Y1065D01*
X1553Y1062D01*
X1550Y1061D01*
X1546D01*
X1543Y1059D01*
X1540Y1056D01*
X1540Y1052D01*
X1540Y1049D01*
X1542Y1046D01*
X1545Y1045D01*
X1548Y1044D01*
G01X1912Y741D02*
Y709D01*
X1928D01*
G01X1943Y713D02*
X1946Y710D01*
X1949Y709D01*
X1952Y710D01*
X1955Y714D01*
X1957Y718D01*
X1958Y723D01*
Y729D01*
X1957Y734D01*
X1955Y738D01*
X1953Y740D01*
X1950Y741D01*
X1947Y740D01*
X1944Y738D01*
X1943Y735D01*
X1942Y730D01*
X1943Y727D01*
X1945Y723D01*
X1947Y721D01*
X1950Y720D01*
X1953Y721D01*
X1955Y724D01*
X1958Y729D01*
G01X1903Y811D02*
X1902Y808D01*
X1901Y806D01*
Y803D01*
X1902Y799D01*
X1905Y796D01*
X1908Y794D01*
X1913Y793D01*
X1918Y792D01*
X1923Y793D01*
X1926Y794D01*
X1929Y797D01*
X1931Y799D01*
X1932Y802D01*
Y805D01*
X1931Y808D01*
X1930Y810D01*
X1928Y812D01*
G01X1906Y824D02*
X1903Y827D01*
X1901Y829D01*
X1901Y832D01*
X1902Y836D01*
X1904Y839D01*
X1908Y840D01*
X1911Y840D01*
X1913Y838D01*
X1919Y830D01*
X1922Y827D01*
X1928Y824D01*
X1932Y823D01*
Y840D01*
G01Y861D02*
X1932Y864D01*
X1930Y867D01*
X1928Y869D01*
X1924Y870D01*
X1920Y869D01*
X1917Y867D01*
X1916Y863D01*
Y859D01*
X1914Y857D01*
X1912Y855D01*
X1908Y854D01*
X1904Y855D01*
X1902Y858D01*
X1901Y861D01*
X1902Y864D01*
X1904Y867D01*
X1908Y868D01*
X1912Y868D01*
X1914Y866D01*
X1916Y863D01*
Y859D01*
X1917Y856D01*
X1920Y853D01*
X1924Y853D01*
X1928Y853D01*
X1930Y855D01*
X1932Y858D01*
X1932Y861D01*
G01X2087Y862D02*
X2088Y864D01*
X2089Y867D01*
Y870D01*
X2088Y874D01*
X2085Y876D01*
X2082Y878D01*
X2077Y880D01*
X2072Y880D01*
X2067Y879D01*
X2064Y878D01*
X2061Y876D01*
X2059Y873D01*
X2058Y870D01*
Y868D01*
X2059Y865D01*
X2061Y863D01*
X2063Y861D01*
G01X2058Y841D02*
X2089D01*
X2083Y846D01*
G01X2058D02*
Y836D01*
G01X2071Y819D02*
X2075Y816D01*
X2077Y814D01*
X2078Y811D01*
X2077Y808D01*
X2075Y806D01*
X2072Y804D01*
X2068Y804D01*
X2065Y804D01*
X2062Y806D01*
X2059Y808D01*
X2058Y811D01*
X2059Y814D01*
X2062Y817D01*
X2067Y818D01*
X2072Y819D01*
X2079Y818D01*
X2083Y817D01*
X2086Y815D01*
X2089Y812D01*
X2089Y809D01*
X2088Y807D01*
X2086Y805D01*
G01X1805Y871D02*
X1803Y873D01*
X1800Y874D01*
X1797D01*
X1793Y873D01*
X1790Y870D01*
X1788Y867D01*
X1787Y862D01*
X1786Y857D01*
X1787Y852D01*
X1788Y849D01*
X1791Y846D01*
X1794Y844D01*
X1796Y843D01*
X1799D01*
X1802Y844D01*
X1804Y845D01*
X1806Y847D01*
G01X1826Y843D02*
Y874D01*
X1821Y868D01*
G01Y843D02*
X1831D01*
G01X1860D02*
Y874D01*
X1846Y852D01*
X1865D01*
G01X1802Y1048D02*
Y1016D01*
X1818D01*
G01X1831Y1021D02*
X1833Y1019D01*
X1836Y1017D01*
X1840Y1016D01*
X1843Y1018D01*
X1846Y1020D01*
X1848Y1023D01*
X1848Y1028D01*
X1847Y1032D01*
X1845Y1034D01*
X1843Y1036D01*
X1840Y1037D01*
X1837Y1036D01*
X1834Y1034D01*
X1835Y1048D01*
X1845D01*
G01X2013Y946D02*
X1981D01*
Y930D01*
G01Y904D02*
X2013D01*
X1990Y918D01*
Y899D01*
G01X1877Y961D02*
Y930D01*
X1893D01*
G01X1906Y936D02*
X1908Y933D01*
X1911Y930D01*
X1915Y930D01*
X1918Y930D01*
X1921Y933D01*
X1923Y936D01*
X1923Y939D01*
X1923Y943D01*
X1920Y946D01*
X1917Y947D01*
X1914D01*
G01X1917D02*
X1919Y948D01*
X1921Y951D01*
X1922Y954D01*
X1921Y957D01*
X1919Y960D01*
X1916Y961D01*
X1912Y961D01*
X1909Y959D01*
G01X2082Y963D02*
X2080Y965D01*
X2077Y966D01*
X2074D01*
X2070Y964D01*
X2067Y961D01*
X2066Y958D01*
X2064Y953D01*
X2064Y948D01*
X2064Y944D01*
X2066Y940D01*
X2068Y937D01*
X2071Y935D01*
X2073Y934D01*
X2076D01*
X2079Y935D01*
X2081Y937D01*
X2083Y939D01*
G01X2103Y934D02*
Y966D01*
X2098Y959D01*
G01Y934D02*
X2108D01*
G01X2132D02*
X2135Y935D01*
X2138Y936D01*
X2140Y939D01*
X2141Y942D01*
X2140Y946D01*
X2138Y949D01*
X2134Y951D01*
X2130D01*
X2128Y952D01*
X2126Y955D01*
X2125Y958D01*
X2127Y962D01*
X2129Y965D01*
X2132Y966D01*
X2136Y965D01*
X2138Y962D01*
X2140Y958D01*
X2139Y955D01*
X2137Y952D01*
X2134Y951D01*
X2130D01*
X2127Y949D01*
X2125Y946D01*
X2124Y942D01*
X2125Y939D01*
X2127Y936D01*
X2130Y935D01*
X2132Y934D01*
G01X1917Y1042D02*
X1916Y1040D01*
X1915Y1037D01*
Y1034D01*
X1916Y1031D01*
X1919Y1028D01*
X1922Y1026D01*
X1927Y1024D01*
X1932Y1024D01*
X1937Y1025D01*
X1940Y1026D01*
X1943Y1028D01*
X1945Y1031D01*
X1946Y1034D01*
Y1037D01*
X1945Y1039D01*
X1944Y1042D01*
X1941Y1044D01*
G01X1946Y1063D02*
X1915D01*
X1921Y1059D01*
G01X1946D02*
Y1068D01*
G01Y1092D02*
X1939Y1093D01*
X1934Y1094D01*
X1928Y1096D01*
X1923Y1098D01*
X1915Y1101D01*
Y1085D01*
G01X2364Y47D02*
X2332D01*
Y57D01*
X2334Y60D01*
X2338Y62D01*
X2342Y63D01*
X2346Y62D01*
X2349Y60D01*
X2351Y57D01*
Y47D01*
G01X2357Y76D02*
X2361Y78D01*
X2363Y81D01*
X2364Y85D01*
X2363Y88D01*
X2361Y91D01*
X2357Y93D01*
X2354Y94D01*
X2351Y93D01*
X2348Y90D01*
X2347Y87D01*
Y84D01*
G01Y87D02*
X2345Y90D01*
X2343Y92D01*
X2340Y93D01*
X2336Y92D01*
X2334Y90D01*
X2332Y86D01*
X2333Y83D01*
X2335Y79D01*
G01X2357Y106D02*
X2361Y108D01*
X2363Y111D01*
X2364Y115D01*
X2363Y118D01*
X2361Y121D01*
X2357Y123D01*
X2354Y123D01*
X2351Y122D01*
X2348Y120D01*
X2347Y117D01*
Y113D01*
G01Y117D02*
X2345Y119D01*
X2343Y121D01*
X2340Y122D01*
X2336Y121D01*
X2334Y119D01*
X2332Y116D01*
X2333Y112D01*
X2335Y109D01*
G01X2280Y688D02*
X2282Y685D01*
X2284Y683D01*
X2287Y681D01*
X2290Y683D01*
X2293Y685D01*
X2295Y688D01*
X2296Y692D01*
Y713D01*
G01X2317Y681D02*
Y713D01*
X2313Y707D01*
G01Y681D02*
X2322D01*
G54D11*
G01X232Y551D02*
X831D01*
Y350D01*
X232D01*
Y551D01*
X268D01*
G01X260Y913D02*
X378D01*
Y555D01*
X260D01*
Y913D01*
X303D01*
G01X1081Y493D02*
X1679D01*
Y292D01*
X1081D01*
Y493D01*
X1116D01*
G01X1451Y1107D02*
Y816D01*
X1163D01*
Y1107D01*
X1451D01*
G01X1456Y512D02*
Y276D01*
X1298D01*
Y512D01*
X1456D01*
G01X2134Y867D02*
X2469D01*
Y532D01*
X2134D01*
Y867D01*
G54D12*
G01X988Y1189D02*
Y788D01*
X581D01*
Y1193D01*
X988D01*
Y1187D01*
G54D13*
G01X472Y239D02*
Y344D01*
G01X670Y239D02*
X472D01*
G01Y344D02*
X670D01*
G01X503Y603D02*
Y718D01*
G01X567Y603D02*
X503D01*
G01Y718D02*
X567D01*
G01X412Y603D02*
Y718D01*
G01X477Y603D02*
X412D01*
G01X477Y718D02*
Y603D01*
G01X412Y718D02*
X477D01*
G01X446Y839D02*
X561D01*
G01X446Y775D02*
Y839D01*
G01X561Y775D02*
X446D01*
G01X561Y839D02*
Y775D01*
G01X446Y854D02*
Y918D01*
G01X561Y854D02*
X446D01*
G01X561Y918D02*
Y854D01*
G01X462Y1122D02*
Y1186D01*
G01X577Y1122D02*
X462D01*
G01X446Y918D02*
X561D01*
G01X462Y1186D02*
X577D01*
G01X670Y344D02*
Y239D01*
G01X755Y229D02*
Y344D01*
G01X819Y229D02*
X755D01*
G01X819Y344D02*
Y229D01*
G01X680D02*
Y344D01*
G01X745Y229D02*
X680D01*
G01X745Y344D02*
Y229D01*
G01X822Y562D02*
X707D01*
G01X822Y626D02*
Y562D01*
G01X707D02*
Y626D01*
G01X580Y562D02*
Y627D01*
G01X695Y562D02*
X580D01*
G01X695Y627D02*
Y562D01*
G01X755Y344D02*
X819D01*
G01X680D02*
X745D01*
G01X708Y653D02*
X593D01*
G01X708Y717D02*
Y653D01*
G01X593Y717D02*
X708D01*
G01X593Y653D02*
Y717D01*
G01X796Y755D02*
Y640D01*
G01X732Y755D02*
X796D01*
G01X732Y640D02*
Y755D01*
G01X796Y640D02*
X732D01*
G01X707Y626D02*
X822D01*
G01X580Y627D02*
X695D01*
G01X567Y718D02*
Y603D01*
G01X577Y1186D02*
Y1122D01*
G01X955Y259D02*
Y457D01*
G01X1060Y259D02*
X955D01*
G01X1060Y457D02*
Y259D01*
G01X1122Y585D02*
Y510D01*
G01X962D02*
Y585D01*
G01X1122Y510D02*
X962D01*
G01X1161Y525D02*
Y640D01*
G01X1225Y525D02*
X1161D01*
G01X955Y457D02*
X1060D01*
G01X962Y585D02*
X1122D01*
G01X1093Y609D02*
X978D01*
G01X1093Y674D02*
Y609D01*
G01X978Y674D02*
X1093D01*
G01X978Y609D02*
Y674D01*
G01X1129Y857D02*
X1014D01*
G01X1129Y922D02*
Y857D01*
G01X1014D02*
Y922D01*
G01X1161Y640D02*
X1225D01*
G01X1093Y692D02*
X978D01*
G01X1093Y756D02*
Y692D01*
G01X978Y756D02*
X1093D01*
G01X978Y692D02*
Y756D01*
G01X1145Y775D02*
X1030D01*
G01X1145Y839D02*
Y775D01*
G01X1030Y839D02*
X1145D01*
G01X1030Y775D02*
Y839D01*
G01X1163Y806D02*
X1228D01*
G01X1163Y691D02*
Y806D01*
G01X1228Y691D02*
X1163D01*
G01X1014Y922D02*
X1129D01*
G01X1044Y1162D02*
X1159D01*
G01X1044Y1098D02*
Y1162D01*
G01X1159Y1098D02*
X1044D01*
G01X1159Y1162D02*
Y1098D01*
G01X1125Y948D02*
X1010D01*
G01X1125Y1012D02*
Y948D01*
G01X1010Y1012D02*
X1125D01*
G01X1010Y948D02*
Y1012D01*
G01X1156Y1023D02*
X1041D01*
G01X1156Y1087D02*
Y1023D01*
G01X1041Y1087D02*
X1156D01*
G01X1041Y1023D02*
Y1087D01*
G01X1105Y1180D02*
X990D01*
G01X1105Y1245D02*
Y1180D01*
G01X990Y1245D02*
X1105D01*
G01X990Y1180D02*
Y1245D01*
G01X1225Y640D02*
Y525D01*
G01X1523Y523D02*
X1408D01*
G01D02*
Y587D01*
G01X1353Y523D02*
X1238D01*
G01X1353Y587D02*
Y523D01*
G01X1238D02*
Y587D01*
G01X1228Y806D02*
Y691D01*
G01X1408Y587D02*
X1523D01*
G01X1238Y587D02*
X1353D01*
G01X1383Y711D02*
Y596D01*
G01X1318Y711D02*
X1383D01*
G01X1318Y596D02*
Y711D01*
G01X1383Y596D02*
X1318D01*
G01X1275Y1120D02*
Y1235D01*
G01X1339Y1120D02*
X1275D01*
G01X1339Y1235D02*
Y1120D01*
G01X1261Y1235D02*
Y1120D01*
G01X1196D02*
Y1235D01*
G01X1261Y1120D02*
X1196D01*
G01X1418Y1235D02*
Y1120D01*
G01X1354D02*
Y1235D01*
G01X1418Y1120D02*
X1354D01*
G01X1275Y1235D02*
X1339D01*
G01X1196Y1235D02*
X1261D01*
G01X1354D02*
X1418D01*
G01X1535Y525D02*
Y640D01*
G01X1599Y525D02*
X1535D01*
G01X1599Y640D02*
Y525D01*
G01X1523Y587D02*
Y523D01*
G01X1688Y824D02*
Y939D01*
G01X1753Y824D02*
X1688D01*
G01X1753Y939D02*
Y824D01*
G01X1535Y640D02*
X1599D01*
G01X1804Y746D02*
X1689D01*
G01Y811D02*
X1804D01*
G01X1689Y746D02*
Y811D01*
G01X1879Y825D02*
X1764D01*
G01D02*
Y890D01*
G01X1589Y794D02*
X1474D01*
G01X1589Y859D02*
Y794D01*
G01X1474Y859D02*
X1589D01*
G01X1474Y794D02*
Y859D01*
G01X1589Y952D02*
X1474D01*
G01X1589Y1016D02*
Y952D01*
G01X1474Y1016D02*
X1589D01*
G01X1474Y952D02*
Y1016D01*
G01X1589Y873D02*
X1474D01*
G01X1589Y938D02*
Y873D01*
G01X1474Y938D02*
X1589D01*
G01X1474Y873D02*
Y938D01*
G01X1877Y1007D02*
X1762D01*
G01Y1071D02*
X1877D01*
G01X1762Y1007D02*
Y1071D01*
G01X1688Y939D02*
X1753D01*
G01X1605Y887D02*
Y1002D01*
G01X1670Y887D02*
X1605D01*
G01X1670Y1002D02*
Y887D01*
G01X1605Y1002D02*
X1670D01*
G01X1764Y890D02*
X1879D01*
G01X1751Y1069D02*
Y954D01*
G01X1687Y1069D02*
X1751D01*
G01X1687Y954D02*
Y1069D01*
G01X1751Y954D02*
X1687D01*
G01X1589Y1031D02*
X1474D01*
G01X1589Y1095D02*
Y1031D01*
G01X1474Y1095D02*
X1589D01*
G01X1474Y1031D02*
Y1095D01*
G01X2003Y696D02*
X1888D01*
G01X2003Y760D02*
Y696D01*
G01X1888Y760D02*
X2003D01*
G01X1888Y696D02*
Y760D01*
G01X1954Y889D02*
Y774D01*
G01X1889D02*
Y889D01*
G01X1954Y774D02*
X1889D01*
G01X1804Y811D02*
Y746D01*
G01X2044Y792D02*
Y907D01*
G01X2109Y792D02*
X2044D01*
G01X1879Y890D02*
Y825D01*
G01X1877Y1071D02*
Y1007D01*
G01X1968Y867D02*
Y982D01*
G01X2032Y867D02*
X1968D01*
G01X2032Y982D02*
Y867D01*
G01X1968Y982D02*
X2032D01*
G01X1952Y916D02*
X1837D01*
G01X1952Y981D02*
Y916D01*
G01X1837Y981D02*
X1952D01*
G01X1837Y916D02*
Y981D01*
G01X1889Y889D02*
X1954D01*
G01X2160Y917D02*
X2045D01*
G01Y981D02*
X2160D01*
G01X2045Y917D02*
Y981D01*
G01X1952Y1120D02*
Y1005D01*
G01X1887Y1120D02*
X1952D01*
G01X1887Y1005D02*
Y1120D01*
G01X1952Y1005D02*
X1887D01*
G01X2044Y907D02*
X2109D01*
G01D02*
Y792D01*
G01X2160Y981D02*
Y917D01*
M02*
