G04 ================== begin FILE IDENTIFICATION RECORD ==================*
G04 Layout Name:  c:/src/bsm-2/schematics/bsm-radio.brd*
G04 Film Name:    AssemblyTOP*
G04 File Format:  Gerber RS274X*
G04 File Origin:  16.0-s004*
G04 Origin Date:  Thu Jan 19 14:34:35 2012*
G04 *
G04 Layer:  USER PART NUMBER/ASSEMBLY_TOP*
G04 Layer:  TOLERANCE/ASSEMBLY_TOP*
G04 Layer:  REF DES/ASSEMBLY_TOP*
G04 Layer:  PACKAGE GEOMETRY/ASSEMBLY_TOP*
G04 Layer:  MANUFACTURING/PHOTOPLOT_OUTLINE*
G04 Layer:  DEVICE TYPE/ASSEMBLY_TOP*
G04 Layer:  COMPONENT VALUE/ASSEMBLY_TOP*
G04 Layer:  BOARD GEOMETRY/SWITCH_AREA_TOP*
G04 *
G04 Offset:    (0.000 0.000)*
G04 Mirror:    No*
G04 Mode:      Positive*
G04 Rotation:  0*
G04 FullContactRelief:  No*
G04 UndefLineWidth:     0.000*
G04 ================== end FILE IDENTIFICATION RECORD ====================*
%FSLAX55Y55*MOMM*%
%IR0*IPPOS*OFA0.00000B0.00000*MIA0B0*SFA1.00000B1.00000*%
%ADD10C,.2*%
%ADD11C,.15*%
%ADD12C,.152*%
G75*
%LPD*%
G75*
G54D10*
G01X1277900Y1105000D02*
Y1141000D01*
X1261200Y1185000D01*
G01X1294600D02*
X1277900Y1141000D01*
G01X1327100Y1171700D02*
X1332100Y1179700D01*
X1337900Y1183700D01*
X1344600Y1185000D01*
X1352900Y1182300D01*
X1358700Y1175700D01*
X1360400Y1167700D01*
X1359600Y1159700D01*
X1356200Y1153000D01*
X1339600Y1139700D01*
X1332100Y1130300D01*
X1327100Y1117000D01*
X1325400Y1105000D01*
X1360400D01*
G01X1540900Y678900D02*
Y758900D01*
X1507500D01*
G01X1459200D02*
Y678900D01*
X1469200Y694900D01*
G01Y758900D02*
X1449200D01*
G01X785000Y1720000D02*
Y1756000D01*
X768300Y1800000D01*
G01X801700D02*
X785000Y1756000D01*
G01X850000Y1720000D02*
Y1800000D01*
X840000Y1784000D01*
G01Y1720000D02*
X860000D01*
G01X1395200Y1739200D02*
X1399200Y1744200D01*
X1401900Y1750000D01*
Y1756700D01*
X1397900Y1764200D01*
X1391200Y1770000D01*
X1383200Y1774200D01*
X1369900Y1777500D01*
X1357900Y1778300D01*
X1345900Y1776700D01*
X1337900Y1774200D01*
X1329900Y1769200D01*
X1324600Y1763300D01*
X1321900Y1757500D01*
Y1751700D01*
X1324600Y1745800D01*
X1328600Y1740800D01*
X1333900Y1736700D01*
G01X1388600Y1708300D02*
X1396600Y1703300D01*
X1400600Y1697500D01*
X1401900Y1690800D01*
X1399200Y1682500D01*
X1392600Y1676700D01*
X1384600Y1675000D01*
X1376600Y1675800D01*
X1369900Y1679200D01*
X1356600Y1695800D01*
X1347200Y1703300D01*
X1333900Y1708300D01*
X1321900Y1710000D01*
Y1675000D01*
G01Y1627500D02*
X1401900D01*
X1385900Y1637500D01*
G01X1321900D02*
Y1617500D01*
G01X1175200Y1739200D02*
X1179200Y1744200D01*
X1181900Y1750000D01*
Y1756700D01*
X1177900Y1764200D01*
X1171200Y1770000D01*
X1163200Y1774200D01*
X1149900Y1777500D01*
X1137900Y1778300D01*
X1125900Y1776700D01*
X1117900Y1774200D01*
X1109900Y1769200D01*
X1104600Y1763300D01*
X1101900Y1757500D01*
Y1751700D01*
X1104600Y1745800D01*
X1108600Y1740800D01*
X1113900Y1736700D01*
G01X1168600Y1708300D02*
X1176600Y1703300D01*
X1180600Y1697500D01*
X1181900Y1690800D01*
X1179200Y1682500D01*
X1172600Y1676700D01*
X1164600Y1675000D01*
X1156600Y1675800D01*
X1149900Y1679200D01*
X1136600Y1695800D01*
X1127200Y1703300D01*
X1113900Y1708300D01*
X1101900Y1710000D01*
Y1675000D01*
G01X1181900Y1627500D02*
X1179200Y1634200D01*
X1172600Y1639200D01*
X1164600Y1642500D01*
X1153900Y1645000D01*
X1141900Y1645800D01*
X1129900Y1645000D01*
X1119200Y1642500D01*
X1111200Y1639200D01*
X1104600Y1634200D01*
X1101900Y1627500D01*
X1104600Y1620800D01*
X1111200Y1615800D01*
X1119200Y1612500D01*
X1129900Y1610000D01*
X1141900Y1609200D01*
X1153900Y1610000D01*
X1164600Y1612500D01*
X1172600Y1615800D01*
X1179200Y1620800D01*
X1181900Y1627500D01*
G01X1227000Y2087300D02*
X1222000Y2091300D01*
X1216200Y2094000D01*
X1209500D01*
X1202000Y2090000D01*
X1196200Y2083300D01*
X1192000Y2075300D01*
X1188700Y2062000D01*
X1187900Y2050000D01*
X1189500Y2038000D01*
X1192000Y2030000D01*
X1197000Y2022000D01*
X1202900Y2016700D01*
X1208700Y2014000D01*
X1214500D01*
X1220400Y2016700D01*
X1225400Y2020700D01*
X1229500Y2026000D01*
G01X1273700Y2014000D02*
Y2094000D01*
X1263700Y2078000D01*
G01Y2014000D02*
X1283700D01*
G01X1338700D02*
Y2094000D01*
X1328700Y2078000D01*
G01Y2014000D02*
X1348700D01*
G01X1242000Y2277400D02*
X1237000Y2281400D01*
X1231200Y2284100D01*
X1224500D01*
X1217000Y2280100D01*
X1211200Y2273400D01*
X1207000Y2265400D01*
X1203700Y2252100D01*
X1202900Y2240100D01*
X1204500Y2228100D01*
X1207000Y2220100D01*
X1212000Y2212100D01*
X1217900Y2206800D01*
X1223700Y2204100D01*
X1229500D01*
X1235400Y2206800D01*
X1240400Y2210800D01*
X1244500Y2216100D01*
G01X1272900Y2237400D02*
X1278700Y2246800D01*
X1283700Y2252100D01*
X1290400Y2254800D01*
X1296200Y2252100D01*
X1300400Y2246800D01*
X1303700Y2238800D01*
X1304500Y2229400D01*
X1303700Y2221400D01*
X1300400Y2213400D01*
X1295400Y2206800D01*
X1289500Y2204100D01*
X1282900Y2206800D01*
X1277000Y2214800D01*
X1273700Y2226800D01*
X1272900Y2240100D01*
X1274500Y2257400D01*
X1277000Y2266800D01*
X1281200Y2276100D01*
X1287000Y2282800D01*
X1292900Y2284100D01*
X1298700Y2281400D01*
X1302900Y2274800D01*
G01X1290800Y2968000D02*
X1285800Y2972000D01*
X1280000Y2974700D01*
X1273300D01*
X1265800Y2970700D01*
X1260000Y2964000D01*
X1255800Y2956000D01*
X1252500Y2942700D01*
X1251700Y2930700D01*
X1253300Y2918700D01*
X1255800Y2910700D01*
X1260800Y2902700D01*
X1266700Y2897400D01*
X1272500Y2894700D01*
X1278300D01*
X1284200Y2897400D01*
X1289200Y2901400D01*
X1293300Y2906700D01*
G01X1323300Y2904000D02*
X1329200Y2897400D01*
X1335800Y2894700D01*
X1342500Y2897400D01*
X1348300Y2905400D01*
X1352500Y2917400D01*
X1354200Y2929400D01*
Y2944000D01*
X1352500Y2956000D01*
X1348300Y2966700D01*
X1343300Y2972000D01*
X1337500Y2974700D01*
X1330800Y2972000D01*
X1325800Y2966700D01*
X1322500Y2958700D01*
X1320800Y2948000D01*
X1322500Y2938700D01*
X1326700Y2929400D01*
X1331700Y2924000D01*
X1337500Y2922700D01*
X1344200Y2925400D01*
X1349200Y2932000D01*
X1354200Y2944000D01*
G01X2035200Y749200D02*
X2039200Y754200D01*
X2041900Y760000D01*
Y766700D01*
X2037900Y774200D01*
X2031200Y780000D01*
X2023200Y784200D01*
X2009900Y787500D01*
X1997900Y788300D01*
X1985900Y786700D01*
X1977900Y784200D01*
X1969900Y779200D01*
X1964600Y773300D01*
X1961900Y767500D01*
Y761700D01*
X1964600Y755800D01*
X1968600Y750800D01*
X1973900Y746700D01*
G01X1977900Y720800D02*
X1968600Y715800D01*
X1963200Y709200D01*
X1961900Y701700D01*
X1963200Y695000D01*
X1969900Y688300D01*
X1977900Y684200D01*
X1985900Y683300D01*
X1995200Y685000D01*
X2001900Y690800D01*
X2004600Y696700D01*
Y704200D01*
G01Y696700D02*
X2008600Y691700D01*
X2015200Y687500D01*
X2023200Y685800D01*
X2031200Y687500D01*
X2037900Y691700D01*
X2041900Y699200D01*
X2040600Y706700D01*
X2035200Y714200D01*
G01X1835200Y749200D02*
X1839200Y754200D01*
X1841900Y760000D01*
Y766700D01*
X1837900Y774200D01*
X1831200Y780000D01*
X1823200Y784200D01*
X1809900Y787500D01*
X1797900Y788300D01*
X1785900Y786700D01*
X1777900Y784200D01*
X1769900Y779200D01*
X1764600Y773300D01*
X1761900Y767500D01*
Y761700D01*
X1764600Y755800D01*
X1768600Y750800D01*
X1773900Y746700D01*
G01X1828600Y718300D02*
X1836600Y713300D01*
X1840600Y707500D01*
X1841900Y700800D01*
X1839200Y692500D01*
X1832600Y686700D01*
X1824600Y685000D01*
X1816600Y685800D01*
X1809900Y689200D01*
X1796600Y705800D01*
X1787200Y713300D01*
X1773900Y718300D01*
X1761900Y720000D01*
Y685000D01*
G01X1900800Y1535200D02*
X1895800Y1539200D01*
X1890000Y1541900D01*
X1883300D01*
X1875800Y1537900D01*
X1870000Y1531200D01*
X1865800Y1523200D01*
X1862500Y1509900D01*
X1861700Y1497900D01*
X1863300Y1485900D01*
X1865800Y1477900D01*
X1870800Y1469900D01*
X1876700Y1464600D01*
X1882500Y1461900D01*
X1888300D01*
X1894200Y1464600D01*
X1899200Y1468600D01*
X1903300Y1473900D01*
G01X1931700Y1528600D02*
X1936700Y1536600D01*
X1942500Y1540600D01*
X1949200Y1541900D01*
X1957500Y1539200D01*
X1963300Y1532600D01*
X1965000Y1524600D01*
X1964200Y1516600D01*
X1960800Y1509900D01*
X1944200Y1496600D01*
X1936700Y1487200D01*
X1931700Y1473900D01*
X1930000Y1461900D01*
X1965000D01*
G01X1994200Y1477900D02*
X1999200Y1468600D01*
X2005800Y1463200D01*
X2013300Y1461900D01*
X2020000Y1463200D01*
X2026700Y1469900D01*
X2030800Y1477900D01*
X2031700Y1485900D01*
X2030000Y1495200D01*
X2024200Y1501900D01*
X2018300Y1504600D01*
X2010800D01*
G01X2018300D02*
X2023300Y1508600D01*
X2027500Y1515200D01*
X2029200Y1523200D01*
X2027500Y1531200D01*
X2023300Y1537900D01*
X2015800Y1541900D01*
X2008300Y1540600D01*
X2000800Y1535200D01*
G01X1615800Y1701900D02*
Y1781900D01*
X1636700D01*
X1643300Y1777900D01*
X1647500Y1772600D01*
X1649200Y1761900D01*
X1647500Y1751200D01*
X1642500Y1744600D01*
X1636700Y1740600D01*
X1615800D01*
G01X1636700D02*
X1649200Y1701900D01*
G01X1697500D02*
X1703300Y1703200D01*
X1710000Y1707200D01*
X1714200Y1713900D01*
X1715800Y1723200D01*
X1714200Y1732600D01*
X1709200Y1740600D01*
X1701700Y1744600D01*
X1693300D01*
X1688300Y1747200D01*
X1684200Y1753900D01*
X1682500Y1763200D01*
X1685000Y1772600D01*
X1690800Y1779200D01*
X1697500Y1781900D01*
X1704200Y1779200D01*
X1710000Y1772600D01*
X1712500Y1763200D01*
X1710800Y1753900D01*
X1706700Y1747200D01*
X1701700Y1744600D01*
X1693300D01*
X1685800Y1740600D01*
X1680800Y1732600D01*
X1679200Y1723200D01*
X1680800Y1713900D01*
X1685000Y1707200D01*
X1691700Y1703200D01*
X1697500Y1701900D01*
G01X1988100Y1685800D02*
X1908100D01*
Y1706700D01*
X1912100Y1713300D01*
X1917400Y1717500D01*
X1928100Y1719200D01*
X1938800Y1717500D01*
X1945400Y1712500D01*
X1949400Y1706700D01*
Y1685800D01*
G01Y1706700D02*
X1988100Y1719200D01*
G01Y1767500D02*
X1908100D01*
X1924100Y1757500D01*
G01X1988100D02*
Y1777500D01*
G01X1921400Y1816700D02*
X1913400Y1821700D01*
X1909400Y1827500D01*
X1908100Y1834200D01*
X1910800Y1842500D01*
X1917400Y1848300D01*
X1925400Y1850000D01*
X1933400Y1849200D01*
X1940100Y1845800D01*
X1953400Y1829200D01*
X1962800Y1821700D01*
X1976100Y1816700D01*
X1988100Y1815000D01*
Y1850000D01*
G01X1689200Y1464800D02*
X1694200Y1460800D01*
X1700000Y1458100D01*
X1706700D01*
X1714200Y1462100D01*
X1720000Y1468800D01*
X1724200Y1476800D01*
X1727500Y1490100D01*
X1728300Y1502100D01*
X1726700Y1514100D01*
X1724200Y1522100D01*
X1719200Y1530100D01*
X1713300Y1535400D01*
X1707500Y1538100D01*
X1701700D01*
X1695800Y1535400D01*
X1690800Y1531400D01*
X1686700Y1526100D01*
G01X1658300Y1471400D02*
X1653300Y1463400D01*
X1647500Y1459400D01*
X1640800Y1458100D01*
X1632500Y1460800D01*
X1626700Y1467400D01*
X1625000Y1475400D01*
X1625800Y1483400D01*
X1629200Y1490100D01*
X1645800Y1503400D01*
X1653300Y1512800D01*
X1658300Y1526100D01*
X1660000Y1538100D01*
X1625000D01*
G01X1593300Y1471400D02*
X1588300Y1463400D01*
X1582500Y1459400D01*
X1575800Y1458100D01*
X1567500Y1460800D01*
X1561700Y1467400D01*
X1560000Y1475400D01*
X1560800Y1483400D01*
X1564200Y1490100D01*
X1580800Y1503400D01*
X1588300Y1512800D01*
X1593300Y1526100D01*
X1595000Y1538100D01*
X1560000D01*
G01X1915000Y2464200D02*
X1972300D01*
X1984300Y2467500D01*
X1992300Y2474200D01*
X1995000Y2482500D01*
X1992300Y2490800D01*
X1984300Y2497500D01*
X1972300Y2500800D01*
X1915000D01*
G01X1995000Y2547500D02*
X1915000D01*
X1931000Y2537500D01*
G01X1995000D02*
Y2557500D01*
G01X2589200Y1422500D02*
X2584200Y1426500D01*
X2578400Y1429200D01*
X2571700D01*
X2564200Y1425200D01*
X2558400Y1418500D01*
X2554200Y1410500D01*
X2550900Y1397200D01*
X2550100Y1385200D01*
X2551700Y1373200D01*
X2554200Y1365200D01*
X2559200Y1357200D01*
X2565100Y1351900D01*
X2570900Y1349200D01*
X2576700D01*
X2582600Y1351900D01*
X2587600Y1355900D01*
X2591700Y1361200D01*
G01X2620100Y1415900D02*
X2625100Y1423900D01*
X2630900Y1427900D01*
X2637600Y1429200D01*
X2645900Y1426500D01*
X2651700Y1419900D01*
X2653400Y1411900D01*
X2652600Y1403900D01*
X2649200Y1397200D01*
X2632600Y1383900D01*
X2625100Y1374500D01*
X2620100Y1361200D01*
X2618400Y1349200D01*
X2653400D01*
G01X2685100Y1382500D02*
X2690900Y1391900D01*
X2695900Y1397200D01*
X2702600Y1399900D01*
X2708400Y1397200D01*
X2712600Y1391900D01*
X2715900Y1383900D01*
X2716700Y1374500D01*
X2715900Y1366500D01*
X2712600Y1358500D01*
X2707600Y1351900D01*
X2701700Y1349200D01*
X2695100Y1351900D01*
X2689200Y1359900D01*
X2685900Y1371900D01*
X2685100Y1385200D01*
X2686700Y1402500D01*
X2689200Y1411900D01*
X2693400Y1421200D01*
X2699200Y1427900D01*
X2705100Y1429200D01*
X2710900Y1426500D01*
X2715100Y1419900D01*
G01X2548900Y789100D02*
X2628900D01*
Y822500D01*
G01X2595600Y855000D02*
X2586200Y860800D01*
X2580900Y865800D01*
X2578200Y872500D01*
X2580900Y878300D01*
X2586200Y882500D01*
X2594200Y885800D01*
X2603600Y886600D01*
X2611600Y885800D01*
X2619600Y882500D01*
X2626200Y877500D01*
X2628900Y871600D01*
X2626200Y865000D01*
X2618200Y859100D01*
X2606200Y855800D01*
X2592900Y855000D01*
X2575600Y856600D01*
X2566200Y859100D01*
X2556900Y863300D01*
X2550200Y869100D01*
X2548900Y875000D01*
X2551600Y880800D01*
X2558200Y885000D01*
G01X2605800Y1571900D02*
Y1651900D01*
X2626700D01*
X2633300Y1647900D01*
X2637500Y1642600D01*
X2639200Y1631900D01*
X2637500Y1621200D01*
X2632500Y1614600D01*
X2626700Y1610600D01*
X2605800D01*
G01X2626700D02*
X2639200Y1571900D01*
G01X2671700Y1638600D02*
X2676700Y1646600D01*
X2682500Y1650600D01*
X2689200Y1651900D01*
X2697500Y1649200D01*
X2703300Y1642600D01*
X2705000Y1634600D01*
X2704200Y1626600D01*
X2700800Y1619900D01*
X2684200Y1606600D01*
X2676700Y1597200D01*
X2671700Y1583900D01*
X2670000Y1571900D01*
X2705000D01*
G01X2655800Y2211900D02*
Y2291900D01*
X2676700D01*
X2683300Y2287900D01*
X2687500Y2282600D01*
X2689200Y2271900D01*
X2687500Y2261200D01*
X2682500Y2254600D01*
X2676700Y2250600D01*
X2655800D01*
G01X2676700D02*
X2689200Y2211900D01*
G01X2719200Y2223900D02*
X2724200Y2217200D01*
X2730000Y2213200D01*
X2737500Y2211900D01*
X2745000Y2214600D01*
X2750800Y2219900D01*
X2755000Y2229200D01*
X2755800Y2239900D01*
X2754200Y2250600D01*
X2750000Y2257200D01*
X2744200Y2262600D01*
X2738300Y2263900D01*
X2732500Y2262600D01*
X2725000Y2257200D01*
X2727500Y2291900D01*
X2750000D01*
G01X2575800Y1791900D02*
Y1871900D01*
X2596700D01*
X2603300Y1867900D01*
X2607500Y1862600D01*
X2609200Y1851900D01*
X2607500Y1841200D01*
X2602500Y1834600D01*
X2596700Y1830600D01*
X2575800D01*
G01X2596700D02*
X2609200Y1791900D01*
G01X2639200Y1807900D02*
X2644200Y1798600D01*
X2650800Y1793200D01*
X2658300Y1791900D01*
X2665000Y1793200D01*
X2671700Y1799900D01*
X2675800Y1807900D01*
X2676700Y1815900D01*
X2675000Y1825200D01*
X2669200Y1831900D01*
X2663300Y1834600D01*
X2655800D01*
G01X2663300D02*
X2668300Y1838600D01*
X2672500Y1845200D01*
X2674200Y1853200D01*
X2672500Y1861200D01*
X2668300Y1867900D01*
X2660800Y1871900D01*
X2653300Y1870600D01*
X2645800Y1865200D01*
G01X2730800Y2075200D02*
X2725800Y2079200D01*
X2720000Y2081900D01*
X2713300D01*
X2705800Y2077900D01*
X2700000Y2071200D01*
X2695800Y2063200D01*
X2692500Y2049900D01*
X2691700Y2037900D01*
X2693300Y2025900D01*
X2695800Y2017900D01*
X2700800Y2009900D01*
X2706700Y2004600D01*
X2712500Y2001900D01*
X2718300D01*
X2724200Y2004600D01*
X2729200Y2008600D01*
X2733300Y2013900D01*
G01X2777500Y2001900D02*
Y2081900D01*
X2767500Y2065900D01*
G01Y2001900D02*
X2787500D01*
G01X2864200Y2918100D02*
Y2838100D01*
X2843300D01*
X2836700Y2842100D01*
X2832500Y2847400D01*
X2830800Y2858100D01*
X2832500Y2868800D01*
X2837500Y2875400D01*
X2843300Y2879400D01*
X2864200D01*
G01X2843300D02*
X2830800Y2918100D01*
G01X2782500D02*
Y2838100D01*
X2792500Y2854100D01*
G01Y2918100D02*
X2772500D01*
G01X2717500Y2838100D02*
X2724200Y2840800D01*
X2729200Y2847400D01*
X2732500Y2855400D01*
X2735000Y2866100D01*
X2735800Y2878100D01*
X2735000Y2890100D01*
X2732500Y2900800D01*
X2729200Y2908800D01*
X2724200Y2915400D01*
X2717500Y2918100D01*
X2710800Y2915400D01*
X2705800Y2908800D01*
X2702500Y2900800D01*
X2700000Y2890100D01*
X2699200Y2878100D01*
X2700000Y2866100D01*
X2702500Y2855400D01*
X2705800Y2847400D01*
X2710800Y2840800D01*
X2717500Y2838100D01*
G01X2655800Y2431900D02*
Y2511900D01*
X2676700D01*
X2683300Y2507900D01*
X2687500Y2502600D01*
X2689200Y2491900D01*
X2687500Y2481200D01*
X2682500Y2474600D01*
X2676700Y2470600D01*
X2655800D01*
G01X2676700D02*
X2689200Y2431900D01*
G01X2747500D02*
Y2511900D01*
X2716700Y2454600D01*
X2758300D01*
G01X2745800Y2641900D02*
Y2721900D01*
X2766700D01*
X2773300Y2717900D01*
X2777500Y2712600D01*
X2779200Y2701900D01*
X2777500Y2691200D01*
X2772500Y2684600D01*
X2766700Y2680600D01*
X2745800D01*
G01X2766700D02*
X2779200Y2641900D01*
G01X2811700Y2675200D02*
X2817500Y2684600D01*
X2822500Y2689900D01*
X2829200Y2692600D01*
X2835000Y2689900D01*
X2839200Y2684600D01*
X2842500Y2676600D01*
X2843300Y2667200D01*
X2842500Y2659200D01*
X2839200Y2651200D01*
X2834200Y2644600D01*
X2828300Y2641900D01*
X2821700Y2644600D01*
X2815800Y2652600D01*
X2812500Y2664600D01*
X2811700Y2677900D01*
X2813300Y2695200D01*
X2815800Y2704600D01*
X2820000Y2713900D01*
X2825800Y2720600D01*
X2831700Y2721900D01*
X2837500Y2719200D01*
X2841700Y2712600D01*
G01X2680800Y3115200D02*
X2675800Y3119200D01*
X2670000Y3121900D01*
X2663300D01*
X2655800Y3117900D01*
X2650000Y3111200D01*
X2645800Y3103200D01*
X2642500Y3089900D01*
X2641700Y3077900D01*
X2643300Y3065900D01*
X2645800Y3057900D01*
X2650800Y3049900D01*
X2656700Y3044600D01*
X2662500Y3041900D01*
X2668300D01*
X2674200Y3044600D01*
X2679200Y3048600D01*
X2683300Y3053900D01*
G01X2725800Y3041900D02*
X2727500Y3059200D01*
X2730000Y3073900D01*
X2733300Y3087200D01*
X2737500Y3101900D01*
X2744200Y3121900D01*
X2710800D01*
G01X3053400Y966500D02*
Y1002500D01*
X3036700Y1046500D01*
G01X3070100D02*
X3053400Y1002500D01*
G01X3128400Y966500D02*
Y1046500D01*
X3097600Y989200D01*
X3139200D01*
G01X3459000Y1039900D02*
X3495000D01*
X3539000Y1056600D01*
G01Y1023200D02*
X3495000Y1039900D01*
G01X3475000Y993200D02*
X3465700Y988200D01*
X3460300Y981600D01*
X3459000Y974100D01*
X3460300Y967400D01*
X3467000Y960700D01*
X3475000Y956600D01*
X3483000Y955700D01*
X3492300Y957400D01*
X3499000Y963200D01*
X3501700Y969100D01*
Y976600D01*
G01Y969100D02*
X3505700Y964100D01*
X3512300Y959900D01*
X3520300Y958200D01*
X3528300Y959900D01*
X3535000Y964100D01*
X3539000Y971600D01*
X3537700Y979100D01*
X3532300Y986600D01*
G01X3002600Y1565300D02*
X3082600D01*
Y1544400D01*
X3078600Y1537800D01*
X3073300Y1533600D01*
X3062600Y1531900D01*
X3051900Y1533600D01*
X3045300Y1538600D01*
X3041300Y1544400D01*
Y1565300D01*
G01Y1544400D02*
X3002600Y1531900D01*
G01Y1483600D02*
X3082600D01*
X3066600Y1493600D01*
G01X3002600D02*
Y1473600D01*
G01Y1418600D02*
X3082600D01*
X3066600Y1428600D01*
G01X3002600D02*
Y1408600D01*
G01X3680800Y1425200D02*
X3675800Y1429200D01*
X3670000Y1431900D01*
X3663300D01*
X3655800Y1427900D01*
X3650000Y1421200D01*
X3645800Y1413200D01*
X3642500Y1399900D01*
X3641700Y1387900D01*
X3643300Y1375900D01*
X3645800Y1367900D01*
X3650800Y1359900D01*
X3656700Y1354600D01*
X3662500Y1351900D01*
X3668300D01*
X3674200Y1354600D01*
X3679200Y1358600D01*
X3683300Y1363900D01*
G01X3711700Y1418600D02*
X3716700Y1426600D01*
X3722500Y1430600D01*
X3729200Y1431900D01*
X3737500Y1429200D01*
X3743300Y1422600D01*
X3745000Y1414600D01*
X3744200Y1406600D01*
X3740800Y1399900D01*
X3724200Y1386600D01*
X3716700Y1377200D01*
X3711700Y1363900D01*
X3710000Y1351900D01*
X3745000D01*
G01X3774200Y1363900D02*
X3779200Y1357200D01*
X3785000Y1353200D01*
X3792500Y1351900D01*
X3800000Y1354600D01*
X3805800Y1359900D01*
X3810000Y1369200D01*
X3810800Y1379900D01*
X3809200Y1390600D01*
X3805000Y1397200D01*
X3799200Y1402600D01*
X3793300Y1403900D01*
X3787500Y1402600D01*
X3780000Y1397200D01*
X3782500Y1431900D01*
X3805000D01*
G01X3239600Y1445800D02*
X3234600Y1449800D01*
X3228800Y1452500D01*
X3222100D01*
X3214600Y1448500D01*
X3208800Y1441800D01*
X3204600Y1433800D01*
X3201300Y1420500D01*
X3200500Y1408500D01*
X3202100Y1396500D01*
X3204600Y1388500D01*
X3209600Y1380500D01*
X3215500Y1375200D01*
X3221300Y1372500D01*
X3227100D01*
X3233000Y1375200D01*
X3238000Y1379200D01*
X3242100Y1384500D01*
G01X3270500Y1439200D02*
X3275500Y1447200D01*
X3281300Y1451200D01*
X3288000Y1452500D01*
X3296300Y1449800D01*
X3302100Y1443200D01*
X3303800Y1435200D01*
X3303000Y1427200D01*
X3299600Y1420500D01*
X3283000Y1407200D01*
X3275500Y1397800D01*
X3270500Y1384500D01*
X3268800Y1372500D01*
X3303800D01*
G01X3361300D02*
Y1452500D01*
X3330500Y1395200D01*
X3372100D01*
G01X3010800Y1870800D02*
X3006800Y1865800D01*
X3004100Y1860000D01*
Y1853300D01*
X3008100Y1845800D01*
X3014800Y1840000D01*
X3022800Y1835800D01*
X3036100Y1832500D01*
X3048100Y1831700D01*
X3060100Y1833300D01*
X3068100Y1835800D01*
X3076100Y1840800D01*
X3081400Y1846700D01*
X3084100Y1852500D01*
Y1858300D01*
X3081400Y1864200D01*
X3077400Y1869200D01*
X3072100Y1873300D01*
G01Y1899200D02*
X3078800Y1904200D01*
X3082800Y1910000D01*
X3084100Y1917500D01*
X3081400Y1925000D01*
X3076100Y1930800D01*
X3066800Y1935000D01*
X3056100Y1935800D01*
X3045400Y1934200D01*
X3038800Y1930000D01*
X3033400Y1924200D01*
X3032100Y1918300D01*
X3033400Y1912500D01*
X3038800Y1905000D01*
X3004100Y1907500D01*
Y1930000D01*
G01X3394800Y1600800D02*
X3390800Y1595800D01*
X3388100Y1590000D01*
Y1583300D01*
X3392100Y1575800D01*
X3398800Y1570000D01*
X3406800Y1565800D01*
X3420100Y1562500D01*
X3432100Y1561700D01*
X3444100Y1563300D01*
X3452100Y1565800D01*
X3460100Y1570800D01*
X3465400Y1576700D01*
X3468100Y1582500D01*
Y1588300D01*
X3465400Y1594200D01*
X3461400Y1599200D01*
X3456100Y1603300D01*
G01X3468100Y1647500D02*
X3388100D01*
X3404100Y1637500D01*
G01X3468100D02*
Y1657500D01*
G01X3452100Y1694200D02*
X3461400Y1699200D01*
X3466800Y1705800D01*
X3468100Y1713300D01*
X3466800Y1720000D01*
X3460100Y1726700D01*
X3452100Y1730800D01*
X3444100Y1731700D01*
X3434800Y1730000D01*
X3428100Y1724200D01*
X3425400Y1718300D01*
Y1710800D01*
G01Y1718300D02*
X3421400Y1723300D01*
X3414800Y1727500D01*
X3406800Y1729200D01*
X3398800Y1727500D01*
X3392100Y1723300D01*
X3388100Y1715800D01*
X3389400Y1708300D01*
X3394800Y1700800D01*
G01X3325000Y2525800D02*
X3267700D01*
X3255700Y2522500D01*
X3247700Y2515800D01*
X3245000Y2507500D01*
X3247700Y2499200D01*
X3255700Y2492500D01*
X3267700Y2489200D01*
X3325000D01*
G01X3311700Y2458300D02*
X3319700Y2453300D01*
X3323700Y2447500D01*
X3325000Y2440800D01*
X3322300Y2432500D01*
X3315700Y2426700D01*
X3307700Y2425000D01*
X3299700Y2425800D01*
X3293000Y2429200D01*
X3279700Y2445800D01*
X3270300Y2453300D01*
X3257000Y2458300D01*
X3245000Y2460000D01*
Y2425000D01*
G01X3272500Y3035300D02*
X3352500D01*
Y3014400D01*
X3348500Y3007800D01*
X3343200Y3003600D01*
X3332500Y3001900D01*
X3321800Y3003600D01*
X3315200Y3008600D01*
X3311200Y3014400D01*
Y3035300D01*
G01Y3014400D02*
X3272500Y3001900D01*
G01Y2953600D02*
X3352500D01*
X3336500Y2963600D01*
G01X3272500D02*
Y2943600D01*
G01X3094200Y2929700D02*
X3090200Y2924700D01*
X3087500Y2918900D01*
Y2912200D01*
X3091500Y2904700D01*
X3098200Y2898900D01*
X3106200Y2894700D01*
X3119500Y2891400D01*
X3131500Y2890600D01*
X3143500Y2892200D01*
X3151500Y2894700D01*
X3159500Y2899700D01*
X3164800Y2905600D01*
X3167500Y2911400D01*
Y2917200D01*
X3164800Y2923100D01*
X3160800Y2928100D01*
X3155500Y2932200D01*
G01X3167500Y2976400D02*
X3087500D01*
X3103500Y2966400D01*
G01X3167500D02*
Y2986400D01*
G01X3100800Y3025600D02*
X3092800Y3030600D01*
X3088800Y3036400D01*
X3087500Y3043100D01*
X3090200Y3051400D01*
X3096800Y3057200D01*
X3104800Y3058900D01*
X3112800Y3058100D01*
X3119500Y3054700D01*
X3132800Y3038100D01*
X3142200Y3030600D01*
X3155500Y3025600D01*
X3167500Y3023900D01*
Y3058900D01*
G01X3494200Y2969700D02*
X3490200Y2964700D01*
X3487500Y2958900D01*
Y2952200D01*
X3491500Y2944700D01*
X3498200Y2938900D01*
X3506200Y2934700D01*
X3519500Y2931400D01*
X3531500Y2930600D01*
X3543500Y2932200D01*
X3551500Y2934700D01*
X3559500Y2939700D01*
X3564800Y2945600D01*
X3567500Y2951400D01*
Y2957200D01*
X3564800Y2963100D01*
X3560800Y2968100D01*
X3555500Y2972200D01*
G01X3567500Y3026400D02*
X3487500D01*
X3544800Y2995600D01*
Y3037200D01*
G01X3932600Y1515300D02*
X4012600D01*
Y1494400D01*
X4008600Y1487800D01*
X4003300Y1483600D01*
X3992600Y1481900D01*
X3981900Y1483600D01*
X3975300Y1488600D01*
X3971300Y1494400D01*
Y1515300D01*
G01Y1494400D02*
X3932600Y1481900D01*
G01X3941900Y1447800D02*
X3935300Y1441900D01*
X3932600Y1435300D01*
X3935300Y1428600D01*
X3943300Y1422800D01*
X3955300Y1418600D01*
X3967300Y1416900D01*
X3981900D01*
X3993900Y1418600D01*
X4004600Y1422800D01*
X4009900Y1427800D01*
X4012600Y1433600D01*
X4009900Y1440300D01*
X4004600Y1445300D01*
X3996600Y1448600D01*
X3985900Y1450300D01*
X3976600Y1448600D01*
X3967300Y1444400D01*
X3961900Y1439400D01*
X3960600Y1433600D01*
X3963300Y1426900D01*
X3969900Y1421900D01*
X3981900Y1416900D01*
G01X4432600Y2275400D02*
X4352600D01*
Y2242000D01*
G01X4419300Y2209500D02*
X4427300Y2204500D01*
X4431300Y2198700D01*
X4432600Y2192000D01*
X4429900Y2183700D01*
X4423300Y2177900D01*
X4415300Y2176200D01*
X4407300Y2177000D01*
X4400600Y2180400D01*
X4387300Y2197000D01*
X4377900Y2204500D01*
X4364600Y2209500D01*
X4352600Y2211200D01*
Y2176200D01*
G01X4396000Y2003600D02*
X4391000Y2007600D01*
X4385200Y2010300D01*
X4378500D01*
X4371000Y2006300D01*
X4365200Y1999600D01*
X4361000Y1991600D01*
X4357700Y1978300D01*
X4356900Y1966300D01*
X4358500Y1954300D01*
X4361000Y1946300D01*
X4366000Y1938300D01*
X4371900Y1933000D01*
X4377700Y1930300D01*
X4383500D01*
X4389400Y1933000D01*
X4394400Y1937000D01*
X4398500Y1942300D01*
G01X4442700Y1930300D02*
Y2010300D01*
X4432700Y1994300D01*
G01Y1930300D02*
X4452700D01*
G01X4489400Y1942300D02*
X4494400Y1935600D01*
X4500200Y1931600D01*
X4507700Y1930300D01*
X4515200Y1933000D01*
X4521000Y1938300D01*
X4525200Y1947600D01*
X4526000Y1958300D01*
X4524400Y1969000D01*
X4520200Y1975600D01*
X4514400Y1981000D01*
X4508500Y1982300D01*
X4502700Y1981000D01*
X4495200Y1975600D01*
X4497700Y2010300D01*
X4520200D01*
G01X3860800Y2125200D02*
X3855800Y2129200D01*
X3850000Y2131900D01*
X3843300D01*
X3835800Y2127900D01*
X3830000Y2121200D01*
X3825800Y2113200D01*
X3822500Y2099900D01*
X3821700Y2087900D01*
X3823300Y2075900D01*
X3825800Y2067900D01*
X3830800Y2059900D01*
X3836700Y2054600D01*
X3842500Y2051900D01*
X3848300D01*
X3854200Y2054600D01*
X3859200Y2058600D01*
X3863300Y2063900D01*
G01X3907500Y2051900D02*
Y2131900D01*
X3897500Y2115900D01*
G01Y2051900D02*
X3917500D01*
G01X3972500Y2131900D02*
X3965800Y2129200D01*
X3960800Y2122600D01*
X3957500Y2114600D01*
X3955000Y2103900D01*
X3954200Y2091900D01*
X3955000Y2079900D01*
X3957500Y2069200D01*
X3960800Y2061200D01*
X3965800Y2054600D01*
X3972500Y2051900D01*
X3979200Y2054600D01*
X3984200Y2061200D01*
X3987500Y2069200D01*
X3990000Y2079900D01*
X3990800Y2091900D01*
X3990000Y2103900D01*
X3987500Y2114600D01*
X3984200Y2122600D01*
X3979200Y2129200D01*
X3972500Y2131900D01*
G01X3825800Y2541900D02*
Y2461900D01*
X3859200D01*
G01X3907500D02*
X3913300Y2463200D01*
X3920000Y2467200D01*
X3924200Y2473900D01*
X3925800Y2483200D01*
X3924200Y2492600D01*
X3919200Y2500600D01*
X3911700Y2504600D01*
X3903300D01*
X3898300Y2507200D01*
X3894200Y2513900D01*
X3892500Y2523200D01*
X3895000Y2532600D01*
X3900800Y2539200D01*
X3907500Y2541900D01*
X3914200Y2539200D01*
X3920000Y2532600D01*
X3922500Y2523200D01*
X3920800Y2513900D01*
X3916700Y2507200D01*
X3911700Y2504600D01*
X3903300D01*
X3895800Y2500600D01*
X3890800Y2492600D01*
X3889200Y2483200D01*
X3890800Y2473900D01*
X3895000Y2467200D01*
X3901700Y2463200D01*
X3907500Y2461900D01*
G01X3845800Y2351900D02*
Y2271900D01*
X3879200D01*
G01X3925800D02*
X3927500Y2289200D01*
X3930000Y2303900D01*
X3933300Y2317200D01*
X3937500Y2331900D01*
X3944200Y2351900D01*
X3910800D01*
G01X4185200Y2439200D02*
X4189200Y2444200D01*
X4191900Y2450000D01*
Y2456700D01*
X4187900Y2464200D01*
X4181200Y2470000D01*
X4173200Y2474200D01*
X4159900Y2477500D01*
X4147900Y2478300D01*
X4135900Y2476700D01*
X4127900Y2474200D01*
X4119900Y2469200D01*
X4114600Y2463300D01*
X4111900Y2457500D01*
Y2451700D01*
X4114600Y2445800D01*
X4118600Y2440800D01*
X4123900Y2436700D01*
G01X4178600Y2408300D02*
X4186600Y2403300D01*
X4190600Y2397500D01*
X4191900Y2390800D01*
X4189200Y2382500D01*
X4182600Y2376700D01*
X4174600Y2375000D01*
X4166600Y2375800D01*
X4159900Y2379200D01*
X4146600Y2395800D01*
X4137200Y2403300D01*
X4123900Y2408300D01*
X4111900Y2410000D01*
Y2375000D01*
G01Y2329200D02*
X4129200Y2327500D01*
X4143900Y2325000D01*
X4157200Y2321700D01*
X4171900Y2317500D01*
X4191900Y2310800D01*
Y2344200D01*
G01X4340000Y2509200D02*
X4336000Y2504200D01*
X4333300Y2498400D01*
Y2491700D01*
X4337300Y2484200D01*
X4344000Y2478400D01*
X4352000Y2474200D01*
X4365300Y2470900D01*
X4377300Y2470100D01*
X4389300Y2471700D01*
X4397300Y2474200D01*
X4405300Y2479200D01*
X4410600Y2485100D01*
X4413300Y2490900D01*
Y2496700D01*
X4410600Y2502600D01*
X4406600Y2507600D01*
X4401300Y2511700D01*
G01X4413300Y2555900D02*
X4333300D01*
X4349300Y2545900D01*
G01X4413300D02*
Y2565900D01*
G01X4404000Y2606700D02*
X4410600Y2612600D01*
X4413300Y2619200D01*
X4410600Y2625900D01*
X4402600Y2631700D01*
X4390600Y2635900D01*
X4378600Y2637600D01*
X4364000D01*
X4352000Y2635900D01*
X4341300Y2631700D01*
X4336000Y2626700D01*
X4333300Y2620900D01*
X4336000Y2614200D01*
X4341300Y2609200D01*
X4349300Y2605900D01*
X4360000Y2604200D01*
X4369300Y2605900D01*
X4378600Y2610100D01*
X4384000Y2615100D01*
X4385300Y2620900D01*
X4382600Y2627600D01*
X4376000Y2632600D01*
X4364000Y2637600D01*
G01X3870800Y2725200D02*
X3865800Y2729200D01*
X3860000Y2731900D01*
X3853300D01*
X3845800Y2727900D01*
X3840000Y2721200D01*
X3835800Y2713200D01*
X3832500Y2699900D01*
X3831700Y2687900D01*
X3833300Y2675900D01*
X3835800Y2667900D01*
X3840800Y2659900D01*
X3846700Y2654600D01*
X3852500Y2651900D01*
X3858300D01*
X3864200Y2654600D01*
X3869200Y2658600D01*
X3873300Y2663900D01*
G01X3917500Y2651900D02*
X3923300Y2653200D01*
X3930000Y2657200D01*
X3934200Y2663900D01*
X3935800Y2673200D01*
X3934200Y2682600D01*
X3929200Y2690600D01*
X3921700Y2694600D01*
X3913300D01*
X3908300Y2697200D01*
X3904200Y2703900D01*
X3902500Y2713200D01*
X3905000Y2722600D01*
X3910800Y2729200D01*
X3917500Y2731900D01*
X3924200Y2729200D01*
X3930000Y2722600D01*
X3932500Y2713200D01*
X3930800Y2703900D01*
X3926700Y2697200D01*
X3921700Y2694600D01*
X3913300D01*
X3905800Y2690600D01*
X3900800Y2682600D01*
X3899200Y2673200D01*
X3900800Y2663900D01*
X3905000Y2657200D01*
X3911700Y2653200D01*
X3917500Y2651900D01*
G01X4855800Y1881900D02*
Y1801900D01*
X4889200D01*
G01X4923300Y1811200D02*
X4929200Y1804600D01*
X4935800Y1801900D01*
X4942500Y1804600D01*
X4948300Y1812600D01*
X4952500Y1824600D01*
X4954200Y1836600D01*
Y1851200D01*
X4952500Y1863200D01*
X4948300Y1873900D01*
X4943300Y1879200D01*
X4937500Y1881900D01*
X4930800Y1879200D01*
X4925800Y1873900D01*
X4922500Y1865900D01*
X4920800Y1855200D01*
X4922500Y1845900D01*
X4926700Y1836600D01*
X4931700Y1831200D01*
X4937500Y1829900D01*
X4944200Y1832600D01*
X4949200Y1839200D01*
X4954200Y1851200D01*
G01X4834800Y2050800D02*
X4830800Y2045800D01*
X4828100Y2040000D01*
Y2033300D01*
X4832100Y2025800D01*
X4838800Y2020000D01*
X4846800Y2015800D01*
X4860100Y2012500D01*
X4872100Y2011700D01*
X4884100Y2013300D01*
X4892100Y2015800D01*
X4900100Y2020800D01*
X4905400Y2026700D01*
X4908100Y2032500D01*
Y2038300D01*
X4905400Y2044200D01*
X4901400Y2049200D01*
X4896100Y2053300D01*
G01X4841400Y2081700D02*
X4833400Y2086700D01*
X4829400Y2092500D01*
X4828100Y2099200D01*
X4830800Y2107500D01*
X4837400Y2113300D01*
X4845400Y2115000D01*
X4853400Y2114200D01*
X4860100Y2110800D01*
X4873400Y2094200D01*
X4882800Y2086700D01*
X4896100Y2081700D01*
X4908100Y2080000D01*
Y2115000D01*
G01Y2162500D02*
X4906800Y2168300D01*
X4902800Y2175000D01*
X4896100Y2179200D01*
X4886800Y2180800D01*
X4877400Y2179200D01*
X4869400Y2174200D01*
X4865400Y2166700D01*
Y2158300D01*
X4862800Y2153300D01*
X4856100Y2149200D01*
X4846800Y2147500D01*
X4837400Y2150000D01*
X4830800Y2155800D01*
X4828100Y2162500D01*
X4830800Y2169200D01*
X4837400Y2175000D01*
X4846800Y2177500D01*
X4856100Y2175800D01*
X4862800Y2171700D01*
X4865400Y2166700D01*
Y2158300D01*
X4869400Y2150800D01*
X4877400Y2145800D01*
X4886800Y2144200D01*
X4896100Y2145800D01*
X4902800Y2150000D01*
X4906800Y2156700D01*
X4908100Y2162500D01*
G01X5300400Y2197600D02*
X5304400Y2202600D01*
X5307100Y2208400D01*
Y2215100D01*
X5303100Y2222600D01*
X5296400Y2228400D01*
X5288400Y2232600D01*
X5275100Y2235900D01*
X5263100Y2236700D01*
X5251100Y2235100D01*
X5243100Y2232600D01*
X5235100Y2227600D01*
X5229800Y2221700D01*
X5227100Y2215900D01*
Y2210100D01*
X5229800Y2204200D01*
X5233800Y2199200D01*
X5239100Y2195100D01*
G01X5227100Y2150900D02*
X5307100D01*
X5291100Y2160900D01*
G01X5227100D02*
Y2140900D01*
G01X5260400Y2101700D02*
X5269800Y2095900D01*
X5275100Y2090900D01*
X5277800Y2084200D01*
X5275100Y2078400D01*
X5269800Y2074200D01*
X5261800Y2070900D01*
X5252400Y2070100D01*
X5244400Y2070900D01*
X5236400Y2074200D01*
X5229800Y2079200D01*
X5227100Y2085100D01*
X5229800Y2091700D01*
X5237800Y2097600D01*
X5249800Y2100900D01*
X5263100Y2101700D01*
X5280400Y2100100D01*
X5289800Y2097600D01*
X5299100Y2093400D01*
X5305800Y2087600D01*
X5307100Y2081700D01*
X5304400Y2075900D01*
X5297800Y2071700D01*
G01X4576000Y2213600D02*
X4571000Y2217600D01*
X4565200Y2220300D01*
X4558500D01*
X4551000Y2216300D01*
X4545200Y2209600D01*
X4541000Y2201600D01*
X4537700Y2188300D01*
X4536900Y2176300D01*
X4538500Y2164300D01*
X4541000Y2156300D01*
X4546000Y2148300D01*
X4551900Y2143000D01*
X4557700Y2140300D01*
X4563500D01*
X4569400Y2143000D01*
X4574400Y2147000D01*
X4578500Y2152300D01*
G01X4622700Y2140300D02*
Y2220300D01*
X4612700Y2204300D01*
G01Y2140300D02*
X4632700D01*
G01X4697700D02*
Y2220300D01*
X4666900Y2163000D01*
X4708500D01*
G01X4575800Y2661900D02*
Y2581900D01*
X4609200D01*
G01X4639200Y2593900D02*
X4644200Y2587200D01*
X4650000Y2583200D01*
X4657500Y2581900D01*
X4665000Y2584600D01*
X4670800Y2589900D01*
X4675000Y2599200D01*
X4675800Y2609900D01*
X4674200Y2620600D01*
X4670000Y2627200D01*
X4664200Y2632600D01*
X4658300Y2633900D01*
X4652500Y2632600D01*
X4645000Y2627200D01*
X4647500Y2661900D01*
X4670000D01*
G01X5111900Y2404200D02*
X5031900D01*
Y2370800D01*
G01Y2312500D02*
X5111900D01*
X5054600Y2343300D01*
Y2301700D01*
G01X4765800Y2441900D02*
Y2361900D01*
X4799200D01*
G01X4829200Y2377900D02*
X4834200Y2368600D01*
X4840800Y2363200D01*
X4848300Y2361900D01*
X4855000Y2363200D01*
X4861700Y2369900D01*
X4865800Y2377900D01*
X4866700Y2385900D01*
X4865000Y2395200D01*
X4859200Y2401900D01*
X4853300Y2404600D01*
X4845800D01*
G01X4853300D02*
X4858300Y2408600D01*
X4862500Y2415200D01*
X4864200Y2423200D01*
X4862500Y2431200D01*
X4858300Y2437900D01*
X4850800Y2441900D01*
X4843300Y2440600D01*
X4835800Y2435200D01*
G01X5279700Y2445900D02*
X5274700Y2449900D01*
X5268900Y2452600D01*
X5262200D01*
X5254700Y2448600D01*
X5248900Y2441900D01*
X5244700Y2433900D01*
X5241400Y2420600D01*
X5240600Y2408600D01*
X5242200Y2396600D01*
X5244700Y2388600D01*
X5249700Y2380600D01*
X5255600Y2375300D01*
X5261400Y2372600D01*
X5267200D01*
X5273100Y2375300D01*
X5278100Y2379300D01*
X5282200Y2384600D01*
G01X5326400Y2372600D02*
Y2452600D01*
X5316400Y2436600D01*
G01Y2372600D02*
X5336400D01*
G01X5391400D02*
X5397200Y2373900D01*
X5403900Y2377900D01*
X5408100Y2384600D01*
X5409700Y2393900D01*
X5408100Y2403300D01*
X5403100Y2411300D01*
X5395600Y2415300D01*
X5387200D01*
X5382200Y2417900D01*
X5378100Y2424600D01*
X5376400Y2433900D01*
X5378900Y2443300D01*
X5384700Y2449900D01*
X5391400Y2452600D01*
X5398100Y2449900D01*
X5403900Y2443300D01*
X5406400Y2433900D01*
X5404700Y2424600D01*
X5400600Y2417900D01*
X5395600Y2415300D01*
X5387200D01*
X5379700Y2411300D01*
X5374700Y2403300D01*
X5373100Y2393900D01*
X5374700Y2384600D01*
X5378900Y2377900D01*
X5385600Y2373900D01*
X5391400Y2372600D01*
G01X4870000Y2639200D02*
X4866000Y2634200D01*
X4863300Y2628400D01*
Y2621700D01*
X4867300Y2614200D01*
X4874000Y2608400D01*
X4882000Y2604200D01*
X4895300Y2600900D01*
X4907300Y2600100D01*
X4919300Y2601700D01*
X4927300Y2604200D01*
X4935300Y2609200D01*
X4940600Y2615100D01*
X4943300Y2620900D01*
Y2626700D01*
X4940600Y2632600D01*
X4936600Y2637600D01*
X4931300Y2641700D01*
G01X4943300Y2685900D02*
X4863300D01*
X4879300Y2675900D01*
G01X4943300D02*
Y2695900D01*
G01Y2749200D02*
X4926000Y2750900D01*
X4911300Y2753400D01*
X4898000Y2756700D01*
X4883300Y2760900D01*
X4863300Y2767600D01*
Y2734200D01*
G01X5789300Y1747000D02*
X5793500Y1739000D01*
X5798500Y1733700D01*
X5804300Y1731000D01*
X5811000Y1733700D01*
X5816000Y1739000D01*
X5821000Y1747000D01*
X5822700Y1757700D01*
Y1811000D01*
G01X5871000Y1731000D02*
Y1811000D01*
X5861000Y1795000D01*
G01Y1731000D02*
X5881000D01*
G54D11*
G01X590000Y1400000D02*
X2110000D01*
Y890000D01*
X590000D01*
Y1400000D01*
X680000D01*
G01X660000Y2360000D02*
X960000D01*
Y1450000D01*
X660000D01*
Y2360000D01*
X770000D01*
G01X2745500Y1251500D02*
X4265500D01*
Y741500D01*
X2745500D01*
Y1251500D01*
X2835500D01*
G01X3685000Y2812500D02*
Y2072500D01*
X2955000D01*
Y2812500D01*
X3685000D01*
G01X3698000Y1300000D02*
Y700000D01*
X3298000D01*
Y1300000D01*
X3698000D01*
G01X5421000Y2201000D02*
X6271000D01*
Y1351000D01*
X5421000D01*
Y2201000D01*
G54D12*
G01X1198700Y606700D02*
Y873300D01*
G01X1701600Y606700D02*
X1198700D01*
G01Y873300D02*
X1701600D01*
G01X1277500Y1532800D02*
Y1824900D01*
G01X1441300Y1532800D02*
X1277500D01*
G01Y1824900D02*
X1441300D01*
G01X1047500Y1532800D02*
Y1824900D01*
G01X1211300Y1532800D02*
X1047500D01*
G01X1211300Y1824900D02*
Y1532800D01*
G01X1047500Y1824900D02*
X1211300D01*
G01X1134000Y2131800D02*
X1426100D01*
G01X1134000Y1968000D02*
Y2131800D01*
G01X1426100Y1968000D02*
X1134000D01*
G01X1426100Y2131800D02*
Y1968000D01*
G01X1134000Y2168100D02*
Y2331900D01*
G01X1426100Y2168100D02*
X1134000D01*
G01X1426100Y2331900D02*
Y2168100D01*
G01X1172800Y2848700D02*
Y3012500D01*
G01X1464900Y2848700D02*
X1172800D01*
G01X1134000Y2331900D02*
X1426100D01*
G01X1172800Y3012500D02*
X1464900D01*
G01X1701600Y873300D02*
Y606700D01*
G01X1917500Y582800D02*
Y874900D01*
G01X2081300Y582800D02*
X1917500D01*
G01X2081300Y874900D02*
Y582800D01*
G01X1727500D02*
Y874900D01*
G01X1891300Y582800D02*
X1727500D01*
G01X1891300Y874900D02*
Y582800D01*
G01X2087200Y1427500D02*
X1795100D01*
G01X2087200Y1591300D02*
Y1427500D01*
G01X1795100D02*
Y1591300D01*
G01X1472800Y1428700D02*
Y1592500D01*
G01X1764900Y1428700D02*
X1472800D01*
G01X1764900Y1592500D02*
Y1428700D01*
G01X1917500Y874900D02*
X2081300D01*
G01X1727500D02*
X1891300D01*
G01X1797200Y1657500D02*
X1505100D01*
G01X1797200Y1821300D02*
Y1657500D01*
G01X1505100Y1821300D02*
X1797200D01*
G01X1505100Y1657500D02*
Y1821300D01*
G01X2022500Y1917200D02*
Y1625100D01*
G01X1858700Y1917200D02*
X2022500D01*
G01X1858700Y1625100D02*
Y1917200D01*
G01X2022500Y1625100D02*
X1858700D01*
G01X1795100Y1591300D02*
X2087200D01*
G01X1472800Y1592500D02*
X1764900D01*
G01X1441300Y1824900D02*
Y1532800D01*
G01X1464900Y3012500D02*
Y2848700D01*
G01X2426700Y658400D02*
Y1161300D01*
G01X2693300Y658400D02*
X2426700D01*
G01X2693300Y1161300D02*
Y658400D01*
G01X2849900Y1485200D02*
Y1294800D01*
G01X2443500D02*
Y1485200D01*
G01X2849900Y1294800D02*
X2443500D01*
G01X2948200Y1333900D02*
Y1626000D01*
G01X3112000Y1333900D02*
X2948200D01*
G01X2426700Y1161300D02*
X2693300D01*
G01X2443500Y1485200D02*
X2849900D01*
G01X2777200Y1547500D02*
X2485100D01*
G01X2777200Y1711300D02*
Y1547500D01*
G01X2485100Y1711300D02*
X2777200D01*
G01X2485100Y1547500D02*
Y1711300D01*
G01X2867200Y2177500D02*
X2575100D01*
G01X2867200Y2341300D02*
Y2177500D01*
G01X2575100D02*
Y2341300D01*
G01X2948200Y1626000D02*
X3112000D01*
G01X2777200Y1757500D02*
X2485100D01*
G01X2777200Y1921300D02*
Y1757500D01*
G01X2485100Y1921300D02*
X2777200D01*
G01X2485100Y1757500D02*
Y1921300D01*
G01X2907200Y1967500D02*
X2615100D01*
G01X2907200Y2131300D02*
Y1967500D01*
G01X2615100Y2131300D02*
X2907200D01*
G01X2615100Y1967500D02*
Y2131300D01*
G01X2954700Y2047200D02*
X3118500D01*
G01X2954700Y1755100D02*
Y2047200D01*
G01X3118500Y1755100D02*
X2954700D01*
G01X2575100Y2341300D02*
X2867200D01*
G01X2652800Y2952500D02*
X2944900D01*
G01X2652800Y2788700D02*
Y2952500D01*
G01X2944900Y2788700D02*
X2652800D01*
G01X2944900Y2952500D02*
Y2788700D01*
G01X2857200Y2407500D02*
X2565100D01*
G01X2857200Y2571300D02*
Y2407500D01*
G01X2565100Y2571300D02*
X2857200D01*
G01X2565100Y2407500D02*
Y2571300D01*
G01X2937200Y2597500D02*
X2645100D01*
G01X2937200Y2761300D02*
Y2597500D01*
G01X2645100Y2761300D02*
X2937200D01*
G01X2645100Y2597500D02*
Y2761300D01*
G01X2807200Y2997500D02*
X2515100D01*
G01X2807200Y3161300D02*
Y2997500D01*
G01X2515100Y3161300D02*
X2807200D01*
G01X2515100Y2997500D02*
Y3161300D01*
G01X3112000Y1626000D02*
Y1333900D01*
G01X3867200Y1327500D02*
X3575100D01*
G01D02*
Y1491300D01*
G01X3436000Y1328100D02*
X3143900D01*
G01X3436000Y1491900D02*
Y1328100D01*
G01X3143900D02*
Y1491900D01*
G01X3118500Y2047200D02*
Y1755100D01*
G01X3575100Y1491300D02*
X3867200D01*
G01X3143900Y1491900D02*
X3436000D01*
G01X3512500Y1807200D02*
Y1515100D01*
G01X3348700Y1807200D02*
X3512500D01*
G01X3348700Y1515100D02*
Y1807200D01*
G01X3512500Y1515100D02*
X3348700D01*
G01X3238100Y2843900D02*
Y3136000D01*
G01X3401900Y2843900D02*
X3238100D01*
G01X3401900Y3136000D02*
Y2843900D01*
G01X3201900Y3136100D02*
Y2844000D01*
G01X3038100D02*
Y3136100D01*
G01X3201900Y2844000D02*
X3038100D01*
G01X3601900Y3136100D02*
Y2844000D01*
G01X3438100D02*
Y3136100D01*
G01X3601900Y2844000D02*
X3438100D01*
G01X3238100Y3136000D02*
X3401900D01*
G01X3038100Y3136100D02*
X3201900D01*
G01X3438100D02*
X3601900D01*
G01X3898200Y1333900D02*
Y1626000D01*
G01X4062000Y1333900D02*
X3898200D01*
G01X4062000Y1626000D02*
Y1333900D01*
G01X3867200Y1491300D02*
Y1327500D01*
G01X4288200Y2094000D02*
Y2386100D01*
G01X4452000Y2094000D02*
X4288200D01*
G01X4452000Y2386100D02*
Y2094000D01*
G01X3898200Y1626000D02*
X4062000D01*
G01X4582400Y1895900D02*
X4290300D01*
G01Y2059700D02*
X4582400D01*
G01X4290300Y1895900D02*
Y2059700D01*
G01X4772400Y2095900D02*
X4480300D01*
G01D02*
Y2259700D01*
G01X4037200Y2017500D02*
X3745100D01*
G01X4037200Y2181300D02*
Y2017500D01*
G01X3745100Y2181300D02*
X4037200D01*
G01X3745100Y2017500D02*
Y2181300D01*
G01X4037200Y2417500D02*
X3745100D01*
G01X4037200Y2581300D02*
Y2417500D01*
G01X3745100Y2581300D02*
X4037200D01*
G01X3745100Y2417500D02*
Y2581300D01*
G01X4037200Y2217500D02*
X3745100D01*
G01X4037200Y2381300D02*
Y2217500D01*
G01X3745100Y2381300D02*
X4037200D01*
G01X3745100Y2217500D02*
Y2381300D01*
G01X4767200Y2557500D02*
X4475100D01*
G01Y2721300D02*
X4767200D01*
G01X4475100Y2557500D02*
Y2721300D01*
G01X4288200Y2386100D02*
X4452000D01*
G01X4077500Y2252800D02*
Y2544900D01*
G01X4241300Y2252800D02*
X4077500D01*
G01X4241300Y2544900D02*
Y2252800D01*
G01X4077500Y2544900D02*
X4241300D01*
G01X4480300Y2259700D02*
X4772400D01*
G01X4447700Y2715600D02*
Y2423500D01*
G01X4283900Y2715600D02*
X4447700D01*
G01X4283900Y2423500D02*
Y2715600D01*
G01X4447700Y2423500D02*
X4283900D01*
G01X4037200Y2617500D02*
X3745100D01*
G01X4037200Y2781300D02*
Y2617500D01*
G01X3745100Y2781300D02*
X4037200D01*
G01X3745100Y2617500D02*
Y2781300D01*
G01X5087200Y1767500D02*
X4795100D01*
G01X5087200Y1931300D02*
Y1767500D01*
G01X4795100Y1931300D02*
X5087200D01*
G01X4795100Y1767500D02*
Y1931300D01*
G01X4962500Y2257200D02*
Y1965100D01*
G01X4798700D02*
Y2257200D01*
G01X4962500Y1965100D02*
X4798700D01*
G01X4582400Y2059700D02*
Y1895900D01*
G01X5192700Y2011200D02*
Y2303300D01*
G01X5356500Y2011200D02*
X5192700D01*
G01X4772400Y2259700D02*
Y2095900D01*
G01X4767200Y2721300D02*
Y2557500D01*
G01X4997500Y2202800D02*
Y2494900D01*
G01X5161300Y2202800D02*
X4997500D01*
G01X5161300Y2494900D02*
Y2202800D01*
G01X4997500Y2494900D02*
X5161300D01*
G01X4957200Y2327500D02*
X4665100D01*
G01X4957200Y2491300D02*
Y2327500D01*
G01X4665100Y2491300D02*
X4957200D01*
G01X4665100Y2327500D02*
Y2491300D01*
G01X4798700Y2257200D02*
X4962500D01*
G01X5486100Y2328200D02*
X5194000D01*
G01Y2492000D02*
X5486100D01*
G01X5194000Y2328200D02*
Y2492000D01*
G01X4957700Y2845600D02*
Y2553500D01*
G01X4793900Y2845600D02*
X4957700D01*
G01X4793900Y2553500D02*
Y2845600D01*
G01X4957700Y2553500D02*
X4793900D01*
G01X5192700Y2303300D02*
X5356500D01*
G01D02*
Y2011200D01*
G01X5486100Y2492000D02*
Y2328200D01*
M02*
