G04 ================== begin FILE IDENTIFICATION RECORD ==================*
G04 Layout Name:  c:/src/bsm-2/schematics/bsm-radio.brd*
G04 Film Name:    BOTTOM*
G04 File Format:  Gerber RS274X*
G04 File Origin:  16.0-s004*
G04 Origin Date:  Thu Jan 19 14:34:35 2012*
G04 *
G04 Layer:  ETCH/BOTTOM*
G04 Layer:  PIN/BOTTOM*
G04 Layer:  VIA CLASS/BOTTOM*
G04 *
G04 Offset:    (0.000 0.000)*
G04 Mirror:    No*
G04 Mode:      Positive*
G04 Rotation:  0*
G04 FullContactRelief:  No*
G04 UndefLineWidth:     0.000*
G04 ================== end FILE IDENTIFICATION RECORD ====================*
%FSLAX55Y55*MOMM*%
%IR0*IPPOS*OFA0.00000B0.00000*MIA0B0*SFA1.00000B1.00000*%
%ADD13C,2.3*%
%ADD10C,1.473*%
%ADD12C,.61*%
%ADD11C,.96*%
%ADD14C,.2*%
%ADD15C,.3*%
%ADD16C,.25*%
%ADD18C,2.704*%
%ADD17C,1.878*%
G75*
%LPD*%
G75*
G36*
G01X50100Y50100D02*
Y3519900D01*
X6299900D01*
Y50100D01*
X50100D01*
G37*
%LPC*%
G75*
G36*
G01X2677500Y1577000D02*
G02X2602500I-37500J-56988D01*
G01X2604800Y1578500D01*
Y1694600D01*
X2640000Y1729800D01*
X2783800Y1873500D01*
X2783200Y1876200D01*
G02X2836200Y1823200I66797J13797D01*
G01X2833500Y1823800D01*
X2807100Y1797300D01*
X2813900Y1790500D01*
X2817500Y1793300D01*
G02X2892800Y1680200I42551J-53287D01*
G01X2890200Y1678800D01*
Y1581200D01*
X2892800Y1579800D01*
G02X2827200I-32800J-59798D01*
G01X2829800Y1581200D01*
Y1678800D01*
X2827200Y1680200D01*
G02X2794100Y1757400I32822J59769D01*
G03X2777000Y1767200I-9873J2592D01*
G01X2706400Y1696600D01*
X2675200Y1665400D01*
Y1578500D01*
X2677500Y1577000D01*
G37*
G36*
G01X3596200Y345800D02*
G02X3519800I-38200J-85793D01*
G01X3522800Y347100D01*
Y482600D01*
X3533800Y493500D01*
X3533200Y496200D01*
G02X3603000Y441900I66776J13825D01*
G03X3593200Y431700I409J-10201D01*
G01Y347100D01*
X3596200Y345800D01*
G37*
G36*
G01X1087000Y452500D02*
G02Y527500I-56988J37500D01*
G01X1088500Y525200D01*
X1271500D01*
X1273000Y527500D01*
G02Y452500I56988J-37500D01*
G01X1271500Y454800D01*
X1088500D01*
X1087000Y452500D01*
G37*
G36*
G01X800900Y1499300D02*
G02Y1560700I-60900J30700D01*
G03X819100I9100J4603D01*
G02Y1499300I60900J-30700D01*
G03X800900I-9100J-4603D01*
G37*
G36*
G01X2137300Y452500D02*
G02X2136700Y527500I-57288J37044D01*
G01X2138200Y525200D01*
X2415400D01*
X2483800Y593500D01*
X2483200Y596200D01*
G02X2536200Y543200I66797J13797D01*
G01X2533500Y543800D01*
X2444600Y454800D01*
X2138800D01*
X2137300Y452500D01*
G37*
G36*
G01X2416500Y2167900D02*
G02X2353400Y2138100I-6520J-67901D01*
G01X2355700Y2141500D01*
X2251900Y2245400D01*
X2249000Y2244500D01*
G02X2295500Y2291000I-19000J65500D01*
G01X2294600Y2288100D01*
X2414600Y2168100D01*
X2416500Y2167900D01*
G37*
G36*
G01X2327900Y2623500D02*
G02X2298100Y2686600I-67901J6520D01*
G01X2301500Y2684300D01*
X2517500Y2900200D01*
X2528800D01*
X2530200Y2902800D01*
G02X2557200Y2929800I59799J-32799D01*
G01X2559800Y2931200D01*
Y3082500D01*
X2649800Y3172500D01*
Y3308800D01*
X2647200Y3310200D01*
G02X2645400Y3311300I34626J58684D01*
G03X2637700Y3306500I-2605J-4398D01*
G02X2468600Y3244100I-93672J-6481D01*
G03X2450200Y3238000I-8189J-6099D01*
G01Y3187500D01*
X2420200Y3157500D01*
Y3055100D01*
X2422100Y3053600D01*
G02X2356500Y3064000I-42123J-53609D01*
G01X2359800Y3065200D01*
Y3182500D01*
X2389800Y3212500D01*
Y3247000D01*
G03X2370800Y3252200I-10205J26D01*
G02X2338700Y3380300I-80807J47823D01*
G03X2353800Y3386600I5219J8737D01*
G02X2485500Y3389100I66188J-16551D01*
G03X2500000Y3383000I9753J2900D01*
G02X2597400Y3377300I44011J-82982D01*
G03X2613200Y3383600I5821J8365D01*
G02X2744800Y3391400I66837J-13590D01*
G03X2758700Y3385300I9675J3160D01*
G02X2728000Y3237400I39294J-85293D01*
G03X2710200Y3230600I-7605J-6791D01*
G01Y3147500D01*
X2620200Y3057500D01*
Y2931200D01*
X2622800Y2929800D01*
G02X2540500Y2823000I-32871J-59780D01*
G03X2525900Y2823200I-7397J-6995D01*
G01X2328100Y2625400D01*
X2327900Y2623500D01*
G37*
G54D18*
X5845000Y1775000D03*
G54D17*
X4068000Y3300000D03*
X3814000D03*
X3560000D03*
X3306000D03*
X3052000D03*
X2036000D03*
X1782000D03*
X1528000D03*
X1274000D03*
X1020000D03*
X766000D03*
X512000D03*
X258000D03*
X3304000Y260000D03*
X3050000D03*
X2796000D03*
X2542000D03*
X2288000D03*
X2034000D03*
X1780000D03*
X1526000D03*
X1272000D03*
X1018000D03*
X764000D03*
X510000D03*
X256000D03*
%LPD*%
G75*
G54D10*
X256000Y260000D03*
X510000D03*
X764000D03*
X512000Y3300000D03*
X766000D03*
X258000D03*
X1272000Y260000D03*
X1526000D03*
X1018000D03*
X1528000Y3300000D03*
X1020000D03*
X1274000D03*
X2034000Y260000D03*
X1780000D03*
X2288000D03*
X1782000Y3300000D03*
X2036000D03*
X2290000D03*
X2796000Y260000D03*
X2542000D03*
X3050000D03*
X3052000Y3300000D03*
X2798000D03*
X2544000D03*
X3812000Y260000D03*
X3558000D03*
X3304000D03*
X3306000Y3300000D03*
X3560000D03*
X3814000D03*
X4068000D03*
G54D11*
X740000Y1530000D03*
X1030000Y490000D03*
X1330000D03*
X1360000Y1460000D03*
X1130000D03*
X880000Y1530000D03*
X810000Y2010000D03*
X1080700Y2249300D03*
Y2049300D03*
X1130000Y2930000D03*
X2080000Y489500D03*
X2012200Y1362200D03*
X2230000Y2310000D03*
X2110000Y2650000D03*
X1767500Y2372500D03*
X2030000Y2330000D03*
X1820000Y2750000D03*
X2550000Y610000D03*
X2700000Y1260000D03*
X2850000Y1890000D03*
X2640000Y1520000D03*
X2410000Y2100000D03*
X2860000Y1520000D03*
Y1740000D03*
X2568100Y1970000D03*
X2590000Y2870000D03*
X2260000Y2630000D03*
X2970000Y2870000D03*
X2380000Y3000000D03*
X2680000Y3370000D03*
X2860000Y3080000D03*
X2420000Y3370000D03*
X3600000Y510000D03*
X3200000Y800000D03*
X3480000Y1410000D03*
X3770000Y800000D03*
X3650000Y1580000D03*
X3180000Y1830000D03*
X3530000Y2640000D03*
X3220000Y3080000D03*
X3620000Y3061100D03*
X4507400Y1832600D03*
X4110000Y2100000D03*
X4365200Y2765200D03*
X4110000Y2700000D03*
X4875200Y2895200D03*
X5411100Y2568900D03*
G54D12*
X1900000Y580000D03*
G54D13*
X6099000Y1521000D03*
X5593000Y1513000D03*
X5845000Y1775000D03*
X5591000Y2029000D03*
X6099000D03*
G54D14*
G01X2230000Y2310000D02*
X2410000Y2130000D01*
Y2100000D01*
G01X2860000Y1740000D02*
Y1520000D01*
G01X2680000Y3370000D02*
Y3160000D01*
X2590000Y3070000D01*
Y2870000D01*
G01D02*
X2530000D01*
X2290000Y2630000D01*
X2260000D01*
G01X2420000Y3370000D02*
Y3200000D01*
X2390000Y3170000D01*
Y3010000D01*
X2380000Y3000000D01*
G01X3812000Y260000D02*
Y758000D01*
G01D02*
X3770000Y800000D01*
G54D15*
G01X1330000Y490000D02*
X1030000D01*
G01X1080700Y2049300D02*
Y1509300D01*
G01X810000Y2010000D02*
X1041400D01*
G01D02*
X1080700Y2049300D01*
G01Y1509300D02*
X1130000Y1460000D01*
G01D02*
X1360000D01*
G01X1080700Y2049300D02*
Y2249300D01*
G01X1767500Y2372500D02*
X1203900D01*
G01D02*
X1080700Y2249300D01*
G01X2080000Y489500D02*
X2080500Y490000D01*
X2430000D01*
X2550000Y610000D01*
G01X1820000Y2750000D02*
Y2425000D01*
G01X2110000Y2650000D02*
X1920000D01*
G01D02*
X1820000Y2750000D01*
G01Y2425000D02*
X1767500Y2372500D01*
G01X2850000Y1890000D02*
X2640000Y1680000D01*
Y1520000D01*
G01X3600000Y510000D02*
X3558000Y468000D01*
Y260000D01*
G54D16*
G01X1457800Y1362200D02*
X1360000Y1460000D01*
G01X1130000Y2930000D02*
X1640000D01*
G01X2012200Y1362200D02*
Y672200D01*
G01Y1362200D02*
X1457800D01*
G01X2030000Y2330000D02*
Y2090000D01*
G01X2180000Y1940000D02*
X2490000D01*
G01X2030000Y2090000D02*
X2180000Y1940000D01*
G01X2030000Y2330000D02*
Y2570000D01*
G01X2110000Y2650000D02*
X2290000Y2470000D01*
G01X1640000Y2930000D02*
X1820000Y2750000D01*
G01X2030000Y2570000D02*
X2110000Y2650000D01*
G01X2700000Y1260000D02*
X3350000D01*
G01X2568100Y1970000D02*
X3040000D01*
G01X2520000D02*
X2568100D01*
G01X2490000Y1940000D02*
X2520000Y1970000D01*
G01X2780000Y2680000D02*
X2970000Y2870000D01*
G01X2290000Y2470000D02*
X2660000D01*
G01D02*
X2780000Y2590000D01*
G01D02*
Y2680000D01*
G01X2860000Y3080000D02*
X3200000D01*
G01X2970000Y2970000D02*
X2860000Y3080000D01*
G01X3500000Y1100000D02*
X3200000Y800000D01*
G01X3770000D02*
X3200000D01*
G01X3480000Y1390000D02*
Y1410000D01*
G01X3350000Y1260000D02*
X3480000Y1390000D01*
G01X3500000Y1410000D02*
X3480000D01*
G01X3650000Y1560000D02*
X3500000Y1410000D01*
G01Y1390000D02*
Y1100000D01*
G01X3480000Y1410000D02*
X3500000Y1390000D01*
G01X3480000Y1430000D02*
Y1410000D01*
G01X3180000Y1730000D02*
X3480000Y1430000D01*
G01X3650000Y1580000D02*
Y1560000D01*
G01X3180000Y1830000D02*
Y1730000D01*
G01X3040000Y1970000D02*
X3180000Y1830000D01*
G01X2970000Y2870000D02*
Y2970000D01*
G01X3530000Y2640000D02*
X4050000D01*
G01X3530000D02*
Y2750000D01*
G01D02*
X3220000Y3060000D01*
G01X3200000Y3080000D02*
X3220000D01*
G01Y3060000D02*
Y3080000D01*
G01X3238900Y3061100D02*
X3220000Y3080000D01*
G01X3620000Y3061100D02*
X3238900D01*
G01X4507400Y1832600D02*
X4377400D01*
G01D02*
X4110000Y2100000D01*
G01Y2700000D02*
Y2100000D01*
G01X4365200Y2765200D02*
X4175200D01*
G01X4050000Y2640000D02*
X4110000Y2700000D01*
G01X4495200Y2895200D02*
X4365200Y2765200D01*
G01X4175200D02*
X4110000Y2700000D01*
G01X4875200Y2895200D02*
X4495200D01*
G01X5411100Y2568900D02*
X5201500D01*
G01D02*
X4875200Y2895200D01*
G01X5591000Y2029000D02*
X6099000D01*
G01X5591000D02*
Y2389000D01*
G01X6091000Y1513000D02*
X5593000D01*
G01X5591000Y2389000D02*
X5411100Y2568900D01*
G01X6099000Y2029000D02*
Y1521000D01*
G01D02*
X6091000Y1513000D01*
M02*
