G04 ================== begin FILE IDENTIFICATION RECORD ==================*
G04 Layout Name:  c:/src/bsm-2/schematics/bsm-radio.brd*
G04 Film Name:    BOTTOM*
G04 File Format:  Gerber RS274X*
G04 File Origin:  16.0-s004*
G04 Origin Date:  Mon Jan 30 10:43:59 2012*
G04 *
G04 Layer:  ETCH/BOTTOM*
G04 Layer:  PIN/BOTTOM*
G04 Layer:  VIA CLASS/BOTTOM*
G04 *
G04 Offset:    (0.000 0.000)*
G04 Mirror:    No*
G04 Mode:      Positive*
G04 Rotation:  0*
G04 FullContactRelief:  No*
G04 UndefLineWidth:     0.000*
G04 ================== end FILE IDENTIFICATION RECORD ====================*
%FSLAX53Y53*MOIN*%
%IR0*IPPOS*OFA0.00000B0.00000*MIA0B0*SFA1.00000B1.00000*%
%ADD14C,.090551*%
%ADD13C,.23622*%
%ADD10C,.057992*%
%ADD11C,.029921*%
%ADD12C,.037795*%
%ADD15C,.007874*%
%ADD16C,.011811*%
%ADD17C,.009843*%
%ADD19C,.106457*%
%ADD18C,.073937*%
G75*
%LPD*%
G75*
G36*
G01X20Y20D02*
Y1386D01*
X2480D01*
Y20D01*
X20D01*
G37*
%LPC*%
G75*
G36*
G01X912Y1028D02*
G02X902Y1055I-22J7D01*
G01X903Y1054D01*
X991Y1142D01*
X1000D01*
X1001Y1143D01*
G02X1007Y1149I19J-13D01*
G01X1008Y1150D01*
Y1214D01*
X1043Y1249D01*
Y1307D01*
X1042Y1308D01*
G02X1041Y1309I13J19D01*
G03X1038Y1307I-1J-2D01*
G02X972Y1277I-36J-8D01*
G03X965Y1275I-3J-2D01*
G01Y1255D01*
X953Y1243D01*
Y1198D01*
X953Y1197D01*
G02X928Y1202I-16J-16D01*
G01X929Y1203D01*
Y1253D01*
X941Y1265D01*
Y1278D01*
G03X933Y1280I-4J0D01*
G02X924Y1329I-32J19D01*
G03X930Y1331I2J3D01*
G02X975Y1332I22J-4D01*
G03X981Y1330I4J1D01*
G02X1026Y1327I20J-31D01*
G03X1032Y1330I3J3D01*
G02X1077Y1333I23J-3D01*
G03X1083Y1331I4J1D01*
G02X1074Y1275I19J-32D01*
G03X1067Y1272I-3J-3D01*
G01Y1239D01*
X1032Y1204D01*
Y1150D01*
X1032Y1149D01*
G02X1003Y1114I-13J-19D01*
G03X997Y1114I-3J-3D01*
G01X912Y1029D01*
X912Y1028D01*
G37*
G36*
G01X956Y849D02*
G02X929Y839I-7J-22D01*
G01X930Y840D01*
X883Y887D01*
X882Y887D01*
G02X900Y905I-4J22D01*
G01X900Y904D01*
X956Y849D01*
G37*
G36*
G01X1139Y617D02*
G02X1113I-13J-19D01*
G01X1114Y618D01*
Y665D01*
X1113Y666D01*
G02X1139I13J19D01*
G01X1138Y665D01*
Y618D01*
X1139Y617D01*
G37*
G36*
G01X1054Y616D02*
G02X1025I-15J-18D01*
G01X1026Y617D01*
Y667D01*
X1099Y741D01*
X1099Y742D01*
G02X1120Y721I23J2D01*
G01X1119Y721D01*
X1053Y656D01*
Y617D01*
X1054Y616D01*
G37*
G36*
G01X423Y178D02*
G02Y208I-18J15D01*
G01X424Y207D01*
X505D01*
X506Y208D01*
G02Y178I18J-15D01*
G01X505Y179D01*
X424D01*
X423Y178D01*
G37*
G36*
G01X837D02*
G02X836Y207I-18J14D01*
G01X837Y207D01*
X951D01*
X981Y237D01*
X981Y238D01*
G02X1002Y217I23J2D01*
G01X1001Y217D01*
X962Y179D01*
X837D01*
X837Y178D01*
G37*
G36*
G01X1416Y136D02*
G02X1386I-15J-34D01*
G01X1387Y137D01*
Y190D01*
X1395Y198D01*
X1395Y199D01*
G02X1418Y178I23J2D01*
G03X1415Y174I0J-4D01*
G01Y137D01*
X1416Y136D01*
G37*
G36*
G01X315Y575D02*
G02Y599I-24J12D01*
G03X322I4J2D01*
G02Y575I24J-12D01*
G03X315I-4J-2D01*
G37*
G54D19*
X2301Y699D03*
G54D18*
X1602Y1299D03*
X1502D03*
X1402D03*
X1302D03*
X1202D03*
X802D03*
X702D03*
X602D03*
X502D03*
X402D03*
X302D03*
X202D03*
X102D03*
X1301Y102D03*
X1201D03*
X1101D03*
X1001D03*
X901D03*
X801D03*
X701D03*
X601D03*
X501D03*
X401D03*
X301D03*
X201D03*
X101D03*
%LPD*%
G75*
G54D10*
X101Y102D03*
X201D03*
X301D03*
X202Y1299D03*
X302D03*
X102D03*
X501Y102D03*
X601D03*
X401D03*
X602Y1299D03*
X402D03*
X502D03*
X801Y102D03*
X701D03*
X901D03*
X702Y1299D03*
X802D03*
X902D03*
X1101Y102D03*
X1001D03*
X1201D03*
X1202Y1299D03*
X1102D03*
X1002D03*
X1501Y102D03*
X1401D03*
X1301D03*
X1302Y1299D03*
X1402D03*
X1502D03*
X1602D03*
G54D11*
X197Y197D03*
X71Y413D03*
X75Y780D03*
X98Y984D03*
X406Y193D03*
X524D03*
X311Y531D03*
X575Y492D03*
X492D03*
X579Y394D03*
X492D03*
X394Y374D03*
X295D03*
X394Y295D03*
X295D03*
X535Y575D03*
X445D03*
X402Y736D03*
X319Y862D03*
X492Y689D03*
X319Y717D03*
X425Y886D03*
Y807D03*
X319Y791D03*
X350Y1067D03*
X445Y1154D03*
X591Y1201D03*
X819Y193D03*
X748Y228D03*
X693Y528D03*
X787Y591D03*
X792Y536D03*
X787Y886D03*
X890Y1035D03*
X878Y909D03*
X768Y1083D03*
X787Y984D03*
X831Y1043D03*
X696Y934D03*
X799Y917D03*
X717Y1083D03*
X1004Y240D03*
X1154Y469D03*
X1181Y295D03*
X1063Y496D03*
X1039Y598D03*
X1122Y744D03*
X949Y827D03*
X1126Y598D03*
Y685D03*
X1011Y776D03*
X1020Y1130D03*
X1169D03*
X937Y1181D03*
X1055Y1327D03*
X1126Y1213D03*
X953Y1327D03*
X1417Y201D03*
X1260Y315D03*
X1370Y555D03*
X1484Y315D03*
X1244Y476D03*
X1232Y858D03*
X1264Y614D03*
X1378Y886D03*
X1441Y827D03*
X1378Y787D03*
X1453Y724D03*
X1437Y622D03*
X1252Y720D03*
X1461Y1039D03*
X1232Y1098D03*
X1307Y957D03*
X1335Y984D03*
X1280Y929D03*
X1335D03*
X1476Y1181D03*
X1378Y1083D03*
X1280Y984D03*
X1390Y1039D03*
X1268Y1213D03*
X1425Y1205D03*
X1492Y252D03*
X1772Y197D03*
X1673D03*
X1772Y98D03*
X1673D03*
X1575D03*
X1772Y591D03*
Y492D03*
X1638Y484D03*
X1508Y480D03*
X1772Y394D03*
Y295D03*
X1673D03*
X1575D03*
X1669Y870D03*
X1673Y787D03*
X1575D03*
X1673Y689D03*
X1575D03*
X1693Y606D03*
X1775Y721D03*
X1618Y827D03*
X1772Y1181D03*
X1673D03*
X1575D03*
X1791Y1094D03*
X1772Y984D03*
X1719Y1089D03*
X1618Y1063D03*
X1772Y1280D03*
X1673D03*
X2067Y197D03*
X1969D03*
X1870D03*
X2067Y98D03*
X1969D03*
X1870D03*
X2067Y591D03*
X1969D03*
X1870D03*
X2067Y492D03*
X1969D03*
X1870D03*
X2067Y394D03*
X1969D03*
X1870D03*
X2067Y295D03*
X1969D03*
X1870D03*
X1969Y787D03*
X1870D03*
X2067Y689D03*
X1870D03*
X2067Y1181D03*
X1969D03*
X1870D03*
X2067Y1083D03*
X1969D03*
X1850Y1094D03*
X2000Y1008D03*
X1919Y1140D03*
X2067Y1280D03*
X1969D03*
X1870D03*
X2165Y197D03*
Y98D03*
X2264Y492D03*
X2165D03*
X2264Y394D03*
X2165D03*
X2264Y295D03*
X2165D03*
X2264Y886D03*
X2165D03*
Y689D03*
X2264Y1181D03*
X2165D03*
X2264Y1083D03*
X2165D03*
X2264Y984D03*
X2130Y1011D03*
X2264Y1280D03*
X2165D03*
G54D12*
X291Y587D03*
X346D03*
G54D13*
X173Y1126D03*
X2350Y150D03*
G54D14*
X2401Y599D03*
X2202Y596D03*
X2301Y699D03*
X2201Y799D03*
X2401D03*
G54D15*
G01X878Y909D02*
X949Y839D01*
Y827D01*
G01X1126Y685D02*
Y598D01*
G01X1020Y1130D02*
X996D01*
X902Y1035D01*
X890D01*
G01X1055Y1327D02*
Y1244D01*
X1020Y1209D01*
Y1130D01*
G01X953Y1327D02*
Y1260D01*
X941Y1248D01*
Y1185D01*
X937Y1181D01*
G01X1501Y102D02*
Y298D01*
G01D02*
X1484Y315D01*
G54D16*
G01X524Y193D02*
X406D01*
G01X445Y575D02*
X425Y594D01*
G01Y807D02*
X410Y791D01*
G01X445Y575D02*
X535D01*
G01X425Y807D02*
Y886D01*
G01Y594D02*
Y807D01*
G01X410Y791D02*
X319D01*
G01X425Y886D02*
X474Y934D01*
G01D02*
X696D01*
G01X819Y193D02*
X957Y193D01*
X1004Y240D01*
G01X831Y1043D02*
X756D01*
G01X696Y934D02*
X717Y955D01*
G01X756Y1043D02*
X717Y1083D01*
G01Y955D02*
Y1083D01*
G01X1122Y744D02*
X1039Y661D01*
Y598D01*
G01X1417Y201D02*
X1401Y184D01*
Y102D01*
G54D17*
G01X535Y575D02*
X574Y536D01*
G01X445Y1154D02*
X646D01*
G01X792Y536D02*
Y265D01*
G01X574Y536D02*
X792D01*
G01X799Y823D02*
Y917D01*
G01X858Y764D02*
X799Y823D01*
G01X980Y764D02*
X858D01*
G01X831Y1043D02*
X799Y1012D01*
G01X831Y1043D02*
X902Y972D01*
G01X646Y1154D02*
X717Y1083D01*
G01X799Y1012D02*
Y917D01*
G01X1063Y496D02*
X1319D01*
G01X1011Y776D02*
X1197D01*
G01X1011D02*
X992D01*
G01D02*
X980Y764D01*
G01X1094Y1055D02*
X1169Y1130D01*
G01X902Y972D02*
X1047D01*
G01D02*
X1094Y1020D01*
G01D02*
Y1055D01*
G01X1126Y1213D02*
X1169Y1169D01*
G01X1126Y1213D02*
X1268D01*
G01X1260Y315D02*
X1484D01*
G01X1370Y555D02*
X1378Y547D01*
G01X1370D02*
Y555D01*
G01X1378Y433D02*
X1260Y315D01*
G01X1378Y555D02*
X1370D01*
G01Y563D02*
Y555D01*
G01X1319Y496D02*
X1370Y547D01*
G01X1378D02*
Y433D01*
G01X1437Y614D02*
X1378Y555D01*
G01X1252Y681D02*
X1370Y563D01*
G01X1437Y622D02*
Y614D01*
G01X1252Y720D02*
Y681D01*
G01X1197Y776D02*
X1252Y720D01*
G01X1390Y1039D02*
X1461D01*
G01X1169Y1169D02*
Y1130D01*
G01X1390Y1083D02*
Y1039D01*
G01X1461D02*
X1594D01*
G01X1268Y1205D02*
X1390Y1083D01*
G01X1425Y1205D02*
X1275D01*
G01X1268Y1213D02*
Y1205D01*
G01X1275Y1205D02*
X1268Y1213D01*
G01X1618Y827D02*
X1723Y721D01*
G01X1618Y1063D02*
Y827D01*
G01X1723Y721D02*
X1775D01*
G01X1618Y1063D02*
X1644Y1089D01*
G01X1719D02*
X1770Y1140D01*
G01X1594Y1039D02*
X1618Y1063D01*
G01X1644Y1089D02*
X1719D01*
G01X1919Y1140D02*
X2048Y1011D01*
G01X1770Y1140D02*
X1919D01*
G01X2048Y1011D02*
X2130D01*
G01X2201Y799D02*
X2401D01*
G01X2202Y596D02*
X2398D01*
G01X2201Y799D02*
Y941D01*
G01D02*
X2130Y1011D01*
G01X2401Y799D02*
Y599D01*
G01X2398Y596D02*
X2401Y599D01*
M02*
