G04 ================== begin FILE IDENTIFICATION RECORD ==================*
G04 Layout Name:  c:/src/bsm-2/schematics/bsm-radio.brd*
G04 Film Name:    BOTTOM*
G04 File Format:  Gerber RS274X*
G04 File Origin:  16.0-s004*
G04 Origin Date:  Fri Jan 20 19:16:42 2012*
G04 *
G04 Layer:  ETCH/BOTTOM*
G04 Layer:  PIN/BOTTOM*
G04 Layer:  VIA CLASS/BOTTOM*
G04 *
G04 Offset:    (0.000 0.000)*
G04 Mirror:    No*
G04 Mode:      Positive*
G04 Rotation:  0*
G04 FullContactRelief:  No*
G04 UndefLineWidth:     0.000*
G04 ================== end FILE IDENTIFICATION RECORD ====================*
%FSLAX55Y55*MOIN*%
%IR0*IPPOS*OFA0.00000B0.00000*MIA0B0*SFA1.00000B1.00000*%
%ADD12C,.090551*%
%ADD10C,.057992*%
%ADD11C,.037795*%
%ADD13C,.007874*%
%ADD14C,.011811*%
%ADD15C,.009843*%
%ADD17C,.106457*%
%ADD16C,.073937*%
G75*
%LPD*%
G75*
G36*
G01X1972Y1972D02*
Y138579D01*
X248028D01*
Y1972D01*
X1972D01*
G37*
%LPC*%
G75*
G36*
G01X91650Y103287D02*
G02X90476Y105772I-2673J257D01*
G01X90610Y105681D01*
X99114Y114181D01*
X99559D01*
X99614Y114283D01*
G02X100677Y115346I2354J-1291D01*
G01X100780Y115402D01*
Y121358D01*
X104323Y124902D01*
Y130268D01*
X104220Y130323D01*
G02X104150Y130366I1363J2310D01*
G03X103846Y130177I-103J-173D01*
G02X97189Y127720I-3688J-255D01*
G03X96465Y127480I-322J-240D01*
G01Y125492D01*
X95283Y124311D01*
Y120280D01*
X95358Y120220D01*
G02X92776Y120630I-1658J-2111D01*
G01X92906Y120677D01*
Y125295D01*
X94087Y126476D01*
Y127835D01*
G03X93339Y128039I-402J1D01*
G02X92075Y133083I-3181J1883D01*
G03X92669Y133331I205J344D01*
G02X97854Y133429I2606J-652D01*
G03X98425Y133189I384J114D01*
G02X102260Y132965I1733J-3267D01*
G03X102882Y133213I229J329D01*
G02X108063Y133520I2631J-535D01*
G03X108610Y133280I381J124D01*
G02X107402Y127457I1547J-3358D01*
G03X106701Y127189I-299J-267D01*
G01Y123917D01*
X103157Y120374D01*
Y115402D01*
X103260Y115346D01*
G02X100020Y111142I-1294J-2354D01*
G03X99445Y111150I-291J-275D01*
G01X91657Y103362D01*
X91650Y103287D01*
G37*
G36*
G01X95138Y85350D02*
G02X92654Y84177I-257J-2673D01*
G01X92744Y84311D01*
X88657Y88402D01*
X88543Y88366D01*
G02X90374Y90197I-748J2579D01*
G01X90339Y90083D01*
X95063Y85358D01*
X95138Y85350D01*
G37*
G36*
G01X31531Y59028D02*
G02Y61445I-2398J1209D01*
G03X32248I358J181D01*
G02Y59028I2398J-1209D01*
G03X31531I-358J-181D01*
G37*
G36*
G01X105413Y62087D02*
G02X102461I-1476J-2244D01*
G01X102551Y62146D01*
Y66717D01*
X109598Y73760D01*
X109575Y73866D01*
G02X111661Y71780I2630J543D01*
G01X111555Y71803D01*
X110516Y70760D01*
X110783Y70492D01*
X110925Y70602D01*
G02X113890Y66150I1675J-2098D01*
G01X113787Y66094D01*
Y62252D01*
X113890Y62197D01*
G02X111307I-1291J-2354D01*
G01X111409Y62252D01*
Y66094D01*
X111307Y66150D01*
G02X110004Y69189I1292J2353D01*
G03X109331Y69575I-389J102D01*
G01X105323Y65567D01*
Y62146D01*
X105413Y62087D01*
G37*
G36*
G01X42795Y17815D02*
G02Y20768I-2244J1476D01*
G01X42854Y20677D01*
X50059D01*
X50118Y20768D01*
G02Y17815I2244J-1476D01*
G01X50059Y17906D01*
X42854D01*
X42795Y17815D01*
G37*
G36*
G01X84146D02*
G02X84122Y20768I-2255J1458D01*
G01X84181Y20677D01*
X95094D01*
X97787Y23366D01*
X97764Y23472D01*
G02X99850Y21386I2630J543D01*
G01X99744Y21409D01*
X96244Y17906D01*
X84205D01*
X84146Y17815D01*
G37*
G36*
G01X141583Y13614D02*
G02X138575I-1504J-3378D01*
G01X138693Y13665D01*
Y19000D01*
X139126Y19429D01*
X139102Y19535D01*
G02X141850Y17398I2629J544D01*
G03X141465Y16996I16J-402D01*
G01Y13665D01*
X141583Y13614D01*
G37*
G54D17*
X230118Y69882D03*
G54D16*
X10079Y10236D03*
X20079D03*
X30079D03*
X40079D03*
X50079D03*
X60079D03*
X70079D03*
X80079D03*
X90079D03*
X100079D03*
X110079D03*
X120079D03*
X130079D03*
X10157Y129921D03*
X20157D03*
X30157D03*
X40157D03*
X50157D03*
X60157D03*
X70157D03*
X80157D03*
X120157D03*
X130157D03*
X140157D03*
X150157D03*
X160157D03*
%LPD*%
G75*
G54D10*
X10079Y10236D03*
X20079D03*
X30079D03*
X20157Y129921D03*
X30157D03*
X10157D03*
X50079Y10236D03*
X60079D03*
X40079D03*
X60157Y129921D03*
X40157D03*
X50157D03*
X80079Y10236D03*
X70079D03*
X90079D03*
X70157Y129921D03*
X80157D03*
X90157D03*
X110079Y10236D03*
X100079D03*
X120079D03*
X120157Y129921D03*
X110157D03*
X100157D03*
X150079Y10236D03*
X140079D03*
X130079D03*
X130157Y129921D03*
X140157D03*
X150157D03*
X160157D03*
G54D11*
X19685Y19685D03*
X29134Y60236D03*
X9843Y118110D03*
Y108268D03*
Y98425D03*
X40551Y19291D03*
X52362D03*
X49213Y49213D03*
Y39370D03*
X39370D03*
X29528D03*
X39370Y29528D03*
X29528D03*
X53543Y57480D03*
X44488D03*
X34646Y60236D03*
X49213Y68898D03*
X39370D03*
X29528D03*
X39370Y59055D03*
X31890Y79134D03*
X42547Y80681D03*
X29528Y88583D03*
X42547Y88555D03*
X44488Y115354D03*
X81890Y19272D03*
X74803Y22835D03*
X59055Y49213D03*
X78740Y39370D03*
X68898D03*
X59055D03*
X79220Y53630D03*
X78740Y59055D03*
X87795Y90945D03*
X59055Y118110D03*
X78740Y108268D03*
Y98425D03*
X68898D03*
X78740Y88583D03*
X83071Y104331D03*
X69587Y93406D03*
X79921Y91732D03*
X71654Y108268D03*
X100394Y24016D03*
X118110Y29528D03*
X106299Y49606D03*
X112205Y74409D03*
X103937Y59843D03*
X94882Y82677D03*
X112598Y59843D03*
Y68504D03*
X101106Y77559D03*
X101969Y112992D03*
X88976Y103543D03*
X116929Y112992D03*
X93701Y118110D03*
X105512Y132677D03*
X112598Y121260D03*
X95276Y132677D03*
X141732Y20079D03*
X147638Y49213D03*
X125984Y31496D03*
X137008Y55512D03*
X147638Y78740D03*
X137795D03*
X147638Y68898D03*
X137795Y59055D03*
X143701Y62205D03*
X125197Y72047D03*
X147638Y118110D03*
X137795Y108268D03*
X127953Y98425D03*
X137795Y88583D03*
X138976Y103937D03*
X126772Y121260D03*
X142520Y120516D03*
X177165Y19685D03*
X167323D03*
X177165Y9843D03*
X167323D03*
X157480D03*
X177165Y49213D03*
X167323D03*
X177165Y39370D03*
Y29528D03*
X167323D03*
X157480D03*
X148425Y31496D03*
X177165Y78740D03*
X167323D03*
X157480D03*
X177165Y68898D03*
X167323D03*
X157480D03*
X177165Y59055D03*
X167323D03*
X177457Y72150D03*
X161811Y82677D03*
X177165Y118110D03*
X167323D03*
X157480D03*
X177165Y108268D03*
X167323D03*
X177165Y98425D03*
X167323Y88583D03*
X171858Y108866D03*
X161811Y106299D03*
X177165Y127953D03*
X167323D03*
X206693Y19685D03*
X196850D03*
X187008D03*
X206693Y9843D03*
X196850D03*
X187008D03*
X206693Y49213D03*
X196850D03*
X187008D03*
X206693Y39370D03*
X196850D03*
X187008D03*
X206693Y29528D03*
X196850D03*
X187008D03*
X206693Y78740D03*
X196850D03*
X187008D03*
X206693Y68898D03*
X196850D03*
X187008D03*
X206693Y59055D03*
X196850D03*
X187008D03*
X206693Y118110D03*
X196850D03*
X187008D03*
X206693Y108268D03*
X196850D03*
X187008D03*
X196850Y98425D03*
X191937Y113984D03*
X206693Y127953D03*
X196850D03*
X187008D03*
X226378Y19685D03*
X216535D03*
X226378Y9843D03*
X216535D03*
X226378Y49213D03*
X216535D03*
X226378Y39370D03*
X216535D03*
X226378Y29528D03*
X216535D03*
Y68898D03*
X226378Y118110D03*
X216535D03*
X226378Y108268D03*
X216535D03*
X226378Y98425D03*
X216535D03*
X226378Y88583D03*
X216535D03*
X213035Y101138D03*
X226378Y127953D03*
X216535D03*
G54D12*
X240118Y59882D03*
X220197Y59567D03*
X230118Y69882D03*
X220118Y79882D03*
X240118D03*
G54D13*
G01X87795Y90945D02*
X94882Y83858D01*
Y82677D01*
G01X112598Y68504D02*
Y59843D01*
G01X105512Y132677D02*
Y124409D01*
X101969Y120866D01*
Y112992D01*
G01D02*
X99606D01*
X90157Y103543D01*
X88976D01*
G01X95276Y132677D02*
Y125984D01*
X94094Y124803D01*
Y118504D01*
X93701Y118110D01*
G01X150079Y10236D02*
Y29843D01*
G01D02*
X148425Y31496D01*
G54D14*
G01X52362Y19291D02*
X40551D01*
G01X44488Y57480D02*
X42547Y59421D01*
G01Y80681D02*
X41000Y79134D01*
G01X42547Y59421D02*
Y80681D01*
G01X41000Y79134D02*
X31890D01*
G01X44488Y57480D02*
X53543D01*
G01X42547Y80681D02*
Y88555D01*
G01D02*
X47398Y93406D01*
G01D02*
X69587D01*
G01X81890Y19272D02*
X81909Y19291D01*
X95669D01*
X100394Y24016D01*
G01X83071Y104331D02*
X75591D01*
G01X69587Y93406D02*
X71654Y95472D01*
G01X75591Y104331D02*
X71654Y108268D01*
G01Y95472D02*
Y108268D01*
G01X112205Y74409D02*
X103937Y66142D01*
Y59843D01*
G01X141732Y20079D02*
X140079Y18425D01*
Y10236D01*
G54D15*
G01X53543Y57480D02*
X57394Y53630D01*
G01X44488Y115354D02*
X64567D01*
G01X79220Y53630D02*
Y26465D01*
G01X57394Y53630D02*
X79220D01*
G01X79921Y91732D02*
Y82283D01*
G01D02*
X85827Y76378D01*
G01D02*
X98031D01*
G01X83071Y104331D02*
X79921Y101181D01*
G01X83071Y104331D02*
X90157Y97244D01*
G01X64567Y115354D02*
X71654Y108268D01*
G01X79921Y101181D02*
Y91732D01*
G01X106299Y49606D02*
X131890D01*
G01X101106Y77559D02*
X119685D01*
G01X99213D02*
X101106D01*
G01X98031Y76378D02*
X99213Y77559D01*
G01X109449Y105512D02*
X116929Y112992D01*
G01X90157Y97244D02*
X104724D01*
G01D02*
X109449Y101969D01*
G01D02*
Y105512D01*
G01X112598Y121260D02*
X116929Y116929D01*
G01X112598Y121260D02*
X126772D01*
G01X125984Y31496D02*
X137795Y43307D01*
G01X137008Y55512D02*
X137795D01*
G01X137008D02*
Y56299D01*
G01X137795Y54724D02*
X137008Y55512D01*
G01Y54724D02*
Y55512D01*
G01X125984Y31496D02*
X148425D01*
G01X137795Y43307D02*
Y54724D01*
G01X131890Y49606D02*
X137008Y54724D01*
G01X137795Y55512D02*
X143701Y61417D01*
G01X137008Y56299D02*
X125197Y68110D01*
G01X143701Y61417D02*
Y62205D01*
G01X125197Y68110D02*
Y72047D01*
G01X119685Y77559D02*
X125197Y72047D01*
G01X138976Y103937D02*
X159449D01*
G01X138976D02*
Y108268D01*
G01X116929Y116929D02*
Y112992D01*
G01X138976Y108268D02*
X126772Y120472D01*
G01X142520Y120516D02*
X127516D01*
G01X126772Y120472D02*
Y121260D01*
G01X127516Y120516D02*
X126772Y121260D01*
G01X161811Y82677D02*
X172339Y72150D01*
G01D02*
X177457D01*
G01X161811Y106299D02*
Y82677D01*
G01Y106299D02*
X164378Y108866D01*
G01X171858D02*
X176976Y113984D01*
G01X159449Y103937D02*
X161811Y106299D01*
G01X164378Y108866D02*
X171858D01*
G01X191937Y113984D02*
X204783Y101138D01*
G01X176976Y113984D02*
X191937D01*
G01X204783Y101138D02*
X213035D01*
G01X220118Y79882D02*
X240118D01*
G01X220197Y59567D02*
X239803D01*
G01X220118Y79882D02*
Y94055D01*
G01D02*
X213035Y101138D01*
G01X240118Y79882D02*
Y59882D01*
G01X239803Y59567D02*
X240118Y59882D01*
M02*
