G04 ================== begin FILE IDENTIFICATION RECORD ==================*
G04 Layout Name:  C:/src/bsm-2/schematics/bsm-radio.brd*
G04 Film Name:    BOTTOM*
G04 File Format:  Gerber RS274X*
G04 File Origin:  16.0-s004*
G04 Origin Date:  Mon Jan 30 13:44:18 2012*
G04 *
G04 Layer:  ETCH/BOTTOM*
G04 Layer:  PIN/BOTTOM*
G04 Layer:  VIA CLASS/BOTTOM*
G04 *
G04 Offset:    (0.00 0.00)*
G04 Mirror:    No*
G04 Mode:      Positive*
G04 Rotation:  0*
G04 FullContactRelief:  No*
G04 UndefLineWidth:     0.00*
G04 ================== end FILE IDENTIFICATION RECORD ====================*
%FSLAX55Y55*MOIN*%
%IR0*IPPOS*OFA0.00000B0.00000*MIA0B0*SFA1.00000B1.00000*%
%ADD11C,.038*%
%ADD10C,.058*%
%ADD14C,.0906*%
%ADD13C,.0378*%
%ADD12C,.2362*%
%ADD15C,.012*%
%ADD16C,.0118*%
%ADD17C,.0098*%
%ADD18C,.07384*%
%ADD19C,.10644*%
G75*
%LPD*%
G75*
G36*
G01X1970Y1970D02*
Y138580D01*
X248030D01*
Y1970D01*
X1970D01*
G37*
%LPC*%
G75*
G36*
G01X105421Y62088D02*
G02X102459I-1481J-2248D01*
G01X102548Y62147D01*
Y66716D01*
X109557Y73733D01*
X109541Y73834D01*
G02X113340Y71817I2659J422D01*
G03X113392Y71073I170J-362D01*
G02X114091Y66258I-792J-2573D01*
G01X114002Y66199D01*
Y62141D01*
X114091Y62082D01*
G02X111109I-1491J-2242D01*
G01X111198Y62141D01*
Y66199D01*
X111109Y66258D01*
G02X109995Y69179I1491J2242D01*
G03X109325Y69562I-387J100D01*
G01X105332Y65564D01*
Y62147D01*
X105421Y62088D01*
G37*
G36*
G01X141590Y13609D02*
G02X138570I-1510J-3369D01*
G01X138688Y13662D01*
Y19006D01*
X139115Y19433D01*
X139093Y19538D01*
G02X141853Y17391I2637J542D01*
G03X141472Y16991I19J-399D01*
G01Y13662D01*
X141590Y13609D01*
G37*
G36*
G01X84150Y17807D02*
G02X84125Y20770I-2260J1463D01*
G01X84185Y20682D01*
X95093D01*
X97775Y23370D01*
X97754Y23475D01*
G02X99851Y21383I2636J545D01*
G01X99745Y21404D01*
X96247Y17898D01*
X84209D01*
X84150Y17807D01*
G37*
G36*
G01X34041Y58082D02*
G02Y60486I-2397J1202D01*
G03X34757I358J179D01*
G02Y58082I2397J-1202D01*
G03X34041I-358J-179D01*
G37*
G36*
G01X91609Y102963D02*
G02X90310Y105880I-2629J577D01*
G01X90443Y105805D01*
X99029Y114392D01*
X99669D01*
X99728Y114481D01*
G02X100479Y115232I2242J-1491D01*
G01X100568Y115291D01*
Y121451D01*
X104108Y124991D01*
Y127882D01*
G03X103362Y128081I-400J0D01*
G02X97382Y127488I-3202J1839D01*
G03X96682Y127224I-300J-264D01*
G01Y125396D01*
X95492Y124216D01*
Y120121D01*
X95554Y120062D01*
G02X92572Y120554I-1854J-1952D01*
G01X92688Y120608D01*
Y125384D01*
X93878Y126564D01*
Y127526D01*
G03X93154Y127760I-400J0D01*
G02X92071Y133079I-2994J2160D01*
G03X92666Y133325I207J342D01*
G02X97866Y133428I2614J-645D01*
G03X98437Y133185I384J111D01*
G02X102252Y132962I1723J-3265D01*
G03X102871Y133212I227J329D01*
G02X108070Y133514I2639J-532D01*
G03X108617Y133274I380J123D01*
G02X107590Y127269I1543J-3354D01*
G03X106912Y126982I-278J-287D01*
G01Y123829D01*
X103372Y120289D01*
Y115291D01*
X103461Y115232D01*
G02X100150Y111007I-1491J-2241D01*
G03X99597Y110995I-270J-295D01*
G01X91622Y103020D01*
X91609Y102963D01*
G37*
G36*
G01X95589Y85153D02*
G02X92313Y84213I-1063J-2473D01*
G01X92408Y84350D01*
X88436Y88322D01*
X88331Y88301D01*
G02X90439Y90409I-531J2639D01*
G01X90418Y90304D01*
X95554Y85168D01*
X95589Y85153D01*
G37*
G36*
G01X41938Y17809D02*
G02Y20771I-2248J1481D01*
G01X41997Y20682D01*
X50053D01*
X50112Y20771D01*
G02Y17809I2248J-1481D01*
G01X50053Y17898D01*
X41997D01*
X41938Y17809D01*
G37*
G54D18*
X60080Y10240D03*
X10080D03*
X20080D03*
X70080D03*
X80080D03*
X90080D03*
X100080D03*
X110080D03*
X120080D03*
X130080D03*
X10160Y129920D03*
X20160D03*
X30160D03*
X40160D03*
X50160D03*
X60160D03*
X70160D03*
X80160D03*
X140160D03*
X150160D03*
X160160D03*
X130160D03*
X120160D03*
X50080Y10240D03*
X40080D03*
X30080D03*
G54D19*
X230120Y69880D03*
%LPD*%
G75*
G54D10*
X10080Y10240D03*
X20080D03*
X20160Y129920D03*
X10160D03*
X50080Y10240D03*
X30080D03*
X40080D03*
X40160Y129920D03*
X50160D03*
X30160D03*
X80080Y10240D03*
X70080D03*
X60080D03*
X70160Y129920D03*
X80160D03*
X60160D03*
X110080Y10240D03*
X100080D03*
X90080D03*
X90160Y129920D03*
X110160D03*
X100160D03*
X140080Y10240D03*
X130080D03*
X120080D03*
X130160Y129920D03*
X140160D03*
X120160D03*
X150080Y10240D03*
X160160Y129920D03*
X150160D03*
G54D11*
X19690Y19690D03*
X9840Y98430D03*
X39690Y19290D03*
X49141Y48360D03*
X49210Y39370D03*
X39370Y37400D03*
X29530D03*
X38430Y30576D03*
X29925D03*
X44490Y57480D03*
X31100Y53150D03*
X31890Y79130D03*
X40160Y73620D03*
X31890Y71650D03*
X47576Y84552D03*
X35040Y106690D03*
X31890Y86220D03*
X44490Y115350D03*
X52360Y19290D03*
X81890Y19270D03*
X74800Y22830D03*
X56340Y48360D03*
Y39312D03*
X77311Y58032D03*
X53540Y57480D03*
X67295Y53040D03*
X69590Y93410D03*
X79920Y91730D03*
X76770Y108270D03*
X71650D03*
X78740Y98430D03*
Y88580D03*
X59060Y120080D03*
X100390Y24020D03*
X106300Y49610D03*
X103940Y59840D03*
X100786Y77064D03*
X88980Y103540D03*
X94526Y82680D03*
X87800Y90940D03*
X83070Y104330D03*
X101970Y112990D03*
X105510Y132680D03*
X93700Y118110D03*
X95280Y132680D03*
X141730Y20080D03*
X125980Y31500D03*
X115350Y46850D03*
X124410Y47640D03*
X118110Y29530D03*
X112200Y74256D03*
X112600Y68500D03*
Y59840D03*
X137010Y55510D03*
X125200Y72050D03*
X126380Y61420D03*
X137800Y78740D03*
X138980Y103940D03*
X123230Y85830D03*
Y109840D03*
X130710Y95670D03*
X133460Y98430D03*
X127950Y92910D03*
X133460D03*
X137800Y108270D03*
X127950Y98430D03*
X137800Y88580D03*
X126765Y120744D03*
X112993Y117624D03*
X112600Y121260D03*
X167320Y19690D03*
Y9840D03*
X157480D03*
X157752Y24024D03*
X148430Y31500D03*
X163780Y48430D03*
X150790Y48030D03*
X166203Y29640D03*
X157480Y29530D03*
X144293Y61420D03*
X167320Y78740D03*
X157480D03*
X167320Y68900D03*
X157480D03*
X145280Y72440D03*
X169290Y60630D03*
X171860Y108870D03*
X161810Y106300D03*
Y82680D03*
X146060Y103940D03*
X166930Y87010D03*
X144090Y82680D03*
X142520Y120520D03*
X167320Y127950D03*
Y118110D03*
X157480D03*
X147640D03*
X196850Y19690D03*
X187010D03*
X177170D03*
X196850Y9840D03*
X187010D03*
X177170D03*
X196850Y49210D03*
X187010D03*
X177170D03*
X196850Y39370D03*
X187010D03*
X177170D03*
X196850Y29530D03*
X187010D03*
X177170D03*
X177460Y72150D03*
X196850Y78740D03*
X187010D03*
Y68900D03*
X196850Y59060D03*
X187010D03*
X177170D03*
X196850Y108270D03*
X185040Y109450D03*
X179130D03*
X200000Y100790D03*
X177170Y98430D03*
X191940Y113980D03*
X196850Y127950D03*
X187010D03*
X177170D03*
X196850Y118110D03*
X187010D03*
X177170D03*
X216540Y19690D03*
X206690D03*
X216540Y9840D03*
X206690D03*
X226380Y49210D03*
X216540D03*
X206690D03*
X226380Y39370D03*
X216540D03*
X206690D03*
X226380Y29530D03*
X216540D03*
X206690D03*
X215344Y68952D03*
X206690Y68900D03*
Y59060D03*
X213040Y101140D03*
X226380Y108270D03*
X216540D03*
X206690D03*
X226380Y98430D03*
Y88580D03*
X216540D03*
X226380Y127950D03*
X216540D03*
X206690D03*
X226380Y118110D03*
X216540D03*
X206690D03*
G54D12*
X17633Y112600D03*
X235040Y14960D03*
G54D13*
X31644Y59284D03*
X37154D03*
G54D14*
X230120Y69880D03*
X220120Y79880D03*
X220200Y59570D03*
X240120Y79880D03*
Y59880D03*
G54D15*
G01X101970Y112990D02*
X99610D01*
X90160Y103540D01*
X88980D01*
G01X94526Y82680D02*
X94880Y83034D01*
Y83860D01*
X87800Y90940D01*
G01X105510Y132680D02*
Y124410D01*
X101970Y120870D01*
Y112990D01*
G01X95280Y132680D02*
Y125980D01*
X94090Y124800D01*
Y118500D01*
X93700Y118110D01*
G01X112600Y59840D02*
Y68500D01*
G01X150080Y10240D02*
Y29840D01*
G01D02*
X148430Y31500D01*
G54D16*
G01X39690Y19290D02*
Y19974D01*
X40374Y19290D01*
X52360D01*
G01X53540Y57480D02*
X44490D01*
G01X42550Y79526D02*
Y59420D01*
G01D02*
X44490Y57480D01*
G01X46422Y84552D02*
X41000Y79130D01*
G01D02*
X31890D01*
G01X42550Y80812D02*
Y79526D01*
G01X46290Y84552D02*
X42550Y80812D01*
G01X68152Y94848D02*
X48838D01*
G01Y85678D02*
X47400Y84240D01*
G01X48838Y94848D02*
Y85678D01*
G01X46422Y84552D02*
X46290D01*
G01X46558D02*
X46422D01*
G01X47576D02*
X46558D01*
G01X71650Y108270D02*
Y95470D01*
G01Y108270D02*
X75590Y104330D01*
G01X71650Y95470D02*
X69590Y93410D01*
G01X75590Y104330D02*
X83070D01*
G01X69590Y93410D02*
X68152Y94848D01*
G01X81890Y19270D02*
X81910Y19290D01*
X95670D01*
X100390Y24020D01*
G01X112200Y74256D02*
Y74410D01*
X103940Y66140D01*
Y59840D01*
G01X140080Y10240D02*
Y18430D01*
X141730Y20080D01*
G54D17*
G01X44490Y115350D02*
X64570D01*
G01X79220Y26460D02*
Y53005D01*
G01X77311Y58032D02*
Y54914D01*
G01D02*
Y53662D01*
G01X79220Y53005D02*
X77311Y54914D01*
G01Y53662D02*
X77279Y53630D01*
G01D02*
X57390D01*
G01D02*
X53540Y57480D01*
G01X79920Y91730D02*
Y101180D01*
G01X85830Y76380D02*
X79920Y82280D01*
G01D02*
Y91730D01*
G01Y101180D02*
X83070Y104330D01*
G01X64570Y115350D02*
X71650Y108270D01*
G01X131890Y49610D02*
X106300D01*
G01X100786Y77064D02*
X100290Y77560D01*
G01X101282D02*
X100786Y77064D01*
G01X119690Y77560D02*
X101282D01*
G01X98030Y76380D02*
X85830D01*
G01X99210Y77560D02*
X98030Y76380D01*
G01X100290Y77560D02*
X99210D01*
G01X104720Y97240D02*
X90160D01*
G01D02*
X83070Y104330D01*
G01X109450Y101970D02*
X104720Y97240D01*
G01X109450Y105510D02*
Y101970D01*
G01X116436Y112496D02*
X109450Y105510D01*
G01X125980Y31500D02*
X137800Y43310D01*
G01X148430Y31500D02*
X125980D01*
G01X137010Y54720D02*
X131890Y49610D01*
G01X137800Y43310D02*
Y54720D01*
G01X137010Y55510D02*
Y54720D01*
G01X125200Y72050D02*
X119690Y77560D01*
G01X125200Y72050D02*
Y68110D01*
G01X137800Y54720D02*
X137010Y55510D01*
G01X125200Y68110D02*
X137010Y56300D01*
G01D02*
Y55510D01*
G01X137800D02*
X137010D01*
G01X143700Y61420D02*
X137800Y55510D01*
G01X146060Y103940D02*
X138980D01*
G01X126770Y120470D02*
X138980Y108270D01*
G01D02*
Y103940D01*
G01X116436Y113978D02*
Y112496D01*
G01X112993Y117624D02*
Y117623D01*
G01X116436Y113978D02*
X116930Y113484D01*
G01X127520Y120520D02*
X142520D01*
G01X126561Y121260D02*
X112600D01*
G01X112993Y117623D02*
X116436Y114180D01*
G01D02*
Y113978D01*
G01X116930Y113484D02*
Y116930D01*
G01D02*
X112600Y121260D01*
G01X126765Y120744D02*
X126452Y121057D01*
G01X126765Y120744D02*
X126452D01*
G01D02*
X126764Y121056D01*
G01X126452Y121057D02*
Y121151D01*
G01D02*
Y121369D01*
G01Y121151D02*
X126561Y121260D01*
G01X126764Y121056D02*
X126977D01*
G01X126561Y121260D02*
X126770Y121051D01*
G01X126452Y121369D02*
X126561Y121260D01*
G01X126770Y121051D02*
Y120470D01*
G01X126977Y121056D02*
X127520Y120520D01*
G01X172340Y72150D02*
X161810Y82680D01*
G01X144293Y61420D02*
X143700D01*
G01X171860Y108870D02*
X164380D01*
G01X161810Y106300D02*
X159450Y103940D01*
G01X161810Y82680D02*
Y106300D01*
G01X164380Y108870D02*
X161810Y106300D01*
G01X159450Y103940D02*
X146060D01*
G01X177460Y72150D02*
X172340D01*
G01X204780Y101140D02*
X191940Y113980D01*
G01X176980D02*
X171860Y108870D01*
G01X191940Y113980D02*
X176980D01*
G01X240120Y79880D02*
X220120D01*
G01Y94060D02*
Y79880D01*
G01X239800Y59570D02*
X220200D01*
G01X213040Y101140D02*
X220120Y94060D01*
G01X213040Y101140D02*
X204780D01*
G01X240120Y59880D02*
Y79880D01*
G01Y59880D02*
X239800Y59570D01*
M02*
