G04 ================== begin FILE IDENTIFICATION RECORD ==================*
G04 Layout Name:  c:/src/bsm-2/schematics/bsm-radio.brd*
G04 Film Name:    BOTTOM*
G04 File Format:  Gerber RS274X*
G04 File Origin:  16.0-s004*
G04 Origin Date:  Tue Jan 24 15:01:35 2012*
G04 *
G04 Layer:  ETCH/BOTTOM*
G04 Layer:  PIN/BOTTOM*
G04 Layer:  VIA CLASS/BOTTOM*
G04 *
G04 Offset:    (0.000 0.000)*
G04 Mirror:    No*
G04 Mode:      Positive*
G04 Rotation:  0*
G04 FullContactRelief:  No*
G04 UndefLineWidth:     0.000*
G04 ================== end FILE IDENTIFICATION RECORD ====================*
%FSLAX55Y55*MOIN*%
%IR0*IPPOS*OFA0.00000B0.00000*MIA0B0*SFA1.00000B1.00000*%
%ADD14C,.090551*%
%ADD13C,.23622*%
%ADD10C,.057992*%
%ADD11C,.029921*%
%ADD12C,.037795*%
%ADD15C,.007874*%
%ADD16C,.011811*%
%ADD17C,.009843*%
%ADD19C,.106457*%
%ADD18C,.073937*%
G75*
%LPD*%
G75*
G36*
G01X1972Y1972D02*
Y138579D01*
X248028D01*
Y1972D01*
X1972D01*
G37*
%LPC*%
G75*
G36*
G01X31531Y57453D02*
G02Y59870I-2398J1209D01*
G03X32248I358J181D01*
G02Y57453I2398J-1209D01*
G03X31531I-358J-181D01*
G37*
G36*
G01X91154Y102827D02*
G02X90197Y105484I-2177J717D01*
G01X90331Y105398D01*
X99114Y114181D01*
X100008D01*
X100067Y114272D01*
G02X100689Y114894I1901J-1279D01*
G01X100780Y114953D01*
Y121358D01*
X104323Y124902D01*
Y130717D01*
X104232Y130776D01*
G02X104098Y130874I1290J1894D01*
G03X103776Y130677I-126J-157D01*
G02X97189Y127720I-3618J-754D01*
G03X96465Y127480I-322J-240D01*
G01Y125492D01*
X95283Y124311D01*
Y119768D01*
X95339Y119713D01*
G02X92783Y120209I-1637J-1603D01*
G01X92906Y120264D01*
Y125295D01*
X94087Y126476D01*
Y127835D01*
G03X93339Y128039I-402J1D01*
G02X92390Y132870I-3181J1884D01*
G03X93028Y133114I243J319D01*
G02X97496Y133236I2248J-439D01*
G03X98110Y133000I390J97D01*
G02X102579Y132717I2048J-3078D01*
G03X103240Y132969I263J303D01*
G02X107705Y133343I2272J-292D01*
G03X108291Y133114I383J117D01*
G02X107402Y127457I1866J-3192D01*
G03X106701Y127189I-299J-267D01*
G01Y123917D01*
X103157Y120374D01*
Y114953D01*
X103248Y114894D01*
G02X100299Y111421I-1281J-1900D01*
G03X99724Y111429I-291J-276D01*
G01X91169Y102874D01*
X91154Y102827D01*
G37*
G36*
G01X95598Y84854D02*
G02X92941Y83898I-717J-2177D01*
G01X93028Y84031D01*
X88343Y88717D01*
X88236Y88697D01*
G02X90043Y90504I-441J2248D01*
G01X90024Y90398D01*
X95551Y84870D01*
X95598Y84854D01*
G37*
G36*
G01X113878Y61744D02*
G02X111319I-1280J-1901D01*
G01X111409Y61803D01*
Y66543D01*
X111319Y66602D01*
G02X113878I1280J1901D01*
G01X113787Y66543D01*
Y61803D01*
X113878Y61744D01*
G37*
G36*
G01X105398Y61610D02*
G02X102476I-1461J-1767D01*
G01X102551Y61669D01*
Y66717D01*
X109933Y74098D01*
X109925Y74193D01*
G02X111988Y72130I2280J217D01*
G01X111894Y72138D01*
X105323Y65567D01*
Y61669D01*
X105398Y61610D01*
G37*
G36*
G01X42319Y17831D02*
G02Y20752I-1767J1461D01*
G01X42378Y20677D01*
X50535D01*
X50594Y20752D01*
G02Y17831I1767J-1461D01*
G01X50535Y17906D01*
X42378D01*
X42319Y17831D01*
G37*
G36*
G01X83673D02*
G02X83642Y20748I-1783J1440D01*
G01X83701Y20677D01*
X95094D01*
X98122Y23705D01*
X98114Y23799D01*
G02X100177Y21736I2280J217D01*
G01X100083Y21744D01*
X96244Y17906D01*
X83732D01*
X83673Y17831D01*
G37*
G36*
G01X141583Y13614D02*
G02X138575I-1504J-3378D01*
G01X138693Y13665D01*
Y19000D01*
X139461Y19768D01*
X139453Y19862D01*
G02X141846Y17791I2280J217D01*
G03X141465Y17390I20J-401D01*
G01Y13665D01*
X141583Y13614D01*
G37*
G54D19*
X230118Y69882D03*
G54D18*
X10079Y10236D03*
X20079D03*
X30079D03*
X40079D03*
X50079D03*
X60079D03*
X70079D03*
X80079D03*
X90079D03*
X100079D03*
X110079D03*
X120079D03*
X130079D03*
X10157Y129921D03*
X20157D03*
X30157D03*
X40157D03*
X50157D03*
X60157D03*
X70157D03*
X80157D03*
X120157D03*
X130157D03*
X140157D03*
X150157D03*
X160157D03*
%LPD*%
G75*
G54D10*
X10079Y10236D03*
X20079D03*
X30079D03*
X20157Y129921D03*
X30157D03*
X10157D03*
X50079Y10236D03*
X60079D03*
X40079D03*
X60157Y129921D03*
X40157D03*
X50157D03*
X80079Y10236D03*
X70079D03*
X90079D03*
X70157Y129921D03*
X80157D03*
X90157D03*
X110079Y10236D03*
X100079D03*
X120079D03*
X120157Y129921D03*
X110157D03*
X100157D03*
X150079Y10236D03*
X140079D03*
X130079D03*
X130157Y129921D03*
X140157D03*
X150157D03*
X160157D03*
G54D11*
X19685Y19685D03*
X9843Y98425D03*
X40551Y19291D03*
X52362D03*
X57480Y49213D03*
X49213D03*
X57874Y39370D03*
X49213D03*
X39370Y37402D03*
X29528D03*
X39370Y29528D03*
X29528D03*
X53543Y57480D03*
X44488D03*
X40157Y73622D03*
X31890Y86220D03*
X49213Y68898D03*
X31890Y71654D03*
X42547Y88555D03*
Y80681D03*
X31890Y79134D03*
X35039Y106693D03*
X44488Y115354D03*
X59055Y120079D03*
X81890Y19272D03*
X74803Y22835D03*
X78740Y59055D03*
X79220Y53630D03*
X78740Y88583D03*
X88976Y103543D03*
X87795Y90945D03*
X78740Y98425D03*
X83071Y104331D03*
X69587Y93406D03*
X79921Y91732D03*
X71654Y108268D03*
X100394Y24016D03*
X118110Y29528D03*
X106299Y49606D03*
X103937Y59843D03*
X112205Y74409D03*
X94882Y82677D03*
X112598Y59843D03*
Y68504D03*
X101106Y77559D03*
X101969Y112992D03*
X116929D03*
X93701Y118110D03*
X105512Y132677D03*
X112598Y121260D03*
X95276Y132677D03*
X141732Y20079D03*
X125984Y31496D03*
X137008Y55512D03*
X148425Y31496D03*
X137795Y88583D03*
X144094Y82677D03*
X137795Y78740D03*
X145276Y72441D03*
X143701Y62205D03*
X125197Y72047D03*
X147638Y118110D03*
X137795Y108268D03*
X127953Y98425D03*
X138976Y103937D03*
X126772Y121260D03*
X142520Y120516D03*
X177165Y19685D03*
X167323D03*
X177165Y9843D03*
X167323D03*
X157480D03*
X177165Y59055D03*
Y49213D03*
X163780Y48425D03*
X150787Y48031D03*
X177165Y39370D03*
Y29528D03*
X167323D03*
X157480D03*
X166929Y87008D03*
X167323Y78740D03*
X157480D03*
X167323Y68898D03*
X157480D03*
X169291Y60630D03*
X177457Y72150D03*
X161811Y82677D03*
X177165Y118110D03*
X167323D03*
X157480D03*
X179134Y109449D03*
X177165Y98425D03*
X171858Y108866D03*
X161811Y106299D03*
X177165Y127953D03*
X167323D03*
X206693Y19685D03*
X196850D03*
X187008D03*
X206693Y9843D03*
X196850D03*
X187008D03*
X206693Y59055D03*
X196850D03*
X187008D03*
X206693Y49213D03*
X196850D03*
X187008D03*
X206693Y39370D03*
X196850D03*
X187008D03*
X206693Y29528D03*
X196850D03*
X187008D03*
X196850Y78740D03*
X187008D03*
X206693Y68898D03*
X187008D03*
X206693Y118110D03*
X196850D03*
X187008D03*
X206693Y108268D03*
X196850D03*
X185039Y109449D03*
X200000Y100787D03*
X191937Y113984D03*
X206693Y127953D03*
X196850D03*
X187008D03*
X216535Y19685D03*
Y9843D03*
X226378Y49213D03*
X216535D03*
X226378Y39370D03*
X216535D03*
X226378Y29528D03*
X216535D03*
X226378Y88583D03*
X216535D03*
Y68898D03*
X226378Y118110D03*
X216535D03*
X226378Y108268D03*
X216535D03*
X226378Y98425D03*
X213035Y101138D03*
X226378Y127953D03*
X216535D03*
G54D12*
X29134Y58661D03*
X34646D03*
G54D13*
X17323Y112598D03*
X235039Y14961D03*
G54D14*
X240118Y59882D03*
X220197Y59567D03*
X230118Y69882D03*
X220118Y79882D03*
X240118D03*
G54D15*
G01X87795Y90945D02*
X94882Y83858D01*
Y82677D01*
G01X112598Y68504D02*
Y59843D01*
G01X101969Y112992D02*
X99606D01*
X90157Y103543D01*
X88976D01*
G01X105512Y132677D02*
Y124409D01*
X101969Y120866D01*
Y112992D01*
G01X95276Y132677D02*
Y125984D01*
X94094Y124803D01*
Y118504D01*
X93701Y118110D01*
G01X150079Y10236D02*
Y29843D01*
G01D02*
X148425Y31496D01*
G54D16*
G01X52362Y19291D02*
X40551D01*
G01X44488Y57480D02*
X42547Y59421D01*
G01Y80681D02*
X41000Y79134D01*
G01X42547Y59421D02*
Y80681D01*
G01X41000Y79134D02*
X31890D01*
G01X44488Y57480D02*
X53543D01*
G01X42547Y80681D02*
Y88555D01*
G01D02*
X47398Y93406D01*
G01D02*
X69587D01*
G01X81890Y19272D02*
X81909Y19291D01*
X95669D01*
X100394Y24016D01*
G01X83071Y104331D02*
X75591D01*
G01X69587Y93406D02*
X71654Y95472D01*
G01X75591Y104331D02*
X71654Y108268D01*
G01Y95472D02*
Y108268D01*
G01X112205Y74409D02*
X103937Y66142D01*
Y59843D01*
G01X141732Y20079D02*
X140079Y18425D01*
Y10236D01*
G54D17*
G01X53543Y57480D02*
X57394Y53630D01*
G01X44488Y115354D02*
X64567D01*
G01X79220Y53630D02*
Y26465D01*
G01X57394Y53630D02*
X79220D01*
G01X79921Y91732D02*
Y82283D01*
G01D02*
X85827Y76378D01*
G01D02*
X98031D01*
G01X83071Y104331D02*
X79921Y101181D01*
G01X83071Y104331D02*
X90157Y97244D01*
G01X64567Y115354D02*
X71654Y108268D01*
G01X79921Y101181D02*
Y91732D01*
G01X106299Y49606D02*
X131890D01*
G01X101106Y77559D02*
X119685D01*
G01X99213D02*
X101106D01*
G01X98031Y76378D02*
X99213Y77559D01*
G01X109449Y105512D02*
X116929Y112992D01*
G01X90157Y97244D02*
X104724D01*
G01X109449Y101969D02*
Y105512D01*
G01X104724Y97244D02*
X109449Y101969D01*
G01X112598Y121260D02*
X116929Y116929D01*
G01X112598Y121260D02*
X126772D01*
G01X125984Y31496D02*
X137795Y43307D01*
G01X137008Y55512D02*
X137795D01*
G01X137008D02*
Y56299D01*
G01Y54724D02*
Y55512D01*
G01X137795Y54724D02*
X137008Y55512D01*
G01X125984Y31496D02*
X148425D01*
G01X131890Y49606D02*
X137008Y54724D01*
G01X137795Y43307D02*
Y54724D01*
G01Y55512D02*
X143701Y61417D01*
G01X137008Y56299D02*
X125197Y68110D01*
G01X143701Y61417D02*
Y62205D01*
G01X125197Y68110D02*
Y72047D01*
G01X119685Y77559D02*
X125197Y72047D01*
G01X138976Y103937D02*
X159449D01*
G01X138976D02*
Y108268D01*
G01X116929Y116929D02*
Y112992D01*
G01X138976Y108268D02*
X126772Y120472D01*
G01X142520Y120516D02*
X127516D01*
G01X126772Y120472D02*
Y121260D01*
G01X127516Y120516D02*
X126772Y121260D01*
G01X161811Y82677D02*
X172339Y72150D01*
G01D02*
X177457D01*
G01X161811Y106299D02*
Y82677D01*
G01Y106299D02*
X164378Y108866D01*
G01X171858D02*
X176976Y113984D01*
G01X159449Y103937D02*
X161811Y106299D01*
G01X164378Y108866D02*
X171858D01*
G01X191937Y113984D02*
X204783Y101138D01*
G01X176976Y113984D02*
X191937D01*
G01X204783Y101138D02*
X213035D01*
G01X220118Y79882D02*
X240118D01*
G01X220197Y59567D02*
X239803D01*
G01X220118Y79882D02*
Y94055D01*
G01D02*
X213035Y101138D01*
G01X240118Y79882D02*
Y59882D01*
G01X239803Y59567D02*
X240118Y59882D01*
M02*
