M48
INCH
T01C.0157
T02C.037
T03C.065
T04C.122
T05C.02
;LEADER: 12 
;HEADER: 
;CODE  : EIA 
;FILE  : bsm-radio-1-2.drl for board bsm-radio.brd ... layers TOP and BOTTOM
;T01 Holesize 1. = 15.700000 Tolerance = +0.000000/-0.000000 PLATED MILS Quantity = 2
;T02 Holesize 2. = 37.000000 Tolerance = +0.000000/-0.000000 PLATED MILS Quantity = 31
;T03 Holesize 3. = 65.000000 Tolerance = +0.000000/-0.000000 PLATED MILS Quantity = 5
;T04 Holesize 4. = 122.000000 Tolerance = +0.000000/-0.000000 PLATED MILS Quantity = 2
;T05 Holesize 5. = 20.000000 Tolerance = +0.000000/-0.000000 NON_PLATED MILS Quantity = 161
%
G90
T01
X00316Y00593
X00372Y00593
T02
X00101Y00102
R08X00100
X00702Y01299
R06X-00100
X00902Y01299
X00802Y01299
X01602Y01299
R06X-00100
X01001Y00102
R05X00100
T03
X02301Y00699
X02201Y00799
X02401Y00799
X02401Y00599
X02202Y00596
T04
X00176Y01126
X02350Y00150
T05
X00953Y01327
X00937Y01181
X01575Y00098
X01673Y00098
X01772Y00098
R03X00098
X02165Y00098
X00197Y00197
X01673Y00197
X01772Y00197
R03X00098
X02165Y00197
X00299Y00306
X00384Y00306
X01181Y00295
X01575Y00295
X01662Y00296
X01772Y00295
R03X00098
X02165Y00295
X02264Y00295
X00295Y00374
X00394Y00374
X00492Y00394
X00563Y00393
X01772Y00394
R03X00098
X02165Y00394
X02264Y00394
X00491Y00484
X00563Y00484
X01508Y00480
X01638Y00484
X01772Y00492
R03X00098
X02165Y00492
X02264Y00492
X01693Y00606
X01772Y00591
R03X00098
X00347Y00718
X01453Y00724
X01575Y00689
X01673Y00689
X01870Y00689
X02067Y00689
X02153Y00690
X01378Y00787
X01441Y00827
X01575Y00787
X01673Y00787
X01870Y00787
X01969Y00787
X00347Y00870
X01378Y00886
X01669Y00870
X02165Y00886
X02264Y00886
X00098Y00984
X00787Y00984
X01280Y00984
X01772Y00984
X02000Y01008
X02264Y00984
X01378Y01083
X01791Y01094
X01850Y01094
X01969Y01083
X02067Y01083
X02165Y01083
X02264Y01083
X00591Y01201
X01476Y01181
R02X00098
X01772Y01181
R03X00098
X02165Y01181
X02264Y01181
X01673Y01280
X01772Y01280
X01870Y01280
R02X00098
X02165Y01280
X02264Y01280
X01484Y00315
X00350Y01067
X00257Y00783
X01126Y01213
X01335Y00929
X01280Y00929
X01335Y00984
X01307Y00957
X00716Y01083
X01244Y00476
X01264Y00614
X01232Y01098
X01232Y00858
X01154Y00469
X01578Y00240
X00347Y00796
X01425Y01205
X01461Y01039
X01252Y00720
X00768Y01083
X00673Y00530
X00311Y00531
X00535Y00575
X01618Y00827
X00445Y01154
X01130Y01174
X00748Y00228
X00799Y00917
X01618Y01063
X00476Y00846
X01370Y00555
X01268Y01207
X00445Y00575
X01775Y00722
X00770Y00549
X01063Y00496
X00696Y00934
X01260Y00315
X02130Y01011
X00831Y01043
X01443Y00614
X01719Y01089
X01919Y01140
X01390Y01039
X01008Y00771
X00257Y00646
X00610Y00846
X01126Y00598
X01126Y00685
X00878Y00909
X00945Y00827
X01417Y00201
X01122Y00743
X01039Y00598
X00397Y00193
X00819Y00193
X01004Y00240
X00524Y00193
X01055Y01327
X00890Y01035
X01020Y01130
M30
