G04 ================== begin FILE IDENTIFICATION RECORD ==================*
G04 Layout Name:  c:/src/bsm-2/schematics/bsm-radio.brd*
G04 Film Name:    SilkScreenTOP*
G04 File Format:  Gerber RS274X*
G04 File Origin:  16.0-s004*
G04 Origin Date:  Tue Jan 24 15:16:14 2012*
G04 *
G04 Layer:  USER PART NUMBER/SILKSCREEN_TOP*
G04 Layer:  TOLERANCE/SILKSCREEN_TOP*
G04 Layer:  REF DES/SILKSCREEN_TOP*
G04 Layer:  PACKAGE GEOMETRY/SILKSCREEN_TOP*
G04 Layer:  DEVICE TYPE/SILKSCREEN_TOP*
G04 Layer:  COMPONENT VALUE/SILKSCREEN_TOP*
G04 *
G04 Offset:    (0.000 0.000)*
G04 Mirror:    No*
G04 Mode:      Positive*
G04 Rotation:  0*
G04 FullContactRelief:  No*
G04 UndefLineWidth:     0.000*
G04 ================== end FILE IDENTIFICATION RECORD ====================*
%FSLAX53Y53*MOIN*%
%IR0*IPPOS*OFA0.00000B0.00000*MIA0B0*SFA1.00000B1.00000*%
%ADD10C,.003898*%
%ADD11C,.007874*%
%ADD12C,.007913*%
%ADD13C,.005906*%
%ADD14C,.005984*%
%ADD15C,.01*%
G75*
%LPD*%
G75*
G54D10*
G01X1456Y512D02*
X1300D01*
G01X1456Y276D02*
Y512D01*
G01X1300Y276D02*
X1456D01*
G01X1300Y512D02*
Y276D01*
G54D11*
G01X71Y28D02*
Y59D01*
X80D01*
X83Y57D01*
X86Y54D01*
X87Y50D01*
X86Y45D01*
X84Y42D01*
X80Y41D01*
X71D01*
G01X108Y28D02*
Y59D01*
X104Y53D01*
G01Y28D02*
X113D01*
G01X137D02*
X138Y34D01*
X139Y40D01*
X141Y45D01*
X143Y51D01*
X146Y59D01*
X130D01*
G01X171Y28D02*
Y59D01*
X180D01*
X183Y57D01*
X186Y54D01*
X187Y50D01*
X186Y45D01*
X184Y42D01*
X180Y41D01*
X171D01*
G01X208Y28D02*
Y59D01*
X204Y53D01*
G01Y28D02*
X213D01*
G01X238D02*
X241Y28D01*
X244Y30D01*
X246Y32D01*
X246Y36D01*
X246Y40D01*
X243Y43D01*
X240Y44D01*
X236D01*
X233Y45D01*
X231Y48D01*
X231Y52D01*
X232Y55D01*
X235Y58D01*
X238Y59D01*
X241Y58D01*
X244Y55D01*
X245Y52D01*
X244Y48D01*
X242Y45D01*
X240Y44D01*
X236D01*
X232Y43D01*
X230Y40D01*
X229Y36D01*
X230Y32D01*
X232Y30D01*
X235Y28D01*
X238Y28D01*
G01X245Y305D02*
Y319D01*
X237Y337D01*
G01X253D02*
X245Y319D01*
G01X267Y331D02*
X270Y335D01*
X272Y336D01*
X276Y337D01*
X279Y336D01*
X282Y333D01*
X283Y330D01*
X283Y327D01*
X281Y324D01*
X273Y319D01*
X270Y315D01*
X267Y310D01*
X266Y305D01*
X283D01*
G01X217Y567D02*
Y581D01*
X209Y598D01*
G01X224D02*
X217Y581D01*
G01X246Y567D02*
Y598D01*
X241Y592D01*
G01Y567D02*
X251D01*
G01X176Y1350D02*
Y1382D01*
X185D01*
X188Y1380D01*
X191Y1377D01*
X191Y1372D01*
X191Y1368D01*
X189Y1365D01*
X185Y1364D01*
X176D01*
G01X213Y1350D02*
Y1382D01*
X208Y1376D01*
G01Y1350D02*
X218D01*
G01X234Y1355D02*
X236Y1352D01*
X239Y1351D01*
X243Y1350D01*
X246Y1351D01*
X249Y1354D01*
X251Y1357D01*
X251Y1361D01*
X250Y1366D01*
X248Y1368D01*
X246Y1370D01*
X243Y1371D01*
X240Y1370D01*
X237Y1368D01*
X238Y1382D01*
X248D01*
G01X76Y1350D02*
Y1382D01*
X85D01*
X88Y1380D01*
X91Y1377D01*
X91Y1372D01*
X91Y1368D01*
X89Y1365D01*
X85Y1364D01*
X76D01*
G01X113Y1350D02*
Y1382D01*
X108Y1376D01*
G01Y1350D02*
X118D01*
G01X135Y1364D02*
X138Y1367D01*
X140Y1369D01*
X143Y1370D01*
X146Y1369D01*
X148Y1367D01*
X150Y1364D01*
X150Y1360D01*
X150Y1357D01*
X148Y1354D01*
X146Y1351D01*
X143Y1350D01*
X140Y1351D01*
X137Y1355D01*
X135Y1359D01*
X135Y1365D01*
X136Y1371D01*
X137Y1375D01*
X139Y1379D01*
X142Y1381D01*
X144Y1382D01*
X147Y1381D01*
X149Y1378D01*
G01X471Y28D02*
Y59D01*
X480D01*
X483Y57D01*
X486Y54D01*
X487Y50D01*
X486Y45D01*
X484Y42D01*
X480Y41D01*
X471D01*
G01X501Y54D02*
X503Y57D01*
X506Y59D01*
X509Y59D01*
X513Y58D01*
X516Y55D01*
X517Y52D01*
X516Y49D01*
X515Y46D01*
X507Y41D01*
X503Y38D01*
X501Y32D01*
X500Y28D01*
X517D01*
G01X538D02*
Y59D01*
X533Y53D01*
G01Y28D02*
X543D01*
G01X271D02*
Y59D01*
X280D01*
X283Y57D01*
X286Y54D01*
X287Y50D01*
X286Y45D01*
X284Y42D01*
X280Y41D01*
X271D01*
G01X308Y28D02*
Y59D01*
X304Y53D01*
G01Y28D02*
X313D01*
G01X331Y31D02*
X334Y29D01*
X337Y28D01*
X340Y29D01*
X343Y32D01*
X345Y36D01*
X346Y41D01*
Y47D01*
X345Y52D01*
X343Y56D01*
X341Y58D01*
X338Y59D01*
X335Y58D01*
X332Y56D01*
X331Y53D01*
X330Y49D01*
X331Y45D01*
X333Y41D01*
X335Y39D01*
X338Y39D01*
X341Y40D01*
X343Y42D01*
X346Y47D01*
G01X371Y28D02*
Y59D01*
X380D01*
X383Y57D01*
X386Y54D01*
X387Y50D01*
X386Y45D01*
X384Y42D01*
X380Y41D01*
X371D01*
G01X401Y54D02*
X403Y57D01*
X406Y59D01*
X409Y59D01*
X413Y58D01*
X416Y55D01*
X417Y52D01*
X416Y49D01*
X415Y46D01*
X407Y41D01*
X403Y38D01*
X401Y32D01*
X400Y28D01*
X417D01*
G01X438Y59D02*
X435Y58D01*
X432Y55D01*
X431Y52D01*
X430Y48D01*
X429Y43D01*
X430Y39D01*
X431Y34D01*
X432Y31D01*
X435Y29D01*
X438Y28D01*
X441Y29D01*
X443Y31D01*
X445Y34D01*
X446Y39D01*
X446Y43D01*
X446Y48D01*
X445Y52D01*
X443Y55D01*
X441Y58D01*
X438Y59D01*
G01X456Y271D02*
Y303D01*
X441D01*
G01X419D02*
Y271D01*
X424Y278D01*
G01Y303D02*
X414D01*
G01X508Y759D02*
X506Y761D01*
X503Y762D01*
X500D01*
X496Y761D01*
X494Y758D01*
X492Y755D01*
X490Y750D01*
X490Y745D01*
X490Y740D01*
X492Y737D01*
X494Y734D01*
X497Y732D01*
X499Y731D01*
X502D01*
X505Y732D01*
X507Y733D01*
X509Y735D01*
G01X521Y757D02*
X524Y760D01*
X527Y762D01*
X530Y762D01*
X534Y761D01*
X536Y758D01*
X537Y755D01*
X537Y752D01*
X535Y750D01*
X527Y744D01*
X524Y741D01*
X521Y735D01*
X521Y731D01*
X537D01*
G01X559D02*
Y762D01*
X554Y756D01*
G01Y731D02*
X563D01*
G01X414Y759D02*
X411Y761D01*
X409Y762D01*
X405D01*
X402Y761D01*
X399Y758D01*
X397Y755D01*
X396Y750D01*
X395Y745D01*
X396Y740D01*
X397Y737D01*
X399Y734D01*
X402Y732D01*
X405Y731D01*
X408D01*
X410Y732D01*
X413Y733D01*
X415Y735D01*
G01X427Y757D02*
X429Y760D01*
X432Y762D01*
X435Y762D01*
X439Y761D01*
X442Y758D01*
X443Y755D01*
X442Y752D01*
X441Y750D01*
X433Y744D01*
X429Y741D01*
X427Y735D01*
X426Y731D01*
X443D01*
G01X464Y762D02*
X461Y761D01*
X459Y758D01*
X457Y755D01*
X456Y751D01*
X455Y746D01*
X456Y742D01*
X457Y737D01*
X459Y734D01*
X461Y732D01*
X464Y731D01*
X467Y732D01*
X470Y734D01*
X471Y737D01*
X472Y742D01*
X473Y746D01*
X472Y751D01*
X471Y755D01*
X470Y758D01*
X467Y761D01*
X464Y762D01*
G01X389Y836D02*
X387Y833D01*
X386Y831D01*
Y827D01*
X388Y824D01*
X390Y821D01*
X393Y819D01*
X399Y818D01*
X403Y817D01*
X408Y818D01*
X411Y819D01*
X414Y822D01*
X416Y824D01*
X417Y827D01*
Y830D01*
X416Y833D01*
X415Y835D01*
X413Y837D01*
G01X417Y857D02*
X386D01*
X392Y852D01*
G01X417D02*
Y861D01*
G01Y886D02*
X386D01*
X392Y881D01*
G01X417D02*
Y891D01*
G01X469Y960D02*
X466Y961D01*
X464Y962D01*
X461D01*
X457Y961D01*
X454Y958D01*
X452Y955D01*
X451Y950D01*
X450Y945D01*
X451Y940D01*
X452Y937D01*
X455Y934D01*
X457Y932D01*
X460Y931D01*
X463D01*
X466Y932D01*
X468Y933D01*
X470Y935D01*
G01X482Y944D02*
X485Y948D01*
X487Y950D01*
X490Y951D01*
X493Y950D01*
X495Y948D01*
X497Y944D01*
X497Y941D01*
X497Y938D01*
X495Y934D01*
X493Y932D01*
X490Y931D01*
X487Y932D01*
X484Y935D01*
X483Y940D01*
X482Y945D01*
X483Y952D01*
X484Y955D01*
X486Y959D01*
X489Y962D01*
X492Y962D01*
X494Y961D01*
X496Y959D01*
G01X376Y1350D02*
Y1382D01*
X385D01*
X388Y1380D01*
X391Y1377D01*
X391Y1372D01*
X391Y1368D01*
X389Y1365D01*
X385Y1364D01*
X376D01*
G01X413Y1350D02*
Y1382D01*
X408Y1376D01*
G01Y1350D02*
X418D01*
G01X434Y1357D02*
X436Y1353D01*
X439Y1351D01*
X443Y1350D01*
X446Y1351D01*
X449Y1354D01*
X451Y1357D01*
X452Y1360D01*
X451Y1364D01*
X448Y1366D01*
X445Y1367D01*
X442D01*
G01X445D02*
X448Y1369D01*
X450Y1371D01*
X450Y1375D01*
X450Y1378D01*
X448Y1380D01*
X444Y1382D01*
X441Y1381D01*
X437Y1379D01*
G01X476Y1350D02*
Y1382D01*
X485D01*
X488Y1380D01*
X491Y1377D01*
X491Y1372D01*
X491Y1368D01*
X489Y1365D01*
X485Y1364D01*
X476D01*
G01X513Y1350D02*
Y1382D01*
X508Y1376D01*
G01Y1350D02*
X518D01*
G01X535Y1377D02*
X537Y1380D01*
X540Y1381D01*
X543Y1382D01*
X547Y1381D01*
X550Y1378D01*
X551Y1375D01*
X550Y1372D01*
X549Y1369D01*
X541Y1364D01*
X537Y1360D01*
X535Y1355D01*
X534Y1350D01*
X551D01*
G01X276D02*
Y1382D01*
X285D01*
X288Y1380D01*
X291Y1377D01*
X291Y1372D01*
X291Y1368D01*
X289Y1365D01*
X285Y1364D01*
X276D01*
G01X313Y1350D02*
Y1382D01*
X308Y1376D01*
G01Y1350D02*
X318D01*
G01X347D02*
Y1382D01*
X333Y1359D01*
X352D01*
G01X480Y1228D02*
X478Y1229D01*
X475Y1230D01*
X472D01*
X468Y1229D01*
X466Y1226D01*
X464Y1223D01*
X462Y1218D01*
X462Y1213D01*
X462Y1208D01*
X464Y1205D01*
X466Y1202D01*
X469Y1200D01*
X471Y1199D01*
X474D01*
X477Y1200D01*
X479Y1201D01*
X481Y1203D01*
G01X494Y1202D02*
X497Y1200D01*
X500Y1199D01*
X503Y1200D01*
X506Y1203D01*
X508Y1208D01*
X509Y1212D01*
Y1218D01*
X508Y1223D01*
X506Y1227D01*
X504Y1229D01*
X501Y1230D01*
X498Y1229D01*
X495Y1227D01*
X494Y1224D01*
X493Y1220D01*
X494Y1216D01*
X496Y1212D01*
X498Y1210D01*
X501Y1210D01*
X504Y1211D01*
X506Y1213D01*
X509Y1218D01*
G01X771Y28D02*
Y59D01*
X780D01*
X783Y57D01*
X786Y54D01*
X787Y50D01*
X786Y45D01*
X784Y42D01*
X780Y41D01*
X771D01*
G01X801Y54D02*
X803Y57D01*
X806Y59D01*
X809Y59D01*
X813Y58D01*
X816Y55D01*
X817Y52D01*
X816Y49D01*
X815Y46D01*
X807Y41D01*
X803Y38D01*
X801Y32D01*
X800Y28D01*
X817D01*
G01X843D02*
Y59D01*
X828Y36D01*
X848D01*
G01X671Y28D02*
Y59D01*
X680D01*
X683Y57D01*
X686Y54D01*
X687Y50D01*
X686Y45D01*
X684Y42D01*
X680Y41D01*
X671D01*
G01X701Y54D02*
X703Y57D01*
X706Y59D01*
X709Y59D01*
X713Y58D01*
X716Y55D01*
X717Y52D01*
X716Y49D01*
X715Y46D01*
X707Y41D01*
X703Y38D01*
X701Y32D01*
X700Y28D01*
X717D01*
G01X729Y34D02*
X731Y30D01*
X735Y28D01*
X738Y28D01*
X741Y28D01*
X744Y31D01*
X746Y34D01*
X747Y37D01*
X746Y41D01*
X743Y43D01*
X741Y44D01*
X737D01*
G01X741D02*
X743Y46D01*
X745Y49D01*
X746Y52D01*
X745Y55D01*
X743Y57D01*
X739Y59D01*
X736Y59D01*
X732Y56D01*
G01X571Y28D02*
Y59D01*
X580D01*
X583Y57D01*
X586Y54D01*
X587Y50D01*
X586Y45D01*
X584Y42D01*
X580Y41D01*
X571D01*
G01X601Y54D02*
X603Y57D01*
X606Y59D01*
X609Y59D01*
X613Y58D01*
X616Y55D01*
X617Y52D01*
X616Y49D01*
X615Y46D01*
X607Y41D01*
X603Y38D01*
X601Y32D01*
X600Y28D01*
X617D01*
G01X630Y54D02*
X633Y57D01*
X635Y59D01*
X639Y59D01*
X643Y58D01*
X645Y55D01*
X646Y52D01*
X646Y49D01*
X644Y46D01*
X636Y41D01*
X633Y38D01*
X630Y32D01*
X630Y28D01*
X646D01*
G01X801Y201D02*
X803Y203D01*
X804Y206D01*
Y209D01*
X802Y213D01*
X800Y216D01*
X797Y218D01*
X791Y219D01*
X787Y219D01*
X782Y219D01*
X779Y218D01*
X776Y215D01*
X773Y212D01*
X772Y210D01*
Y207D01*
X773Y204D01*
X775Y202D01*
X777Y200D01*
G01X779Y189D02*
X775Y186D01*
X773Y183D01*
X772Y180D01*
X773Y177D01*
X776Y173D01*
X779Y171D01*
X782Y171D01*
X786Y172D01*
X788Y175D01*
X789Y177D01*
Y181D01*
G01Y177D02*
X791Y175D01*
X793Y173D01*
X797Y172D01*
X800Y173D01*
X802Y175D01*
X804Y179D01*
X803Y182D01*
X801Y186D01*
G01X711Y201D02*
X712Y203D01*
X713Y206D01*
Y209D01*
X712Y213D01*
X709Y216D01*
X706Y218D01*
X701Y219D01*
X696Y219D01*
X691Y219D01*
X688Y218D01*
X685Y215D01*
X683Y212D01*
X682Y210D01*
Y207D01*
X683Y204D01*
X684Y202D01*
X687Y200D01*
G01X708Y188D02*
X711Y185D01*
X713Y182D01*
X713Y179D01*
X712Y175D01*
X710Y173D01*
X707Y172D01*
X703Y172D01*
X701Y174D01*
X696Y182D01*
X692Y185D01*
X687Y188D01*
X682Y188D01*
Y172D01*
G01X579Y748D02*
Y630D01*
G01X672Y721D02*
Y753D01*
X682D01*
X685Y751D01*
X687Y749D01*
X688Y745D01*
X687Y741D01*
X685Y738D01*
X682Y736D01*
X672D01*
G01X682D02*
X688Y721D01*
G01X710D02*
X712Y722D01*
X716Y723D01*
X718Y726D01*
X718Y730D01*
X718Y733D01*
X715Y736D01*
X712Y738D01*
X708D01*
X705Y739D01*
X703Y742D01*
X703Y745D01*
X704Y749D01*
X706Y752D01*
X710Y753D01*
X713Y752D01*
X716Y749D01*
X717Y745D01*
X716Y742D01*
X714Y739D01*
X712Y738D01*
X708D01*
X704Y736D01*
X702Y733D01*
X701Y730D01*
X702Y726D01*
X704Y723D01*
X707Y722D01*
X710Y721D01*
G01X813Y751D02*
X844D01*
Y741D01*
X843Y738D01*
X841Y736D01*
X836Y735D01*
X832Y736D01*
X830Y738D01*
X828Y741D01*
Y751D01*
G01Y741D02*
X813Y735D01*
G01Y714D02*
X844D01*
X838Y718D01*
G01X813D02*
Y709D01*
G01X839Y692D02*
X842Y689D01*
X844Y686D01*
X844Y683D01*
X843Y679D01*
X841Y677D01*
X838Y676D01*
X834Y676D01*
X832Y678D01*
X827Y686D01*
X823Y689D01*
X818Y692D01*
X813Y692D01*
Y676D01*
G01X850Y620D02*
X848Y622D01*
X845Y623D01*
X842D01*
X838Y621D01*
X836Y619D01*
X834Y615D01*
X832Y610D01*
X832Y605D01*
X832Y601D01*
X834Y598D01*
X836Y594D01*
X839Y592D01*
X842Y591D01*
X844D01*
X847Y592D01*
X849Y594D01*
X851Y596D01*
G01X864Y618D02*
X866Y621D01*
X869Y622D01*
X872Y623D01*
X876Y622D01*
X879Y619D01*
X879Y616D01*
X879Y613D01*
X877Y610D01*
X869Y605D01*
X866Y601D01*
X864Y596D01*
X863Y591D01*
X879D01*
G01X892Y598D02*
X894Y594D01*
X897Y592D01*
X901Y591D01*
X904Y592D01*
X907Y594D01*
X909Y598D01*
X910Y601D01*
X909Y604D01*
X906Y607D01*
X903Y608D01*
X900D01*
G01X903D02*
X906Y610D01*
X908Y612D01*
X908Y615D01*
X908Y619D01*
X906Y621D01*
X902Y623D01*
X899Y622D01*
X895Y620D01*
G01X604Y775D02*
X602Y776D01*
X599Y777D01*
X596D01*
X592Y776D01*
X590Y773D01*
X588Y770D01*
X586Y765D01*
X586Y760D01*
X586Y755D01*
X588Y752D01*
X590Y749D01*
X593Y747D01*
X595Y746D01*
X598D01*
X601Y747D01*
X603Y749D01*
X605Y751D01*
G01X618Y772D02*
X620Y775D01*
X623Y777D01*
X626Y777D01*
X630Y776D01*
X632Y774D01*
X633Y771D01*
X633Y767D01*
X631Y765D01*
X623Y760D01*
X620Y756D01*
X618Y751D01*
X617Y746D01*
X633D01*
G01X647Y772D02*
X649Y775D01*
X652Y777D01*
X655Y777D01*
X659Y776D01*
X662Y774D01*
X663Y771D01*
X662Y767D01*
X661Y765D01*
X653Y760D01*
X649Y756D01*
X647Y751D01*
X646Y746D01*
X663D01*
G01X598Y830D02*
Y808D01*
X600Y803D01*
X603Y800D01*
X607Y799D01*
X611Y800D01*
X614Y803D01*
X615Y808D01*
Y830D01*
G01X636Y799D02*
Y830D01*
X631Y824D01*
G01Y799D02*
X641D01*
G01X676Y1350D02*
Y1382D01*
X685D01*
X688Y1380D01*
X691Y1377D01*
X691Y1372D01*
X691Y1368D01*
X689Y1365D01*
X685Y1364D01*
X676D01*
G01X713Y1350D02*
Y1382D01*
X708Y1376D01*
G01Y1350D02*
X718D01*
G01X743Y1382D02*
X739Y1381D01*
X737Y1378D01*
X735Y1375D01*
X734Y1371D01*
X734Y1366D01*
X734Y1361D01*
X735Y1357D01*
X737Y1354D01*
X739Y1351D01*
X743Y1350D01*
X746Y1351D01*
X748Y1354D01*
X750Y1357D01*
X751Y1361D01*
X751Y1366D01*
X751Y1371D01*
X750Y1375D01*
X748Y1378D01*
X746Y1381D01*
X743Y1382D01*
G01X776Y1350D02*
Y1382D01*
X785D01*
X788Y1380D01*
X791Y1377D01*
X791Y1372D01*
X791Y1368D01*
X789Y1365D01*
X785Y1364D01*
X776D01*
G01X806Y1354D02*
X809Y1351D01*
X812Y1350D01*
X815Y1351D01*
X818Y1355D01*
X820Y1359D01*
X821Y1364D01*
Y1370D01*
X820Y1375D01*
X818Y1379D01*
X816Y1381D01*
X813Y1382D01*
X810Y1381D01*
X807Y1379D01*
X806Y1376D01*
X805Y1371D01*
X806Y1368D01*
X808Y1364D01*
X810Y1362D01*
X813Y1361D01*
X816Y1362D01*
X819Y1365D01*
X821Y1370D01*
G01X576Y1350D02*
Y1382D01*
X585D01*
X588Y1380D01*
X591Y1377D01*
X591Y1372D01*
X591Y1368D01*
X589Y1365D01*
X585Y1364D01*
X576D01*
G01X613Y1350D02*
Y1382D01*
X608Y1376D01*
G01Y1350D02*
X618D01*
G01X643D02*
Y1382D01*
X638Y1376D01*
G01Y1350D02*
X647D01*
G01X1102Y251D02*
Y265D01*
X1094Y282D01*
G01X1110D02*
X1102Y265D01*
G01X1136Y251D02*
Y282D01*
X1121Y260D01*
X1141D01*
G01X1071Y28D02*
Y59D01*
X1080D01*
X1083Y57D01*
X1086Y54D01*
X1087Y50D01*
X1086Y45D01*
X1084Y42D01*
X1080Y41D01*
X1071D01*
G01X1101Y54D02*
X1103Y57D01*
X1106Y59D01*
X1109Y59D01*
X1113Y58D01*
X1116Y55D01*
X1117Y52D01*
X1116Y49D01*
X1115Y46D01*
X1107Y41D01*
X1103Y38D01*
X1101Y32D01*
X1100Y28D01*
X1117D01*
G01X1137D02*
X1138Y34D01*
X1139Y40D01*
X1141Y45D01*
X1143Y51D01*
X1146Y59D01*
X1130D01*
G01X971Y28D02*
Y59D01*
X980D01*
X983Y57D01*
X986Y54D01*
X987Y50D01*
X986Y45D01*
X984Y42D01*
X980Y41D01*
X971D01*
G01X1001Y54D02*
X1003Y57D01*
X1006Y59D01*
X1009Y59D01*
X1013Y58D01*
X1016Y55D01*
X1017Y52D01*
X1016Y49D01*
X1015Y46D01*
X1007Y41D01*
X1003Y38D01*
X1001Y32D01*
X1000Y28D01*
X1017D01*
G01X1030Y41D02*
X1033Y44D01*
X1035Y46D01*
X1039Y48D01*
X1041Y46D01*
X1043Y44D01*
X1045Y41D01*
X1045Y38D01*
X1045Y34D01*
X1043Y31D01*
X1041Y29D01*
X1038Y28D01*
X1035Y29D01*
X1032Y32D01*
X1031Y36D01*
X1030Y42D01*
X1031Y49D01*
X1032Y52D01*
X1034Y56D01*
X1037Y59D01*
X1040Y59D01*
X1043Y58D01*
X1044Y55D01*
G01X871Y28D02*
Y59D01*
X880D01*
X883Y57D01*
X886Y54D01*
X887Y50D01*
X886Y45D01*
X884Y42D01*
X880Y41D01*
X871D01*
G01X901Y54D02*
X903Y57D01*
X906Y59D01*
X909Y59D01*
X913Y58D01*
X916Y55D01*
X917Y52D01*
X916Y49D01*
X915Y46D01*
X907Y41D01*
X903Y38D01*
X901Y32D01*
X900Y28D01*
X917D01*
G01X929Y32D02*
X931Y30D01*
X934Y28D01*
X938Y28D01*
X941Y29D01*
X944Y31D01*
X946Y34D01*
X946Y39D01*
X946Y43D01*
X944Y45D01*
X941Y48D01*
X938Y48D01*
X935Y48D01*
X932Y45D01*
X933Y59D01*
X944D01*
G01X905Y564D02*
X902Y566D01*
X900Y567D01*
X896D01*
X893Y565D01*
X890Y562D01*
X888Y559D01*
X887Y554D01*
X886Y549D01*
X887Y545D01*
X888Y541D01*
X891Y538D01*
X893Y536D01*
X896Y535D01*
X899D01*
X902Y536D01*
X904Y538D01*
X906Y540D01*
G01X918Y561D02*
X920Y565D01*
X923Y566D01*
X926Y567D01*
X930Y566D01*
X933Y563D01*
X934Y560D01*
X933Y557D01*
X932Y554D01*
X924Y549D01*
X920Y545D01*
X918Y540D01*
X917Y535D01*
X934D01*
G01X948Y548D02*
X950Y552D01*
X953Y554D01*
X956Y555D01*
X959Y554D01*
X961Y552D01*
X962Y549D01*
X963Y545D01*
X962Y542D01*
X961Y539D01*
X958Y536D01*
X955Y535D01*
X952Y536D01*
X950Y539D01*
X948Y544D01*
X948Y549D01*
X948Y556D01*
X950Y560D01*
X952Y563D01*
X954Y566D01*
X957Y567D01*
X960Y566D01*
X962Y563D01*
G01X913Y280D02*
X944D01*
Y296D01*
G01X931Y310D02*
X928Y313D01*
X926Y315D01*
X924Y318D01*
X926Y321D01*
X928Y323D01*
X931Y324D01*
X934Y325D01*
X938Y324D01*
X941Y323D01*
X943Y320D01*
X944Y318D01*
X943Y314D01*
X940Y312D01*
X936Y310D01*
X930Y310D01*
X923Y311D01*
X920Y312D01*
X916Y314D01*
X913Y316D01*
X913Y319D01*
X914Y322D01*
X917Y324D01*
G01X928Y631D02*
Y662D01*
X938D01*
X941Y661D01*
X943Y659D01*
X944Y654D01*
X943Y650D01*
X941Y647D01*
X938Y646D01*
X928D01*
G01X938D02*
X944Y631D01*
G01X958Y657D02*
X960Y660D01*
X963Y662D01*
X966Y662D01*
X970Y661D01*
X973Y659D01*
X974Y655D01*
X973Y652D01*
X972Y650D01*
X964Y644D01*
X960Y641D01*
X958Y635D01*
X957Y631D01*
X974D01*
G01X1141Y863D02*
Y894D01*
X1151D01*
X1154Y893D01*
X1156Y891D01*
X1156Y887D01*
X1156Y882D01*
X1153Y880D01*
X1151Y878D01*
X1141D01*
G01X1151D02*
X1156Y863D01*
G01X1169Y868D02*
X1172Y865D01*
X1175Y863D01*
X1178Y863D01*
X1182Y864D01*
X1184Y866D01*
X1186Y870D01*
X1187Y874D01*
X1186Y878D01*
X1184Y881D01*
X1181Y883D01*
X1179Y883D01*
X1176Y883D01*
X1172Y881D01*
X1173Y894D01*
X1184D01*
G01X1165Y648D02*
Y680D01*
X1175D01*
X1178Y678D01*
X1180Y676D01*
X1181Y672D01*
X1180Y668D01*
X1178Y665D01*
X1175Y664D01*
X1165D01*
G01X1175D02*
X1181Y648D01*
G01X1202D02*
Y680D01*
X1198Y674D01*
G01Y648D02*
X1207D01*
G01X1232D02*
Y680D01*
X1227Y674D01*
G01Y648D02*
X1237D01*
G01X928Y709D02*
Y741D01*
X938D01*
X941Y739D01*
X943Y737D01*
X944Y733D01*
X943Y729D01*
X941Y726D01*
X938Y725D01*
X928D01*
G01X938D02*
X944Y709D01*
G01X957Y716D02*
X959Y712D01*
X962Y710D01*
X966Y709D01*
X969Y710D01*
X972Y713D01*
X974Y716D01*
X975Y719D01*
X974Y723D01*
X971Y725D01*
X968Y726D01*
X965D01*
G01X968D02*
X971Y728D01*
X973Y730D01*
X973Y734D01*
X973Y737D01*
X971Y739D01*
X967Y741D01*
X964Y740D01*
X960Y738D01*
G01X992Y837D02*
X990Y838D01*
X987Y839D01*
X984D01*
X980Y838D01*
X977Y835D01*
X975Y832D01*
X974Y827D01*
X973Y822D01*
X974Y817D01*
X975Y814D01*
X978Y811D01*
X981Y809D01*
X983Y808D01*
X986D01*
X989Y809D01*
X991Y810D01*
X993Y813D01*
G01X1013Y808D02*
Y839D01*
X1008Y833D01*
G01Y808D02*
X1018D01*
G01X1193Y1071D02*
X1161D01*
X1168Y1066D01*
G01X1193D02*
Y1076D01*
G01X969Y1136D02*
Y1167D01*
X979D01*
X982Y1166D01*
X984Y1164D01*
X985Y1159D01*
X984Y1155D01*
X982Y1153D01*
X979Y1151D01*
X969D01*
G01X979D02*
X985Y1136D01*
G01X1007D02*
Y1167D01*
X1002Y1161D01*
G01Y1136D02*
X1012D01*
G01X1036Y1167D02*
X1033Y1166D01*
X1031Y1164D01*
X1029Y1160D01*
X1028Y1156D01*
X1028Y1151D01*
X1028Y1147D01*
X1029Y1143D01*
X1031Y1139D01*
X1033Y1137D01*
X1036Y1136D01*
X1040Y1137D01*
X1042Y1139D01*
X1044Y1143D01*
X1045Y1147D01*
X1045Y1151D01*
X1045Y1156D01*
X1044Y1160D01*
X1042Y1164D01*
X1040Y1166D01*
X1036Y1167D01*
G01X1133Y1006D02*
X1165D01*
Y996D01*
X1163Y993D01*
X1161Y991D01*
X1157Y991D01*
X1153Y991D01*
X1150Y994D01*
X1148Y996D01*
Y1006D01*
G01Y996D02*
X1133Y991D01*
G01Y964D02*
X1165D01*
X1142Y979D01*
Y959D01*
G01X1032Y1036D02*
X1001D01*
Y1046D01*
X1002Y1049D01*
X1004Y1051D01*
X1009Y1052D01*
X1013Y1051D01*
X1015Y1048D01*
X1017Y1046D01*
Y1036D01*
G01Y1046D02*
X1032Y1052D01*
G01X1019Y1066D02*
X1015Y1069D01*
X1013Y1071D01*
X1012Y1074D01*
X1013Y1077D01*
X1015Y1079D01*
X1019Y1080D01*
X1022Y1081D01*
X1025Y1080D01*
X1029Y1079D01*
X1031Y1076D01*
X1032Y1074D01*
X1031Y1071D01*
X1028Y1068D01*
X1023Y1066D01*
X1018Y1066D01*
X1011Y1067D01*
X1007Y1068D01*
X1004Y1070D01*
X1001Y1072D01*
X1001Y1075D01*
X1002Y1078D01*
X1004Y1080D01*
G01X876Y1350D02*
Y1382D01*
X885D01*
X888Y1380D01*
X891Y1377D01*
X891Y1372D01*
X891Y1368D01*
X889Y1365D01*
X885Y1364D01*
X876D01*
G01X913Y1350D02*
X916Y1351D01*
X919Y1352D01*
X921Y1355D01*
X922Y1359D01*
X921Y1362D01*
X919Y1366D01*
X915Y1367D01*
X911D01*
X909Y1368D01*
X907Y1371D01*
X906Y1375D01*
X907Y1378D01*
X910Y1381D01*
X913Y1382D01*
X916Y1381D01*
X919Y1378D01*
X920Y1375D01*
X919Y1371D01*
X917Y1368D01*
X915Y1367D01*
X911D01*
X907Y1366D01*
X905Y1362D01*
X904Y1359D01*
X905Y1355D01*
X907Y1352D01*
X910Y1351D01*
X913Y1350D01*
G01X1076D02*
Y1382D01*
X1085D01*
X1088Y1380D01*
X1091Y1377D01*
X1091Y1372D01*
X1091Y1368D01*
X1089Y1365D01*
X1085Y1364D01*
X1076D01*
G01X1106D02*
X1108Y1367D01*
X1111Y1369D01*
X1114Y1370D01*
X1117Y1369D01*
X1119Y1367D01*
X1120Y1364D01*
X1120Y1360D01*
X1120Y1357D01*
X1119Y1354D01*
X1116Y1351D01*
X1113Y1350D01*
X1110Y1351D01*
X1107Y1355D01*
X1106Y1359D01*
X1106Y1365D01*
X1106Y1371D01*
X1107Y1375D01*
X1109Y1379D01*
X1112Y1381D01*
X1115Y1382D01*
X1118Y1381D01*
X1120Y1378D01*
G01X976Y1350D02*
Y1382D01*
X985D01*
X988Y1380D01*
X991Y1377D01*
X991Y1372D01*
X991Y1368D01*
X989Y1365D01*
X985Y1364D01*
X976D01*
G01X1012Y1350D02*
X1013Y1357D01*
X1014Y1363D01*
X1016Y1368D01*
X1018Y1374D01*
X1021Y1382D01*
X1005D01*
G01X1155Y1192D02*
X1154Y1190D01*
X1153Y1187D01*
Y1184D01*
X1154Y1180D01*
X1157Y1178D01*
X1160Y1176D01*
X1165Y1174D01*
X1170Y1174D01*
X1175Y1175D01*
X1178Y1176D01*
X1181Y1178D01*
X1183Y1181D01*
X1184Y1184D01*
Y1186D01*
X1183Y1189D01*
X1181Y1191D01*
X1179Y1193D01*
G01X1184Y1213D02*
X1153D01*
X1159Y1208D01*
G01X1184D02*
Y1218D01*
G01X1158Y1235D02*
X1155Y1238D01*
X1153Y1240D01*
X1153Y1243D01*
X1154Y1247D01*
X1156Y1250D01*
X1159Y1251D01*
X1163Y1251D01*
X1165Y1249D01*
X1170Y1241D01*
X1174Y1238D01*
X1179Y1235D01*
X1184Y1234D01*
Y1251D01*
G01X953Y1230D02*
X950Y1232D01*
X947Y1233D01*
X944D01*
X941Y1231D01*
X938Y1229D01*
X936Y1226D01*
X934Y1220D01*
X934Y1216D01*
X935Y1211D01*
X936Y1208D01*
X938Y1205D01*
X941Y1203D01*
X944Y1202D01*
X947D01*
X949Y1203D01*
X952Y1204D01*
X954Y1206D01*
G01X973Y1202D02*
X973Y1208D01*
X975Y1214D01*
X976Y1219D01*
X978Y1225D01*
X981Y1233D01*
X966D01*
G01X1326Y229D02*
Y243D01*
X1318Y260D01*
G01X1334D02*
X1326Y243D01*
G01X1347Y235D02*
X1349Y231D01*
X1352Y229D01*
X1356Y229D01*
X1359Y229D01*
X1362Y232D01*
X1364Y235D01*
X1365Y238D01*
X1364Y242D01*
X1361Y244D01*
X1358Y245D01*
X1355D01*
G01X1358D02*
X1361Y247D01*
X1363Y250D01*
X1363Y253D01*
X1363Y256D01*
X1361Y259D01*
X1357Y260D01*
X1354Y260D01*
X1350Y257D01*
G01X1371Y28D02*
Y59D01*
X1380D01*
X1383Y57D01*
X1386Y54D01*
X1387Y50D01*
X1386Y45D01*
X1384Y42D01*
X1380Y41D01*
X1371D01*
G01X1400Y34D02*
X1402Y30D01*
X1405Y28D01*
X1409Y28D01*
X1412Y28D01*
X1415Y31D01*
X1417Y34D01*
X1417Y37D01*
X1417Y41D01*
X1414Y43D01*
X1411Y44D01*
X1407D01*
G01X1411D02*
X1413Y46D01*
X1415Y49D01*
X1416Y52D01*
X1415Y55D01*
X1413Y57D01*
X1410Y59D01*
X1406Y59D01*
X1403Y56D01*
G01X1438Y59D02*
X1435Y58D01*
X1432Y55D01*
X1431Y52D01*
X1430Y48D01*
X1429Y43D01*
X1430Y39D01*
X1431Y34D01*
X1432Y31D01*
X1435Y29D01*
X1438Y28D01*
X1441Y29D01*
X1443Y31D01*
X1445Y34D01*
X1446Y39D01*
X1446Y43D01*
X1446Y48D01*
X1445Y52D01*
X1443Y55D01*
X1441Y58D01*
X1438Y59D01*
G01X1271Y28D02*
Y59D01*
X1280D01*
X1283Y57D01*
X1286Y54D01*
X1287Y50D01*
X1286Y45D01*
X1284Y42D01*
X1280Y41D01*
X1271D01*
G01X1301Y54D02*
X1303Y57D01*
X1306Y59D01*
X1309Y59D01*
X1313Y58D01*
X1316Y55D01*
X1317Y52D01*
X1316Y49D01*
X1315Y46D01*
X1307Y41D01*
X1303Y38D01*
X1301Y32D01*
X1300Y28D01*
X1317D01*
G01X1331Y31D02*
X1334Y29D01*
X1337Y28D01*
X1340Y29D01*
X1343Y32D01*
X1345Y36D01*
X1346Y41D01*
Y47D01*
X1345Y52D01*
X1343Y56D01*
X1341Y58D01*
X1338Y59D01*
X1335Y58D01*
X1332Y56D01*
X1331Y53D01*
X1330Y49D01*
X1331Y45D01*
X1333Y41D01*
X1335Y39D01*
X1338Y39D01*
X1341Y40D01*
X1343Y42D01*
X1346Y47D01*
G01X1171Y28D02*
Y59D01*
X1180D01*
X1183Y57D01*
X1186Y54D01*
X1187Y50D01*
X1186Y45D01*
X1184Y42D01*
X1180Y41D01*
X1171D01*
G01X1201Y54D02*
X1203Y57D01*
X1206Y59D01*
X1209Y59D01*
X1213Y58D01*
X1216Y55D01*
X1217Y52D01*
X1216Y49D01*
X1215Y46D01*
X1207Y41D01*
X1203Y38D01*
X1201Y32D01*
X1200Y28D01*
X1217D01*
G01X1238D02*
X1241Y28D01*
X1244Y30D01*
X1246Y32D01*
X1246Y36D01*
X1246Y40D01*
X1243Y43D01*
X1240Y44D01*
X1236D01*
X1233Y45D01*
X1231Y48D01*
X1231Y52D01*
X1232Y55D01*
X1235Y58D01*
X1238Y59D01*
X1241Y58D01*
X1244Y55D01*
X1245Y52D01*
X1244Y48D01*
X1242Y45D01*
X1240Y44D01*
X1236D01*
X1232Y43D01*
X1230Y40D01*
X1229Y36D01*
X1230Y32D01*
X1232Y30D01*
X1235Y28D01*
X1238Y28D01*
G01X1424Y887D02*
Y855D01*
X1440D01*
G01X1461D02*
X1462Y862D01*
X1463Y868D01*
X1464Y873D01*
X1466Y879D01*
X1469Y887D01*
X1454D01*
G01X1273Y784D02*
X1275Y786D01*
X1276Y789D01*
Y792D01*
X1274Y795D01*
X1272Y798D01*
X1269Y800D01*
X1263Y802D01*
X1259Y802D01*
X1254Y801D01*
X1251Y800D01*
X1248Y798D01*
X1245Y795D01*
X1244Y792D01*
Y790D01*
X1245Y787D01*
X1247Y784D01*
X1249Y782D01*
G01Y771D02*
X1246Y769D01*
X1245Y766D01*
X1244Y763D01*
X1245Y759D01*
X1248Y756D01*
X1251Y755D01*
X1255Y754D01*
X1260Y755D01*
X1262Y757D01*
X1264Y760D01*
X1265Y762D01*
X1264Y765D01*
X1262Y769D01*
X1276Y768D01*
Y757D01*
G01X1248Y619D02*
X1246Y616D01*
X1245Y613D01*
Y610D01*
X1247Y607D01*
X1249Y604D01*
X1253Y602D01*
X1258Y600D01*
X1263Y600D01*
X1267Y601D01*
X1270Y602D01*
X1274Y604D01*
X1276Y607D01*
X1277Y610D01*
Y613D01*
X1276Y615D01*
X1274Y618D01*
X1272Y620D01*
G01X1251Y632D02*
X1247Y634D01*
X1246Y637D01*
X1245Y640D01*
X1246Y644D01*
X1249Y647D01*
X1252Y648D01*
X1255Y647D01*
X1258Y646D01*
X1263Y638D01*
X1267Y634D01*
X1272Y632D01*
X1277Y631D01*
Y648D01*
G01Y674D02*
X1245D01*
X1268Y659D01*
Y679D01*
G01X1428Y695D02*
X1430Y697D01*
X1431Y700D01*
Y703D01*
X1429Y707D01*
X1427Y710D01*
X1424Y712D01*
X1418Y713D01*
X1414Y714D01*
X1409Y713D01*
X1406Y712D01*
X1403Y709D01*
X1401Y706D01*
X1399Y704D01*
Y701D01*
X1401Y698D01*
X1402Y696D01*
X1404Y694D01*
G01X1399Y674D02*
X1431D01*
X1425Y679D01*
G01X1399D02*
Y669D01*
G01X1406Y653D02*
X1402Y651D01*
X1400Y648D01*
X1399Y644D01*
X1400Y641D01*
X1403Y638D01*
X1406Y636D01*
X1409Y636D01*
X1413Y636D01*
X1415Y639D01*
X1416Y642D01*
Y645D01*
G01Y642D02*
X1418Y640D01*
X1420Y638D01*
X1424Y637D01*
X1427Y638D01*
X1429Y640D01*
X1431Y643D01*
X1430Y647D01*
X1428Y650D01*
G01X1395Y832D02*
Y809D01*
X1396Y804D01*
X1400Y801D01*
X1404Y800D01*
X1407Y801D01*
X1411Y804D01*
X1412Y809D01*
Y832D01*
G01X1426Y826D02*
X1428Y830D01*
X1431Y831D01*
X1434Y832D01*
X1438Y831D01*
X1441Y828D01*
X1441Y825D01*
X1441Y822D01*
X1439Y819D01*
X1431Y814D01*
X1428Y810D01*
X1426Y805D01*
X1425Y800D01*
X1441D01*
G01X1424Y1052D02*
Y1020D01*
X1440D01*
G01X1462D02*
X1464Y1021D01*
X1468Y1023D01*
X1469Y1025D01*
X1470Y1029D01*
X1469Y1033D01*
X1467Y1036D01*
X1464Y1037D01*
X1460D01*
X1457Y1038D01*
X1455Y1041D01*
X1455Y1045D01*
X1456Y1048D01*
X1458Y1051D01*
X1462Y1052D01*
X1465Y1051D01*
X1468Y1048D01*
X1469Y1045D01*
X1468Y1041D01*
X1466Y1038D01*
X1464Y1037D01*
X1460D01*
X1456Y1036D01*
X1454Y1033D01*
X1453Y1029D01*
X1454Y1025D01*
X1456Y1023D01*
X1459Y1021D01*
X1462Y1020D01*
G01X1460Y1149D02*
X1461Y1152D01*
X1462Y1154D01*
Y1158D01*
X1461Y1161D01*
X1458Y1164D01*
X1455Y1166D01*
X1450Y1167D01*
X1445Y1168D01*
X1440Y1167D01*
X1437Y1166D01*
X1434Y1164D01*
X1432Y1161D01*
X1431Y1158D01*
Y1155D01*
X1432Y1153D01*
X1433Y1150D01*
X1435Y1148D01*
G01X1431Y1124D02*
X1462D01*
X1440Y1138D01*
Y1119D01*
G01X1276Y1350D02*
Y1382D01*
X1285D01*
X1288Y1380D01*
X1291Y1377D01*
X1291Y1372D01*
X1291Y1368D01*
X1289Y1365D01*
X1285Y1364D01*
X1276D01*
G01X1318Y1350D02*
Y1382D01*
X1303Y1359D01*
X1323D01*
G01X1376Y1350D02*
Y1382D01*
X1385D01*
X1388Y1380D01*
X1391Y1377D01*
X1391Y1372D01*
X1391Y1368D01*
X1389Y1365D01*
X1385Y1364D01*
X1376D01*
G01X1404Y1357D02*
X1407Y1353D01*
X1410Y1351D01*
X1413Y1350D01*
X1417Y1351D01*
X1420Y1354D01*
X1422Y1357D01*
X1422Y1360D01*
X1421Y1364D01*
X1419Y1366D01*
X1416Y1367D01*
X1412D01*
G01X1416D02*
X1418Y1369D01*
X1420Y1371D01*
X1421Y1375D01*
X1420Y1378D01*
X1418Y1380D01*
X1415Y1382D01*
X1411Y1381D01*
X1407Y1379D01*
G01X1176Y1350D02*
Y1382D01*
X1185D01*
X1188Y1380D01*
X1191Y1377D01*
X1191Y1372D01*
X1191Y1368D01*
X1189Y1365D01*
X1185Y1364D01*
X1176D01*
G01X1204Y1355D02*
X1207Y1352D01*
X1209Y1351D01*
X1213Y1350D01*
X1217Y1351D01*
X1219Y1354D01*
X1221Y1357D01*
X1222Y1361D01*
X1221Y1366D01*
X1219Y1368D01*
X1216Y1370D01*
X1213Y1371D01*
X1211Y1370D01*
X1207Y1368D01*
X1208Y1382D01*
X1219D01*
G01X1331Y1244D02*
Y1275D01*
X1341D01*
X1344Y1274D01*
X1346Y1272D01*
X1347Y1267D01*
X1346Y1263D01*
X1344Y1261D01*
X1341Y1259D01*
X1331D01*
G01X1341D02*
X1347Y1244D01*
G01X1369D02*
Y1275D01*
X1364Y1269D01*
G01Y1244D02*
X1374D01*
G01X1471Y28D02*
Y59D01*
X1480D01*
X1483Y57D01*
X1486Y54D01*
X1487Y50D01*
X1486Y45D01*
X1484Y42D01*
X1480Y41D01*
X1471D01*
G01X1500Y34D02*
X1502Y30D01*
X1505Y28D01*
X1509Y28D01*
X1512Y28D01*
X1515Y31D01*
X1517Y34D01*
X1517Y37D01*
X1517Y41D01*
X1514Y43D01*
X1511Y44D01*
X1507D01*
G01X1511D02*
X1513Y46D01*
X1515Y49D01*
X1516Y52D01*
X1515Y55D01*
X1513Y57D01*
X1510Y59D01*
X1506Y59D01*
X1503Y56D01*
G01X1538Y28D02*
Y59D01*
X1533Y53D01*
G01Y28D02*
X1543D01*
G01X1644Y838D02*
X1676D01*
Y854D01*
G01X1649Y868D02*
X1646Y870D01*
X1645Y873D01*
X1644Y876D01*
X1645Y880D01*
X1648Y883D01*
X1651Y884D01*
X1654Y883D01*
X1657Y882D01*
X1662Y874D01*
X1666Y870D01*
X1671Y868D01*
X1676Y867D01*
Y884D01*
G01X1611Y635D02*
X1643D01*
Y625D01*
X1641Y622D01*
X1639Y620D01*
X1635Y620D01*
X1631Y620D01*
X1628Y623D01*
X1626Y625D01*
Y635D01*
G01Y625D02*
X1611Y620D01*
G01X1615Y605D02*
X1612Y602D01*
X1611Y599D01*
X1612Y596D01*
X1615Y593D01*
X1620Y591D01*
X1625Y590D01*
X1631D01*
X1635Y591D01*
X1640Y593D01*
X1642Y595D01*
X1643Y598D01*
X1642Y601D01*
X1640Y603D01*
X1636Y605D01*
X1632Y606D01*
X1629Y605D01*
X1625Y603D01*
X1623Y601D01*
X1622Y598D01*
X1623Y595D01*
X1626Y592D01*
X1631Y590D01*
G01X1707Y730D02*
X1704Y731D01*
X1701Y732D01*
X1698D01*
X1695Y731D01*
X1692Y728D01*
X1690Y725D01*
X1688Y720D01*
X1688Y715D01*
X1689Y710D01*
X1690Y707D01*
X1692Y704D01*
X1695Y702D01*
X1698Y701D01*
X1701D01*
X1703Y702D01*
X1706Y704D01*
X1708Y706D01*
G01X1727Y701D02*
Y732D01*
X1723Y726D01*
G01Y701D02*
X1732D01*
G01X1748Y706D02*
X1751Y703D01*
X1753Y701D01*
X1757Y701D01*
X1761Y702D01*
X1763Y704D01*
X1765Y708D01*
X1766Y712D01*
X1765Y716D01*
X1763Y719D01*
X1760Y721D01*
X1757Y721D01*
X1755Y721D01*
X1751Y719D01*
X1752Y732D01*
X1763D01*
G01X1492Y778D02*
X1490Y779D01*
X1487Y780D01*
X1484D01*
X1480Y779D01*
X1477Y776D01*
X1475Y773D01*
X1474Y768D01*
X1473Y763D01*
X1474Y758D01*
X1475Y755D01*
X1478Y752D01*
X1481Y750D01*
X1483Y749D01*
X1486D01*
X1489Y750D01*
X1491Y751D01*
X1493Y754D01*
G01X1513Y749D02*
Y780D01*
X1508Y774D01*
G01Y749D02*
X1518D01*
G01X1542Y780D02*
X1539Y779D01*
X1537Y777D01*
X1535Y773D01*
X1534Y769D01*
X1534Y765D01*
X1534Y760D01*
X1535Y756D01*
X1537Y752D01*
X1539Y750D01*
X1542Y749D01*
X1545Y750D01*
X1548Y752D01*
X1549Y756D01*
X1551Y760D01*
X1551Y765D01*
X1551Y769D01*
X1549Y773D01*
X1548Y777D01*
X1545Y779D01*
X1542Y780D01*
G01X1485Y618D02*
X1483Y616D01*
X1482Y613D01*
Y610D01*
X1484Y607D01*
X1486Y604D01*
X1489Y602D01*
X1495Y600D01*
X1499Y600D01*
X1504Y601D01*
X1507Y602D01*
X1510Y604D01*
X1512Y607D01*
X1513Y610D01*
Y612D01*
X1512Y615D01*
X1511Y618D01*
X1509Y620D01*
G01X1487Y632D02*
X1484Y634D01*
X1482Y637D01*
X1482Y640D01*
X1483Y644D01*
X1486Y647D01*
X1489Y647D01*
X1492Y647D01*
X1495Y646D01*
X1500Y638D01*
X1504Y634D01*
X1509Y632D01*
X1513Y631D01*
Y647D01*
G01X1509Y660D02*
X1511Y662D01*
X1513Y665D01*
X1513Y669D01*
X1512Y672D01*
X1510Y675D01*
X1507Y677D01*
X1502Y677D01*
X1498Y677D01*
X1496Y675D01*
X1494Y672D01*
X1493Y669D01*
X1494Y666D01*
X1496Y663D01*
X1482Y664D01*
Y675D01*
G01X1763Y1115D02*
Y1083D01*
X1779D01*
G01X1792Y1088D02*
X1794Y1086D01*
X1797Y1084D01*
X1800Y1083D01*
X1804Y1084D01*
X1806Y1087D01*
X1808Y1090D01*
X1809Y1094D01*
X1808Y1099D01*
X1806Y1101D01*
X1803Y1103D01*
X1801Y1104D01*
X1798Y1103D01*
X1794Y1101D01*
X1795Y1115D01*
X1806D01*
G01X1650Y1033D02*
X1649Y1031D01*
X1648Y1028D01*
Y1025D01*
X1649Y1021D01*
X1652Y1019D01*
X1655Y1017D01*
X1660Y1015D01*
X1665Y1015D01*
X1670Y1016D01*
X1673Y1017D01*
X1676Y1019D01*
X1678Y1022D01*
X1679Y1025D01*
Y1027D01*
X1678Y1030D01*
X1677Y1032D01*
X1675Y1034D01*
G01X1653Y1047D02*
X1650Y1049D01*
X1648Y1052D01*
X1648Y1055D01*
X1649Y1059D01*
X1651Y1062D01*
X1655Y1062D01*
X1658Y1062D01*
X1660Y1060D01*
X1666Y1053D01*
X1669Y1049D01*
X1675Y1047D01*
X1679Y1046D01*
Y1062D01*
G01Y1083D02*
X1672Y1084D01*
X1667Y1085D01*
X1661Y1086D01*
X1656Y1088D01*
X1648Y1092D01*
Y1076D01*
G01X1705Y1125D02*
X1703Y1123D01*
X1702Y1120D01*
Y1117D01*
X1704Y1113D01*
X1706Y1111D01*
X1709Y1109D01*
X1715Y1107D01*
X1719Y1107D01*
X1724Y1107D01*
X1727Y1109D01*
X1730Y1111D01*
X1733Y1114D01*
X1734Y1116D01*
Y1119D01*
X1733Y1122D01*
X1731Y1124D01*
X1729Y1126D01*
G01X1734Y1146D02*
X1702D01*
X1708Y1141D01*
G01X1734D02*
Y1151D01*
G01X1730Y1169D02*
X1733Y1172D01*
X1734Y1175D01*
X1733Y1178D01*
X1729Y1181D01*
X1725Y1183D01*
X1720Y1183D01*
X1714D01*
X1709Y1183D01*
X1705Y1181D01*
X1703Y1178D01*
X1702Y1176D01*
X1703Y1172D01*
X1705Y1170D01*
X1708Y1168D01*
X1713Y1168D01*
X1716Y1168D01*
X1720Y1170D01*
X1722Y1173D01*
X1723Y1176D01*
X1721Y1179D01*
X1719Y1181D01*
X1714Y1183D01*
G01X1492Y1136D02*
X1490Y1137D01*
X1487Y1139D01*
X1484D01*
X1480Y1137D01*
X1477Y1134D01*
X1475Y1131D01*
X1474Y1126D01*
X1473Y1121D01*
X1474Y1116D01*
X1475Y1113D01*
X1478Y1110D01*
X1481Y1108D01*
X1483Y1107D01*
X1486D01*
X1489Y1108D01*
X1491Y1110D01*
X1493Y1112D01*
G01X1513Y1107D02*
X1516Y1108D01*
X1519Y1109D01*
X1521Y1112D01*
X1521Y1115D01*
X1521Y1119D01*
X1518Y1122D01*
X1515Y1124D01*
X1511D01*
X1508Y1125D01*
X1506Y1128D01*
X1506Y1131D01*
X1507Y1135D01*
X1510Y1137D01*
X1513Y1139D01*
X1516Y1137D01*
X1519Y1135D01*
X1520Y1131D01*
X1519Y1128D01*
X1517Y1125D01*
X1515Y1124D01*
X1511D01*
X1507Y1122D01*
X1505Y1119D01*
X1504Y1115D01*
X1505Y1112D01*
X1507Y1109D01*
X1510Y1108D01*
X1513Y1107D01*
G01X1576Y1350D02*
Y1382D01*
X1585D01*
X1588Y1380D01*
X1591Y1377D01*
X1591Y1372D01*
X1591Y1368D01*
X1589Y1365D01*
X1585Y1364D01*
X1576D01*
G01X1613Y1350D02*
Y1382D01*
X1608Y1376D01*
G01Y1350D02*
X1618D01*
G01X1476D02*
Y1382D01*
X1485D01*
X1488Y1380D01*
X1491Y1377D01*
X1491Y1372D01*
X1491Y1368D01*
X1489Y1365D01*
X1485Y1364D01*
X1476D01*
G01X1506Y1377D02*
X1508Y1380D01*
X1511Y1381D01*
X1514Y1382D01*
X1518Y1381D01*
X1520Y1378D01*
X1521Y1375D01*
X1521Y1372D01*
X1519Y1369D01*
X1511Y1364D01*
X1508Y1360D01*
X1506Y1355D01*
X1505Y1350D01*
X1521D01*
G01X1889Y682D02*
Y650D01*
X1905D01*
G01X1919Y654D02*
X1922Y651D01*
X1925Y650D01*
X1929Y651D01*
X1931Y655D01*
X1933Y659D01*
X1934Y664D01*
Y670D01*
X1933Y674D01*
X1931Y679D01*
X1929Y681D01*
X1926Y682D01*
X1923Y681D01*
X1921Y679D01*
X1919Y676D01*
X1918Y671D01*
X1919Y668D01*
X1921Y664D01*
X1923Y662D01*
X1926Y661D01*
X1929Y662D01*
X1932Y665D01*
X1934Y670D01*
G01X1991Y829D02*
X1993Y831D01*
X1994Y834D01*
Y837D01*
X1992Y841D01*
X1990Y844D01*
X1987Y845D01*
X1981Y847D01*
X1977Y847D01*
X1972Y847D01*
X1969Y845D01*
X1966Y843D01*
X1964Y840D01*
X1962Y838D01*
Y835D01*
X1964Y832D01*
X1965Y830D01*
X1967Y828D01*
G01X1989Y816D02*
X1992Y813D01*
X1993Y810D01*
X1994Y807D01*
X1993Y803D01*
X1990Y801D01*
X1987Y800D01*
X1984Y800D01*
X1981Y802D01*
X1976Y810D01*
X1972Y813D01*
X1967Y816D01*
X1962Y816D01*
Y800D01*
G01Y779D02*
X1963Y776D01*
X1965Y773D01*
X1967Y771D01*
X1971Y770D01*
X1975Y771D01*
X1978Y773D01*
X1979Y777D01*
Y781D01*
X1980Y783D01*
X1983Y785D01*
X1987Y786D01*
X1990Y784D01*
X1993Y782D01*
X1994Y779D01*
X1993Y775D01*
X1990Y773D01*
X1987Y771D01*
X1983Y772D01*
X1980Y774D01*
X1979Y777D01*
Y781D01*
X1978Y784D01*
X1975Y786D01*
X1971Y787D01*
X1967Y786D01*
X1965Y784D01*
X1963Y781D01*
X1962Y779D01*
G01X2091Y759D02*
X2092Y762D01*
X2093Y765D01*
Y768D01*
X2092Y771D01*
X2089Y774D01*
X2086Y776D01*
X2081Y778D01*
X2076Y778D01*
X2071Y777D01*
X2068Y776D01*
X2065Y774D01*
X2063Y771D01*
X2062Y768D01*
Y765D01*
X2063Y763D01*
X2064Y760D01*
X2067Y758D01*
G01X2062Y739D02*
X2093D01*
X2087Y743D01*
G01X2062D02*
Y734D01*
G01X2075Y716D02*
X2079Y714D01*
X2081Y711D01*
X2082Y708D01*
X2081Y705D01*
X2079Y704D01*
X2076Y702D01*
X2072Y702D01*
X2069Y702D01*
X2066Y704D01*
X2063Y706D01*
X2062Y709D01*
X2063Y712D01*
X2066Y715D01*
X2071Y716D01*
X2076Y716D01*
X2083Y716D01*
X2087Y715D01*
X2090Y713D01*
X2093Y710D01*
X2093Y707D01*
X2092Y704D01*
X2090Y702D01*
G01X1858Y793D02*
X1860Y796D01*
X1861Y798D01*
Y802D01*
X1859Y805D01*
X1856Y808D01*
X1853Y810D01*
X1848Y811D01*
X1843Y812D01*
X1839Y811D01*
X1835Y810D01*
X1832Y807D01*
X1830Y805D01*
X1829Y802D01*
Y799D01*
X1830Y796D01*
X1832Y794D01*
X1834Y792D01*
G01X1829Y772D02*
X1861D01*
X1854Y777D01*
G01X1829D02*
Y768D01*
G01Y738D02*
X1861D01*
X1838Y753D01*
Y733D01*
G01X1981Y1027D02*
Y995D01*
X1996D01*
G01X2023D02*
Y1027D01*
X2008Y1004D01*
X2028D01*
G01X1782Y969D02*
Y938D01*
X1798D01*
G01X1811Y944D02*
X1814Y940D01*
X1817Y938D01*
X1820Y938D01*
X1823Y938D01*
X1827Y941D01*
X1829Y944D01*
X1829Y947D01*
X1828Y951D01*
X1825Y954D01*
X1823Y955D01*
X1819D01*
G01X1823D02*
X1825Y956D01*
X1827Y959D01*
X1828Y962D01*
X1827Y965D01*
X1825Y968D01*
X1821Y969D01*
X1818Y969D01*
X1814Y967D01*
G01X1993Y1108D02*
X1995Y1110D01*
X1996Y1113D01*
Y1116D01*
X1994Y1120D01*
X1992Y1122D01*
X1989Y1124D01*
X1983Y1126D01*
X1979Y1126D01*
X1974Y1126D01*
X1971Y1124D01*
X1968Y1122D01*
X1966Y1119D01*
X1965Y1116D01*
Y1114D01*
X1966Y1111D01*
X1967Y1109D01*
X1969Y1107D01*
G01X1965Y1087D02*
X1996D01*
X1990Y1092D01*
G01X1965D02*
Y1082D01*
G01Y1058D02*
X1971Y1057D01*
X1977Y1056D01*
X1982Y1055D01*
X1988Y1053D01*
X1996Y1050D01*
Y1065D01*
G01X2154Y491D02*
X2156Y488D01*
X2158Y486D01*
X2161Y485D01*
X2164Y486D01*
X2167Y488D01*
X2169Y491D01*
X2170Y495D01*
Y516D01*
G01X2191Y485D02*
Y516D01*
X2187Y510D01*
G01Y485D02*
X2196D01*
G01X2192Y971D02*
X2190Y972D01*
X2187Y973D01*
X2184D01*
X2180Y972D01*
X2178Y969D01*
X2176Y966D01*
X2174Y961D01*
X2174Y956D01*
X2175Y951D01*
X2176Y948D01*
X2178Y945D01*
X2181Y943D01*
X2184Y942D01*
X2186D01*
X2189Y943D01*
X2191Y945D01*
X2193Y947D01*
G01X2213Y942D02*
Y973D01*
X2208Y967D01*
G01Y942D02*
X2218D01*
G01X2243D02*
X2245Y942D01*
X2249Y944D01*
X2251Y947D01*
X2251Y950D01*
X2251Y954D01*
X2248Y957D01*
X2245Y959D01*
X2241D01*
X2238Y960D01*
X2236Y962D01*
X2236Y966D01*
X2237Y970D01*
X2240Y972D01*
X2243Y973D01*
X2246Y972D01*
X2249Y970D01*
X2250Y966D01*
X2249Y962D01*
X2247Y960D01*
X2245Y959D01*
X2241D01*
X2237Y957D01*
X2235Y954D01*
X2234Y950D01*
X2235Y947D01*
X2237Y944D01*
X2240Y942D01*
X2243Y942D01*
G54D12*
G01X753Y357D02*
X305D01*
G01X304Y358D02*
Y413D01*
G01X304Y495D02*
Y548D01*
G01X752Y547D02*
X304D01*
G01X753Y357D02*
X305D01*
G01X753Y357D02*
Y412D01*
G01X753Y494D02*
Y547D01*
G01X753Y357D02*
Y412D01*
G01X753Y494D02*
Y547D01*
G01X1601Y298D02*
X1153D01*
G01X1153Y299D02*
Y354D01*
G01X1152Y436D02*
Y490D01*
G01X1601Y489D02*
X1153D01*
G01X1601Y298D02*
X1153D01*
G01X1602Y299D02*
Y354D01*
G01X1601Y435D02*
Y488D01*
G01X1602Y299D02*
Y354D01*
G01X1601Y435D02*
Y488D01*
G54D13*
G01X260Y913D02*
X378D01*
Y555D01*
X260D01*
Y913D01*
X276D01*
G01X1199Y903D02*
Y847D01*
X1254D01*
G01X1360D02*
X1415D01*
Y903D01*
G01X1254Y1068D02*
X1219D01*
X1199Y1048D01*
Y1013D01*
G01X1364Y1068D02*
X1415D01*
Y1013D01*
G01X2138Y867D02*
X2469D01*
Y532D01*
X2134D01*
Y867D01*
X2138D01*
G54D14*
G01X472Y239D02*
Y344D01*
G01X670Y239D02*
X472D01*
G01Y344D02*
X670D01*
G01X503Y603D02*
Y718D01*
G01X567Y603D02*
X503D01*
G01Y718D02*
X567D01*
G01X412Y603D02*
Y718D01*
G01X477Y603D02*
X412D01*
G01X477Y718D02*
Y603D01*
G01X412Y718D02*
X477D01*
G01X446Y839D02*
X561D01*
G01X446Y775D02*
Y839D01*
G01X561Y775D02*
X446D01*
G01X561Y839D02*
Y775D01*
G01X446Y854D02*
Y918D01*
G01X561Y854D02*
X446D01*
G01X561Y918D02*
Y854D01*
G01X462Y1122D02*
Y1186D01*
G01X577Y1122D02*
X462D01*
G01X446Y918D02*
X561D01*
G01X462Y1186D02*
X577D01*
G01X670Y344D02*
Y239D01*
G01X755Y229D02*
Y344D01*
G01X819Y229D02*
X755D01*
G01X819Y344D02*
Y229D01*
G01X680D02*
Y344D01*
G01X745Y229D02*
X680D01*
G01X745Y344D02*
Y229D01*
G01X822Y562D02*
X707D01*
G01X822Y626D02*
Y562D01*
G01X707D02*
Y626D01*
G01X580Y562D02*
Y627D01*
G01X695Y562D02*
X580D01*
G01X695Y627D02*
Y562D01*
G01X755Y344D02*
X819D01*
G01X680D02*
X745D01*
G01X708Y653D02*
X593D01*
G01X708Y717D02*
Y653D01*
G01X593Y717D02*
X708D01*
G01X593Y653D02*
Y717D01*
G01X796Y755D02*
Y640D01*
G01X732Y755D02*
X796D01*
G01X732Y640D02*
Y755D01*
G01X796Y640D02*
X732D01*
G01X707Y626D02*
X822D01*
G01X580Y627D02*
X695D01*
G01X567Y718D02*
Y603D01*
G01X577Y1186D02*
Y1122D01*
G01X955Y259D02*
Y457D01*
G01X1060Y259D02*
X955D01*
G01X1060Y457D02*
Y259D01*
G01X1122Y585D02*
Y510D01*
G01X962D02*
Y585D01*
G01X1122Y510D02*
X962D01*
G01X1161Y525D02*
Y640D01*
G01X1225Y525D02*
X1161D01*
G01X955Y457D02*
X1060D01*
G01X962Y585D02*
X1122D01*
G01X1093Y609D02*
X978D01*
G01X1093Y674D02*
Y609D01*
G01X978Y674D02*
X1093D01*
G01X978Y609D02*
Y674D01*
G01X1129Y857D02*
X1014D01*
G01X1129Y922D02*
Y857D01*
G01X1014D02*
Y922D01*
G01X1161Y640D02*
X1225D01*
G01X1093Y692D02*
X978D01*
G01X1093Y756D02*
Y692D01*
G01X978Y756D02*
X1093D01*
G01X978Y692D02*
Y756D01*
G01X1145Y775D02*
X1030D01*
G01X1145Y839D02*
Y775D01*
G01X1030Y839D02*
X1145D01*
G01X1030Y775D02*
Y839D01*
G01X1163Y806D02*
X1228D01*
G01X1163Y691D02*
Y806D01*
G01X1228Y691D02*
X1163D01*
G01X1014Y922D02*
X1129D01*
G01X1044Y1162D02*
X1159D01*
G01X1044Y1098D02*
Y1162D01*
G01X1159Y1098D02*
X1044D01*
G01X1159Y1162D02*
Y1098D01*
G01X1125Y948D02*
X1010D01*
G01X1125Y1012D02*
Y948D01*
G01X1010Y1012D02*
X1125D01*
G01X1010Y948D02*
Y1012D01*
G01X1156Y1023D02*
X1041D01*
G01X1156Y1087D02*
Y1023D01*
G01X1041Y1087D02*
X1156D01*
G01X1041Y1023D02*
Y1087D01*
G01X1105Y1180D02*
X990D01*
G01X1105Y1245D02*
Y1180D01*
G01X990Y1245D02*
X1105D01*
G01X990Y1180D02*
Y1245D01*
G01X1225Y640D02*
Y525D01*
G01X1523Y523D02*
X1408D01*
G01D02*
Y587D01*
G01X1353Y523D02*
X1238D01*
G01X1353Y587D02*
Y523D01*
G01X1238D02*
Y587D01*
G01X1228Y806D02*
Y691D01*
G01X1408Y587D02*
X1523D01*
G01X1238Y587D02*
X1353D01*
G01X1383Y711D02*
Y596D01*
G01X1318Y711D02*
X1383D01*
G01X1318Y596D02*
Y711D01*
G01X1383Y596D02*
X1318D01*
G01X1275Y1120D02*
Y1235D01*
G01X1339Y1120D02*
X1275D01*
G01X1339Y1235D02*
Y1120D01*
G01X1261Y1235D02*
Y1120D01*
G01X1196D02*
Y1235D01*
G01X1261Y1120D02*
X1196D01*
G01X1418Y1235D02*
Y1120D01*
G01X1354D02*
Y1235D01*
G01X1418Y1120D02*
X1354D01*
G01X1275Y1235D02*
X1339D01*
G01X1196Y1235D02*
X1261D01*
G01X1354D02*
X1418D01*
G01X1535Y525D02*
Y640D01*
G01X1599Y525D02*
X1535D01*
G01X1599Y640D02*
Y525D01*
G01X1523Y587D02*
Y523D01*
G01X1688Y824D02*
Y939D01*
G01X1753Y824D02*
X1688D01*
G01X1753Y939D02*
Y824D01*
G01X1535Y640D02*
X1599D01*
G01X1804Y746D02*
X1689D01*
G01Y811D02*
X1804D01*
G01X1689Y746D02*
Y811D01*
G01X1879Y825D02*
X1764D01*
G01D02*
Y890D01*
G01X1589Y794D02*
X1474D01*
G01X1589Y859D02*
Y794D01*
G01X1474Y859D02*
X1589D01*
G01X1474Y794D02*
Y859D01*
G01X1589Y952D02*
X1474D01*
G01X1589Y1016D02*
Y952D01*
G01X1474Y1016D02*
X1589D01*
G01X1474Y952D02*
Y1016D01*
G01X1589Y873D02*
X1474D01*
G01X1589Y938D02*
Y873D01*
G01X1474Y938D02*
X1589D01*
G01X1474Y873D02*
Y938D01*
G01X1877Y1007D02*
X1762D01*
G01Y1071D02*
X1877D01*
G01X1762Y1007D02*
Y1071D01*
G01X1688Y939D02*
X1753D01*
G01X1605Y887D02*
Y1002D01*
G01X1670Y887D02*
X1605D01*
G01X1670Y1002D02*
Y887D01*
G01X1605Y1002D02*
X1670D01*
G01X1764Y890D02*
X1879D01*
G01X1751Y1069D02*
Y954D01*
G01X1687Y1069D02*
X1751D01*
G01X1687Y954D02*
Y1069D01*
G01X1751Y954D02*
X1687D01*
G01X1589Y1031D02*
X1474D01*
G01X1589Y1095D02*
Y1031D01*
G01X1474Y1095D02*
X1589D01*
G01X1474Y1031D02*
Y1095D01*
G01X2003Y696D02*
X1888D01*
G01X2003Y760D02*
Y696D01*
G01X1888Y760D02*
X2003D01*
G01X1888Y696D02*
Y760D01*
G01X1954Y889D02*
Y774D01*
G01X1889D02*
Y889D01*
G01X1954Y774D02*
X1889D01*
G01X1804Y811D02*
Y746D01*
G01X2044Y792D02*
Y907D01*
G01X2109Y792D02*
X2044D01*
G01X1879Y890D02*
Y825D01*
G01X1877Y1071D02*
Y1007D01*
G01X1968Y867D02*
Y982D01*
G01X2032Y867D02*
X1968D01*
G01X2032Y982D02*
Y867D01*
G01X1968Y982D02*
X2032D01*
G01X1952Y916D02*
X1837D01*
G01X1952Y981D02*
Y916D01*
G01X1837Y981D02*
X1952D01*
G01X1837Y916D02*
Y981D01*
G01X1889Y889D02*
X1954D01*
G01X2160Y917D02*
X2045D01*
G01Y981D02*
X2160D01*
G01X2045Y917D02*
Y981D01*
G01X1952Y1120D02*
Y1005D01*
G01X1887Y1120D02*
X1952D01*
G01X1887Y1005D02*
Y1120D01*
G01X1952Y1005D02*
X1887D01*
G01X2044Y907D02*
X2109D01*
G01D02*
Y792D01*
G01X2160Y981D02*
Y917D01*
G54D15*
G01X646Y861D02*
X647D01*
X656Y852D01*
Y789D01*
G01X676Y1101D02*
Y879D01*
X897D01*
Y1101D01*
X676D01*
M02*
