G04 ================== begin FILE IDENTIFICATION RECORD ==================*
G04 Layout Name:  c:/src/bsm-2/schematics/bsm-radio.brd*
G04 Film Name:    SilkScreenTOP*
G04 File Format:  Gerber RS274X*
G04 File Origin:  16.0-s004*
G04 Origin Date:  Thu Jan 19 14:34:35 2012*
G04 *
G04 Layer:  USER PART NUMBER/SILKSCREEN_TOP*
G04 Layer:  TOLERANCE/SILKSCREEN_TOP*
G04 Layer:  REF DES/SILKSCREEN_TOP*
G04 Layer:  PACKAGE GEOMETRY/SILKSCREEN_TOP*
G04 Layer:  DEVICE TYPE/SILKSCREEN_TOP*
G04 Layer:  COMPONENT VALUE/SILKSCREEN_TOP*
G04 *
G04 Offset:    (0.000 0.000)*
G04 Mirror:    No*
G04 Mode:      Positive*
G04 Rotation:  0*
G04 FullContactRelief:  No*
G04 UndefLineWidth:     0.000*
G04 ================== end FILE IDENTIFICATION RECORD ====================*
%FSLAX55Y55*MOMM*%
%IR0*IPPOS*OFA0.00000B0.00000*MIA0B0*SFA1.00000B1.00000*%
%ADD10C,.099*%
%ADD11C,.2*%
%ADD12C,.201*%
%ADD13C,.15*%
%ADD14C,.152*%
G75*
%LPD*%
G75*
G54D10*
G01X3698000Y1300100D02*
X3302100D01*
G01X3698000Y699900D02*
Y1300100D01*
G01X3302100Y699900D02*
X3698000D01*
G01X3302100Y1300100D02*
Y699900D01*
G54D11*
G01X178300Y70000D02*
Y150000D01*
X198300D01*
X205000Y146000D01*
X210000Y136700D01*
X211700Y126000D01*
X210000Y115300D01*
X205800Y107300D01*
X198300Y103300D01*
X178300D01*
G01X260000Y70000D02*
Y150000D01*
X250000Y134000D01*
G01Y70000D02*
X270000D01*
G01X323300D02*
X325000Y87300D01*
X327500Y102000D01*
X330800Y115300D01*
X335000Y130000D01*
X341700Y150000D01*
X308300D01*
G01X432300Y70000D02*
Y150000D01*
X452300D01*
X459000Y146000D01*
X464000Y136700D01*
X465700Y126000D01*
X464000Y115300D01*
X459800Y107300D01*
X452300Y103300D01*
X432300D01*
G01X514000Y70000D02*
Y150000D01*
X504000Y134000D01*
G01Y70000D02*
X524000D01*
G01X579000D02*
X584800Y71300D01*
X591500Y75300D01*
X595700Y82000D01*
X597300Y91300D01*
X595700Y100700D01*
X590700Y108700D01*
X583200Y112700D01*
X574800D01*
X569800Y115300D01*
X565700Y122000D01*
X564000Y131300D01*
X566500Y140700D01*
X572300Y147300D01*
X579000Y150000D01*
X585700Y147300D01*
X591500Y140700D01*
X594000Y131300D01*
X592300Y122000D01*
X588200Y115300D01*
X583200Y112700D01*
X574800D01*
X567300Y108700D01*
X562300Y100700D01*
X560700Y91300D01*
X562300Y82000D01*
X566500Y75300D01*
X573200Y71300D01*
X579000Y70000D01*
G01X617900Y775000D02*
Y811000D01*
X601200Y855000D01*
G01X634600D02*
X617900Y811000D01*
G01X667100Y841700D02*
X672100Y849700D01*
X677900Y853700D01*
X684600Y855000D01*
X692900Y852300D01*
X698700Y845700D01*
X700400Y837700D01*
X699600Y829700D01*
X696200Y823000D01*
X679600Y809700D01*
X672100Y800300D01*
X667100Y787000D01*
X665400Y775000D01*
X700400D01*
G01X545000Y1480000D02*
Y1516000D01*
X528300Y1560000D01*
G01X561700D02*
X545000Y1516000D01*
G01X610000Y1480000D02*
Y1560000D01*
X600000Y1544000D01*
G01Y1480000D02*
X620000D01*
G01X444300Y3430000D02*
Y3510000D01*
X464300D01*
X471000Y3506000D01*
X476000Y3496700D01*
X477700Y3486000D01*
X476000Y3475300D01*
X471800Y3467300D01*
X464300Y3463300D01*
X444300D01*
G01X526000Y3430000D02*
Y3510000D01*
X516000Y3494000D01*
G01Y3430000D02*
X536000D01*
G01X572700Y3442000D02*
X577700Y3435300D01*
X583500Y3431300D01*
X591000Y3430000D01*
X598500Y3432700D01*
X604300Y3438000D01*
X608500Y3447300D01*
X609300Y3458000D01*
X607700Y3468700D01*
X603500Y3475300D01*
X597700Y3480700D01*
X591800Y3482000D01*
X586000Y3480700D01*
X578500Y3475300D01*
X581000Y3510000D01*
X603500D01*
G01X190300Y3430000D02*
Y3510000D01*
X210300D01*
X217000Y3506000D01*
X222000Y3496700D01*
X223700Y3486000D01*
X222000Y3475300D01*
X217800Y3467300D01*
X210300Y3463300D01*
X190300D01*
G01X272000Y3430000D02*
Y3510000D01*
X262000Y3494000D01*
G01Y3430000D02*
X282000D01*
G01X321200Y3463300D02*
X327000Y3472700D01*
X332000Y3478000D01*
X338700Y3480700D01*
X344500Y3478000D01*
X348700Y3472700D01*
X352000Y3464700D01*
X352800Y3455300D01*
X352000Y3447300D01*
X348700Y3439300D01*
X343700Y3432700D01*
X337800Y3430000D01*
X331200Y3432700D01*
X325300Y3440700D01*
X322000Y3452700D01*
X321200Y3466000D01*
X322800Y3483300D01*
X325300Y3492700D01*
X329500Y3502000D01*
X335300Y3508700D01*
X341200Y3510000D01*
X347000Y3507300D01*
X351200Y3500700D01*
G01X1194300Y70000D02*
Y150000D01*
X1214300D01*
X1221000Y146000D01*
X1226000Y136700D01*
X1227700Y126000D01*
X1226000Y115300D01*
X1221800Y107300D01*
X1214300Y103300D01*
X1194300D01*
G01X1260200Y136700D02*
X1265200Y144700D01*
X1271000Y148700D01*
X1277700Y150000D01*
X1286000Y147300D01*
X1291800Y140700D01*
X1293500Y132700D01*
X1292700Y124700D01*
X1289300Y118000D01*
X1272700Y104700D01*
X1265200Y95300D01*
X1260200Y82000D01*
X1258500Y70000D01*
X1293500D01*
G01X1341000D02*
Y150000D01*
X1331000Y134000D01*
G01Y70000D02*
X1351000D01*
G01X686300D02*
Y150000D01*
X706300D01*
X713000Y146000D01*
X718000Y136700D01*
X719700Y126000D01*
X718000Y115300D01*
X713800Y107300D01*
X706300Y103300D01*
X686300D01*
G01X768000Y70000D02*
Y150000D01*
X758000Y134000D01*
G01Y70000D02*
X778000D01*
G01X818800Y79300D02*
X824700Y72700D01*
X831300Y70000D01*
X838000Y72700D01*
X843800Y80700D01*
X848000Y92700D01*
X849700Y104700D01*
Y119300D01*
X848000Y131300D01*
X843800Y142000D01*
X838800Y147300D01*
X833000Y150000D01*
X826300Y147300D01*
X821300Y142000D01*
X818000Y134000D01*
X816300Y123300D01*
X818000Y114000D01*
X822200Y104700D01*
X827200Y99300D01*
X833000Y98000D01*
X839700Y100700D01*
X844700Y107300D01*
X849700Y119300D01*
G01X940300Y70000D02*
Y150000D01*
X960300D01*
X967000Y146000D01*
X972000Y136700D01*
X973700Y126000D01*
X972000Y115300D01*
X967800Y107300D01*
X960300Y103300D01*
X940300D01*
G01X1006200Y136700D02*
X1011200Y144700D01*
X1017000Y148700D01*
X1023700Y150000D01*
X1032000Y147300D01*
X1037800Y140700D01*
X1039500Y132700D01*
X1038700Y124700D01*
X1035300Y118000D01*
X1018700Y104700D01*
X1011200Y95300D01*
X1006200Y82000D01*
X1004500Y70000D01*
X1039500D01*
G01X1087000Y150000D02*
X1080300Y147300D01*
X1075300Y140700D01*
X1072000Y132700D01*
X1069500Y122000D01*
X1068700Y110000D01*
X1069500Y98000D01*
X1072000Y87300D01*
X1075300Y79300D01*
X1080300Y72700D01*
X1087000Y70000D01*
X1093700Y72700D01*
X1098700Y79300D01*
X1102000Y87300D01*
X1104500Y98000D01*
X1105300Y110000D01*
X1104500Y122000D01*
X1102000Y132700D01*
X1098700Y140700D01*
X1093700Y147300D01*
X1087000Y150000D01*
G01X1160900Y688900D02*
Y768900D01*
X1127500D01*
G01X1079200D02*
Y688900D01*
X1089200Y704900D01*
G01Y768900D02*
X1069200D01*
G01X1321900Y1939100D02*
X1316900Y1943100D01*
X1311100Y1945800D01*
X1304400D01*
X1296900Y1941800D01*
X1291100Y1935100D01*
X1286900Y1927100D01*
X1283600Y1913800D01*
X1282800Y1901800D01*
X1284400Y1889800D01*
X1286900Y1881800D01*
X1291900Y1873800D01*
X1297800Y1868500D01*
X1303600Y1865800D01*
X1309400D01*
X1315300Y1868500D01*
X1320300Y1872500D01*
X1324400Y1877800D01*
G01X1352800Y1932500D02*
X1357800Y1940500D01*
X1363600Y1944500D01*
X1370300Y1945800D01*
X1378600Y1943100D01*
X1384400Y1936500D01*
X1386100Y1928500D01*
X1385300Y1920500D01*
X1381900Y1913800D01*
X1365300Y1900500D01*
X1357800Y1891100D01*
X1352800Y1877800D01*
X1351100Y1865800D01*
X1386100D01*
G01X1433600D02*
Y1945800D01*
X1423600Y1929800D01*
G01Y1865800D02*
X1443600D01*
G01X1041900Y1929100D02*
X1036900Y1933100D01*
X1031100Y1935800D01*
X1024400D01*
X1016900Y1931800D01*
X1011100Y1925100D01*
X1006900Y1917100D01*
X1003600Y1903800D01*
X1002800Y1891800D01*
X1004400Y1879800D01*
X1006900Y1871800D01*
X1011900Y1863800D01*
X1017800Y1858500D01*
X1023600Y1855800D01*
X1029400D01*
X1035300Y1858500D01*
X1040300Y1862500D01*
X1044400Y1867800D01*
G01X1072800Y1922500D02*
X1077800Y1930500D01*
X1083600Y1934500D01*
X1090300Y1935800D01*
X1098600Y1933100D01*
X1104400Y1926500D01*
X1106100Y1918500D01*
X1105300Y1910500D01*
X1101900Y1903800D01*
X1085300Y1890500D01*
X1077800Y1881100D01*
X1072800Y1867800D01*
X1071100Y1855800D01*
X1106100D01*
G01X1153600Y1935800D02*
X1146900Y1933100D01*
X1141900Y1926500D01*
X1138600Y1918500D01*
X1136100Y1907800D01*
X1135300Y1895800D01*
X1136100Y1883800D01*
X1138600Y1873100D01*
X1141900Y1865100D01*
X1146900Y1858500D01*
X1153600Y1855800D01*
X1160300Y1858500D01*
X1165300Y1865100D01*
X1168600Y1873100D01*
X1171100Y1883800D01*
X1171900Y1895800D01*
X1171100Y1907800D01*
X1168600Y1918500D01*
X1165300Y1926500D01*
X1160300Y1933100D01*
X1153600Y1935800D01*
G01X987100Y2114000D02*
X983100Y2109000D01*
X980400Y2103200D01*
Y2096500D01*
X984400Y2089000D01*
X991100Y2083200D01*
X999100Y2079000D01*
X1012400Y2075700D01*
X1024400Y2074900D01*
X1036400Y2076500D01*
X1044400Y2079000D01*
X1052400Y2084000D01*
X1057700Y2089900D01*
X1060400Y2095700D01*
Y2101500D01*
X1057700Y2107400D01*
X1053700Y2112400D01*
X1048400Y2116500D01*
G01X1060400Y2160700D02*
X980400D01*
X996400Y2150700D01*
G01X1060400D02*
Y2170700D01*
G01Y2225700D02*
X980400D01*
X996400Y2215700D01*
G01X1060400D02*
Y2235700D01*
G01X1182000Y2437400D02*
X1177000Y2441400D01*
X1171200Y2444100D01*
X1164500D01*
X1157000Y2440100D01*
X1151200Y2433400D01*
X1147000Y2425400D01*
X1143700Y2412100D01*
X1142900Y2400100D01*
X1144500Y2388100D01*
X1147000Y2380100D01*
X1152000Y2372100D01*
X1157900Y2366800D01*
X1163700Y2364100D01*
X1169500D01*
X1175400Y2366800D01*
X1180400Y2370800D01*
X1184500Y2376100D01*
G01X1212900Y2397400D02*
X1218700Y2406800D01*
X1223700Y2412100D01*
X1230400Y2414800D01*
X1236200Y2412100D01*
X1240400Y2406800D01*
X1243700Y2398800D01*
X1244500Y2389400D01*
X1243700Y2381400D01*
X1240400Y2373400D01*
X1235400Y2366800D01*
X1229500Y2364100D01*
X1222900Y2366800D01*
X1217000Y2374800D01*
X1213700Y2386800D01*
X1212900Y2400100D01*
X1214500Y2417400D01*
X1217000Y2426800D01*
X1221200Y2436100D01*
X1227000Y2442800D01*
X1232900Y2444100D01*
X1238700Y2441400D01*
X1242900Y2434800D01*
G01X952300Y3430000D02*
Y3510000D01*
X972300D01*
X979000Y3506000D01*
X984000Y3496700D01*
X985700Y3486000D01*
X984000Y3475300D01*
X979800Y3467300D01*
X972300Y3463300D01*
X952300D01*
G01X1034000Y3430000D02*
Y3510000D01*
X1024000Y3494000D01*
G01Y3430000D02*
X1044000D01*
G01X1080700Y3446000D02*
X1085700Y3436700D01*
X1092300Y3431300D01*
X1099800Y3430000D01*
X1106500Y3431300D01*
X1113200Y3438000D01*
X1117300Y3446000D01*
X1118200Y3454000D01*
X1116500Y3463300D01*
X1110700Y3470000D01*
X1104800Y3472700D01*
X1097300D01*
G01X1104800D02*
X1109800Y3476700D01*
X1114000Y3483300D01*
X1115700Y3491300D01*
X1114000Y3499300D01*
X1109800Y3506000D01*
X1102300Y3510000D01*
X1094800Y3508700D01*
X1087300Y3503300D01*
G01X1206300Y3430000D02*
Y3510000D01*
X1226300D01*
X1233000Y3506000D01*
X1238000Y3496700D01*
X1239700Y3486000D01*
X1238000Y3475300D01*
X1233800Y3467300D01*
X1226300Y3463300D01*
X1206300D01*
G01X1288000Y3430000D02*
Y3510000D01*
X1278000Y3494000D01*
G01Y3430000D02*
X1298000D01*
G01X1337200Y3496700D02*
X1342200Y3504700D01*
X1348000Y3508700D01*
X1354700Y3510000D01*
X1363000Y3507300D01*
X1368800Y3500700D01*
X1370500Y3492700D01*
X1369700Y3484700D01*
X1366300Y3478000D01*
X1349700Y3464700D01*
X1342200Y3455300D01*
X1337200Y3442000D01*
X1335500Y3430000D01*
X1370500D01*
G01X698300D02*
Y3510000D01*
X718300D01*
X725000Y3506000D01*
X730000Y3496700D01*
X731700Y3486000D01*
X730000Y3475300D01*
X725800Y3467300D01*
X718300Y3463300D01*
X698300D01*
G01X780000Y3430000D02*
Y3510000D01*
X770000Y3494000D01*
G01Y3430000D02*
X790000D01*
G01X855000D02*
Y3510000D01*
X824200Y3452700D01*
X865800D01*
G01X1210800Y3118000D02*
X1205800Y3122000D01*
X1200000Y3124700D01*
X1193300D01*
X1185800Y3120700D01*
X1180000Y3114000D01*
X1175800Y3106000D01*
X1172500Y3092700D01*
X1171700Y3080700D01*
X1173300Y3068700D01*
X1175800Y3060700D01*
X1180800Y3052700D01*
X1186700Y3047400D01*
X1192500Y3044700D01*
X1198300D01*
X1204200Y3047400D01*
X1209200Y3051400D01*
X1213300Y3056700D01*
G01X1243300Y3054000D02*
X1249200Y3047400D01*
X1255800Y3044700D01*
X1262500Y3047400D01*
X1268300Y3055400D01*
X1272500Y3067400D01*
X1274200Y3079400D01*
Y3094000D01*
X1272500Y3106000D01*
X1268300Y3116700D01*
X1263300Y3122000D01*
X1257500Y3124700D01*
X1250800Y3122000D01*
X1245800Y3116700D01*
X1242500Y3108700D01*
X1240800Y3098000D01*
X1242500Y3088700D01*
X1246700Y3079400D01*
X1251700Y3074000D01*
X1257500Y3072700D01*
X1264200Y3075400D01*
X1269200Y3082000D01*
X1274200Y3094000D01*
G01X1956300Y70000D02*
Y150000D01*
X1976300D01*
X1983000Y146000D01*
X1988000Y136700D01*
X1989700Y126000D01*
X1988000Y115300D01*
X1983800Y107300D01*
X1976300Y103300D01*
X1956300D01*
G01X2022200Y136700D02*
X2027200Y144700D01*
X2033000Y148700D01*
X2039700Y150000D01*
X2048000Y147300D01*
X2053800Y140700D01*
X2055500Y132700D01*
X2054700Y124700D01*
X2051300Y118000D01*
X2034700Y104700D01*
X2027200Y95300D01*
X2022200Y82000D01*
X2020500Y70000D01*
X2055500D01*
G01X2113000D02*
Y150000D01*
X2082200Y92700D01*
X2123800D01*
G01X1702300Y70000D02*
Y150000D01*
X1722300D01*
X1729000Y146000D01*
X1734000Y136700D01*
X1735700Y126000D01*
X1734000Y115300D01*
X1729800Y107300D01*
X1722300Y103300D01*
X1702300D01*
G01X1768200Y136700D02*
X1773200Y144700D01*
X1779000Y148700D01*
X1785700Y150000D01*
X1794000Y147300D01*
X1799800Y140700D01*
X1801500Y132700D01*
X1800700Y124700D01*
X1797300Y118000D01*
X1780700Y104700D01*
X1773200Y95300D01*
X1768200Y82000D01*
X1766500Y70000D01*
X1801500D01*
G01X1830700Y86000D02*
X1835700Y76700D01*
X1842300Y71300D01*
X1849800Y70000D01*
X1856500Y71300D01*
X1863200Y78000D01*
X1867300Y86000D01*
X1868200Y94000D01*
X1866500Y103300D01*
X1860700Y110000D01*
X1854800Y112700D01*
X1847300D01*
G01X1854800D02*
X1859800Y116700D01*
X1864000Y123300D01*
X1865700Y131300D01*
X1864000Y139300D01*
X1859800Y146000D01*
X1852300Y150000D01*
X1844800Y148700D01*
X1837300Y143300D01*
G01X1448300Y70000D02*
Y150000D01*
X1468300D01*
X1475000Y146000D01*
X1480000Y136700D01*
X1481700Y126000D01*
X1480000Y115300D01*
X1475800Y107300D01*
X1468300Y103300D01*
X1448300D01*
G01X1514200Y136700D02*
X1519200Y144700D01*
X1525000Y148700D01*
X1531700Y150000D01*
X1540000Y147300D01*
X1545800Y140700D01*
X1547500Y132700D01*
X1546700Y124700D01*
X1543300Y118000D01*
X1526700Y104700D01*
X1519200Y95300D01*
X1514200Y82000D01*
X1512500Y70000D01*
X1547500D01*
G01X1579200Y136700D02*
X1584200Y144700D01*
X1590000Y148700D01*
X1596700Y150000D01*
X1605000Y147300D01*
X1610800Y140700D01*
X1612500Y132700D01*
X1611700Y124700D01*
X1608300Y118000D01*
X1591700Y104700D01*
X1584200Y95300D01*
X1579200Y82000D01*
X1577500Y70000D01*
X1612500D01*
G01X2035200Y519200D02*
X2039200Y524200D01*
X2041900Y530000D01*
Y536700D01*
X2037900Y544200D01*
X2031200Y550000D01*
X2023200Y554200D01*
X2009900Y557500D01*
X1997900Y558300D01*
X1985900Y556700D01*
X1977900Y554200D01*
X1969900Y549200D01*
X1964600Y543300D01*
X1961900Y537500D01*
Y531700D01*
X1964600Y525800D01*
X1968600Y520800D01*
X1973900Y516700D01*
G01X1977900Y490800D02*
X1968600Y485800D01*
X1963200Y479200D01*
X1961900Y471700D01*
X1963200Y465000D01*
X1969900Y458300D01*
X1977900Y454200D01*
X1985900Y453300D01*
X1995200Y455000D01*
X2001900Y460800D01*
X2004600Y466700D01*
Y474200D01*
G01Y466700D02*
X2008600Y461700D01*
X2015200Y457500D01*
X2023200Y455800D01*
X2031200Y457500D01*
X2037900Y461700D01*
X2041900Y469200D01*
X2040600Y476700D01*
X2035200Y484200D01*
G01X1805200Y519200D02*
X1809200Y524200D01*
X1811900Y530000D01*
Y536700D01*
X1807900Y544200D01*
X1801200Y550000D01*
X1793200Y554200D01*
X1779900Y557500D01*
X1767900Y558300D01*
X1755900Y556700D01*
X1747900Y554200D01*
X1739900Y549200D01*
X1734600Y543300D01*
X1731900Y537500D01*
Y531700D01*
X1734600Y525800D01*
X1738600Y520800D01*
X1743900Y516700D01*
G01X1798600Y488300D02*
X1806600Y483300D01*
X1810600Y477500D01*
X1811900Y470800D01*
X1809200Y462500D01*
X1802600Y456700D01*
X1794600Y455000D01*
X1786600Y455800D01*
X1779900Y459200D01*
X1766600Y475800D01*
X1757200Y483300D01*
X1743900Y488300D01*
X1731900Y490000D01*
Y455000D01*
G01X1470000Y1900000D02*
Y1600000D01*
G01X1705800Y1831900D02*
Y1911900D01*
X1726700D01*
X1733300Y1907900D01*
X1737500Y1902600D01*
X1739200Y1891900D01*
X1737500Y1881200D01*
X1732500Y1874600D01*
X1726700Y1870600D01*
X1705800D01*
G01X1726700D02*
X1739200Y1831900D01*
G01X1787500D02*
X1793300Y1833200D01*
X1800000Y1837200D01*
X1804200Y1843900D01*
X1805800Y1853200D01*
X1804200Y1862600D01*
X1799200Y1870600D01*
X1791700Y1874600D01*
X1783300D01*
X1778300Y1877200D01*
X1774200Y1883900D01*
X1772500Y1893200D01*
X1775000Y1902600D01*
X1780800Y1909200D01*
X1787500Y1911900D01*
X1794200Y1909200D01*
X1800000Y1902600D01*
X1802500Y1893200D01*
X1800800Y1883900D01*
X1796700Y1877200D01*
X1791700Y1874600D01*
X1783300D01*
X1775800Y1870600D01*
X1770800Y1862600D01*
X1769200Y1853200D01*
X1770800Y1843900D01*
X1775000Y1837200D01*
X1781700Y1833200D01*
X1787500Y1831900D01*
G01X2064700Y1909200D02*
X2144700D01*
Y1888300D01*
X2140700Y1881700D01*
X2135400Y1877500D01*
X2124700Y1875800D01*
X2114000Y1877500D01*
X2107400Y1882500D01*
X2103400Y1888300D01*
Y1909200D01*
G01Y1888300D02*
X2064700Y1875800D01*
G01Y1827500D02*
X2144700D01*
X2128700Y1837500D01*
G01X2064700D02*
Y1817500D01*
G01X2131400Y1778300D02*
X2139400Y1773300D01*
X2143400Y1767500D01*
X2144700Y1760800D01*
X2142000Y1752500D01*
X2135400Y1746700D01*
X2127400Y1745000D01*
X2119400Y1745800D01*
X2112700Y1749200D01*
X2099400Y1765800D01*
X2090000Y1773300D01*
X2076700Y1778300D01*
X2064700Y1780000D01*
Y1745000D01*
G01X2150800Y1575200D02*
X2145800Y1579200D01*
X2140000Y1581900D01*
X2133300D01*
X2125800Y1577900D01*
X2120000Y1571200D01*
X2115800Y1563200D01*
X2112500Y1549900D01*
X2111700Y1537900D01*
X2113300Y1525900D01*
X2115800Y1517900D01*
X2120800Y1509900D01*
X2126700Y1504600D01*
X2132500Y1501900D01*
X2138300D01*
X2144200Y1504600D01*
X2149200Y1508600D01*
X2153300Y1513900D01*
G01X2181700Y1568600D02*
X2186700Y1576600D01*
X2192500Y1580600D01*
X2199200Y1581900D01*
X2207500Y1579200D01*
X2213300Y1572600D01*
X2215000Y1564600D01*
X2214200Y1556600D01*
X2210800Y1549900D01*
X2194200Y1536600D01*
X2186700Y1527200D01*
X2181700Y1513900D01*
X2180000Y1501900D01*
X2215000D01*
G01X2244200Y1517900D02*
X2249200Y1508600D01*
X2255800Y1503200D01*
X2263300Y1501900D01*
X2270000Y1503200D01*
X2276700Y1509900D01*
X2280800Y1517900D01*
X2281700Y1525900D01*
X2280000Y1535200D01*
X2274200Y1541900D01*
X2268300Y1544600D01*
X2260800D01*
G01X2268300D02*
X2273300Y1548600D01*
X2277500Y1555200D01*
X2279200Y1563200D01*
X2277500Y1571200D01*
X2273300Y1577900D01*
X2265800Y1581900D01*
X2258300Y1580600D01*
X2250800Y1575200D01*
G01X1525800Y1968000D02*
X1520800Y1972000D01*
X1515000Y1974700D01*
X1508300D01*
X1500800Y1970700D01*
X1495000Y1964000D01*
X1490800Y1956000D01*
X1487500Y1942700D01*
X1486700Y1930700D01*
X1488300Y1918700D01*
X1490800Y1910700D01*
X1495800Y1902700D01*
X1501700Y1897400D01*
X1507500Y1894700D01*
X1513300D01*
X1519200Y1897400D01*
X1524200Y1901400D01*
X1528300Y1906700D01*
G01X1556700Y1961400D02*
X1561700Y1969400D01*
X1567500Y1973400D01*
X1574200Y1974700D01*
X1582500Y1972000D01*
X1588300Y1965400D01*
X1590000Y1957400D01*
X1589200Y1949400D01*
X1585800Y1942700D01*
X1569200Y1929400D01*
X1561700Y1920000D01*
X1556700Y1906700D01*
X1555000Y1894700D01*
X1590000D01*
G01X1621700Y1961400D02*
X1626700Y1969400D01*
X1632500Y1973400D01*
X1639200Y1974700D01*
X1647500Y1972000D01*
X1653300Y1965400D01*
X1655000Y1957400D01*
X1654200Y1949400D01*
X1650800Y1942700D01*
X1634200Y1929400D01*
X1626700Y1920000D01*
X1621700Y1906700D01*
X1620000Y1894700D01*
X1655000D01*
G01X1547500Y3115800D02*
Y3058500D01*
X1550800Y3046500D01*
X1557500Y3038500D01*
X1565800Y3035800D01*
X1574100Y3038500D01*
X1580800Y3046500D01*
X1584100Y3058500D01*
Y3115800D01*
G01X1630800Y3035800D02*
Y3115800D01*
X1620800Y3099800D01*
G01Y3035800D02*
X1640800D01*
G01X1714300Y3430000D02*
Y3510000D01*
X1734300D01*
X1741000Y3506000D01*
X1746000Y3496700D01*
X1747700Y3486000D01*
X1746000Y3475300D01*
X1741800Y3467300D01*
X1734300Y3463300D01*
X1714300D01*
G01X1796000Y3430000D02*
Y3510000D01*
X1786000Y3494000D01*
G01Y3430000D02*
X1806000D01*
G01X1861000Y3510000D02*
X1854300Y3507300D01*
X1849300Y3500700D01*
X1846000Y3492700D01*
X1843500Y3482000D01*
X1842700Y3470000D01*
X1843500Y3458000D01*
X1846000Y3447300D01*
X1849300Y3439300D01*
X1854300Y3432700D01*
X1861000Y3430000D01*
X1867700Y3432700D01*
X1872700Y3439300D01*
X1876000Y3447300D01*
X1878500Y3458000D01*
X1879300Y3470000D01*
X1878500Y3482000D01*
X1876000Y3492700D01*
X1872700Y3500700D01*
X1867700Y3507300D01*
X1861000Y3510000D01*
G01X1968300Y3430000D02*
Y3510000D01*
X1988300D01*
X1995000Y3506000D01*
X2000000Y3496700D01*
X2001700Y3486000D01*
X2000000Y3475300D01*
X1995800Y3467300D01*
X1988300Y3463300D01*
X1968300D01*
G01X2035800Y3439300D02*
X2041700Y3432700D01*
X2048300Y3430000D01*
X2055000Y3432700D01*
X2060800Y3440700D01*
X2065000Y3452700D01*
X2066700Y3464700D01*
Y3479300D01*
X2065000Y3491300D01*
X2060800Y3502000D01*
X2055800Y3507300D01*
X2050000Y3510000D01*
X2043300Y3507300D01*
X2038300Y3502000D01*
X2035000Y3494000D01*
X2033300Y3483300D01*
X2035000Y3474000D01*
X2039200Y3464700D01*
X2044200Y3459300D01*
X2050000Y3458000D01*
X2056700Y3460700D01*
X2061700Y3467300D01*
X2066700Y3479300D01*
G01X1460300Y3430000D02*
Y3510000D01*
X1480300D01*
X1487000Y3506000D01*
X1492000Y3496700D01*
X1493700Y3486000D01*
X1492000Y3475300D01*
X1487800Y3467300D01*
X1480300Y3463300D01*
X1460300D01*
G01X1542000Y3430000D02*
Y3510000D01*
X1532000Y3494000D01*
G01Y3430000D02*
X1552000D01*
G01X1607000D02*
Y3510000D01*
X1597000Y3494000D01*
G01Y3430000D02*
X1617000D01*
G01X2793400Y636500D02*
Y672500D01*
X2776700Y716500D01*
G01X2810100D02*
X2793400Y672500D01*
G01X2868400Y636500D02*
Y716500D01*
X2837600Y659200D01*
X2879200D01*
G01X2718300Y70000D02*
Y150000D01*
X2738300D01*
X2745000Y146000D01*
X2750000Y136700D01*
X2751700Y126000D01*
X2750000Y115300D01*
X2745800Y107300D01*
X2738300Y103300D01*
X2718300D01*
G01X2784200Y136700D02*
X2789200Y144700D01*
X2795000Y148700D01*
X2801700Y150000D01*
X2810000Y147300D01*
X2815800Y140700D01*
X2817500Y132700D01*
X2816700Y124700D01*
X2813300Y118000D01*
X2796700Y104700D01*
X2789200Y95300D01*
X2784200Y82000D01*
X2782500Y70000D01*
X2817500D01*
G01X2863300D02*
X2865000Y87300D01*
X2867500Y102000D01*
X2870800Y115300D01*
X2875000Y130000D01*
X2881700Y150000D01*
X2848300D01*
G01X2464300Y70000D02*
Y150000D01*
X2484300D01*
X2491000Y146000D01*
X2496000Y136700D01*
X2497700Y126000D01*
X2496000Y115300D01*
X2491800Y107300D01*
X2484300Y103300D01*
X2464300D01*
G01X2530200Y136700D02*
X2535200Y144700D01*
X2541000Y148700D01*
X2547700Y150000D01*
X2556000Y147300D01*
X2561800Y140700D01*
X2563500Y132700D01*
X2562700Y124700D01*
X2559300Y118000D01*
X2542700Y104700D01*
X2535200Y95300D01*
X2530200Y82000D01*
X2528500Y70000D01*
X2563500D01*
G01X2595200Y103300D02*
X2601000Y112700D01*
X2606000Y118000D01*
X2612700Y120700D01*
X2618500Y118000D01*
X2622700Y112700D01*
X2626000Y104700D01*
X2626800Y95300D01*
X2626000Y87300D01*
X2622700Y79300D01*
X2617700Y72700D01*
X2611800Y70000D01*
X2605200Y72700D01*
X2599300Y80700D01*
X2596000Y92700D01*
X2595200Y106000D01*
X2596800Y123300D01*
X2599300Y132700D01*
X2603500Y142000D01*
X2609300Y148700D01*
X2615200Y150000D01*
X2621000Y147300D01*
X2625200Y140700D01*
G01X2210300Y70000D02*
Y150000D01*
X2230300D01*
X2237000Y146000D01*
X2242000Y136700D01*
X2243700Y126000D01*
X2242000Y115300D01*
X2237800Y107300D01*
X2230300Y103300D01*
X2210300D01*
G01X2276200Y136700D02*
X2281200Y144700D01*
X2287000Y148700D01*
X2293700Y150000D01*
X2302000Y147300D01*
X2307800Y140700D01*
X2309500Y132700D01*
X2308700Y124700D01*
X2305300Y118000D01*
X2288700Y104700D01*
X2281200Y95300D01*
X2276200Y82000D01*
X2274500Y70000D01*
X2309500D01*
G01X2338700Y82000D02*
X2343700Y75300D01*
X2349500Y71300D01*
X2357000Y70000D01*
X2364500Y72700D01*
X2370300Y78000D01*
X2374500Y87300D01*
X2375300Y98000D01*
X2373700Y108700D01*
X2369500Y115300D01*
X2363700Y120700D01*
X2357800Y122000D01*
X2352000Y120700D01*
X2344500Y115300D01*
X2347000Y150000D01*
X2369500D01*
G01X2289200Y1432500D02*
X2284200Y1436500D01*
X2278400Y1439200D01*
X2271700D01*
X2264200Y1435200D01*
X2258400Y1428500D01*
X2254200Y1420500D01*
X2250900Y1407200D01*
X2250100Y1395200D01*
X2251700Y1383200D01*
X2254200Y1375200D01*
X2259200Y1367200D01*
X2265100Y1361900D01*
X2270900Y1359200D01*
X2276700D01*
X2282600Y1361900D01*
X2287600Y1365900D01*
X2291700Y1371200D01*
G01X2320100Y1425900D02*
X2325100Y1433900D01*
X2330900Y1437900D01*
X2337600Y1439200D01*
X2345900Y1436500D01*
X2351700Y1429900D01*
X2353400Y1421900D01*
X2352600Y1413900D01*
X2349200Y1407200D01*
X2332600Y1393900D01*
X2325100Y1384500D01*
X2320100Y1371200D01*
X2318400Y1359200D01*
X2353400D01*
G01X2385100Y1392500D02*
X2390900Y1401900D01*
X2395900Y1407200D01*
X2402600Y1409900D01*
X2408400Y1407200D01*
X2412600Y1401900D01*
X2415900Y1393900D01*
X2416700Y1384500D01*
X2415900Y1376500D01*
X2412600Y1368500D01*
X2407600Y1361900D01*
X2401700Y1359200D01*
X2395100Y1361900D01*
X2389200Y1369900D01*
X2385900Y1381900D01*
X2385100Y1395200D01*
X2386700Y1412500D01*
X2389200Y1421900D01*
X2393400Y1431200D01*
X2399200Y1437900D01*
X2405100Y1439200D01*
X2410900Y1436500D01*
X2415100Y1429900D01*
G01X2318900Y709100D02*
X2398900D01*
Y742500D01*
G01X2365600Y775000D02*
X2356200Y780800D01*
X2350900Y785800D01*
X2348200Y792500D01*
X2350900Y798300D01*
X2356200Y802500D01*
X2364200Y805800D01*
X2373600Y806600D01*
X2381600Y805800D01*
X2389600Y802500D01*
X2396200Y797500D01*
X2398900Y791600D01*
X2396200Y785000D01*
X2388200Y779100D01*
X2376200Y775800D01*
X2362900Y775000D01*
X2345600Y776600D01*
X2336200Y779100D01*
X2326900Y783300D01*
X2320200Y789100D01*
X2318900Y795000D01*
X2321600Y800800D01*
X2328200Y805000D01*
G01X2355800Y1601900D02*
Y1681900D01*
X2376700D01*
X2383300Y1677900D01*
X2387500Y1672600D01*
X2389200Y1661900D01*
X2387500Y1651200D01*
X2382500Y1644600D01*
X2376700Y1640600D01*
X2355800D01*
G01X2376700D02*
X2389200Y1601900D01*
G01X2421700Y1668600D02*
X2426700Y1676600D01*
X2432500Y1680600D01*
X2439200Y1681900D01*
X2447500Y1679200D01*
X2453300Y1672600D01*
X2455000Y1664600D01*
X2454200Y1656600D01*
X2450800Y1649900D01*
X2434200Y1636600D01*
X2426700Y1627200D01*
X2421700Y1613900D01*
X2420000Y1601900D01*
X2455000D01*
G01X2895800Y2191900D02*
Y2271900D01*
X2916700D01*
X2923300Y2267900D01*
X2927500Y2262600D01*
X2929200Y2251900D01*
X2927500Y2241200D01*
X2922500Y2234600D01*
X2916700Y2230600D01*
X2895800D01*
G01X2916700D02*
X2929200Y2191900D01*
G01X2959200Y2203900D02*
X2964200Y2197200D01*
X2970000Y2193200D01*
X2977500Y2191900D01*
X2985000Y2194600D01*
X2990800Y2199900D01*
X2995000Y2209200D01*
X2995800Y2219900D01*
X2994200Y2230600D01*
X2990000Y2237200D01*
X2984200Y2242600D01*
X2978300Y2243900D01*
X2972500Y2242600D01*
X2965000Y2237200D01*
X2967500Y2271900D01*
X2990000D01*
G01X2957600Y1646900D02*
Y1726900D01*
X2978500D01*
X2985100Y1722900D01*
X2989300Y1717600D01*
X2991000Y1706900D01*
X2989300Y1696200D01*
X2984300Y1689600D01*
X2978500Y1685600D01*
X2957600D01*
G01X2978500D02*
X2991000Y1646900D01*
G01X3039300D02*
Y1726900D01*
X3029300Y1710900D01*
G01Y1646900D02*
X3049300D01*
G01X3104300D02*
Y1726900D01*
X3094300Y1710900D01*
G01Y1646900D02*
X3114300D01*
G01X2355800Y1801900D02*
Y1881900D01*
X2376700D01*
X2383300Y1877900D01*
X2387500Y1872600D01*
X2389200Y1861900D01*
X2387500Y1851200D01*
X2382500Y1844600D01*
X2376700Y1840600D01*
X2355800D01*
G01X2376700D02*
X2389200Y1801900D01*
G01X2419200Y1817900D02*
X2424200Y1808600D01*
X2430800Y1803200D01*
X2438300Y1801900D01*
X2445000Y1803200D01*
X2451700Y1809900D01*
X2455800Y1817900D01*
X2456700Y1825900D01*
X2455000Y1835200D01*
X2449200Y1841900D01*
X2443300Y1844600D01*
X2435800D01*
G01X2443300D02*
X2448300Y1848600D01*
X2452500Y1855200D01*
X2454200Y1863200D01*
X2452500Y1871200D01*
X2448300Y1877900D01*
X2440800Y1881900D01*
X2433300Y1880600D01*
X2425800Y1875200D01*
G01X2540800Y2125200D02*
X2535800Y2129200D01*
X2530000Y2131900D01*
X2523300D01*
X2515800Y2127900D01*
X2510000Y2121200D01*
X2505800Y2113200D01*
X2502500Y2099900D01*
X2501700Y2087900D01*
X2503300Y2075900D01*
X2505800Y2067900D01*
X2510800Y2059900D01*
X2516700Y2054600D01*
X2522500Y2051900D01*
X2528300D01*
X2534200Y2054600D01*
X2539200Y2058600D01*
X2543300Y2063900D01*
G01X2587500Y2051900D02*
Y2131900D01*
X2577500Y2115900D01*
G01Y2051900D02*
X2597500D01*
G01X3030000Y2715000D02*
X2950000D01*
X2966000Y2705000D01*
G01X3030000D02*
Y2725000D01*
G01X2460800Y2884700D02*
Y2964700D01*
X2481700D01*
X2488300Y2960700D01*
X2492500Y2955400D01*
X2494200Y2944700D01*
X2492500Y2934000D01*
X2487500Y2927400D01*
X2481700Y2923400D01*
X2460800D01*
G01X2481700D02*
X2494200Y2884700D01*
G01X2542500D02*
Y2964700D01*
X2532500Y2948700D01*
G01Y2884700D02*
X2552500D01*
G01X2607500Y2964700D02*
X2600800Y2962000D01*
X2595800Y2955400D01*
X2592500Y2947400D01*
X2590000Y2936700D01*
X2589200Y2924700D01*
X2590000Y2912700D01*
X2592500Y2902000D01*
X2595800Y2894000D01*
X2600800Y2887400D01*
X2607500Y2884700D01*
X2614200Y2887400D01*
X2619200Y2894000D01*
X2622500Y2902000D01*
X2625000Y2912700D01*
X2625800Y2924700D01*
X2625000Y2936700D01*
X2622500Y2947400D01*
X2619200Y2955400D01*
X2614200Y2962000D01*
X2607500Y2964700D01*
G01X2878300Y2557800D02*
X2958300D01*
Y2536900D01*
X2954300Y2530300D01*
X2949000Y2526100D01*
X2938300Y2524400D01*
X2927600Y2526100D01*
X2921000Y2531100D01*
X2917000Y2536900D01*
Y2557800D01*
G01Y2536900D02*
X2878300Y2524400D01*
G01Y2466100D02*
X2958300D01*
X2901000Y2496900D01*
Y2455300D01*
G01X2621700Y2629400D02*
X2541700D01*
Y2650300D01*
X2545700Y2656900D01*
X2551000Y2661100D01*
X2561700Y2662800D01*
X2572400Y2661100D01*
X2579000Y2656100D01*
X2583000Y2650300D01*
Y2629400D01*
G01Y2650300D02*
X2621700Y2662800D01*
G01X2588400Y2695300D02*
X2579000Y2701100D01*
X2573700Y2706100D01*
X2571000Y2712800D01*
X2573700Y2718600D01*
X2579000Y2722800D01*
X2587000Y2726100D01*
X2596400Y2726900D01*
X2604400Y2726100D01*
X2612400Y2722800D01*
X2619000Y2717800D01*
X2621700Y2711900D01*
X2619000Y2705300D01*
X2611000Y2699400D01*
X2599000Y2696100D01*
X2585700Y2695300D01*
X2568400Y2696900D01*
X2559000Y2699400D01*
X2549700Y2703600D01*
X2543000Y2709400D01*
X2541700Y2715300D01*
X2544400Y2721100D01*
X2551000Y2725300D01*
G01X2222300Y3430000D02*
Y3510000D01*
X2242300D01*
X2249000Y3506000D01*
X2254000Y3496700D01*
X2255700Y3486000D01*
X2254000Y3475300D01*
X2249800Y3467300D01*
X2242300Y3463300D01*
X2222300D01*
G01X2304000Y3430000D02*
X2309800Y3431300D01*
X2316500Y3435300D01*
X2320700Y3442000D01*
X2322300Y3451300D01*
X2320700Y3460700D01*
X2315700Y3468700D01*
X2308200Y3472700D01*
X2299800D01*
X2294800Y3475300D01*
X2290700Y3482000D01*
X2289000Y3491300D01*
X2291500Y3500700D01*
X2297300Y3507300D01*
X2304000Y3510000D01*
X2310700Y3507300D01*
X2316500Y3500700D01*
X2319000Y3491300D01*
X2317300Y3482000D01*
X2313200Y3475300D01*
X2308200Y3472700D01*
X2299800D01*
X2292300Y3468700D01*
X2287300Y3460700D01*
X2285700Y3451300D01*
X2287300Y3442000D01*
X2291500Y3435300D01*
X2298200Y3431300D01*
X2304000Y3430000D01*
G01X2730300D02*
Y3510000D01*
X2750300D01*
X2757000Y3506000D01*
X2762000Y3496700D01*
X2763700Y3486000D01*
X2762000Y3475300D01*
X2757800Y3467300D01*
X2750300Y3463300D01*
X2730300D01*
G01X2796200D02*
X2802000Y3472700D01*
X2807000Y3478000D01*
X2813700Y3480700D01*
X2819500Y3478000D01*
X2823700Y3472700D01*
X2827000Y3464700D01*
X2827800Y3455300D01*
X2827000Y3447300D01*
X2823700Y3439300D01*
X2818700Y3432700D01*
X2812800Y3430000D01*
X2806200Y3432700D01*
X2800300Y3440700D01*
X2797000Y3452700D01*
X2796200Y3466000D01*
X2797800Y3483300D01*
X2800300Y3492700D01*
X2804500Y3502000D01*
X2810300Y3508700D01*
X2816200Y3510000D01*
X2822000Y3507300D01*
X2826200Y3500700D01*
G01X2476300Y3430000D02*
Y3510000D01*
X2496300D01*
X2503000Y3506000D01*
X2508000Y3496700D01*
X2509700Y3486000D01*
X2508000Y3475300D01*
X2503800Y3467300D01*
X2496300Y3463300D01*
X2476300D01*
G01X2556300Y3430000D02*
X2558000Y3447300D01*
X2560500Y3462000D01*
X2563800Y3475300D01*
X2568000Y3490000D01*
X2574700Y3510000D01*
X2541300D01*
G01X2934200Y3019700D02*
X2930200Y3014700D01*
X2927500Y3008900D01*
Y3002200D01*
X2931500Y2994700D01*
X2938200Y2988900D01*
X2946200Y2984700D01*
X2959500Y2981400D01*
X2971500Y2980600D01*
X2983500Y2982200D01*
X2991500Y2984700D01*
X2999500Y2989700D01*
X3004800Y2995600D01*
X3007500Y3001400D01*
Y3007200D01*
X3004800Y3013100D01*
X3000800Y3018100D01*
X2995500Y3022200D01*
G01X3007500Y3066400D02*
X2927500D01*
X2943500Y3056400D01*
G01X3007500D02*
Y3076400D01*
G01X2940800Y3115600D02*
X2932800Y3120600D01*
X2928800Y3126400D01*
X2927500Y3133100D01*
X2930200Y3141400D01*
X2936800Y3147200D01*
X2944800Y3148900D01*
X2952800Y3148100D01*
X2959500Y3144700D01*
X2972800Y3128100D01*
X2982200Y3120600D01*
X2995500Y3115600D01*
X3007500Y3113900D01*
Y3148900D01*
G01X2430800Y3135200D02*
X2425800Y3139200D01*
X2420000Y3141900D01*
X2413300D01*
X2405800Y3137900D01*
X2400000Y3131200D01*
X2395800Y3123200D01*
X2392500Y3109900D01*
X2391700Y3097900D01*
X2393300Y3085900D01*
X2395800Y3077900D01*
X2400800Y3069900D01*
X2406700Y3064600D01*
X2412500Y3061900D01*
X2418300D01*
X2424200Y3064600D01*
X2429200Y3068600D01*
X2433300Y3073900D01*
G01X2475800Y3061900D02*
X2477500Y3079200D01*
X2480000Y3093900D01*
X2483300Y3107200D01*
X2487500Y3121900D01*
X2494200Y3141900D01*
X2460800D01*
G01X3363200Y580700D02*
Y616700D01*
X3346500Y660700D01*
G01X3379900D02*
X3363200Y616700D01*
G01X3409900Y596700D02*
X3414900Y587400D01*
X3421500Y582000D01*
X3429000Y580700D01*
X3435700Y582000D01*
X3442400Y588700D01*
X3446500Y596700D01*
X3447400Y604700D01*
X3445700Y614000D01*
X3439900Y620700D01*
X3434000Y623400D01*
X3426500D01*
G01X3434000D02*
X3439000Y627400D01*
X3443200Y634000D01*
X3444900Y642000D01*
X3443200Y650000D01*
X3439000Y656700D01*
X3431500Y660700D01*
X3424000Y659400D01*
X3416500Y654000D01*
G01X3480300Y70000D02*
Y150000D01*
X3500300D01*
X3507000Y146000D01*
X3512000Y136700D01*
X3513700Y126000D01*
X3512000Y115300D01*
X3507800Y107300D01*
X3500300Y103300D01*
X3480300D01*
G01X3543700Y86000D02*
X3548700Y76700D01*
X3555300Y71300D01*
X3562800Y70000D01*
X3569500Y71300D01*
X3576200Y78000D01*
X3580300Y86000D01*
X3581200Y94000D01*
X3579500Y103300D01*
X3573700Y110000D01*
X3567800Y112700D01*
X3560300D01*
G01X3567800D02*
X3572800Y116700D01*
X3577000Y123300D01*
X3578700Y131300D01*
X3577000Y139300D01*
X3572800Y146000D01*
X3565300Y150000D01*
X3557800Y148700D01*
X3550300Y143300D01*
G01X3627000Y150000D02*
X3620300Y147300D01*
X3615300Y140700D01*
X3612000Y132700D01*
X3609500Y122000D01*
X3608700Y110000D01*
X3609500Y98000D01*
X3612000Y87300D01*
X3615300Y79300D01*
X3620300Y72700D01*
X3627000Y70000D01*
X3633700Y72700D01*
X3638700Y79300D01*
X3642000Y87300D01*
X3644500Y98000D01*
X3645300Y110000D01*
X3644500Y122000D01*
X3642000Y132700D01*
X3638700Y140700D01*
X3633700Y147300D01*
X3627000Y150000D01*
G01X3226300Y70000D02*
Y150000D01*
X3246300D01*
X3253000Y146000D01*
X3258000Y136700D01*
X3259700Y126000D01*
X3258000Y115300D01*
X3253800Y107300D01*
X3246300Y103300D01*
X3226300D01*
G01X3292200Y136700D02*
X3297200Y144700D01*
X3303000Y148700D01*
X3309700Y150000D01*
X3318000Y147300D01*
X3323800Y140700D01*
X3325500Y132700D01*
X3324700Y124700D01*
X3321300Y118000D01*
X3304700Y104700D01*
X3297200Y95300D01*
X3292200Y82000D01*
X3290500Y70000D01*
X3325500D01*
G01X3358800Y79300D02*
X3364700Y72700D01*
X3371300Y70000D01*
X3378000Y72700D01*
X3383800Y80700D01*
X3388000Y92700D01*
X3389700Y104700D01*
Y119300D01*
X3388000Y131300D01*
X3383800Y142000D01*
X3378800Y147300D01*
X3373000Y150000D01*
X3366300Y147300D01*
X3361300Y142000D01*
X3358000Y134000D01*
X3356300Y123300D01*
X3358000Y114000D01*
X3362200Y104700D01*
X3367200Y99300D01*
X3373000Y98000D01*
X3379700Y100700D01*
X3384700Y107300D01*
X3389700Y119300D01*
G01X2972300Y70000D02*
Y150000D01*
X2992300D01*
X2999000Y146000D01*
X3004000Y136700D01*
X3005700Y126000D01*
X3004000Y115300D01*
X2999800Y107300D01*
X2992300Y103300D01*
X2972300D01*
G01X3038200Y136700D02*
X3043200Y144700D01*
X3049000Y148700D01*
X3055700Y150000D01*
X3064000Y147300D01*
X3069800Y140700D01*
X3071500Y132700D01*
X3070700Y124700D01*
X3067300Y118000D01*
X3050700Y104700D01*
X3043200Y95300D01*
X3038200Y82000D01*
X3036500Y70000D01*
X3071500D01*
G01X3119000D02*
X3124800Y71300D01*
X3131500Y75300D01*
X3135700Y82000D01*
X3137300Y91300D01*
X3135700Y100700D01*
X3130700Y108700D01*
X3123200Y112700D01*
X3114800D01*
X3109800Y115300D01*
X3105700Y122000D01*
X3104000Y131300D01*
X3106500Y140700D01*
X3112300Y147300D01*
X3119000Y150000D01*
X3125700Y147300D01*
X3131500Y140700D01*
X3134000Y131300D01*
X3132300Y122000D01*
X3128200Y115300D01*
X3123200Y112700D01*
X3114800D01*
X3107300Y108700D01*
X3102300Y100700D01*
X3100700Y91300D01*
X3102300Y82000D01*
X3106500Y75300D01*
X3113200Y71300D01*
X3119000Y70000D01*
G01X3615800Y2251900D02*
Y2171900D01*
X3649200D01*
G01X3695800D02*
X3697500Y2189200D01*
X3700000Y2203900D01*
X3703300Y2217200D01*
X3707500Y2231900D01*
X3714200Y2251900D01*
X3680800D01*
G01X3510900Y2128300D02*
Y2071000D01*
X3514200Y2059000D01*
X3520900Y2051000D01*
X3529200Y2048300D01*
X3537500Y2051000D01*
X3544200Y2059000D01*
X3547500Y2071000D01*
Y2128300D01*
G01X3578400Y2115000D02*
X3583400Y2123000D01*
X3589200Y2127000D01*
X3595900Y2128300D01*
X3604200Y2125600D01*
X3610000Y2119000D01*
X3611700Y2111000D01*
X3610900Y2103000D01*
X3607500Y2096300D01*
X3590900Y2083000D01*
X3583400Y2073600D01*
X3578400Y2060300D01*
X3576700Y2048300D01*
X3611700D01*
G01X3234000Y1999200D02*
X3238000Y2004200D01*
X3240700Y2010000D01*
Y2016700D01*
X3236700Y2024200D01*
X3230000Y2030000D01*
X3222000Y2034200D01*
X3208700Y2037500D01*
X3196700Y2038300D01*
X3184700Y2036700D01*
X3176700Y2034200D01*
X3168700Y2029200D01*
X3163400Y2023300D01*
X3160700Y2017500D01*
Y2011700D01*
X3163400Y2005800D01*
X3167400Y2000800D01*
X3172700Y1996700D01*
G01Y1970800D02*
X3166000Y1965800D01*
X3162000Y1960000D01*
X3160700Y1952500D01*
X3163400Y1945000D01*
X3168700Y1939200D01*
X3178000Y1935000D01*
X3188700Y1934200D01*
X3199400Y1935800D01*
X3206000Y1940000D01*
X3211400Y1945800D01*
X3212700Y1951700D01*
X3211400Y1957500D01*
X3206000Y1965000D01*
X3240700Y1962500D01*
Y1940000D01*
G01X3169700Y1562500D02*
X3165700Y1557500D01*
X3163000Y1551700D01*
Y1545000D01*
X3167000Y1537500D01*
X3173700Y1531700D01*
X3181700Y1527500D01*
X3195000Y1524200D01*
X3207000Y1523400D01*
X3219000Y1525000D01*
X3227000Y1527500D01*
X3235000Y1532500D01*
X3240300Y1538400D01*
X3243000Y1544200D01*
Y1550000D01*
X3240300Y1555900D01*
X3236300Y1560900D01*
X3231000Y1565000D01*
G01X3176300Y1593400D02*
X3168300Y1598400D01*
X3164300Y1604200D01*
X3163000Y1610900D01*
X3165700Y1619200D01*
X3172300Y1625000D01*
X3180300Y1626700D01*
X3188300Y1625900D01*
X3195000Y1622500D01*
X3208300Y1605900D01*
X3217700Y1598400D01*
X3231000Y1593400D01*
X3243000Y1591700D01*
Y1626700D01*
G01Y1684200D02*
X3163000D01*
X3220300Y1653400D01*
Y1695000D01*
G01X3628000Y1774200D02*
X3632000Y1779200D01*
X3634700Y1785000D01*
Y1791700D01*
X3630700Y1799200D01*
X3624000Y1805000D01*
X3616000Y1809200D01*
X3602700Y1812500D01*
X3590700Y1813300D01*
X3578700Y1811700D01*
X3570700Y1809200D01*
X3562700Y1804200D01*
X3557400Y1798300D01*
X3554700Y1792500D01*
Y1786700D01*
X3557400Y1780800D01*
X3561400Y1775800D01*
X3566700Y1771700D01*
G01X3554700Y1727500D02*
X3634700D01*
X3618700Y1737500D01*
G01X3554700D02*
Y1717500D01*
G01X3570700Y1680800D02*
X3561400Y1675800D01*
X3556000Y1669200D01*
X3554700Y1661700D01*
X3556000Y1655000D01*
X3562700Y1648300D01*
X3570700Y1644200D01*
X3578700Y1643300D01*
X3588000Y1645000D01*
X3594700Y1650800D01*
X3597400Y1656700D01*
Y1664200D01*
G01Y1656700D02*
X3601400Y1651700D01*
X3608000Y1647500D01*
X3616000Y1645800D01*
X3624000Y1647500D01*
X3630700Y1651700D01*
X3634700Y1659200D01*
X3633400Y1666700D01*
X3628000Y1674200D01*
G01X3615800Y2671900D02*
Y2591900D01*
X3649200D01*
G01X3697500D02*
X3703300Y2593200D01*
X3710000Y2597200D01*
X3714200Y2603900D01*
X3715800Y2613200D01*
X3714200Y2622600D01*
X3709200Y2630600D01*
X3701700Y2634600D01*
X3693300D01*
X3688300Y2637200D01*
X3684200Y2643900D01*
X3682500Y2653200D01*
X3685000Y2662600D01*
X3690800Y2669200D01*
X3697500Y2671900D01*
X3704200Y2669200D01*
X3710000Y2662600D01*
X3712500Y2653200D01*
X3710800Y2643900D01*
X3706700Y2637200D01*
X3701700Y2634600D01*
X3693300D01*
X3685800Y2630600D01*
X3680800Y2622600D01*
X3679200Y2613200D01*
X3680800Y2603900D01*
X3685000Y2597200D01*
X3691700Y2593200D01*
X3697500Y2591900D01*
G01X3707400Y2928100D02*
X3711400Y2933100D01*
X3714100Y2938900D01*
Y2945600D01*
X3710100Y2953100D01*
X3703400Y2958900D01*
X3695400Y2963100D01*
X3682100Y2966400D01*
X3670100Y2967200D01*
X3658100Y2965600D01*
X3650100Y2963100D01*
X3642100Y2958100D01*
X3636800Y2952200D01*
X3634100Y2946400D01*
Y2940600D01*
X3636800Y2934700D01*
X3640800Y2929700D01*
X3646100Y2925600D01*
G01X3634100Y2871400D02*
X3714100D01*
X3656800Y2902200D01*
Y2860600D01*
G01X3238300Y3430000D02*
Y3510000D01*
X3258300D01*
X3265000Y3506000D01*
X3270000Y3496700D01*
X3271700Y3486000D01*
X3270000Y3475300D01*
X3265800Y3467300D01*
X3258300Y3463300D01*
X3238300D01*
G01X3330000Y3430000D02*
Y3510000D01*
X3299200Y3452700D01*
X3340800D01*
G01X3492300Y3430000D02*
Y3510000D01*
X3512300D01*
X3519000Y3506000D01*
X3524000Y3496700D01*
X3525700Y3486000D01*
X3524000Y3475300D01*
X3519800Y3467300D01*
X3512300Y3463300D01*
X3492300D01*
G01X3555700Y3446000D02*
X3560700Y3436700D01*
X3567300Y3431300D01*
X3574800Y3430000D01*
X3581500Y3431300D01*
X3588200Y3438000D01*
X3592300Y3446000D01*
X3593200Y3454000D01*
X3591500Y3463300D01*
X3585700Y3470000D01*
X3579800Y3472700D01*
X3572300D01*
G01X3579800D02*
X3584800Y3476700D01*
X3589000Y3483300D01*
X3590700Y3491300D01*
X3589000Y3499300D01*
X3584800Y3506000D01*
X3577300Y3510000D01*
X3569800Y3508700D01*
X3562300Y3503300D01*
G01X2984300Y3430000D02*
Y3510000D01*
X3004300D01*
X3011000Y3506000D01*
X3016000Y3496700D01*
X3017700Y3486000D01*
X3016000Y3475300D01*
X3011800Y3467300D01*
X3004300Y3463300D01*
X2984300D01*
G01X3047700Y3442000D02*
X3052700Y3435300D01*
X3058500Y3431300D01*
X3066000Y3430000D01*
X3073500Y3432700D01*
X3079300Y3438000D01*
X3083500Y3447300D01*
X3084300Y3458000D01*
X3082700Y3468700D01*
X3078500Y3475300D01*
X3072700Y3480700D01*
X3066800Y3482000D01*
X3061000Y3480700D01*
X3053500Y3475300D01*
X3056000Y3510000D01*
X3078500D01*
G01X3380000Y3159400D02*
Y3239400D01*
X3400900D01*
X3407500Y3235400D01*
X3411700Y3230100D01*
X3413400Y3219400D01*
X3411700Y3208700D01*
X3406700Y3202100D01*
X3400900Y3198100D01*
X3380000D01*
G01X3400900D02*
X3413400Y3159400D01*
G01X3461700D02*
Y3239400D01*
X3451700Y3223400D01*
G01Y3159400D02*
X3471700D01*
G01X3734300Y70000D02*
Y150000D01*
X3754300D01*
X3761000Y146000D01*
X3766000Y136700D01*
X3767700Y126000D01*
X3766000Y115300D01*
X3761800Y107300D01*
X3754300Y103300D01*
X3734300D01*
G01X3797700Y86000D02*
X3802700Y76700D01*
X3809300Y71300D01*
X3816800Y70000D01*
X3823500Y71300D01*
X3830200Y78000D01*
X3834300Y86000D01*
X3835200Y94000D01*
X3833500Y103300D01*
X3827700Y110000D01*
X3821800Y112700D01*
X3814300D01*
G01X3821800D02*
X3826800Y116700D01*
X3831000Y123300D01*
X3832700Y131300D01*
X3831000Y139300D01*
X3826800Y146000D01*
X3819300Y150000D01*
X3811800Y148700D01*
X3804300Y143300D01*
G01X3881000Y70000D02*
Y150000D01*
X3871000Y134000D01*
G01Y70000D02*
X3891000D01*
G01X4176000Y2127000D02*
X4256000D01*
Y2160400D01*
G01X4189300Y2192900D02*
X4181300Y2197900D01*
X4177300Y2203700D01*
X4176000Y2210400D01*
X4178700Y2218700D01*
X4185300Y2224500D01*
X4193300Y2226200D01*
X4201300Y2225400D01*
X4208000Y2222000D01*
X4221300Y2205400D01*
X4230700Y2197900D01*
X4244000Y2192900D01*
X4256000Y2191200D01*
Y2226200D01*
G01X4092600Y1615300D02*
X4172600D01*
Y1594400D01*
X4168600Y1587800D01*
X4163300Y1583600D01*
X4152600Y1581900D01*
X4141900Y1583600D01*
X4135300Y1588600D01*
X4131300Y1594400D01*
Y1615300D01*
G01Y1594400D02*
X4092600Y1581900D01*
G01X4101900Y1547800D02*
X4095300Y1541900D01*
X4092600Y1535300D01*
X4095300Y1528600D01*
X4103300Y1522800D01*
X4115300Y1518600D01*
X4127300Y1516900D01*
X4141900D01*
X4153900Y1518600D01*
X4164600Y1522800D01*
X4169900Y1527800D01*
X4172600Y1533600D01*
X4169900Y1540300D01*
X4164600Y1545300D01*
X4156600Y1548600D01*
X4145900Y1550300D01*
X4136600Y1548600D01*
X4127300Y1544400D01*
X4121900Y1539400D01*
X4120600Y1533600D01*
X4123300Y1526900D01*
X4129900Y1521900D01*
X4141900Y1516900D01*
G01X4326000Y1853600D02*
X4321000Y1857600D01*
X4315200Y1860300D01*
X4308500D01*
X4301000Y1856300D01*
X4295200Y1849600D01*
X4291000Y1841600D01*
X4287700Y1828300D01*
X4286900Y1816300D01*
X4288500Y1804300D01*
X4291000Y1796300D01*
X4296000Y1788300D01*
X4301900Y1783000D01*
X4307700Y1780300D01*
X4313500D01*
X4319400Y1783000D01*
X4324400Y1787000D01*
X4328500Y1792300D01*
G01X4372700Y1780300D02*
Y1860300D01*
X4362700Y1844300D01*
G01Y1780300D02*
X4382700D01*
G01X4419400Y1792300D02*
X4424400Y1785600D01*
X4430200Y1781600D01*
X4437700Y1780300D01*
X4445200Y1783000D01*
X4451000Y1788300D01*
X4455200Y1797600D01*
X4456000Y1808300D01*
X4454400Y1819000D01*
X4450200Y1825600D01*
X4444400Y1831000D01*
X4438500Y1832300D01*
X4432700Y1831000D01*
X4425200Y1825600D01*
X4427700Y1860300D01*
X4450200D01*
G01X3780800Y1975200D02*
X3775800Y1979200D01*
X3770000Y1981900D01*
X3763300D01*
X3755800Y1977900D01*
X3750000Y1971200D01*
X3745800Y1963200D01*
X3742500Y1949900D01*
X3741700Y1937900D01*
X3743300Y1925900D01*
X3745800Y1917900D01*
X3750800Y1909900D01*
X3756700Y1904600D01*
X3762500Y1901900D01*
X3768300D01*
X3774200Y1904600D01*
X3779200Y1908600D01*
X3783300Y1913900D01*
G01X3827500Y1901900D02*
Y1981900D01*
X3817500Y1965900D01*
G01Y1901900D02*
X3837500D01*
G01X3892500Y1981900D02*
X3885800Y1979200D01*
X3880800Y1972600D01*
X3877500Y1964600D01*
X3875000Y1953900D01*
X3874200Y1941900D01*
X3875000Y1929900D01*
X3877500Y1919200D01*
X3880800Y1911200D01*
X3885800Y1904600D01*
X3892500Y1901900D01*
X3899200Y1904600D01*
X3904200Y1911200D01*
X3907500Y1919200D01*
X3910000Y1929900D01*
X3910800Y1941900D01*
X3910000Y1953900D01*
X3907500Y1964600D01*
X3904200Y1972600D01*
X3899200Y1979200D01*
X3892500Y1981900D01*
G01X3770900Y1561900D02*
X3766900Y1556900D01*
X3764200Y1551100D01*
Y1544400D01*
X3768200Y1536900D01*
X3774900Y1531100D01*
X3782900Y1526900D01*
X3796200Y1523600D01*
X3808200Y1522800D01*
X3820200Y1524400D01*
X3828200Y1526900D01*
X3836200Y1531900D01*
X3841500Y1537800D01*
X3844200Y1543600D01*
Y1549400D01*
X3841500Y1555300D01*
X3837500Y1560300D01*
X3832200Y1564400D01*
G01X3777500Y1592800D02*
X3769500Y1597800D01*
X3765500Y1603600D01*
X3764200Y1610300D01*
X3766900Y1618600D01*
X3773500Y1624400D01*
X3781500Y1626100D01*
X3789500Y1625300D01*
X3796200Y1621900D01*
X3809500Y1605300D01*
X3818900Y1597800D01*
X3832200Y1592800D01*
X3844200Y1591100D01*
Y1626100D01*
G01X3832200Y1655300D02*
X3838900Y1660300D01*
X3842900Y1666100D01*
X3844200Y1673600D01*
X3841500Y1681100D01*
X3836200Y1686900D01*
X3826900Y1691100D01*
X3816200Y1691900D01*
X3805500Y1690300D01*
X3798900Y1686100D01*
X3793500Y1680300D01*
X3792200Y1674400D01*
X3793500Y1668600D01*
X3798900Y1661100D01*
X3764200Y1663600D01*
Y1686100D01*
G01X4475800Y2831900D02*
Y2751900D01*
X4509200D01*
G01X4539200Y2763900D02*
X4544200Y2757200D01*
X4550000Y2753200D01*
X4557500Y2751900D01*
X4565000Y2754600D01*
X4570800Y2759900D01*
X4575000Y2769200D01*
X4575800Y2779900D01*
X4574200Y2790600D01*
X4570000Y2797200D01*
X4564200Y2802600D01*
X4558300Y2803900D01*
X4552500Y2802600D01*
X4545000Y2797200D01*
X4547500Y2831900D01*
X4570000D01*
G01X4192000Y2615800D02*
X4188000Y2610800D01*
X4185300Y2605000D01*
Y2598300D01*
X4189300Y2590800D01*
X4196000Y2585000D01*
X4204000Y2580800D01*
X4217300Y2577500D01*
X4229300Y2576700D01*
X4241300Y2578300D01*
X4249300Y2580800D01*
X4257300Y2585800D01*
X4262600Y2591700D01*
X4265300Y2597500D01*
Y2603300D01*
X4262600Y2609200D01*
X4258600Y2614200D01*
X4253300Y2618300D01*
G01X4198600Y2646700D02*
X4190600Y2651700D01*
X4186600Y2657500D01*
X4185300Y2664200D01*
X4188000Y2672500D01*
X4194600Y2678300D01*
X4202600Y2680000D01*
X4210600Y2679200D01*
X4217300Y2675800D01*
X4230600Y2659200D01*
X4240000Y2651700D01*
X4253300Y2646700D01*
X4265300Y2645000D01*
Y2680000D01*
G01Y2725800D02*
X4248000Y2727500D01*
X4233300Y2730000D01*
X4220000Y2733300D01*
X4205300Y2737500D01*
X4185300Y2744200D01*
Y2710800D01*
G01X4330000Y2849200D02*
X4326000Y2844200D01*
X4323300Y2838400D01*
Y2831700D01*
X4327300Y2824200D01*
X4334000Y2818400D01*
X4342000Y2814200D01*
X4355300Y2810900D01*
X4367300Y2810100D01*
X4379300Y2811700D01*
X4387300Y2814200D01*
X4395300Y2819200D01*
X4400600Y2825100D01*
X4403300Y2830900D01*
Y2836700D01*
X4400600Y2842600D01*
X4396600Y2847600D01*
X4391300Y2851700D01*
G01X4403300Y2895900D02*
X4323300D01*
X4339300Y2885900D01*
G01X4403300D02*
Y2905900D01*
G01X4394000Y2946700D02*
X4400600Y2952600D01*
X4403300Y2959200D01*
X4400600Y2965900D01*
X4392600Y2971700D01*
X4380600Y2975900D01*
X4368600Y2977600D01*
X4354000D01*
X4342000Y2975900D01*
X4331300Y2971700D01*
X4326000Y2966700D01*
X4323300Y2960900D01*
X4326000Y2954200D01*
X4331300Y2949200D01*
X4339300Y2945900D01*
X4350000Y2944200D01*
X4359300Y2945900D01*
X4368600Y2950100D01*
X4374000Y2955100D01*
X4375300Y2960900D01*
X4372600Y2967600D01*
X4366000Y2972600D01*
X4354000Y2977600D01*
G01X3780800Y2885200D02*
X3775800Y2889200D01*
X3770000Y2891900D01*
X3763300D01*
X3755800Y2887900D01*
X3750000Y2881200D01*
X3745800Y2873200D01*
X3742500Y2859900D01*
X3741700Y2847900D01*
X3743300Y2835900D01*
X3745800Y2827900D01*
X3750800Y2819900D01*
X3756700Y2814600D01*
X3762500Y2811900D01*
X3768300D01*
X3774200Y2814600D01*
X3779200Y2818600D01*
X3783300Y2823900D01*
G01X3827500Y2811900D02*
X3833300Y2813200D01*
X3840000Y2817200D01*
X3844200Y2823900D01*
X3845800Y2833200D01*
X3844200Y2842600D01*
X3839200Y2850600D01*
X3831700Y2854600D01*
X3823300D01*
X3818300Y2857200D01*
X3814200Y2863900D01*
X3812500Y2873200D01*
X3815000Y2882600D01*
X3820800Y2889200D01*
X3827500Y2891900D01*
X3834200Y2889200D01*
X3840000Y2882600D01*
X3842500Y2873200D01*
X3840800Y2863900D01*
X3836700Y2857200D01*
X3831700Y2854600D01*
X3823300D01*
X3815800Y2850600D01*
X3810800Y2842600D01*
X3809200Y2833200D01*
X3810800Y2823900D01*
X3815000Y2817200D01*
X3821700Y2813200D01*
X3827500Y2811900D01*
G01X4000300Y3430000D02*
Y3510000D01*
X4020300D01*
X4027000Y3506000D01*
X4032000Y3496700D01*
X4033700Y3486000D01*
X4032000Y3475300D01*
X4027800Y3467300D01*
X4020300Y3463300D01*
X4000300D01*
G01X4082000Y3430000D02*
Y3510000D01*
X4072000Y3494000D01*
G01Y3430000D02*
X4092000D01*
G01X3746300D02*
Y3510000D01*
X3766300D01*
X3773000Y3506000D01*
X3778000Y3496700D01*
X3779700Y3486000D01*
X3778000Y3475300D01*
X3773800Y3467300D01*
X3766300Y3463300D01*
X3746300D01*
G01X3812200Y3496700D02*
X3817200Y3504700D01*
X3823000Y3508700D01*
X3829700Y3510000D01*
X3838000Y3507300D01*
X3843800Y3500700D01*
X3845500Y3492700D01*
X3844700Y3484700D01*
X3841300Y3478000D01*
X3824700Y3464700D01*
X3817200Y3455300D01*
X3812200Y3442000D01*
X3810500Y3430000D01*
X3845500D01*
G01X4795800Y1731900D02*
Y1651900D01*
X4829200D01*
G01X4863300Y1661200D02*
X4869200Y1654600D01*
X4875800Y1651900D01*
X4882500Y1654600D01*
X4888300Y1662600D01*
X4892500Y1674600D01*
X4894200Y1686600D01*
Y1701200D01*
X4892500Y1713200D01*
X4888300Y1723900D01*
X4883300Y1729200D01*
X4877500Y1731900D01*
X4870800Y1729200D01*
X4865800Y1723900D01*
X4862500Y1715900D01*
X4860800Y1705200D01*
X4862500Y1695900D01*
X4866700Y1686600D01*
X4871700Y1681200D01*
X4877500Y1679900D01*
X4884200Y1682600D01*
X4889200Y1689200D01*
X4894200Y1701200D01*
G01X5058000Y2114200D02*
X5062000Y2119200D01*
X5064700Y2125000D01*
Y2131700D01*
X5060700Y2139200D01*
X5054000Y2145000D01*
X5046000Y2149200D01*
X5032700Y2152500D01*
X5020700Y2153300D01*
X5008700Y2151700D01*
X5000700Y2149200D01*
X4992700Y2144200D01*
X4987400Y2138300D01*
X4984700Y2132500D01*
Y2126700D01*
X4987400Y2120800D01*
X4991400Y2115800D01*
X4996700Y2111700D01*
G01X5051400Y2083300D02*
X5059400Y2078300D01*
X5063400Y2072500D01*
X5064700Y2065800D01*
X5062000Y2057500D01*
X5055400Y2051700D01*
X5047400Y2050000D01*
X5039400Y2050800D01*
X5032700Y2054200D01*
X5019400Y2070800D01*
X5010000Y2078300D01*
X4996700Y2083300D01*
X4984700Y2085000D01*
Y2050000D01*
G01Y2002500D02*
X4986000Y1996700D01*
X4990000Y1990000D01*
X4996700Y1985800D01*
X5006000Y1984200D01*
X5015400Y1985800D01*
X5023400Y1990800D01*
X5027400Y1998300D01*
Y2006700D01*
X5030000Y2011700D01*
X5036700Y2015800D01*
X5046000Y2017500D01*
X5055400Y2015000D01*
X5062000Y2009200D01*
X5064700Y2002500D01*
X5062000Y1995800D01*
X5055400Y1990000D01*
X5046000Y1987500D01*
X5036700Y1989200D01*
X5030000Y1993300D01*
X5027400Y1998300D01*
Y2006700D01*
X5023400Y2014200D01*
X5015400Y2019200D01*
X5006000Y2020800D01*
X4996700Y2019200D01*
X4990000Y2015000D01*
X4986000Y2008300D01*
X4984700Y2002500D01*
G01X5310400Y1937600D02*
X5314400Y1942600D01*
X5317100Y1948400D01*
Y1955100D01*
X5313100Y1962600D01*
X5306400Y1968400D01*
X5298400Y1972600D01*
X5285100Y1975900D01*
X5273100Y1976700D01*
X5261100Y1975100D01*
X5253100Y1972600D01*
X5245100Y1967600D01*
X5239800Y1961700D01*
X5237100Y1955900D01*
Y1950100D01*
X5239800Y1944200D01*
X5243800Y1939200D01*
X5249100Y1935100D01*
G01X5237100Y1890900D02*
X5317100D01*
X5301100Y1900900D01*
G01X5237100D02*
Y1880900D01*
G01X5270400Y1841700D02*
X5279800Y1835900D01*
X5285100Y1830900D01*
X5287800Y1824200D01*
X5285100Y1818400D01*
X5279800Y1814200D01*
X5271800Y1810900D01*
X5262400Y1810100D01*
X5254400Y1810900D01*
X5246400Y1814200D01*
X5239800Y1819200D01*
X5237100Y1825100D01*
X5239800Y1831700D01*
X5247800Y1837600D01*
X5259800Y1840900D01*
X5273100Y1841700D01*
X5290400Y1840100D01*
X5299800Y1837600D01*
X5309100Y1833400D01*
X5315800Y1827600D01*
X5317100Y1821700D01*
X5314400Y1815900D01*
X5307800Y1811700D01*
G01X4719300Y2023700D02*
X4723300Y2028700D01*
X4726000Y2034500D01*
Y2041200D01*
X4722000Y2048700D01*
X4715300Y2054500D01*
X4707300Y2058700D01*
X4694000Y2062000D01*
X4682000Y2062800D01*
X4670000Y2061200D01*
X4662000Y2058700D01*
X4654000Y2053700D01*
X4648700Y2047800D01*
X4646000Y2042000D01*
Y2036200D01*
X4648700Y2030300D01*
X4652700Y2025300D01*
X4658000Y2021200D01*
G01X4646000Y1977000D02*
X4726000D01*
X4710000Y1987000D01*
G01X4646000D02*
Y1967000D01*
G01Y1902000D02*
X4726000D01*
X4668700Y1932800D01*
Y1891200D01*
G01X5029400Y2608300D02*
Y2528300D01*
X5062800D01*
G01X5121100D02*
Y2608300D01*
X5090300Y2551000D01*
X5131900D01*
G01X4525800Y2461900D02*
Y2381900D01*
X4559200D01*
G01X4589200Y2397900D02*
X4594200Y2388600D01*
X4600800Y2383200D01*
X4608300Y2381900D01*
X4615000Y2383200D01*
X4621700Y2389900D01*
X4625800Y2397900D01*
X4626700Y2405900D01*
X4625000Y2415200D01*
X4619200Y2421900D01*
X4613300Y2424600D01*
X4605800D01*
G01X4613300D02*
X4618300Y2428600D01*
X4622500Y2435200D01*
X4624200Y2443200D01*
X4622500Y2451200D01*
X4618300Y2457900D01*
X4610800Y2461900D01*
X4603300Y2460600D01*
X4595800Y2455200D01*
G01X5063200Y2822600D02*
X5067200Y2827600D01*
X5069900Y2833400D01*
Y2840100D01*
X5065900Y2847600D01*
X5059200Y2853400D01*
X5051200Y2857600D01*
X5037900Y2860900D01*
X5025900Y2861700D01*
X5013900Y2860100D01*
X5005900Y2857600D01*
X4997900Y2852600D01*
X4992600Y2846700D01*
X4989900Y2840900D01*
Y2835100D01*
X4992600Y2829200D01*
X4996600Y2824200D01*
X5001900Y2820100D01*
G01X4989900Y2775900D02*
X5069900D01*
X5053900Y2785900D01*
G01X4989900D02*
Y2765900D01*
G01Y2712600D02*
X5007200Y2710900D01*
X5021900Y2708400D01*
X5035200Y2705100D01*
X5049900Y2700900D01*
X5069900Y2694200D01*
Y2727600D01*
G01X5469300Y1247000D02*
X5473500Y1239000D01*
X5478500Y1233700D01*
X5484300Y1231000D01*
X5491000Y1233700D01*
X5496000Y1239000D01*
X5501000Y1247000D01*
X5502700Y1257700D01*
Y1311000D01*
G01X5551000Y1231000D02*
Y1311000D01*
X5541000Y1295000D01*
G01Y1231000D02*
X5561000D01*
G01X5559700Y2465900D02*
X5554700Y2469900D01*
X5548900Y2472600D01*
X5542200D01*
X5534700Y2468600D01*
X5528900Y2461900D01*
X5524700Y2453900D01*
X5521400Y2440600D01*
X5520600Y2428600D01*
X5522200Y2416600D01*
X5524700Y2408600D01*
X5529700Y2400600D01*
X5535600Y2395300D01*
X5541400Y2392600D01*
X5547200D01*
X5553100Y2395300D01*
X5558100Y2399300D01*
X5562200Y2404600D01*
G01X5606400Y2392600D02*
Y2472600D01*
X5596400Y2456600D01*
G01Y2392600D02*
X5616400D01*
G01X5671400D02*
X5677200Y2393900D01*
X5683900Y2397900D01*
X5688100Y2404600D01*
X5689700Y2413900D01*
X5688100Y2423300D01*
X5683100Y2431300D01*
X5675600Y2435300D01*
X5667200D01*
X5662200Y2437900D01*
X5658100Y2444600D01*
X5656400Y2453900D01*
X5658900Y2463300D01*
X5664700Y2469900D01*
X5671400Y2472600D01*
X5678100Y2469900D01*
X5683900Y2463300D01*
X5686400Y2453900D01*
X5684700Y2444600D01*
X5680600Y2437900D01*
X5675600Y2435300D01*
X5667200D01*
X5659700Y2431300D01*
X5654700Y2423300D01*
X5653100Y2413900D01*
X5654700Y2404600D01*
X5658900Y2397900D01*
X5665600Y2393900D01*
X5671400Y2392600D01*
G54D12*
G01X1912200Y905900D02*
X774000D01*
G01X773000Y909000D02*
Y1048900D01*
G01X770900Y1256900D02*
Y1392100D01*
G01X1910100Y1390000D02*
X772000D01*
G01X1912200Y905900D02*
X774000D01*
G01X1913200Y906900D02*
Y1046900D01*
G01X1912200Y1254100D02*
Y1389000D01*
G01X1913200Y906900D02*
Y1046900D01*
G01X1912200Y1254100D02*
Y1389000D01*
G01X4067700Y757400D02*
X2929500D01*
G01X2928500Y760500D02*
Y900400D01*
G01X2926400Y1108400D02*
Y1243600D01*
G01X4065600Y1241500D02*
X2927500D01*
G01X4067700Y757400D02*
X2929500D01*
G01X4068700Y758400D02*
Y898400D01*
G01X4067700Y1105600D02*
Y1240500D01*
G01X4068700Y758400D02*
Y898400D01*
G01X4067700Y1105600D02*
Y1240500D01*
G54D13*
G01X660000Y2360000D02*
X960000D01*
Y1450000D01*
X660000D01*
Y2360000D01*
X700000D01*
G01X3595000Y2702500D02*
Y2152500D01*
X3045000D01*
Y2662500D01*
X3095000Y2712500D01*
X3595000D01*
Y2702500D01*
G01X5431000Y2201000D02*
X6271000D01*
Y1351000D01*
X5421000D01*
Y2201000D01*
X5431000D01*
G54D14*
G01X1198700Y606700D02*
Y873300D01*
G01X1701600Y606700D02*
X1198700D01*
G01Y873300D02*
X1701600D01*
G01X1277500Y1532800D02*
Y1824900D01*
G01X1441300Y1532800D02*
X1277500D01*
G01Y1824900D02*
X1441300D01*
G01X1047500Y1532800D02*
Y1824900D01*
G01X1211300Y1532800D02*
X1047500D01*
G01X1211300Y1824900D02*
Y1532800D01*
G01X1047500Y1824900D02*
X1211300D01*
G01X1134000Y2131800D02*
X1426100D01*
G01X1134000Y1968000D02*
Y2131800D01*
G01X1426100Y1968000D02*
X1134000D01*
G01X1426100Y2131800D02*
Y1968000D01*
G01X1134000Y2168100D02*
Y2331900D01*
G01X1426100Y2168100D02*
X1134000D01*
G01X1426100Y2331900D02*
Y2168100D01*
G01X1172800Y2848700D02*
Y3012500D01*
G01X1464900Y2848700D02*
X1172800D01*
G01X1134000Y2331900D02*
X1426100D01*
G01X1172800Y3012500D02*
X1464900D01*
G01X1701600Y873300D02*
Y606700D01*
G01X1917500Y582800D02*
Y874900D01*
G01X2081300Y582800D02*
X1917500D01*
G01X2081300Y874900D02*
Y582800D01*
G01X1727500D02*
Y874900D01*
G01X1891300Y582800D02*
X1727500D01*
G01X1891300Y874900D02*
Y582800D01*
G01X2087200Y1427500D02*
X1795100D01*
G01X2087200Y1591300D02*
Y1427500D01*
G01X1795100D02*
Y1591300D01*
G01X1472800Y1428700D02*
Y1592500D01*
G01X1764900Y1428700D02*
X1472800D01*
G01X1764900Y1592500D02*
Y1428700D01*
G01X1917500Y874900D02*
X2081300D01*
G01X1727500D02*
X1891300D01*
G01X1797200Y1657500D02*
X1505100D01*
G01X1797200Y1821300D02*
Y1657500D01*
G01X1505100Y1821300D02*
X1797200D01*
G01X1505100Y1657500D02*
Y1821300D01*
G01X2022500Y1917200D02*
Y1625100D01*
G01X1858700Y1917200D02*
X2022500D01*
G01X1858700Y1625100D02*
Y1917200D01*
G01X2022500Y1625100D02*
X1858700D01*
G01X1795100Y1591300D02*
X2087200D01*
G01X1472800Y1592500D02*
X1764900D01*
G01X1441300Y1824900D02*
Y1532800D01*
G01X1464900Y3012500D02*
Y2848700D01*
G01X2426700Y658400D02*
Y1161300D01*
G01X2693300Y658400D02*
X2426700D01*
G01X2693300Y1161300D02*
Y658400D01*
G01X2849900Y1485200D02*
Y1294800D01*
G01X2443500D02*
Y1485200D01*
G01X2849900Y1294800D02*
X2443500D01*
G01X2948200Y1333900D02*
Y1626000D01*
G01X3112000Y1333900D02*
X2948200D01*
G01X2426700Y1161300D02*
X2693300D01*
G01X2443500Y1485200D02*
X2849900D01*
G01X2777200Y1547500D02*
X2485100D01*
G01X2777200Y1711300D02*
Y1547500D01*
G01X2485100Y1711300D02*
X2777200D01*
G01X2485100Y1547500D02*
Y1711300D01*
G01X2867200Y2177500D02*
X2575100D01*
G01X2867200Y2341300D02*
Y2177500D01*
G01X2575100D02*
Y2341300D01*
G01X2948200Y1626000D02*
X3112000D01*
G01X2777200Y1757500D02*
X2485100D01*
G01X2777200Y1921300D02*
Y1757500D01*
G01X2485100Y1921300D02*
X2777200D01*
G01X2485100Y1757500D02*
Y1921300D01*
G01X2907200Y1967500D02*
X2615100D01*
G01X2907200Y2131300D02*
Y1967500D01*
G01X2615100Y2131300D02*
X2907200D01*
G01X2615100Y1967500D02*
Y2131300D01*
G01X2954700Y2047200D02*
X3118500D01*
G01X2954700Y1755100D02*
Y2047200D01*
G01X3118500Y1755100D02*
X2954700D01*
G01X2575100Y2341300D02*
X2867200D01*
G01X2652800Y2952500D02*
X2944900D01*
G01X2652800Y2788700D02*
Y2952500D01*
G01X2944900Y2788700D02*
X2652800D01*
G01X2944900Y2952500D02*
Y2788700D01*
G01X2857200Y2407500D02*
X2565100D01*
G01X2857200Y2571300D02*
Y2407500D01*
G01X2565100Y2571300D02*
X2857200D01*
G01X2565100Y2407500D02*
Y2571300D01*
G01X2937200Y2597500D02*
X2645100D01*
G01X2937200Y2761300D02*
Y2597500D01*
G01X2645100Y2761300D02*
X2937200D01*
G01X2645100Y2597500D02*
Y2761300D01*
G01X2807200Y2997500D02*
X2515100D01*
G01X2807200Y3161300D02*
Y2997500D01*
G01X2515100Y3161300D02*
X2807200D01*
G01X2515100Y2997500D02*
Y3161300D01*
G01X3112000Y1626000D02*
Y1333900D01*
G01X3867200Y1327500D02*
X3575100D01*
G01D02*
Y1491300D01*
G01X3436000Y1328100D02*
X3143900D01*
G01X3436000Y1491900D02*
Y1328100D01*
G01X3143900D02*
Y1491900D01*
G01X3118500Y2047200D02*
Y1755100D01*
G01X3575100Y1491300D02*
X3867200D01*
G01X3143900Y1491900D02*
X3436000D01*
G01X3512500Y1807200D02*
Y1515100D01*
G01X3348700Y1807200D02*
X3512500D01*
G01X3348700Y1515100D02*
Y1807200D01*
G01X3512500Y1515100D02*
X3348700D01*
G01X3238100Y2843900D02*
Y3136000D01*
G01X3401900Y2843900D02*
X3238100D01*
G01X3401900Y3136000D02*
Y2843900D01*
G01X3201900Y3136100D02*
Y2844000D01*
G01X3038100D02*
Y3136100D01*
G01X3201900Y2844000D02*
X3038100D01*
G01X3601900Y3136100D02*
Y2844000D01*
G01X3438100D02*
Y3136100D01*
G01X3601900Y2844000D02*
X3438100D01*
G01X3238100Y3136000D02*
X3401900D01*
G01X3038100Y3136100D02*
X3201900D01*
G01X3438100D02*
X3601900D01*
G01X3898200Y1333900D02*
Y1626000D01*
G01X4062000Y1333900D02*
X3898200D01*
G01X4062000Y1626000D02*
Y1333900D01*
G01X3867200Y1491300D02*
Y1327500D01*
G01X4288200Y2094000D02*
Y2386100D01*
G01X4452000Y2094000D02*
X4288200D01*
G01X4452000Y2386100D02*
Y2094000D01*
G01X3898200Y1626000D02*
X4062000D01*
G01X4582400Y1895900D02*
X4290300D01*
G01Y2059700D02*
X4582400D01*
G01X4290300Y1895900D02*
Y2059700D01*
G01X4772400Y2095900D02*
X4480300D01*
G01D02*
Y2259700D01*
G01X4037200Y2017500D02*
X3745100D01*
G01X4037200Y2181300D02*
Y2017500D01*
G01X3745100Y2181300D02*
X4037200D01*
G01X3745100Y2017500D02*
Y2181300D01*
G01X4037200Y2417500D02*
X3745100D01*
G01X4037200Y2581300D02*
Y2417500D01*
G01X3745100Y2581300D02*
X4037200D01*
G01X3745100Y2417500D02*
Y2581300D01*
G01X4037200Y2217500D02*
X3745100D01*
G01X4037200Y2381300D02*
Y2217500D01*
G01X3745100Y2381300D02*
X4037200D01*
G01X3745100Y2217500D02*
Y2381300D01*
G01X4767200Y2557500D02*
X4475100D01*
G01Y2721300D02*
X4767200D01*
G01X4475100Y2557500D02*
Y2721300D01*
G01X4288200Y2386100D02*
X4452000D01*
G01X4077500Y2252800D02*
Y2544900D01*
G01X4241300Y2252800D02*
X4077500D01*
G01X4241300Y2544900D02*
Y2252800D01*
G01X4077500Y2544900D02*
X4241300D01*
G01X4480300Y2259700D02*
X4772400D01*
G01X4447700Y2715600D02*
Y2423500D01*
G01X4283900Y2715600D02*
X4447700D01*
G01X4283900Y2423500D02*
Y2715600D01*
G01X4447700Y2423500D02*
X4283900D01*
G01X4037200Y2617500D02*
X3745100D01*
G01X4037200Y2781300D02*
Y2617500D01*
G01X3745100Y2781300D02*
X4037200D01*
G01X3745100Y2617500D02*
Y2781300D01*
G01X5087200Y1767500D02*
X4795100D01*
G01X5087200Y1931300D02*
Y1767500D01*
G01X4795100Y1931300D02*
X5087200D01*
G01X4795100Y1767500D02*
Y1931300D01*
G01X4962500Y2257200D02*
Y1965100D01*
G01X4798700D02*
Y2257200D01*
G01X4962500Y1965100D02*
X4798700D01*
G01X4582400Y2059700D02*
Y1895900D01*
G01X5192700Y2011200D02*
Y2303300D01*
G01X5356500Y2011200D02*
X5192700D01*
G01X4772400Y2259700D02*
Y2095900D01*
G01X4767200Y2721300D02*
Y2557500D01*
G01X4997500Y2202800D02*
Y2494900D01*
G01X5161300Y2202800D02*
X4997500D01*
G01X5161300Y2494900D02*
Y2202800D01*
G01X4997500Y2494900D02*
X5161300D01*
G01X4957200Y2327500D02*
X4665100D01*
G01X4957200Y2491300D02*
Y2327500D01*
G01X4665100Y2491300D02*
X4957200D01*
G01X4665100Y2327500D02*
Y2491300D01*
G01X4798700Y2257200D02*
X4962500D01*
G01X5486100Y2328200D02*
X5194000D01*
G01Y2492000D02*
X5486100D01*
G01X5194000Y2328200D02*
Y2492000D01*
G01X4957700Y2845600D02*
Y2553500D01*
G01X4793900Y2845600D02*
X4957700D01*
G01X4793900Y2553500D02*
Y2845600D01*
G01X4957700Y2553500D02*
X4793900D01*
G01X5192700Y2303300D02*
X5356500D01*
G01D02*
Y2011200D01*
G01X5486100Y2492000D02*
Y2328200D01*
M02*
