G04 ================== begin FILE IDENTIFICATION RECORD ==================*
G04 Layout Name:  c:/src/bsm-2/schematics/bsm-radio.brd*
G04 Film Name:    SilkScreenTOP*
G04 File Format:  Gerber RS274X*
G04 File Origin:  16.0-s004*
G04 Origin Date:  Mon Jan 30 17:24:18 2012*
G04 *
G04 Layer:  USER PART NUMBER/SILKSCREEN_TOP*
G04 Layer:  TOLERANCE/SILKSCREEN_TOP*
G04 Layer:  REF DES/SILKSCREEN_TOP*
G04 Layer:  PACKAGE GEOMETRY/SILKSCREEN_TOP*
G04 Layer:  DEVICE TYPE/SILKSCREEN_TOP*
G04 Layer:  COMPONENT VALUE/SILKSCREEN_TOP*
G04 *
G04 Offset:    (0.00 0.00)*
G04 Mirror:    No*
G04 Mode:      Positive*
G04 Rotation:  0*
G04 FullContactRelief:  No*
G04 UndefLineWidth:     0.00*
G04 ================== end FILE IDENTIFICATION RECORD ====================*
%FSLAX55Y55*MOIN*%
%IR0*IPPOS*OFA0.00000B0.00000*MIA0B0*SFA1.00000B1.00000*%
%ADD10C,.01*%
%ADD11C,.006*%
%ADD12C,.008*%
%ADD13C,.0039*%
%ADD14C,.0059*%
%ADD15C,.0079*%
%ADD16C,.0098*%
G75*
%LPD*%
G75*
G54D10*
G01X64620Y86080D02*
X64720D01*
X65620Y85190D01*
Y78880D01*
G01X67620Y110080D02*
Y87880D01*
X89720D01*
Y110080D01*
X67620D01*
G01X200800Y127650D02*
X200540Y127490D01*
G01D02*
X200300Y127320D01*
G01D02*
X200060Y127150D01*
G01D02*
X199830Y126990D01*
G01D02*
X199610Y126810D01*
G01D02*
X199410Y126640D01*
G01D02*
X199200Y126470D01*
G01D02*
X199020Y126280D01*
G01D02*
X198830Y126100D01*
G01D02*
X198670Y125920D01*
G01D02*
X198500Y125720D01*
G01D02*
X198350Y125540D01*
G01D02*
X198200Y125340D01*
G01D02*
X198070Y125160D01*
G01D02*
X197940Y124960D01*
G01D02*
X197830Y124770D01*
G01D02*
X197740Y124560D01*
G01D02*
X197650Y124360D01*
G01D02*
X197570Y124150D01*
G01D02*
X197500Y123960D01*
G01D02*
X197460Y123750D01*
G01D02*
X197430Y123540D01*
G01D02*
X197390Y123340D01*
G01D02*
X197370Y123130D01*
G01D02*
Y122910D01*
G01D02*
Y122690D01*
G01D02*
X197390Y122470D01*
G01D02*
X197430Y122250D01*
G01D02*
X197480Y122040D01*
G01D02*
X197500Y121930D01*
G01D02*
X197540Y121820D01*
G01D02*
X197610Y121600D01*
G01D02*
X197690Y121390D01*
G01D02*
X197780Y121180D01*
G01D02*
Y121300D01*
G01D02*
Y121490D01*
G01D02*
X197800Y121680D01*
G01D02*
X197830Y121880D01*
G01D02*
X197890Y122060D01*
G01D02*
X197940Y122260D01*
G01D02*
X198000Y122440D01*
G01D02*
X198090Y122630D01*
G01D02*
X198170Y122810D01*
G01D02*
X198280Y122990D01*
G01D02*
X198410Y123180D01*
G01D02*
X198520Y123350D01*
G01D02*
X198680Y123530D01*
G01D02*
X198810Y123700D01*
G01D02*
X198980Y123870D01*
G01D02*
X199150Y124040D01*
G01D02*
X199350Y124220D01*
G01D02*
X199540Y124380D01*
G01D02*
X199720Y124550D01*
G01D02*
X199940Y124710D01*
G01D02*
X200170Y124860D01*
G01D02*
X200410Y125020D01*
G01D02*
X200650Y125180D01*
G01D02*
X200910Y125330D01*
G01X200700Y121630D02*
X200610Y121450D01*
G01D02*
X200500Y121270D01*
G01D02*
X200410Y121070D01*
G01D02*
X200330Y120880D01*
G01D02*
X200260Y120670D01*
G01D02*
X200220Y120570D01*
G01D02*
X200200Y120460D01*
G01D02*
X200150Y120250D01*
G01D02*
X200110Y120030D01*
G01D02*
X200070Y119800D01*
G01D02*
X200040Y119570D01*
G01D02*
X200000Y119330D01*
G01D02*
Y119090D01*
G01D02*
Y118850D01*
G01D02*
Y118700D01*
G01D02*
Y118560D01*
G01D02*
X200020Y118420D01*
G01D02*
X200040Y118280D01*
G01D02*
X200060Y118160D01*
G01D02*
X200090Y118040D01*
G01D02*
X200110Y117920D01*
G01D02*
X200150Y117790D01*
G01D02*
X200190Y117680D01*
G01D02*
X200240Y117570D01*
G01D02*
X200280Y117460D01*
G01D02*
X200330Y117410D01*
G01D02*
X200350Y117350D01*
G01D02*
X200410Y117250D01*
G01D02*
X200460Y117170D01*
G01D02*
X200540Y117070D01*
G01D02*
X200610Y116990D01*
G01D02*
X200700Y116900D01*
G01D02*
X200780Y116830D01*
G01X215980Y131100D02*
X215020Y131090D01*
G01D02*
X214560Y131080D01*
G01D02*
X214070Y131060D01*
G01D02*
X213610Y131030D01*
G01D02*
X213150Y131010D01*
G01D02*
X212690Y130970D01*
G01D02*
X212240Y130930D01*
G01D02*
X211780Y130900D01*
G01D02*
X211330Y130850D01*
G01D02*
X210890Y130790D01*
G01D02*
X210460Y130740D01*
G01D02*
X210020Y130680D01*
G01D02*
X209570Y130600D01*
G01D02*
X209150Y130530D01*
G01D02*
X208740Y130460D01*
G01D02*
X208310Y130380D01*
G01D02*
X207910Y130300D01*
G01D02*
X207500Y130200D01*
G01D02*
X207110Y130110D01*
G01D02*
X206720Y130020D01*
G01D02*
X206330Y129920D01*
G01D02*
X205570Y129700D01*
G01D02*
X205220Y129590D01*
G01D02*
X204850Y129480D01*
G01D02*
X204480Y129350D01*
G01D02*
X204150Y129230D01*
G01D02*
X203810Y129100D01*
G01D02*
X203460Y128980D01*
G01D02*
X202830Y128710D01*
G01D02*
X202500Y128560D01*
G01D02*
X202200Y128410D01*
G01D02*
X201910Y128270D01*
G01D02*
X201630Y128120D01*
G01D02*
X201350Y127970D01*
G01D02*
X201070Y127810D01*
G01D02*
X200800Y127650D01*
G01X200910Y125330D02*
X201170Y125490D01*
G01D02*
X201440Y125640D01*
G01D02*
X201720Y125780D01*
G01D02*
X202000Y125920D01*
G01D02*
X202310Y126060D01*
G01D02*
X202610Y126200D01*
G01D02*
X202940Y126330D01*
G01D02*
X203240Y126470D01*
G01D02*
X203590Y126590D01*
G01D02*
X203930Y126720D01*
G01D02*
X204280Y126850D01*
G01D02*
X204630Y126960D01*
G01D02*
X205000Y127080D01*
G01D02*
X205350Y127190D01*
G01D02*
X205740Y127300D01*
G01D02*
X206520Y127510D01*
G01D02*
X206930Y127610D01*
G01D02*
X207330Y127700D01*
G01D02*
X208150Y127890D01*
G01D02*
X208570Y127970D01*
G01D02*
X209000Y128050D01*
G01D02*
X209440Y128130D01*
G01D02*
X209890Y128200D01*
G01D02*
X210330Y128270D01*
G01D02*
X210780Y128330D01*
G01D02*
X211700Y128450D01*
G01D02*
X212170Y128500D01*
G01D02*
X212650Y128550D01*
G01D02*
X213130Y128600D01*
G01D02*
X213610Y128630D01*
G01D02*
X214090Y128670D01*
G01D02*
X214570Y128710D01*
G01D02*
X215070Y128730D01*
G01D02*
X215570Y128740D01*
G01D02*
X216090Y128770D01*
G01D02*
X216570Y128780D01*
G01D02*
X217090D01*
G01D02*
X217590Y128790D01*
G01D02*
X218200Y128780D01*
G01D02*
X218800D01*
G01D02*
X219390Y128760D01*
G01D02*
X219980Y128730D01*
G01D02*
X220570Y128710D01*
G01D02*
X221150Y128670D01*
G01D02*
X221720Y128620D01*
G01D02*
X222280Y128570D01*
G01D02*
X222830Y128520D01*
G01D02*
X223390Y128460D01*
G01D02*
X223940Y128400D01*
G01D02*
X224480Y128330D01*
G01D02*
X225020Y128240D01*
G01D02*
X225540Y128170D01*
G01D02*
X226060Y128070D01*
G01D02*
X226570Y127980D01*
G01D02*
X227070Y127890D01*
G01D02*
X227540Y127780D01*
G01D02*
X228040Y127670D01*
G01D02*
X228500Y127560D01*
G01D02*
X228980Y127430D01*
G01D02*
X229430Y127310D01*
G01D02*
X229870Y127180D01*
G01D02*
X230310Y127040D01*
G01D02*
X230740Y126910D01*
G01X230890Y127830D02*
X230670Y127950D01*
G01D02*
X230220Y128190D01*
G01D02*
X230000Y128300D01*
G01D02*
X229780Y128410D01*
G01D02*
X229310Y128630D01*
G01D02*
X228810Y128850D01*
G01D02*
X228300Y129050D01*
G01D02*
X227780Y129260D01*
G01D02*
X227220Y129440D01*
G01D02*
X226680Y129620D01*
G01D02*
X226110Y129790D01*
G01D02*
X225500Y129950D01*
G01D02*
X224910Y130100D01*
G01D02*
X224280Y130250D01*
G01D02*
X223650Y130380D01*
G01D02*
X223000Y130490D01*
G01D02*
X222350Y130610D01*
G01D02*
X222020Y130660D01*
G01D02*
X221690Y130710D01*
G01D02*
X221000Y130800D01*
G01D02*
X220670Y130830D01*
G01D02*
X220310Y130880D01*
G01D02*
X219610Y130940D01*
G01D02*
X218910Y131010D01*
G01D02*
X218200Y131040D01*
G01D02*
X217460Y131080D01*
G01D02*
X217110Y131090D01*
G01D02*
X216720D01*
G01D02*
X215980Y131100D01*
G01X205910Y126110D02*
X205280Y122610D01*
G01D02*
X205220Y122710D01*
G01D02*
X205130Y122800D01*
G01D02*
X205070Y122880D01*
G01D02*
X205000Y122960D01*
G01D02*
X204960Y123000D01*
G01D02*
X204910Y123030D01*
G01D02*
X204830Y123100D01*
G01D02*
X204740Y123160D01*
G01D02*
X204650Y123210D01*
G01D02*
X204560Y123260D01*
G01D02*
X204460Y123300D01*
G01D02*
X204370Y123340D01*
G01D02*
X204260Y123370D01*
G01D02*
X204150Y123380D01*
G01D02*
X204040Y123410D01*
G01D02*
X203910D01*
G01D02*
X203810Y123420D01*
G01D02*
X203590Y123410D01*
G01D02*
X203390Y123400D01*
G01D02*
X203200Y123370D01*
G01D02*
X203000Y123340D01*
G01D02*
X202810Y123290D01*
G01D02*
X202630Y123240D01*
G01D02*
X202540Y123200D01*
G01D02*
X202460Y123180D01*
G01D02*
X202280Y123100D01*
G01D02*
X202110Y123020D01*
G01D02*
X201940Y122920D01*
G01D02*
X201800Y122810D01*
G01D02*
X201630Y122700D01*
G01D02*
X201480Y122580D01*
G01D02*
X201350Y122440D01*
G01D02*
X201200Y122300D01*
G01D02*
X201070Y122140D01*
G01D02*
X200930Y121980D01*
G01D02*
X200810Y121810D01*
G01D02*
X200700Y121630D01*
G01X200780Y116830D02*
X200870Y116750D01*
G01D02*
X200960Y116690D01*
G01D02*
X201070Y116630D01*
G01D02*
X201170Y116570D01*
G01D02*
X201260Y116520D01*
G01D02*
X201370Y116470D01*
G01D02*
X201480Y116440D01*
G01D02*
X201590Y116400D01*
G01D02*
X201700Y116370D01*
G01D02*
X201830Y116350D01*
G01D02*
X201940Y116320D01*
G01D02*
X202090Y116310D01*
G01D02*
X202350Y116300D01*
G01D02*
X202500D01*
G01D02*
X202670Y116310D01*
G01D02*
X202810Y116340D01*
G01D02*
X202960Y116360D01*
G01D02*
X203110Y116390D01*
G01D02*
X203240Y116440D01*
G01D02*
X203370Y116470D01*
G01D02*
X203500Y116530D01*
G01D02*
X203630Y116590D01*
G01D02*
X203740Y116660D01*
G01D02*
X203800Y116690D01*
G01D02*
X203850Y116730D01*
G01D02*
X203960Y116810D01*
G01D02*
X204070Y116900D01*
G01D02*
X204190Y117000D01*
G01D02*
X204280Y117110D01*
G01D02*
X204370Y117220D01*
G01D02*
X204220Y116420D01*
G01D02*
X205410D01*
G01D02*
X207090Y126110D01*
G01D02*
X205910D01*
G01X229610D02*
X228390Y119870D01*
G01D02*
X228330Y119490D01*
G01D02*
X228260Y119150D01*
G01D02*
X228170Y118560D01*
G01D02*
X228130Y118320D01*
G01D02*
X228110Y118120D01*
G01D02*
X228070Y117950D01*
G01D02*
Y117820D01*
G01D02*
Y117720D01*
G01D02*
X228090Y117630D01*
G01D02*
X228110Y117550D01*
G01D02*
Y117460D01*
G01D02*
X228130Y117380D01*
G01D02*
X228150Y117300D01*
G01D02*
X228170Y117220D01*
G01D02*
X228220Y117140D01*
G01D02*
X228240Y117080D01*
G01D02*
X228280Y117010D01*
G01D02*
X228330Y116950D01*
G01D02*
X228370Y116890D01*
G01D02*
X228410Y116830D01*
G01D02*
X228460Y116780D01*
G01D02*
X228520Y116720D01*
G01D02*
X228590Y116670D01*
G01D02*
X228720Y116580D01*
G01D02*
X228870Y116510D01*
G01D02*
X229040Y116440D01*
G01D02*
X229130Y116410D01*
G01D02*
X229240Y116390D01*
G01D02*
X229330Y116360D01*
G01D02*
X229440Y116340D01*
G01D02*
X229650Y116310D01*
G01D02*
X229760Y116300D01*
G01D02*
X229890D01*
G01D02*
X230130Y116290D01*
G01D02*
X230280Y117180D01*
G01D02*
X230150D01*
G01D02*
X230060Y117190D01*
G01D02*
X229960Y117210D01*
G01D02*
X229870Y117230D01*
G01D02*
X229780Y117250D01*
G01D02*
X229720Y117290D01*
G01D02*
X229650Y117340D01*
G01D02*
X229590Y117380D01*
G01D02*
X229560Y117400D01*
G01D02*
X229540Y117440D01*
G01D02*
X229480Y117490D01*
G01D02*
X229460Y117560D01*
G01D02*
X229410Y117630D01*
G01D02*
X229390Y117710D01*
G01D02*
X229370Y117790D01*
G01D02*
Y117880D01*
G01D02*
X229350Y117980D01*
G01D02*
X229370Y118110D01*
G01D02*
Y118290D01*
G01D02*
X229410Y118510D01*
G01D02*
X229460Y118770D01*
G01D02*
X229560Y119430D01*
G01D02*
X229720Y120260D01*
G01D02*
X230890Y126110D01*
G01D02*
X229610D01*
G01X211310Y123430D02*
X211090Y123420D01*
G01D02*
X210910Y123410D01*
G01D02*
X210700Y123380D01*
G01D02*
X210500Y123360D01*
G01D02*
X210310Y123310D01*
G01D02*
X210130Y123260D01*
G01D02*
X209940Y123200D01*
G01D02*
X209780Y123130D01*
G01D02*
X209610Y123050D01*
G01D02*
X209440Y122960D01*
G01D02*
X209260Y122860D01*
G01D02*
X209110Y122760D01*
G01D02*
X208960Y122640D01*
G01D02*
X208810Y122520D01*
G01D02*
X208650Y122370D01*
G01D02*
X208520Y122230D01*
G01D02*
X208390Y122080D01*
G01D02*
X208260Y121920D01*
G01D02*
X208150Y121760D01*
G01D02*
X208040Y121600D01*
G01D02*
X208000Y121510D01*
G01D02*
X207940Y121430D01*
G01D02*
X207850Y121240D01*
G01D02*
X207760Y121070D01*
G01D02*
X207690Y120890D01*
G01D02*
X207630Y120700D01*
G01D02*
X207570Y120510D01*
G01D02*
X207520Y120310D01*
G01D02*
X207480Y120120D01*
G01D02*
X207460Y119910D01*
G01D02*
X207440Y119700D01*
G01D02*
X207430Y119490D01*
G01D02*
Y119270D01*
G01D02*
Y119090D01*
G01D02*
Y118910D01*
G01D02*
X207440Y118740D01*
G01D02*
X207460Y118580D01*
G01D02*
X207480Y118420D01*
G01D02*
X207500Y118260D01*
G01D02*
X207540Y118110D01*
G01D02*
X207570Y117960D01*
G01D02*
X207670Y117700D01*
G01D02*
X207720Y117570D01*
G01D02*
X207780Y117450D01*
G01D02*
X207850Y117340D01*
G01D02*
X207910Y117230D01*
G01D02*
X208000Y117130D01*
G01D02*
X208070Y117030D01*
G01D02*
X208170Y116950D01*
G01D02*
X208240Y116860D01*
G01D02*
X208350Y116780D01*
G01D02*
X208440Y116700D01*
G01D02*
X208540Y116640D01*
G01D02*
X208650Y116580D01*
G01D02*
X208780Y116520D01*
G01D02*
X208890Y116470D01*
G01D02*
X209020Y116440D01*
G01D02*
X209150Y116400D01*
G01D02*
X209280Y116360D01*
G01D02*
X209440Y116340D01*
G01D02*
X209570Y116310D01*
G01D02*
X209720Y116300D01*
G01D02*
X209890Y116290D01*
G01D02*
X210060D01*
G01D02*
X210240D01*
G01D02*
X210460Y116310D01*
G01D02*
X210680Y116340D01*
G01D02*
X210890Y116370D01*
G01D02*
X211130Y116420D01*
G01D02*
X211370Y116480D01*
G01D02*
X211610Y116550D01*
G01D02*
X211850Y116630D01*
G01D02*
X211980Y117880D01*
G01D02*
X211780Y117740D01*
G01D02*
X211590Y117630D01*
G01D02*
X211500Y117590D01*
G01D02*
X211410Y117540D01*
G01D02*
X211310Y117490D01*
G01D02*
X211220Y117450D01*
G01D02*
X211130Y117430D01*
G01D02*
X211040Y117390D01*
G01D02*
X210850Y117350D01*
G01D02*
X210650Y117330D01*
G01D02*
X210460Y117320D01*
G01D02*
X210350D01*
G01D02*
X210260D01*
G01D02*
X210070Y117340D01*
G01D02*
X209980Y117360D01*
G01D02*
X209890Y117380D01*
G01D02*
X209800Y117400D01*
G01D02*
X209720Y117430D01*
G01D02*
X209630Y117460D01*
G01D02*
X209560Y117490D01*
G01D02*
X209410Y117570D01*
G01D02*
X209330Y117620D01*
G01D02*
X209280Y117670D01*
G01D02*
X209220Y117720D01*
G01D02*
X209150Y117770D01*
G01D02*
X209090Y117830D01*
G01D02*
X209040Y117890D01*
G01D02*
X208980Y117950D01*
G01D02*
X208940Y118030D01*
G01D02*
X208890Y118100D01*
G01D02*
X208870Y118170D01*
G01D02*
X208830Y118250D01*
G01D02*
X208810Y118330D01*
G01D02*
X208740Y118500D01*
G01D02*
Y118590D01*
G01D02*
X208700Y118670D01*
G01D02*
X208690Y118870D01*
G01D02*
Y119080D01*
G01D02*
Y119220D01*
G01D02*
X208700Y119370D01*
G01D02*
Y119520D01*
G01D02*
X208740Y119680D01*
G01D02*
X208810Y119630D01*
G01D02*
X208890Y119590D01*
G01D02*
X209070Y119520D01*
G01D02*
X209260Y119460D01*
G01D02*
X209440Y119410D01*
G01D02*
X209630Y119370D01*
G01D02*
X209740Y119360D01*
G01D02*
X209850Y119350D01*
G01D02*
X210060Y119330D01*
G01D02*
X210280Y119320D01*
G01D02*
X210460Y119330D01*
G01D02*
X210630D01*
G01D02*
X210780Y119350D01*
G01D02*
X210940Y119370D01*
G01D02*
X211090Y119400D01*
G01D02*
X211240Y119420D01*
G01D02*
X211390Y119460D01*
G01D02*
X211540Y119490D01*
G01D02*
X211700Y119530D01*
G01D02*
X211830Y119580D01*
G01D02*
X211960Y119630D01*
G01D02*
X212090Y119690D01*
G01D02*
X212220Y119750D01*
G01D02*
X212350Y119820D01*
G01D02*
X212460Y119900D01*
G01D02*
X212590Y119970D01*
G01D02*
X212700Y120060D01*
G01D02*
X212810Y120140D01*
G01D02*
X212910Y120240D01*
G01D02*
X213000Y120330D01*
G01D02*
X213090Y120420D01*
G01D02*
X213150Y120530D01*
G01D02*
X213240Y120630D01*
G01D02*
X213300Y120740D01*
G01D02*
X213350Y120850D01*
G01D02*
X213410Y120970D01*
G01D02*
X213440Y121100D01*
G01D02*
X213480Y121220D01*
G01D02*
X213500Y121340D01*
G01D02*
X213520Y121480D01*
G01D02*
Y121610D01*
G01D02*
X213540Y121740D01*
G01D02*
Y121840D01*
G01D02*
X213520Y121940D01*
G01D02*
X213500Y122120D01*
G01D02*
X213440Y122310D01*
G01D02*
X213410Y122380D01*
G01D02*
X213370Y122470D01*
G01D02*
X213350Y122540D01*
G01D02*
X213300Y122610D01*
G01D02*
X213240Y122690D01*
G01D02*
X213200Y122750D01*
G01D02*
X213130Y122820D01*
G01D02*
X213070Y122880D01*
G01D02*
X213000Y122930D01*
G01D02*
X212930Y122990D01*
G01D02*
X212850Y123040D01*
G01D02*
X212760Y123090D01*
G01D02*
X212590Y123190D01*
G01D02*
X212500Y123230D01*
G01D02*
X212410Y123260D01*
G01D02*
X212220Y123320D01*
G01D02*
X212110Y123350D01*
G01D02*
X212000Y123370D01*
G01D02*
X211780Y123410D01*
G01D02*
X211680Y123420D01*
G01D02*
X211560D01*
G01D02*
X211310Y123430D01*
G01D02*
X211260Y122410D01*
G01D02*
X211390D01*
G01D02*
X211500Y122390D01*
G01D02*
X211610Y122380D01*
G01D02*
X211720Y122360D01*
G01D02*
X211830Y122330D01*
G01D02*
X211910Y122300D01*
G01D02*
X212000Y122260D01*
G01D02*
X212070Y122210D01*
G01D02*
X212090Y122190D01*
G01D02*
X212130Y122150D01*
G01D02*
X212170Y122100D01*
G01D02*
X212220Y122030D01*
G01D02*
X212260Y121970D01*
G01D02*
X212300Y121880D01*
G01D02*
X212310Y121790D01*
G01D02*
X212330Y121710D01*
G01D02*
Y121610D01*
G01D02*
Y121540D01*
G01D02*
Y121460D01*
G01D02*
X212310Y121390D01*
G01D02*
X212300Y121320D01*
G01D02*
X212280Y121260D01*
G01D02*
X212240Y121180D01*
G01D02*
X212220Y121120D01*
G01D02*
X212170Y121060D01*
G01D02*
X212130Y121010D01*
G01D02*
X212090Y120950D01*
G01D02*
X212020Y120900D01*
G01D02*
X211980Y120850D01*
G01D02*
X211930Y120800D01*
G01D02*
X211850Y120750D01*
G01D02*
X211700Y120670D01*
G01D02*
X211540Y120580D01*
G01D02*
X211370Y120520D01*
G01D02*
X211190Y120470D01*
G01D02*
X211090Y120450D01*
G01D02*
X210980Y120420D01*
G01D02*
X210780Y120390D01*
G01D02*
X210540Y120360D01*
G01D02*
X210310Y120350D01*
G01D02*
X210090Y120340D01*
G01D02*
X209910D01*
G01D02*
X209760Y120350D01*
G01D02*
X209610Y120370D01*
G01D02*
X209480Y120400D01*
G01D02*
X209330Y120420D01*
G01D02*
X209200Y120460D01*
G01D02*
X209070Y120510D01*
G01D02*
X208940Y120560D01*
G01D02*
X209040Y120780D01*
G01D02*
X209130Y120990D01*
G01D02*
X209170Y121080D01*
G01D02*
X209220Y121180D01*
G01D02*
X209330Y121370D01*
G01D02*
X209460Y121540D01*
G01D02*
X209520Y121610D01*
G01D02*
X209570Y121680D01*
G01D02*
X209630Y121760D01*
G01D02*
X209720Y121820D01*
G01D02*
X209850Y121940D01*
G01D02*
X210000Y122050D01*
G01D02*
X210070Y122100D01*
G01D02*
X210170Y122150D01*
G01D02*
X210310Y122220D01*
G01D02*
X210410Y122260D01*
G01D02*
X210480Y122280D01*
G01D02*
X210570Y122320D01*
G01D02*
X210680Y122340D01*
G01D02*
X210760Y122360D01*
G01D02*
X210850Y122380D01*
G01D02*
X211040Y122390D01*
G01D02*
X211260Y122410D01*
G01X224700Y123430D02*
X224500Y123420D01*
G01D02*
X224300Y123410D01*
G01D02*
X224110Y123380D01*
G01D02*
X223910Y123360D01*
G01D02*
X223720Y123310D01*
G01D02*
X223540Y123260D01*
G01D02*
X223350Y123200D01*
G01D02*
X223170Y123130D01*
G01D02*
X223000Y123050D01*
G01D02*
X222830Y122960D01*
G01D02*
X222670Y122860D01*
G01D02*
X222520Y122760D01*
G01D02*
X222350Y122640D01*
G01D02*
X222200Y122520D01*
G01D02*
X222070Y122370D01*
G01D02*
X221910Y122230D01*
G01D02*
X221780Y122080D01*
G01D02*
X221670Y121920D01*
G01D02*
X221540Y121760D01*
G01D02*
X221440Y121600D01*
G01D02*
X221390Y121510D01*
G01D02*
X221330Y121430D01*
G01D02*
X221240Y121240D01*
G01D02*
X221170Y121070D01*
G01D02*
X221090Y120890D01*
G01D02*
X221020Y120700D01*
G01D02*
X220980Y120510D01*
G01D02*
X220930Y120310D01*
G01D02*
X220890Y120120D01*
G01D02*
X220850Y119910D01*
G01D02*
X220830Y119700D01*
G01D02*
X220810Y119490D01*
G01D02*
Y119270D01*
G01D02*
Y119090D01*
G01D02*
X220830Y118910D01*
G01D02*
Y118740D01*
G01D02*
X220850Y118580D01*
G01D02*
X220870Y118420D01*
G01D02*
X220890Y118260D01*
G01D02*
X220940Y118110D01*
G01D02*
X220980Y117960D01*
G01D02*
X221070Y117700D01*
G01D02*
X221110Y117570D01*
G01D02*
X221170Y117450D01*
G01D02*
X221240Y117340D01*
G01D02*
X221310Y117230D01*
G01D02*
X221390Y117130D01*
G01D02*
X221460Y117030D01*
G01D02*
X221560Y116950D01*
G01D02*
X221650Y116860D01*
G01D02*
X221740Y116780D01*
G01D02*
X221850Y116700D01*
G01D02*
X221940Y116640D01*
G01D02*
X222060Y116580D01*
G01D02*
X222170Y116520D01*
G01D02*
X222300Y116470D01*
G01D02*
X222410Y116440D01*
G01D02*
X222540Y116400D01*
G01D02*
X222690Y116360D01*
G01D02*
X222830Y116340D01*
G01D02*
X222980Y116310D01*
G01D02*
X223130Y116300D01*
G01D02*
X223280Y116290D01*
G01D02*
X223440D01*
G01D02*
X223650D01*
G01D02*
X223850Y116310D01*
G01D02*
X224070Y116340D01*
G01D02*
X224280Y116370D01*
G01D02*
X224520Y116420D01*
G01D02*
X224760Y116480D01*
G01D02*
X225000Y116550D01*
G01D02*
X225260Y116630D01*
G01D02*
X225370Y117880D01*
G01D02*
X225170Y117740D01*
G01D02*
X225000Y117630D01*
G01D02*
X224910Y117590D01*
G01D02*
X224810Y117540D01*
G01D02*
X224700Y117490D01*
G01D02*
X224610Y117450D01*
G01D02*
X224520Y117430D01*
G01D02*
X224430Y117390D01*
G01D02*
X224240Y117350D01*
G01D02*
X224060Y117330D01*
G01D02*
X223850Y117320D01*
G01D02*
X223760D01*
G01D02*
X223650D01*
G01D02*
X223460Y117340D01*
G01D02*
X223370Y117360D01*
G01D02*
X223280Y117380D01*
G01D02*
X223200Y117400D01*
G01D02*
X223110Y117430D01*
G01D02*
X223040Y117460D01*
G01D02*
X222940Y117490D01*
G01D02*
X222810Y117570D01*
G01D02*
X222720Y117620D01*
G01D02*
X222670Y117670D01*
G01D02*
X222610Y117720D01*
G01D02*
X222540Y117770D01*
G01D02*
X222480Y117830D01*
G01D02*
X222440Y117890D01*
G01D02*
X222390Y117950D01*
G01D02*
X222350Y118030D01*
G01D02*
X222300Y118100D01*
G01D02*
X222260Y118170D01*
G01D02*
X222220Y118250D01*
G01D02*
X222200Y118330D01*
G01D02*
X222150Y118500D01*
G01D02*
X222130Y118590D01*
G01D02*
X222110Y118670D01*
G01D02*
X222090Y118870D01*
G01D02*
X222070Y119080D01*
G01D02*
Y119220D01*
G01D02*
X222090Y119370D01*
G01D02*
X222110Y119520D01*
G01D02*
X222130Y119680D01*
G01D02*
X222200Y119630D01*
G01D02*
X222300Y119590D01*
G01D02*
X222460Y119520D01*
G01D02*
X222650Y119460D01*
G01D02*
X222830Y119410D01*
G01D02*
X223040Y119370D01*
G01D02*
X223130Y119360D01*
G01D02*
X223240Y119350D01*
G01D02*
X223460Y119330D01*
G01D02*
X223670Y119320D01*
G01D02*
X224020Y119330D01*
G01D02*
X224170Y119350D01*
G01D02*
X224330Y119370D01*
G01D02*
X224480Y119400D01*
G01D02*
X224650Y119420D01*
G01D02*
X224800Y119460D01*
G01D02*
X224940Y119490D01*
G01D02*
X225090Y119530D01*
G01D02*
X225220Y119580D01*
G01D02*
X225370Y119630D01*
G01D02*
X225480Y119690D01*
G01D02*
X225610Y119750D01*
G01D02*
X225740Y119820D01*
G01D02*
X225870Y119900D01*
G01D02*
X225980Y119970D01*
G01D02*
X226110Y120060D01*
G01D02*
X226220Y120140D01*
G01D02*
X226310Y120240D01*
G01D02*
X226390Y120330D01*
G01D02*
X226480Y120420D01*
G01D02*
X226570Y120530D01*
G01D02*
X226630Y120630D01*
G01D02*
X226700Y120740D01*
G01D02*
X226740Y120850D01*
G01D02*
X226800Y120970D01*
G01D02*
X226830Y121100D01*
G01D02*
X226870Y121220D01*
G01D02*
X226890Y121340D01*
G01D02*
X226910Y121480D01*
G01D02*
X226930Y121610D01*
G01D02*
Y121740D01*
G01D02*
Y121840D01*
G01D02*
X226910Y121940D01*
G01D02*
X226890Y122120D01*
G01D02*
X226850Y122310D01*
G01D02*
X226810Y122380D01*
G01D02*
X226780Y122470D01*
G01D02*
X226740Y122540D01*
G01D02*
X226700Y122610D01*
G01D02*
X226630Y122690D01*
G01D02*
X226590Y122750D01*
G01D02*
X226520Y122820D01*
G01D02*
X226460Y122880D01*
G01D02*
X226390Y122930D01*
G01D02*
X226330Y122990D01*
G01D02*
X226240Y123040D01*
G01D02*
X226170Y123090D01*
G01D02*
X226000Y123190D01*
G01D02*
X225910Y123230D01*
G01D02*
X225810Y123260D01*
G01D02*
X225610Y123320D01*
G01D02*
X225500Y123350D01*
G01D02*
X225410Y123370D01*
G01D02*
X225170Y123410D01*
G01D02*
X225070Y123420D01*
G01D02*
X224940D01*
G01D02*
X224700Y123430D01*
G01D02*
X224650Y122410D01*
G01D02*
X224780D01*
G01D02*
X224910Y122390D01*
G01D02*
X225020Y122380D01*
G01D02*
X225110Y122360D01*
G01D02*
X225220Y122330D01*
G01D02*
X225310Y122300D01*
G01D02*
X225390Y122260D01*
G01D02*
X225460Y122210D01*
G01D02*
X225500Y122190D01*
G01D02*
X225520Y122150D01*
G01D02*
X225590Y122100D01*
G01D02*
X225610Y122030D01*
G01D02*
X225670Y121970D01*
G01D02*
X225690Y121880D01*
G01D02*
X225720Y121790D01*
G01D02*
Y121710D01*
G01D02*
Y121610D01*
G01D02*
Y121540D01*
G01D02*
Y121460D01*
G01D02*
X225700Y121390D01*
G01D02*
X225690Y121320D01*
G01D02*
X225670Y121260D01*
G01D02*
X225650Y121180D01*
G01D02*
X225610Y121120D01*
G01D02*
X225570Y121060D01*
G01D02*
X225540Y121010D01*
G01D02*
X225480Y120950D01*
G01D02*
X225440Y120900D01*
G01D02*
X225370Y120850D01*
G01D02*
X225310Y120800D01*
G01D02*
X225240Y120750D01*
G01D02*
X225090Y120670D01*
G01D02*
X224940Y120580D01*
G01D02*
X224760Y120520D01*
G01D02*
X224570Y120470D01*
G01D02*
X224480Y120450D01*
G01D02*
X224370Y120420D01*
G01D02*
X224170Y120390D01*
G01D02*
X223960Y120360D01*
G01D02*
X223720Y120350D01*
G01D02*
X223480Y120340D01*
G01D02*
X223330D01*
G01D02*
X223170Y120350D01*
G01D02*
X223000Y120370D01*
G01D02*
X222870Y120400D01*
G01D02*
X222720Y120420D01*
G01D02*
X222590Y120460D01*
G01D02*
X222460Y120510D01*
G01D02*
X222350Y120560D01*
G01D02*
X222430Y120780D01*
G01D02*
X222520Y120990D01*
G01D02*
X222570Y121080D01*
G01D02*
X222630Y121180D01*
G01D02*
X222720Y121370D01*
G01D02*
X222850Y121540D01*
G01D02*
X222910Y121610D01*
G01D02*
X222980Y121680D01*
G01D02*
X223040Y121760D01*
G01D02*
X223110Y121820D01*
G01D02*
X223260Y121940D01*
G01D02*
X223390Y122050D01*
G01D02*
X223460Y122100D01*
G01D02*
X223560Y122150D01*
G01D02*
X223720Y122220D01*
G01D02*
X223800Y122260D01*
G01D02*
X223890Y122280D01*
G01D02*
X223980Y122320D01*
G01D02*
X224070Y122340D01*
G01D02*
X224170Y122360D01*
G01D02*
X224240Y122380D01*
G01D02*
X224440Y122390D01*
G01D02*
X224650Y122410D01*
G01X214390Y123310D02*
X216370Y116290D01*
G01D02*
X216680D01*
G01D02*
X220850Y123310D01*
G01D02*
X219460D01*
G01D02*
X216870Y118580D01*
G01D02*
X215650Y123310D01*
G01D02*
X214390D01*
G01X203760Y122390D02*
X203910D01*
G01D02*
X204040Y122380D01*
G01D02*
X204130Y122370D01*
G01D02*
X204190Y122340D01*
G01D02*
X204260Y122320D01*
G01D02*
X204330Y122300D01*
G01D02*
X204440Y122220D01*
G01D02*
X204520Y122170D01*
G01D02*
X204590Y122120D01*
G01D02*
X204630Y122080D01*
G01D02*
X204700Y122010D01*
G01D02*
X204740Y121950D01*
G01D02*
X204800Y121890D01*
G01D02*
X204850Y121830D01*
G01D02*
X204890Y121760D01*
G01D02*
X204960Y121620D01*
G01D02*
X205020Y121510D01*
G01D02*
X205060Y121440D01*
G01D02*
Y121410D01*
G01D02*
Y121390D01*
G01D02*
X204780Y119680D01*
G01D02*
X204760Y119540D01*
G01D02*
X204720Y119420D01*
G01D02*
X204700Y119290D01*
G01D02*
X204670Y119180D01*
G01D02*
X204590Y118940D01*
G01D02*
X204500Y118710D01*
G01D02*
X204460Y118610D01*
G01D02*
X204410Y118500D01*
G01D02*
X204350Y118400D01*
G01D02*
X204300Y118310D01*
G01D02*
X204220Y118220D01*
G01D02*
X204170Y118120D01*
G01D02*
X204020Y117950D01*
G01D02*
X203870Y117790D01*
G01D02*
X203810Y117730D01*
G01D02*
X203740Y117660D01*
G01D02*
X203650Y117600D01*
G01D02*
X203590Y117550D01*
G01D02*
X203500Y117500D01*
G01D02*
X203430Y117450D01*
G01D02*
X203280Y117380D01*
G01D02*
X203190Y117350D01*
G01D02*
X203110Y117330D01*
G01D02*
X203020Y117320D01*
G01D02*
X202940Y117300D01*
G01D02*
X202780Y117290D01*
G01D02*
X202690D01*
G01D02*
X202610D01*
G01D02*
X202440Y117320D01*
G01D02*
X202370Y117330D01*
G01D02*
X202280Y117350D01*
G01D02*
X202200Y117380D01*
G01D02*
X202130Y117400D01*
G01D02*
X202070Y117430D01*
G01D02*
X202000Y117460D01*
G01D02*
X201870Y117550D01*
G01D02*
X201830Y117590D01*
G01D02*
X201760Y117630D01*
G01D02*
X201670Y117740D01*
G01D02*
X201630Y117810D01*
G01D02*
X201590Y117870D01*
G01D02*
X201520Y118000D01*
G01D02*
X201480Y118070D01*
G01D02*
X201440Y118150D01*
G01D02*
X201390Y118310D01*
G01D02*
X201350Y118490D01*
G01D02*
X201310Y118690D01*
G01D02*
Y118780D01*
G01D02*
Y118880D01*
G01D02*
Y119100D01*
G01D02*
Y119290D01*
G01D02*
Y119460D01*
G01D02*
X201330Y119630D01*
G01D02*
X201350Y119800D01*
G01D02*
X201370Y119960D01*
G01D02*
X201410Y120120D01*
G01D02*
X201440Y120260D01*
G01D02*
X201480Y120420D01*
G01D02*
X201540Y120560D01*
G01D02*
X201590Y120700D01*
G01D02*
X201650Y120840D01*
G01D02*
X201720Y120970D01*
G01D02*
X201800Y121110D01*
G01D02*
X201870Y121230D01*
G01D02*
X201940Y121350D01*
G01D02*
X202040Y121460D01*
G01D02*
X202130Y121590D01*
G01D02*
X202220Y121680D01*
G01D02*
X202330Y121780D01*
G01D02*
X202440Y121870D01*
G01D02*
X202540Y121950D01*
G01D02*
X202650Y122030D01*
G01D02*
X202760Y122100D01*
G01D02*
X202890Y122160D01*
G01D02*
X203000Y122210D01*
G01D02*
X203110Y122260D01*
G01D02*
X203240Y122300D01*
G01D02*
X203370Y122330D01*
G01D02*
X203500Y122360D01*
G01D02*
X203630Y122380D01*
G01D02*
X203760Y122390D01*
G01X230740Y126910D02*
X231150Y126760D01*
G01D02*
X231540Y126610D01*
G01D02*
X231940Y126470D01*
G01D02*
X232330Y126310D01*
G01D02*
X232690Y126150D01*
G01D02*
X233060Y125990D01*
G01D02*
X233390Y125820D01*
G01D02*
X233280Y125970D01*
G01D02*
X233130Y126110D01*
G01D02*
X233000Y126250D01*
G01D02*
X232850Y126390D01*
G01D02*
X232540Y126660D01*
G01D02*
X232370Y126800D01*
G01D02*
X232200Y126930D01*
G01D02*
X232040Y127070D01*
G01D02*
X231850Y127200D01*
G01D02*
X231480Y127460D01*
G01D02*
X231280Y127580D01*
G01D02*
X231090Y127700D01*
G01D02*
X230890Y127830D01*
G01X235870Y123430D02*
X235680Y123420D01*
G01D02*
X235460Y123410D01*
G01D02*
X235280Y123380D01*
G01D02*
X235070Y123360D01*
G01D02*
X234890Y123310D01*
G01D02*
X234700Y123260D01*
G01D02*
X234520Y123200D01*
G01D02*
X234350Y123130D01*
G01D02*
X234170Y123050D01*
G01D02*
X234020Y122960D01*
G01D02*
X233850Y122860D01*
G01D02*
X233690Y122760D01*
G01D02*
X233520Y122640D01*
G01D02*
X233390Y122520D01*
G01D02*
X233240Y122370D01*
G01D02*
X233110Y122230D01*
G01D02*
X232960Y122080D01*
G01D02*
X232830Y121920D01*
G01D02*
X232720Y121760D01*
G01D02*
X232610Y121600D01*
G01D02*
X232560Y121510D01*
G01D02*
X232500Y121430D01*
G01D02*
X232430Y121240D01*
G01D02*
X232330Y121070D01*
G01D02*
X232260Y120890D01*
G01D02*
X232200Y120700D01*
G01D02*
X232150Y120510D01*
G01D02*
X232090Y120310D01*
G01D02*
X232060Y120120D01*
G01D02*
X232020Y119910D01*
G01D02*
X232000Y119700D01*
G01D02*
Y119490D01*
G01D02*
X231980Y119270D01*
G01D02*
Y119090D01*
G01D02*
X232000Y118910D01*
G01D02*
Y118740D01*
G01D02*
X232040Y118580D01*
G01D02*
X232060Y118420D01*
G01D02*
X232090Y118260D01*
G01D02*
X232110Y118110D01*
G01D02*
X232150Y117960D01*
G01D02*
X232240Y117700D01*
G01D02*
X232310Y117570D01*
G01D02*
X232370Y117450D01*
G01D02*
X232430Y117340D01*
G01D02*
X232500Y117230D01*
G01D02*
X232570Y117130D01*
G01D02*
X232650Y117030D01*
G01D02*
X232740Y116950D01*
G01D02*
X232830Y116860D01*
G01D02*
X232910Y116780D01*
G01D02*
X233020Y116700D01*
G01D02*
X233130Y116640D01*
G01D02*
X233240Y116580D01*
G01D02*
X233350Y116520D01*
G01D02*
X233460Y116470D01*
G01D02*
X233590Y116440D01*
G01D02*
X233740Y116400D01*
G01D02*
X233870Y116360D01*
G01D02*
X234020Y116340D01*
G01D02*
X234150Y116310D01*
G01D02*
X234310Y116300D01*
G01D02*
X234460Y116290D01*
G01D02*
X234610D01*
G01D02*
X234830D01*
G01D02*
X235040Y116310D01*
G01D02*
X235240Y116340D01*
G01D02*
X235460Y116370D01*
G01D02*
X235700Y116420D01*
G01D02*
X235930Y116480D01*
G01D02*
X236170Y116550D01*
G01D02*
X236430Y116630D01*
G01D02*
X236560Y117880D01*
G01D02*
X236370Y117740D01*
G01D02*
X236170Y117630D01*
G01D02*
X236070Y117590D01*
G01D02*
X235980Y117540D01*
G01D02*
X235890Y117490D01*
G01D02*
X235800Y117450D01*
G01D02*
X235700Y117430D01*
G01D02*
X235610Y117390D01*
G01D02*
X235410Y117350D01*
G01D02*
X235220Y117330D01*
G01D02*
X235040Y117320D01*
G01D02*
X234940D01*
G01D02*
X234830D01*
G01D02*
X234650Y117340D01*
G01D02*
X234540Y117360D01*
G01D02*
X234460Y117380D01*
G01D02*
X234370Y117400D01*
G01D02*
X234300Y117430D01*
G01D02*
X234200Y117460D01*
G01D02*
X234130Y117490D01*
G01D02*
X233980Y117570D01*
G01D02*
X233910Y117620D01*
G01D02*
X233850Y117670D01*
G01D02*
X233780Y117720D01*
G01D02*
X233720Y117770D01*
G01D02*
X233680Y117830D01*
G01D02*
X233610Y117890D01*
G01D02*
X233570Y117950D01*
G01D02*
X233520Y118030D01*
G01D02*
X233480Y118100D01*
G01D02*
X233440Y118170D01*
G01D02*
X233410Y118250D01*
G01D02*
X233370Y118330D01*
G01D02*
X233310Y118500D01*
G01D02*
X233300Y118590D01*
G01D02*
X233280Y118670D01*
G01D02*
X233260Y118870D01*
G01D02*
Y119080D01*
G01D02*
Y119220D01*
G01D02*
X233280Y119370D01*
G01D02*
Y119520D01*
G01D02*
X233310Y119680D01*
G01D02*
X233390Y119630D01*
G01D02*
X233480Y119590D01*
G01D02*
X233650Y119520D01*
G01D02*
X233810Y119460D01*
G01D02*
X234020Y119410D01*
G01D02*
X234200Y119370D01*
G01D02*
X234310Y119360D01*
G01D02*
X234410Y119350D01*
G01D02*
X234630Y119330D01*
G01D02*
X234870Y119320D01*
G01D02*
X235190Y119330D01*
G01D02*
X235350Y119350D01*
G01D02*
X235520Y119370D01*
G01D02*
X235680Y119400D01*
G01D02*
X235810Y119420D01*
G01D02*
X235960Y119460D01*
G01D02*
X236130Y119490D01*
G01D02*
X236260Y119530D01*
G01D02*
X236410Y119580D01*
G01D02*
X236540Y119630D01*
G01D02*
X236670Y119690D01*
G01D02*
X236810Y119750D01*
G01D02*
X236930Y119820D01*
G01D02*
X237040Y119900D01*
G01D02*
X237170Y119970D01*
G01D02*
X237280Y120060D01*
G01D02*
X237390Y120140D01*
G01D02*
X237480Y120240D01*
G01D02*
X237570Y120330D01*
G01D02*
X237670Y120420D01*
G01D02*
X237740Y120530D01*
G01D02*
X237810Y120630D01*
G01D02*
X237870Y120740D01*
G01D02*
X237930Y120850D01*
G01D02*
X237980Y120970D01*
G01D02*
X238020Y121100D01*
G01D02*
X238060Y121220D01*
G01D02*
X238070Y121340D01*
G01D02*
X238090Y121480D01*
G01D02*
Y121610D01*
G01D02*
Y121740D01*
G01D02*
Y121840D01*
G01D02*
Y121940D01*
G01D02*
X238070Y122120D01*
G01D02*
X238020Y122310D01*
G01D02*
X238000Y122380D01*
G01D02*
X237960Y122470D01*
G01D02*
X237910Y122540D01*
G01D02*
X237870Y122610D01*
G01D02*
X237830Y122690D01*
G01D02*
X237760Y122750D01*
G01D02*
X237720Y122820D01*
G01D02*
X237630Y122880D01*
G01D02*
X237570Y122930D01*
G01D02*
X237500Y122990D01*
G01D02*
X237430Y123040D01*
G01D02*
X237350Y123090D01*
G01D02*
X237170Y123190D01*
G01D02*
X237090Y123230D01*
G01D02*
X236980Y123260D01*
G01D02*
X236780Y123320D01*
G01D02*
X236700Y123350D01*
G01D02*
X236590Y123370D01*
G01D02*
X236370Y123410D01*
G01D02*
X236240Y123420D01*
G01D02*
X236130D01*
G01D02*
X235870Y123430D01*
G01D02*
X235830Y122410D01*
G01D02*
X235960D01*
G01D02*
X236070Y122390D01*
G01D02*
X236200Y122380D01*
G01D02*
X236300Y122360D01*
G01D02*
X236390Y122330D01*
G01D02*
X236480Y122300D01*
G01D02*
X236560Y122260D01*
G01D02*
X236630Y122210D01*
G01D02*
X236670Y122190D01*
G01D02*
X236700Y122150D01*
G01D02*
X236760Y122100D01*
G01D02*
X236810Y122030D01*
G01D02*
X236830Y121970D01*
G01D02*
X236870Y121880D01*
G01D02*
X236890Y121790D01*
G01D02*
Y121710D01*
G01D02*
X236910Y121610D01*
G01D02*
X236890Y121540D01*
G01D02*
Y121460D01*
G01D02*
Y121390D01*
G01D02*
X236870Y121320D01*
G01D02*
X236830Y121260D01*
G01D02*
X236810Y121180D01*
G01D02*
X236780Y121120D01*
G01D02*
X236760Y121060D01*
G01D02*
X236700Y121010D01*
G01D02*
X236650Y120950D01*
G01D02*
X236610Y120900D01*
G01D02*
X236540Y120850D01*
G01D02*
X236480Y120800D01*
G01D02*
X236430Y120750D01*
G01D02*
X236280Y120670D01*
G01D02*
X236110Y120580D01*
G01D02*
X235940Y120520D01*
G01D02*
X235760Y120470D01*
G01D02*
X235670Y120450D01*
G01D02*
X235560Y120420D01*
G01D02*
X235350Y120390D01*
G01D02*
X235130Y120360D01*
G01D02*
X234890Y120350D01*
G01D02*
X234650Y120340D01*
G01D02*
X234500D01*
G01D02*
X234330Y120350D01*
G01D02*
X234200Y120370D01*
G01D02*
X234040Y120400D01*
G01D02*
X233910Y120420D01*
G01D02*
X233760Y120460D01*
G01D02*
X233650Y120510D01*
G01D02*
X233520Y120560D01*
G01D02*
X233610Y120780D01*
G01D02*
X233700Y120990D01*
G01D02*
X233760Y121080D01*
G01D02*
X233810Y121180D01*
G01D02*
X233910Y121370D01*
G01D02*
X234040Y121540D01*
G01D02*
X234090Y121610D01*
G01D02*
X234150Y121680D01*
G01D02*
X234220Y121760D01*
G01D02*
X234300Y121820D01*
G01D02*
X234430Y121940D01*
G01D02*
X234570Y122050D01*
G01D02*
X234650Y122100D01*
G01D02*
X234720Y122150D01*
G01D02*
X234890Y122220D01*
G01D02*
X234980Y122260D01*
G01D02*
X235070Y122280D01*
G01D02*
X235150Y122320D01*
G01D02*
X235240Y122340D01*
G01D02*
X235330Y122360D01*
G01D02*
X235440Y122380D01*
G01D02*
X235630Y122390D01*
G01D02*
X235830Y122410D01*
G01X243310Y123430D02*
X243150Y123420D01*
G01D02*
X242980Y123410D01*
G01D02*
X242830Y123380D01*
G01D02*
X242690Y123350D01*
G01D02*
X242520Y123310D01*
G01D02*
X242390Y123260D01*
G01D02*
X242240Y123190D01*
G01D02*
X242110Y123130D01*
G01D02*
X241960Y123040D01*
G01D02*
X241890Y122990D01*
G01D02*
X241830Y122940D01*
G01D02*
X241700Y122850D01*
G01D02*
X241590Y122740D01*
G01D02*
X241460Y122610D01*
G01D02*
X241330Y122480D01*
G01D02*
X241220Y122340D01*
G01D02*
X241130Y122200D01*
G01D02*
X241310Y123300D01*
G01D02*
X240090D01*
G01D02*
X238890Y116420D01*
G01D02*
X240110D01*
G01D02*
X240810Y120360D01*
G01D02*
Y120470D01*
G01D02*
X240850Y120570D01*
G01D02*
X240910Y120770D01*
G01D02*
X240940Y120860D01*
G01D02*
X240980Y120960D01*
G01D02*
X241060Y121150D01*
G01D02*
X241150Y121320D01*
G01D02*
X241260Y121490D01*
G01D02*
X241330Y121570D01*
G01D02*
X241390Y121650D01*
G01D02*
X241460Y121730D01*
G01D02*
X241540Y121810D01*
G01D02*
X241670Y121940D01*
G01D02*
X241760Y122000D01*
G01D02*
X241830Y122060D01*
G01D02*
X241910Y122120D01*
G01D02*
X241980Y122170D01*
G01D02*
X242060Y122210D01*
G01D02*
X242130Y122260D01*
G01D02*
X242280Y122320D01*
G01D02*
X242440Y122370D01*
G01D02*
X242520Y122380D01*
G01D02*
X242610Y122390D01*
G01D02*
X242780Y122410D01*
G01D02*
X242890D01*
G01D02*
X243020Y122380D01*
G01D02*
X243130Y122360D01*
G01D02*
X243240Y122330D01*
G01D02*
X243350Y122280D01*
G01D02*
X243460Y122230D01*
G01D02*
X243560Y122170D01*
G01D02*
X243650Y122100D01*
G01D02*
X244000Y123340D01*
G01D02*
X243780Y123380D01*
G01D02*
X243590Y123410D01*
G01D02*
X243440Y123420D01*
G01D02*
X243310Y123430D01*
G54D11*
G01X47190Y23890D02*
Y34380D01*
G01X66990Y23890D02*
X47190D01*
G01Y34380D02*
X66990D01*
G01X41240Y60350D02*
Y71850D01*
G01X47690Y60350D02*
X41240D01*
G01X47690Y71850D02*
Y60350D01*
G01X41240Y71850D02*
X47690D01*
G01X44650Y77480D02*
Y83930D01*
G01X56150Y77480D02*
X44650D01*
G01Y83930D02*
X56150D01*
G01X44650Y91810D02*
X56150D01*
G01X44650Y85360D02*
Y91810D01*
G01X56150Y85360D02*
X44650D01*
G01X46170Y118600D02*
X57670D01*
G01X46170Y112150D02*
Y118600D01*
G01X57670Y112150D02*
X46170D01*
G01X66990Y34380D02*
Y23890D01*
G01X75490Y22940D02*
Y34440D01*
G01X81940Y22940D02*
X75490D01*
G01Y34440D02*
X81940D01*
G01X68010Y22940D02*
Y34440D01*
G01X74460Y22940D02*
X68010D01*
G01X74460Y34440D02*
Y22940D01*
G01X68010Y34440D02*
X74460D01*
G01X77125Y52750D02*
Y52875D01*
X74375Y55625D01*
X67125D01*
Y56875D01*
G01X70760Y65260D02*
X59260D01*
G01X70760Y71700D02*
Y65260D01*
G01X59260Y71700D02*
X70760D01*
G01X59260Y65260D02*
Y71700D01*
G01X79630Y75480D02*
Y63980D01*
G01X73180Y75480D02*
X79630D01*
G01X73180Y63980D02*
Y75480D01*
G01X79630Y63980D02*
X73180D01*
G01X57667Y63012D02*
X69167D01*
G01X57667Y56562D02*
Y63012D01*
G01X69167Y56562D02*
X57667D01*
G01X69167Y63012D02*
Y56562D01*
G01X50300Y60350D02*
Y71850D01*
G01X56740Y60350D02*
X50300D01*
G01X56740Y71850D02*
Y60350D01*
G01X50300Y71850D02*
X56740D01*
G01X56150Y83930D02*
Y77480D01*
G01X81675Y56500D02*
X70175D01*
G01Y62950D02*
X81675D01*
G01X70175Y56500D02*
Y62950D01*
G01X56150Y91810D02*
Y85360D01*
G01X57670Y118600D02*
Y112150D01*
G01X96792Y45096D02*
X107292D01*
G01X96792Y25296D02*
Y45096D01*
G01X107292Y25296D02*
X96792D01*
G01X107292Y45096D02*
Y25296D01*
G01X81940Y34440D02*
Y22940D01*
G01X97139Y58470D02*
X113139D01*
G01X97139Y50980D02*
Y58470D01*
G01X113139Y50980D02*
X97139D01*
G01X109340Y60930D02*
X97840D01*
G01X109340Y67370D02*
Y60930D01*
G01X97840Y67370D02*
X109340D01*
G01X97840Y60930D02*
Y67370D01*
G01X109340Y69190D02*
X97840D01*
G01X109340Y75640D02*
Y69190D01*
G01X97840Y75640D02*
X109340D01*
G01X97840Y69190D02*
Y75640D01*
G01X114460Y77460D02*
X102960D01*
G01D02*
Y83910D01*
G01X81675Y62950D02*
Y56500D01*
G01X113819Y85730D02*
X102319D01*
G01Y92180D02*
X113819D01*
G01X102319Y85730D02*
Y92180D01*
G01X112490Y94780D02*
X100990D01*
G01Y101230D02*
X112490D01*
G01X100990Y94780D02*
Y101230D01*
G01X115640Y102260D02*
X104140D01*
G01Y108710D02*
X115640D01*
G01X104140Y102260D02*
Y108710D01*
G01X102960Y83910D02*
X114460D01*
G01X104440Y116801D02*
X115940D01*
G01X104440Y110351D02*
Y116801D01*
G01X115940Y110351D02*
X104440D01*
G01X110520Y117698D02*
X99020D01*
G01Y124148D02*
X110520D01*
G01X99020Y117698D02*
Y124148D01*
G01X113139Y58470D02*
Y50980D01*
G01X116070Y52520D02*
Y64020D01*
G01X122520Y52520D02*
X116070D01*
G01X122520Y64020D02*
Y52520D01*
G01X116070Y64020D02*
X122520D01*
G01X114460Y83910D02*
Y77460D01*
G01X122780Y80600D02*
Y69100D01*
G01X116330D02*
Y80600D01*
G01X122780Y69100D02*
X116330D01*
G01X135280Y52290D02*
X123780D01*
G01X135280Y58740D02*
Y52290D01*
G01X123780Y58740D02*
X135280D01*
G01X123780Y52290D02*
Y58740D01*
G01X138290Y71150D02*
Y59650D01*
G01X131840Y71150D02*
X138290D01*
G01X131840Y59650D02*
Y71150D01*
G01X138290Y59650D02*
X131840D01*
G01X113819Y92180D02*
Y85730D01*
G01X112490Y101230D02*
Y94780D01*
G01X115640Y108710D02*
Y102260D01*
G01X116330Y80600D02*
X122780D01*
G01X127480Y111960D02*
Y123460D01*
G01X133930Y111960D02*
X127480D01*
G01X133930Y123460D02*
Y111960D01*
G01X127480Y123460D02*
X133930D01*
G01X115940Y116801D02*
Y110351D01*
G01X126060Y123470D02*
Y111970D01*
G01X119610Y123470D02*
X126060D01*
G01X119610Y111970D02*
Y123470D01*
G01X126060Y111970D02*
X119610D01*
G01X135360Y123470D02*
X141810D01*
G01X135360Y111970D02*
Y123470D01*
G01X141810Y111970D02*
X135360D01*
G01X110520Y124148D02*
Y117698D01*
G01X153470Y52520D02*
Y64020D01*
G01X159920Y52520D02*
X153470D01*
G01X159920Y64020D02*
Y52520D01*
G01X153470Y64020D02*
X159920D01*
G01X180410Y74640D02*
X168910D01*
G01D02*
Y81090D01*
G01X158940Y79430D02*
X147440D01*
G01X158940Y85880D02*
Y79430D01*
G01X147440D02*
Y85880D01*
G01X152250Y52260D02*
X140750D01*
G01X152250Y58710D02*
Y52260D01*
G01X140750Y58710D02*
X152250D01*
G01X140750Y52260D02*
Y58710D01*
G01X158940Y95180D02*
X147440D01*
G01X158940Y101630D02*
Y95180D01*
G01X147440Y101630D02*
X158940D01*
G01X147440Y95180D02*
Y101630D01*
G01X158940Y87300D02*
X147440D01*
G01X158940Y93750D02*
Y87300D01*
G01X147440Y93750D02*
X158940D01*
G01X147440Y87300D02*
Y93750D01*
G01X168830Y82440D02*
Y93940D01*
G01X175280Y82440D02*
X168830D01*
G01Y93940D02*
X175280D01*
G01X160530Y88690D02*
Y100190D01*
G01X166980Y88690D02*
X160530D01*
G01X166980Y100190D02*
Y88690D01*
G01X160530Y100190D02*
X166980D01*
G01X168910Y81090D02*
X180410D01*
G01X168660Y106910D02*
X175110D01*
G01X168660Y95410D02*
Y106910D01*
G01X175110Y95410D02*
X168660D01*
G01X147440Y85880D02*
X158940D01*
G01Y103050D02*
X147440D01*
G01X158940Y109500D02*
Y103050D01*
G01X147440Y109500D02*
X158940D01*
G01X147440Y103050D02*
Y109500D01*
G01X141810Y123470D02*
Y111970D01*
G01X200280Y69590D02*
X188780D01*
G01X200280Y76040D02*
Y69590D01*
G01X188780Y76040D02*
X200280D01*
G01X188780Y69590D02*
Y76040D01*
G01X195370Y88870D02*
Y77370D01*
G01X188930D02*
Y88870D01*
G01X195370Y77370D02*
X188930D01*
G01X180410Y81090D02*
Y74640D01*
G01X187690Y100690D02*
X176190D01*
G01X187690Y107140D02*
Y100690D01*
G01X176190Y107140D02*
X187690D01*
G01X176190Y100690D02*
Y107140D01*
G01X196750Y86720D02*
Y98220D01*
G01X203200Y86720D02*
X196750D01*
G01Y98220D02*
X203200D01*
G01X195170Y91630D02*
X183670D01*
G01X195170Y98080D02*
Y91630D01*
G01X183670Y98080D02*
X195170D01*
G01X183670Y91630D02*
Y98080D01*
G01X175280Y93940D02*
Y82440D01*
G01X188930Y88870D02*
X195370D01*
G01X195190Y112030D02*
Y100530D01*
G01X188740D02*
Y112030D01*
G01X195190Y100530D02*
X188740D01*
G01X187890Y82520D02*
X176390D01*
G01X187890Y88960D02*
Y82520D01*
G01X176390Y88960D02*
X187890D01*
G01X176390Y82520D02*
Y88960D01*
G01X175110Y106910D02*
Y95410D01*
G01X188740Y112030D02*
X195190D01*
G01X204440Y79180D02*
Y90680D01*
G01X210890Y79180D02*
X204440D01*
G01X210890Y90680D02*
Y79180D01*
G01X203200Y98220D02*
Y86720D01*
G01X215990Y91660D02*
X204490D01*
G01X215990Y98110D02*
Y91660D01*
G01X204490Y98110D02*
X215990D01*
G01X204490Y91660D02*
Y98110D01*
G01X204440Y90680D02*
X210890D01*
G54D12*
G01X183740Y44760D02*
G02Y42590I4J-1085D01*
G02Y44760I4J1085D01*
G01X180020Y36270D02*
G02Y32660I-12J-1805D01*
G02Y36270I-12J1805D01*
G01X187440Y36320D02*
G02Y32710I13J-1805D01*
G02Y36320I13J1805D01*
G01X183690Y28010D02*
X190570Y30470D01*
G03X188500Y37690I-13658J-9D01*
G03X183690Y40380I-5170J-3600D01*
G03X178650Y37350I350J-6289D01*
G03X176800Y30470I11933J-6897D01*
G01D02*
X183690Y28010D01*
G01X172060Y32820D02*
X172590Y31640D01*
G02X173170Y31760I570J-1296D01*
G02X174570Y30360I1J-1399D01*
G02X173740Y29070I-1415J-2D01*
G01D02*
X174280Y27890D01*
G03X175870Y30360I-1115J2465D01*
G03X173170Y33060I-2699J1D01*
G03X172060Y32820I3J-2701D01*
G01X195280Y33200D02*
X194700Y34280D01*
G02X194060Y34120I-650J1238D01*
G02X192670Y35500I-9J1381D01*
G02X193410Y36720I1386J-6D01*
G01D02*
X192830Y37790D01*
G03X191450Y35500I1213J-2292D01*
G03X194060Y32900I2601J1D01*
G03X195280Y33200I8J2599D01*
G01X190090Y34060D02*
X191830Y34150D01*
G01D02*
X192000Y33910D01*
G01D02*
X190430Y32390D01*
G01D02*
X190570Y30470D01*
G01D02*
X176800D01*
G01D02*
X176810Y31000D01*
G01D02*
X175820Y30860D01*
G01D02*
X175690Y31300D01*
G01D02*
X177000Y32800D01*
G01X183390Y40360D02*
X184020Y41760D01*
G01D02*
X182780Y41530D01*
G01D02*
X183570Y42630D01*
G01X175980Y26380D02*
X191390D01*
G01X201170Y43360D02*
G03X200060Y44470I-1103J7D01*
G01D02*
X198960D01*
G01D02*
Y41170D01*
G01D02*
X200060D01*
G01D02*
G03X201170Y42270I-1J1111D01*
G01X200060Y36790D02*
G03X201170Y37880I9J1101D01*
G01D02*
Y38980D01*
G03Y39070I-998J45D01*
G03X200170Y40080I-1009J1D01*
G03X200060I-55J-1011D01*
G01D02*
X198960D01*
G01D02*
Y36790D01*
G01D02*
X200060D01*
G01X201170Y45560D02*
X196780D01*
G01D02*
Y35690D01*
G01D02*
X201170D01*
G01X183690Y28010D02*
G02Y26380I-7J-815D01*
G02Y28010I-7J815D01*
G01X201170Y42270D02*
Y43370D01*
G01Y35690D02*
G03X203370Y38160I-283J2467D01*
G03X201170Y40630I-2486J1D01*
G03X203580Y43100I-59J2468D01*
G03X201170Y45560I-2460J1D01*
G01X209940Y35690D02*
X207740D01*
G02X205540Y37900I11J2211D01*
G01D02*
Y37880D01*
G01D02*
Y41170D01*
G02X207760Y43370I2215J-15D01*
G01D02*
X207740D01*
G01D02*
X209940D01*
G02X212130Y41160I-19J-2209D01*
G01D02*
Y41170D01*
G01D02*
Y38980D01*
G01D02*
X207740D01*
G01D02*
Y37880D01*
G01D02*
Y37900D01*
G03X208840Y36790I1101J-9D01*
G01D02*
X209940D01*
G03X210020I40J1008D01*
G03X211040Y37800I12J1008D01*
G03Y37890I-1007J45D01*
G01D02*
X212130D01*
G02X209890Y35690I-2248J48D01*
G02X209830I-30J2249D01*
G01X207760Y41160D02*
G02Y41190I1093J15D01*
G02X208850Y42280I1092J-2D01*
G02X209940Y41190I1J-1089D01*
G02Y41170I-1087J-10D01*
G01D02*
Y40080D01*
G01D02*
X207740D01*
G01D02*
Y41170D01*
G01X218240Y42360D02*
G02Y42270I-1187J-45D01*
G02X217150Y41080I-1192J-3D01*
G01D02*
X216040D01*
G01D02*
Y44370D01*
G01D02*
X217150D01*
G02X217200I25J-1051D01*
G02X218240Y43320I1J-1039D01*
G02Y43280I-1037J-20D01*
G01D02*
Y42180D01*
G01Y40580D02*
X219330D01*
G02X220430Y39470I-9J-1109D01*
G01D02*
Y39480D01*
G01D02*
Y35600D01*
G01D02*
X218240D01*
G01D02*
Y38880D01*
G01D02*
Y38870D01*
G03X217150Y39980I-1109J1D01*
G01D02*
X216040D01*
G01D02*
Y35600D01*
G01D02*
X213850D01*
G01D02*
Y45470D01*
G01D02*
X218240D01*
G02X220690Y43030I7J-2443D01*
G02X218240Y40580I-2441J-9D01*
G01X233590Y35600D02*
X231410D01*
G02X229200Y37800I1J2211D01*
G01D02*
Y37790D01*
G01D02*
Y43280D01*
G02X231410Y45470I2212J-22D01*
G01X221540D02*
X228110D01*
G01D02*
Y44370D01*
G01D02*
X225910D01*
G01D02*
Y35600D01*
G01D02*
X223720D01*
G01D02*
Y44370D01*
G01D02*
X221540D01*
G01D02*
Y45470D01*
G01X231410D02*
X233590D01*
G02X235800Y43260I-3J-2213D01*
G01D02*
Y43280D01*
G01D02*
Y37790D01*
G02X233570Y35600I-2215J25D01*
G01X232500Y36700D02*
G02X231410Y37800I-3J1087D01*
G01D02*
Y37790D01*
G01D02*
Y43280D01*
G02X232500Y44370I1099J-9D01*
G02X233590Y43270I-9J-1099D01*
G01D02*
Y43280D01*
G01D02*
Y37790D01*
G02X232500Y36700I-1098J8D01*
G01X243470Y43420D02*
G03X241410Y45470I-2049J1D01*
G03X241280I-65J-2051D01*
G01D02*
X240170D01*
G03X237950Y42910I368J-2562D01*
G03X238630Y41180I2568J11D01*
G01D02*
X240950Y38570D01*
G02X241300Y37740I-807J-829D01*
G02X241020Y36980I-1147J-9D01*
G02X240190Y36620I-818J748D01*
G02X239070Y37730I-9J1111D01*
G02X239080Y37800I1114J-123D01*
G01D02*
X237980D01*
G03X237960Y37520I1953J-280D01*
G03X239910Y35580I1941J1D01*
G03X240170Y35600I-18J1938D01*
G01D02*
X241280D01*
G03X243630Y38070I-124J2471D01*
G03X242820Y39890I-2472J-10D01*
G01D02*
X240500Y42500D01*
G02X240150Y43310I759J808D01*
G02X241260Y44420I1109J1D01*
G02X242370Y43310I1J-1109D01*
G02Y43270I-1117J-20D01*
G01D02*
X243470D01*
G03Y43420I-2057J75D01*
G54D13*
G01X130000Y27560D02*
X145590D01*
G01X130000Y51190D02*
Y27560D01*
G01X145590Y51190D02*
X130000D01*
G01X145590Y27560D02*
Y51190D01*
G54D14*
G01X28484Y91964D02*
X40304D01*
Y56134D01*
X28484D01*
Y91964D01*
X30064D01*
G01X119880Y90260D02*
Y84740D01*
X125390D01*
G01Y106790D02*
X121850D01*
X119880Y104820D01*
Y101280D01*
G01X136420Y106790D02*
X141540D01*
Y101280D01*
G01X136020Y84740D02*
X141540D01*
Y90260D01*
G01X213820Y86650D02*
X246890D01*
Y53190D01*
X213430D01*
Y86650D01*
X213820D01*
G54D15*
G01X7083Y2760D02*
Y5910D01*
X8027D01*
X8342Y5752D01*
X8578Y5385D01*
X8657Y4965D01*
X8578Y4545D01*
X8381Y4230D01*
X8027Y4072D01*
X7083D01*
G01X10820Y2760D02*
Y5910D01*
X10348Y5280D01*
G01Y2760D02*
X11292D01*
G01X13691D02*
X13770Y3442D01*
X13888Y4020D01*
X14045Y4545D01*
X14242Y5122D01*
X14557Y5910D01*
X12983D01*
G01X17083Y2760D02*
Y5910D01*
X18027D01*
X18342Y5752D01*
X18578Y5385D01*
X18657Y4965D01*
X18578Y4545D01*
X18381Y4230D01*
X18027Y4072D01*
X17083D01*
G01X20820Y2760D02*
Y5910D01*
X20348Y5280D01*
G01Y2760D02*
X21292D01*
G01X23770D02*
X24045Y2812D01*
X24360Y2970D01*
X24557Y3232D01*
X24635Y3600D01*
X24557Y3967D01*
X24321Y4282D01*
X23967Y4440D01*
X23573D01*
X23337Y4545D01*
X23141Y4807D01*
X23062Y5175D01*
X23180Y5542D01*
X23455Y5805D01*
X23770Y5910D01*
X24085Y5805D01*
X24360Y5542D01*
X24478Y5175D01*
X24399Y4807D01*
X24203Y4545D01*
X23967Y4440D01*
X23573D01*
X23219Y4282D01*
X22983Y3967D01*
X22905Y3600D01*
X22983Y3232D01*
X23180Y2970D01*
X23495Y2812D01*
X23770Y2760D01*
G01X17563Y135040D02*
Y138190D01*
X18507D01*
X18822Y138032D01*
X19058Y137665D01*
X19137Y137245D01*
X19058Y136825D01*
X18861Y136510D01*
X18507Y136352D01*
X17563D01*
G01X21300Y135040D02*
Y138190D01*
X20828Y137560D01*
G01Y135040D02*
X21772D01*
G01X23385Y135512D02*
X23621Y135250D01*
X23896Y135092D01*
X24250Y135040D01*
X24604Y135145D01*
X24879Y135355D01*
X25076Y135722D01*
X25115Y136142D01*
X25037Y136562D01*
X24840Y136825D01*
X24565Y137035D01*
X24289Y137087D01*
X24014Y137035D01*
X23660Y136825D01*
X23778Y138190D01*
X24840D01*
G01X7563Y135040D02*
Y138190D01*
X8507D01*
X8822Y138032D01*
X9058Y137665D01*
X9137Y137245D01*
X9058Y136825D01*
X8861Y136510D01*
X8507Y136352D01*
X7563D01*
G01X11300Y135040D02*
Y138190D01*
X10828Y137560D01*
G01Y135040D02*
X11772D01*
G01X13503Y136352D02*
X13778Y136720D01*
X14014Y136930D01*
X14329Y137035D01*
X14604Y136930D01*
X14801Y136720D01*
X14958Y136405D01*
X14997Y136037D01*
X14958Y135722D01*
X14801Y135407D01*
X14565Y135145D01*
X14289Y135040D01*
X13975Y135145D01*
X13699Y135460D01*
X13542Y135933D01*
X13503Y136457D01*
X13581Y137140D01*
X13699Y137508D01*
X13896Y137875D01*
X14171Y138138D01*
X14447Y138190D01*
X14722Y138085D01*
X14919Y137822D01*
G01X47083Y2760D02*
Y5910D01*
X48027D01*
X48342Y5752D01*
X48578Y5385D01*
X48657Y4965D01*
X48578Y4545D01*
X48381Y4230D01*
X48027Y4072D01*
X47083D01*
G01X50073Y5385D02*
X50309Y5700D01*
X50584Y5858D01*
X50899Y5910D01*
X51292Y5805D01*
X51567Y5542D01*
X51646Y5228D01*
X51607Y4912D01*
X51449Y4650D01*
X50663Y4125D01*
X50309Y3757D01*
X50073Y3232D01*
X49994Y2760D01*
X51646D01*
G01X53770D02*
Y5910D01*
X53298Y5280D01*
G01Y2760D02*
X54242D01*
G01X27083D02*
Y5910D01*
X28027D01*
X28342Y5752D01*
X28578Y5385D01*
X28657Y4965D01*
X28578Y4545D01*
X28381Y4230D01*
X28027Y4072D01*
X27083D01*
G01X30820Y2760D02*
Y5910D01*
X30348Y5280D01*
G01Y2760D02*
X31292D01*
G01X33101Y3127D02*
X33377Y2865D01*
X33691Y2760D01*
X34006Y2865D01*
X34281Y3180D01*
X34478Y3653D01*
X34557Y4125D01*
Y4702D01*
X34478Y5175D01*
X34281Y5595D01*
X34045Y5805D01*
X33770Y5910D01*
X33455Y5805D01*
X33219Y5595D01*
X33062Y5280D01*
X32983Y4860D01*
X33062Y4493D01*
X33259Y4125D01*
X33495Y3915D01*
X33770Y3862D01*
X34085Y3967D01*
X34321Y4230D01*
X34557Y4702D01*
G01X37083Y2760D02*
Y5910D01*
X38027D01*
X38342Y5752D01*
X38578Y5385D01*
X38657Y4965D01*
X38578Y4545D01*
X38381Y4230D01*
X38027Y4072D01*
X37083D01*
G01X40073Y5385D02*
X40309Y5700D01*
X40584Y5858D01*
X40899Y5910D01*
X41292Y5805D01*
X41567Y5542D01*
X41646Y5228D01*
X41607Y4912D01*
X41449Y4650D01*
X40663Y4125D01*
X40309Y3757D01*
X40073Y3232D01*
X39994Y2760D01*
X41646D01*
G01X43770Y5910D02*
X43455Y5805D01*
X43219Y5542D01*
X43062Y5228D01*
X42944Y4807D01*
X42905Y4335D01*
X42944Y3862D01*
X43062Y3442D01*
X43219Y3127D01*
X43455Y2865D01*
X43770Y2760D01*
X44085Y2865D01*
X44321Y3127D01*
X44478Y3442D01*
X44596Y3862D01*
X44635Y4335D01*
X44596Y4807D01*
X44478Y5228D01*
X44321Y5542D01*
X44085Y5805D01*
X43770Y5910D01*
G01X22642Y30510D02*
Y31927D01*
X21855Y33660D01*
G01X23429D02*
X22642Y31927D01*
G01X24845Y33135D02*
X25081Y33450D01*
X25356Y33608D01*
X25671Y33660D01*
X26064Y33555D01*
X26339Y33292D01*
X26418Y32978D01*
X26379Y32662D01*
X26221Y32400D01*
X25435Y31875D01*
X25081Y31507D01*
X24845Y30982D01*
X24766Y30510D01*
X26418D01*
G01X73402Y35670D02*
X28592D01*
G01X28552Y35790D02*
Y41300D01*
G01X28472Y49480D02*
Y54810D01*
G01X73402Y35670D02*
X28592D01*
G01X45637Y27120D02*
Y30270D01*
X44063D01*
G01X41900D02*
Y27120D01*
X42372Y27750D01*
G01Y30270D02*
X41428D01*
G01X73322Y54720D02*
X28512D01*
G01X43546Y59099D02*
X43310Y59257D01*
X43035Y59362D01*
X42720D01*
X42366Y59204D01*
X42091Y58942D01*
X41894Y58627D01*
X41737Y58102D01*
X41698Y57629D01*
X41776Y57157D01*
X41894Y56842D01*
X42130Y56527D01*
X42406Y56317D01*
X42681Y56212D01*
X42956D01*
X43232Y56317D01*
X43468Y56474D01*
X43664Y56684D01*
G01X44884Y58837D02*
X45120Y59152D01*
X45395Y59310D01*
X45710Y59362D01*
X46103Y59257D01*
X46378Y58994D01*
X46457Y58680D01*
X46418Y58364D01*
X46260Y58102D01*
X45474Y57577D01*
X45120Y57209D01*
X44884Y56684D01*
X44805Y56212D01*
X46457D01*
G01X48581Y59362D02*
X48266Y59257D01*
X48030Y58994D01*
X47873Y58680D01*
X47755Y58259D01*
X47716Y57787D01*
X47755Y57314D01*
X47873Y56894D01*
X48030Y56579D01*
X48266Y56317D01*
X48581Y56212D01*
X48896Y56317D01*
X49132Y56579D01*
X49289Y56894D01*
X49407Y57314D01*
X49446Y57787D01*
X49407Y58259D01*
X49289Y58680D01*
X49132Y58994D01*
X48896Y59257D01*
X48581Y59362D01*
G01X47630Y73736D02*
X47866Y73578D01*
X48141Y73473D01*
X48456D01*
X48810Y73631D01*
X49085Y73893D01*
X49282Y74208D01*
X49439Y74733D01*
X49478Y75206D01*
X49400Y75678D01*
X49282Y75993D01*
X49046Y76308D01*
X48770Y76518D01*
X48495Y76623D01*
X48220D01*
X47944Y76518D01*
X47708Y76361D01*
X47512Y76151D01*
G01X45545Y76623D02*
Y73473D01*
X46017Y74103D01*
G01Y76623D02*
X45073D01*
G01X42595D02*
Y73473D01*
X43067Y74103D01*
G01Y76623D02*
X42123D01*
G01X23215Y57002D02*
Y58419D01*
X22428Y60152D01*
G01X24002D02*
X23215Y58419D01*
G01X26165Y57002D02*
Y60152D01*
X25693Y59522D01*
G01Y57002D02*
X26637D01*
G01X46875Y95957D02*
X46639Y96115D01*
X46364Y96220D01*
X46049D01*
X45695Y96062D01*
X45420Y95800D01*
X45223Y95485D01*
X45066Y94960D01*
X45027Y94487D01*
X45105Y94015D01*
X45223Y93700D01*
X45459Y93385D01*
X45735Y93175D01*
X46010Y93070D01*
X46285D01*
X46561Y93175D01*
X46797Y93332D01*
X46993Y93542D01*
G01X48213Y94382D02*
X48488Y94750D01*
X48724Y94960D01*
X49039Y95065D01*
X49314Y94960D01*
X49511Y94750D01*
X49668Y94435D01*
X49707Y94067D01*
X49668Y93752D01*
X49511Y93437D01*
X49275Y93175D01*
X48999Y93070D01*
X48685Y93175D01*
X48409Y93490D01*
X48252Y93963D01*
X48213Y94487D01*
X48291Y95170D01*
X48409Y95538D01*
X48606Y95905D01*
X48881Y96168D01*
X49157Y96220D01*
X49432Y96115D01*
X49629Y95852D01*
G01X37563Y135040D02*
Y138190D01*
X38507D01*
X38822Y138032D01*
X39058Y137665D01*
X39137Y137245D01*
X39058Y136825D01*
X38861Y136510D01*
X38507Y136352D01*
X37563D01*
G01X41300Y135040D02*
Y138190D01*
X40828Y137560D01*
G01Y135040D02*
X41772D01*
G01X43385Y135670D02*
X43621Y135302D01*
X43935Y135092D01*
X44289Y135040D01*
X44604Y135092D01*
X44919Y135355D01*
X45115Y135670D01*
X45155Y135985D01*
X45076Y136352D01*
X44801Y136615D01*
X44525Y136720D01*
X44171D01*
G01X44525D02*
X44761Y136877D01*
X44958Y137140D01*
X45037Y137455D01*
X44958Y137770D01*
X44761Y138032D01*
X44407Y138190D01*
X44053Y138138D01*
X43699Y137927D01*
G01X47563Y135040D02*
Y138190D01*
X48507D01*
X48822Y138032D01*
X49058Y137665D01*
X49137Y137245D01*
X49058Y136825D01*
X48861Y136510D01*
X48507Y136352D01*
X47563D01*
G01X51300Y135040D02*
Y138190D01*
X50828Y137560D01*
G01Y135040D02*
X51772D01*
G01X53503Y137665D02*
X53739Y137980D01*
X54014Y138138D01*
X54329Y138190D01*
X54722Y138085D01*
X54997Y137822D01*
X55076Y137508D01*
X55037Y137192D01*
X54879Y136930D01*
X54093Y136405D01*
X53739Y136037D01*
X53503Y135512D01*
X53424Y135040D01*
X55076D01*
G01X27563D02*
Y138190D01*
X28507D01*
X28822Y138032D01*
X29058Y137665D01*
X29137Y137245D01*
X29058Y136825D01*
X28861Y136510D01*
X28507Y136352D01*
X27563D01*
G01X31300Y135040D02*
Y138190D01*
X30828Y137560D01*
G01Y135040D02*
X31772D01*
G01X34722D02*
Y138190D01*
X33267Y135933D01*
X35233D01*
G01X48005Y122757D02*
X47769Y122915D01*
X47494Y123020D01*
X47179D01*
X46825Y122862D01*
X46550Y122600D01*
X46353Y122285D01*
X46196Y121760D01*
X46157Y121287D01*
X46235Y120815D01*
X46353Y120500D01*
X46589Y120185D01*
X46865Y119975D01*
X47140Y119870D01*
X47415D01*
X47691Y119975D01*
X47927Y120132D01*
X48123Y120342D01*
G01X49421Y120237D02*
X49697Y119975D01*
X50011Y119870D01*
X50326Y119975D01*
X50601Y120290D01*
X50798Y120763D01*
X50877Y121235D01*
Y121812D01*
X50798Y122285D01*
X50601Y122705D01*
X50365Y122915D01*
X50090Y123020D01*
X49775Y122915D01*
X49539Y122705D01*
X49382Y122390D01*
X49303Y121970D01*
X49382Y121603D01*
X49579Y121235D01*
X49815Y121025D01*
X50090Y120972D01*
X50405Y121077D01*
X50641Y121340D01*
X50877Y121812D01*
G01X77083Y2760D02*
Y5910D01*
X78027D01*
X78342Y5752D01*
X78578Y5385D01*
X78657Y4965D01*
X78578Y4545D01*
X78381Y4230D01*
X78027Y4072D01*
X77083D01*
G01X80073Y5385D02*
X80309Y5700D01*
X80584Y5858D01*
X80899Y5910D01*
X81292Y5805D01*
X81567Y5542D01*
X81646Y5228D01*
X81607Y4912D01*
X81449Y4650D01*
X80663Y4125D01*
X80309Y3757D01*
X80073Y3232D01*
X79994Y2760D01*
X81646D01*
G01X84242D02*
Y5910D01*
X82787Y3653D01*
X84753D01*
G01X67083Y2760D02*
Y5910D01*
X68027D01*
X68342Y5752D01*
X68578Y5385D01*
X68657Y4965D01*
X68578Y4545D01*
X68381Y4230D01*
X68027Y4072D01*
X67083D01*
G01X70073Y5385D02*
X70309Y5700D01*
X70584Y5858D01*
X70899Y5910D01*
X71292Y5805D01*
X71567Y5542D01*
X71646Y5228D01*
X71607Y4912D01*
X71449Y4650D01*
X70663Y4125D01*
X70309Y3757D01*
X70073Y3232D01*
X69994Y2760D01*
X71646D01*
G01X72905Y3390D02*
X73141Y3022D01*
X73455Y2812D01*
X73809Y2760D01*
X74124Y2812D01*
X74439Y3075D01*
X74635Y3390D01*
X74675Y3705D01*
X74596Y4072D01*
X74321Y4335D01*
X74045Y4440D01*
X73691D01*
G01X74045D02*
X74281Y4597D01*
X74478Y4860D01*
X74557Y5175D01*
X74478Y5490D01*
X74281Y5752D01*
X73927Y5910D01*
X73573Y5858D01*
X73219Y5647D01*
G01X57083Y2760D02*
Y5910D01*
X58027D01*
X58342Y5752D01*
X58578Y5385D01*
X58657Y4965D01*
X58578Y4545D01*
X58381Y4230D01*
X58027Y4072D01*
X57083D01*
G01X60073Y5385D02*
X60309Y5700D01*
X60584Y5858D01*
X60899Y5910D01*
X61292Y5805D01*
X61567Y5542D01*
X61646Y5228D01*
X61607Y4912D01*
X61449Y4650D01*
X60663Y4125D01*
X60309Y3757D01*
X60073Y3232D01*
X59994Y2760D01*
X61646D01*
G01X63023Y5385D02*
X63259Y5700D01*
X63534Y5858D01*
X63849Y5910D01*
X64242Y5805D01*
X64517Y5542D01*
X64596Y5228D01*
X64557Y4912D01*
X64399Y4650D01*
X63613Y4125D01*
X63259Y3757D01*
X63023Y3232D01*
X62944Y2760D01*
X64596D01*
G01X80127Y20105D02*
X80285Y20341D01*
X80390Y20616D01*
Y20931D01*
X80232Y21285D01*
X79970Y21560D01*
X79655Y21757D01*
X79130Y21914D01*
X78657Y21953D01*
X78185Y21875D01*
X77870Y21757D01*
X77555Y21521D01*
X77345Y21245D01*
X77240Y20970D01*
Y20695D01*
X77345Y20419D01*
X77502Y20183D01*
X77712Y19987D01*
G01X77870Y18885D02*
X77502Y18649D01*
X77292Y18335D01*
X77240Y17981D01*
X77292Y17666D01*
X77555Y17351D01*
X77870Y17155D01*
X78185Y17115D01*
X78552Y17194D01*
X78815Y17469D01*
X78920Y17745D01*
Y18099D01*
G01Y17745D02*
X79077Y17509D01*
X79340Y17312D01*
X79655Y17233D01*
X79970Y17312D01*
X80232Y17509D01*
X80390Y17863D01*
X80338Y18217D01*
X80127Y18571D01*
G01X71077Y20105D02*
X71235Y20341D01*
X71340Y20616D01*
Y20931D01*
X71182Y21285D01*
X70920Y21560D01*
X70605Y21757D01*
X70080Y21914D01*
X69607Y21953D01*
X69135Y21875D01*
X68820Y21757D01*
X68505Y21521D01*
X68295Y21245D01*
X68190Y20970D01*
Y20695D01*
X68295Y20419D01*
X68452Y20183D01*
X68662Y19987D01*
G01X70815Y18767D02*
X71130Y18531D01*
X71288Y18256D01*
X71340Y17941D01*
X71235Y17548D01*
X70972Y17273D01*
X70658Y17194D01*
X70342Y17233D01*
X70080Y17391D01*
X69555Y18177D01*
X69187Y18531D01*
X68662Y18767D01*
X68190Y18846D01*
Y17194D01*
G01X73442Y35700D02*
Y41220D01*
G01X73402Y49370D02*
Y54690D01*
G01X73442Y35700D02*
Y41220D01*
G01X73402Y49370D02*
Y54690D01*
G01X80184Y54004D02*
X79948Y54162D01*
X79673Y54267D01*
X79358D01*
X79004Y54109D01*
X78729Y53847D01*
X78532Y53532D01*
X78375Y53007D01*
X78336Y52534D01*
X78414Y52062D01*
X78532Y51747D01*
X78768Y51432D01*
X79044Y51222D01*
X79319Y51117D01*
X79594D01*
X79870Y51222D01*
X80106Y51379D01*
X80302Y51589D01*
G01X81522Y53742D02*
X81758Y54057D01*
X82033Y54215D01*
X82348Y54267D01*
X82741Y54162D01*
X83016Y53899D01*
X83095Y53585D01*
X83056Y53269D01*
X82898Y53007D01*
X82112Y52482D01*
X81758Y52114D01*
X81522Y51589D01*
X81443Y51117D01*
X83095D01*
G01X84472Y53742D02*
X84708Y54057D01*
X84983Y54215D01*
X85298Y54267D01*
X85691Y54162D01*
X85966Y53899D01*
X86045Y53585D01*
X86006Y53269D01*
X85848Y53007D01*
X85062Y52482D01*
X84708Y52114D01*
X84472Y51589D01*
X84393Y51117D01*
X86045D01*
G01X63216Y72557D02*
Y75707D01*
X64200D01*
X64514Y75549D01*
X64711Y75339D01*
X64790Y74919D01*
X64711Y74499D01*
X64475Y74237D01*
X64200Y74079D01*
X63216D01*
G01X64200D02*
X64790Y72557D01*
G01X66953D02*
X67228Y72609D01*
X67543Y72767D01*
X67740Y73029D01*
X67818Y73397D01*
X67740Y73764D01*
X67504Y74079D01*
X67150Y74237D01*
X66756D01*
X66520Y74342D01*
X66324Y74604D01*
X66245Y74972D01*
X66363Y75339D01*
X66638Y75602D01*
X66953Y75707D01*
X67268Y75602D01*
X67543Y75339D01*
X67661Y74972D01*
X67582Y74604D01*
X67386Y74342D01*
X67150Y74237D01*
X66756D01*
X66402Y74079D01*
X66166Y73764D01*
X66088Y73397D01*
X66166Y73029D01*
X66363Y72767D01*
X66678Y72609D01*
X66953Y72557D01*
G01X81290Y75097D02*
X84440D01*
Y74113D01*
X84282Y73799D01*
X84072Y73602D01*
X83652Y73523D01*
X83232Y73602D01*
X82970Y73838D01*
X82812Y74113D01*
Y75097D01*
G01Y74113D02*
X81290Y73523D01*
G01Y71360D02*
X84440D01*
X83810Y71832D01*
G01X81290D02*
Y70888D01*
G01X83915Y69157D02*
X84230Y68921D01*
X84388Y68646D01*
X84440Y68331D01*
X84335Y67938D01*
X84072Y67663D01*
X83758Y67584D01*
X83442Y67623D01*
X83180Y67781D01*
X82655Y68567D01*
X82287Y68921D01*
X81762Y69157D01*
X81290Y69236D01*
Y67584D01*
G01X52683Y75760D02*
X52447Y75918D01*
X52172Y76023D01*
X51857D01*
X51503Y75865D01*
X51228Y75603D01*
X51031Y75288D01*
X50874Y74763D01*
X50835Y74290D01*
X50913Y73818D01*
X51031Y73503D01*
X51267Y73188D01*
X51543Y72978D01*
X51818Y72873D01*
X52093D01*
X52369Y72978D01*
X52605Y73135D01*
X52801Y73345D01*
G01X54021Y75498D02*
X54257Y75813D01*
X54532Y75971D01*
X54847Y76023D01*
X55240Y75918D01*
X55515Y75655D01*
X55594Y75341D01*
X55555Y75025D01*
X55397Y74763D01*
X54611Y74238D01*
X54257Y73870D01*
X54021Y73345D01*
X53942Y72873D01*
X55594D01*
G01X57718D02*
Y76023D01*
X57246Y75393D01*
G01Y72873D02*
X58190D01*
G01X59795Y83030D02*
Y80773D01*
X59952Y80300D01*
X60267Y79985D01*
X60660Y79880D01*
X61053Y79985D01*
X61368Y80300D01*
X61525Y80773D01*
Y83030D01*
G01X63610Y79880D02*
Y83030D01*
X63138Y82400D01*
G01Y79880D02*
X64082D01*
G01X67563Y135040D02*
Y138190D01*
X68507D01*
X68822Y138032D01*
X69058Y137665D01*
X69137Y137245D01*
X69058Y136825D01*
X68861Y136510D01*
X68507Y136352D01*
X67563D01*
G01X71300Y135040D02*
Y138190D01*
X70828Y137560D01*
G01Y135040D02*
X71772D01*
G01X74250Y138190D02*
X73935Y138085D01*
X73699Y137822D01*
X73542Y137508D01*
X73424Y137087D01*
X73385Y136615D01*
X73424Y136142D01*
X73542Y135722D01*
X73699Y135407D01*
X73935Y135145D01*
X74250Y135040D01*
X74565Y135145D01*
X74801Y135407D01*
X74958Y135722D01*
X75076Y136142D01*
X75115Y136615D01*
X75076Y137087D01*
X74958Y137508D01*
X74801Y137822D01*
X74565Y138085D01*
X74250Y138190D01*
G01X77563Y135040D02*
Y138190D01*
X78507D01*
X78822Y138032D01*
X79058Y137665D01*
X79137Y137245D01*
X79058Y136825D01*
X78861Y136510D01*
X78507Y136352D01*
X77563D01*
G01X80631Y135407D02*
X80907Y135145D01*
X81221Y135040D01*
X81536Y135145D01*
X81811Y135460D01*
X82008Y135933D01*
X82087Y136405D01*
Y136982D01*
X82008Y137455D01*
X81811Y137875D01*
X81575Y138085D01*
X81300Y138190D01*
X80985Y138085D01*
X80749Y137875D01*
X80592Y137560D01*
X80513Y137140D01*
X80592Y136773D01*
X80789Y136405D01*
X81025Y136195D01*
X81300Y136142D01*
X81615Y136247D01*
X81851Y136510D01*
X82087Y136982D01*
G01X57563Y135040D02*
Y138190D01*
X58507D01*
X58822Y138032D01*
X59058Y137665D01*
X59137Y137245D01*
X59058Y136825D01*
X58861Y136510D01*
X58507Y136352D01*
X57563D01*
G01X61300Y135040D02*
Y138190D01*
X60828Y137560D01*
G01Y135040D02*
X61772D01*
G01X64250D02*
Y138190D01*
X63778Y137560D01*
G01Y135040D02*
X64722D01*
G01X107083Y2760D02*
Y5910D01*
X108027D01*
X108342Y5752D01*
X108578Y5385D01*
X108657Y4965D01*
X108578Y4545D01*
X108381Y4230D01*
X108027Y4072D01*
X107083D01*
G01X110073Y5385D02*
X110309Y5700D01*
X110584Y5858D01*
X110899Y5910D01*
X111292Y5805D01*
X111567Y5542D01*
X111646Y5228D01*
X111607Y4912D01*
X111449Y4650D01*
X110663Y4125D01*
X110309Y3757D01*
X110073Y3232D01*
X109994Y2760D01*
X111646D01*
G01X113691D02*
X113770Y3442D01*
X113888Y4020D01*
X114045Y4545D01*
X114242Y5122D01*
X114557Y5910D01*
X112983D01*
G01X97083Y2760D02*
Y5910D01*
X98027D01*
X98342Y5752D01*
X98578Y5385D01*
X98657Y4965D01*
X98578Y4545D01*
X98381Y4230D01*
X98027Y4072D01*
X97083D01*
G01X100073Y5385D02*
X100309Y5700D01*
X100584Y5858D01*
X100899Y5910D01*
X101292Y5805D01*
X101567Y5542D01*
X101646Y5228D01*
X101607Y4912D01*
X101449Y4650D01*
X100663Y4125D01*
X100309Y3757D01*
X100073Y3232D01*
X99994Y2760D01*
X101646D01*
G01X103023Y4072D02*
X103298Y4440D01*
X103534Y4650D01*
X103849Y4755D01*
X104124Y4650D01*
X104321Y4440D01*
X104478Y4125D01*
X104517Y3757D01*
X104478Y3442D01*
X104321Y3127D01*
X104085Y2865D01*
X103809Y2760D01*
X103495Y2865D01*
X103219Y3180D01*
X103062Y3653D01*
X103023Y4177D01*
X103101Y4860D01*
X103219Y5228D01*
X103416Y5595D01*
X103691Y5858D01*
X103967Y5910D01*
X104242Y5805D01*
X104439Y5542D01*
G01X87083Y2760D02*
Y5910D01*
X88027D01*
X88342Y5752D01*
X88578Y5385D01*
X88657Y4965D01*
X88578Y4545D01*
X88381Y4230D01*
X88027Y4072D01*
X87083D01*
G01X90073Y5385D02*
X90309Y5700D01*
X90584Y5858D01*
X90899Y5910D01*
X91292Y5805D01*
X91567Y5542D01*
X91646Y5228D01*
X91607Y4912D01*
X91449Y4650D01*
X90663Y4125D01*
X90309Y3757D01*
X90073Y3232D01*
X89994Y2760D01*
X91646D01*
G01X92905Y3232D02*
X93141Y2970D01*
X93416Y2812D01*
X93770Y2760D01*
X94124Y2865D01*
X94399Y3075D01*
X94596Y3442D01*
X94635Y3862D01*
X94557Y4282D01*
X94360Y4545D01*
X94085Y4755D01*
X93809Y4807D01*
X93534Y4755D01*
X93180Y4545D01*
X93298Y5910D01*
X94360D01*
G01X110170Y25060D02*
Y26477D01*
X109383Y28210D01*
G01X110957D02*
X110170Y26477D01*
G01X113592Y25060D02*
Y28210D01*
X112137Y25953D01*
X114103D01*
G01X92542Y27359D02*
X95692D01*
Y28933D01*
G01X94380Y30349D02*
X94012Y30624D01*
X93802Y30860D01*
X93697Y31175D01*
X93802Y31450D01*
X94012Y31647D01*
X94327Y31804D01*
X94695Y31843D01*
X95010Y31804D01*
X95325Y31647D01*
X95587Y31411D01*
X95692Y31135D01*
X95587Y30821D01*
X95272Y30545D01*
X94799Y30388D01*
X94275Y30349D01*
X93592Y30427D01*
X93224Y30545D01*
X92857Y30742D01*
X92594Y31017D01*
X92542Y31293D01*
X92647Y31568D01*
X92910Y31765D01*
G01X90309Y56397D02*
X90073Y56555D01*
X89798Y56660D01*
X89483D01*
X89129Y56502D01*
X88854Y56240D01*
X88657Y55925D01*
X88500Y55400D01*
X88461Y54927D01*
X88539Y54455D01*
X88657Y54140D01*
X88893Y53825D01*
X89169Y53615D01*
X89444Y53510D01*
X89719D01*
X89995Y53615D01*
X90231Y53772D01*
X90427Y53982D01*
G01X91647Y56135D02*
X91883Y56450D01*
X92158Y56608D01*
X92473Y56660D01*
X92866Y56555D01*
X93141Y56292D01*
X93220Y55978D01*
X93181Y55662D01*
X93023Y55400D01*
X92237Y54875D01*
X91883Y54507D01*
X91647Y53982D01*
X91568Y53510D01*
X93220D01*
G01X94597Y54822D02*
X94872Y55190D01*
X95108Y55400D01*
X95423Y55505D01*
X95698Y55400D01*
X95895Y55190D01*
X96052Y54875D01*
X96091Y54507D01*
X96052Y54192D01*
X95895Y53877D01*
X95659Y53615D01*
X95383Y53510D01*
X95069Y53615D01*
X94793Y53930D01*
X94636Y54403D01*
X94597Y54927D01*
X94675Y55610D01*
X94793Y55978D01*
X94990Y56345D01*
X95265Y56608D01*
X95541Y56660D01*
X95816Y56555D01*
X96013Y56292D01*
G01X92423Y63070D02*
Y66220D01*
X93407D01*
X93721Y66062D01*
X93918Y65852D01*
X93997Y65432D01*
X93918Y65012D01*
X93682Y64750D01*
X93407Y64592D01*
X92423D01*
G01X93407D02*
X93997Y63070D01*
G01X95413Y65695D02*
X95649Y66010D01*
X95924Y66168D01*
X96239Y66220D01*
X96632Y66115D01*
X96907Y65852D01*
X96986Y65538D01*
X96947Y65222D01*
X96789Y64960D01*
X96003Y64435D01*
X95649Y64067D01*
X95413Y63542D01*
X95334Y63070D01*
X96986D01*
G01X92023Y70550D02*
Y73700D01*
X93007D01*
X93321Y73542D01*
X93518Y73332D01*
X93597Y72912D01*
X93518Y72492D01*
X93282Y72230D01*
X93007Y72072D01*
X92023D01*
G01X93007D02*
X93597Y70550D01*
G01X94895Y71180D02*
X95131Y70812D01*
X95445Y70602D01*
X95799Y70550D01*
X96114Y70602D01*
X96429Y70865D01*
X96625Y71180D01*
X96665Y71495D01*
X96586Y71862D01*
X96311Y72125D01*
X96035Y72230D01*
X95681D01*
G01X96035D02*
X96271Y72387D01*
X96468Y72650D01*
X96547Y72965D01*
X96468Y73280D01*
X96271Y73542D01*
X95917Y73700D01*
X95563Y73648D01*
X95209Y73437D01*
G01X99195Y83667D02*
X98959Y83825D01*
X98684Y83930D01*
X98369D01*
X98015Y83772D01*
X97740Y83510D01*
X97543Y83195D01*
X97386Y82670D01*
X97347Y82197D01*
X97425Y81725D01*
X97543Y81410D01*
X97779Y81095D01*
X98055Y80885D01*
X98330Y80780D01*
X98605D01*
X98881Y80885D01*
X99117Y81042D01*
X99313Y81252D01*
G01X101280Y80780D02*
Y83930D01*
X100808Y83300D01*
G01Y80780D02*
X101752D01*
G01X84420Y61712D02*
X84184Y61870D01*
X83909Y61975D01*
X83594D01*
X83240Y61817D01*
X82965Y61555D01*
X82768Y61240D01*
X82611Y60715D01*
X82572Y60242D01*
X82650Y59770D01*
X82768Y59455D01*
X83004Y59140D01*
X83280Y58930D01*
X83555Y58825D01*
X83830D01*
X84106Y58930D01*
X84342Y59087D01*
X84538Y59297D01*
G01X85758Y61450D02*
X85994Y61765D01*
X86269Y61923D01*
X86584Y61975D01*
X86977Y61870D01*
X87252Y61607D01*
X87331Y61293D01*
X87292Y60977D01*
X87134Y60715D01*
X86348Y60190D01*
X85994Y59822D01*
X85758Y59297D01*
X85679Y58825D01*
X87331D01*
G01X88590Y59455D02*
X88826Y59087D01*
X89140Y58877D01*
X89494Y58825D01*
X89809Y58877D01*
X90124Y59140D01*
X90320Y59455D01*
X90360Y59770D01*
X90281Y60137D01*
X90006Y60400D01*
X89730Y60505D01*
X89376D01*
G01X89730D02*
X89966Y60662D01*
X90163Y60925D01*
X90242Y61240D01*
X90163Y61555D01*
X89966Y61817D01*
X89612Y61975D01*
X89258Y61923D01*
X88904Y61712D01*
G01X103220Y103583D02*
X100070D01*
Y104567D01*
X100228Y104881D01*
X100438Y105078D01*
X100858Y105157D01*
X101278Y105078D01*
X101540Y104842D01*
X101698Y104567D01*
Y103583D01*
G01Y104567D02*
X103220Y105157D01*
G01X101908Y106573D02*
X101540Y106848D01*
X101330Y107084D01*
X101225Y107399D01*
X101330Y107674D01*
X101540Y107871D01*
X101855Y108028D01*
X102223Y108067D01*
X102538Y108028D01*
X102853Y107871D01*
X103115Y107635D01*
X103220Y107359D01*
X103115Y107045D01*
X102800Y106769D01*
X102327Y106612D01*
X101803Y106573D01*
X101120Y106651D01*
X100752Y106769D01*
X100385Y106966D01*
X100122Y107241D01*
X100070Y107517D01*
X100175Y107792D01*
X100438Y107989D01*
G01X87563Y135040D02*
Y138190D01*
X88507D01*
X88822Y138032D01*
X89058Y137665D01*
X89137Y137245D01*
X89058Y136825D01*
X88861Y136510D01*
X88507Y136352D01*
X87563D01*
G01X91300Y135040D02*
X91575Y135092D01*
X91890Y135250D01*
X92087Y135512D01*
X92165Y135880D01*
X92087Y136247D01*
X91851Y136562D01*
X91497Y136720D01*
X91103D01*
X90867Y136825D01*
X90671Y137087D01*
X90592Y137455D01*
X90710Y137822D01*
X90985Y138085D01*
X91300Y138190D01*
X91615Y138085D01*
X91890Y137822D01*
X92008Y137455D01*
X91929Y137087D01*
X91733Y136825D01*
X91497Y136720D01*
X91103D01*
X90749Y136562D01*
X90513Y136247D01*
X90435Y135880D01*
X90513Y135512D01*
X90710Y135250D01*
X91025Y135092D01*
X91300Y135040D01*
G01X107563D02*
Y138190D01*
X108507D01*
X108822Y138032D01*
X109058Y137665D01*
X109137Y137245D01*
X109058Y136825D01*
X108861Y136510D01*
X108507Y136352D01*
X107563D01*
G01X110553D02*
X110828Y136720D01*
X111064Y136930D01*
X111379Y137035D01*
X111654Y136930D01*
X111851Y136720D01*
X112008Y136405D01*
X112047Y136037D01*
X112008Y135722D01*
X111851Y135407D01*
X111615Y135145D01*
X111339Y135040D01*
X111025Y135145D01*
X110749Y135460D01*
X110592Y135933D01*
X110553Y136457D01*
X110631Y137140D01*
X110749Y137508D01*
X110946Y137875D01*
X111221Y138138D01*
X111497Y138190D01*
X111772Y138085D01*
X111969Y137822D01*
G01X97563Y135040D02*
Y138190D01*
X98507D01*
X98822Y138032D01*
X99058Y137665D01*
X99137Y137245D01*
X99058Y136825D01*
X98861Y136510D01*
X98507Y136352D01*
X97563D01*
G01X101221Y135040D02*
X101300Y135722D01*
X101418Y136300D01*
X101575Y136825D01*
X101772Y137402D01*
X102087Y138190D01*
X100513D01*
G01X95373Y112405D02*
Y115555D01*
X96357D01*
X96671Y115397D01*
X96868Y115187D01*
X96947Y114767D01*
X96868Y114347D01*
X96632Y114085D01*
X96357Y113927D01*
X95373D01*
G01X96357D02*
X96947Y112405D01*
G01X99110D02*
Y115555D01*
X98638Y114925D01*
G01Y112405D02*
X99582D01*
G01X102060Y115555D02*
X101745Y115450D01*
X101509Y115187D01*
X101352Y114873D01*
X101234Y114452D01*
X101195Y113980D01*
X101234Y113507D01*
X101352Y113087D01*
X101509Y112772D01*
X101745Y112510D01*
X102060Y112405D01*
X102375Y112510D01*
X102611Y112772D01*
X102768Y113087D01*
X102886Y113507D01*
X102925Y113980D01*
X102886Y114452D01*
X102768Y114873D01*
X102611Y115187D01*
X102375Y115450D01*
X102060Y115555D01*
G01X94629Y123037D02*
X94393Y123195D01*
X94118Y123300D01*
X93803D01*
X93449Y123142D01*
X93174Y122880D01*
X92977Y122565D01*
X92820Y122040D01*
X92781Y121567D01*
X92859Y121095D01*
X92977Y120780D01*
X93213Y120465D01*
X93489Y120255D01*
X93764Y120150D01*
X94039D01*
X94315Y120255D01*
X94551Y120412D01*
X94747Y120622D01*
G01X96635Y120150D02*
X96714Y120832D01*
X96832Y121410D01*
X96989Y121935D01*
X97186Y122512D01*
X97501Y123300D01*
X95927D01*
G01X137083Y2760D02*
Y5910D01*
X138027D01*
X138342Y5752D01*
X138578Y5385D01*
X138657Y4965D01*
X138578Y4545D01*
X138381Y4230D01*
X138027Y4072D01*
X137083D01*
G01X139955Y3390D02*
X140191Y3022D01*
X140505Y2812D01*
X140859Y2760D01*
X141174Y2812D01*
X141489Y3075D01*
X141685Y3390D01*
X141725Y3705D01*
X141646Y4072D01*
X141371Y4335D01*
X141095Y4440D01*
X140741D01*
G01X141095D02*
X141331Y4597D01*
X141528Y4860D01*
X141607Y5175D01*
X141528Y5490D01*
X141331Y5752D01*
X140977Y5910D01*
X140623Y5858D01*
X140269Y5647D01*
G01X143770Y5910D02*
X143455Y5805D01*
X143219Y5542D01*
X143062Y5228D01*
X142944Y4807D01*
X142905Y4335D01*
X142944Y3862D01*
X143062Y3442D01*
X143219Y3127D01*
X143455Y2865D01*
X143770Y2760D01*
X144085Y2865D01*
X144321Y3127D01*
X144478Y3442D01*
X144596Y3862D01*
X144635Y4335D01*
X144596Y4807D01*
X144478Y5228D01*
X144321Y5542D01*
X144085Y5805D01*
X143770Y5910D01*
G01X127083Y2760D02*
Y5910D01*
X128027D01*
X128342Y5752D01*
X128578Y5385D01*
X128657Y4965D01*
X128578Y4545D01*
X128381Y4230D01*
X128027Y4072D01*
X127083D01*
G01X130073Y5385D02*
X130309Y5700D01*
X130584Y5858D01*
X130899Y5910D01*
X131292Y5805D01*
X131567Y5542D01*
X131646Y5228D01*
X131607Y4912D01*
X131449Y4650D01*
X130663Y4125D01*
X130309Y3757D01*
X130073Y3232D01*
X129994Y2760D01*
X131646D01*
G01X133101Y3127D02*
X133377Y2865D01*
X133691Y2760D01*
X134006Y2865D01*
X134281Y3180D01*
X134478Y3653D01*
X134557Y4125D01*
Y4702D01*
X134478Y5175D01*
X134281Y5595D01*
X134045Y5805D01*
X133770Y5910D01*
X133455Y5805D01*
X133219Y5595D01*
X133062Y5280D01*
X132983Y4860D01*
X133062Y4493D01*
X133259Y4125D01*
X133495Y3915D01*
X133770Y3862D01*
X134085Y3967D01*
X134321Y4230D01*
X134557Y4702D01*
G01X117083Y2760D02*
Y5910D01*
X118027D01*
X118342Y5752D01*
X118578Y5385D01*
X118657Y4965D01*
X118578Y4545D01*
X118381Y4230D01*
X118027Y4072D01*
X117083D01*
G01X120073Y5385D02*
X120309Y5700D01*
X120584Y5858D01*
X120899Y5910D01*
X121292Y5805D01*
X121567Y5542D01*
X121646Y5228D01*
X121607Y4912D01*
X121449Y4650D01*
X120663Y4125D01*
X120309Y3757D01*
X120073Y3232D01*
X119994Y2760D01*
X121646D01*
G01X123770D02*
X124045Y2812D01*
X124360Y2970D01*
X124557Y3232D01*
X124635Y3600D01*
X124557Y3967D01*
X124321Y4282D01*
X123967Y4440D01*
X123573D01*
X123337Y4545D01*
X123141Y4807D01*
X123062Y5175D01*
X123180Y5542D01*
X123455Y5805D01*
X123770Y5910D01*
X124085Y5805D01*
X124360Y5542D01*
X124478Y5175D01*
X124399Y4807D01*
X124203Y4545D01*
X123967Y4440D01*
X123573D01*
X123219Y4282D01*
X122983Y3967D01*
X122905Y3600D01*
X122983Y3232D01*
X123180Y2970D01*
X123495Y2812D01*
X123770Y2760D01*
G01X160150Y29820D02*
X115330D01*
G01X115300Y29940D02*
Y35450D01*
G01X115210Y43640D02*
Y48960D01*
G01X160060Y48880D02*
X115260D01*
G01X160150Y29820D02*
X115330D01*
G01X132610Y22860D02*
Y24277D01*
X131823Y26010D01*
G01X133397D02*
X132610Y24277D01*
G01X134695Y23490D02*
X134931Y23122D01*
X135245Y22912D01*
X135599Y22860D01*
X135914Y22912D01*
X136229Y23175D01*
X136425Y23490D01*
X136465Y23805D01*
X136386Y24172D01*
X136111Y24435D01*
X135835Y24540D01*
X135481D01*
G01X135835D02*
X136071Y24697D01*
X136268Y24960D01*
X136347Y25275D01*
X136268Y25590D01*
X136071Y25852D01*
X135717Y26010D01*
X135363Y25958D01*
X135009Y25747D01*
G01X116503Y64840D02*
Y67990D01*
X117487D01*
X117801Y67832D01*
X117998Y67622D01*
X118077Y67202D01*
X117998Y66782D01*
X117762Y66520D01*
X117487Y66362D01*
X116503D01*
G01X117487D02*
X118077Y64840D01*
G01X120240D02*
Y67990D01*
X119768Y67360D01*
G01Y64840D02*
X120712D01*
G01X123190D02*
Y67990D01*
X122718Y67360D01*
G01Y64840D02*
X123662D01*
G01X127327Y78365D02*
X127485Y78601D01*
X127590Y78876D01*
Y79191D01*
X127432Y79545D01*
X127170Y79820D01*
X126855Y80017D01*
X126330Y80174D01*
X125857Y80213D01*
X125385Y80135D01*
X125070Y80017D01*
X124755Y79781D01*
X124545Y79505D01*
X124440Y79230D01*
Y78955D01*
X124545Y78679D01*
X124702Y78443D01*
X124912Y78247D01*
G01Y77145D02*
X124650Y76909D01*
X124492Y76634D01*
X124440Y76280D01*
X124545Y75926D01*
X124755Y75651D01*
X125122Y75454D01*
X125542Y75415D01*
X125962Y75493D01*
X126225Y75690D01*
X126435Y75965D01*
X126487Y76241D01*
X126435Y76516D01*
X126225Y76870D01*
X127590Y76752D01*
Y75690D01*
G01X124793Y61855D02*
X124635Y61619D01*
X124530Y61344D01*
Y61029D01*
X124688Y60675D01*
X124950Y60400D01*
X125265Y60203D01*
X125790Y60046D01*
X126263Y60007D01*
X126735Y60085D01*
X127050Y60203D01*
X127365Y60439D01*
X127575Y60715D01*
X127680Y60990D01*
Y61265D01*
X127575Y61541D01*
X127418Y61777D01*
X127208Y61973D01*
G01X125055Y63193D02*
X124740Y63429D01*
X124582Y63704D01*
X124530Y64019D01*
X124635Y64412D01*
X124898Y64687D01*
X125212Y64766D01*
X125528Y64727D01*
X125790Y64569D01*
X126315Y63783D01*
X126683Y63429D01*
X127208Y63193D01*
X127680Y63114D01*
Y64766D01*
G01Y67362D02*
X124530D01*
X126787Y65907D01*
Y67873D01*
G01X142837Y69515D02*
X142995Y69751D01*
X143100Y70026D01*
Y70341D01*
X142942Y70695D01*
X142680Y70970D01*
X142365Y71167D01*
X141840Y71324D01*
X141367Y71363D01*
X140895Y71285D01*
X140580Y71167D01*
X140265Y70931D01*
X140055Y70655D01*
X139950Y70380D01*
Y70105D01*
X140055Y69829D01*
X140212Y69593D01*
X140422Y69397D01*
G01X139950Y67430D02*
X143100D01*
X142470Y67902D01*
G01X139950D02*
Y66958D01*
G01X140580Y65345D02*
X140212Y65109D01*
X140002Y64795D01*
X139950Y64441D01*
X140002Y64126D01*
X140265Y63811D01*
X140580Y63615D01*
X140895Y63575D01*
X141262Y63654D01*
X141525Y63929D01*
X141630Y64205D01*
Y64559D01*
G01Y64205D02*
X141787Y63969D01*
X142050Y63772D01*
X142365Y63693D01*
X142680Y63772D01*
X142942Y63969D01*
X143100Y64323D01*
X143048Y64677D01*
X142837Y65031D01*
G01X139485Y83170D02*
Y80913D01*
X139642Y80440D01*
X139957Y80125D01*
X140350Y80020D01*
X140743Y80125D01*
X141058Y80440D01*
X141215Y80913D01*
Y83170D01*
G01X142553Y82645D02*
X142789Y82960D01*
X143064Y83118D01*
X143379Y83170D01*
X143772Y83065D01*
X144047Y82802D01*
X144126Y82488D01*
X144087Y82172D01*
X143929Y81910D01*
X143143Y81385D01*
X142789Y81017D01*
X142553Y80492D01*
X142474Y80020D01*
X144126D01*
G01X119290Y107090D02*
X116140D01*
X116770Y106618D01*
G01X119290D02*
Y107562D01*
G01X115012Y86300D02*
Y89450D01*
X115996D01*
X116310Y89292D01*
X116507Y89082D01*
X116586Y88662D01*
X116507Y88242D01*
X116271Y87980D01*
X115996Y87822D01*
X115012D01*
G01X115996D02*
X116586Y86300D01*
G01X117884Y86772D02*
X118120Y86510D01*
X118395Y86352D01*
X118749Y86300D01*
X119103Y86405D01*
X119378Y86615D01*
X119575Y86982D01*
X119614Y87402D01*
X119536Y87822D01*
X119339Y88085D01*
X119064Y88295D01*
X118788Y88347D01*
X118513Y88295D01*
X118159Y88085D01*
X118277Y89450D01*
X119339D01*
G01X113320Y100637D02*
X116470D01*
Y99653D01*
X116312Y99339D01*
X116102Y99142D01*
X115682Y99063D01*
X115262Y99142D01*
X115000Y99378D01*
X114842Y99653D01*
Y100637D01*
G01Y99653D02*
X113320Y99063D01*
G01Y96428D02*
X116470D01*
X114213Y97883D01*
Y95917D01*
G01X127563Y135040D02*
Y138190D01*
X128507D01*
X128822Y138032D01*
X129058Y137665D01*
X129137Y137245D01*
X129058Y136825D01*
X128861Y136510D01*
X128507Y136352D01*
X127563D01*
G01X131772Y135040D02*
Y138190D01*
X130317Y135933D01*
X132283D01*
G01X137563Y135040D02*
Y138190D01*
X138507D01*
X138822Y138032D01*
X139058Y137665D01*
X139137Y137245D01*
X139058Y136825D01*
X138861Y136510D01*
X138507Y136352D01*
X137563D01*
G01X140435Y135670D02*
X140671Y135302D01*
X140985Y135092D01*
X141339Y135040D01*
X141654Y135092D01*
X141969Y135355D01*
X142165Y135670D01*
X142205Y135985D01*
X142126Y136352D01*
X141851Y136615D01*
X141575Y136720D01*
X141221D01*
G01X141575D02*
X141811Y136877D01*
X142008Y137140D01*
X142087Y137455D01*
X142008Y137770D01*
X141811Y138032D01*
X141457Y138190D01*
X141103Y138138D01*
X140749Y137927D01*
G01X117563Y135040D02*
Y138190D01*
X118507D01*
X118822Y138032D01*
X119058Y137665D01*
X119137Y137245D01*
X119058Y136825D01*
X118861Y136510D01*
X118507Y136352D01*
X117563D01*
G01X120435Y135512D02*
X120671Y135250D01*
X120946Y135092D01*
X121300Y135040D01*
X121654Y135145D01*
X121929Y135355D01*
X122126Y135722D01*
X122165Y136142D01*
X122087Y136562D01*
X121890Y136825D01*
X121615Y137035D01*
X121339Y137087D01*
X121064Y137035D01*
X120710Y136825D01*
X120828Y138190D01*
X121890D01*
G01X133133Y124390D02*
Y127540D01*
X134117D01*
X134431Y127382D01*
X134628Y127172D01*
X134707Y126752D01*
X134628Y126332D01*
X134392Y126070D01*
X134117Y125912D01*
X133133D01*
G01X134117D02*
X134707Y124390D01*
G01X136870D02*
Y127540D01*
X136398Y126910D01*
G01Y124390D02*
X137342D01*
G01X114897Y120161D02*
X114739Y119925D01*
X114634Y119650D01*
Y119335D01*
X114792Y118981D01*
X115054Y118706D01*
X115369Y118509D01*
X115894Y118352D01*
X116367Y118313D01*
X116839Y118391D01*
X117154Y118509D01*
X117469Y118745D01*
X117679Y119021D01*
X117784Y119296D01*
Y119571D01*
X117679Y119847D01*
X117522Y120083D01*
X117312Y120279D01*
G01X117784Y122246D02*
X114634D01*
X115264Y121774D01*
G01X117784D02*
Y122718D01*
G01X115159Y124449D02*
X114844Y124685D01*
X114686Y124960D01*
X114634Y125275D01*
X114739Y125668D01*
X115002Y125943D01*
X115316Y126022D01*
X115632Y125983D01*
X115894Y125825D01*
X116419Y125039D01*
X116787Y124685D01*
X117312Y124449D01*
X117784Y124370D01*
Y126022D01*
G01X169723Y10155D02*
X169959Y10470D01*
X170234Y10628D01*
X170549Y10680D01*
X170942Y10575D01*
X171217Y10312D01*
X171296Y9998D01*
X171257Y9682D01*
X171099Y9420D01*
X170313Y8895D01*
X169959Y8527D01*
X169723Y8002D01*
X169644Y7530D01*
X171296D01*
G01X172555Y8002D02*
X172791Y7740D01*
X173066Y7582D01*
X173420Y7530D01*
X173774Y7635D01*
X174049Y7845D01*
X174246Y8212D01*
X174285Y8632D01*
X174207Y9052D01*
X174010Y9315D01*
X173735Y9525D01*
X173459Y9577D01*
X173184Y9525D01*
X172830Y9315D01*
X172948Y10680D01*
X174010D01*
G01X176370D02*
X176055Y10575D01*
X175819Y10312D01*
X175662Y9998D01*
X175544Y9577D01*
X175505Y9105D01*
X175544Y8632D01*
X175662Y8212D01*
X175819Y7897D01*
X176055Y7635D01*
X176370Y7530D01*
X176685Y7635D01*
X176921Y7897D01*
X177078Y8212D01*
X177196Y8632D01*
X177235Y9105D01*
X177196Y9577D01*
X177078Y9998D01*
X176921Y10312D01*
X176685Y10575D01*
X176370Y10680D01*
G01X179320Y7530D02*
Y10680D01*
X178848Y10050D01*
G01Y7530D02*
X179792D01*
G01X181523Y10155D02*
X181759Y10470D01*
X182034Y10628D01*
X182349Y10680D01*
X182742Y10575D01*
X183017Y10312D01*
X183096Y9998D01*
X183057Y9682D01*
X182899Y9420D01*
X182113Y8895D01*
X181759Y8527D01*
X181523Y8002D01*
X181444Y7530D01*
X183096D01*
G01X185220Y10680D02*
X184905Y10575D01*
X184669Y10312D01*
X184512Y9998D01*
X184394Y9577D01*
X184355Y9105D01*
X184394Y8632D01*
X184512Y8212D01*
X184669Y7897D01*
X184905Y7635D01*
X185220Y7530D01*
X185535Y7635D01*
X185771Y7897D01*
X185928Y8212D01*
X186046Y8632D01*
X186085Y9105D01*
X186046Y9577D01*
X185928Y9998D01*
X185771Y10312D01*
X185535Y10575D01*
X185220Y10680D01*
G01X188170Y7530D02*
Y10680D01*
X187698Y10050D01*
G01Y7530D02*
X188642D01*
G01X190373Y10155D02*
X190609Y10470D01*
X190884Y10628D01*
X191199Y10680D01*
X191592Y10575D01*
X191867Y10312D01*
X191946Y9998D01*
X191907Y9682D01*
X191749Y9420D01*
X190963Y8895D01*
X190609Y8527D01*
X190373Y8002D01*
X190294Y7530D01*
X191946D01*
G01X196233D02*
Y10680D01*
X197217D01*
X197531Y10522D01*
X197728Y10312D01*
X197807Y9892D01*
X197728Y9472D01*
X197492Y9210D01*
X197217Y9052D01*
X196233D01*
G01X197217D02*
X197807Y7530D01*
G01X199380Y8947D02*
X200639D01*
X200521Y9315D01*
X200324Y9525D01*
X200049Y9630D01*
X199773Y9577D01*
X199537Y9420D01*
X199380Y9052D01*
X199301Y8737D01*
Y8423D01*
X199380Y8107D01*
X199577Y7792D01*
X199813Y7582D01*
X200088Y7530D01*
X200363Y7635D01*
X200639Y7950D01*
G01X202212Y9630D02*
X202920Y7530D01*
X203628Y9630D01*
G01X205870Y7425D02*
X205791Y7478D01*
Y7582D01*
X205870Y7635D01*
X205949Y7582D01*
Y7478D01*
X205870Y7425D01*
G01X208820Y10680D02*
X208505Y10575D01*
X208269Y10312D01*
X208112Y9998D01*
X207994Y9577D01*
X207955Y9105D01*
X207994Y8632D01*
X208112Y8212D01*
X208269Y7897D01*
X208505Y7635D01*
X208820Y7530D01*
X209135Y7635D01*
X209371Y7897D01*
X209528Y8212D01*
X209646Y8632D01*
X209685Y9105D01*
X209646Y9577D01*
X209528Y9998D01*
X209371Y10312D01*
X209135Y10575D01*
X208820Y10680D01*
G01X147083Y2760D02*
Y5910D01*
X148027D01*
X148342Y5752D01*
X148578Y5385D01*
X148657Y4965D01*
X148578Y4545D01*
X148381Y4230D01*
X148027Y4072D01*
X147083D01*
G01X149955Y3390D02*
X150191Y3022D01*
X150505Y2812D01*
X150859Y2760D01*
X151174Y2812D01*
X151489Y3075D01*
X151685Y3390D01*
X151725Y3705D01*
X151646Y4072D01*
X151371Y4335D01*
X151095Y4440D01*
X150741D01*
G01X151095D02*
X151331Y4597D01*
X151528Y4860D01*
X151607Y5175D01*
X151528Y5490D01*
X151331Y5752D01*
X150977Y5910D01*
X150623Y5858D01*
X150269Y5647D01*
G01X153770Y2760D02*
Y5910D01*
X153298Y5280D01*
G01Y2760D02*
X154242D01*
G01X160190Y29860D02*
Y35370D01*
G01X160150Y43530D02*
Y48840D01*
G01X160190Y29860D02*
Y35370D01*
G01X160150Y43530D02*
Y48840D01*
G01X161130Y63527D02*
X164280D01*
Y62543D01*
X164122Y62229D01*
X163912Y62032D01*
X163492Y61953D01*
X163072Y62032D01*
X162810Y62268D01*
X162652Y62543D01*
Y63527D01*
G01Y62543D02*
X161130Y61953D01*
G01X161497Y60459D02*
X161235Y60183D01*
X161130Y59869D01*
X161235Y59554D01*
X161550Y59279D01*
X162023Y59082D01*
X162495Y59003D01*
X163072D01*
X163545Y59082D01*
X163965Y59279D01*
X164175Y59515D01*
X164280Y59790D01*
X164175Y60105D01*
X163965Y60341D01*
X163650Y60498D01*
X163230Y60577D01*
X162863Y60498D01*
X162495Y60301D01*
X162285Y60065D01*
X162232Y59790D01*
X162337Y59475D01*
X162600Y59239D01*
X163072Y59003D01*
G01X170655Y72977D02*
X170419Y73135D01*
X170144Y73240D01*
X169829D01*
X169475Y73082D01*
X169200Y72820D01*
X169003Y72505D01*
X168846Y71980D01*
X168807Y71507D01*
X168885Y71035D01*
X169003Y70720D01*
X169239Y70405D01*
X169515Y70195D01*
X169790Y70090D01*
X170065D01*
X170341Y70195D01*
X170577Y70352D01*
X170773Y70562D01*
G01X172740Y70090D02*
Y73240D01*
X172268Y72610D01*
G01Y70090D02*
X173212D01*
G01X174825Y70562D02*
X175061Y70300D01*
X175336Y70142D01*
X175690Y70090D01*
X176044Y70195D01*
X176319Y70405D01*
X176516Y70772D01*
X176555Y71192D01*
X176477Y71612D01*
X176280Y71875D01*
X176005Y72085D01*
X175729Y72137D01*
X175454Y72085D01*
X175100Y71875D01*
X175218Y73240D01*
X176280D01*
G01X149195Y77767D02*
X148959Y77925D01*
X148684Y78030D01*
X148369D01*
X148015Y77872D01*
X147740Y77610D01*
X147543Y77295D01*
X147386Y76770D01*
X147347Y76297D01*
X147425Y75825D01*
X147543Y75510D01*
X147779Y75195D01*
X148055Y74985D01*
X148330Y74880D01*
X148605D01*
X148881Y74985D01*
X149117Y75142D01*
X149313Y75352D01*
G01X151280Y74880D02*
Y78030D01*
X150808Y77400D01*
G01Y74880D02*
X151752D01*
G01X154230Y78030D02*
X153915Y77925D01*
X153679Y77662D01*
X153522Y77348D01*
X153404Y76927D01*
X153365Y76455D01*
X153404Y75982D01*
X153522Y75562D01*
X153679Y75247D01*
X153915Y74985D01*
X154230Y74880D01*
X154545Y74985D01*
X154781Y75247D01*
X154938Y75562D01*
X155056Y75982D01*
X155095Y76455D01*
X155056Y76927D01*
X154938Y77348D01*
X154781Y77662D01*
X154545Y77925D01*
X154230Y78030D01*
G01X148463Y61835D02*
X148305Y61599D01*
X148200Y61324D01*
Y61009D01*
X148358Y60655D01*
X148620Y60380D01*
X148935Y60183D01*
X149460Y60026D01*
X149933Y59987D01*
X150405Y60065D01*
X150720Y60183D01*
X151035Y60419D01*
X151245Y60695D01*
X151350Y60970D01*
Y61245D01*
X151245Y61521D01*
X151088Y61757D01*
X150878Y61953D01*
G01X148725Y63173D02*
X148410Y63409D01*
X148252Y63684D01*
X148200Y63999D01*
X148305Y64392D01*
X148568Y64667D01*
X148882Y64746D01*
X149198Y64707D01*
X149460Y64549D01*
X149985Y63763D01*
X150353Y63409D01*
X150878Y63173D01*
X151350Y63094D01*
Y64746D01*
G01X150878Y66005D02*
X151140Y66241D01*
X151298Y66516D01*
X151350Y66870D01*
X151245Y67224D01*
X151035Y67499D01*
X150668Y67696D01*
X150248Y67735D01*
X149828Y67657D01*
X149565Y67460D01*
X149355Y67185D01*
X149303Y66909D01*
X149355Y66634D01*
X149565Y66280D01*
X148200Y66398D01*
Y67460D01*
G01X142023Y105190D02*
Y102040D01*
X143597D01*
G01X145760D02*
X146035Y102092D01*
X146350Y102250D01*
X146547Y102512D01*
X146625Y102880D01*
X146547Y103247D01*
X146311Y103562D01*
X145957Y103720D01*
X145563D01*
X145327Y103825D01*
X145131Y104087D01*
X145052Y104455D01*
X145170Y104822D01*
X145445Y105085D01*
X145760Y105190D01*
X146075Y105085D01*
X146350Y104822D01*
X146468Y104455D01*
X146389Y104087D01*
X146193Y103825D01*
X145957Y103720D01*
X145563D01*
X145209Y103562D01*
X144973Y103247D01*
X144895Y102880D01*
X144973Y102512D01*
X145170Y102250D01*
X145485Y102092D01*
X145760Y102040D01*
G01X142423Y88660D02*
Y85510D01*
X143997D01*
G01X146081D02*
X146160Y86192D01*
X146278Y86770D01*
X146435Y87295D01*
X146632Y87872D01*
X146947Y88660D01*
X145373D01*
G01X164410Y82623D02*
X167560D01*
Y84197D01*
G01X164935Y85613D02*
X164620Y85849D01*
X164462Y86124D01*
X164410Y86439D01*
X164515Y86832D01*
X164778Y87107D01*
X165092Y87186D01*
X165408Y87147D01*
X165670Y86989D01*
X166195Y86203D01*
X166563Y85849D01*
X167088Y85613D01*
X167560Y85534D01*
Y87186D01*
G01X162283Y102935D02*
X162125Y102699D01*
X162020Y102424D01*
Y102109D01*
X162178Y101755D01*
X162440Y101480D01*
X162755Y101283D01*
X163280Y101126D01*
X163753Y101087D01*
X164225Y101165D01*
X164540Y101283D01*
X164855Y101519D01*
X165065Y101795D01*
X165170Y102070D01*
Y102345D01*
X165065Y102621D01*
X164908Y102857D01*
X164698Y103053D01*
G01X162545Y104273D02*
X162230Y104509D01*
X162072Y104784D01*
X162020Y105099D01*
X162125Y105492D01*
X162388Y105767D01*
X162702Y105846D01*
X163018Y105807D01*
X163280Y105649D01*
X163805Y104863D01*
X164173Y104509D01*
X164698Y104273D01*
X165170Y104194D01*
Y105846D01*
G01Y107891D02*
X164488Y107970D01*
X163910Y108088D01*
X163385Y108245D01*
X162808Y108442D01*
X162020Y108757D01*
Y107183D01*
G01X170073Y110155D02*
X169915Y109919D01*
X169810Y109644D01*
Y109329D01*
X169968Y108975D01*
X170230Y108700D01*
X170545Y108503D01*
X171070Y108346D01*
X171543Y108307D01*
X172015Y108385D01*
X172330Y108503D01*
X172645Y108739D01*
X172855Y109015D01*
X172960Y109290D01*
Y109565D01*
X172855Y109841D01*
X172698Y110077D01*
X172488Y110273D01*
G01X172960Y112240D02*
X169810D01*
X170440Y111768D01*
G01X172960D02*
Y112712D01*
G01X172593Y114521D02*
X172855Y114797D01*
X172960Y115111D01*
X172855Y115426D01*
X172540Y115701D01*
X172067Y115898D01*
X171595Y115977D01*
X171018D01*
X170545Y115898D01*
X170125Y115701D01*
X169915Y115465D01*
X169810Y115190D01*
X169915Y114875D01*
X170125Y114639D01*
X170440Y114482D01*
X170860Y114403D01*
X171227Y114482D01*
X171595Y114679D01*
X171805Y114915D01*
X171858Y115190D01*
X171753Y115505D01*
X171490Y115741D01*
X171018Y115977D01*
G01X149195Y113587D02*
X148959Y113745D01*
X148684Y113850D01*
X148369D01*
X148015Y113692D01*
X147740Y113430D01*
X147543Y113115D01*
X147386Y112590D01*
X147347Y112117D01*
X147425Y111645D01*
X147543Y111330D01*
X147779Y111015D01*
X148055Y110805D01*
X148330Y110700D01*
X148605D01*
X148881Y110805D01*
X149117Y110962D01*
X149313Y111172D01*
G01X151280Y110700D02*
X151555Y110752D01*
X151870Y110910D01*
X152067Y111172D01*
X152145Y111540D01*
X152067Y111907D01*
X151831Y112222D01*
X151477Y112380D01*
X151083D01*
X150847Y112485D01*
X150651Y112747D01*
X150572Y113115D01*
X150690Y113482D01*
X150965Y113745D01*
X151280Y113850D01*
X151595Y113745D01*
X151870Y113482D01*
X151988Y113115D01*
X151909Y112747D01*
X151713Y112485D01*
X151477Y112380D01*
X151083D01*
X150729Y112222D01*
X150493Y111907D01*
X150415Y111540D01*
X150493Y111172D01*
X150690Y110910D01*
X151005Y110752D01*
X151280Y110700D01*
G01X157563Y135040D02*
Y138190D01*
X158507D01*
X158822Y138032D01*
X159058Y137665D01*
X159137Y137245D01*
X159058Y136825D01*
X158861Y136510D01*
X158507Y136352D01*
X157563D01*
G01X161300Y135040D02*
Y138190D01*
X160828Y137560D01*
G01Y135040D02*
X161772D01*
G01X147563D02*
Y138190D01*
X148507D01*
X148822Y138032D01*
X149058Y137665D01*
X149137Y137245D01*
X149058Y136825D01*
X148861Y136510D01*
X148507Y136352D01*
X147563D01*
G01X150553Y137665D02*
X150789Y137980D01*
X151064Y138138D01*
X151379Y138190D01*
X151772Y138085D01*
X152047Y137822D01*
X152126Y137508D01*
X152087Y137192D01*
X151929Y136930D01*
X151143Y136405D01*
X150789Y136037D01*
X150553Y135512D01*
X150474Y135040D01*
X152126D01*
G01X145957Y114935D02*
X146115Y115171D01*
X146220Y115446D01*
Y115761D01*
X146062Y116115D01*
X145800Y116390D01*
X145485Y116587D01*
X144960Y116744D01*
X144487Y116783D01*
X144015Y116705D01*
X143700Y116587D01*
X143385Y116351D01*
X143175Y116075D01*
X143070Y115800D01*
Y115525D01*
X143175Y115249D01*
X143332Y115013D01*
X143542Y114817D01*
G01X143070Y112378D02*
X146220D01*
X143963Y113833D01*
Y111867D01*
G01X188873Y68190D02*
Y65040D01*
X190447D01*
G01X191941Y65407D02*
X192217Y65145D01*
X192531Y65040D01*
X192846Y65145D01*
X193121Y65460D01*
X193318Y65933D01*
X193397Y66405D01*
Y66982D01*
X193318Y67455D01*
X193121Y67875D01*
X192885Y68085D01*
X192610Y68190D01*
X192295Y68085D01*
X192059Y67875D01*
X191902Y67560D01*
X191823Y67140D01*
X191902Y66773D01*
X192099Y66405D01*
X192335Y66195D01*
X192610Y66142D01*
X192925Y66247D01*
X193161Y66510D01*
X193397Y66982D01*
G01X199137Y82895D02*
X199295Y83131D01*
X199400Y83406D01*
Y83721D01*
X199242Y84075D01*
X198980Y84350D01*
X198665Y84547D01*
X198140Y84704D01*
X197667Y84743D01*
X197195Y84665D01*
X196880Y84547D01*
X196565Y84311D01*
X196355Y84035D01*
X196250Y83760D01*
Y83485D01*
X196355Y83209D01*
X196512Y82973D01*
X196722Y82777D01*
G01X198875Y81557D02*
X199190Y81321D01*
X199348Y81046D01*
X199400Y80731D01*
X199295Y80338D01*
X199032Y80063D01*
X198718Y79984D01*
X198402Y80023D01*
X198140Y80181D01*
X197615Y80967D01*
X197247Y81321D01*
X196722Y81557D01*
X196250Y81636D01*
Y79984D01*
G01Y77860D02*
X196302Y77585D01*
X196460Y77270D01*
X196722Y77073D01*
X197090Y76995D01*
X197457Y77073D01*
X197772Y77309D01*
X197930Y77663D01*
Y78057D01*
X198035Y78293D01*
X198297Y78489D01*
X198665Y78568D01*
X199032Y78450D01*
X199295Y78175D01*
X199400Y77860D01*
X199295Y77545D01*
X199032Y77270D01*
X198665Y77152D01*
X198297Y77231D01*
X198035Y77427D01*
X197930Y77663D01*
Y78057D01*
X197772Y78411D01*
X197457Y78647D01*
X197090Y78725D01*
X196722Y78647D01*
X196460Y78450D01*
X196302Y78135D01*
X196250Y77860D01*
G01X185797Y79335D02*
X185955Y79571D01*
X186060Y79846D01*
Y80161D01*
X185902Y80515D01*
X185640Y80790D01*
X185325Y80987D01*
X184800Y81144D01*
X184327Y81183D01*
X183855Y81105D01*
X183540Y80987D01*
X183225Y80751D01*
X183015Y80475D01*
X182910Y80200D01*
Y79925D01*
X183015Y79649D01*
X183172Y79413D01*
X183382Y79217D01*
G01X182910Y77250D02*
X186060D01*
X185430Y77722D01*
G01X182910D02*
Y76778D01*
G01Y73828D02*
X186060D01*
X183803Y75283D01*
Y73317D01*
G01X176283Y111490D02*
Y108340D01*
X177857D01*
G01X179155Y108812D02*
X179391Y108550D01*
X179666Y108392D01*
X180020Y108340D01*
X180374Y108445D01*
X180649Y108655D01*
X180846Y109022D01*
X180885Y109442D01*
X180807Y109862D01*
X180610Y110125D01*
X180335Y110335D01*
X180059Y110387D01*
X179784Y110335D01*
X179430Y110125D01*
X179548Y111490D01*
X180610D01*
G01X198073Y102690D02*
Y99540D01*
X199647D01*
G01X202282D02*
Y102690D01*
X200827Y100433D01*
X202793D01*
G01X178243Y96930D02*
Y93780D01*
X179817D01*
G01X181115Y94410D02*
X181351Y94042D01*
X181665Y93832D01*
X182019Y93780D01*
X182334Y93832D01*
X182649Y94095D01*
X182845Y94410D01*
X182885Y94725D01*
X182806Y95092D01*
X182531Y95355D01*
X182255Y95460D01*
X181901D01*
G01X182255D02*
X182491Y95617D01*
X182688Y95880D01*
X182767Y96195D01*
X182688Y96510D01*
X182491Y96772D01*
X182137Y96930D01*
X181783Y96878D01*
X181429Y96667D01*
G01X199337Y110785D02*
X199495Y111021D01*
X199600Y111296D01*
Y111611D01*
X199442Y111965D01*
X199180Y112240D01*
X198865Y112437D01*
X198340Y112594D01*
X197867Y112633D01*
X197395Y112555D01*
X197080Y112437D01*
X196765Y112201D01*
X196555Y111925D01*
X196450Y111650D01*
Y111375D01*
X196555Y111099D01*
X196712Y110863D01*
X196922Y110667D01*
G01X196450Y108700D02*
X199600D01*
X198970Y109172D01*
G01X196450D02*
Y108228D01*
G01Y105829D02*
X197132Y105750D01*
X197710Y105632D01*
X198235Y105475D01*
X198812Y105278D01*
X199600Y104963D01*
Y106537D01*
G01X219950Y10240D02*
Y12600D01*
G01X218900Y13505D02*
X215750D01*
Y14291D01*
X215908Y14606D01*
X216118Y14842D01*
X216432Y15039D01*
X216800Y15196D01*
X217325Y15235D01*
X217850Y15196D01*
X218218Y15039D01*
X218533Y14842D01*
X218743Y14606D01*
X218900Y14291D01*
Y13505D01*
G01X217220Y17635D02*
X217063Y17792D01*
X216800Y17910D01*
X216432Y17989D01*
X216118Y17910D01*
X215908Y17753D01*
X215750Y17477D01*
Y16415D01*
X218900D01*
Y17713D01*
X218690Y17989D01*
X218375Y18146D01*
X218007Y18225D01*
X217640Y18146D01*
X217325Y17910D01*
X217220Y17635D01*
Y16415D01*
G01X219950Y19090D02*
Y21450D01*
G01X215393Y49090D02*
X215590Y48775D01*
X215826Y48565D01*
X216101Y48460D01*
X216416Y48565D01*
X216652Y48775D01*
X216888Y49090D01*
X216967Y49510D01*
Y51610D01*
G01X219130Y48460D02*
Y51610D01*
X218658Y50980D01*
G01Y48460D02*
X219602D01*
G01X209077Y75945D02*
X209235Y76181D01*
X209340Y76456D01*
Y76771D01*
X209182Y77125D01*
X208920Y77400D01*
X208605Y77597D01*
X208080Y77754D01*
X207607Y77793D01*
X207135Y77715D01*
X206820Y77597D01*
X206505Y77361D01*
X206295Y77085D01*
X206190Y76810D01*
Y76535D01*
X206295Y76259D01*
X206452Y76023D01*
X206662Y75827D01*
G01X206190Y73860D02*
X209340D01*
X208710Y74332D01*
G01X206190D02*
Y73388D01*
G01X207502Y71657D02*
X207870Y71382D01*
X208080Y71146D01*
X208185Y70831D01*
X208080Y70556D01*
X207870Y70359D01*
X207555Y70202D01*
X207187Y70163D01*
X206872Y70202D01*
X206557Y70359D01*
X206295Y70595D01*
X206190Y70871D01*
X206295Y71185D01*
X206610Y71461D01*
X207083Y71618D01*
X207607Y71657D01*
X208290Y71579D01*
X208658Y71461D01*
X209025Y71264D01*
X209288Y70989D01*
X209340Y70713D01*
X209235Y70438D01*
X208972Y70241D01*
G01X219225Y97087D02*
X218989Y97245D01*
X218714Y97350D01*
X218399D01*
X218045Y97192D01*
X217770Y96930D01*
X217573Y96615D01*
X217416Y96090D01*
X217377Y95617D01*
X217455Y95145D01*
X217573Y94830D01*
X217809Y94515D01*
X218085Y94305D01*
X218360Y94200D01*
X218635D01*
X218911Y94305D01*
X219147Y94462D01*
X219343Y94672D01*
G01X221310Y94200D02*
Y97350D01*
X220838Y96720D01*
G01Y94200D02*
X221782D01*
G01X224260D02*
X224535Y94252D01*
X224850Y94410D01*
X225047Y94672D01*
X225125Y95040D01*
X225047Y95407D01*
X224811Y95722D01*
X224457Y95880D01*
X224063D01*
X223827Y95985D01*
X223631Y96247D01*
X223552Y96615D01*
X223670Y96982D01*
X223945Y97245D01*
X224260Y97350D01*
X224575Y97245D01*
X224850Y96982D01*
X224968Y96615D01*
X224889Y96247D01*
X224693Y95985D01*
X224457Y95880D01*
X224063D01*
X223709Y95722D01*
X223473Y95407D01*
X223395Y95040D01*
X223473Y94672D01*
X223670Y94410D01*
X223985Y94252D01*
X224260Y94200D01*
G54D16*
G01X164295Y12990D02*
Y17320D01*
X165770D01*
X166242Y17103D01*
X166537Y16815D01*
X166655Y16237D01*
X166537Y15660D01*
X166183Y15299D01*
X165770Y15083D01*
X164295D01*
G01X165770D02*
X166655Y12990D01*
G01X170667D02*
Y15877D01*
G01Y15372D02*
X170431Y15660D01*
X170077Y15804D01*
X169664Y15877D01*
X169251Y15732D01*
X168897Y15444D01*
X168661Y15011D01*
X168543Y14433D01*
X168661Y13856D01*
X168897Y13423D01*
X169251Y13134D01*
X169664Y12990D01*
X170077Y13062D01*
X170431Y13279D01*
X170667Y13567D01*
G01X174797Y17320D02*
Y12990D01*
G01Y13639D02*
X174561Y13279D01*
X174207Y13062D01*
X173794Y12990D01*
X173322Y13134D01*
X172968Y13495D01*
X172732Y13928D01*
X172673Y14433D01*
X172732Y14938D01*
X172968Y15372D01*
X173322Y15732D01*
X173794Y15877D01*
X174207Y15804D01*
X174502Y15660D01*
X174797Y15372D01*
G01X177865Y15877D02*
Y12990D01*
G01Y17031D02*
X177747Y17103D01*
Y17248D01*
X177865Y17320D01*
X177983Y17248D01*
Y17103D01*
X177865Y17031D01*
G01X181995Y12990D02*
X181641Y13062D01*
X181287Y13351D01*
X181051Y13856D01*
X180933Y14433D01*
X181051Y15011D01*
X181287Y15516D01*
X181641Y15804D01*
X181995Y15877D01*
X182349Y15804D01*
X182703Y15516D01*
X182939Y15011D01*
X182998Y14433D01*
X182939Y13856D01*
X182703Y13351D01*
X182349Y13062D01*
X181995Y12990D01*
G01X188721D02*
Y17320D01*
X190255Y13712D01*
X191789Y17320D01*
Y12990D01*
G01X194385D02*
X194031Y13062D01*
X193677Y13351D01*
X193441Y13856D01*
X193323Y14433D01*
X193441Y15011D01*
X193677Y15516D01*
X194031Y15804D01*
X194385Y15877D01*
X194739Y15804D01*
X195093Y15516D01*
X195329Y15011D01*
X195388Y14433D01*
X195329Y13856D01*
X195093Y13351D01*
X194739Y13062D01*
X194385Y12990D01*
G01X199577Y17320D02*
Y12990D01*
G01Y13639D02*
X199341Y13279D01*
X198987Y13062D01*
X198574Y12990D01*
X198102Y13134D01*
X197748Y13495D01*
X197512Y13928D01*
X197453Y14433D01*
X197512Y14938D01*
X197748Y15372D01*
X198102Y15732D01*
X198574Y15877D01*
X198987Y15804D01*
X199282Y15660D01*
X199577Y15372D01*
G01X201642Y15877D02*
Y13856D01*
X201878Y13351D01*
X202232Y13062D01*
X202645Y12990D01*
X203058Y13062D01*
X203412Y13351D01*
X203648Y13856D01*
G01Y12990D02*
Y15877D01*
G01X206775Y12990D02*
Y17320D01*
G01X210020Y14938D02*
X211908D01*
X211731Y15444D01*
X211436Y15732D01*
X211023Y15877D01*
X210610Y15804D01*
X210256Y15588D01*
X210020Y15083D01*
X209902Y14650D01*
Y14217D01*
X210020Y13784D01*
X210315Y13351D01*
X210669Y13062D01*
X211082Y12990D01*
X211495Y13134D01*
X211908Y13567D01*
M02*
