G04 ================== begin FILE IDENTIFICATION RECORD ==================*
G04 Layout Name:  c:/src/bsm-2/schematics/bsm-radio.brd*
G04 Film Name:    SilkScreenTOP*
G04 File Format:  Gerber RS274X*
G04 File Origin:  16.0-s004*
G04 Origin Date:  Wed Jan 25 17:10:28 2012*
G04 *
G04 Layer:  USER PART NUMBER/SILKSCREEN_TOP*
G04 Layer:  TOLERANCE/SILKSCREEN_TOP*
G04 Layer:  REF DES/SILKSCREEN_TOP*
G04 Layer:  PACKAGE GEOMETRY/SILKSCREEN_TOP*
G04 Layer:  DEVICE TYPE/SILKSCREEN_TOP*
G04 Layer:  COMPONENT VALUE/SILKSCREEN_TOP*
G04 *
G04 Offset:    (0.000 0.000)*
G04 Mirror:    No*
G04 Mode:      Positive*
G04 Rotation:  0*
G04 FullContactRelief:  No*
G04 UndefLineWidth:     0.000*
G04 ================== end FILE IDENTIFICATION RECORD ====================*
%FSLAX53Y53*MOIN*%
%IR0*IPPOS*OFA0.00000B0.00000*MIA0B0*SFA1.00000B1.00000*%
%ADD10C,.003898*%
%ADD11C,.007874*%
%ADD12C,.007913*%
%ADD13C,.007992*%
%ADD14C,.005906*%
%ADD15C,.009843*%
%ADD16C,.005984*%
%ADD17C,.01*%
G75*
%LPD*%
G75*
G54D10*
G01X1456Y512D02*
X1300D01*
G01X1456Y276D02*
Y512D01*
G01X1300Y276D02*
X1456D01*
G01X1300Y512D02*
Y276D01*
G54D11*
G01X71Y28D02*
Y59D01*
X80D01*
X83Y57D01*
X86Y54D01*
X87Y50D01*
X86Y45D01*
X84Y42D01*
X80Y41D01*
X71D01*
G01X108Y28D02*
Y59D01*
X104Y53D01*
G01Y28D02*
X113D01*
G01X137D02*
X138Y34D01*
X139Y40D01*
X141Y45D01*
X143Y51D01*
X146Y59D01*
X130D01*
G01X171Y28D02*
Y59D01*
X180D01*
X183Y57D01*
X186Y54D01*
X187Y50D01*
X186Y45D01*
X184Y42D01*
X180Y41D01*
X171D01*
G01X208Y28D02*
Y59D01*
X204Y53D01*
G01Y28D02*
X213D01*
G01X238D02*
X241Y28D01*
X244Y30D01*
X246Y32D01*
X246Y36D01*
X246Y40D01*
X243Y43D01*
X240Y44D01*
X236D01*
X233Y45D01*
X231Y48D01*
X231Y52D01*
X232Y55D01*
X235Y58D01*
X238Y59D01*
X241Y58D01*
X244Y55D01*
X245Y52D01*
X244Y48D01*
X242Y45D01*
X240Y44D01*
X236D01*
X232Y43D01*
X230Y40D01*
X229Y36D01*
X230Y32D01*
X232Y30D01*
X235Y28D01*
X238Y28D01*
G01X245Y305D02*
Y319D01*
X237Y337D01*
G01X253D02*
X245Y319D01*
G01X267Y331D02*
X270Y335D01*
X272Y336D01*
X276Y337D01*
X279Y336D01*
X282Y333D01*
X283Y330D01*
X283Y327D01*
X281Y324D01*
X273Y319D01*
X270Y315D01*
X267Y310D01*
X266Y305D01*
X283D01*
G01X217Y567D02*
Y581D01*
X209Y598D01*
G01X224D02*
X217Y581D01*
G01X246Y567D02*
Y598D01*
X241Y592D01*
G01Y567D02*
X251D01*
G01X176Y1350D02*
Y1382D01*
X185D01*
X188Y1380D01*
X191Y1377D01*
X191Y1372D01*
X191Y1368D01*
X189Y1365D01*
X185Y1364D01*
X176D01*
G01X213Y1350D02*
Y1382D01*
X208Y1376D01*
G01Y1350D02*
X218D01*
G01X234Y1355D02*
X236Y1352D01*
X239Y1351D01*
X243Y1350D01*
X246Y1351D01*
X249Y1354D01*
X251Y1357D01*
X251Y1361D01*
X250Y1366D01*
X248Y1368D01*
X246Y1370D01*
X243Y1371D01*
X240Y1370D01*
X237Y1368D01*
X238Y1382D01*
X248D01*
G01X76Y1350D02*
Y1382D01*
X85D01*
X88Y1380D01*
X91Y1377D01*
X91Y1372D01*
X91Y1368D01*
X89Y1365D01*
X85Y1364D01*
X76D01*
G01X113Y1350D02*
Y1382D01*
X108Y1376D01*
G01Y1350D02*
X118D01*
G01X135Y1364D02*
X138Y1367D01*
X140Y1369D01*
X143Y1370D01*
X146Y1369D01*
X148Y1367D01*
X150Y1364D01*
X150Y1360D01*
X150Y1357D01*
X148Y1354D01*
X146Y1351D01*
X143Y1350D01*
X140Y1351D01*
X137Y1355D01*
X135Y1359D01*
X135Y1365D01*
X136Y1371D01*
X137Y1375D01*
X139Y1379D01*
X142Y1381D01*
X144Y1382D01*
X147Y1381D01*
X149Y1378D01*
G01X471Y28D02*
Y59D01*
X480D01*
X483Y57D01*
X486Y54D01*
X487Y50D01*
X486Y45D01*
X484Y42D01*
X480Y41D01*
X471D01*
G01X501Y54D02*
X503Y57D01*
X506Y59D01*
X509Y59D01*
X513Y58D01*
X516Y55D01*
X517Y52D01*
X516Y49D01*
X515Y46D01*
X507Y41D01*
X503Y38D01*
X501Y32D01*
X500Y28D01*
X517D01*
G01X538D02*
Y59D01*
X533Y53D01*
G01Y28D02*
X543D01*
G01X271D02*
Y59D01*
X280D01*
X283Y57D01*
X286Y54D01*
X287Y50D01*
X286Y45D01*
X284Y42D01*
X280Y41D01*
X271D01*
G01X308Y28D02*
Y59D01*
X304Y53D01*
G01Y28D02*
X313D01*
G01X331Y31D02*
X334Y29D01*
X337Y28D01*
X340Y29D01*
X343Y32D01*
X345Y36D01*
X346Y41D01*
Y47D01*
X345Y52D01*
X343Y56D01*
X341Y58D01*
X338Y59D01*
X335Y58D01*
X332Y56D01*
X331Y53D01*
X330Y49D01*
X331Y45D01*
X333Y41D01*
X335Y39D01*
X338Y39D01*
X341Y40D01*
X343Y42D01*
X346Y47D01*
G01X371Y28D02*
Y59D01*
X380D01*
X383Y57D01*
X386Y54D01*
X387Y50D01*
X386Y45D01*
X384Y42D01*
X380Y41D01*
X371D01*
G01X401Y54D02*
X403Y57D01*
X406Y59D01*
X409Y59D01*
X413Y58D01*
X416Y55D01*
X417Y52D01*
X416Y49D01*
X415Y46D01*
X407Y41D01*
X403Y38D01*
X401Y32D01*
X400Y28D01*
X417D01*
G01X438Y59D02*
X435Y58D01*
X432Y55D01*
X431Y52D01*
X430Y48D01*
X429Y43D01*
X430Y39D01*
X431Y34D01*
X432Y31D01*
X435Y29D01*
X438Y28D01*
X441Y29D01*
X443Y31D01*
X445Y34D01*
X446Y39D01*
X446Y43D01*
X446Y48D01*
X445Y52D01*
X443Y55D01*
X441Y58D01*
X438Y59D01*
G01X456Y271D02*
Y303D01*
X441D01*
G01X419D02*
Y271D01*
X424Y278D01*
G01Y303D02*
X414D01*
G01X508Y759D02*
X506Y761D01*
X503Y762D01*
X500D01*
X496Y761D01*
X494Y758D01*
X492Y755D01*
X490Y750D01*
X490Y745D01*
X490Y740D01*
X492Y737D01*
X494Y734D01*
X497Y732D01*
X499Y731D01*
X502D01*
X505Y732D01*
X507Y733D01*
X509Y735D01*
G01X521Y757D02*
X524Y760D01*
X527Y762D01*
X530Y762D01*
X534Y761D01*
X536Y758D01*
X537Y755D01*
X537Y752D01*
X535Y750D01*
X527Y744D01*
X524Y741D01*
X521Y735D01*
X521Y731D01*
X537D01*
G01X559D02*
Y762D01*
X554Y756D01*
G01Y731D02*
X563D01*
G01X414Y759D02*
X411Y761D01*
X409Y762D01*
X405D01*
X402Y761D01*
X399Y758D01*
X397Y755D01*
X396Y750D01*
X395Y745D01*
X396Y740D01*
X397Y737D01*
X399Y734D01*
X402Y732D01*
X405Y731D01*
X408D01*
X410Y732D01*
X413Y733D01*
X415Y735D01*
G01X427Y757D02*
X429Y760D01*
X432Y762D01*
X435Y762D01*
X439Y761D01*
X442Y758D01*
X443Y755D01*
X442Y752D01*
X441Y750D01*
X433Y744D01*
X429Y741D01*
X427Y735D01*
X426Y731D01*
X443D01*
G01X464Y762D02*
X461Y761D01*
X459Y758D01*
X457Y755D01*
X456Y751D01*
X455Y746D01*
X456Y742D01*
X457Y737D01*
X459Y734D01*
X461Y732D01*
X464Y731D01*
X467Y732D01*
X470Y734D01*
X471Y737D01*
X472Y742D01*
X473Y746D01*
X472Y751D01*
X471Y755D01*
X470Y758D01*
X467Y761D01*
X464Y762D01*
G01X396Y804D02*
X395Y802D01*
X394Y799D01*
Y796D01*
X395Y792D01*
X398Y790D01*
X401Y788D01*
X406Y786D01*
X411Y786D01*
X416Y786D01*
X419Y788D01*
X422Y790D01*
X424Y793D01*
X425Y796D01*
Y798D01*
X424Y801D01*
X423Y803D01*
X421Y805D01*
G01X425Y825D02*
X394D01*
X400Y820D01*
G01X425D02*
Y830D01*
G01Y855D02*
X394D01*
X400Y850D01*
G01X425D02*
Y859D01*
G01X469Y960D02*
X466Y961D01*
X464Y962D01*
X461D01*
X457Y961D01*
X454Y958D01*
X452Y955D01*
X451Y950D01*
X450Y945D01*
X451Y940D01*
X452Y937D01*
X455Y934D01*
X457Y932D01*
X460Y931D01*
X463D01*
X466Y932D01*
X468Y933D01*
X470Y935D01*
G01X482Y944D02*
X485Y948D01*
X487Y950D01*
X490Y951D01*
X493Y950D01*
X495Y948D01*
X497Y944D01*
X497Y941D01*
X497Y938D01*
X495Y934D01*
X493Y932D01*
X490Y931D01*
X487Y932D01*
X484Y935D01*
X483Y940D01*
X482Y945D01*
X483Y952D01*
X484Y955D01*
X486Y959D01*
X489Y962D01*
X492Y962D01*
X494Y961D01*
X496Y959D01*
G01X376Y1350D02*
Y1382D01*
X385D01*
X388Y1380D01*
X391Y1377D01*
X391Y1372D01*
X391Y1368D01*
X389Y1365D01*
X385Y1364D01*
X376D01*
G01X413Y1350D02*
Y1382D01*
X408Y1376D01*
G01Y1350D02*
X418D01*
G01X434Y1357D02*
X436Y1353D01*
X439Y1351D01*
X443Y1350D01*
X446Y1351D01*
X449Y1354D01*
X451Y1357D01*
X452Y1360D01*
X451Y1364D01*
X448Y1366D01*
X445Y1367D01*
X442D01*
G01X445D02*
X448Y1369D01*
X450Y1371D01*
X450Y1375D01*
X450Y1378D01*
X448Y1380D01*
X444Y1382D01*
X441Y1381D01*
X437Y1379D01*
G01X476Y1350D02*
Y1382D01*
X485D01*
X488Y1380D01*
X491Y1377D01*
X491Y1372D01*
X491Y1368D01*
X489Y1365D01*
X485Y1364D01*
X476D01*
G01X513Y1350D02*
Y1382D01*
X508Y1376D01*
G01Y1350D02*
X518D01*
G01X535Y1377D02*
X537Y1380D01*
X540Y1381D01*
X543Y1382D01*
X547Y1381D01*
X550Y1378D01*
X551Y1375D01*
X550Y1372D01*
X549Y1369D01*
X541Y1364D01*
X537Y1360D01*
X535Y1355D01*
X534Y1350D01*
X551D01*
G01X276D02*
Y1382D01*
X285D01*
X288Y1380D01*
X291Y1377D01*
X291Y1372D01*
X291Y1368D01*
X289Y1365D01*
X285Y1364D01*
X276D01*
G01X313Y1350D02*
Y1382D01*
X308Y1376D01*
G01Y1350D02*
X318D01*
G01X347D02*
Y1382D01*
X333Y1359D01*
X352D01*
G01X480Y1228D02*
X478Y1229D01*
X475Y1230D01*
X472D01*
X468Y1229D01*
X466Y1226D01*
X464Y1223D01*
X462Y1218D01*
X462Y1213D01*
X462Y1208D01*
X464Y1205D01*
X466Y1202D01*
X469Y1200D01*
X471Y1199D01*
X474D01*
X477Y1200D01*
X479Y1201D01*
X481Y1203D01*
G01X494Y1202D02*
X497Y1200D01*
X500Y1199D01*
X503Y1200D01*
X506Y1203D01*
X508Y1208D01*
X509Y1212D01*
Y1218D01*
X508Y1223D01*
X506Y1227D01*
X504Y1229D01*
X501Y1230D01*
X498Y1229D01*
X495Y1227D01*
X494Y1224D01*
X493Y1220D01*
X494Y1216D01*
X496Y1212D01*
X498Y1210D01*
X501Y1210D01*
X504Y1211D01*
X506Y1213D01*
X509Y1218D01*
G01X771Y28D02*
Y59D01*
X780D01*
X783Y57D01*
X786Y54D01*
X787Y50D01*
X786Y45D01*
X784Y42D01*
X780Y41D01*
X771D01*
G01X801Y54D02*
X803Y57D01*
X806Y59D01*
X809Y59D01*
X813Y58D01*
X816Y55D01*
X817Y52D01*
X816Y49D01*
X815Y46D01*
X807Y41D01*
X803Y38D01*
X801Y32D01*
X800Y28D01*
X817D01*
G01X843D02*
Y59D01*
X828Y36D01*
X848D01*
G01X671Y28D02*
Y59D01*
X680D01*
X683Y57D01*
X686Y54D01*
X687Y50D01*
X686Y45D01*
X684Y42D01*
X680Y41D01*
X671D01*
G01X701Y54D02*
X703Y57D01*
X706Y59D01*
X709Y59D01*
X713Y58D01*
X716Y55D01*
X717Y52D01*
X716Y49D01*
X715Y46D01*
X707Y41D01*
X703Y38D01*
X701Y32D01*
X700Y28D01*
X717D01*
G01X729Y34D02*
X731Y30D01*
X735Y28D01*
X738Y28D01*
X741Y28D01*
X744Y31D01*
X746Y34D01*
X747Y37D01*
X746Y41D01*
X743Y43D01*
X741Y44D01*
X737D01*
G01X741D02*
X743Y46D01*
X745Y49D01*
X746Y52D01*
X745Y55D01*
X743Y57D01*
X739Y59D01*
X736Y59D01*
X732Y56D01*
G01X571Y28D02*
Y59D01*
X580D01*
X583Y57D01*
X586Y54D01*
X587Y50D01*
X586Y45D01*
X584Y42D01*
X580Y41D01*
X571D01*
G01X601Y54D02*
X603Y57D01*
X606Y59D01*
X609Y59D01*
X613Y58D01*
X616Y55D01*
X617Y52D01*
X616Y49D01*
X615Y46D01*
X607Y41D01*
X603Y38D01*
X601Y32D01*
X600Y28D01*
X617D01*
G01X630Y54D02*
X633Y57D01*
X635Y59D01*
X639Y59D01*
X643Y58D01*
X645Y55D01*
X646Y52D01*
X646Y49D01*
X644Y46D01*
X636Y41D01*
X633Y38D01*
X630Y32D01*
X630Y28D01*
X646D01*
G01X801Y201D02*
X803Y203D01*
X804Y206D01*
Y209D01*
X802Y213D01*
X800Y216D01*
X797Y218D01*
X791Y219D01*
X787Y219D01*
X782Y219D01*
X779Y218D01*
X776Y215D01*
X773Y212D01*
X772Y210D01*
Y207D01*
X773Y204D01*
X775Y202D01*
X777Y200D01*
G01X779Y189D02*
X775Y186D01*
X773Y183D01*
X772Y180D01*
X773Y177D01*
X776Y173D01*
X779Y171D01*
X782Y171D01*
X786Y172D01*
X788Y175D01*
X789Y177D01*
Y181D01*
G01Y177D02*
X791Y175D01*
X793Y173D01*
X797Y172D01*
X800Y173D01*
X802Y175D01*
X804Y179D01*
X803Y182D01*
X801Y186D01*
G01X711Y201D02*
X712Y203D01*
X713Y206D01*
Y209D01*
X712Y213D01*
X709Y216D01*
X706Y218D01*
X701Y219D01*
X696Y219D01*
X691Y219D01*
X688Y218D01*
X685Y215D01*
X683Y212D01*
X682Y210D01*
Y207D01*
X683Y204D01*
X684Y202D01*
X687Y200D01*
G01X708Y188D02*
X711Y185D01*
X713Y182D01*
X713Y179D01*
X712Y175D01*
X710Y173D01*
X707Y172D01*
X703Y172D01*
X701Y174D01*
X696Y182D01*
X692Y185D01*
X687Y188D01*
X682Y188D01*
Y172D01*
G01X885Y564D02*
X883Y566D01*
X880Y567D01*
X877D01*
X873Y565D01*
X870Y562D01*
X868Y559D01*
X867Y554D01*
X866Y549D01*
X867Y545D01*
X868Y541D01*
X871Y538D01*
X874Y536D01*
X876Y535D01*
X879D01*
X882Y536D01*
X884Y538D01*
X886Y540D01*
G01X898Y561D02*
X901Y565D01*
X904Y566D01*
X907Y567D01*
X911Y566D01*
X913Y563D01*
X914Y560D01*
X914Y557D01*
X912Y554D01*
X904Y549D01*
X901Y545D01*
X898Y540D01*
X898Y535D01*
X914D01*
G01X928Y548D02*
X931Y552D01*
X933Y554D01*
X936Y555D01*
X939Y554D01*
X941Y552D01*
X942Y549D01*
X943Y545D01*
X942Y542D01*
X941Y539D01*
X939Y536D01*
X936Y535D01*
X933Y536D01*
X930Y539D01*
X928Y544D01*
X928Y549D01*
X929Y556D01*
X930Y560D01*
X932Y563D01*
X935Y566D01*
X937Y567D01*
X940Y566D01*
X942Y563D01*
G01X579Y748D02*
Y630D01*
G01X672Y721D02*
Y753D01*
X682D01*
X685Y751D01*
X687Y749D01*
X688Y745D01*
X687Y741D01*
X685Y738D01*
X682Y736D01*
X672D01*
G01X682D02*
X688Y721D01*
G01X710D02*
X712Y722D01*
X716Y723D01*
X718Y726D01*
X718Y730D01*
X718Y733D01*
X715Y736D01*
X712Y738D01*
X708D01*
X705Y739D01*
X703Y742D01*
X703Y745D01*
X704Y749D01*
X706Y752D01*
X710Y753D01*
X713Y752D01*
X716Y749D01*
X717Y745D01*
X716Y742D01*
X714Y739D01*
X712Y738D01*
X708D01*
X704Y736D01*
X702Y733D01*
X701Y730D01*
X702Y726D01*
X704Y723D01*
X707Y722D01*
X710Y721D01*
G01X813Y751D02*
X844D01*
Y741D01*
X843Y738D01*
X841Y736D01*
X836Y735D01*
X832Y736D01*
X830Y738D01*
X828Y741D01*
Y751D01*
G01Y741D02*
X813Y735D01*
G01Y714D02*
X844D01*
X838Y718D01*
G01X813D02*
Y709D01*
G01X839Y692D02*
X842Y689D01*
X844Y686D01*
X844Y683D01*
X843Y679D01*
X841Y677D01*
X838Y676D01*
X834Y676D01*
X832Y678D01*
X827Y686D01*
X823Y689D01*
X818Y692D01*
X813Y692D01*
Y676D01*
G01X850Y620D02*
X848Y622D01*
X845Y623D01*
X842D01*
X838Y621D01*
X836Y619D01*
X834Y615D01*
X832Y610D01*
X832Y605D01*
X832Y601D01*
X834Y598D01*
X836Y594D01*
X839Y592D01*
X842Y591D01*
X844D01*
X847Y592D01*
X849Y594D01*
X851Y596D01*
G01X864Y618D02*
X866Y621D01*
X869Y622D01*
X872Y623D01*
X876Y622D01*
X879Y619D01*
X879Y616D01*
X879Y613D01*
X877Y610D01*
X869Y605D01*
X866Y601D01*
X864Y596D01*
X863Y591D01*
X879D01*
G01X892Y598D02*
X894Y594D01*
X897Y592D01*
X901Y591D01*
X904Y592D01*
X907Y594D01*
X909Y598D01*
X910Y601D01*
X909Y604D01*
X906Y607D01*
X903Y608D01*
X900D01*
G01X903D02*
X906Y610D01*
X908Y612D01*
X908Y615D01*
X908Y619D01*
X906Y621D01*
X902Y623D01*
X899Y622D01*
X895Y620D01*
G01X604Y775D02*
X602Y776D01*
X599Y777D01*
X596D01*
X592Y776D01*
X590Y773D01*
X588Y770D01*
X586Y765D01*
X586Y760D01*
X586Y755D01*
X588Y752D01*
X590Y749D01*
X593Y747D01*
X595Y746D01*
X598D01*
X601Y747D01*
X603Y749D01*
X605Y751D01*
G01X618Y772D02*
X620Y775D01*
X623Y777D01*
X626Y777D01*
X630Y776D01*
X632Y774D01*
X633Y771D01*
X633Y767D01*
X631Y765D01*
X623Y760D01*
X620Y756D01*
X618Y751D01*
X617Y746D01*
X633D01*
G01X647Y772D02*
X649Y775D01*
X652Y777D01*
X655Y777D01*
X659Y776D01*
X662Y774D01*
X663Y771D01*
X662Y767D01*
X661Y765D01*
X653Y760D01*
X649Y756D01*
X647Y751D01*
X646Y746D01*
X663D01*
G01X598Y830D02*
Y808D01*
X600Y803D01*
X603Y800D01*
X607Y799D01*
X611Y800D01*
X614Y803D01*
X615Y808D01*
Y830D01*
G01X636Y799D02*
Y830D01*
X631Y824D01*
G01Y799D02*
X641D01*
G01X676Y1350D02*
Y1382D01*
X685D01*
X688Y1380D01*
X691Y1377D01*
X691Y1372D01*
X691Y1368D01*
X689Y1365D01*
X685Y1364D01*
X676D01*
G01X713Y1350D02*
Y1382D01*
X708Y1376D01*
G01Y1350D02*
X718D01*
G01X743Y1382D02*
X739Y1381D01*
X737Y1378D01*
X735Y1375D01*
X734Y1371D01*
X734Y1366D01*
X734Y1361D01*
X735Y1357D01*
X737Y1354D01*
X739Y1351D01*
X743Y1350D01*
X746Y1351D01*
X748Y1354D01*
X750Y1357D01*
X751Y1361D01*
X751Y1366D01*
X751Y1371D01*
X750Y1375D01*
X748Y1378D01*
X746Y1381D01*
X743Y1382D01*
G01X776Y1350D02*
Y1382D01*
X785D01*
X788Y1380D01*
X791Y1377D01*
X791Y1372D01*
X791Y1368D01*
X789Y1365D01*
X785Y1364D01*
X776D01*
G01X806Y1354D02*
X809Y1351D01*
X812Y1350D01*
X815Y1351D01*
X818Y1355D01*
X820Y1359D01*
X821Y1364D01*
Y1370D01*
X820Y1375D01*
X818Y1379D01*
X816Y1381D01*
X813Y1382D01*
X810Y1381D01*
X807Y1379D01*
X806Y1376D01*
X805Y1371D01*
X806Y1368D01*
X808Y1364D01*
X810Y1362D01*
X813Y1361D01*
X816Y1362D01*
X819Y1365D01*
X821Y1370D01*
G01X576Y1350D02*
Y1382D01*
X585D01*
X588Y1380D01*
X591Y1377D01*
X591Y1372D01*
X591Y1368D01*
X589Y1365D01*
X585Y1364D01*
X576D01*
G01X613Y1350D02*
Y1382D01*
X608Y1376D01*
G01Y1350D02*
X618D01*
G01X643D02*
Y1382D01*
X638Y1376D01*
G01Y1350D02*
X647D01*
G01X1102Y251D02*
Y265D01*
X1094Y282D01*
G01X1110D02*
X1102Y265D01*
G01X1136Y251D02*
Y282D01*
X1121Y260D01*
X1141D01*
G01X1071Y28D02*
Y59D01*
X1080D01*
X1083Y57D01*
X1086Y54D01*
X1087Y50D01*
X1086Y45D01*
X1084Y42D01*
X1080Y41D01*
X1071D01*
G01X1101Y54D02*
X1103Y57D01*
X1106Y59D01*
X1109Y59D01*
X1113Y58D01*
X1116Y55D01*
X1117Y52D01*
X1116Y49D01*
X1115Y46D01*
X1107Y41D01*
X1103Y38D01*
X1101Y32D01*
X1100Y28D01*
X1117D01*
G01X1137D02*
X1138Y34D01*
X1139Y40D01*
X1141Y45D01*
X1143Y51D01*
X1146Y59D01*
X1130D01*
G01X971Y28D02*
Y59D01*
X980D01*
X983Y57D01*
X986Y54D01*
X987Y50D01*
X986Y45D01*
X984Y42D01*
X980Y41D01*
X971D01*
G01X1001Y54D02*
X1003Y57D01*
X1006Y59D01*
X1009Y59D01*
X1013Y58D01*
X1016Y55D01*
X1017Y52D01*
X1016Y49D01*
X1015Y46D01*
X1007Y41D01*
X1003Y38D01*
X1001Y32D01*
X1000Y28D01*
X1017D01*
G01X1030Y41D02*
X1033Y44D01*
X1035Y46D01*
X1039Y48D01*
X1041Y46D01*
X1043Y44D01*
X1045Y41D01*
X1045Y38D01*
X1045Y34D01*
X1043Y31D01*
X1041Y29D01*
X1038Y28D01*
X1035Y29D01*
X1032Y32D01*
X1031Y36D01*
X1030Y42D01*
X1031Y49D01*
X1032Y52D01*
X1034Y56D01*
X1037Y59D01*
X1040Y59D01*
X1043Y58D01*
X1044Y55D01*
G01X871Y28D02*
Y59D01*
X880D01*
X883Y57D01*
X886Y54D01*
X887Y50D01*
X886Y45D01*
X884Y42D01*
X880Y41D01*
X871D01*
G01X901Y54D02*
X903Y57D01*
X906Y59D01*
X909Y59D01*
X913Y58D01*
X916Y55D01*
X917Y52D01*
X916Y49D01*
X915Y46D01*
X907Y41D01*
X903Y38D01*
X901Y32D01*
X900Y28D01*
X917D01*
G01X929Y32D02*
X931Y30D01*
X934Y28D01*
X938Y28D01*
X941Y29D01*
X944Y31D01*
X946Y34D01*
X946Y39D01*
X946Y43D01*
X944Y45D01*
X941Y48D01*
X938Y48D01*
X935Y48D01*
X932Y45D01*
X933Y59D01*
X944D01*
G01X913Y280D02*
X944D01*
Y296D01*
G01X931Y310D02*
X928Y313D01*
X926Y315D01*
X924Y318D01*
X926Y321D01*
X928Y323D01*
X931Y324D01*
X934Y325D01*
X938Y324D01*
X941Y323D01*
X943Y320D01*
X944Y318D01*
X943Y314D01*
X940Y312D01*
X936Y310D01*
X930Y310D01*
X923Y311D01*
X920Y312D01*
X916Y314D01*
X913Y316D01*
X913Y319D01*
X914Y322D01*
X917Y324D01*
G01X924Y631D02*
Y662D01*
X934D01*
X937Y661D01*
X939Y659D01*
X940Y654D01*
X939Y650D01*
X937Y647D01*
X934Y646D01*
X924D01*
G01X934D02*
X940Y631D01*
G01X954Y657D02*
X956Y660D01*
X959Y662D01*
X962Y662D01*
X966Y661D01*
X969Y659D01*
X970Y655D01*
X969Y652D01*
X968Y650D01*
X960Y644D01*
X956Y641D01*
X954Y635D01*
X953Y631D01*
X970D01*
G01X1141Y863D02*
Y894D01*
X1151D01*
X1154Y893D01*
X1156Y891D01*
X1156Y887D01*
X1156Y882D01*
X1153Y880D01*
X1151Y878D01*
X1141D01*
G01X1151D02*
X1156Y863D01*
G01X1169Y868D02*
X1172Y865D01*
X1175Y863D01*
X1178Y863D01*
X1182Y864D01*
X1184Y866D01*
X1186Y870D01*
X1187Y874D01*
X1186Y878D01*
X1184Y881D01*
X1181Y883D01*
X1179Y883D01*
X1176Y883D01*
X1172Y881D01*
X1173Y894D01*
X1184D01*
G01X1165Y648D02*
Y680D01*
X1175D01*
X1178Y678D01*
X1180Y676D01*
X1181Y672D01*
X1180Y668D01*
X1178Y665D01*
X1175Y664D01*
X1165D01*
G01X1175D02*
X1181Y648D01*
G01X1202D02*
Y680D01*
X1198Y674D01*
G01Y648D02*
X1207D01*
G01X1232D02*
Y680D01*
X1227Y674D01*
G01Y648D02*
X1237D01*
G01X920Y705D02*
Y737D01*
X930D01*
X933Y735D01*
X935Y733D01*
X936Y729D01*
X935Y725D01*
X933Y722D01*
X930Y721D01*
X920D01*
G01X930D02*
X936Y705D01*
G01X949Y712D02*
X951Y708D01*
X955Y706D01*
X958Y705D01*
X961Y706D01*
X964Y709D01*
X966Y712D01*
X967Y715D01*
X966Y719D01*
X963Y721D01*
X960Y722D01*
X957D01*
G01X960D02*
X963Y724D01*
X965Y726D01*
X966Y730D01*
X965Y733D01*
X963Y735D01*
X959Y737D01*
X956Y736D01*
X952Y734D01*
G01X992Y837D02*
X990Y838D01*
X987Y839D01*
X984D01*
X980Y838D01*
X977Y835D01*
X975Y832D01*
X974Y827D01*
X973Y822D01*
X974Y817D01*
X975Y814D01*
X978Y811D01*
X981Y809D01*
X983Y808D01*
X986D01*
X989Y809D01*
X991Y810D01*
X993Y813D01*
G01X1013Y808D02*
Y839D01*
X1008Y833D01*
G01Y808D02*
X1018D01*
G01X1193Y1071D02*
X1161D01*
X1168Y1066D01*
G01X1193D02*
Y1076D01*
G01X954Y1128D02*
Y1159D01*
X964D01*
X967Y1158D01*
X969Y1156D01*
X969Y1151D01*
X969Y1147D01*
X966Y1145D01*
X964Y1143D01*
X954D01*
G01X964D02*
X969Y1128D01*
G01X991D02*
Y1159D01*
X986Y1153D01*
G01Y1128D02*
X996D01*
G01X1021Y1159D02*
X1018Y1158D01*
X1015Y1156D01*
X1014Y1153D01*
X1012Y1148D01*
X1012Y1144D01*
X1012Y1139D01*
X1014Y1135D01*
X1015Y1131D01*
X1018Y1129D01*
X1021Y1128D01*
X1024Y1129D01*
X1026Y1131D01*
X1028Y1135D01*
X1029Y1139D01*
X1029Y1144D01*
X1029Y1148D01*
X1028Y1153D01*
X1026Y1156D01*
X1024Y1158D01*
X1021Y1159D01*
G01X1133Y1006D02*
X1165D01*
Y996D01*
X1163Y993D01*
X1161Y991D01*
X1157Y991D01*
X1153Y991D01*
X1150Y994D01*
X1148Y996D01*
Y1006D01*
G01Y996D02*
X1133Y991D01*
G01Y964D02*
X1165D01*
X1142Y979D01*
Y959D01*
G01X1032Y1036D02*
X1001D01*
Y1046D01*
X1002Y1049D01*
X1004Y1051D01*
X1009Y1052D01*
X1013Y1051D01*
X1015Y1048D01*
X1017Y1046D01*
Y1036D01*
G01Y1046D02*
X1032Y1052D01*
G01X1019Y1066D02*
X1015Y1069D01*
X1013Y1071D01*
X1012Y1074D01*
X1013Y1077D01*
X1015Y1079D01*
X1019Y1080D01*
X1022Y1081D01*
X1025Y1080D01*
X1029Y1079D01*
X1031Y1076D01*
X1032Y1074D01*
X1031Y1071D01*
X1028Y1068D01*
X1023Y1066D01*
X1018Y1066D01*
X1011Y1067D01*
X1007Y1068D01*
X1004Y1070D01*
X1001Y1072D01*
X1001Y1075D01*
X1002Y1078D01*
X1004Y1080D01*
G01X876Y1350D02*
Y1382D01*
X885D01*
X888Y1380D01*
X891Y1377D01*
X891Y1372D01*
X891Y1368D01*
X889Y1365D01*
X885Y1364D01*
X876D01*
G01X913Y1350D02*
X916Y1351D01*
X919Y1352D01*
X921Y1355D01*
X922Y1359D01*
X921Y1362D01*
X919Y1366D01*
X915Y1367D01*
X911D01*
X909Y1368D01*
X907Y1371D01*
X906Y1375D01*
X907Y1378D01*
X910Y1381D01*
X913Y1382D01*
X916Y1381D01*
X919Y1378D01*
X920Y1375D01*
X919Y1371D01*
X917Y1368D01*
X915Y1367D01*
X911D01*
X907Y1366D01*
X905Y1362D01*
X904Y1359D01*
X905Y1355D01*
X907Y1352D01*
X910Y1351D01*
X913Y1350D01*
G01X1076D02*
Y1382D01*
X1085D01*
X1088Y1380D01*
X1091Y1377D01*
X1091Y1372D01*
X1091Y1368D01*
X1089Y1365D01*
X1085Y1364D01*
X1076D01*
G01X1106D02*
X1108Y1367D01*
X1111Y1369D01*
X1114Y1370D01*
X1117Y1369D01*
X1119Y1367D01*
X1120Y1364D01*
X1120Y1360D01*
X1120Y1357D01*
X1119Y1354D01*
X1116Y1351D01*
X1113Y1350D01*
X1110Y1351D01*
X1107Y1355D01*
X1106Y1359D01*
X1106Y1365D01*
X1106Y1371D01*
X1107Y1375D01*
X1109Y1379D01*
X1112Y1381D01*
X1115Y1382D01*
X1118Y1381D01*
X1120Y1378D01*
G01X976Y1350D02*
Y1382D01*
X985D01*
X988Y1380D01*
X991Y1377D01*
X991Y1372D01*
X991Y1368D01*
X989Y1365D01*
X985Y1364D01*
X976D01*
G01X1012Y1350D02*
X1013Y1357D01*
X1014Y1363D01*
X1016Y1368D01*
X1018Y1374D01*
X1021Y1382D01*
X1005D01*
G01X1155Y1192D02*
X1154Y1190D01*
X1153Y1187D01*
Y1184D01*
X1154Y1180D01*
X1157Y1178D01*
X1160Y1176D01*
X1165Y1174D01*
X1170Y1174D01*
X1175Y1175D01*
X1178Y1176D01*
X1181Y1178D01*
X1183Y1181D01*
X1184Y1184D01*
Y1186D01*
X1183Y1189D01*
X1181Y1191D01*
X1179Y1193D01*
G01X1184Y1213D02*
X1153D01*
X1159Y1208D01*
G01X1184D02*
Y1218D01*
G01X1158Y1235D02*
X1155Y1238D01*
X1153Y1240D01*
X1153Y1243D01*
X1154Y1247D01*
X1156Y1250D01*
X1159Y1251D01*
X1163Y1251D01*
X1165Y1249D01*
X1170Y1241D01*
X1174Y1238D01*
X1179Y1235D01*
X1184Y1234D01*
Y1251D01*
G01X953Y1230D02*
X950Y1232D01*
X947Y1233D01*
X944D01*
X941Y1231D01*
X938Y1229D01*
X936Y1226D01*
X934Y1220D01*
X934Y1216D01*
X935Y1211D01*
X936Y1208D01*
X938Y1205D01*
X941Y1203D01*
X944Y1202D01*
X947D01*
X949Y1203D01*
X952Y1204D01*
X954Y1206D01*
G01X973Y1202D02*
X973Y1208D01*
X975Y1214D01*
X976Y1219D01*
X978Y1225D01*
X981Y1233D01*
X966D01*
G01X1326Y229D02*
Y243D01*
X1318Y260D01*
G01X1334D02*
X1326Y243D01*
G01X1347Y235D02*
X1349Y231D01*
X1352Y229D01*
X1356Y229D01*
X1359Y229D01*
X1362Y232D01*
X1364Y235D01*
X1365Y238D01*
X1364Y242D01*
X1361Y244D01*
X1358Y245D01*
X1355D01*
G01X1358D02*
X1361Y247D01*
X1363Y250D01*
X1363Y253D01*
X1363Y256D01*
X1361Y259D01*
X1357Y260D01*
X1354Y260D01*
X1350Y257D01*
G01X1371Y28D02*
Y59D01*
X1380D01*
X1383Y57D01*
X1386Y54D01*
X1387Y50D01*
X1386Y45D01*
X1384Y42D01*
X1380Y41D01*
X1371D01*
G01X1400Y34D02*
X1402Y30D01*
X1405Y28D01*
X1409Y28D01*
X1412Y28D01*
X1415Y31D01*
X1417Y34D01*
X1417Y37D01*
X1417Y41D01*
X1414Y43D01*
X1411Y44D01*
X1407D01*
G01X1411D02*
X1413Y46D01*
X1415Y49D01*
X1416Y52D01*
X1415Y55D01*
X1413Y57D01*
X1410Y59D01*
X1406Y59D01*
X1403Y56D01*
G01X1438Y59D02*
X1435Y58D01*
X1432Y55D01*
X1431Y52D01*
X1430Y48D01*
X1429Y43D01*
X1430Y39D01*
X1431Y34D01*
X1432Y31D01*
X1435Y29D01*
X1438Y28D01*
X1441Y29D01*
X1443Y31D01*
X1445Y34D01*
X1446Y39D01*
X1446Y43D01*
X1446Y48D01*
X1445Y52D01*
X1443Y55D01*
X1441Y58D01*
X1438Y59D01*
G01X1271Y28D02*
Y59D01*
X1280D01*
X1283Y57D01*
X1286Y54D01*
X1287Y50D01*
X1286Y45D01*
X1284Y42D01*
X1280Y41D01*
X1271D01*
G01X1301Y54D02*
X1303Y57D01*
X1306Y59D01*
X1309Y59D01*
X1313Y58D01*
X1316Y55D01*
X1317Y52D01*
X1316Y49D01*
X1315Y46D01*
X1307Y41D01*
X1303Y38D01*
X1301Y32D01*
X1300Y28D01*
X1317D01*
G01X1331Y31D02*
X1334Y29D01*
X1337Y28D01*
X1340Y29D01*
X1343Y32D01*
X1345Y36D01*
X1346Y41D01*
Y47D01*
X1345Y52D01*
X1343Y56D01*
X1341Y58D01*
X1338Y59D01*
X1335Y58D01*
X1332Y56D01*
X1331Y53D01*
X1330Y49D01*
X1331Y45D01*
X1333Y41D01*
X1335Y39D01*
X1338Y39D01*
X1341Y40D01*
X1343Y42D01*
X1346Y47D01*
G01X1171Y28D02*
Y59D01*
X1180D01*
X1183Y57D01*
X1186Y54D01*
X1187Y50D01*
X1186Y45D01*
X1184Y42D01*
X1180Y41D01*
X1171D01*
G01X1201Y54D02*
X1203Y57D01*
X1206Y59D01*
X1209Y59D01*
X1213Y58D01*
X1216Y55D01*
X1217Y52D01*
X1216Y49D01*
X1215Y46D01*
X1207Y41D01*
X1203Y38D01*
X1201Y32D01*
X1200Y28D01*
X1217D01*
G01X1238D02*
X1241Y28D01*
X1244Y30D01*
X1246Y32D01*
X1246Y36D01*
X1246Y40D01*
X1243Y43D01*
X1240Y44D01*
X1236D01*
X1233Y45D01*
X1231Y48D01*
X1231Y52D01*
X1232Y55D01*
X1235Y58D01*
X1238Y59D01*
X1241Y58D01*
X1244Y55D01*
X1245Y52D01*
X1244Y48D01*
X1242Y45D01*
X1240Y44D01*
X1236D01*
X1232Y43D01*
X1230Y40D01*
X1229Y36D01*
X1230Y32D01*
X1232Y30D01*
X1235Y28D01*
X1238Y28D01*
G01X1424Y887D02*
Y855D01*
X1440D01*
G01X1461D02*
X1462Y862D01*
X1463Y868D01*
X1464Y873D01*
X1466Y879D01*
X1469Y887D01*
X1454D01*
G01X1273Y784D02*
X1275Y786D01*
X1276Y789D01*
Y792D01*
X1274Y795D01*
X1272Y798D01*
X1269Y800D01*
X1263Y802D01*
X1259Y802D01*
X1254Y801D01*
X1251Y800D01*
X1248Y798D01*
X1245Y795D01*
X1244Y792D01*
Y790D01*
X1245Y787D01*
X1247Y784D01*
X1249Y782D01*
G01Y771D02*
X1246Y769D01*
X1245Y766D01*
X1244Y763D01*
X1245Y759D01*
X1248Y756D01*
X1251Y755D01*
X1255Y754D01*
X1260Y755D01*
X1262Y757D01*
X1264Y760D01*
X1265Y762D01*
X1264Y765D01*
X1262Y769D01*
X1276Y768D01*
Y757D01*
G01X1248Y619D02*
X1246Y616D01*
X1245Y613D01*
Y610D01*
X1247Y607D01*
X1249Y604D01*
X1253Y602D01*
X1258Y600D01*
X1263Y600D01*
X1267Y601D01*
X1270Y602D01*
X1274Y604D01*
X1276Y607D01*
X1277Y610D01*
Y613D01*
X1276Y615D01*
X1274Y618D01*
X1272Y620D01*
G01X1251Y632D02*
X1247Y634D01*
X1246Y637D01*
X1245Y640D01*
X1246Y644D01*
X1249Y647D01*
X1252Y648D01*
X1255Y647D01*
X1258Y646D01*
X1263Y638D01*
X1267Y634D01*
X1272Y632D01*
X1277Y631D01*
Y648D01*
G01Y674D02*
X1245D01*
X1268Y659D01*
Y679D01*
G01X1428Y695D02*
X1430Y697D01*
X1431Y700D01*
Y703D01*
X1429Y707D01*
X1427Y710D01*
X1424Y712D01*
X1418Y713D01*
X1414Y714D01*
X1409Y713D01*
X1406Y712D01*
X1403Y709D01*
X1401Y706D01*
X1399Y704D01*
Y701D01*
X1401Y698D01*
X1402Y696D01*
X1404Y694D01*
G01X1399Y674D02*
X1431D01*
X1425Y679D01*
G01X1399D02*
Y669D01*
G01X1406Y653D02*
X1402Y651D01*
X1400Y648D01*
X1399Y644D01*
X1400Y641D01*
X1403Y638D01*
X1406Y636D01*
X1409Y636D01*
X1413Y636D01*
X1415Y639D01*
X1416Y642D01*
Y645D01*
G01Y642D02*
X1418Y640D01*
X1420Y638D01*
X1424Y637D01*
X1427Y638D01*
X1429Y640D01*
X1431Y643D01*
X1430Y647D01*
X1428Y650D01*
G01X1395Y832D02*
Y809D01*
X1396Y804D01*
X1400Y801D01*
X1404Y800D01*
X1407Y801D01*
X1411Y804D01*
X1412Y809D01*
Y832D01*
G01X1426Y826D02*
X1428Y830D01*
X1431Y831D01*
X1434Y832D01*
X1438Y831D01*
X1441Y828D01*
X1441Y825D01*
X1441Y822D01*
X1439Y819D01*
X1431Y814D01*
X1428Y810D01*
X1426Y805D01*
X1425Y800D01*
X1441D01*
G01X1420Y1052D02*
Y1020D01*
X1436D01*
G01X1458D02*
X1460Y1021D01*
X1464Y1023D01*
X1466Y1025D01*
X1466Y1029D01*
X1466Y1033D01*
X1463Y1036D01*
X1460Y1037D01*
X1456D01*
X1453Y1038D01*
X1451Y1041D01*
X1451Y1045D01*
X1452Y1048D01*
X1455Y1051D01*
X1458Y1052D01*
X1461Y1051D01*
X1464Y1048D01*
X1465Y1045D01*
X1464Y1041D01*
X1462Y1038D01*
X1460Y1037D01*
X1456D01*
X1452Y1036D01*
X1450Y1033D01*
X1449Y1029D01*
X1450Y1025D01*
X1452Y1023D01*
X1455Y1021D01*
X1458Y1020D01*
G01X1460Y1149D02*
X1461Y1152D01*
X1462Y1154D01*
Y1158D01*
X1461Y1161D01*
X1458Y1164D01*
X1455Y1166D01*
X1450Y1167D01*
X1445Y1168D01*
X1440Y1167D01*
X1437Y1166D01*
X1434Y1164D01*
X1432Y1161D01*
X1431Y1158D01*
Y1155D01*
X1432Y1153D01*
X1433Y1150D01*
X1435Y1148D01*
G01X1431Y1124D02*
X1462D01*
X1440Y1138D01*
Y1119D01*
G01X1276Y1350D02*
Y1382D01*
X1285D01*
X1288Y1380D01*
X1291Y1377D01*
X1291Y1372D01*
X1291Y1368D01*
X1289Y1365D01*
X1285Y1364D01*
X1276D01*
G01X1318Y1350D02*
Y1382D01*
X1303Y1359D01*
X1323D01*
G01X1376Y1350D02*
Y1382D01*
X1385D01*
X1388Y1380D01*
X1391Y1377D01*
X1391Y1372D01*
X1391Y1368D01*
X1389Y1365D01*
X1385Y1364D01*
X1376D01*
G01X1404Y1357D02*
X1407Y1353D01*
X1410Y1351D01*
X1413Y1350D01*
X1417Y1351D01*
X1420Y1354D01*
X1422Y1357D01*
X1422Y1360D01*
X1421Y1364D01*
X1419Y1366D01*
X1416Y1367D01*
X1412D01*
G01X1416D02*
X1418Y1369D01*
X1420Y1371D01*
X1421Y1375D01*
X1420Y1378D01*
X1418Y1380D01*
X1415Y1382D01*
X1411Y1381D01*
X1407Y1379D01*
G01X1176Y1350D02*
Y1382D01*
X1185D01*
X1188Y1380D01*
X1191Y1377D01*
X1191Y1372D01*
X1191Y1368D01*
X1189Y1365D01*
X1185Y1364D01*
X1176D01*
G01X1204Y1355D02*
X1207Y1352D01*
X1209Y1351D01*
X1213Y1350D01*
X1217Y1351D01*
X1219Y1354D01*
X1221Y1357D01*
X1222Y1361D01*
X1221Y1366D01*
X1219Y1368D01*
X1216Y1370D01*
X1213Y1371D01*
X1211Y1370D01*
X1207Y1368D01*
X1208Y1382D01*
X1219D01*
G01X1331Y1244D02*
Y1275D01*
X1341D01*
X1344Y1274D01*
X1346Y1272D01*
X1347Y1267D01*
X1346Y1263D01*
X1344Y1261D01*
X1341Y1259D01*
X1331D01*
G01X1341D02*
X1347Y1244D01*
G01X1369D02*
Y1275D01*
X1364Y1269D01*
G01Y1244D02*
X1374D01*
G01X1697Y102D02*
X1700Y105D01*
X1702Y106D01*
X1706Y107D01*
X1709Y106D01*
X1712Y103D01*
X1713Y100D01*
X1713Y97D01*
X1711Y94D01*
X1703Y89D01*
X1700Y85D01*
X1697Y80D01*
X1696Y75D01*
X1713D01*
G01X1726Y80D02*
X1728Y77D01*
X1731Y76D01*
X1734Y75D01*
X1738Y76D01*
X1741Y78D01*
X1743Y82D01*
X1743Y86D01*
X1742Y91D01*
X1740Y93D01*
X1737Y95D01*
X1735Y96D01*
X1732Y95D01*
X1728Y93D01*
X1730Y107D01*
X1740D01*
G01X1764D02*
X1761Y106D01*
X1758Y103D01*
X1757Y100D01*
X1756Y96D01*
X1755Y91D01*
X1756Y86D01*
X1757Y82D01*
X1758Y79D01*
X1761Y76D01*
X1764Y75D01*
X1767Y76D01*
X1769Y79D01*
X1771Y82D01*
X1772Y86D01*
X1772Y91D01*
X1772Y96D01*
X1771Y100D01*
X1769Y103D01*
X1767Y106D01*
X1764Y107D01*
G01X1793Y75D02*
Y107D01*
X1789Y101D01*
G01Y75D02*
X1798D01*
G01X1815Y102D02*
X1818Y105D01*
X1820Y106D01*
X1824Y107D01*
X1828Y106D01*
X1830Y103D01*
X1831Y100D01*
X1831Y97D01*
X1829Y94D01*
X1821Y89D01*
X1818Y85D01*
X1815Y80D01*
X1815Y75D01*
X1831D01*
G01X1852Y107D02*
X1849Y106D01*
X1847Y103D01*
X1845Y100D01*
X1844Y96D01*
X1844Y91D01*
X1844Y86D01*
X1845Y82D01*
X1847Y79D01*
X1849Y76D01*
X1852Y75D01*
X1856Y76D01*
X1858Y79D01*
X1859Y82D01*
X1861Y86D01*
X1861Y91D01*
X1861Y96D01*
X1859Y100D01*
X1858Y103D01*
X1856Y106D01*
X1852Y107D01*
G01X1882Y75D02*
Y107D01*
X1877Y101D01*
G01Y75D02*
X1887D01*
G01X1904Y102D02*
X1906Y105D01*
X1909Y106D01*
X1912Y107D01*
X1916Y106D01*
X1919Y103D01*
X1920Y100D01*
X1919Y97D01*
X1918Y94D01*
X1910Y89D01*
X1906Y85D01*
X1904Y80D01*
X1903Y75D01*
X1920D01*
G01X1963D02*
Y107D01*
X1972D01*
X1976Y105D01*
X1978Y103D01*
X1978Y99D01*
X1978Y95D01*
X1975Y92D01*
X1972Y91D01*
X1963D01*
G01X1972D02*
X1978Y75D01*
G01X1994Y89D02*
X2007D01*
X2006Y93D01*
X2004Y95D01*
X2001Y96D01*
X1998Y96D01*
X1996Y94D01*
X1994Y91D01*
X1993Y87D01*
Y84D01*
X1994Y81D01*
X1996Y78D01*
X1998Y76D01*
X2001Y75D01*
X2004Y76D01*
X2007Y80D01*
G01X2022Y96D02*
X2030Y75D01*
X2037Y96D01*
G01X2059Y74D02*
X2058Y75D01*
Y76D01*
X2059Y76D01*
X2060Y76D01*
Y75D01*
X2059Y74D01*
G01X2089Y107D02*
X2085Y106D01*
X2083Y103D01*
X2081Y100D01*
X2080Y96D01*
X2080Y91D01*
X2080Y86D01*
X2081Y82D01*
X2083Y79D01*
X2085Y76D01*
X2089Y75D01*
X2092Y76D01*
X2094Y79D01*
X2096Y82D01*
X2097Y86D01*
X2097Y91D01*
X2097Y96D01*
X2096Y100D01*
X2094Y103D01*
X2092Y106D01*
X2089Y107D01*
G01X1471Y28D02*
Y59D01*
X1480D01*
X1483Y57D01*
X1486Y54D01*
X1487Y50D01*
X1486Y45D01*
X1484Y42D01*
X1480Y41D01*
X1471D01*
G01X1500Y34D02*
X1502Y30D01*
X1505Y28D01*
X1509Y28D01*
X1512Y28D01*
X1515Y31D01*
X1517Y34D01*
X1517Y37D01*
X1517Y41D01*
X1514Y43D01*
X1511Y44D01*
X1507D01*
G01X1511D02*
X1513Y46D01*
X1515Y49D01*
X1516Y52D01*
X1515Y55D01*
X1513Y57D01*
X1510Y59D01*
X1506Y59D01*
X1503Y56D01*
G01X1538Y28D02*
Y59D01*
X1533Y53D01*
G01Y28D02*
X1543D01*
G01X1644Y826D02*
X1676D01*
Y842D01*
G01X1649Y856D02*
X1646Y859D01*
X1645Y861D01*
X1644Y864D01*
X1645Y868D01*
X1648Y871D01*
X1651Y872D01*
X1654Y872D01*
X1657Y870D01*
X1662Y862D01*
X1666Y859D01*
X1671Y856D01*
X1676Y855D01*
Y872D01*
G01X1611Y635D02*
X1643D01*
Y625D01*
X1641Y622D01*
X1639Y620D01*
X1635Y620D01*
X1631Y620D01*
X1628Y623D01*
X1626Y625D01*
Y635D01*
G01Y625D02*
X1611Y620D01*
G01X1615Y605D02*
X1612Y602D01*
X1611Y599D01*
X1612Y596D01*
X1615Y593D01*
X1620Y591D01*
X1625Y590D01*
X1631D01*
X1635Y591D01*
X1640Y593D01*
X1642Y595D01*
X1643Y598D01*
X1642Y601D01*
X1640Y603D01*
X1636Y605D01*
X1632Y606D01*
X1629Y605D01*
X1625Y603D01*
X1623Y601D01*
X1622Y598D01*
X1623Y595D01*
X1626Y592D01*
X1631Y590D01*
G01X1707Y730D02*
X1704Y731D01*
X1701Y732D01*
X1698D01*
X1695Y731D01*
X1692Y728D01*
X1690Y725D01*
X1688Y720D01*
X1688Y715D01*
X1689Y710D01*
X1690Y707D01*
X1692Y704D01*
X1695Y702D01*
X1698Y701D01*
X1701D01*
X1703Y702D01*
X1706Y704D01*
X1708Y706D01*
G01X1727Y701D02*
Y732D01*
X1723Y726D01*
G01Y701D02*
X1732D01*
G01X1748Y706D02*
X1751Y703D01*
X1753Y701D01*
X1757Y701D01*
X1761Y702D01*
X1763Y704D01*
X1765Y708D01*
X1766Y712D01*
X1765Y716D01*
X1763Y719D01*
X1760Y721D01*
X1757Y721D01*
X1755Y721D01*
X1751Y719D01*
X1752Y732D01*
X1763D01*
G01X1492Y778D02*
X1490Y779D01*
X1487Y780D01*
X1484D01*
X1480Y779D01*
X1477Y776D01*
X1475Y773D01*
X1474Y768D01*
X1473Y763D01*
X1474Y758D01*
X1475Y755D01*
X1478Y752D01*
X1481Y750D01*
X1483Y749D01*
X1486D01*
X1489Y750D01*
X1491Y751D01*
X1493Y754D01*
G01X1513Y749D02*
Y780D01*
X1508Y774D01*
G01Y749D02*
X1518D01*
G01X1542Y780D02*
X1539Y779D01*
X1537Y777D01*
X1535Y773D01*
X1534Y769D01*
X1534Y765D01*
X1534Y760D01*
X1535Y756D01*
X1537Y752D01*
X1539Y750D01*
X1542Y749D01*
X1545Y750D01*
X1548Y752D01*
X1549Y756D01*
X1551Y760D01*
X1551Y765D01*
X1551Y769D01*
X1549Y773D01*
X1548Y777D01*
X1545Y779D01*
X1542Y780D01*
G01X1485Y618D02*
X1483Y616D01*
X1482Y613D01*
Y610D01*
X1484Y607D01*
X1486Y604D01*
X1489Y602D01*
X1495Y600D01*
X1499Y600D01*
X1504Y601D01*
X1507Y602D01*
X1510Y604D01*
X1512Y607D01*
X1513Y610D01*
Y612D01*
X1512Y615D01*
X1511Y618D01*
X1509Y620D01*
G01X1487Y632D02*
X1484Y634D01*
X1482Y637D01*
X1482Y640D01*
X1483Y644D01*
X1486Y647D01*
X1489Y647D01*
X1492Y647D01*
X1495Y646D01*
X1500Y638D01*
X1504Y634D01*
X1509Y632D01*
X1513Y631D01*
Y647D01*
G01X1509Y660D02*
X1511Y662D01*
X1513Y665D01*
X1513Y669D01*
X1512Y672D01*
X1510Y675D01*
X1507Y677D01*
X1502Y677D01*
X1498Y677D01*
X1496Y675D01*
X1494Y672D01*
X1493Y669D01*
X1494Y666D01*
X1496Y663D01*
X1482Y664D01*
Y675D01*
G01X1763Y1115D02*
Y1083D01*
X1779D01*
G01X1792Y1088D02*
X1794Y1086D01*
X1797Y1084D01*
X1800Y1083D01*
X1804Y1084D01*
X1806Y1087D01*
X1808Y1090D01*
X1809Y1094D01*
X1808Y1099D01*
X1806Y1101D01*
X1803Y1103D01*
X1801Y1104D01*
X1798Y1103D01*
X1794Y1101D01*
X1795Y1115D01*
X1806D01*
G01X1623Y1029D02*
X1621Y1027D01*
X1620Y1024D01*
Y1021D01*
X1622Y1018D01*
X1624Y1015D01*
X1628Y1013D01*
X1633Y1011D01*
X1638Y1011D01*
X1642Y1012D01*
X1645Y1013D01*
X1649Y1015D01*
X1651Y1018D01*
X1652Y1021D01*
Y1023D01*
X1651Y1026D01*
X1649Y1029D01*
X1647Y1031D01*
G01X1625Y1043D02*
X1622Y1045D01*
X1621Y1048D01*
X1620Y1051D01*
X1621Y1055D01*
X1624Y1058D01*
X1627Y1058D01*
X1630Y1058D01*
X1633Y1056D01*
X1638Y1049D01*
X1642Y1045D01*
X1647Y1043D01*
X1652Y1042D01*
Y1058D01*
G01Y1079D02*
X1645Y1080D01*
X1639Y1081D01*
X1634Y1082D01*
X1628Y1084D01*
X1620Y1088D01*
Y1072D01*
G01X1701Y1102D02*
X1699Y1099D01*
X1698Y1096D01*
Y1093D01*
X1700Y1090D01*
X1702Y1087D01*
X1706Y1085D01*
X1711Y1083D01*
X1715Y1083D01*
X1720Y1084D01*
X1723Y1085D01*
X1726Y1087D01*
X1729Y1090D01*
X1730Y1093D01*
Y1096D01*
X1729Y1098D01*
X1727Y1101D01*
X1725Y1103D01*
G01X1730Y1122D02*
X1698D01*
X1704Y1118D01*
G01X1730D02*
Y1127D01*
G01X1726Y1145D02*
X1729Y1148D01*
X1730Y1151D01*
X1729Y1154D01*
X1725Y1157D01*
X1721Y1159D01*
X1716Y1160D01*
X1710D01*
X1706Y1159D01*
X1701Y1157D01*
X1699Y1155D01*
X1698Y1152D01*
X1699Y1149D01*
X1701Y1146D01*
X1704Y1145D01*
X1709Y1144D01*
X1712Y1145D01*
X1716Y1147D01*
X1718Y1149D01*
X1719Y1152D01*
X1718Y1155D01*
X1715Y1157D01*
X1710Y1160D01*
G01X1492Y1136D02*
X1490Y1137D01*
X1487Y1139D01*
X1484D01*
X1480Y1137D01*
X1477Y1134D01*
X1475Y1131D01*
X1474Y1126D01*
X1473Y1121D01*
X1474Y1116D01*
X1475Y1113D01*
X1478Y1110D01*
X1481Y1108D01*
X1483Y1107D01*
X1486D01*
X1489Y1108D01*
X1491Y1110D01*
X1493Y1112D01*
G01X1513Y1107D02*
X1516Y1108D01*
X1519Y1109D01*
X1521Y1112D01*
X1521Y1115D01*
X1521Y1119D01*
X1518Y1122D01*
X1515Y1124D01*
X1511D01*
X1508Y1125D01*
X1506Y1128D01*
X1506Y1131D01*
X1507Y1135D01*
X1510Y1137D01*
X1513Y1139D01*
X1516Y1137D01*
X1519Y1135D01*
X1520Y1131D01*
X1519Y1128D01*
X1517Y1125D01*
X1515Y1124D01*
X1511D01*
X1507Y1122D01*
X1505Y1119D01*
X1504Y1115D01*
X1505Y1112D01*
X1507Y1109D01*
X1510Y1108D01*
X1513Y1107D01*
G01X1576Y1350D02*
Y1382D01*
X1585D01*
X1588Y1380D01*
X1591Y1377D01*
X1591Y1372D01*
X1591Y1368D01*
X1589Y1365D01*
X1585Y1364D01*
X1576D01*
G01X1613Y1350D02*
Y1382D01*
X1608Y1376D01*
G01Y1350D02*
X1618D01*
G01X1476D02*
Y1382D01*
X1485D01*
X1488Y1380D01*
X1491Y1377D01*
X1491Y1372D01*
X1491Y1368D01*
X1489Y1365D01*
X1485Y1364D01*
X1476D01*
G01X1506Y1377D02*
X1508Y1380D01*
X1511Y1381D01*
X1514Y1382D01*
X1518Y1381D01*
X1520Y1378D01*
X1521Y1375D01*
X1521Y1372D01*
X1519Y1369D01*
X1511Y1364D01*
X1508Y1360D01*
X1506Y1355D01*
X1505Y1350D01*
X1521D01*
G01X1889Y682D02*
Y650D01*
X1905D01*
G01X1919Y654D02*
X1922Y651D01*
X1925Y650D01*
X1929Y651D01*
X1931Y655D01*
X1933Y659D01*
X1934Y664D01*
Y670D01*
X1933Y674D01*
X1931Y679D01*
X1929Y681D01*
X1926Y682D01*
X1923Y681D01*
X1921Y679D01*
X1919Y676D01*
X1918Y671D01*
X1919Y668D01*
X1921Y664D01*
X1923Y662D01*
X1926Y661D01*
X1929Y662D01*
X1932Y665D01*
X1934Y670D01*
G01X1991Y829D02*
X1993Y831D01*
X1994Y834D01*
Y837D01*
X1992Y841D01*
X1990Y844D01*
X1987Y845D01*
X1981Y847D01*
X1977Y847D01*
X1972Y847D01*
X1969Y845D01*
X1966Y843D01*
X1964Y840D01*
X1962Y838D01*
Y835D01*
X1964Y832D01*
X1965Y830D01*
X1967Y828D01*
G01X1989Y816D02*
X1992Y813D01*
X1993Y810D01*
X1994Y807D01*
X1993Y803D01*
X1990Y801D01*
X1987Y800D01*
X1984Y800D01*
X1981Y802D01*
X1976Y810D01*
X1972Y813D01*
X1967Y816D01*
X1962Y816D01*
Y800D01*
G01Y779D02*
X1963Y776D01*
X1965Y773D01*
X1967Y771D01*
X1971Y770D01*
X1975Y771D01*
X1978Y773D01*
X1979Y777D01*
Y781D01*
X1980Y783D01*
X1983Y785D01*
X1987Y786D01*
X1990Y784D01*
X1993Y782D01*
X1994Y779D01*
X1993Y775D01*
X1990Y773D01*
X1987Y771D01*
X1983Y772D01*
X1980Y774D01*
X1979Y777D01*
Y781D01*
X1978Y784D01*
X1975Y786D01*
X1971Y787D01*
X1967Y786D01*
X1965Y784D01*
X1963Y781D01*
X1962Y779D01*
G01X2091Y759D02*
X2092Y762D01*
X2093Y765D01*
Y768D01*
X2092Y771D01*
X2089Y774D01*
X2086Y776D01*
X2081Y778D01*
X2076Y778D01*
X2071Y777D01*
X2068Y776D01*
X2065Y774D01*
X2063Y771D01*
X2062Y768D01*
Y765D01*
X2063Y763D01*
X2064Y760D01*
X2067Y758D01*
G01X2062Y739D02*
X2093D01*
X2087Y743D01*
G01X2062D02*
Y734D01*
G01X2075Y716D02*
X2079Y714D01*
X2081Y711D01*
X2082Y708D01*
X2081Y705D01*
X2079Y704D01*
X2076Y702D01*
X2072Y702D01*
X2069Y702D01*
X2066Y704D01*
X2063Y706D01*
X2062Y709D01*
X2063Y712D01*
X2066Y715D01*
X2071Y716D01*
X2076Y716D01*
X2083Y716D01*
X2087Y715D01*
X2090Y713D01*
X2093Y710D01*
X2093Y707D01*
X2092Y704D01*
X2090Y702D01*
G01X1858Y793D02*
X1860Y796D01*
X1861Y798D01*
Y802D01*
X1859Y805D01*
X1856Y808D01*
X1853Y810D01*
X1848Y811D01*
X1843Y812D01*
X1839Y811D01*
X1835Y810D01*
X1832Y807D01*
X1830Y805D01*
X1829Y802D01*
Y799D01*
X1830Y796D01*
X1832Y794D01*
X1834Y792D01*
G01X1829Y772D02*
X1861D01*
X1854Y777D01*
G01X1829D02*
Y768D01*
G01Y738D02*
X1861D01*
X1838Y753D01*
Y733D01*
G01X1981Y1027D02*
Y995D01*
X1996D01*
G01X2023D02*
Y1027D01*
X2008Y1004D01*
X2028D01*
G01X1782Y969D02*
Y938D01*
X1798D01*
G01X1811Y944D02*
X1814Y940D01*
X1817Y938D01*
X1820Y938D01*
X1823Y938D01*
X1827Y941D01*
X1829Y944D01*
X1829Y947D01*
X1828Y951D01*
X1825Y954D01*
X1823Y955D01*
X1819D01*
G01X1823D02*
X1825Y956D01*
X1827Y959D01*
X1828Y962D01*
X1827Y965D01*
X1825Y968D01*
X1821Y969D01*
X1818Y969D01*
X1814Y967D01*
G01X1993Y1108D02*
X1995Y1110D01*
X1996Y1113D01*
Y1116D01*
X1994Y1120D01*
X1992Y1122D01*
X1989Y1124D01*
X1983Y1126D01*
X1979Y1126D01*
X1974Y1126D01*
X1971Y1124D01*
X1968Y1122D01*
X1966Y1119D01*
X1965Y1116D01*
Y1114D01*
X1966Y1111D01*
X1967Y1109D01*
X1969Y1107D01*
G01X1965Y1087D02*
X1996D01*
X1990Y1092D01*
G01X1965D02*
Y1082D01*
G01Y1058D02*
X1971Y1057D01*
X1977Y1056D01*
X1982Y1055D01*
X1988Y1053D01*
X1996Y1050D01*
Y1065D01*
G01X2199Y102D02*
Y126D01*
G01X2189Y135D02*
X2157D01*
Y143D01*
X2159Y146D01*
X2161Y148D01*
X2164Y150D01*
X2168Y152D01*
X2173Y152D01*
X2178Y152D01*
X2182Y150D01*
X2185Y148D01*
X2187Y146D01*
X2189Y143D01*
Y135D01*
G01X2172Y176D02*
X2171Y178D01*
X2168Y179D01*
X2164Y180D01*
X2161Y179D01*
X2159Y178D01*
X2157Y175D01*
Y164D01*
X2189D01*
Y177D01*
X2187Y180D01*
X2184Y181D01*
X2180Y182D01*
X2176Y181D01*
X2173Y179D01*
X2172Y176D01*
Y164D01*
G01X2199Y191D02*
Y215D01*
G01X2154Y491D02*
X2156Y488D01*
X2158Y486D01*
X2161Y485D01*
X2164Y486D01*
X2167Y488D01*
X2169Y491D01*
X2170Y495D01*
Y516D01*
G01X2191Y485D02*
Y516D01*
X2187Y510D01*
G01Y485D02*
X2196D01*
G01X2192Y971D02*
X2190Y972D01*
X2187Y973D01*
X2184D01*
X2180Y972D01*
X2178Y969D01*
X2176Y966D01*
X2174Y961D01*
X2174Y956D01*
X2175Y951D01*
X2176Y948D01*
X2178Y945D01*
X2181Y943D01*
X2184Y942D01*
X2186D01*
X2189Y943D01*
X2191Y945D01*
X2193Y947D01*
G01X2213Y942D02*
Y973D01*
X2208Y967D01*
G01Y942D02*
X2218D01*
G01X2243D02*
X2245Y942D01*
X2249Y944D01*
X2251Y947D01*
X2251Y950D01*
X2251Y954D01*
X2248Y957D01*
X2245Y959D01*
X2241D01*
X2238Y960D01*
X2236Y962D01*
X2236Y966D01*
X2237Y970D01*
X2240Y972D01*
X2243Y973D01*
X2246Y972D01*
X2249Y970D01*
X2250Y966D01*
X2249Y962D01*
X2247Y960D01*
X2245Y959D01*
X2241D01*
X2237Y957D01*
X2235Y954D01*
X2234Y950D01*
X2235Y947D01*
X2237Y944D01*
X2240Y942D01*
X2243Y942D01*
G54D12*
G01X753Y357D02*
X305D01*
G01X304Y358D02*
Y413D01*
G01X304Y495D02*
Y548D01*
G01X752Y547D02*
X304D01*
G01X753Y357D02*
X305D01*
G01X753Y357D02*
Y412D01*
G01X753Y494D02*
Y547D01*
G01X753Y357D02*
Y412D01*
G01X753Y494D02*
Y547D01*
G01X1601Y298D02*
X1153D01*
G01X1153Y299D02*
Y354D01*
G01X1152Y436D02*
Y490D01*
G01X1601Y489D02*
X1153D01*
G01X1601Y298D02*
X1153D01*
G01X1602Y299D02*
Y354D01*
G01X1601Y435D02*
Y488D01*
G01X1602Y299D02*
Y354D01*
G01X1601Y435D02*
Y488D01*
G54D13*
G01X1760Y264D02*
X1914D01*
G01X1768Y305D02*
X1837Y280D01*
G01X1721Y328D02*
X1726Y316D01*
G02X1732Y318I6J-13D01*
G02X1746Y304I0J-14D01*
G02X1737Y291I-14J0D01*
G01D02*
X1743Y279D01*
G03X1759Y304I-11J25D01*
G03X1732Y331I-27J0D01*
G03X1721Y328I0J-27D01*
G01X1768Y310D02*
X1758Y309D01*
G01D02*
X1757Y313D01*
G01D02*
X1770Y328D01*
G01X1837Y280D02*
G02Y264I0J-8D01*
G02Y280I0J8D01*
G01X1837Y448D02*
G02Y426I0J-11D01*
G02Y448I0J11D01*
G01X1800Y363D02*
G02Y327I0J-18D01*
G02Y363I0J18D01*
G01X1874Y363D02*
G02Y327I0J-18D01*
G02Y363I0J18D01*
G01X1837Y280D02*
X1906Y305D01*
G03X1885Y377I-137J0D01*
G03X1837Y404I-52J-36D01*
G03X1786Y373I4J-63D01*
G03X1768Y305I119J-69D01*
G01X1953Y332D02*
X1947Y343D01*
G02X1941Y341I-7J12D01*
G02X1927Y355I0J14D01*
G02X1934Y367I14J0D01*
G01D02*
X1928Y378D01*
G03X1915Y355I12J-23D01*
G03X1941Y329I26J0D01*
G03X1953Y332I0J26D01*
G01X1901Y341D02*
X1918Y341D01*
G01D02*
X1920Y339D01*
G01D02*
X1904Y324D01*
G01D02*
X1906Y305D01*
G01D02*
X1768D01*
G01D02*
X1768Y310D01*
G01X1834Y404D02*
X1840Y418D01*
G01D02*
X1828Y415D01*
G01D02*
X1836Y426D01*
G01X2012Y434D02*
G03X2001Y445I-11J0D01*
G01D02*
X1990D01*
G01D02*
Y412D01*
G01D02*
X2001D01*
G01D02*
G03X2012Y423I0J11D01*
G01D02*
Y434D01*
G01X2001Y368D02*
G03X2012Y379I0J11D01*
G01D02*
Y390D01*
G03X2012Y391I-10J1D01*
G03X2002Y401I-10J0D01*
G03X2001I-1J-10D01*
G01D02*
X1990D01*
G01D02*
Y368D01*
G01D02*
X2001D01*
G01X2012Y357D02*
G03X2034Y382I-3J25D01*
G03X2012Y406I-25J0D01*
G03X2036Y431I-1J25D01*
G03X2012Y456I-25J0D01*
G01D02*
X1968D01*
G01D02*
Y357D01*
G01D02*
X2012D01*
G01X2099D02*
X2077D01*
G02X2055Y379I0J22D01*
G01D02*
G01Y379D02*
Y412D01*
G02X2078Y434I22J0D01*
G01D02*
X2077D01*
G01D02*
X2099D01*
G02X2121Y412I0J-22D01*
G01D02*
G01Y412D02*
Y390D01*
G01D02*
X2077D01*
G01D02*
Y379D01*
G01D02*
G03X2088Y368I11J0D01*
G01D02*
X2099D01*
G03X2100I0J10D01*
G03X2110Y378I0J10D01*
G03X2110Y379I-10J0D01*
G01D02*
X2121D01*
G02X2099Y357I-22J0D01*
G02X2098I0J22D01*
G01X2078Y412D02*
G02X2089Y423I11J0D01*
G02X2099Y412I0J-11D01*
G01Y412D02*
Y401D01*
G01D02*
X2077D01*
G01D02*
Y412D01*
G01X2182Y424D02*
G02Y423I-12J0D01*
G02X2171Y411I-12J0D01*
G01D02*
X2160D01*
G01D02*
Y444D01*
G01D02*
X2171D01*
G02X2172I0J-10D01*
G02X2182Y433I0J-10D01*
G01Y433D02*
Y422D01*
G01Y406D02*
X2193D01*
G02X2204Y395I0J-11D01*
G01D02*
G01Y395D02*
Y356D01*
G01D02*
X2182D01*
G01D02*
Y389D01*
G01D02*
G03X2171Y400I-11J0D01*
G01D02*
X2160D01*
G01D02*
Y356D01*
G01D02*
X2139D01*
G01D02*
Y455D01*
G01D02*
X2182D01*
G02X2207Y430I0J-24D01*
G02X2182Y406I-24J0D01*
G01X2336Y356D02*
X2314D01*
G02X2292Y378I0J22D01*
G01D02*
G01Y378D02*
Y433D01*
G02X2314Y455I22J0D01*
G01D02*
G01X2314D02*
X2336D01*
G02X2358Y433I0J-22D01*
G01D02*
G01Y433D02*
Y378D01*
G02X2336Y356I-22J0D01*
G01X2325Y367D02*
G02X2314Y378I0J11D01*
G01D02*
G01Y378D02*
Y433D01*
G02X2325Y444I11J0D01*
G02X2336Y433I0J-11D01*
G01D02*
G01Y433D02*
Y378D01*
G02X2325Y367I-11J0D01*
G01X2215Y455D02*
X2281D01*
G01D02*
Y444D01*
G01D02*
X2259D01*
G01D02*
Y356D01*
G01D02*
X2237D01*
G01D02*
Y444D01*
G01D02*
X2215D01*
G01D02*
Y455D01*
G01X2435Y434D02*
G03X2414Y455I-20J0D01*
G03X2413I-1J-20D01*
G01D02*
X2402D01*
G03X2380Y429I4J-26D01*
G03X2386Y412I26J0D01*
G01D02*
X2410Y386D01*
G02X2413Y377I-8J-8D01*
G02X2410Y370I-11J0D01*
G02X2402Y366I-8J8D01*
G02X2391Y377I0J11D01*
G02X2391Y378I11J-1D01*
G01D02*
X2380D01*
G03X2380Y375I20J-3D01*
G03X2399Y356I19J0D01*
G03X2402Y356I0J19D01*
G01D02*
X2413D01*
G03X2436Y381I-1J25D01*
G03X2428Y399I-25J0D01*
G01D02*
X2405Y425D01*
G02X2401Y433I8J8D01*
G02X2413Y444I11J0D01*
G02X2424Y433I0J-11D01*
G01Y433D02*
X2435D01*
G03Y434I-21J1D01*
G54D14*
G01X260Y913D02*
X378D01*
Y555D01*
X260D01*
Y913D01*
X276D01*
G01X1199Y903D02*
Y847D01*
X1254D01*
G01X1360D02*
X1415D01*
Y903D01*
G01X1254Y1068D02*
X1219D01*
X1199Y1048D01*
Y1013D01*
G01X1364Y1068D02*
X1415D01*
Y1013D01*
G01X2138Y867D02*
X2469D01*
Y532D01*
X2134D01*
Y867D01*
X2138D01*
G54D15*
G01X1643Y130D02*
Y173D01*
X1657D01*
X1662Y171D01*
X1665Y168D01*
X1666Y162D01*
X1665Y157D01*
X1662Y153D01*
X1657Y151D01*
X1643D01*
G01X1657D02*
X1666Y130D01*
G01X1706D02*
Y159D01*
G01Y154D02*
X1704Y157D01*
X1701Y158D01*
X1696Y159D01*
X1692Y157D01*
X1689Y154D01*
X1686Y150D01*
X1685Y144D01*
X1686Y139D01*
X1689Y134D01*
X1692Y131D01*
X1696Y130D01*
X1701Y131D01*
X1704Y133D01*
X1706Y136D01*
G01X1748Y173D02*
Y130D01*
G01Y136D02*
X1745Y133D01*
X1742Y131D01*
X1738Y130D01*
X1733Y131D01*
X1730Y135D01*
X1727Y139D01*
X1727Y144D01*
X1727Y149D01*
X1730Y154D01*
X1733Y157D01*
X1738Y159D01*
X1742Y158D01*
X1745Y157D01*
X1748Y154D01*
G01X1779Y159D02*
Y130D01*
G01Y170D02*
X1777Y171D01*
Y173D01*
X1779Y173D01*
X1780Y173D01*
Y171D01*
X1779Y170D01*
G01X1820Y130D02*
X1816Y131D01*
X1813Y134D01*
X1810Y139D01*
X1809Y144D01*
X1810Y150D01*
X1813Y155D01*
X1816Y158D01*
X1820Y159D01*
X1823Y158D01*
X1827Y155D01*
X1829Y150D01*
X1830Y144D01*
X1829Y139D01*
X1827Y134D01*
X1823Y131D01*
X1820Y130D01*
G01X1887D02*
Y173D01*
X1903Y137D01*
X1918Y173D01*
Y130D01*
G01X1944D02*
X1940Y131D01*
X1937Y134D01*
X1934Y139D01*
X1933Y144D01*
X1934Y150D01*
X1937Y155D01*
X1940Y158D01*
X1944Y159D01*
X1947Y158D01*
X1951Y155D01*
X1953Y150D01*
X1954Y144D01*
X1953Y139D01*
X1951Y134D01*
X1947Y131D01*
X1944Y130D01*
G01X1996Y173D02*
Y130D01*
G01Y136D02*
X1994Y133D01*
X1990Y131D01*
X1986Y130D01*
X1981Y131D01*
X1978Y135D01*
X1975Y139D01*
X1975Y144D01*
X1975Y149D01*
X1978Y154D01*
X1981Y157D01*
X1986Y159D01*
X1990Y158D01*
X1993Y157D01*
X1996Y154D01*
G01X2017Y159D02*
Y139D01*
X2019Y134D01*
X2022Y131D01*
X2027Y130D01*
X2031Y131D01*
X2034Y134D01*
X2037Y139D01*
G01Y130D02*
Y159D01*
G01X2068Y130D02*
Y173D01*
G01X2100Y149D02*
X2119D01*
X2118Y154D01*
X2115Y157D01*
X2110Y159D01*
X2106Y158D01*
X2103Y156D01*
X2100Y151D01*
X2099Y147D01*
Y142D01*
X2100Y138D01*
X2103Y134D01*
X2107Y131D01*
X2111Y130D01*
X2115Y131D01*
X2119Y136D01*
G54D16*
G01X472Y239D02*
Y344D01*
G01X670Y239D02*
X472D01*
G01Y344D02*
X670D01*
G01X503Y603D02*
Y718D01*
G01X567Y603D02*
X503D01*
G01Y718D02*
X567D01*
G01X412Y603D02*
Y718D01*
G01X477Y603D02*
X412D01*
G01X477Y718D02*
Y603D01*
G01X412Y718D02*
X477D01*
G01X446Y839D02*
X561D01*
G01X446Y775D02*
Y839D01*
G01X561Y775D02*
X446D01*
G01X561Y839D02*
Y775D01*
G01X446Y854D02*
Y918D01*
G01X561Y854D02*
X446D01*
G01X561Y918D02*
Y854D01*
G01X462Y1122D02*
Y1186D01*
G01X577Y1122D02*
X462D01*
G01X446Y918D02*
X561D01*
G01X462Y1186D02*
X577D01*
G01X670Y344D02*
Y239D01*
G01X755Y229D02*
Y344D01*
G01X819Y229D02*
X755D01*
G01X819Y344D02*
Y229D01*
G01X680D02*
Y344D01*
G01X745Y229D02*
X680D01*
G01X745Y344D02*
Y229D01*
G01X822Y562D02*
X707D01*
G01X822Y626D02*
Y562D01*
G01X707D02*
Y626D01*
G01X580Y562D02*
Y627D01*
G01X695Y562D02*
X580D01*
G01X695Y627D02*
Y562D01*
G01X755Y344D02*
X819D01*
G01X680D02*
X745D01*
G01X708Y653D02*
X593D01*
G01X708Y717D02*
Y653D01*
G01X593Y717D02*
X708D01*
G01X593Y653D02*
Y717D01*
G01X796Y755D02*
Y640D01*
G01X732Y755D02*
X796D01*
G01X732Y640D02*
Y755D01*
G01X796Y640D02*
X732D01*
G01X707Y626D02*
X822D01*
G01X580Y627D02*
X695D01*
G01X567Y718D02*
Y603D01*
G01X577Y1186D02*
Y1122D01*
G01X955Y259D02*
Y457D01*
G01X1060Y259D02*
X955D01*
G01X1060Y457D02*
Y259D01*
G01X1122Y585D02*
Y510D01*
G01X962D02*
Y585D01*
G01X1122Y510D02*
X962D01*
G01X1161Y525D02*
Y640D01*
G01X1225Y525D02*
X1161D01*
G01X955Y457D02*
X1060D01*
G01X962Y585D02*
X1122D01*
G01X1093Y609D02*
X978D01*
G01X1093Y674D02*
Y609D01*
G01X978Y674D02*
X1093D01*
G01X978Y609D02*
Y674D01*
G01X1129Y857D02*
X1014D01*
G01X1129Y922D02*
Y857D01*
G01X1014D02*
Y922D01*
G01X1161Y640D02*
X1225D01*
G01X1093Y692D02*
X978D01*
G01X1093Y756D02*
Y692D01*
G01X978Y756D02*
X1093D01*
G01X978Y692D02*
Y756D01*
G01X1145Y775D02*
X1030D01*
G01X1145Y839D02*
Y775D01*
G01X1030Y839D02*
X1145D01*
G01X1030Y775D02*
Y839D01*
G01X1163Y806D02*
X1228D01*
G01X1163Y691D02*
Y806D01*
G01X1228Y691D02*
X1163D01*
G01X1014Y922D02*
X1129D01*
G01X1044Y1162D02*
X1159D01*
G01X1044Y1098D02*
Y1162D01*
G01X1159Y1098D02*
X1044D01*
G01X1159Y1162D02*
Y1098D01*
G01X1125Y948D02*
X1010D01*
G01X1125Y1012D02*
Y948D01*
G01X1010Y1012D02*
X1125D01*
G01X1010Y948D02*
Y1012D01*
G01X1156Y1023D02*
X1041D01*
G01X1156Y1087D02*
Y1023D01*
G01X1041Y1087D02*
X1156D01*
G01X1041Y1023D02*
Y1087D01*
G01X1105Y1180D02*
X990D01*
G01X1105Y1245D02*
Y1180D01*
G01X990Y1245D02*
X1105D01*
G01X990Y1180D02*
Y1245D01*
G01X1225Y640D02*
Y525D01*
G01X1523Y523D02*
X1408D01*
G01D02*
Y587D01*
G01X1353Y523D02*
X1238D01*
G01X1353Y587D02*
Y523D01*
G01X1238D02*
Y587D01*
G01X1228Y806D02*
Y691D01*
G01X1408Y587D02*
X1523D01*
G01X1238Y587D02*
X1353D01*
G01X1383Y711D02*
Y596D01*
G01X1318Y711D02*
X1383D01*
G01X1318Y596D02*
Y711D01*
G01X1383Y596D02*
X1318D01*
G01X1275Y1120D02*
Y1235D01*
G01X1339Y1120D02*
X1275D01*
G01X1339Y1235D02*
Y1120D01*
G01X1261Y1235D02*
Y1120D01*
G01X1196D02*
Y1235D01*
G01X1261Y1120D02*
X1196D01*
G01X1418Y1235D02*
Y1120D01*
G01X1354D02*
Y1235D01*
G01X1418Y1120D02*
X1354D01*
G01X1275Y1235D02*
X1339D01*
G01X1196Y1235D02*
X1261D01*
G01X1354D02*
X1418D01*
G01X1535Y525D02*
Y640D01*
G01X1599Y525D02*
X1535D01*
G01X1599Y640D02*
Y525D01*
G01X1523Y587D02*
Y523D01*
G01X1688Y824D02*
Y939D01*
G01X1753Y824D02*
X1688D01*
G01X1753Y939D02*
Y824D01*
G01X1535Y640D02*
X1599D01*
G01X1804Y746D02*
X1689D01*
G01Y811D02*
X1804D01*
G01X1689Y746D02*
Y811D01*
G01X1879Y825D02*
X1764D01*
G01D02*
Y890D01*
G01X1589Y794D02*
X1474D01*
G01X1589Y859D02*
Y794D01*
G01X1474Y859D02*
X1589D01*
G01X1474Y794D02*
Y859D01*
G01X1589Y952D02*
X1474D01*
G01X1589Y1016D02*
Y952D01*
G01X1474Y1016D02*
X1589D01*
G01X1474Y952D02*
Y1016D01*
G01X1589Y873D02*
X1474D01*
G01X1589Y938D02*
Y873D01*
G01X1474Y938D02*
X1589D01*
G01X1474Y873D02*
Y938D01*
G01X1877Y1007D02*
X1762D01*
G01Y1071D02*
X1877D01*
G01X1762Y1007D02*
Y1071D01*
G01X1688Y939D02*
X1753D01*
G01X1605Y887D02*
Y1002D01*
G01X1670Y887D02*
X1605D01*
G01X1670Y1002D02*
Y887D01*
G01X1605Y1002D02*
X1670D01*
G01X1764Y890D02*
X1879D01*
G01X1751Y1069D02*
Y954D01*
G01X1687Y1069D02*
X1751D01*
G01X1687Y954D02*
Y1069D01*
G01X1751Y954D02*
X1687D01*
G01X1589Y1031D02*
X1474D01*
G01X1589Y1095D02*
Y1031D01*
G01X1474Y1095D02*
X1589D01*
G01X1474Y1031D02*
Y1095D01*
G01X2003Y696D02*
X1888D01*
G01X2003Y760D02*
Y696D01*
G01X1888Y760D02*
X2003D01*
G01X1888Y696D02*
Y760D01*
G01X1954Y889D02*
Y774D01*
G01X1889D02*
Y889D01*
G01X1954Y774D02*
X1889D01*
G01X1804Y811D02*
Y746D01*
G01X2044Y792D02*
Y907D01*
G01X2109Y792D02*
X2044D01*
G01X1879Y890D02*
Y825D01*
G01X1877Y1071D02*
Y1007D01*
G01X1968Y867D02*
Y982D01*
G01X2032Y867D02*
X1968D01*
G01X2032Y982D02*
Y867D01*
G01X1968Y982D02*
X2032D01*
G01X1952Y916D02*
X1837D01*
G01X1952Y981D02*
Y916D01*
G01X1837Y981D02*
X1952D01*
G01X1837Y916D02*
Y981D01*
G01X1889Y889D02*
X1954D01*
G01X2160Y917D02*
X2045D01*
G01Y981D02*
X2160D01*
G01X2045Y917D02*
Y981D01*
G01X1952Y1120D02*
Y1005D01*
G01X1887Y1120D02*
X1952D01*
G01X1887Y1005D02*
Y1120D01*
G01X1952Y1005D02*
X1887D01*
G01X2044Y907D02*
X2109D01*
G01D02*
Y792D01*
G01X2160Y981D02*
Y917D01*
G54D17*
G01X646Y861D02*
X647D01*
X656Y852D01*
Y789D01*
G01X676Y1101D02*
Y879D01*
X897D01*
Y1101D01*
X676D01*
G01X2005Y1171D02*
X2006Y1170D01*
G01D02*
X2007Y1169D01*
G01D02*
X2008Y1168D01*
G01D02*
X2009Y1168D01*
G01D02*
X2010Y1167D01*
G01D02*
X2011Y1166D01*
G01D02*
X2012Y1166D01*
G01D02*
X2013Y1165D01*
G01D02*
X2014Y1165D01*
G01D02*
X2015Y1164D01*
G01D02*
X2016Y1164D01*
G01D02*
X2017Y1164D01*
G01D02*
X2018Y1164D01*
G01D02*
X2019Y1163D01*
G01D02*
X2021Y1163D01*
G01D02*
X2023Y1163D01*
G01D02*
X2025D01*
G01D02*
X2027Y1163D01*
G01D02*
X2028Y1163D01*
G01D02*
X2030Y1164D01*
G01D02*
X2031Y1164D01*
G01D02*
X2032Y1164D01*
G01D02*
X2034Y1165D01*
G01D02*
X2035Y1165D01*
G01D02*
X2036Y1166D01*
G01D02*
X2037Y1167D01*
G01D02*
X2038Y1167D01*
G01D02*
X2039Y1167D01*
G01D02*
X2040Y1168D01*
G01D02*
X2041Y1169D01*
G01D02*
X2042Y1170D01*
G01D02*
X2043Y1171D01*
G01X2044Y1172D02*
X2042Y1164D01*
G01D02*
X2054D01*
G01D02*
X2071Y1261D01*
G01X2071Y1301D02*
X2067Y1300D01*
G01D02*
X2063Y1299D01*
G01D02*
X2056Y1297D01*
G01D02*
X2052Y1296D01*
G01D02*
X2048Y1295D01*
G01D02*
X2045Y1294D01*
G01D02*
X2041Y1292D01*
G01D02*
X2038Y1291D01*
G01D02*
X2035Y1290D01*
G01D02*
X2028Y1287D01*
G01D02*
X2025Y1286D01*
G01D02*
X2022Y1284D01*
G01D02*
X2019Y1283D01*
G01D02*
X2016Y1281D01*
G01D02*
X2013Y1280D01*
G01D02*
X2011Y1278D01*
G01D02*
X2008Y1277D01*
G01D02*
X2005Y1275D01*
G01D02*
X2003Y1273D01*
G01D02*
X2001Y1272D01*
G01D02*
X1998Y1270D01*
G01D02*
X1996Y1268D01*
G01D02*
X1994Y1266D01*
G01D02*
X1992Y1265D01*
G01D02*
X1990Y1263D01*
G01D02*
X1988Y1261D01*
G01D02*
X1987Y1259D01*
G01D02*
X1985Y1257D01*
G01D02*
X1983Y1255D01*
G01D02*
X1982Y1253D01*
G01D02*
X1981Y1252D01*
G01D02*
X1979Y1250D01*
G01D02*
X1978Y1248D01*
G01D02*
X1977Y1246D01*
G01D02*
X1977Y1244D01*
G01D02*
X1976Y1242D01*
G01D02*
X1975Y1240D01*
G01D02*
X1975Y1238D01*
G01D02*
X1974Y1235D01*
G01D02*
X1974Y1233D01*
G01D02*
X1974Y1231D01*
G01D02*
X1974Y1229D01*
G01D02*
X1974Y1227D01*
G01D02*
X1974Y1225D01*
G01D02*
X1974Y1223D01*
G01D02*
X1975Y1220D01*
G01D02*
X1975Y1219D01*
G01D02*
X1975Y1218D01*
G01D02*
X1976Y1216D01*
G01D02*
X1977Y1214D01*
G01D02*
X1978Y1212D01*
G01D02*
Y1213D01*
G01D02*
X1978Y1215D01*
G01D02*
X1978Y1217D01*
G01D02*
X1978Y1219D01*
G01D02*
X1979Y1221D01*
G01D02*
X1979Y1223D01*
G01D02*
X1980Y1224D01*
G01D02*
X1981Y1226D01*
G01D02*
X1982Y1228D01*
G01D02*
X1983Y1230D01*
G01D02*
X1984Y1232D01*
G01D02*
X1985Y1234D01*
G01D02*
X1987Y1235D01*
G01D02*
X1988Y1237D01*
G01D02*
X1990Y1239D01*
G01D02*
X1992Y1240D01*
G01D02*
X1993Y1242D01*
G01D02*
X1995Y1244D01*
G01D02*
X1997Y1246D01*
G01D02*
X1999Y1247D01*
G01D02*
X2002Y1249D01*
G01D02*
X2004Y1250D01*
G01D02*
X2007Y1252D01*
G01D02*
X2009Y1253D01*
G01D02*
X2012Y1255D01*
G01D02*
X2014Y1256D01*
G01D02*
X2017Y1258D01*
G01D02*
X2020Y1259D01*
G01D02*
X2023Y1261D01*
G01D02*
X2026Y1262D01*
G01D02*
X2029Y1263D01*
G01D02*
X2032Y1265D01*
G01D02*
X2036Y1266D01*
G01D02*
X2039Y1267D01*
G01D02*
X2043Y1269D01*
G01D02*
X2046Y1270D01*
G01D02*
X2050Y1271D01*
G01D02*
X2054Y1272D01*
G01D02*
X2057Y1273D01*
G01D02*
X2065Y1275D01*
G01D02*
X2069Y1276D01*
G01X2059Y1261D02*
X2053Y1226D01*
G01D02*
X2052Y1227D01*
G01D02*
X2051Y1228D01*
G01D02*
X2051Y1229D01*
G01D02*
X2050Y1230D01*
G01D02*
G01X2050Y1230D02*
X2049Y1230D01*
G01D02*
X2048Y1231D01*
G01D02*
X2047Y1232D01*
G01D02*
G01X2047Y1232D02*
X2046Y1233D01*
G01D02*
X2045Y1233D01*
G01D02*
X2044Y1233D01*
G01D02*
X2043Y1234D01*
G01D02*
X2041Y1234D01*
G01D02*
X2040Y1234D01*
G01D02*
X2039D01*
G01D02*
X2038Y1234D01*
G01D02*
X2036Y1234D01*
G01D02*
X2034Y1234D01*
G01D02*
X2032Y1234D01*
G01D02*
X2030Y1233D01*
G01D02*
X2028Y1233D01*
G01D02*
X2026Y1232D01*
G01D02*
X2025Y1232D01*
G01D02*
G01X2025Y1232D02*
X2023Y1231D01*
G01D02*
X2021Y1230D01*
G01D02*
X2019Y1229D01*
G01D02*
X2018Y1228D01*
G01D02*
X2016Y1227D01*
G01D02*
X2015Y1226D01*
G01D02*
X2013Y1224D01*
G01D02*
X2012Y1223D01*
G01D02*
X2011Y1221D01*
G01D02*
X2009Y1220D01*
G01D02*
X2008Y1218D01*
G01D02*
X2007Y1216D01*
G01D02*
X2006Y1215D01*
G01D02*
X2005Y1213D01*
G01D02*
X2004Y1211D01*
G01D02*
X2003Y1209D01*
G01D02*
X2003Y1207D01*
G01D02*
X2002Y1206D01*
G01D02*
X2002Y1205D01*
G01D02*
X2001Y1203D01*
G01D02*
X2001Y1200D01*
G01D02*
X2001Y1198D01*
G01D02*
X2000Y1196D01*
G01D02*
X2000Y1193D01*
G01D02*
X2000Y1191D01*
G01D02*
Y1189D01*
G01D02*
Y1187D01*
G01D02*
X2000Y1186D01*
G01D02*
X2000Y1184D01*
G01D02*
X2000Y1183D01*
G01D02*
X2001Y1182D01*
G01D02*
X2001Y1180D01*
G01D02*
X2001Y1179D01*
G01D02*
X2002Y1178D01*
G01D02*
X2002Y1177D01*
G01D02*
X2002Y1176D01*
G01D02*
X2003Y1175D01*
G01D02*
X2003Y1174D01*
G01D02*
G01X2003Y1174D02*
X2004Y1173D01*
G01D02*
X2005Y1172D01*
G01D02*
X2005Y1171D01*
G01X2043Y1171D02*
X2044Y1172D01*
G01X2071Y1261D02*
X2059D01*
G01X2038Y1224D02*
X2039D01*
G01D02*
X2040Y1224D01*
G01D02*
X2041Y1224D01*
G01D02*
X2042Y1223D01*
G01D02*
X2043Y1223D01*
G01D02*
G01X2043Y1223D02*
X2044Y1222D01*
G01D02*
X2045Y1222D01*
G01D02*
X2046Y1221D01*
G01D02*
G01X2046Y1221D02*
X2047Y1220D01*
G01D02*
G01X2047Y1220D02*
X2048Y1219D01*
G01D02*
X2048Y1218D01*
G01D02*
X2049Y1218D01*
G01D02*
X2050Y1216D01*
G01D02*
X2050Y1215D01*
G01D02*
X2051Y1214D01*
G01D02*
G01Y1214D02*
G01Y1214D02*
X2048Y1197D01*
G01D02*
X2048Y1195D01*
G01D02*
X2047Y1194D01*
G01D02*
X2047Y1193D01*
G01D02*
X2047Y1192D01*
G01D02*
X2046Y1189D01*
G01D02*
X2045Y1187D01*
G01D02*
X2045Y1186D01*
G01D02*
X2044Y1185D01*
G01D02*
X2044Y1184D01*
G01D02*
X2043Y1183D01*
G01D02*
X2042Y1182D01*
G01D02*
X2042Y1181D01*
G01D02*
X2040Y1180D01*
G01D02*
X2039Y1178D01*
G01D02*
X2038Y1177D01*
G01D02*
X2037Y1177D01*
G01D02*
X2037Y1176D01*
G01D02*
X2036Y1176D01*
G01D02*
X2035Y1175D01*
G01D02*
X2034Y1175D01*
G01D02*
X2033Y1174D01*
G01D02*
X2032Y1174D01*
G01D02*
X2031Y1173D01*
G01D02*
X2030Y1173D01*
G01D02*
X2029Y1173D01*
G01D02*
X2028Y1173D01*
G01D02*
X2027D01*
G01D02*
X2026D01*
G01D02*
X2024Y1173D01*
G01D02*
G01X2024Y1173D02*
X2023Y1174D01*
G01D02*
X2022Y1174D01*
G01D02*
X2021Y1174D01*
G01D02*
G01X2021Y1174D02*
X2020Y1175D01*
G01D02*
X2019Y1176D01*
G01D02*
X2018Y1176D01*
G01D02*
G01X2018Y1176D02*
X2017Y1177D01*
G01D02*
X2016Y1178D01*
G01D02*
X2016Y1179D01*
G01D02*
X2015Y1180D01*
G01D02*
X2015Y1181D01*
G01D02*
X2014Y1182D01*
G01D02*
X2014Y1183D01*
G01D02*
X2014Y1185D01*
G01D02*
X2013Y1187D01*
G01D02*
Y1188D01*
G01D02*
X2013Y1189D01*
G01D02*
Y1191D01*
G01D02*
Y1193D01*
G01D02*
X2013Y1195D01*
G01D02*
X2013Y1196D01*
G01D02*
X2013Y1198D01*
G01D02*
X2014Y1200D01*
G01D02*
X2014Y1201D01*
G01D02*
X2014Y1203D01*
G01D02*
X2015Y1204D01*
G01D02*
X2015Y1206D01*
G01D02*
X2016Y1207D01*
G01D02*
X2016Y1208D01*
G01D02*
X2017Y1210D01*
G01D02*
X2018Y1211D01*
G01D02*
X2019Y1212D01*
G01D02*
X2019Y1214D01*
G01D02*
X2020Y1215D01*
G01D02*
X2021Y1216D01*
G01D02*
X2022Y1217D01*
G01D02*
X2023Y1218D01*
G01D02*
X2024Y1219D01*
G01D02*
X2025Y1220D01*
G01D02*
X2027Y1220D01*
G01D02*
X2028Y1221D01*
G01D02*
X2029Y1222D01*
G01D02*
X2030Y1222D01*
G01D02*
X2031Y1223D01*
G01D02*
X2032Y1223D01*
G01D02*
X2034Y1223D01*
G01D02*
X2035Y1224D01*
G01D02*
X2036Y1224D01*
G01D02*
X2038Y1224D01*
G01X2283Y1170D02*
G01X2283Y1170D02*
X2284Y1169D01*
G01D02*
X2284Y1168D01*
G01D02*
X2285Y1168D01*
G01D02*
X2285Y1167D01*
G01D02*
X2286Y1167D01*
G01D02*
X2287Y1166D01*
G01D02*
X2289Y1165D01*
G01D02*
X2290Y1164D01*
G01D02*
X2291Y1164D01*
G01D02*
X2292Y1164D01*
G01D02*
X2293Y1164D01*
G01D02*
X2294Y1163D01*
G01D02*
X2296Y1163D01*
G01D02*
X2298Y1163D01*
G01D02*
X2299D01*
G01D02*
X2301Y1163D01*
G01D02*
X2303Y1172D01*
G01X2081Y1170D02*
X2082Y1170D01*
G01D02*
X2082Y1169D01*
G01D02*
X2083Y1168D01*
G01D02*
X2084Y1167D01*
G01D02*
X2085Y1166D01*
G01D02*
X2087Y1166D01*
G01D02*
X2088Y1165D01*
G01D02*
X2089Y1165D01*
G01D02*
X2090Y1164D01*
G01D02*
X2092Y1164D01*
G01D02*
X2093Y1164D01*
G01D02*
X2094Y1163D01*
G01D02*
X2096Y1163D01*
G01D02*
X2097Y1163D01*
G01D02*
X2099Y1163D01*
G01D02*
X2101D01*
G01D02*
X2102D01*
G01D02*
X2105Y1163D01*
G01D02*
X2107Y1163D01*
G01D02*
X2109Y1164D01*
G01D02*
X2111Y1164D01*
G01D02*
X2114Y1165D01*
G01D02*
X2116Y1166D01*
G01D02*
X2118Y1166D01*
G01D02*
X2120Y1179D01*
G01X2215Y1170D02*
X2216Y1170D01*
G01D02*
X2216Y1169D01*
G01D02*
X2217Y1168D01*
G01D02*
X2218Y1167D01*
G01D02*
X2219Y1166D01*
G01D02*
X2221Y1166D01*
G01D02*
X2222Y1165D01*
G01D02*
X2223Y1165D01*
G01D02*
X2224Y1164D01*
G01D02*
X2225Y1164D01*
G01D02*
X2227Y1164D01*
G01D02*
X2228Y1163D01*
G01D02*
X2230Y1163D01*
G01D02*
X2231Y1163D01*
G01D02*
X2233Y1163D01*
G01D02*
X2234D01*
G01D02*
X2237D01*
G01D02*
X2239Y1163D01*
G01D02*
X2241Y1163D01*
G01D02*
X2243Y1164D01*
G01D02*
X2245Y1164D01*
G01D02*
X2248Y1165D01*
G01D02*
X2250Y1166D01*
G01D02*
X2253Y1166D01*
G01D02*
X2254Y1179D01*
G01X2327Y1170D02*
G01X2327Y1170D02*
X2328Y1169D01*
G01D02*
X2329Y1168D01*
G01D02*
X2330Y1167D01*
G01D02*
X2331Y1166D01*
G01D02*
X2332Y1166D01*
G01D02*
X2333Y1165D01*
G01D02*
X2335Y1165D01*
G01D02*
X2336Y1164D01*
G01D02*
X2337Y1164D01*
G01D02*
X2339Y1164D01*
G01D02*
X2340Y1163D01*
G01D02*
X2342Y1163D01*
G01D02*
X2343Y1163D01*
G01D02*
X2345Y1163D01*
G01D02*
X2346D01*
G01D02*
X2348D01*
G01D02*
X2350Y1163D01*
G01D02*
X2352Y1163D01*
G01D02*
X2355Y1164D01*
G01D02*
X2357Y1164D01*
G01D02*
X2359Y1165D01*
G01D02*
X2362Y1166D01*
G01D02*
X2364Y1166D01*
G01D02*
X2366Y1179D01*
G01X2144Y1233D02*
X2164Y1163D01*
G01D02*
X2167D01*
G01D02*
X2208Y1233D01*
G01X2160Y1311D02*
X2150Y1311D01*
G01D02*
X2146Y1311D01*
G01D02*
X2141Y1311D01*
G01D02*
X2136Y1310D01*
G01D02*
X2131Y1310D01*
G01D02*
X2127Y1310D01*
G01D02*
X2122Y1309D01*
G01D02*
X2118Y1309D01*
G01D02*
X2113Y1309D01*
G01D02*
X2109Y1308D01*
G01D02*
X2105Y1307D01*
G01D02*
X2100Y1307D01*
G01D02*
X2096Y1306D01*
G01D02*
X2092Y1305D01*
G01D02*
X2087Y1305D01*
G01D02*
X2083Y1304D01*
G01D02*
X2079Y1303D01*
G01D02*
X2075Y1302D01*
G01D02*
X2071Y1301D01*
G01X2069Y1276D02*
X2073Y1277D01*
G01D02*
X2081Y1279D01*
G01D02*
X2086Y1280D01*
G01D02*
X2090Y1281D01*
G01D02*
X2094Y1281D01*
G01D02*
X2099Y1282D01*
G01D02*
X2103Y1283D01*
G01D02*
X2108Y1283D01*
G01D02*
X2117Y1285D01*
G01D02*
X2122Y1285D01*
G01D02*
X2126Y1286D01*
G01D02*
X2131Y1286D01*
G01D02*
X2136Y1286D01*
G01D02*
X2141Y1287D01*
G01D02*
X2146Y1287D01*
G01D02*
X2151Y1287D01*
G01D02*
X2156Y1287D01*
G01D02*
X2161Y1288D01*
G01D02*
X2166Y1288D01*
G01D02*
X2171D01*
G01D02*
X2176Y1288D01*
G01D02*
X2182Y1288D01*
G01D02*
X2188D01*
G01D02*
X2194Y1288D01*
G01D02*
X2200Y1287D01*
G01D02*
X2206Y1287D01*
G01D02*
X2211Y1287D01*
G01D02*
X2217Y1286D01*
G01D02*
X2223Y1286D01*
G01D02*
X2228Y1285D01*
G01D02*
X2234Y1285D01*
G01D02*
X2239Y1284D01*
G01D02*
X2245Y1283D01*
G01D02*
X2250Y1282D01*
G01D02*
X2255Y1282D01*
G01D02*
X2261Y1281D01*
G01D02*
X2266Y1280D01*
G01D02*
X2271Y1279D01*
G01D02*
X2275Y1278D01*
G01D02*
X2280Y1277D01*
G01D02*
X2285Y1276D01*
G01D02*
X2290Y1274D01*
G01D02*
X2294Y1273D01*
G01D02*
X2299Y1272D01*
G01D02*
X2303Y1270D01*
G01D02*
X2307Y1269D01*
G01D02*
X2311Y1268D01*
G01D02*
X2315Y1266D01*
G01D02*
X2319Y1265D01*
G01D02*
X2323Y1263D01*
G01D02*
X2327Y1262D01*
G01D02*
X2331Y1260D01*
G01D02*
X2334Y1258D01*
G01D02*
X2333Y1260D01*
G01D02*
X2331Y1261D01*
G01D02*
X2330Y1263D01*
G01D02*
X2328Y1264D01*
G01D02*
X2325Y1267D01*
G01D02*
X2324Y1268D01*
G01D02*
X2322Y1269D01*
G01D02*
X2320Y1271D01*
G01D02*
X2319Y1272D01*
G01D02*
X2315Y1275D01*
G01D02*
X2313Y1276D01*
G01D02*
X2311Y1277D01*
G01D02*
X2309Y1278D01*
G01D02*
X2307Y1280D01*
G01D02*
X2302Y1282D01*
G01D02*
X2300Y1283D01*
G01D02*
X2298Y1284D01*
G01D02*
X2293Y1286D01*
G01D02*
X2288Y1289D01*
G01D02*
X2283Y1291D01*
G01D02*
X2278Y1293D01*
G01D02*
X2272Y1294D01*
G01D02*
X2267Y1296D01*
G01D02*
X2261Y1298D01*
G01D02*
X2255Y1300D01*
G01D02*
X2249Y1301D01*
G01D02*
X2243Y1303D01*
G01D02*
X2237Y1304D01*
G01D02*
X2230Y1305D01*
G01D02*
X2224Y1306D01*
G01D02*
X2220Y1307D01*
G01D02*
X2217Y1307D01*
G01D02*
X2210Y1308D01*
G01D02*
X2207Y1308D01*
G01D02*
X2203Y1309D01*
G01D02*
X2196Y1309D01*
G01D02*
X2189Y1310D01*
G01D02*
X2182Y1310D01*
G01D02*
X2175Y1311D01*
G01D02*
X2171Y1311D01*
G01D02*
X2167D01*
G01D02*
X2160Y1311D01*
G01X2296Y1261D02*
X2284Y1199D01*
G01D02*
X2283Y1195D01*
G01D02*
X2283Y1192D01*
G01D02*
X2282Y1186D01*
G01D02*
X2281Y1183D01*
G01D02*
X2281Y1181D01*
G01D02*
X2281Y1180D01*
G01D02*
Y1178D01*
G01D02*
Y1177D01*
G01D02*
X2281Y1176D01*
G01D02*
G01X2281Y1176D02*
X2281Y1175D01*
G01D02*
X2281Y1174D01*
G01D02*
X2282Y1173D01*
G01D02*
X2282Y1172D01*
G01D02*
X2282Y1171D01*
G01D02*
G01X2282Y1171D02*
X2283Y1170D01*
G01X2303Y1172D02*
X2302D01*
G01D02*
X2301Y1172D01*
G01D02*
X2300Y1172D01*
G01D02*
X2299Y1172D01*
G01D02*
X2298Y1173D01*
G01D02*
X2297Y1173D01*
G01D02*
X2296Y1173D01*
G01D02*
X2296Y1174D01*
G01D02*
G01X2296Y1174D02*
X2295Y1174D01*
G01D02*
X2295Y1175D01*
G01D02*
X2295Y1176D01*
G01D02*
X2294Y1176D01*
G01D02*
X2294Y1177D01*
G01D02*
X2294Y1178D01*
G01D02*
Y1179D01*
G01D02*
X2294Y1180D01*
G01D02*
X2294Y1181D01*
G01D02*
X2294Y1183D01*
G01D02*
X2294Y1185D01*
G01D02*
X2295Y1188D01*
G01D02*
X2296Y1194D01*
G01D02*
X2297Y1203D01*
G01D02*
X2309Y1261D01*
G01D02*
X2296D01*
G01X2113Y1234D02*
X2111Y1234D01*
G01D02*
X2109Y1234D01*
G01D02*
X2107Y1234D01*
G01D02*
X2105Y1234D01*
G01D02*
X2103Y1233D01*
G01D02*
X2101Y1233D01*
G01D02*
X2099Y1232D01*
G01D02*
X2098Y1231D01*
G01D02*
X2096Y1231D01*
G01D02*
X2094Y1230D01*
G01D02*
X2093Y1229D01*
G01D02*
X2091Y1228D01*
G01D02*
X2090Y1226D01*
G01D02*
X2088Y1225D01*
G01D02*
X2087Y1224D01*
G01D02*
X2085Y1222D01*
G01D02*
X2084Y1221D01*
G01D02*
X2083Y1219D01*
G01D02*
X2081Y1218D01*
G01D02*
X2080Y1216D01*
G01D02*
X2080Y1215D01*
G01D02*
X2079Y1214D01*
G01D02*
X2078Y1212D01*
G01D02*
X2078Y1211D01*
G01D02*
X2077Y1209D01*
G01D02*
X2076Y1207D01*
G01D02*
X2076Y1205D01*
G01D02*
X2075Y1203D01*
G01D02*
X2075Y1201D01*
G01D02*
X2075Y1199D01*
G01D02*
X2074Y1197D01*
G01D02*
X2074Y1195D01*
G01D02*
Y1193D01*
G01D02*
Y1191D01*
G01D02*
Y1189D01*
G01D02*
X2074Y1187D01*
G01D02*
X2075Y1186D01*
G01D02*
X2075Y1184D01*
G01D02*
X2075Y1183D01*
G01D02*
X2075Y1181D01*
G01D02*
X2076Y1180D01*
G01D02*
X2077Y1177D01*
G01D02*
X2077Y1176D01*
G01D02*
X2078Y1175D01*
G01D02*
X2078Y1173D01*
G01D02*
X2079Y1172D01*
G01D02*
X2080Y1171D01*
G01D02*
X2081Y1170D01*
G01X2120Y1179D02*
X2118Y1177D01*
G01D02*
X2116Y1176D01*
G01D02*
X2115Y1176D01*
G01D02*
X2114Y1175D01*
G01D02*
X2113Y1175D01*
G01D02*
X2112Y1175D01*
G01D02*
X2111Y1174D01*
G01D02*
X2110Y1174D01*
G01D02*
X2108Y1174D01*
G01D02*
X2107Y1173D01*
G01D02*
X2105Y1173D01*
G01D02*
X2104D01*
G01D02*
X2103D01*
G01D02*
X2101Y1173D01*
G01D02*
X2100Y1174D01*
G01D02*
X2099Y1174D01*
G01D02*
X2098Y1174D01*
G01D02*
X2097Y1174D01*
G01D02*
X2096Y1175D01*
G01D02*
G01X2096Y1175D02*
X2094Y1176D01*
G01D02*
X2093Y1176D01*
G01D02*
X2093Y1177D01*
G01D02*
X2092Y1177D01*
G01D02*
X2092Y1178D01*
G01D02*
X2091Y1178D01*
G01D02*
X2090Y1179D01*
G01D02*
X2090Y1180D01*
G01D02*
X2089Y1180D01*
G01D02*
X2089Y1181D01*
G01D02*
X2089Y1182D01*
G01D02*
X2088Y1183D01*
G01D02*
G01X2088Y1183D02*
X2087Y1185D01*
G01D02*
X2087Y1186D01*
G01D02*
X2087Y1187D01*
G01D02*
X2087Y1189D01*
G01D02*
Y1191D01*
G01D02*
Y1192D01*
G01D02*
X2087Y1194D01*
G01D02*
X2087Y1195D01*
G01D02*
X2087Y1197D01*
G01D02*
X2088Y1196D01*
G01D02*
X2089Y1196D01*
G01D02*
X2091Y1195D01*
G01D02*
X2093Y1195D01*
G01D02*
X2094Y1194D01*
G01D02*
X2096Y1194D01*
G01D02*
X2097Y1194D01*
G01D02*
X2098Y1194D01*
G01D02*
X2101Y1193D01*
G01D02*
X2103Y1193D01*
G01D02*
X2105Y1193D01*
G01D02*
X2106D01*
G01D02*
X2108Y1194D01*
G01D02*
X2109Y1194D01*
G01D02*
X2111Y1194D01*
G01D02*
X2112Y1194D01*
G01D02*
X2114Y1195D01*
G01D02*
X2115Y1195D01*
G01D02*
X2117Y1195D01*
G01D02*
X2118Y1196D01*
G01D02*
X2120Y1196D01*
G01D02*
X2121Y1197D01*
G01D02*
X2122Y1198D01*
G01D02*
X2123Y1198D01*
G01D02*
X2125Y1199D01*
G01D02*
X2126Y1200D01*
G01D02*
X2127Y1201D01*
G01D02*
X2128Y1201D01*
G01D02*
X2129Y1202D01*
G01D02*
X2130Y1203D01*
G01D02*
X2131Y1204D01*
G01D02*
X2132Y1205D01*
G01D02*
X2132Y1206D01*
G01D02*
X2133Y1207D01*
G01D02*
X2134Y1209D01*
G01D02*
X2134Y1210D01*
G01D02*
X2134Y1211D01*
G01D02*
X2135Y1212D01*
G01D02*
X2135Y1213D01*
G01D02*
X2135Y1215D01*
G01D02*
Y1216D01*
G01D02*
X2135Y1217D01*
G01D02*
Y1218D01*
G01D02*
X2135Y1219D01*
G01D02*
X2135Y1221D01*
G01D02*
X2134Y1223D01*
G01D02*
X2134Y1224D01*
G01D02*
X2134Y1225D01*
G01D02*
X2133Y1225D01*
G01D02*
X2133Y1226D01*
G01D02*
X2132Y1227D01*
G01D02*
X2132Y1228D01*
G01D02*
X2131Y1228D01*
G01D02*
X2131Y1229D01*
G01D02*
X2130Y1229D01*
G01D02*
X2129Y1230D01*
G01D02*
G01X2129Y1230D02*
X2128Y1231D01*
G01D02*
X2126Y1232D01*
G01D02*
X2125Y1232D01*
G01D02*
X2124Y1233D01*
G01D02*
X2122Y1233D01*
G01D02*
X2121Y1234D01*
G01D02*
X2120Y1234D01*
G01D02*
X2118Y1234D01*
G01D02*
X2117Y1234D01*
G01D02*
X2116D01*
G01D02*
X2113Y1234D01*
G01D02*
X2113Y1224D01*
G01D02*
X2114D01*
G01D02*
X2115Y1224D01*
G01D02*
X2116Y1224D01*
G01D02*
X2117Y1224D01*
G01D02*
X2118Y1223D01*
G01D02*
X2119Y1223D01*
G01D02*
X2120Y1223D01*
G01D02*
X2121Y1222D01*
G01D02*
G01X2121Y1222D02*
G01X2121Y1222D02*
X2122Y1221D01*
G01D02*
X2122Y1220D01*
G01D02*
X2123Y1220D01*
G01D02*
X2123Y1219D01*
G01D02*
X2123Y1218D01*
G01D02*
X2123Y1217D01*
G01D02*
X2123Y1216D01*
G01D02*
Y1215D01*
G01D02*
G01X2123Y1215D02*
X2123Y1214D01*
G01D02*
X2123Y1213D01*
G01D02*
G01X2123Y1213D02*
X2122Y1212D01*
G01D02*
X2122Y1211D01*
G01D02*
G01X2122Y1211D02*
X2121Y1210D01*
G01D02*
G01X2121Y1210D02*
X2120Y1209D01*
G01D02*
G01X2120Y1209D02*
X2119Y1208D01*
G01D02*
X2118Y1208D01*
G01D02*
X2117Y1207D01*
G01D02*
X2115Y1206D01*
G01D02*
X2114Y1205D01*
G01D02*
X2112Y1205D01*
G01D02*
X2111Y1205D01*
G01D02*
X2110Y1204D01*
G01D02*
X2108Y1204D01*
G01D02*
X2105Y1204D01*
G01D02*
X2103Y1204D01*
G01D02*
X2101Y1203D01*
G01D02*
X2099D01*
G01D02*
X2098Y1204D01*
G01D02*
X2096Y1204D01*
G01D02*
X2095Y1204D01*
G01D02*
X2093Y1204D01*
G01D02*
X2092Y1205D01*
G01D02*
X2091Y1205D01*
G01D02*
X2089Y1206D01*
G01D02*
X2090Y1208D01*
G01D02*
X2091Y1210D01*
G01D02*
X2092Y1211D01*
G01D02*
X2092Y1212D01*
G01D02*
X2093Y1214D01*
G01D02*
X2095Y1215D01*
G01D02*
X2095Y1216D01*
G01D02*
X2096Y1217D01*
G01D02*
X2096Y1218D01*
G01D02*
X2097Y1218D01*
G01D02*
X2099Y1219D01*
G01D02*
X2100Y1221D01*
G01D02*
X2101Y1221D01*
G01D02*
X2102Y1222D01*
G01D02*
X2103Y1222D01*
G01D02*
X2104Y1223D01*
G01D02*
X2105Y1223D01*
G01D02*
X2106Y1223D01*
G01D02*
X2107Y1223D01*
G01D02*
X2108Y1224D01*
G01D02*
X2109Y1224D01*
G01D02*
X2110Y1224D01*
G01D02*
X2113Y1224D01*
G01X2247Y1234D02*
X2245Y1234D01*
G01D02*
X2243Y1234D01*
G01D02*
X2241Y1234D01*
G01D02*
X2239Y1234D01*
G01D02*
X2237Y1233D01*
G01D02*
X2235Y1233D01*
G01D02*
X2233Y1232D01*
G01D02*
X2232Y1231D01*
G01D02*
X2230Y1231D01*
G01D02*
X2228Y1230D01*
G01D02*
X2227Y1229D01*
G01D02*
X2225Y1228D01*
G01D02*
X2224Y1226D01*
G01D02*
X2222Y1225D01*
G01D02*
X2221Y1224D01*
G01D02*
X2219Y1222D01*
G01D02*
X2218Y1221D01*
G01D02*
X2217Y1219D01*
G01D02*
X2215Y1218D01*
G01D02*
X2214Y1216D01*
G01D02*
X2214Y1215D01*
G01D02*
X2213Y1214D01*
G01D02*
X2212Y1212D01*
G01D02*
X2212Y1211D01*
G01D02*
X2211Y1209D01*
G01D02*
X2210Y1207D01*
G01D02*
X2210Y1205D01*
G01D02*
X2209Y1203D01*
G01D02*
X2209Y1201D01*
G01D02*
X2208Y1199D01*
G01D02*
X2208Y1197D01*
G01D02*
X2208Y1195D01*
G01D02*
Y1193D01*
G01D02*
Y1191D01*
G01D02*
X2208Y1189D01*
G01D02*
X2208Y1187D01*
G01D02*
X2208Y1186D01*
G01D02*
X2209Y1184D01*
G01D02*
X2209Y1183D01*
G01D02*
X2209Y1181D01*
G01D02*
X2210Y1180D01*
G01D02*
X2211Y1177D01*
G01D02*
X2211Y1176D01*
G01D02*
X2212Y1175D01*
G01D02*
X2212Y1173D01*
G01D02*
X2213Y1172D01*
G01D02*
X2214Y1171D01*
G01D02*
X2215Y1170D01*
G01X2254Y1179D02*
X2252Y1177D01*
G01D02*
X2250Y1176D01*
G01D02*
X2249Y1176D01*
G01D02*
X2248Y1175D01*
G01D02*
X2247Y1175D01*
G01D02*
X2246Y1175D01*
G01D02*
X2245Y1174D01*
G01D02*
X2244Y1174D01*
G01D02*
X2242Y1174D01*
G01D02*
X2241Y1173D01*
G01D02*
X2239Y1173D01*
G01D02*
X2238D01*
G01D02*
X2237D01*
G01D02*
X2235Y1173D01*
G01D02*
X2234Y1174D01*
G01D02*
X2233Y1174D01*
G01D02*
X2232Y1174D01*
G01D02*
X2231Y1174D01*
G01D02*
X2230Y1175D01*
G01D02*
X2229Y1175D01*
G01D02*
X2228Y1176D01*
G01D02*
X2227Y1176D01*
G01D02*
X2227Y1177D01*
G01D02*
X2226Y1177D01*
G01D02*
X2225Y1178D01*
G01D02*
G01X2225Y1178D02*
X2224Y1179D01*
G01D02*
X2224Y1180D01*
G01D02*
X2223Y1180D01*
G01D02*
X2223Y1181D01*
G01D02*
X2223Y1182D01*
G01D02*
X2222Y1183D01*
G01D02*
G01X2222Y1183D02*
X2221Y1185D01*
G01D02*
X2221Y1186D01*
G01D02*
X2221Y1187D01*
G01D02*
X2221Y1189D01*
G01D02*
X2221Y1191D01*
G01D02*
Y1192D01*
G01D02*
X2221Y1194D01*
G01D02*
X2221Y1195D01*
G01D02*
X2221Y1197D01*
G01D02*
X2222Y1196D01*
G01D02*
X2223Y1196D01*
G01D02*
X2225Y1195D01*
G01D02*
X2226Y1195D01*
G01D02*
X2228Y1194D01*
G01D02*
X2230Y1194D01*
G01D02*
X2231Y1194D01*
G01D02*
X2232Y1194D01*
G01D02*
X2235Y1193D01*
G01D02*
X2237Y1193D01*
G01D02*
X2240Y1193D01*
G01D02*
X2242Y1194D01*
G01D02*
X2243Y1194D01*
G01D02*
X2245Y1194D01*
G01D02*
X2246Y1194D01*
G01D02*
X2248Y1195D01*
G01D02*
X2249Y1195D01*
G01D02*
X2251Y1195D01*
G01D02*
X2252Y1196D01*
G01D02*
X2254Y1196D01*
G01D02*
X2255Y1197D01*
G01D02*
X2256Y1198D01*
G01D02*
X2257Y1198D01*
G01D02*
X2259Y1199D01*
G01D02*
X2260Y1200D01*
G01D02*
X2261Y1201D01*
G01D02*
X2262Y1201D01*
G01D02*
X2263Y1202D01*
G01D02*
X2264Y1203D01*
G01D02*
X2265Y1204D01*
G01D02*
X2266Y1205D01*
G01D02*
X2266Y1206D01*
G01D02*
X2267Y1207D01*
G01D02*
X2267Y1209D01*
G01D02*
X2268Y1210D01*
G01D02*
X2268Y1211D01*
G01D02*
X2269Y1212D01*
G01D02*
X2269Y1213D01*
G01D02*
X2269Y1215D01*
G01D02*
X2269Y1216D01*
G01D02*
Y1217D01*
G01D02*
Y1218D01*
G01D02*
X2269Y1219D01*
G01D02*
X2269Y1221D01*
G01D02*
X2268Y1223D01*
G01D02*
X2268Y1224D01*
G01D02*
X2268Y1225D01*
G01D02*
X2267Y1225D01*
G01D02*
X2267Y1226D01*
G01D02*
X2266Y1227D01*
G01D02*
X2266Y1228D01*
G01D02*
X2265Y1228D01*
G01D02*
X2265Y1229D01*
G01D02*
X2264Y1229D01*
G01D02*
X2263Y1230D01*
G01D02*
X2262Y1230D01*
G01D02*
X2262Y1231D01*
G01D02*
X2260Y1232D01*
G01D02*
X2259Y1232D01*
G01D02*
X2258Y1233D01*
G01D02*
X2256Y1233D01*
G01D02*
X2255Y1234D01*
G01D02*
X2254Y1234D01*
G01D02*
X2252Y1234D01*
G01D02*
X2251Y1234D01*
G01D02*
X2249D01*
G01D02*
X2247Y1234D01*
G01D02*
X2246Y1224D01*
G01D02*
X2248D01*
G01D02*
X2249Y1224D01*
G01D02*
X2250Y1224D01*
G01D02*
X2251Y1224D01*
G01D02*
X2252Y1223D01*
G01D02*
X2253Y1223D01*
G01D02*
X2254Y1223D01*
G01D02*
X2255Y1222D01*
G01D02*
G01X2255Y1222D02*
G01X2255Y1222D02*
X2256Y1221D01*
G01D02*
X2256Y1220D01*
G01D02*
X2257Y1220D01*
G01D02*
X2257Y1219D01*
G01D02*
X2257Y1218D01*
G01D02*
X2257Y1217D01*
G01D02*
Y1216D01*
G01D02*
Y1215D01*
G01D02*
G01X2257Y1215D02*
X2257Y1214D01*
G01D02*
X2257Y1213D01*
G01D02*
G01X2257Y1213D02*
X2256Y1212D01*
G01D02*
X2256Y1211D01*
G01D02*
G01X2256Y1211D02*
X2255Y1210D01*
G01D02*
G01X2255Y1210D02*
X2254Y1209D01*
G01D02*
G01X2254Y1209D02*
X2253Y1208D01*
G01D02*
X2252Y1208D01*
G01D02*
X2251Y1207D01*
G01D02*
X2249Y1206D01*
G01D02*
X2248Y1205D01*
G01D02*
X2246Y1205D01*
G01D02*
X2245Y1205D01*
G01D02*
X2244Y1204D01*
G01D02*
X2242Y1204D01*
G01D02*
X2240Y1204D01*
G01D02*
X2237Y1204D01*
G01D02*
X2235Y1203D01*
G01D02*
X2233D01*
G01D02*
X2232Y1204D01*
G01D02*
X2230Y1204D01*
G01D02*
X2229Y1204D01*
G01D02*
X2227Y1204D01*
G01D02*
X2226Y1205D01*
G01D02*
X2225Y1205D01*
G01D02*
X2223Y1206D01*
G01D02*
X2224Y1208D01*
G01D02*
X2225Y1210D01*
G01D02*
X2226Y1211D01*
G01D02*
X2226Y1212D01*
G01D02*
X2227Y1214D01*
G01D02*
X2229Y1215D01*
G01D02*
X2229Y1216D01*
G01D02*
X2230Y1217D01*
G01D02*
X2230Y1218D01*
G01D02*
X2231Y1218D01*
G01D02*
X2233Y1219D01*
G01D02*
X2234Y1221D01*
G01D02*
X2235Y1221D01*
G01D02*
X2236Y1222D01*
G01D02*
X2237Y1222D01*
G01D02*
X2238Y1223D01*
G01D02*
X2239Y1223D01*
G01D02*
X2240Y1223D01*
G01D02*
X2241Y1223D01*
G01D02*
X2242Y1224D01*
G01D02*
G01X2242Y1224D02*
X2244Y1224D01*
G01D02*
X2246Y1224D01*
G01X2359Y1234D02*
X2357Y1234D01*
G01D02*
X2355Y1234D01*
G01D02*
X2353Y1234D01*
G01D02*
X2351Y1234D01*
G01D02*
X2349Y1233D01*
G01D02*
X2347Y1233D01*
G01D02*
X2345Y1232D01*
G01D02*
X2344Y1231D01*
G01D02*
X2342Y1231D01*
G01D02*
X2340Y1230D01*
G01D02*
X2338Y1229D01*
G01D02*
X2337Y1228D01*
G01D02*
X2335Y1226D01*
G01D02*
X2334Y1225D01*
G01D02*
X2332Y1224D01*
G01D02*
X2331Y1222D01*
G01D02*
X2330Y1221D01*
G01D02*
X2328Y1219D01*
G01D02*
X2327Y1218D01*
G01D02*
X2326Y1216D01*
G01D02*
X2326Y1215D01*
G01D02*
X2325Y1214D01*
G01D02*
X2324Y1212D01*
G01D02*
X2323Y1211D01*
G01D02*
X2323Y1209D01*
G01D02*
X2322Y1207D01*
G01D02*
X2321Y1205D01*
G01D02*
X2321Y1203D01*
G01D02*
X2321Y1201D01*
G01D02*
X2320Y1199D01*
G01D02*
X2320Y1197D01*
G01D02*
X2320Y1195D01*
G01D02*
X2320Y1193D01*
G01D02*
Y1191D01*
G01D02*
X2320Y1189D01*
G01D02*
X2320Y1187D01*
G01D02*
X2320Y1186D01*
G01D02*
X2321Y1184D01*
G01D02*
X2321Y1183D01*
G01D02*
X2321Y1181D01*
G01D02*
X2322Y1180D01*
G01D02*
X2322Y1177D01*
G01D02*
X2323Y1176D01*
G01D02*
X2324Y1175D01*
G01D02*
X2324Y1173D01*
G01D02*
X2325Y1172D01*
G01D02*
X2326Y1171D01*
G01D02*
X2327Y1170D01*
G01X2366Y1179D02*
X2364Y1177D01*
G01D02*
X2362Y1176D01*
G01D02*
X2361Y1176D01*
G01D02*
X2360Y1175D01*
G01D02*
X2359Y1175D01*
G01D02*
X2358Y1175D01*
G01D02*
X2357Y1174D01*
G01D02*
X2356Y1174D01*
G01D02*
X2354Y1174D01*
G01D02*
X2352Y1173D01*
G01D02*
X2350Y1173D01*
G01D02*
X2349D01*
G01D02*
X2348D01*
G01D02*
X2346Y1173D01*
G01D02*
X2345Y1174D01*
G01D02*
G01X2345Y1174D02*
X2344Y1174D01*
G01D02*
X2343Y1174D01*
G01D02*
X2342Y1175D01*
G01D02*
X2341Y1175D01*
G01D02*
X2340Y1176D01*
G01D02*
X2339Y1176D01*
G01D02*
X2338Y1177D01*
G01D02*
G01X2338Y1177D02*
X2337Y1178D01*
G01D02*
G01X2337Y1178D02*
X2336Y1179D01*
G01D02*
X2336Y1180D01*
G01D02*
X2335Y1180D01*
G01D02*
X2335Y1181D01*
G01D02*
X2334Y1182D01*
G01D02*
X2334Y1183D01*
G01D02*
G01X2334Y1183D02*
X2333Y1185D01*
G01D02*
X2333Y1186D01*
G01D02*
X2333Y1187D01*
G01D02*
X2333Y1189D01*
G01D02*
Y1191D01*
G01D02*
Y1192D01*
G01D02*
X2333Y1194D01*
G01D02*
X2333Y1195D01*
G01D02*
X2333Y1197D01*
G01D02*
X2334Y1196D01*
G01D02*
X2335Y1196D01*
G01D02*
X2336Y1195D01*
G01D02*
X2338Y1195D01*
G01D02*
X2340Y1194D01*
G01D02*
X2342Y1194D01*
G01D02*
X2343Y1194D01*
G01D02*
X2344Y1194D01*
G01D02*
X2346Y1193D01*
G01D02*
X2349Y1193D01*
G01D02*
X2352Y1193D01*
G01D02*
X2354Y1194D01*
G01D02*
X2355Y1194D01*
G01D02*
X2357Y1194D01*
G01D02*
X2358Y1194D01*
G01D02*
X2360Y1195D01*
G01D02*
X2361Y1195D01*
G01D02*
X2363Y1195D01*
G01D02*
X2364Y1196D01*
G01D02*
X2365Y1196D01*
G01D02*
X2367Y1197D01*
G01D02*
X2368Y1198D01*
G01D02*
X2369Y1198D01*
G01D02*
X2370Y1199D01*
G01X2370Y1233D02*
X2368Y1233D01*
G01D02*
X2367Y1234D01*
G01D02*
X2366Y1234D01*
G01D02*
X2364Y1234D01*
G01D02*
X2362Y1234D01*
G01D02*
X2361D01*
G01D02*
X2359Y1234D01*
G01D02*
X2358Y1224D01*
G01D02*
X2360D01*
G01D02*
X2361Y1224D01*
G01D02*
X2362Y1224D01*
G01D02*
X2363Y1224D01*
G01D02*
X2364Y1223D01*
G01D02*
X2365Y1223D01*
G01D02*
X2366Y1223D01*
G01D02*
X2366Y1222D01*
G01D02*
X2367Y1222D01*
G01D02*
G01X2367Y1222D02*
X2368Y1221D01*
G01D02*
X2368Y1220D01*
G01D02*
G01X2368Y1220D02*
X2369Y1219D01*
G01D02*
X2369Y1218D01*
G01X2369Y1216D02*
X2369Y1215D01*
G01X2369Y1214D02*
X2369Y1213D01*
G01D02*
X2368Y1213D01*
G01D02*
X2368Y1212D01*
G01D02*
X2368Y1211D01*
G01D02*
G01X2368Y1211D02*
X2367Y1210D01*
G01D02*
G01X2367Y1210D02*
X2366Y1209D01*
G01D02*
X2365Y1209D01*
G01D02*
X2365Y1208D01*
G01D02*
X2364Y1208D01*
G01D02*
X2363Y1207D01*
G01D02*
X2361Y1206D01*
G01D02*
X2359Y1205D01*
G01D02*
X2358Y1205D01*
G01D02*
X2357Y1205D01*
G01D02*
X2356Y1204D01*
G01D02*
X2353Y1204D01*
G01D02*
X2351Y1204D01*
G01D02*
X2349Y1204D01*
G01D02*
X2347Y1203D01*
G01D02*
X2345D01*
G01D02*
X2343Y1204D01*
G01D02*
X2342Y1204D01*
G01D02*
X2340Y1204D01*
G01D02*
X2339Y1204D01*
G01D02*
X2338Y1205D01*
G01D02*
X2336Y1205D01*
G01D02*
X2335Y1206D01*
G01D02*
X2336Y1208D01*
G01D02*
X2337Y1210D01*
G01D02*
X2338Y1211D01*
G01D02*
X2338Y1212D01*
G01D02*
X2339Y1214D01*
G01D02*
X2340Y1215D01*
G01D02*
X2341Y1216D01*
G01D02*
X2342Y1217D01*
G01D02*
X2342Y1218D01*
G01D02*
X2343Y1218D01*
G01D02*
X2344Y1219D01*
G01D02*
X2346Y1221D01*
G01D02*
X2347Y1221D01*
G01D02*
X2347Y1222D01*
G01D02*
X2349Y1222D01*
G01D02*
X2350Y1223D01*
G01D02*
X2351Y1223D01*
G01D02*
X2352Y1223D01*
G01D02*
G01X2352Y1223D02*
X2353Y1224D01*
G01D02*
X2354Y1224D01*
G01D02*
X2356Y1224D01*
G01D02*
X2358Y1224D01*
G01X2208Y1233D02*
X2195D01*
G01D02*
X2169Y1186D01*
G01D02*
X2156Y1233D01*
G01D02*
X2144D01*
G01X2401Y1233D02*
X2389Y1164D01*
G01D02*
X2401D01*
G01D02*
X2408Y1204D01*
G01X2370Y1199D02*
X2372Y1200D01*
G01D02*
X2373Y1201D01*
G01D02*
X2374Y1201D01*
G01D02*
X2375Y1202D01*
G01D02*
X2376Y1203D01*
G01D02*
X2377Y1204D01*
G01D02*
X2377Y1205D01*
G01D02*
X2378Y1206D01*
G01D02*
X2379Y1207D01*
G01D02*
X2379Y1209D01*
G01D02*
X2380Y1210D01*
G01D02*
X2380Y1211D01*
G01D02*
X2381Y1212D01*
G01D02*
X2381Y1213D01*
G01D02*
X2381Y1215D01*
G01D02*
X2381Y1216D01*
G01D02*
Y1217D01*
G01D02*
Y1218D01*
G01D02*
Y1219D01*
G01D02*
X2381Y1221D01*
G01D02*
X2380Y1223D01*
G01D02*
X2380Y1224D01*
G01D02*
X2380Y1225D01*
G01D02*
X2379Y1225D01*
G01D02*
X2379Y1226D01*
G01D02*
X2378Y1227D01*
G01D02*
X2378Y1228D01*
G01D02*
X2377Y1228D01*
G01D02*
X2376Y1229D01*
G01D02*
G01X2376Y1229D02*
X2375Y1230D01*
G01D02*
X2374Y1230D01*
G01D02*
X2373Y1231D01*
G01D02*
X2372Y1232D01*
G01D02*
X2371Y1232D01*
G01D02*
X2370Y1233D01*
G01X2369Y1218D02*
X2369Y1217D01*
G01D02*
X2369Y1216D01*
G01X2369Y1215D02*
G01Y1215D02*
X2369Y1214D01*
G01X2433Y1234D02*
X2431Y1234D01*
G01D02*
X2430Y1234D01*
G01D02*
X2428Y1234D01*
G01D02*
X2427Y1234D01*
G01D02*
X2425Y1233D01*
G01D02*
X2424Y1233D01*
G01D02*
X2422Y1232D01*
G01D02*
X2421Y1231D01*
G01D02*
X2420Y1230D01*
G01D02*
X2419Y1230D01*
G01D02*
X2418Y1229D01*
G01D02*
X2417Y1229D01*
G01D02*
X2416Y1227D01*
G01D02*
X2415Y1226D01*
G01D02*
X2413Y1225D01*
G01D02*
X2412Y1223D01*
G01D02*
X2411Y1222D01*
G01D02*
X2413Y1233D01*
G01D02*
X2401D01*
G01X2408Y1204D02*
X2408Y1205D01*
G01D02*
X2408Y1206D01*
G01D02*
X2409Y1208D01*
G01D02*
X2409Y1209D01*
G01D02*
X2410Y1210D01*
G01D02*
X2411Y1212D01*
G01D02*
X2412Y1213D01*
G01D02*
X2413Y1215D01*
G01D02*
X2413Y1216D01*
G01D02*
X2414Y1217D01*
G01D02*
X2415Y1217D01*
G01D02*
X2415Y1218D01*
G01D02*
X2417Y1219D01*
G01D02*
X2418Y1220D01*
G01D02*
X2418Y1221D01*
G01D02*
X2419Y1221D01*
G01D02*
X2420Y1222D01*
G01D02*
X2421Y1222D01*
G01D02*
X2421Y1223D01*
G01D02*
X2423Y1223D01*
G01D02*
X2424Y1224D01*
G01D02*
X2425Y1224D01*
G01D02*
X2426Y1224D01*
G01D02*
X2428Y1224D01*
G01D02*
X2429D01*
G01D02*
X2430Y1224D01*
G01D02*
X2431Y1224D01*
G01D02*
X2432Y1223D01*
G01D02*
X2434Y1223D01*
G01D02*
X2435Y1222D01*
G01D02*
X2436Y1222D01*
G01D02*
X2437Y1221D01*
G01D02*
X2440Y1233D01*
G01D02*
X2438Y1234D01*
G01D02*
X2436Y1234D01*
G01D02*
X2434Y1234D01*
G01D02*
X2433Y1234D01*
M02*
