G04 ================== begin FILE IDENTIFICATION RECORD ==================*
G04 Layout Name:  c:/src/bsm-2/schematics/bsm-radio.brd*
G04 Film Name:    SolderMaskTop*
G04 File Format:  Gerber RS274X*
G04 File Origin:  16.0-s004*
G04 Origin Date:  Tue Jan 24 14:28:33 2012*
G04 *
G04 Layer:  VIA CLASS/SOLDERMASK_TOP*
G04 Layer:  PIN/SOLDERMASK_TOP*
G04 Layer:  DRC ERROR CLASS/SOLDERMASK_TOP*
G04 *
G04 Offset:    (0.000 0.000)*
G04 Mirror:    No*
G04 Mode:      Positive*
G04 Rotation:  0*
G04 FullContactRelief:  No*
G04 UndefLineWidth:     0.000*
G04 ================== end FILE IDENTIFICATION RECORD ====================*
%FSLAX55Y55*MOIN*%
%IR0*IPPOS*OFA0.00000B0.00000*MIA0B0*SFA1.00000B1.00000*%
%ADD10R,.216496X.078701*%
%AMMACRO24*
4,1,21,.008268,-.044094,
-.008268,-.044094,
-.008268,.035827,
-.008142,.037262,
-.007769,.038654,
-.00716,.039961,
-.006333,.041141,
-.005314,.04216,
-.004134,.042987,
-.002828,.043596,
-.001436,.043969,
0.0,.044094,
.001436,.043969,
.002828,.043596,
.004134,.042987,
.005314,.04216,
.006333,.041141,
.00716,.039961,
.007769,.038654,
.008142,.037262,
.008268,.035827,
.008268,-.044094,
0.0*
%
%ADD24MACRO24*%
%AMMACRO25*
4,1,21,-.044094,-.008268,
-.044094,.008268,
.035827,.008268,
.037262,.008142,
.038654,.007769,
.039961,.00716,
.041141,.006333,
.04216,.005314,
.042987,.004134,
.043596,.002828,
.043969,.001436,
.044094,0.0,
.043969,-.001436,
.043596,-.002828,
.042987,-.004134,
.04216,-.005314,
.041141,-.006333,
.039961,-.00716,
.038654,-.007769,
.037262,-.008142,
.035827,-.008268,
-.044094,-.008268,
0.0*
%
%ADD25MACRO25*%
%ADD18O,.012008X.070984*%
%ADD19O,.070984X.012008*%
%ADD12C,.141732*%
%ADD29C,.095*%
%ADD11C,.053543*%
%ADD17R,.012008X.070984*%
%ADD20R,.070984X.012008*%
%ADD28R,.098425X.098425*%
%ADD21R,.05X.05*%
%AMMACRO27*
4,1,21,-.008268,.044094,
.008268,.044094,
.008268,-.035827,
.008142,-.037262,
.007769,-.038654,
.00716,-.039961,
.006333,-.041141,
.005314,-.04216,
.004134,-.042987,
.002828,-.043596,
.001436,-.043969,
0.0,-.044094,
-.001436,-.043969,
-.002828,-.043596,
-.004134,-.042987,
-.005314,-.04216,
-.006333,-.041141,
-.00716,-.039961,
-.007769,-.038654,
-.008142,-.037262,
-.008268,-.035827,
-.008268,.044094,
0.0*
%
%ADD27MACRO27*%
%AMMACRO26*
4,1,21,.044094,.008268,
.044094,-.008268,
-.035827,-.008268,
-.037262,-.008142,
-.038654,-.007769,
-.039961,-.00716,
-.041141,-.006333,
-.04216,-.005314,
-.042987,-.004134,
-.043596,-.002828,
-.043969,-.001436,
-.044094,0.0,
-.043969,.001436,
-.043596,.002828,
-.042987,.004134,
-.04216,.005314,
-.041141,.006333,
-.039961,.00716,
-.038654,.007769,
-.037262,.008142,
-.035827,.008268,
.044094,.008268,
0.0*
%
%ADD26MACRO26*%
%ADD14R,.110236X.267717*%
%ADD13R,.047992X.074016*%
%ADD22R,.074016X.047992*%
%ADD16R,.032008X.037992*%
%ADD15R,.037992X.032008*%
%ADD23R,.047205X.070787*%
%LPD*%
G75*
G54D10*
X34252Y45276D03*
X71654D03*
X119114Y39429D03*
X156516D03*
G54D20*
X61815Y103945D03*
X95287Y101972D03*
G54D11*
X29134Y58661D03*
X34646D03*
G54D21*
X108402Y54724D03*
X100000D03*
G54D12*
X17323Y112598D03*
X235039Y14961D03*
G54D22*
X100787Y41720D03*
Y29921D03*
G54D13*
X51193Y29134D03*
X62992D03*
G54D23*
X142441Y47244D03*
Y31496D03*
X132992D03*
Y47244D03*
G54D14*
X31890Y77559D03*
G54D15*
X53543Y63299D03*
Y68898D03*
X44488Y63299D03*
Y68898D03*
X78740Y25898D03*
X71260D03*
X78740Y31496D03*
X71260D03*
X76378Y72528D03*
Y66929D03*
X119319Y55469D03*
Y61067D03*
X119528Y77646D03*
Y72047D03*
X135039Y68197D03*
Y62598D03*
X130732Y114917D03*
X122811D03*
X138559D03*
X130732Y120516D03*
X122811D03*
X138559D03*
X156720Y55469D03*
X172075Y85394D03*
X156720Y61067D03*
X172075Y90992D03*
X163780Y91646D03*
Y97244D03*
X171858Y103961D03*
Y98362D03*
X192126Y85913D03*
Y80315D03*
X207685Y82134D03*
Y87732D03*
X200000Y89677D03*
Y95276D03*
X191937Y109079D03*
Y103480D03*
G54D24*
X126772Y85925D03*
X128740D03*
X130709D03*
X132677D03*
X134646D03*
G54D16*
X47598Y80681D03*
X53197D03*
X49126Y115354D03*
X54724D03*
X47598Y88559D03*
X53197D03*
X67803Y68504D03*
X62205D03*
X79220Y59449D03*
X73622D03*
X60937D03*
X66535D03*
X106386Y64173D03*
X100787D03*
X106386Y72441D03*
X100787D03*
X111504Y80709D03*
X105906D03*
X109929Y88976D03*
X104331D03*
X107394Y112992D03*
X112992D03*
X109535Y98031D03*
X103937D03*
X112685Y105512D03*
X107087D03*
X107567Y121260D03*
X101969D03*
X143701Y55512D03*
X132323Y55535D03*
X126724D03*
X149299Y55512D03*
X177457Y77890D03*
X171858D03*
X155992Y82677D03*
X150394D03*
X155992Y98425D03*
X150394D03*
X155992Y90551D03*
X150394D03*
X155992Y106299D03*
X150394D03*
X197331Y72835D03*
X191732D03*
X184937Y85764D03*
X179339D03*
X184732Y103937D03*
X179134D03*
X192213Y94882D03*
X186614D03*
X207437Y94909D03*
X213035D03*
G54D25*
X120866Y99705D03*
Y97736D03*
Y95768D03*
Y93799D03*
Y91831D03*
G54D26*
X140551D03*
Y93799D03*
Y95768D03*
Y97736D03*
Y99705D03*
G54D17*
X67717Y82283D03*
X85445D03*
X79535Y115752D03*
G54D27*
X134843Y105610D03*
X132874D03*
X130906D03*
X128937D03*
X126969D03*
G54D18*
X69685Y82283D03*
X71657D03*
X73626D03*
X75598D03*
X77567D03*
X79535D03*
X81508D03*
X83476D03*
X85445Y115752D03*
X83476D03*
X81508D03*
X77567D03*
X75598D03*
X73626D03*
X71657D03*
X69685D03*
X67717D03*
X87417Y82283D03*
X89386D03*
Y115752D03*
X87417D03*
G54D28*
X130709Y95768D03*
G54D19*
X61815Y109854D03*
Y107882D03*
Y105913D03*
Y101972D03*
Y100004D03*
Y98031D03*
Y96063D03*
Y94094D03*
Y92122D03*
Y90154D03*
Y88185D03*
X95287D03*
Y90154D03*
Y92122D03*
Y94094D03*
Y96063D03*
Y98031D03*
Y100004D03*
Y103945D03*
Y105913D03*
Y107882D03*
Y109854D03*
G54D29*
X240118Y59882D03*
X220197Y59567D03*
X230118Y69882D03*
X220118Y79882D03*
X240118D03*
M02*
