G04 ================== begin FILE IDENTIFICATION RECORD ==================*
G04 Layout Name:  c:/src/bsm-2/schematics/bsm-radio.brd*
G04 Film Name:    SolderMaskTop*
G04 File Format:  Gerber RS274X*
G04 File Origin:  16.0-s004*
G04 Origin Date:  Wed Jan 25 17:10:28 2012*
G04 *
G04 Layer:  VIA CLASS/SOLDERMASK_TOP*
G04 Layer:  PIN/SOLDERMASK_TOP*
G04 Layer:  DRC ERROR CLASS/SOLDERMASK_TOP*
G04 *
G04 Offset:    (0.000 0.000)*
G04 Mirror:    No*
G04 Mode:      Positive*
G04 Rotation:  0*
G04 FullContactRelief:  No*
G04 UndefLineWidth:     0.000*
G04 ================== end FILE IDENTIFICATION RECORD ====================*
%FSLAX53Y53*MOIN*%
%IR0*IPPOS*OFA0.00000B0.00000*MIA0B0*SFA1.00000B1.00000*%
%ADD25O,.011811X.07874*%
%ADD26O,.07874X.011811*%
%ADD11R,.216496X.078701*%
%ADD13C,.23622*%
%ADD19O,.012008X.070984*%
%ADD20O,.070984X.012008*%
%ADD28C,.095*%
%ADD12C,.05*%
%ADD18R,.012008X.070984*%
%ADD21R,.070984X.012008*%
%ADD27R,.094488X.094488*%
%ADD10C,.057992*%
%ADD22R,.05X.05*%
%ADD17R,.098425X.255906*%
%ADD14R,.047992X.074016*%
%ADD23R,.074016X.047992*%
%ADD16R,.032008X.037992*%
%ADD15R,.037992X.032008*%
%ADD24R,.047205X.070787*%
%LPD*%
G75*
G54D10*
X101Y102D03*
X201D03*
X301D03*
X202Y1299D03*
X302D03*
X102D03*
X501Y102D03*
X601D03*
X401D03*
X602Y1299D03*
X402D03*
X502D03*
X801Y102D03*
X701D03*
X901D03*
X702Y1299D03*
X802D03*
X902D03*
X1101Y102D03*
X1001D03*
X1201D03*
X1202Y1299D03*
X1102D03*
X1002D03*
X1501Y102D03*
X1401D03*
X1301D03*
X1302Y1299D03*
X1402D03*
X1502D03*
X1602D03*
G54D20*
X618Y1099D03*
Y1079D03*
Y1059D03*
Y1020D03*
Y1000D03*
Y980D03*
Y961D03*
Y941D03*
Y921D03*
Y902D03*
Y882D03*
X953D03*
Y902D03*
Y921D03*
Y941D03*
Y961D03*
Y980D03*
Y1000D03*
Y1039D03*
Y1059D03*
Y1079D03*
Y1099D03*
G54D11*
X343Y453D03*
X717D03*
X1191Y394D03*
X1565D03*
G54D21*
X618Y1039D03*
X953Y1020D03*
G54D12*
X291Y587D03*
X346D03*
G54D22*
X1084Y547D03*
X1000D03*
G54D13*
X173Y1126D03*
X2350Y150D03*
G54D23*
X1008Y417D03*
Y299D03*
G54D14*
X512Y291D03*
X630D03*
G54D24*
X1424Y472D03*
Y315D03*
X1330D03*
Y472D03*
G54D15*
X535Y633D03*
Y689D03*
X445Y633D03*
Y689D03*
X787Y259D03*
X713D03*
X787Y315D03*
X713D03*
X764Y725D03*
Y669D03*
X1193Y555D03*
Y611D03*
X1195Y776D03*
Y720D03*
X1350Y682D03*
Y626D03*
X1307Y1149D03*
X1228D03*
X1386D03*
X1307Y1205D03*
X1228D03*
X1386D03*
X1567Y555D03*
X1721Y854D03*
X1567Y611D03*
X1721Y910D03*
X1638Y916D03*
Y972D03*
X1719Y1040D03*
Y984D03*
X1921Y859D03*
Y803D03*
X2077Y821D03*
Y877D03*
X2000Y897D03*
Y953D03*
X1919Y1091D03*
Y1035D03*
G54D16*
X476Y807D03*
X532D03*
X491Y1154D03*
X547D03*
X476Y886D03*
X532D03*
X678Y685D03*
X622D03*
X792Y594D03*
X736D03*
X609D03*
X665D03*
X1064Y642D03*
X1008D03*
X1064Y724D03*
X1008D03*
X1115Y807D03*
X1059D03*
X1099Y890D03*
X1043D03*
X1074Y1130D03*
X1130D03*
X1095Y980D03*
X1039D03*
X1127Y1055D03*
X1071D03*
X1076Y1213D03*
X1020D03*
X1437Y555D03*
X1323Y555D03*
X1267D03*
X1493Y555D03*
X1775Y779D03*
X1719D03*
X1560Y827D03*
X1504D03*
X1560Y984D03*
X1504D03*
X1560Y906D03*
X1504D03*
X1560Y1063D03*
X1504D03*
X1973Y728D03*
X1917D03*
X1849Y858D03*
X1793D03*
X1847Y1039D03*
X1791D03*
X1922Y949D03*
X1866D03*
X2074Y949D03*
X2130D03*
G54D25*
X1268Y861D03*
X1287D03*
X1307D03*
X1327D03*
X1346D03*
X1348Y1054D03*
X1329D03*
X1309D03*
X1289D03*
X1270D03*
G54D17*
X319Y776D03*
G54D26*
X1211Y997D03*
Y977D03*
Y958D03*
Y938D03*
Y918D03*
X1404D03*
Y938D03*
Y958D03*
Y977D03*
Y997D03*
G54D27*
X1307Y958D03*
G54D18*
X677Y823D03*
X854D03*
X795Y1158D03*
G54D28*
X2401Y599D03*
X2202Y596D03*
X2301Y699D03*
X2201Y799D03*
X2401D03*
G54D19*
X697Y823D03*
X717D03*
X736D03*
X756D03*
X776D03*
X795D03*
X815D03*
X835D03*
X854Y1158D03*
X835D03*
X815D03*
X776D03*
X756D03*
X736D03*
X717D03*
X697D03*
X677D03*
X874Y823D03*
X894D03*
Y1158D03*
X874D03*
M02*
