G04 ================== begin FILE IDENTIFICATION RECORD ==================*
G04 Layout Name:  c:/src/bsm-2/schematics/bsm-radio.brd*
G04 Film Name:    TOP*
G04 File Format:  Gerber RS274X*
G04 File Origin:  16.0-s004*
G04 Origin Date:  Thu Jan 19 14:39:00 2012*
G04 *
G04 Layer:  ETCH/TOP*
G04 Layer:  PIN/TOP*
G04 Layer:  VIA CLASS/TOP*
G04 *
G04 Offset:    (0.000 0.000)*
G04 Mirror:    No*
G04 Mode:      Positive*
G04 Rotation:  0*
G04 FullContactRelief:  No*
G04 UndefLineWidth:     0.000*
G04 ================== end FILE IDENTIFICATION RECORD ====================*
%FSLAX55Y55*MOMM*%
%IR0*IPPOS*OFA0.00000B0.00000*MIA0B0*SFA1.00000B1.00000*%
%ADD11R,5.499X1.999*%
%ADD18R,.3X1.*%
%ADD19R,1.X.3*%
%ADD28C,2.3*%
%AMMACRO26*
4,1,21,-.14,1.,
.14,1.,
.14,-.86,
.137873,-.884311,
.131557,-.907883,
.121244,-.93,
.107246,-.94999,
.08999,-.967246,
.07,-.981244,
.047883,-.991557,
.024311,-.997873,
0.0,-1.,
-.024311,-.997873,
-.047883,-.991557,
-.07,-.981244,
-.08999,-.967246,
-.107246,-.94999,
-.121244,-.93,
-.131557,-.907883,
-.137873,-.884311,
-.14,-.86,
-.14,1.,
0.0*
%
%ADD26MACRO26*%
%AMMACRO25*
4,1,21,1.,.14,
1.,-.14,
-.86,-.14,
-.884311,-.137873,
-.907883,-.131557,
-.93,-.121244,
-.94999,-.107246,
-.967246,-.08999,
-.981244,-.07,
-.991557,-.047883,
-.997873,-.024311,
-1.,0.0,
-.997873,.024311,
-.991557,.047883,
-.981244,.07,
-.967246,.08999,
-.94999,.107246,
-.93,.121244,
-.907883,.131557,
-.884311,.137873,
-.86,.14,
1.,.14,
0.0*
%
%ADD25MACRO25*%
%ADD27R,2.4X2.4*%
%ADD10C,1.473*%
%ADD20R,1.27X1.27*%
%ADD14R,2.5X6.5*%
%ADD17C,.61*%
%AMMACRO23*
4,1,21,.14,-1.,
-.14,-1.,
-.14,.86,
-.137873,.884311,
-.131557,.907883,
-.121244,.93,
-.107246,.94999,
-.08999,.967246,
-.07,.981244,
-.047883,.991557,
-.024311,.997873,
0.0,1.,
.024311,.997873,
.047883,.991557,
.07,.981244,
.08999,.967246,
.107246,.94999,
.121244,.93,
.131557,.907883,
.137873,.884311,
.14,.86,
.14,-1.,
0.0*
%
%ADD23MACRO23*%
%AMMACRO24*
4,1,21,-1.,-.14,
-1.,.14,
.86,.14,
.884311,.137873,
.907883,.131557,
.93,.121244,
.94999,.107246,
.967246,.08999,
.981244,.07,
.991557,.047883,
.997873,.024311,
1.,0.0,
.997873,-.024311,
.991557,-.047883,
.981244,-.07,
.967246,-.08999,
.94999,-.107246,
.93,-.121244,
.907883,-.131557,
.884311,-.137873,
.86,-.14,
-1.,-.14,
0.0*
%
%ADD24MACRO24*%
%ADD12C,.96*%
%ADD13R,1.219X1.88*%
%ADD21R,1.88X1.219*%
%ADD16R,.813X.965*%
%ADD15R,.965X.813*%
%ADD22R,1.199X1.798*%
%ADD29C,.2*%
%ADD30C,.3*%
%ADD31C,.25*%
G75*
%LPD*%
G75*
G36*
G01X50100Y50100D02*
Y3519900D01*
X6299900D01*
Y50100D01*
X3576200D01*
G02X3569000Y67500I25J10200D01*
G01X3701900Y200400D01*
Y319600D01*
X3597000Y424500D01*
G02X3603700Y441900I7212J7213D01*
G03X3657000Y472500I-3669J68111D01*
G01X3658500Y474800D01*
X4144600D01*
X4365200Y695400D01*
Y1344600D01*
X4123500Y1586300D01*
X4049200D01*
Y1612000D01*
X3969600D01*
X3855200Y1726400D01*
Y2031600D01*
X3880800D01*
Y2111100D01*
X3925900Y2156100D01*
Y2231600D01*
X4023000D01*
Y2264800D01*
X4146800D01*
X4148900Y2267000D01*
X4228400D01*
Y2292600D01*
X4302200D01*
Y2250400D01*
X4381800D01*
X4384900Y2247300D01*
G02X4377600Y2229800I-7206J-7267D01*
G01X4302200D01*
Y2108200D01*
X4335500D01*
Y2046800D01*
X4304400D01*
Y1910000D01*
X4426000D01*
Y2046800D01*
X4405900D01*
Y2108200D01*
X4439200D01*
Y2168300D01*
G02X4456600Y2175600I10200J75D01*
G01X4488900Y2143200D01*
X4494400D01*
Y2110000D01*
X4616000D01*
Y2246800D01*
X4494400D01*
Y2246200D01*
X4488100Y2243600D01*
X4439200Y2292500D01*
Y2372000D01*
X4302200D01*
Y2363000D01*
X4228400D01*
Y2388600D01*
X4091600D01*
Y2335200D01*
X4023000D01*
Y2368400D01*
X3925900D01*
Y2431600D01*
X4023000D01*
Y2464800D01*
X4091600D01*
Y2409200D01*
X4228400D01*
Y2434800D01*
X4351400D01*
X4354100Y2437600D01*
X4433600D01*
Y2517100D01*
X4488100Y2571600D01*
X4610800D01*
Y2708400D01*
X4489200D01*
Y2672100D01*
X4376300Y2559200D01*
X4296800D01*
Y2505200D01*
X4228400D01*
Y2530800D01*
X4148900D01*
X4144600Y2535200D01*
X4023000D01*
Y2568400D01*
X3925900D01*
Y2643900D01*
X3880800Y2688900D01*
Y2768400D01*
X3801300D01*
X3615700Y2954100D01*
X3587800D01*
Y2979800D01*
X3508300D01*
X3462900Y3025200D01*
X3175900D01*
X3130500Y2979800D01*
X3076300D01*
Y3099600D01*
X3102800Y3126100D01*
X3829400D01*
X3973100Y3269800D01*
X3979000D01*
X3980300Y3266500D01*
G03Y3333500I87707J33500D01*
G01X3979000Y3330200D01*
X3948100D01*
X3924400Y3306500D01*
G02X3907100Y3312400I-7193J7222D01*
G03X3722600Y3278700I-93082J-12297D01*
G01X3723200Y3275900D01*
X3673800Y3226500D01*
X3642600D01*
G02X3634500Y3242900I19J10210D01*
G03X3493600Y3366400I-74566J57054D01*
G01X3490000Y3362800D01*
X3378800Y3473900D01*
X2481200D01*
X2441900Y3434600D01*
X2439000Y3435500D01*
G03X2353800Y3386600I-19036J-65507D01*
G02X2338700Y3380300I-9881J2437D01*
G03X2198900Y3322600I-48667J-80294D01*
G01X2198500Y3321200D01*
X2144000Y3266700D01*
G02X2126900Y3276500I-7234J7197D01*
G03X1987300Y3219700I-90914J23494D01*
G01X1989800Y3218200D01*
Y3159500D01*
G02X1972400Y3152300I-10200J25D01*
G01X1866300Y3258400D01*
X1867700Y3261600D01*
G03X1724900Y3374500I-85692J38372D01*
G02X1708500Y3382600I-6190J8119D01*
G01Y3384200D01*
X1602500Y3490200D01*
X202300D01*
X82100Y3370000D01*
Y175200D01*
X189800Y67500D01*
G02X182600Y50100I-7225J-7200D01*
G01X50100D01*
G37*
G36*
G01X198900Y334500D02*
G02X182500Y342600I-6190J8119D01*
G01Y3081200D01*
X184500Y3083200D01*
Y3217400D01*
G02X200900Y3225500I10210J-19D01*
G03X296400Y3214300I57144J74500D01*
G01X299600Y3215700D01*
X418100Y3097200D01*
Y2799200D01*
X534700Y2682600D01*
G02X527500Y2665200I-7225J-7200D01*
G01X502500D01*
X225800Y2388500D01*
Y349000D01*
X222500Y347700D01*
G03X198900Y334500I33551J-87682D01*
G37*
G36*
G01X261900Y150200D02*
X251100Y161000D01*
X256100Y166100D01*
X258200D01*
G03X289500Y347700I-2199J93876D01*
G01X286200Y349000D01*
Y516500D01*
G02X303600Y523700I10200J-25D01*
G01X468200Y359100D01*
G02X465800Y342900I-7191J-7213D01*
G03X543500Y347700I44119J-82900D01*
G01X540200Y349000D01*
Y372500D01*
X326200Y586500D01*
Y2343500D01*
X362400Y2379700D01*
G02X379800Y2372500I7200J-7225D01*
G01Y727500D01*
X733800Y373500D01*
Y349000D01*
X730500Y347700D01*
G03X797500I33500J-87707D01*
G01X794200Y349000D01*
Y372900D01*
G02X811600Y380100I10200J-25D01*
G01X924400Y267300D01*
X924200Y265100D01*
G03X954700Y329300I93755J-5196D01*
G01X951100Y326000D01*
X839700Y437400D01*
G02X846900Y454800I7225J7200D01*
G01X971500D01*
X973000Y452500D01*
G03X1094000Y466400I56992J37483D01*
G02X1110800Y470000I9551J-3570D01*
G01X1224800Y356000D01*
G02X1222900Y340100I-7198J-7203D01*
G03X1365200Y248800I49067J-80069D01*
G02X1382600Y254800I10142J-1181D01*
G01X1407600Y229800D01*
X1437000D01*
X1438300Y226500D01*
G03X1441400Y300700I87707J33500D01*
G02X1425000Y297900I-9188J4389D01*
G01X1318300Y404500D01*
G02X1326100Y421900I7198J7221D01*
G03X1387000Y452500I3919J68101D01*
G01X1388500Y454800D01*
X1849800D01*
X1850300Y454300D01*
X2021500D01*
X2023000Y452000D01*
G03X2076600Y421400I56956J37522D01*
G01X2078600Y421300D01*
X2083600Y416300D01*
X2077500Y410200D01*
X1807500D01*
X1749800Y352500D01*
Y349000D01*
X1746500Y347700D01*
G03X1830600Y339100I33521J-87706D01*
G01X1830100Y339400D01*
X1826100Y343400D01*
X1832500Y349800D01*
X1966900D01*
G02X1973500Y331800I24J-10201D01*
G03X2118500Y300900I60490J-71807D01*
G01X2116900Y304200D01*
X2232400Y419700D01*
G02X2249800Y412500I7200J-7225D01*
G01Y345800D01*
X2246900Y344400D01*
G03X2313900Y350300I41191J-84389D01*
G01X2310200Y351300D01*
Y415900D01*
G02X2327600Y423100I10200J-25D01*
G01X2455100Y295600D01*
X2453900Y292600D01*
G03X2616500Y317100I88059J-32605D01*
G02X2624600Y333500I8119J6190D01*
G01X2683800D01*
X2713100Y304200D01*
X2711500Y300900D01*
G03X2760300Y346800I84485J-40931D01*
G01X2757200Y345600D01*
X2746600Y356100D01*
G02X2753800Y373500I7225J7200D01*
G01X2893800D01*
X2965700Y301600D01*
X2964300Y298400D01*
G03X3061200Y166800I85692J-38378D01*
G01X3063600Y167100D01*
X3069000Y161700D01*
X3057500Y150200D01*
X261900D01*
G37*
G36*
G01X822500Y610200D02*
X590200Y842500D01*
Y1029800D01*
X1165200D01*
Y1270200D01*
X987500D01*
G02X980300Y1287600I-15J10184D01*
G01X992500Y1299800D01*
X1622500D01*
X1720200Y1397500D01*
Y1441600D01*
X1750800D01*
Y1579100D01*
G02X1747300Y1595900I3670J9529D01*
G01X1850200Y1698800D01*
Y1834000D01*
X1854100Y1837900D01*
G02X1871600Y1830700I7283J-7165D01*
G01Y1781400D01*
X2008400D01*
Y1854200D01*
G02X2025900Y1861400I10217J35D01*
G01X2089800Y1797500D01*
Y1270200D01*
X1900200D01*
Y1441600D01*
X1930800D01*
Y1578400D01*
X1900200D01*
Y1617500D01*
X1921900Y1639200D01*
X2008400D01*
Y1760800D01*
X1871600D01*
Y1674300D01*
X1839800Y1642500D01*
Y1578400D01*
X1809200D01*
Y1441600D01*
X1839800D01*
Y1270200D01*
X1524800D01*
Y1029800D01*
X2089800D01*
Y992500D01*
X2037500Y940200D01*
X1187500D01*
X1049800Y802500D01*
Y610200D01*
X822500D01*
G37*
G36*
G01X590200Y1270200D02*
Y2297500D01*
X667500Y2374800D01*
X887900D01*
X949800Y2312900D01*
Y2027500D01*
X1097500Y1879800D01*
X1192500D01*
G02X1199700Y1862400I-25J-10200D01*
G01X1148100Y1810800D01*
X1061600D01*
Y1724300D01*
X1007500Y1670200D01*
X837500D01*
X761900Y1594600D01*
X759000Y1595500D01*
G03X800900Y1499300I-19000J-65500D01*
G02X819100I9100J-4603D01*
G03X847200Y1470200I60904J30694D01*
G01X849800Y1468800D01*
Y1457500D01*
X957300Y1350000D01*
X877400Y1270200D01*
X590200D01*
G37*
G36*
G01X632500Y2745200D02*
X542200Y2835500D01*
Y3211000D01*
X545500Y3212300D01*
G03X572500Y3371800I-33508J87708D01*
G02X579100Y3389800I6576J7799D01*
G01X698900D01*
G02X705500Y3371800I24J-10201D01*
G03X732500Y3212300I60508J-71792D01*
G01X735800Y3211000D01*
Y2853500D01*
X826700Y2762600D01*
G02X819500Y2745200I-7225J-7200D01*
G01X632500D01*
G37*
G36*
G01X481800Y3143500D02*
G02X464400Y3136300I-10200J25D01*
G01X342300Y3258400D01*
X343700Y3261600D01*
G03X318500Y3371800I-85696J38385D01*
G02X325100Y3389800I6576J7799D01*
G01X444900D01*
G02X451500Y3371800I24J-10201D01*
G03X478500Y3212300I60508J-71792D01*
G01X481800Y3211000D01*
Y3143500D01*
G37*
G36*
G01X1261900Y486100D02*
G02X1244500Y478300I-10179J-602D01*
G01X1110200Y612600D01*
Y777500D01*
X1212500Y879800D01*
X1282500D01*
G02X1289700Y862400I-25J-10200D01*
G01X1281500Y854200D01*
X1219200D01*
Y625800D01*
X1381400D01*
Y839800D01*
X1518800D01*
Y625800D01*
X1564800D01*
Y525200D01*
X1388500D01*
X1387000Y527500D01*
G03X1261900Y486100I-57000J-37472D01*
G37*
G36*
G01X1227500Y1360200D02*
G02X1220300Y1377600I25J10200D01*
G01X1316900Y1474200D01*
Y1664200D01*
X1341900Y1689200D01*
X1428400D01*
Y1719800D01*
X1519200D01*
Y1671600D01*
X1640800D01*
Y1808400D01*
X1519200D01*
Y1780200D01*
X1428400D01*
Y1810800D01*
X1291600D01*
Y1724300D01*
X1256500Y1689200D01*
Y1499200D01*
X1157500Y1400200D01*
X992500D01*
X926800Y1465900D01*
G02X927000Y1480500I7195J7203D01*
G03X862000Y1595800I-46944J49507D01*
G01X859100Y1595000D01*
X853400Y1600700D01*
X862500Y1609800D01*
X1032500D01*
X1111900Y1689200D01*
X1198400D01*
Y1775700D01*
X1262500Y1839800D01*
X1689400D01*
G02X1696600Y1822400I-25J-10200D01*
G01X1692000Y1817800D01*
Y1808400D01*
X1661400D01*
Y1671600D01*
X1712900D01*
G02X1720100Y1654100I35J-10217D01*
G01X1659800Y1593800D01*
Y1578400D01*
X1629200D01*
Y1441600D01*
X1659800D01*
Y1422500D01*
X1597500Y1360200D01*
X1227500D01*
G37*
G36*
G01X2089800Y1907500D02*
G02X2072400Y1900300I-10200J25D01*
G01X2050200Y1922500D01*
Y2019800D01*
X2055200D01*
Y2160200D01*
X1684800D01*
Y2104600D01*
X1664700Y2084500D01*
X1412000D01*
Y2117800D01*
X1386400D01*
Y2181000D01*
X1412000D01*
Y2209800D01*
X1499800D01*
Y2204800D01*
X1640200D01*
Y2209800D01*
X1811900D01*
X1813000Y2209200D01*
G03X1854900Y2215100I17028J30805D01*
G01X1935200Y2295400D01*
Y2545400D01*
X2149600Y2759800D01*
X2349800D01*
Y2754800D01*
X2490200D01*
Y2825200D01*
X2455200D01*
Y2835400D01*
X2504800Y2885000D01*
G02X2522100Y2876800I7166J-7231D01*
G03X2581400Y2802300I67887J-6815D01*
G02X2587300Y2785000I-1306J-10101D01*
G01X2522500Y2720200D01*
X2490200D01*
Y2725200D01*
X2349800D01*
Y2620200D01*
X2338400D01*
G02X2328200Y2630300I-3J10198D01*
G03X2207200Y2586900I-68186J-273D01*
G02X2199300Y2570200I-7886J-6488D01*
G01X2167500D01*
X2099800Y2502500D01*
Y2287500D01*
X2187500Y2199800D01*
X2257900D01*
X2289800Y2167900D01*
Y2160200D01*
X2084800D01*
Y2019800D01*
X2089800D01*
Y1907500D01*
G37*
G36*
G01X1122500Y1940200D02*
X1010200Y2052500D01*
Y2337900D01*
X940700Y2407400D01*
G02X947900Y2424800I7225J7200D01*
G01X1175400D01*
X1290400Y2309900D01*
Y2181000D01*
X1316000D01*
Y2117800D01*
X1290400D01*
Y1980800D01*
X1412000D01*
Y2014100D01*
X1693900D01*
X1699600Y2019800D01*
X1739800D01*
Y1982500D01*
X1697500Y1940200D01*
X1122500D01*
G37*
G36*
G01X1412000Y2270200D02*
Y2309800D01*
X1499800D01*
Y2304800D01*
X1640200D01*
Y2425200D01*
X1499800D01*
Y2420200D01*
X1406900D01*
X1384700Y2442400D01*
G02X1391900Y2459800I7225J7200D01*
G01X1499800D01*
Y2454800D01*
X1640200D01*
Y2825200D01*
X1499800D01*
Y2820200D01*
X1418200D01*
X1394300Y2844100D01*
G02X1401500Y2861600I7165J7283D01*
G01X1450800D01*
Y2894800D01*
X1684800D01*
Y2869800D01*
X1689800D01*
Y2658100D01*
X1689200Y2657000D01*
G03X1695100Y2615100I30805J-17028D01*
G01X1805400Y2504800D01*
X1864800D01*
Y2324600D01*
X1810400Y2270200D01*
X1640200D01*
Y2275200D01*
X1499800D01*
Y2270200D01*
X1412000D01*
G37*
G36*
G01X1142500Y2840200D02*
X1050200Y2932500D01*
Y3211000D01*
X1053500Y3212300D01*
G03X1080500Y3371800I-33508J87708D01*
G02X1087100Y3389800I6576J7799D01*
G01X1206900D01*
G02X1213500Y3371800I24J-10201D01*
G03X1279100Y3206200I60495J-71829D01*
G02X1289800Y3196100I515J-10172D01*
G01Y2863200D01*
X1295400Y2857600D01*
G02X1288200Y2840200I-7225J-7200D01*
G01X1142500D01*
G37*
G36*
G01X889500Y2785200D02*
X796200Y2878500D01*
Y3211000D01*
X799500Y3212300D01*
G03X826500Y3371800I-33508J87708D01*
G02X833100Y3389800I6576J7799D01*
G01X952900D01*
G02X959500Y3371800I24J-10201D01*
G03X986500Y3212300I60508J-71792D01*
G01X989800Y3211000D01*
Y2907500D01*
X1094700Y2802600D01*
G02X1087500Y2785200I-7225J-7200D01*
G01X889500D01*
G37*
G36*
G01X1834600Y2575200D02*
X1750200Y2659600D01*
Y2869800D01*
X1755200D01*
Y3010200D01*
X1684800D01*
Y2965200D01*
X1450800D01*
Y2998400D01*
X1350200D01*
Y3245100D01*
X1351100Y3246400D01*
G03X1334500Y3371800I-77101J53592D01*
G02X1341100Y3389800I6576J7799D01*
G01X1460900D01*
G02X1467500Y3371800I24J-10201D01*
G03X1561000Y3212100I60516J-71791D01*
G01X1564100Y3213200D01*
X1691200Y3086100D01*
X1777500D01*
X1789800Y3073800D01*
Y3010200D01*
X1784800D01*
Y2869800D01*
X2305200D01*
Y2922500D01*
X2333000Y2950300D01*
X2336600Y2947400D01*
G03X2314200Y3017800I43416J52578D01*
G01X2313800Y3016500D01*
X2307500Y3010200D01*
X2250200D01*
Y3070900D01*
X2265400Y3086100D01*
X2378600D01*
X2418600Y3126100D01*
X2529200D01*
Y3008900D01*
X2384800Y2864600D01*
Y2825200D01*
X2349800D01*
Y2820200D01*
X2148100D01*
X2147000Y2820800D01*
G03X2105100Y2814900I-17028J-30805D01*
G01X1865400Y2575200D01*
X1834600D01*
G37*
G36*
G01X2164200Y496900D02*
G02X2147000Y502200I-7184J7244D01*
G03X2023000Y527000I-67017J-12686D01*
G01X2021500Y524700D01*
X1879500D01*
X1879000Y525200D01*
X1635200D01*
Y625800D01*
X1681200D01*
Y839800D01*
X1727500D01*
X1741600Y825700D01*
Y739200D01*
X1878400D01*
Y769800D01*
X1931600D01*
Y739200D01*
X2068400D01*
Y775700D01*
X2152400Y859700D01*
G02X2169800Y852500I7200J-7225D01*
G01Y502500D01*
X2164200Y496900D01*
G37*
G36*
G01X1878400Y830200D02*
Y860800D01*
X1791900D01*
X1790300Y862400D01*
G02X1797500Y879800I7225J7200D01*
G01X2062500D01*
X2121100Y938400D01*
G02X2129800Y934800I3599J-3615D01*
G01Y922500D01*
X2068100Y860800D01*
X1931600D01*
Y830200D01*
X1878400D01*
G37*
G36*
G01X2178200Y2354300D02*
G02X2160200Y2360900I-7789J6604D01*
G01Y2477500D01*
X2192500Y2509800D01*
X2202500D01*
G02X2209700Y2492400I-25J-10200D01*
G01X2189800Y2472500D01*
Y2365100D01*
X2187900Y2363600D01*
G03X2178200Y2354300I42100J-53619D01*
G37*
G36*
G01X2675900Y533900D02*
X2616200Y593500D01*
X2616800Y596200D01*
G03X2596800Y659600I-66794J13784D01*
G01X2595200Y661100D01*
Y678800D01*
X2674200D01*
Y773600D01*
G02X2691600Y780800I10193J-9D01*
G01X2921100Y551300D01*
G02X2913900Y533900I-7209J-7207D01*
G01X2675900D01*
G37*
G36*
G01X2568800Y473900D02*
X2470200Y572500D01*
Y678800D01*
X2498000D01*
G02X2504700Y661000I-42J-10177D01*
G03X2563800Y543200I45285J-51006D01*
G01X2566500Y543800D01*
X2618900Y491300D01*
G02X2611700Y473900I-7209J-7207D01*
G01X2568800D01*
G37*
G36*
G01X3531900Y513700D02*
G02X3514500Y507000I-10187J512D01*
G01X3377600Y643900D01*
X2998800D01*
X2778800Y863900D01*
G02X2786000Y881400I7165J7283D01*
G01X3320600D01*
Y1089900D01*
X3464800D01*
Y595400D01*
X3533800Y526500D01*
X3533200Y523800D01*
G03X3531900Y513700I66807J-13733D01*
G37*
G36*
G01X2691600Y1134300D02*
G02X2674200Y1140800I-7217J7221D01*
G01X2575200D01*
Y1306300D01*
X2623700D01*
Y1441800D01*
G02X2634700Y1452000I10196J36D01*
G03X2697000Y1482500I5323J68004D01*
G01X2698500Y1484800D01*
X2738200D01*
X2774600Y1521200D01*
G02X2792000Y1514800I7236J-7180D01*
G03X2879000Y1454500I68001J5200D01*
G01X2881900Y1455400D01*
X2919800Y1417500D01*
Y1362500D01*
X2691600Y1134300D01*
G37*
G36*
G01X2470200Y1140800D02*
Y1306300D01*
X2504800D01*
Y1140800D01*
X2470200D01*
G37*
G36*
G01X2789000Y1121600D02*
G02X2781800Y1139100I-35J10217D01*
G01X2980200Y1337500D01*
Y1348000D01*
X2995300D01*
Y1121600D01*
X2789000D01*
G37*
G36*
G01X2470200Y841200D02*
Y978600D01*
X2524800D01*
Y947600D01*
X2613900Y858600D01*
G02X2606600Y841200I-7225J-7200D01*
G01X2470200D01*
G37*
G36*
G01X2926700Y1688600D02*
G02X2918000Y1704200I-26J10212D01*
G03X2912600Y1783400I-58012J35829D01*
G01X2909700Y1787000D01*
X2999000Y1876300D01*
X3111100D01*
X3222400Y1987600D01*
G02X3239800Y1980400I7200J-7225D01*
G01Y1762500D01*
X3165900Y1688600D01*
X2926700D01*
G37*
G36*
G01X2500200Y1908400D02*
Y1967500D01*
X2570200Y2037500D01*
Y2148200D01*
G02X2587600Y2155400I10200J-25D01*
G01X2590900Y2152100D01*
X2709100D01*
X2748600Y2191600D01*
X2782100D01*
G02X2789300Y2174100I35J-10217D01*
G01X2729800Y2114600D01*
Y2008200D01*
X2711800Y1990200D01*
X2685400D01*
X2603600Y1908400D01*
X2500200D01*
G37*
G36*
G01X2934300Y1897000D02*
G02X2917100Y1902400I-7178J7230D01*
G03X2887500Y1947000I-67085J-12401D01*
G01X2885200Y1948500D01*
Y1981600D01*
X2893000D01*
Y2068100D01*
X2940200Y2115300D01*
Y2327500D01*
X2946100Y2333400D01*
G02X2954800Y2329800I3599J-3615D01*
G01Y2298300D01*
X3009800D01*
X3006500Y2033000D01*
X2967600D01*
Y1930300D01*
X2934300Y1897000D01*
G37*
G36*
G01X2763000Y1688600D02*
Y1698400D01*
X2732400D01*
Y1771600D01*
X2763000D01*
Y1908400D01*
X2713700D01*
G02X2706500Y1925900I-35J10217D01*
G01X2710400Y1929800D01*
X2736800D01*
X2788600Y1981600D01*
X2814800D01*
Y1948500D01*
X2812500Y1947000D01*
G03X2847100Y1821900I37495J-56964D01*
G01X2849100Y1821800D01*
X2854100Y1816800D01*
X2843500Y1806200D01*
X2842200Y1805800D01*
G03X2802000Y1704200I17821J-65804D01*
G02X2793300Y1688600I-8674J-5388D01*
G01X2763000D01*
G37*
G36*
G01X2447600Y1690300D02*
G02X2430200Y1697500I-7200J7225D01*
G01Y1842500D01*
G02X2447600Y1849700I10200J-25D01*
G01X2487500Y1809800D01*
X2499200D01*
Y1771600D01*
X2568500D01*
G02X2575700Y1754100I35J-10217D01*
G01X2561800Y1740200D01*
X2497500D01*
X2447600Y1690300D01*
G37*
G36*
G01X2632200Y1587800D02*
G02X2620800Y1597900I-1201J10128D01*
G01Y1698400D01*
X2617800D01*
G02X2614200Y1707200I-45J5118D01*
G01X2660200Y1753200D01*
Y1771600D01*
X2672000D01*
Y1698400D01*
X2641400D01*
Y1588400D01*
X2636500Y1588100D01*
G03X2632200Y1587800I2595J-68163D01*
G37*
G36*
G01X2470200Y1473700D02*
Y1627500D01*
X2481700Y1639000D01*
G02X2499200Y1631800I7283J-7165D01*
G01Y1561600D01*
X2524800D01*
Y1534600D01*
X2504800Y1514600D01*
Y1473700D01*
X2470200D01*
G37*
G36*
G01X3099200Y1439100D02*
Y1469800D01*
X2962200D01*
Y1469400D01*
X2956000Y1466800D01*
X2924600Y1498100D01*
X2925500Y1501000D01*
G03X2919700Y1553100I-65498J19081D01*
G02X2928600Y1568200I8908J4923D01*
G01X2962000D01*
X2962200Y1568000D01*
Y1490200D01*
X3099200D01*
Y1612000D01*
X3017800D01*
X3010300Y1619500D01*
G02X3013900Y1628200I3599J3606D01*
G01X3190900D01*
X3272400Y1709700D01*
G02X3289800Y1702500I7200J-7225D01*
G01Y1524300D01*
X3244500Y1479000D01*
X3158000D01*
Y1439100D01*
X3099200D01*
G37*
G36*
G01X3658500Y545200D02*
X3657000Y547500D01*
G03X3586200Y576800I-56981J-37499D01*
G01X3583500Y576200D01*
X3535200Y624600D01*
Y1089900D01*
X3680400D01*
Y881400D01*
X4270600D01*
Y1121600D01*
X4010900D01*
Y1348000D01*
X4049200D01*
Y1469800D01*
X3912200D01*
Y1440200D01*
X3853000D01*
Y1478400D01*
X3822400D01*
Y1600300D01*
X3450200Y1972500D01*
Y2067300D01*
X3454200D01*
Y2273500D01*
G03X3398200Y2299900I-34223J0D01*
G02X3391800I-3200J3938D01*
G03X3348200I-21800J-26384D01*
G02X3341800I-3200J3938D01*
G03X3298200I-21800J-26384D01*
G02X3291800I-3200J3938D01*
G03X3248200I-21800J-26384D01*
G02X3241800I-3200J3938D01*
G03X3185800Y2273500I-21777J-26400D01*
G01Y2067300D01*
X3189800D01*
Y2040400D01*
X3121900Y1972500D01*
G02X3104400Y1979700I-7283J7165D01*
G01Y2033000D01*
X3066900D01*
X3070000Y2287300D01*
X3081000Y2298300D01*
X3161000D01*
G03X3187400Y2354300I0J34223D01*
G02Y2360700I3938J3200D01*
G03Y2404300I-26384J21800D01*
G02Y2410700I3938J3200D01*
G03Y2454300I-26384J21800D01*
G02Y2460700I3938J3200D01*
G03Y2504300I-26384J21800D01*
G02Y2510700I3938J3200D01*
G03X3161000Y2566700I-26400J21777D01*
G01X2954800D01*
Y2562700D01*
X2840000D01*
X2835700Y2558400D01*
X2721400D01*
Y2476000D01*
G02X2703900Y2468800I-10217J-35D01*
G01X2700800Y2471900D01*
Y2558400D01*
X2651400D01*
G02X2644200Y2575900I-2J10230D01*
G01X2679900Y2611600D01*
X2780800D01*
Y2723100D01*
X2801400D01*
Y2611600D01*
X2923000D01*
Y2649800D01*
X3160000D01*
X3190800Y2619000D01*
Y2591500D01*
G03X3259200I34200J0D01*
G01Y2783500D01*
G02X3276600Y2790700I10200J-25D01*
G01X3290800Y2776500D01*
Y2591500D01*
G03X3346800Y2565100I34223J0D01*
G02X3353200I3200J-3938D01*
G03X3409200Y2591500I21777J26400D01*
G01Y2797700D01*
X3405200D01*
Y2848300D01*
X3389000Y2864500D01*
Y2954800D01*
X3433700D01*
X3451000Y2937600D01*
Y2858000D01*
X3484200D01*
Y2836000D01*
X3584800Y2735400D01*
Y2587100D01*
X3565400Y2567700D01*
X3515000D01*
G03X3507200Y2566800I0J-34250D01*
G01X3506600Y2566700D01*
X3479000D01*
G03X3452600Y2510700I0J-34223D01*
G02Y2504300I-3938J-3200D01*
G03Y2460700I26384J-21800D01*
G02Y2454300I-3938J-3200D01*
G03Y2410700I26384J-21800D01*
G02Y2404300I-3938J-3200D01*
G03Y2360700I26384J-21800D01*
G02Y2354300I-3938J-3200D01*
G03X3479000Y2298300I26400J-21777D01*
G01X3579000D01*
X3759200Y2118100D01*
Y2031600D01*
X3784800D01*
Y1697200D01*
X3912200Y1569800D01*
Y1490200D01*
X4049200D01*
Y1515900D01*
X4094300D01*
X4294800Y1315400D01*
Y724600D01*
X4115400Y545200D01*
X3658500D01*
G37*
G36*
G01X2832900Y2783500D02*
G02X2825700Y2800900I25J10200D01*
G01X2834500Y2809700D01*
Y2928400D01*
X2836800Y2930700D01*
X2912500D01*
X2970200Y2988400D01*
Y3084100D01*
X2998500Y3112400D01*
G02X3015900Y3105200I7200J-7225D01*
G01Y2828600D01*
X2970800Y2783500D01*
X2832900D01*
G37*
G36*
G01X2651200Y2900200D02*
X2649800Y2902800D01*
G03X2583200Y2937900I-59824J-32777D01*
G02X2575000Y2955200I-969J10134D01*
G01X2625200Y3005400D01*
Y3011600D01*
X2650800D01*
Y3126100D01*
X2838800D01*
X2959800Y3247100D01*
G02X2975300Y3245800I7199J-7218D01*
G03X3002900Y3220000I76608J54290D01*
G02X3004800Y3204100I-5343J-8702D01*
G01X2909800Y3109100D01*
Y3013400D01*
X2887500Y2991100D01*
X2811800D01*
X2774100Y2953400D01*
Y2938400D01*
X2667000D01*
Y2900200D01*
X2651200D01*
G37*
G36*
G01X2923000Y2710200D02*
Y2723100D01*
X2995800D01*
X3076300Y2803600D01*
Y2858000D01*
X3188400D01*
G02X3205300Y2862000I9677J-3183D01*
G01X3252200Y2815100D01*
G02X3245000Y2797700I-7225J-7200D01*
G01X3190800D01*
Y2710200D01*
X2923000D01*
G37*
G36*
G01X2490200Y2470200D02*
Y2609800D01*
X2562500D01*
X2641700Y2689000D01*
G02X2659200Y2681800I7283J-7165D01*
G01Y2676200D01*
X2529800Y2546800D01*
Y2502100D01*
X2497900Y2470200D01*
X2490200D01*
G37*
G36*
G01X2349800Y2217900D02*
G02X2332400Y2210700I-10200J25D01*
G01X2279900Y2263200D01*
X2282800Y2266800D01*
G03X2253500Y2374000I-52793J43175D01*
G01X2250200Y2375200D01*
Y2447500D01*
X2262500Y2459800D01*
X2349800D01*
Y2217900D01*
G37*
G36*
G01X2908700Y3281400D02*
G02X2891300Y3289700I-7249J7192D01*
G03X2872500Y3357100I-93311J10295D01*
G02X2880600Y3373500I8119J6190D01*
G01X2969400D01*
G02X2977500Y3357100I-19J-10210D01*
G03X2964300Y3333500I74482J-57151D01*
G01X2963000Y3330200D01*
X2957500D01*
X2908700Y3281400D01*
G37*
G36*
G01X2626600Y3226500D02*
G02X2618500Y3242900I19J10210D01*
G03X2637900Y3298500I-74479J57172D01*
G02X2652200Y3307700I10186J-119D01*
G03X2692300Y3302900I27794J62294D01*
G02X2704300Y3293600I1839J-10018D01*
G03X2712300Y3261600I93690J6422D01*
G01X2713700Y3258400D01*
X2681800Y3226500D01*
X2626600D01*
G37*
G36*
G01X3522700Y347100D02*
X3303700Y566100D01*
G02X3310900Y583500I7209J7207D01*
G01X3352600D01*
X3564800Y371300D01*
G02X3557600Y353900I-7225J-7200D01*
G03X3525800Y348200I420J-93897D01*
G01X3522700Y347100D01*
G37*
G36*
G01X3127500Y110200D02*
G02X3120300Y127600I25J10200D01*
G01X3183900Y191200D01*
Y301700D01*
G02X3201300Y308900I10193J-9D01*
G01X3216400Y293900D01*
X3215300Y290800D01*
G03X3267700Y346600I88705J-30796D01*
G01X3264500Y345300D01*
X3103700Y506100D01*
G02X3110900Y523500I7209J7207D01*
G01X3246700D01*
X3472100Y298100D01*
X3470900Y295000D01*
G03X3557600Y166100I87118J-35011D01*
G02X3564800Y148700I-25J-10200D01*
G01X3526300Y110200D01*
X3127500D01*
G37*
G36*
G01X3464400Y1304200D02*
X3458200Y1306800D01*
Y1310100D01*
X3310600D01*
X3279600Y1341100D01*
Y1428700D01*
X3350200Y1499300D01*
Y1757000D01*
G02X3358900Y1760600I5101J-15D01*
G01X3361600Y1757900D01*
Y1671400D01*
X3498900D01*
X3534800Y1635400D01*
Y1374600D01*
X3464400Y1304200D01*
G37*
G36*
G01X3594500Y1310100D02*
G02X3587300Y1327500I9J10193D01*
G01X3605200Y1345400D01*
Y1664600D01*
X3502400Y1767400D01*
X3498400D01*
Y1793000D01*
X3411900D01*
X3400200Y1804700D01*
Y1912500D01*
G02X3417600Y1919700I10200J-25D01*
G01X3762000Y1575300D01*
Y1478400D01*
X3731400D01*
Y1356100D01*
X3685400Y1310100D01*
X3594500D01*
G37*
G36*
G01X3698200Y1121600D02*
Y1237400D01*
X3802300Y1341600D01*
X3853000D01*
Y1379800D01*
X3912200D01*
Y1348000D01*
X3950500D01*
Y1121600D01*
X3698200D01*
G37*
G36*
G01X3055700D02*
Y1348000D01*
X3099200D01*
Y1378700D01*
X3158000D01*
Y1342200D01*
X3193100D01*
X3297800Y1237400D01*
Y1121600D01*
X3055700D01*
G37*
G36*
G01X3685200Y2462700D02*
Y2566700D01*
X3655200D01*
Y2764600D01*
X3579100Y2840600D01*
G02X3586400Y2858000I7225J7200D01*
G01X3587900D01*
G02X3605300Y2865000I10199J-226D01*
G01X3759200Y2711100D01*
Y2631600D01*
X3838700D01*
X3855500Y2614700D01*
Y2568400D01*
X3759200D01*
Y2481900D01*
X3740000Y2462700D01*
X3685200D01*
G37*
G36*
G01X3794300Y2168400D02*
X3681800Y2280900D01*
G02X3685200Y2297600I7219J7226D01*
G01Y2352300D01*
X3725000D01*
X3759200Y2318100D01*
Y2231600D01*
X3855500D01*
Y2185300D01*
X3838700Y2168400D01*
X3794300D01*
G37*
G36*
G01X3388600Y3226500D02*
G02X3380500Y3242900I19J10210D01*
G03X3246500Y3372700I-74519J57138D01*
G01X3243000Y3369700D01*
X3216600Y3396100D01*
G02X3223800Y3413500I7225J7200D01*
G01X3353800D01*
X3466100Y3301200D01*
Y3299100D01*
G03X3485500Y3242900I93885J960D01*
G02X3477400Y3226500I-8119J-6190D01*
G01X3388600D01*
G37*
G36*
G01X3134600D02*
G02X3126500Y3242900I19J10210D01*
G03Y3357100I-74515J57100D01*
G02X3134600Y3373500I8119J6190D01*
G01X3153800D01*
X3213100Y3314200D01*
X3212800Y3311700D01*
G03X3231500Y3242900I93178J-11615D01*
G02X3223400Y3226500I-8119J-6190D01*
G01X3134600D01*
G37*
G36*
G01X3794300Y2368400D02*
X3762700Y2400000D01*
X3794300Y2431600D01*
X3855500D01*
Y2368400D01*
X3794300D01*
G37*
%LPC*%
G75*
G36*
G01X4943000Y2341600D02*
X4821400D01*
Y2478400D01*
X4847000D01*
Y2567600D01*
X4806800D01*
Y2689200D01*
X4943600D01*
Y2567600D01*
X4917400D01*
Y2478400D01*
X4943000D01*
Y2445200D01*
X5011600D01*
Y2480800D01*
X5148400D01*
Y2359200D01*
X5011600D01*
Y2374800D01*
X4943000D01*
Y2341600D01*
G37*
G36*
G01X4948400Y2121400D02*
X4811600D01*
Y2243000D01*
X4948400D01*
Y2217400D01*
X4969800D01*
X5011600Y2259100D01*
Y2338600D01*
X5148400D01*
Y2313000D01*
X5166800D01*
X5198000Y2281700D01*
G03X5206800Y2285300I3665J3596D01*
G01Y2289200D01*
X5233700D01*
Y2342200D01*
X5208000D01*
Y2479200D01*
X5329800D01*
Y2342200D01*
X5304100D01*
Y2289200D01*
X5343600D01*
Y2167600D01*
X5206800D01*
Y2199500D01*
X5180700D01*
X5157200Y2223100D01*
G03X5148500Y2219500I-3599J-3616D01*
G01X5148400Y2217000D01*
X5068900D01*
X4999000Y2147000D01*
X4948400D01*
Y2121400D01*
G37*
G36*
G01X4758200Y2110000D02*
X4636600D01*
Y2246800D01*
X4704800D01*
Y2341600D01*
X4679200D01*
Y2478400D01*
X4704800D01*
Y2571600D01*
X4631400D01*
Y2708400D01*
X4753000D01*
Y2628900D01*
X4775200Y2606800D01*
Y2478400D01*
X4800800D01*
Y2341600D01*
X4775200D01*
Y2206400D01*
X4758200Y2189500D01*
Y2110000D01*
G37*
G36*
G01X4930800Y1781600D02*
X4809200D01*
Y1918400D01*
X4844800D01*
Y1979200D01*
X4811600D01*
Y2100800D01*
X4948400D01*
Y1979200D01*
X4915200D01*
Y1918400D01*
X4930800D01*
Y1781600D01*
G37*
G36*
G01X5715500Y1813800D02*
G02Y1736200I129504J-38800D01*
G01X5714400Y1739800D01*
X5571800D01*
X5286300Y2025400D01*
X5237300D01*
X5073000Y1861100D01*
Y1781600D01*
X4951400D01*
Y1918400D01*
X5030900D01*
X5206800Y2094300D01*
Y2147000D01*
X5343600D01*
Y2067500D01*
X5601000Y1810200D01*
X5714400D01*
X5715500Y1813800D01*
G37*
%LPD*%
G75*
G54D10*
X256000Y260000D03*
X510000D03*
X764000D03*
X512000Y3300000D03*
X766000D03*
X258000D03*
X1272000Y260000D03*
X1526000D03*
X1018000D03*
X1528000Y3300000D03*
X1020000D03*
X1274000D03*
X2034000Y260000D03*
X1780000D03*
X2288000D03*
X1782000Y3300000D03*
X2036000D03*
X2290000D03*
X2796000Y260000D03*
X2542000D03*
X3050000D03*
X3052000Y3300000D03*
X2798000D03*
X2544000D03*
X3812000Y260000D03*
X3558000D03*
X3304000D03*
X3306000Y3300000D03*
X3560000D03*
X3814000D03*
X4068000D03*
G54D20*
X2753400Y1390000D03*
X2540000D03*
G54D11*
X870000Y1150000D03*
X1820000D03*
X3025500Y1001500D03*
X3975500D03*
G54D30*
G01X1030000Y490000D02*
X822200D01*
X505000Y807200D01*
Y2355000D01*
X610000Y2460000D01*
X1190000D01*
X1351200Y2298800D01*
Y2249400D01*
G01X1600000Y490000D02*
X1330000D01*
G01X1351200Y2049300D02*
X1679300D01*
X1720000Y2090000D01*
G01X1351200Y2049300D02*
Y2249400D01*
G01X1360000Y1607800D02*
Y1460000D01*
G01X1130000Y1607800D02*
Y1460000D01*
G01X1209000Y2049300D02*
X1080700D01*
G01X1497800Y1460000D02*
X1360000D01*
G01X1351200Y2249400D02*
X1360600Y2240000D01*
G01X1390000Y2930000D02*
X1710000D01*
X1720000Y2940000D01*
G01X1209000Y2249400D02*
X1208900Y2249300D01*
G01D02*
X1080700D01*
G01X2080000Y489500D02*
X1864900D01*
X1864400Y490000D01*
X1600000D01*
G01Y740000D02*
Y490000D01*
G01X1547800Y1510000D02*
X1497800Y1460000D01*
G01X1830000Y2240000D02*
X1900000Y2310000D01*
Y2540000D01*
G01D02*
Y2560000D01*
X2130000Y2790000D01*
G01X1900000Y2540000D02*
X1820000D01*
X1720000Y2640000D01*
G01X2560000Y760000D02*
Y620000D01*
X2550000Y610000D01*
G01D02*
X2661300Y498700D01*
X3061300D01*
X3281000Y279000D01*
X3285000D01*
X3304000Y260000D01*
G01X3558000D02*
Y262000D01*
X3261300Y558700D01*
X2963500D01*
X2560000Y962200D01*
Y1059700D01*
G01Y1520000D02*
X2540000Y1500000D01*
Y1390000D01*
G01X2560000Y1059700D02*
X2540000Y1079700D01*
Y1390000D01*
G01X2560000Y1520000D02*
Y1630000D01*
G01Y1520000D02*
X2640000D01*
G01X2850000Y1890000D02*
Y2032200D01*
X2832200Y2050000D01*
G01X2640000Y1520000D02*
X2723600D01*
X2807000Y1603400D01*
X2976600D01*
X3028900Y1551100D01*
X3030700D01*
G01X2590000Y3080000D02*
Y3020000D01*
X2420000Y2850000D01*
Y2790000D01*
G01X3430000Y1732200D02*
X3487800D01*
X3570000Y1650000D01*
Y1360000D01*
X3500000Y1290000D01*
Y610000D01*
X3600000Y510000D01*
G01D02*
X4130000D01*
X4330000Y710000D01*
Y1330000D01*
X4108900Y1551100D01*
X3980700D01*
G01X3519400Y2918900D02*
X3448300Y2990000D01*
X3190500D01*
X3119400Y2918900D01*
G01X3820000Y2700000D02*
X3601100Y2918900D01*
X3519400D01*
G01X3515000Y2532500D02*
X3580000D01*
X3620000Y2572500D01*
Y2750000D01*
X3519400Y2850600D01*
Y2918900D01*
G01X3515000Y2482500D02*
Y2532500D01*
G01X3980700Y1551100D02*
X3820000Y1711800D01*
Y2100000D01*
G01Y2700000D02*
X3890700Y2629300D01*
Y2170700D01*
X3820000Y2100000D01*
G01X4365200Y1978400D02*
X4370700Y1983900D01*
Y2169000D01*
G01X4555200Y2178400D02*
X4503500D01*
X4370700Y2311200D01*
G01X4160000Y2470000D02*
X4130000Y2500000D01*
X3962200D01*
G01X4160000Y2470000D02*
X4336800D01*
X4365200Y2498400D01*
G01D02*
X4506800Y2640000D01*
X4550000D01*
G01X4370700Y2311200D02*
X4354100Y2327800D01*
X4160000D01*
G01D02*
X4132200Y2300000D01*
X3962200D01*
G01X4697400Y2178400D02*
X4740000Y2221000D01*
Y2410000D01*
G01X4880000Y2182200D02*
X4984400D01*
X5080000Y2277800D01*
G01X5012200Y1850000D02*
X5248400Y2086200D01*
X5275200D01*
G01X4880000Y2040000D02*
Y1860000D01*
X4870000Y1850000D01*
G01X4740000Y2410000D02*
Y2592200D01*
X4692200Y2640000D01*
G01X5268900Y2234700D02*
X5195300D01*
X5152200Y2277800D01*
X5080000D01*
G01X4875200Y2628400D02*
X4882200Y2621400D01*
Y2410000D01*
G01D02*
X5070000D01*
X5080000Y2420000D01*
G01X5275200Y2086200D02*
X5586400Y1775000D01*
X5845000D01*
G01X5268900Y2234700D02*
X5275200Y2228400D01*
G01X5268900Y2234700D02*
Y2410700D01*
G54D21*
X2560000Y1059700D03*
Y760000D03*
G54D12*
X740000Y1530000D03*
X1030000Y490000D03*
X1330000D03*
X1360000Y1460000D03*
X1130000D03*
X880000Y1530000D03*
X810000Y2010000D03*
X1080700Y2249300D03*
Y2049300D03*
X1130000Y2930000D03*
X2080000Y489500D03*
X2012200Y1362200D03*
X2230000Y2310000D03*
X2110000Y2650000D03*
X1767500Y2372500D03*
X2030000Y2330000D03*
X1820000Y2750000D03*
X2550000Y610000D03*
X2700000Y1260000D03*
X2850000Y1890000D03*
X2640000Y1520000D03*
X2410000Y2100000D03*
X2860000Y1520000D03*
Y1740000D03*
X2568100Y1970000D03*
X2590000Y2870000D03*
X2260000Y2630000D03*
X2970000Y2870000D03*
X2380000Y3000000D03*
X2680000Y3370000D03*
X2860000Y3080000D03*
X2420000Y3370000D03*
X3600000Y510000D03*
X3200000Y800000D03*
X3480000Y1410000D03*
X3770000Y800000D03*
X3650000Y1580000D03*
X3180000Y1830000D03*
X3530000Y2640000D03*
X3220000Y3080000D03*
X3620000Y3061100D03*
X4507400Y1832600D03*
X4110000Y2100000D03*
X4365200Y2765200D03*
X4110000Y2700000D03*
X4875200Y2895200D03*
X5411100Y2568900D03*
G54D31*
G01X1247800Y2930000D02*
X1130000D01*
G01X2012200Y1510000D02*
Y1362200D01*
G01X2070000Y2290000D02*
X2030000Y2330000D01*
G01X2753400Y1390000D02*
Y1313400D01*
G01D02*
X2700000Y1260000D01*
G01X2568100Y1971900D02*
Y1970000D01*
G01X2690000Y2050000D02*
X2680000D01*
G01X2600000Y1970000D02*
X2568100D01*
G01X2680000Y2050000D02*
X2600000Y1970000D01*
G01X2870000Y2870000D02*
X2970000D01*
G01X2860000Y3080000D02*
X2732200D01*
G01X3200000Y800000D02*
X3378000D01*
G01X3618000D02*
X3770000D01*
G01X3650000Y1410000D02*
Y1580000D01*
G01X3480000Y1410000D02*
X3361600D01*
G01X3480000Y1430000D02*
Y1410000D01*
G01X3430000Y1480000D02*
X3480000Y1430000D01*
G01X3361600Y1410000D02*
X3361000Y1410600D01*
G01X3430000Y1590000D02*
Y1480000D01*
G01X3180000Y1830000D02*
X3036000D01*
G01X3119400Y3061100D02*
X3201100D01*
G01X3519400D02*
X3620000D01*
G01X3220000Y3080000D02*
X3238900Y3061100D01*
G01X3201100D02*
X3220000Y3080000D01*
G01X3238900Y3061100D02*
X3320600D01*
G01X4110000Y2100000D02*
X3962200D01*
G01X4110000Y2700000D02*
X3962200D01*
G01X4365200Y2640600D02*
Y2765200D01*
G01X4507400Y1978400D02*
Y1832600D01*
G01X4875200Y2770600D02*
Y2895200D01*
G01X5411100Y2410700D02*
Y2568900D01*
G54D22*
X3618000Y1200000D03*
Y800000D03*
X3378000D03*
Y1200000D03*
G54D13*
X1300300Y740000D03*
X1600000D03*
G54D23*
X3220000Y2187500D03*
X3270000D03*
X3320000D03*
X3370000D03*
X3420000D03*
G54D14*
X810000Y2010000D03*
G54D15*
X1360000Y1607800D03*
Y1750000D03*
X1130000Y1607800D03*
Y1750000D03*
X2000000Y657800D03*
X1810000D03*
X2000000Y800000D03*
X1810000D03*
X1940000Y1842200D03*
Y1700000D03*
X3030700Y1408900D03*
Y1551100D03*
X3036000Y1972200D03*
Y1830000D03*
X3430000Y1732200D03*
Y1590000D03*
X3320600Y2918900D03*
X3119400D03*
X3519400D03*
X3320600Y3061100D03*
X3119400D03*
X3519400D03*
X3980700Y1408900D03*
X4370700Y2169000D03*
X3980700Y1551100D03*
X4370700Y2311200D03*
X4160000Y2327800D03*
Y2470000D03*
X4365200Y2640600D03*
Y2498400D03*
X4880000Y2182200D03*
Y2040000D03*
X5275200Y2086200D03*
Y2228400D03*
X5080000Y2277800D03*
Y2420000D03*
X4875200Y2770600D03*
Y2628400D03*
G54D24*
X3075000Y2532500D03*
Y2482500D03*
Y2432500D03*
Y2382500D03*
Y2332500D03*
G54D16*
X1209000Y2049300D03*
X1351200D03*
X1247800Y2930000D03*
X1390000D03*
X1209000Y2249400D03*
X1351200D03*
X1722200Y1740000D03*
X1580000D03*
X2012200Y1510000D03*
X1870000D03*
X1547800D03*
X1690000D03*
X2702200Y1630000D03*
X2560000D03*
X2702200Y1840000D03*
X2560000D03*
X2832200Y2050000D03*
X2690000D03*
X2792200Y2260000D03*
X2650000D03*
X2727800Y2870000D03*
X2870000D03*
X2782200Y2490000D03*
X2640000D03*
X2862200Y2680000D03*
X2720000D03*
X2732200Y3080000D03*
X2590000D03*
X3650000Y1410000D03*
X3361000Y1410600D03*
X3218800D03*
X3792200Y1410000D03*
X4507400Y1978400D03*
X4365200D03*
X3962200Y2100000D03*
X3820000D03*
X3962200Y2500000D03*
X3820000D03*
X3962200Y2300000D03*
X3820000D03*
X3962200Y2700000D03*
X3820000D03*
X5012200Y1850000D03*
X4870000D03*
X4697400Y2178400D03*
X4555200D03*
X4692200Y2640000D03*
X4550000D03*
X4882200Y2410000D03*
X4740000D03*
X5268900Y2410700D03*
X5411100D03*
G54D25*
X3565000Y2332500D03*
Y2382500D03*
Y2432500D03*
Y2482500D03*
Y2532500D03*
G54D17*
X1900000Y580000D03*
G54D26*
X3425000Y2677500D03*
X3375000D03*
X3325000D03*
X3275000D03*
X3225000D03*
G54D27*
X3320000Y2432500D03*
G54D18*
X1720000Y2090000D03*
X1770000D03*
X1820000D03*
X1870000D03*
X1920000D03*
X1970000D03*
X2020000D03*
X2070000D03*
X2120000D03*
X2170000D03*
X2220000D03*
Y2940000D03*
X2170000D03*
X2120000D03*
X2070000D03*
X2020000D03*
X1970000D03*
X1920000D03*
X1870000D03*
X1820000D03*
X1770000D03*
X1720000D03*
X2270000Y2090000D03*
Y2940000D03*
G54D28*
X6099000Y1521000D03*
X5593000Y1513000D03*
X5845000Y1775000D03*
X5591000Y2029000D03*
X6099000D03*
G54D19*
X1570000Y2240000D03*
Y2790000D03*
Y2740000D03*
Y2690000D03*
Y2640000D03*
Y2590000D03*
Y2540000D03*
Y2490000D03*
Y2440000D03*
Y2390000D03*
Y2340000D03*
Y2290000D03*
X2420000Y2240000D03*
Y2290000D03*
Y2340000D03*
Y2390000D03*
Y2440000D03*
Y2490000D03*
Y2540000D03*
Y2590000D03*
Y2640000D03*
Y2690000D03*
Y2740000D03*
Y2790000D03*
G54D29*
G01X1018000Y260000D02*
X1015000Y263000D01*
X971400D01*
X450000Y784400D01*
Y2377800D01*
X587200Y2515000D01*
X1212800D01*
X1387800Y2340000D01*
X1570000D01*
G01X764000Y260000D02*
Y386000D01*
X410000Y740000D01*
Y2394400D01*
X570600Y2555000D01*
X1229400D01*
X1394400Y2390000D01*
X1570000D01*
G01X510000Y260000D02*
Y360000D01*
X296000Y574000D01*
Y2356000D01*
X535000Y2595000D01*
X1246000D01*
X1351000Y2490000D01*
X1570000D01*
G01X256000Y260000D02*
Y2376000D01*
X515000Y2635000D01*
X1262600D01*
X1357600Y2540000D01*
X1570000D01*
G01X2860000Y1520000D02*
X2950000Y1430000D01*
Y1350000D01*
X2690000Y1090000D01*
Y910000D01*
X2986300Y613700D01*
X3365100D01*
X3671700Y307100D01*
Y212900D01*
X3538800Y80000D01*
X220000D01*
X112300Y187700D01*
Y3357500D01*
X214800Y3460000D01*
X1590000D01*
X1678300Y3371700D01*
Y3257100D01*
X1739100Y3196300D01*
X1823700D01*
X1920000Y3100000D01*
Y2940000D01*
G01X3125000Y2432500D02*
X2922500D01*
X2860000Y2370000D01*
Y2202100D01*
X2760000Y2102100D01*
Y1995700D01*
X2724300Y1960000D01*
X2697900D01*
X2630000Y1892100D01*
Y1765700D01*
X2574300Y1710000D01*
X2510000D01*
X2440000Y1640000D01*
Y560000D01*
X2556300Y443700D01*
X3013000D01*
X3153700Y303000D01*
Y203700D01*
X3070000Y120000D01*
X249400D01*
X152300Y217100D01*
Y3093700D01*
X154300Y3095700D01*
Y3342900D01*
X231400Y3420000D01*
X1570000D01*
X1638300Y3351700D01*
Y3240500D01*
X1722500Y3156300D01*
X1807100D01*
X1870000Y3093400D01*
Y2940000D01*
G01X1272000Y260000D02*
Y351500D01*
X1043500Y580000D01*
X810000D01*
X560000Y830000D01*
Y2310000D01*
X655000Y2405000D01*
X900400D01*
X980000Y2325400D01*
Y2040000D01*
X1110000Y1910000D01*
X1710000D01*
X1770000Y1970000D01*
Y2090000D01*
G01X258000Y3300000D02*
X448300Y3109700D01*
Y2811700D01*
X585000Y2675000D01*
X1279200D01*
X1364200Y2590000D01*
X1570000D01*
G01X512000Y3300000D02*
Y2823000D01*
X620000Y2715000D01*
X1295800D01*
X1370800Y2640000D01*
X1570000D01*
G01X1526000Y260000D02*
X1420100D01*
X1080000Y600100D01*
Y790000D01*
X1200000Y910000D01*
X2050000D01*
X2120000Y980000D01*
Y1810000D01*
X2020000Y1910000D01*
Y2090000D01*
G01X1810000Y800000D02*
X1740000Y870000D01*
X1340000D01*
X1300300Y830300D01*
Y740000D01*
G01X1690000Y1510000D02*
Y1410000D01*
X1610000Y1330000D01*
X980000D01*
X870000Y1220000D01*
Y1150000D01*
G01X1360000Y1750000D02*
X1286700Y1676700D01*
Y1486700D01*
X1170000Y1370000D01*
X980000D01*
X880000Y1470000D01*
Y1530000D01*
G01X1820000Y2090000D02*
Y1959700D01*
X1730300Y1870000D01*
X1250000D01*
X1130000Y1750000D01*
G01D02*
X1020000Y1640000D01*
X850000D01*
X740000Y1530000D01*
G01X1580000Y1740000D02*
X1570000Y1750000D01*
X1360000D01*
G01X1360600Y2240000D02*
X1570000D01*
G01X766000Y3300000D02*
Y2866000D01*
X877000Y2755000D01*
X1312400D01*
X1377400Y2690000D01*
X1570000D01*
G01X1020000Y3300000D02*
Y2920000D01*
X1130000Y2810000D01*
X1314000D01*
X1384000Y2740000D01*
X1570000D01*
G01X1274000Y3300000D02*
X1319100Y3254900D01*
X1320000Y3250700D01*
Y2875700D01*
X1405700Y2790000D01*
X1570000D01*
G01X1780000Y260000D02*
Y340000D01*
X1820000Y380000D01*
X2090000D01*
X2200000Y490000D01*
Y1846500D01*
X2170000Y1876500D01*
Y2090000D01*
G01X2034000Y260000D02*
Y264000D01*
X2240000Y470000D01*
Y1863200D01*
X2220000Y1883200D01*
Y2090000D01*
G01X2000000Y657800D02*
Y650000D01*
G01X1900000Y580000D02*
X1890000D01*
G01X1930000D02*
X1900000D01*
G01X2000000Y650000D02*
X1930000Y580000D01*
G01X1812200Y657800D02*
X1810000D01*
G01X1890000Y580000D02*
X1812200Y657800D01*
G01X2000000Y800000D02*
X1810000D01*
G01X2000000D02*
X2050000D01*
X2160000Y910000D01*
Y1826600D01*
X2120000Y1866600D01*
Y2090000D01*
G01X1870000Y1510000D02*
Y1200000D01*
X1820000Y1150000D01*
G01X2070000Y2090000D02*
Y2290000D01*
G01X1920000Y2090000D02*
Y1946500D01*
X1820000Y1846500D01*
Y1711300D01*
X1690000Y1581300D01*
Y1510000D01*
G01X1940000Y1700000D02*
X1870000Y1630000D01*
Y1510000D01*
G01X1940000Y1842200D02*
X1970000Y1872200D01*
Y2090000D01*
G01X1722200Y1740000D02*
Y1805300D01*
X1870000Y1953100D01*
Y2090000D01*
G01X2544000Y3300000D02*
X2480300Y3236300D01*
X2372900D01*
X2332900Y3196300D01*
X2210000D01*
X2120000Y3106300D01*
Y2940000D01*
G01X1570000Y2240000D02*
X1830000D01*
G01X2130000Y2790000D02*
X2420000D01*
G01X1720000Y2640000D02*
Y2940000D01*
G01X2542000Y260000D02*
X2533400D01*
X2320000Y473400D01*
Y2180400D01*
X2270400Y2230000D01*
X2200000D01*
X2130000Y2300000D01*
Y2490000D01*
X2180000Y2540000D01*
X2420000D01*
G01X1528000Y3300000D02*
Y3292000D01*
X1703700Y3116300D01*
X1790000D01*
X1820000Y3086300D01*
Y2940000D01*
G01X2290000Y3300000D02*
X2220000D01*
X2070000Y3150000D01*
Y2940000D01*
G01X2036000Y3300000D02*
X2020000Y3284000D01*
Y2940000D01*
G01X1782000Y3300000D02*
X1970000Y3112000D01*
Y2940000D01*
G01X1770000D02*
Y2800000D01*
G01X1570000Y2440000D02*
X1700000D01*
G01X1570000Y2290000D02*
X1685000D01*
G01X2420000Y2740000D02*
X2200000D01*
G01X1770000Y2800000D02*
X1820000Y2750000D01*
G01X1700000Y2440000D02*
X1767500Y2372500D01*
G01X1685000Y2290000D02*
X1767500Y2372500D01*
G01X2200000Y2740000D02*
X2110000Y2650000D01*
G01X2798000Y3300000D02*
X2694300Y3196300D01*
X2389500D01*
X2349500Y3156300D01*
X2236300D01*
X2170000Y3090000D01*
Y2940000D01*
G01X2410000Y2100000D02*
Y2080000D01*
X2360000Y2030000D01*
Y490000D01*
X2486300Y363700D01*
X2696300D01*
X2796000Y264000D01*
Y260000D01*
G01X2288000D02*
X2280000Y268000D01*
Y1879700D01*
X2270000Y1889700D01*
Y2090000D01*
G01X3050000Y260000D02*
X2906300Y403700D01*
X2526300D01*
X2400000Y530000D01*
Y1970000D01*
X2500000Y2070000D01*
Y2160000D01*
X2420000Y2240000D01*
G01X2702200Y1840000D02*
Y1630000D01*
G01X3270000Y2237500D02*
Y1750000D01*
X3178400Y1658400D01*
X2731800D01*
X2703400Y1630000D01*
X2702200D01*
G01X3125000Y2382500D02*
X2952500D01*
X2910000Y2340000D01*
Y2127800D01*
X2832200Y2050000D01*
G01X2860000Y1740000D02*
Y1780000D01*
X2986500Y1906500D01*
X3098600D01*
X3220000Y2027900D01*
Y2237500D01*
G01X2640000Y2490000D02*
X2715700Y2414300D01*
Y2201400D01*
X2696600Y2182300D01*
X2603400D01*
X2580000Y2205700D01*
Y2300000D01*
X2540000Y2340000D01*
X2420000D01*
G01X2560000Y1840000D02*
X2500000D01*
X2470000Y1870000D01*
Y1980000D01*
X2540000Y2050000D01*
Y2270000D01*
X2520000Y2290000D01*
X2420000D01*
G01X3125000Y2532500D02*
X2852500D01*
X2810000Y2490000D01*
X2782200D01*
G01X2650000Y2260000D02*
Y2330000D01*
X2590000Y2390000D01*
X2420000D01*
G01X3225000Y2627500D02*
X3172500Y2680000D01*
X2862200D01*
G01X2727800Y2870000D02*
X2590000D01*
G01X2260000Y2630000D02*
X2300000Y2590000D01*
X2420000D01*
G01X3814000Y3300000D02*
X3790000D01*
X3686300Y3196300D01*
X3039700D01*
X2940000Y3096600D01*
Y3000900D01*
X2900000Y2960900D01*
X2824300D01*
X2804300Y2940900D01*
Y2822200D01*
X2778800Y2796700D01*
X2641700D01*
X2535000Y2690000D01*
X2420000D01*
G01X4068000Y3300000D02*
X3960600D01*
X3816900Y3156300D01*
X3090300D01*
X3046100Y3112100D01*
Y2816100D01*
X2983300Y2753300D01*
X2663300D01*
X2550000Y2640000D01*
X2420000D01*
G01X2230000Y2310000D02*
X2220000Y2320000D01*
Y2460000D01*
X2250000Y2490000D01*
X2420000D01*
G01X3125000Y2482500D02*
X2899000D01*
X2792200Y2375700D01*
Y2260000D01*
G01X2720000Y2680000D02*
X2705600D01*
X2560000Y2534300D01*
Y2489600D01*
X2510400Y2440000D01*
X2420000D01*
G01X3052000Y3300000D02*
X2970000D01*
X2826300Y3156300D01*
X2406100D01*
X2366100Y3116300D01*
X2252900D01*
X2220000Y3083400D01*
Y2940000D01*
G01X2380000Y3000000D02*
X2340000D01*
X2280000Y2940000D01*
X2270000D01*
G01X2680000Y3370000D02*
X2690000D01*
X2723700Y3403700D01*
X3166300D01*
X3270000Y3300000D01*
X3306000D01*
G01X2420000Y3370000D02*
X2493700Y3443700D01*
X3366300D01*
X3510000Y3300000D01*
X3560000D01*
G01X3218800Y1410600D02*
Y1359200D01*
X3378000Y1200000D01*
G01X3030700Y1408900D02*
X3025500Y1403700D01*
Y1001500D01*
G01X3030700Y1408900D02*
X3217100D01*
X3218800Y1410600D01*
G01X3320000Y2237500D02*
Y1511800D01*
X3218800Y1410600D01*
G01X3792200Y1410000D02*
Y1374200D01*
X3618000Y1200000D01*
G01X3125000Y2332500D02*
X3072500D01*
X3040000Y2300000D01*
X3036000Y1972200D01*
G01X3370000Y2237500D02*
Y1792200D01*
X3430000Y1732200D01*
G01X3515000Y2332500D02*
X3587500D01*
X3820000Y2100000D01*
G01X3420000Y2237500D02*
Y1960000D01*
X3792200Y1587800D01*
Y1410000D01*
G01X3325000Y2627500D02*
Y2785000D01*
X3191100Y2918900D01*
X3119400D01*
G01X3375000Y2627500D02*
Y2835800D01*
X3320600Y2890200D01*
Y2918900D01*
G01X3425000Y2627500D02*
Y2537500D01*
G01Y2627500D02*
X3437500Y2640000D01*
G01X3275000Y2627500D02*
Y2477500D01*
G01X3425000Y2537500D02*
X3320000Y2432500D01*
G01X3437500Y2640000D02*
X3530000D01*
G01X3275000Y2477500D02*
X3320000Y2432500D01*
G01X3515000D02*
X3752500D01*
X3820000Y2500000D01*
G01X3515000Y2382500D02*
X3737500D01*
X3820000Y2300000D01*
G01X3975500Y1001500D02*
X3980700Y1006700D01*
Y1408900D01*
G01D02*
X3979600Y1410000D01*
X3792200D01*
M02*
