G04 ================== begin FILE IDENTIFICATION RECORD ==================*
G04 Layout Name:  c:/src/bsm-2/schematics/bsm-radio.brd*
G04 Film Name:    TOP*
G04 File Format:  Gerber RS274X*
G04 File Origin:  16.0-s004*
G04 Origin Date:  Tue Jan 24 15:01:35 2012*
G04 *
G04 Layer:  ETCH/TOP*
G04 Layer:  PIN/TOP*
G04 Layer:  VIA CLASS/TOP*
G04 *
G04 Offset:    (0.000 0.000)*
G04 Mirror:    No*
G04 Mode:      Positive*
G04 Rotation:  0*
G04 FullContactRelief:  No*
G04 UndefLineWidth:     0.000*
G04 ================== end FILE IDENTIFICATION RECORD ====================*
%FSLAX55Y55*MOIN*%
%IR0*IPPOS*OFA0.00000B0.00000*MIA0B0*SFA1.00000B1.00000*%
%ADD12R,.216496X.078701*%
%ADD31C,.090551*%
%ADD14C,.23622*%
%AMMACRO29*
4,1,21,-.005512,.03937,
.005512,.03937,
.005512,-.033858,
.005428,-.034815,
.005179,-.035743,
.004773,-.036614,
.004222,-.037401,
.003543,-.038081,
.002756,-.038632,
.001885,-.039038,
.000957,-.039286,
0.0,-.03937,
-.000957,-.039286,
-.001885,-.039038,
-.002756,-.038632,
-.003543,-.038081,
-.004222,-.037401,
-.004773,-.036614,
-.005179,-.035743,
-.005428,-.034815,
-.005512,-.033858,
-.005512,.03937,
0.0*
%
%ADD29MACRO29*%
%AMMACRO28*
4,1,21,.03937,.005512,
.03937,-.005512,
-.033858,-.005512,
-.034815,-.005428,
-.035743,-.005179,
-.036614,-.004773,
-.037401,-.004222,
-.038081,-.003543,
-.038632,-.002756,
-.039038,-.001885,
-.039286,-.000957,
-.03937,0.0,
-.039286,.000957,
-.039038,.001885,
-.038632,.002756,
-.038081,.003543,
-.037401,.004222,
-.036614,.004773,
-.035743,.005179,
-.034815,.005428,
-.033858,.005512,
.03937,.005512,
0.0*
%
%ADD28MACRO28*%
%ADD30R,.094488X.094488*%
%ADD10C,.057992*%
%ADD23R,.05X.05*%
%ADD20O,.010984X.07*%
%ADD21O,.07X.010984*%
%ADD19R,.010984X.07*%
%ADD22R,.07X.010984*%
%ADD18R,.098425X.244094*%
%AMMACRO26*
4,1,21,.005512,-.03937,
-.005512,-.03937,
-.005512,.033858,
-.005428,.034815,
-.005179,.035743,
-.004773,.036614,
-.004222,.037401,
-.003543,.038081,
-.002756,.038632,
-.001885,.039038,
-.000957,.039286,
0.0,.03937,
.000957,.039286,
.001885,.039038,
.002756,.038632,
.003543,.038081,
.004222,.037401,
.004773,.036614,
.005179,.035743,
.005428,.034815,
.005512,.033858,
.005512,-.03937,
0.0*
%
%ADD26MACRO26*%
%AMMACRO27*
4,1,21,-.03937,-.005512,
-.03937,.005512,
.033858,.005512,
.034815,.005428,
.035743,.005179,
.036614,.004773,
.037401,.004222,
.038081,.003543,
.038632,.002756,
.039038,.001885,
.039286,.000957,
.03937,0.0,
.039286,-.000957,
.039038,-.001885,
.038632,-.002756,
.038081,-.003543,
.037401,-.004222,
.036614,-.004773,
.035743,-.005179,
.034815,-.005428,
.033858,-.005512,
-.03937,-.005512,
0.0*
%
%ADD27MACRO27*%
%ADD11C,.029921*%
%ADD13C,.037795*%
%ADD15R,.047992X.074016*%
%ADD24R,.074016X.047992*%
%ADD17R,.032008X.037992*%
%ADD16R,.037992X.032008*%
%ADD25R,.047205X.070787*%
%ADD32C,.007874*%
%ADD33C,.011811*%
%ADD34C,.009843*%
G75*
%LPD*%
G75*
G36*
G01X10311Y5913D02*
X9886Y6339D01*
X10083Y6539D01*
X10165D01*
G03X11398Y13689I-87J3696D01*
G01X11268Y13740D01*
Y20335D01*
G02X11953Y20618I402J-1D01*
G01X18433Y14138D01*
G02X18339Y13500I-283J-284D01*
G03X21398Y13689I1737J-3264D01*
G01X21268Y13740D01*
Y14665D01*
X12843Y23091D01*
Y29783D01*
G02X13528Y30067I402J-1D01*
G01X28890Y14705D01*
Y13740D01*
X28760Y13689D01*
G03X31398I1319J-3453D01*
G01X31268Y13740D01*
Y14681D01*
G02X31953Y14965I402J-1D01*
G01X36394Y10524D01*
X36386Y10437D01*
G03X37587Y12965I3691J-205D01*
G01X37445Y12835D01*
X33059Y17220D01*
G02X33343Y17906I284J283D01*
G01X38724D01*
X38783Y17831D01*
G03X42748Y18646I1766J1460D01*
G02X43417Y18815I385J-114D01*
G01X48220Y14016D01*
G02X48146Y13390I-283J-284D01*
G03X53748Y9795I1932J-3152D01*
G02X54433Y10031I399J-46D01*
G01X55417Y9047D01*
X56575D01*
X56626Y8917D01*
G03X56748Y11839I3453J1319D01*
G02X56102Y11728I-362J173D01*
G01X43709Y24118D01*
Y30610D01*
X47736Y34638D01*
X50492D01*
G02X50776Y33953I-1J-402D01*
G01X50453Y33630D01*
X48000D01*
Y24638D01*
X54386D01*
Y33063D01*
X59795D01*
Y24638D01*
X61606D01*
Y20677D01*
X54189D01*
X54130Y20752D01*
G03Y17831I-1767J-1461D01*
G01X54189Y17906D01*
X72827D01*
X72846Y17886D01*
X80063D01*
X80122Y17811D01*
G03X81697Y16988I1766J1461D01*
G02X81945Y16303I-35J-400D01*
G01X81791Y16150D01*
X71161D01*
X68890Y13878D01*
Y13740D01*
X68760Y13689D01*
G03X72071Y13350I1320J-3453D01*
G01X72051Y13362D01*
X71894Y13520D01*
X72146Y13772D01*
X77437D01*
G02X77697Y13063I1J-402D01*
G03X83406Y11846I2382J-2827D01*
G01X83343Y11976D01*
X87890Y16524D01*
G02X88575Y16240I283J-284D01*
G01Y13614D01*
X88461Y13559D01*
G03X91098Y13791I1622J-3322D01*
G01X90953Y13831D01*
Y16374D01*
G02X91638Y16657I402J-1D01*
G01X96657Y11638D01*
X96610Y11520D01*
G03X103012Y12484I3467J-1284D01*
G02X103331Y13130I320J244D01*
G01X105661D01*
X106815Y11976D01*
X106752Y11846D01*
G03X108673Y13654I3326J-1611D01*
G01X108551Y13606D01*
X108134Y14020D01*
G02X108417Y14705I284J283D01*
G01X113929D01*
X116760Y11874D01*
X116705Y11748D01*
G03X120520Y6567I3374J-1511D01*
G01X120614Y6579D01*
X120827Y6366D01*
X120374Y5913D01*
X10311D01*
G37*
G36*
G01X6413Y10724D02*
G02X5732Y10492I-398J52D01*
G01X5520Y10705D01*
Y129374D01*
X5811Y129665D01*
G02X6492Y129433I283J-284D01*
G03X13177Y127787I3665J488D01*
G02X13787Y127839I327J-233D01*
G01X16976Y124650D01*
X25244D01*
X34252Y115642D01*
Y112232D01*
X43343Y103142D01*
X51350D01*
X51831Y102661D01*
G02X51547Y101976I-284J-283D01*
G01X22610D01*
X8890Y88256D01*
Y13740D01*
X8760Y13689D01*
G03X6413Y10724I1318J-3454D01*
G37*
G36*
G01X1972Y1972D02*
Y7189D01*
G02X2657Y7472I402J-1D01*
G01X7472Y2657D01*
G02X7189Y1972I-284J-283D01*
G01X1972D01*
G37*
G36*
G01X32382Y24024D02*
X23236Y33169D01*
Y40543D01*
X45874D01*
Y50008D01*
X38878D01*
G02X38594Y50693I-1J401D01*
G01X39075Y51173D01*
X63878D01*
X67724Y55020D01*
Y56756D01*
X68929D01*
Y62169D01*
G02X68791Y62831I145J375D01*
G01X72843Y66882D01*
Y72205D01*
X72996Y72358D01*
G02X73685Y72075I287J-282D01*
G01Y70134D01*
X79071D01*
Y73000D01*
G02X79760Y73283I402J1D01*
G01X82276Y70768D01*
Y50008D01*
X74811D01*
Y56756D01*
X76016D01*
Y62142D01*
X74811D01*
Y63681D01*
X75665Y64535D01*
X79071D01*
Y69323D01*
X73685D01*
Y65917D01*
X72433Y64665D01*
Y62142D01*
X71228D01*
Y56756D01*
X72433D01*
Y50008D01*
X60031D01*
Y40543D01*
X82276D01*
Y39075D01*
X80217Y37016D01*
X46752D01*
X41331Y31594D01*
Y24024D01*
X32382D01*
G37*
G36*
G01X23236Y50008D02*
Y86335D01*
X27445Y90543D01*
X36909D01*
X37394Y90059D01*
Y79823D01*
X43209Y74008D01*
X46949D01*
G02X47232Y73323I-1J-402D01*
G01X45201Y71291D01*
X41795D01*
Y67886D01*
X38484Y64575D01*
X33366D01*
X29996Y61205D01*
X29882Y61240D01*
G03X31531Y57453I-748J-2579D01*
G02X32248I358J-181D01*
G03X34768Y55980I2397J1209D01*
G01X34854Y55984D01*
X37689Y53150D01*
X34543Y50008D01*
X23236D01*
G37*
G36*
G01X17512Y33252D02*
G02X17169Y33110I-201J1D01*
G01X16937Y33343D01*
Y86161D01*
X17169Y86394D01*
G02X17512Y86252I142J-142D01*
G01Y33252D01*
G37*
G36*
G01X20858Y33248D02*
G02X20516Y33106I-201J0D01*
G01X20283Y33339D01*
Y86165D01*
X20516Y86398D01*
G02X20858Y86256I142J-142D01*
G01Y33248D01*
G37*
G36*
G01X140795Y1972D02*
G02X140512Y2657I1J402D01*
G01X145744Y7890D01*
Y12583D01*
X141217Y17110D01*
G02X141535Y17795I282J285D01*
G03X143500Y18618I198J2284D01*
G01X143559Y18693D01*
X163173D01*
X171858Y27378D01*
Y52937D01*
X162343Y62453D01*
X159417D01*
Y63465D01*
X156283D01*
X151780Y67969D01*
Y79984D01*
X152787D01*
Y83114D01*
X154563Y84886D01*
Y87858D01*
X158386D01*
Y89165D01*
X163260D01*
X163343Y89252D01*
X166472D01*
Y90260D01*
X169378D01*
Y88598D01*
X172512D01*
X172634Y88476D01*
G02X172346Y87787I-284J-286D01*
G01X169378D01*
Y83000D01*
X170689D01*
Y80583D01*
X169465D01*
Y75197D01*
X174252D01*
Y80583D01*
X173461D01*
Y83000D01*
X174772D01*
Y85366D01*
G02X175457Y85654I402J3D01*
G01X176728Y84378D01*
X176945D01*
Y83071D01*
X181732D01*
Y88457D01*
X176945D01*
Y88433D01*
X176697Y88331D01*
X174772Y90256D01*
Y93386D01*
X169378D01*
Y93031D01*
X166472D01*
Y94039D01*
X161087D01*
Y91937D01*
X158386D01*
Y93244D01*
X154563D01*
Y95732D01*
X158386D01*
Y97039D01*
X161087D01*
Y94850D01*
X166472D01*
Y95858D01*
X171315D01*
X171421Y95969D01*
X174551D01*
Y99098D01*
X176697Y101244D01*
X181528D01*
Y106630D01*
X176740D01*
Y105201D01*
X172295Y100756D01*
X169165D01*
Y98630D01*
X166472D01*
Y99638D01*
X163343D01*
X163173Y99811D01*
X158386D01*
Y101118D01*
X154563D01*
Y104091D01*
X152787Y105862D01*
Y108992D01*
X149657D01*
X142350Y116303D01*
X141252D01*
Y117315D01*
X138122D01*
X136335Y119102D01*
X125035D01*
X123248Y117315D01*
X121114D01*
Y122031D01*
X122157Y123075D01*
X150764D01*
X156421Y128732D01*
X156654D01*
X156705Y128602D01*
G03Y131240I3453J1319D01*
G01X156654Y131110D01*
X155437D01*
X154504Y130177D01*
G02X153823Y130409I-283J284D01*
G03X146559Y129083I-3665J-484D01*
G01X146583Y128972D01*
X144638Y127028D01*
X143409D01*
G02X143091Y127673I1J402D01*
G03X137543Y132535I-2936J2246D01*
G01X137402Y132394D01*
X133024Y136768D01*
X97685D01*
X95823Y134906D01*
X95717Y134925D01*
G03X93028Y133114I-440J-2248D01*
G02X92390Y132870I-394J75D01*
G03X86571Y130811I-2231J-2948D01*
G01X86555Y130756D01*
X84409Y128610D01*
G02X83736Y128996I-285J283D01*
G03X78240Y126760I-3579J925D01*
G01X78339Y126701D01*
Y124390D01*
G02X77654Y124106I-402J1D01*
G01X73476Y128283D01*
X73531Y128409D01*
G03X67909Y132854I-3374J1511D01*
G02X67264Y133173I-244J320D01*
G01Y133236D01*
X63091Y137409D01*
X7965D01*
X2657Y132102D01*
G02X1972Y132386I-283J284D01*
G01Y138579D01*
X248028D01*
Y1972D01*
X140795D01*
G37*
G36*
G01X26465Y130106D02*
G02X25780Y129843I-401J19D01*
G01X24512Y131110D01*
X23661D01*
X23610Y131240D01*
G03X22539Y132748I-3453J-1318D01*
G02X22799Y133457I259J307D01*
G01X27516D01*
G02X27776Y132748I1J-402D01*
G03X26465Y130106I2381J-2828D01*
G37*
G36*
G01X16484Y129516D02*
G02X15799Y129189I-400J-44D01*
G01X13878Y131110D01*
X13661D01*
X13610Y131240D01*
G03X12539Y132748I-3453J-1318D01*
G02X12799Y133457I259J307D01*
G01X17516D01*
G02X17776Y132748I1J-402D01*
G03X16484Y129516I2383J-2826D01*
G37*
G36*
G01X48327Y53551D02*
G02X48043Y54236I1J402D01*
G01X51846Y58039D01*
Y65520D01*
X52831Y66504D01*
X56236D01*
Y67709D01*
X59811D01*
Y65811D01*
X64598D01*
Y71197D01*
X59811D01*
Y70087D01*
X56236D01*
Y71291D01*
X50850D01*
Y67886D01*
X49469Y66504D01*
Y59024D01*
X45571Y55126D01*
X39075D01*
X36941Y57260D01*
X37012Y57390D01*
G03X34488Y61343I-2365J1272D01*
G02X34181Y62028I-24J401D01*
G01X34350Y62197D01*
X39469D01*
X43776Y66504D01*
X47181D01*
Y69909D01*
X49705Y72433D01*
X66512D01*
G02X66795Y71748I-1J-402D01*
G01X66614Y71567D01*
Y71197D01*
X65409D01*
Y65811D01*
X67437D01*
G02X67720Y65122I1J-402D01*
G01X65346Y62748D01*
Y62142D01*
X64142D01*
Y56756D01*
X65346D01*
Y56004D01*
X62894Y53551D01*
X48327D01*
G37*
G36*
G01X44193Y76386D02*
X39772Y80807D01*
Y91043D01*
X38988Y91827D01*
G02X39272Y92512I284J283D01*
G01X49228D01*
X50803Y90941D01*
Y85866D01*
X51811D01*
Y83378D01*
X50803D01*
Y77984D01*
X55591D01*
Y79295D01*
X66370D01*
Y77988D01*
X67465D01*
G02X67748Y77303I-1J-402D01*
G01X66831Y76386D01*
X44193D01*
G37*
G36*
G01X55591Y82067D02*
Y83378D01*
X54583D01*
Y85866D01*
X55591D01*
Y87000D01*
X58228D01*
X58268Y86980D01*
G03X58866Y86843I593J1206D01*
G01X64764D01*
G03X65362Y86980I6J1344D01*
G01X65402Y87000D01*
X71335D01*
X71378Y86976D01*
G03X71457Y86933I707J1192D01*
G02X71409Y86555I-85J-181D01*
G03X70799Y86268I249J-1321D01*
G02X70543I-128J156D01*
G03X69315Y86528I-860J-1033D01*
G01X69291Y86520D01*
X69063D01*
Y86579D01*
X66370D01*
Y82898D01*
X65539Y82067D01*
X55591D01*
G37*
G36*
G01Y89378D02*
Y90937D01*
X58228D01*
X58268Y90917D01*
G03X58866Y90780I593J1206D01*
G01X64764D01*
G03X65799Y92980I1J1343D01*
G02Y93236I156J128D01*
G03X64764Y95441I-1034J860D01*
G01X58866D01*
G03X58276Y95303I3J-1345D01*
G01X58236Y95283D01*
X55390D01*
X54516Y96157D01*
G02X54799Y96843I284J283D01*
G01X58236D01*
X58276Y96823D01*
G03X58866Y96685I593J1207D01*
G01X64764D01*
G03X65799Y98890I2J1345D01*
G02Y99146I156J128D01*
G03X65803Y100862I-1033J861D01*
G02Y101114I155J126D01*
G03X66059Y102343I-1037J857D01*
G01X66051Y102370D01*
Y102598D01*
X66110D01*
Y103402D01*
X66433D01*
X66488Y103295D01*
G03X66736Y102957I1229J640D01*
G01X71079Y98614D01*
X73417D01*
Y91520D01*
X71276Y89378D01*
X65386D01*
X65346Y89398D01*
G03X64764Y89528I-576J-1214D01*
G01X58866D01*
G03X58283Y89398I-6J-1344D01*
G01X58244Y89378D01*
X55591D01*
G37*
G36*
G01X46555Y110244D02*
X43315Y113484D01*
Y113492D01*
X41354Y115453D01*
Y122264D01*
X41346Y122272D01*
Y126417D01*
X41476Y126469D01*
G03X42539Y132748I-1319J3453D01*
G02X42799Y133457I259J307D01*
G01X47516D01*
G02X47776Y132748I1J-402D01*
G03X50358Y126228I2382J-2828D01*
G02X50780Y125831I20J-400D01*
G01Y112724D01*
X52575Y110929D01*
G02X52291Y110244I-284J-283D01*
G01X46555D01*
G37*
G36*
G01X66110Y104472D02*
Y105291D01*
X66051D01*
Y105520D01*
X66059Y105543D01*
G03X65803Y106772I-1293J371D01*
G02Y107024I155J126D01*
G03X65799Y108740I-1037J856D01*
G02Y108996I156J128D01*
G03X64764Y111197I-1034J857D01*
G01X58866D01*
G03X58256Y111055I-9J-1344D01*
G01X58213Y111031D01*
X55835D01*
X54894Y111972D01*
G02X55177Y112661I282J287D01*
G01X57118D01*
Y114165D01*
X66370D01*
Y112803D01*
G03X66508Y112213I1345J3D01*
G01X66528Y112173D01*
Y104650D01*
X66504Y104606D01*
G03X66488Y104579I1195J-701D01*
G01X66433Y104472D01*
X66110D01*
G37*
G36*
G01X72228Y101386D02*
X68906Y104709D01*
Y112173D01*
X68925Y112213D01*
G03X69063Y112803I-1207J593D01*
G01Y118701D01*
G03X66370I-1346J0D01*
G01Y116543D01*
X57118D01*
Y118047D01*
X53157D01*
Y127760D01*
X53193Y127811D01*
G03X52539Y132748I-3035J2110D01*
G02X52799Y133457I259J307D01*
G01X57516D01*
G02X57776Y132748I1J-402D01*
G03X61457Y126461I2383J-2826D01*
G01X61579Y126504D01*
X66583Y121500D01*
X69980D01*
X70465Y121016D01*
Y119323D01*
X70445Y119283D01*
G03X70315Y118701I1214J-576D01*
G01Y112803D01*
G03X72516Y111764I1344J-3D01*
G02X72768I126J-155D01*
G03X74484Y111768I856J1037D01*
G02X74740I128J-156D01*
G03X76457Y111764I861J1033D01*
G02X76709I126J-155D01*
G03X77937Y111508I857J1037D01*
G01X77961Y111516D01*
X78189D01*
Y111457D01*
X80882D01*
Y111516D01*
X81110D01*
X81138Y111508D01*
G03X82366Y111764I371J1293D01*
G02X82618I126J-155D01*
G03X82890Y111591I854J1040D01*
G02X83000Y110945I-173J-362D01*
G01X73441Y101386D01*
X72228D01*
G37*
G36*
G01X38969Y123760D02*
G02X38283Y123476I-402J1D01*
G01X33476Y128283D01*
X33531Y128409D01*
G03X32539Y132748I-3374J1511D01*
G02X32799Y133457I259J307D01*
G01X37516D01*
G02X37776Y132748I1J-402D01*
G03X38839Y126469I2382J-2826D01*
G01X38969Y126417D01*
Y123760D01*
G37*
G36*
G01X37402Y119185D02*
G02X36717Y118902I-402J1D01*
G01X33126Y122496D01*
X30075Y125543D01*
G02X30339Y126228I284J284D01*
G03X31669Y126547I-181J3693D01*
G01X31795Y126602D01*
X37402Y120996D01*
Y119185D01*
G37*
G36*
G01X84858Y19217D02*
G02X84173Y19465I-285J283D01*
G03X80122Y20732I-2284J-192D01*
G01X80063Y20657D01*
X73996D01*
X73976Y20677D01*
X64378D01*
Y24638D01*
X66189D01*
Y33063D01*
X68012D01*
X68567Y32508D01*
Y29102D01*
X73953D01*
Y30307D01*
X76047D01*
Y29102D01*
X81433D01*
Y30539D01*
X84740Y33846D01*
G02X85425Y33563I283J-284D01*
G01Y19783D01*
X84858Y19217D01*
G37*
G36*
G01X73953Y32685D02*
Y33890D01*
X70547D01*
X70484Y33953D01*
G02X70768Y34638I284J283D01*
G01X81201D01*
X83508Y36945D01*
G02X83850Y36803I142J-142D01*
G01Y36319D01*
X81421Y33890D01*
X76047D01*
Y32685D01*
X73953D01*
G37*
G36*
G01X82276Y75098D02*
G02X81591Y74815I-402J1D01*
G01X80717Y75689D01*
Y78689D01*
X80736Y78732D01*
G03X80882Y79331I-1199J609D01*
G01Y85236D01*
G03X78677Y86272I-1346J-1D01*
G02X78425I-126J155D01*
G03X76709I-858J-1037D01*
G02X76457I-126J155D01*
G03X74740Y86268I-856J-1037D01*
G02X74484I-128J156D01*
G03X72768Y86272I-861J-1033D01*
G02X72516I-126J155D01*
G03X72240Y86445I-848J-1044D01*
G02X72291Y86823I87J181D01*
G03X73028Y87209I-246J1365D01*
G01X76189Y90370D01*
Y100213D01*
X84433Y108457D01*
X85614D01*
X85823Y108665D01*
X91709D01*
X91748Y108646D01*
G03X92339Y108512I585J1210D01*
G01X98236D01*
G03Y111197I2J1343D01*
G01X97201D01*
G02X96913Y111886I-4J403D01*
G01X103354Y118323D01*
Y118567D01*
X104362D01*
Y123075D01*
X111764D01*
X116528Y127839D01*
G02X117138Y127787I283J-284D01*
G03X118224Y126772I3016J2137D01*
G02X118299Y126146I-210J-343D01*
G01X114559Y122406D01*
Y118638D01*
X113681Y117760D01*
X110701D01*
X109217Y116276D01*
Y115685D01*
X105000D01*
Y114181D01*
X103929D01*
X103870Y114272D01*
G03X101953Y110701I-1901J-1279D01*
G02X102232Y110016I-5J-402D01*
G01X99315Y107098D01*
X99016D01*
X99012Y107102D01*
X98866D01*
X98827Y107122D01*
G03X98236Y107260I-593J-1207D01*
G01X92339D01*
G03X91299Y105055I-3J-1346D01*
G02Y104803I-155J-126D01*
G03X91252Y104740I1052J-838D01*
G02X90921Y104756I-160J121D01*
G03X87398Y101882I-1944J-1214D01*
G02X87122Y101189I-276J-292D01*
G01X85335D01*
X82669Y98524D01*
Y90059D01*
X85465Y87264D01*
G02X85181Y86579I-284J-283D01*
G01X84102D01*
Y86520D01*
X83870D01*
X83846Y86528D01*
G03X82134Y85236I-369J-1293D01*
G01Y79331D01*
G03X82256Y78768I1344J-3D01*
G01X82276Y78724D01*
Y75098D01*
G37*
G36*
G01X85764Y111043D02*
X85720Y111067D01*
G03X85654Y111102I-681J-1206D01*
G02X85701Y111480I86J181D01*
G03X86303Y111768I-260J1319D01*
G02X86559I128J-156D01*
G03X88276Y111764I861J1033D01*
G02X88528I126J-155D01*
G03X90732Y112803I859J1036D01*
G01Y115031D01*
X92130Y116433D01*
X92272Y116319D01*
G03X91799Y119390I1429J1792D01*
G01X91740Y119299D01*
X91634D01*
X91319Y118988D01*
G02X90657Y119142I-283J284D01*
G03X89083Y120012I-1271J-440D01*
G02X88591Y120406I-90J391D01*
G01Y120902D01*
X89189Y121500D01*
X93646D01*
X95220Y123075D01*
X99575D01*
Y118461D01*
X94295Y113185D01*
G03X94071Y111520I980J-980D01*
G01X94098Y111472D01*
Y111197D01*
X92339D01*
G03X91748Y111063I-6J-1344D01*
G01X91709Y111043D01*
X85764D01*
G37*
G36*
G01X85307Y90783D02*
X85047Y91043D01*
Y97539D01*
X86319Y98811D01*
X86713D01*
G02X86996Y98126I-1J-402D01*
G01X86213Y97343D01*
Y92602D01*
X86157Y92547D01*
G03X85508Y91059I1639J-1601D01*
G01X85504Y90980D01*
X85307Y90783D01*
G37*
G36*
G01X105350Y21020D02*
X102665Y23705D01*
X102673Y23799D01*
G03X102213Y25406I-2280J215D01*
G01X102173Y25461D01*
Y26724D01*
X105283D01*
Y30457D01*
G02X105969Y30740I401J0D01*
G01X115004Y21705D01*
G02X114720Y21020I-284J-284D01*
G01X105350D01*
G37*
G36*
G01X101134Y18657D02*
X97252Y22539D01*
Y26724D01*
X99402D01*
Y26083D01*
X99295Y26028D01*
G03X100610Y21736I1099J-2010D01*
G01X100705Y21744D01*
X103106Y19343D01*
G02X102823Y18657I-284J-284D01*
G01X101134D01*
G37*
G36*
G01X139449Y19882D02*
G02X138764Y19563I-400J-37D01*
G01X132976Y25350D01*
X118063D01*
X109402Y34012D01*
G02X109685Y34701I282J287D01*
G01X130732D01*
Y42909D01*
X136409D01*
Y23441D01*
X139461Y20390D01*
X139453Y20295D01*
G03X139449Y19882I2279J-228D01*
G37*
G36*
G01X105969Y44657D02*
G02X105283Y44913I-284J284D01*
G01X101386D01*
Y51429D01*
X103295D01*
Y57161D01*
G02X103732Y57559I401J-2D01*
G03X105705Y58382I205J2283D01*
G01X105764Y58457D01*
X107803D01*
X109626Y60280D01*
G02X110311Y59972I284J-283D01*
G03X113039Y57594I2287J-130D01*
G01X113146Y57614D01*
X114953Y55807D01*
Y53642D01*
X105969Y44657D01*
G37*
G36*
G01X97252Y44913D02*
Y51429D01*
X98614D01*
Y44913D01*
X97252D01*
G37*
G36*
G01X109803Y44157D02*
G02X109520Y44846I-1J402D01*
G01X117331Y52657D01*
Y53071D01*
X117925D01*
Y44157D01*
X109803D01*
G37*
G36*
G01X97252Y33118D02*
Y38528D01*
X99402D01*
Y37307D01*
X102909Y33803D01*
G02X102622Y33118I-284J-283D01*
G01X97252D01*
G37*
G36*
G01X114748Y66480D02*
G02X114429Y67122I1J401D01*
G03X114390Y69933I-1830J1380D01*
G01X114276Y70075D01*
X118071Y73870D01*
X122484D01*
X126866Y78252D01*
G02X127551Y77969I283J-284D01*
G01Y69390D01*
X124642Y66480D01*
X114748D01*
G37*
G36*
G01X98433Y75134D02*
Y77461D01*
X101189Y80217D01*
Y84575D01*
G02X101874Y84858I402J-1D01*
G01X102004Y84728D01*
X106657D01*
X108213Y86283D01*
X109531D01*
G02X109815Y85594I1J-402D01*
G01X107472Y83252D01*
Y79063D01*
X106764Y78354D01*
X105724D01*
X102504Y75134D01*
X98433D01*
G37*
G36*
G01X96921Y83732D02*
X96862Y83831D01*
G03X93220Y84256I-1980J-1153D01*
G02X92528Y84531I-292J276D01*
G01Y86335D01*
X92366Y86496D01*
G02X92508Y86843I140J145D01*
G01X94941D01*
X97236Y84547D01*
Y83732D01*
X96921D01*
G37*
G36*
G01X115173Y74335D02*
G02X114488Y74587I-284J284D01*
G03X113665Y76177I-2285J-174D01*
G01X113591Y76236D01*
Y78016D01*
X113898D01*
Y81421D01*
X115756Y83280D01*
Y91634D01*
X115988Y91866D01*
G02X116331Y91724I142J-142D01*
G01Y90484D01*
X118496D01*
X118366Y80039D01*
X116835D01*
Y75996D01*
X115173Y74335D01*
G37*
G36*
G01X108780Y66480D02*
Y66866D01*
X107575D01*
Y69748D01*
X108780D01*
Y75134D01*
X106839D01*
G02X106555Y75823I-1J402D01*
G01X106709Y75976D01*
X107748D01*
X109787Y78016D01*
X110819D01*
Y76236D01*
X110744Y76177D01*
G03X112028Y72126I1460J-1766D01*
G02X112280Y71441I-32J-401D01*
G01X111409Y70571D01*
Y70465D01*
X111319Y70406D01*
G03X110768Y67122I1279J-1903D01*
G02X110449Y66480I-320J-241D01*
G01X108780D01*
G37*
G36*
G01X96362Y66547D02*
G02X95677Y66831I-283J284D01*
G01Y72539D01*
G02X96362Y72823I402J-1D01*
G01X97933Y71252D01*
X98394D01*
Y69748D01*
X101122D01*
G02X101406Y69059I1J-402D01*
G01X100858Y68512D01*
X98327D01*
X96362Y66547D01*
G37*
G36*
G01X103638Y62114D02*
G02X103181Y62512I-55J398D01*
G01Y66866D01*
X103063D01*
G02X102921Y67213I-2J201D01*
G01X104732Y69024D01*
Y69748D01*
X105197D01*
Y66866D01*
X103992D01*
X103988Y62142D01*
X103803Y62130D01*
G03X103638Y62114I134J-2287D01*
G37*
G36*
G01X97252Y58020D02*
Y64075D01*
X97705Y64528D01*
G02X98394Y64244I287J-282D01*
G01Y61480D01*
X99402D01*
Y60417D01*
X98614Y59630D01*
Y58020D01*
X97252D01*
G37*
G36*
G01X122016Y56657D02*
Y57866D01*
X116622D01*
Y57850D01*
X116378Y57748D01*
X114827Y59295D01*
X114846Y59402D01*
G03X114504Y61114I-2248J441D01*
G02X114839Y61740I333J224D01*
G01X116614D01*
X116622Y61732D01*
Y58669D01*
X122016D01*
Y63465D01*
X118811D01*
X118516Y63760D01*
G02X118657Y64102I142J142D01*
G01X125626D01*
X128835Y67311D01*
G02X129520Y67028I283J-284D01*
G01Y60012D01*
X127736Y58228D01*
X124331D01*
Y56657D01*
X122016D01*
G37*
G36*
G01X143559Y21465D02*
X143500Y21539D01*
G03X141516Y22358I-1764J-1462D01*
G01X141421Y22350D01*
X139181Y24591D01*
Y42909D01*
X144898D01*
Y34701D01*
X168134D01*
Y44157D01*
X157909D01*
Y53071D01*
X159417D01*
Y57866D01*
X154024D01*
Y56701D01*
X151693D01*
Y58205D01*
X150488D01*
Y63004D01*
X135835Y77657D01*
Y81390D01*
X135992D01*
Y89508D01*
G03X133787Y90547I-1347J0D01*
G02X133535I-126J155D01*
G03X131819I-858J-1039D01*
G02X131567I-126J155D01*
G03X129850I-858J-1039D01*
G02X129598I-126J155D01*
G03X127882I-858J-1039D01*
G02X127630I-126J155D01*
G03X125425Y89508I-857J-1039D01*
G01Y81390D01*
X125583D01*
Y80331D01*
X122909Y77657D01*
G02X122220Y77941I-287J282D01*
G01Y80039D01*
X120744D01*
X120866Y90051D01*
X121299Y90484D01*
X124449D01*
G03X125488Y92689I0J1347D01*
G02Y92941I155J126D01*
G03Y94657I-1039J858D01*
G02Y94909I155J126D01*
G03Y96626I-1039J858D01*
G02Y96878I155J126D01*
G03Y98594I-1039J858D01*
G02Y98846I155J126D01*
G03X124449Y101051I-1039J857D01*
G01X116331D01*
Y100894D01*
X111811D01*
X111642Y100724D01*
X107142D01*
Y97480D01*
G02X106453Y97197I-402J-1D01*
G01X106331Y97319D01*
Y100724D01*
X104386D01*
G02X104102Y101413I0J403D01*
G01X105508Y102819D01*
X109480D01*
Y107209D01*
X110291D01*
Y102819D01*
X115079D01*
Y104323D01*
X124409D01*
X125622Y103110D01*
Y102028D01*
G03X128315I1346J0D01*
G01Y109587D01*
G02X129000Y109870I402J-1D01*
G01X129559Y109311D01*
Y102028D01*
G03X131764Y100988I1347J0D01*
G02X132016I126J-155D01*
G03X134220Y102028I857J1039D01*
G01Y110146D01*
X134063D01*
Y112138D01*
X133425Y112776D01*
Y116331D01*
X135185D01*
X135866Y115654D01*
Y112520D01*
X137173D01*
Y111654D01*
X141134Y107693D01*
Y101854D01*
X140370Y101091D01*
X138386D01*
G03X138079Y101055I0J-1348D01*
G01X138055Y101051D01*
X136969D01*
G03X135929Y98846I0J-1347D01*
G02Y98594I-155J-126D01*
G03Y96878I1039J-858D01*
G02Y96626I-155J-126D01*
G03Y94909I1039J-858D01*
G02Y94657I-155J-126D01*
G03Y92941I1039J-858D01*
G02Y92689I-155J-126D01*
G03X136969Y90484I1039J-857D01*
G01X140906D01*
X148000Y83390D01*
Y79984D01*
X149008D01*
Y66819D01*
X154024Y61803D01*
Y58669D01*
X159417D01*
Y59681D01*
X161193D01*
X169087Y51787D01*
Y28528D01*
X162024Y21465D01*
X143559D01*
G37*
G36*
G01X111531Y109587D02*
G02X111248Y110272I1J402D01*
G01X111594Y110618D01*
Y115291D01*
X111685Y115382D01*
X114665D01*
X116937Y117654D01*
Y121421D01*
X118051Y122535D01*
G02X118736Y122252I283J-284D01*
G01Y111362D01*
X116961Y109587D01*
X111531D01*
G37*
G36*
G01X115079Y106701D02*
Y107209D01*
X117945D01*
X121114Y110378D01*
Y112520D01*
X125528D01*
G02X126193Y112677I381J-125D01*
G01X128039Y110831D01*
G02X127756Y110146I-284J-283D01*
G01X125622D01*
Y106701D01*
X115079D01*
G37*
G36*
G01X100268Y100937D02*
G02X99583Y101220I-283J285D01*
G01Y102740D01*
X100878D01*
X104004Y105866D01*
G02X104693Y105583I287J-282D01*
G01X104689Y105362D01*
X100268Y100937D01*
G37*
G36*
G01X91063Y88618D02*
G02X90398Y88465I-380J129D01*
G01X89878Y88984D01*
X89358D01*
Y89268D01*
X89417Y89327D01*
G03X88713Y93043I-1622J1617D01*
G01X88591Y93098D01*
Y96358D01*
X89075Y96843D01*
X90634D01*
G02X91024Y96354I-2J-401D01*
G03X91299Y95205I1313J-293D01*
G02Y94953I-155J-126D01*
G03X91303Y93236I1037J-856D01*
G02Y92980I-156J-128D01*
G03X91299Y91264I1033J-861D01*
G02Y91012I-155J-126D01*
G03Y89295I1037J-858D01*
G02Y89043I-155J-126D01*
G03X91063Y88618I1039J-855D01*
G37*
G36*
G01X114516Y129189D02*
G02X113831Y129516I-285J283D01*
G03X113091Y132169I-3674J405D01*
G02X113409Y132815I320J244D01*
G01X116906D01*
G02X117224Y132169I-1J-402D01*
G03X116705Y131240I2932J-2250D01*
G01X116654Y131110D01*
X116437D01*
X114516Y129189D01*
G37*
G36*
G01X103409Y127028D02*
G02X103091Y127673I1J402D01*
G03X103839Y130268I-2933J2251D01*
G02X104429Y130657I400J37D01*
G03X105980Y130433I1084J2019D01*
G02X106461Y130028I80J-393D01*
G03X106783Y128409I3696J-104D01*
G01X106839Y128283D01*
X105583Y127028D01*
X103409D01*
G37*
G36*
G01X138689Y13665D02*
X130067Y22287D01*
G02X130350Y22972I284J284D01*
G01X131992D01*
X140346Y14618D01*
G02X140063Y13933I-284J-283D01*
G03X138811Y13709I17J-3697D01*
G01X138689Y13665D01*
G37*
G36*
G01X123130Y4339D02*
G02X122846Y5024I1J402D01*
G01X125350Y7528D01*
Y11878D01*
G02X126035Y12161I401J0D01*
G01X126630Y11571D01*
X126587Y11449D01*
G03X128650Y13646I3492J-1212D01*
G01X128524Y13594D01*
X122193Y19925D01*
G02X122476Y20610I284J284D01*
G01X127823D01*
X136697Y11736D01*
X136650Y11614D01*
G03X140063Y6539I3430J-1378D01*
G02X140346Y5854I-1J-402D01*
G01X138831Y4339D01*
X123130D01*
G37*
G36*
G01X145598Y44157D02*
Y48717D01*
X149697Y52819D01*
X151693D01*
Y54323D01*
X154024D01*
Y53071D01*
X155531D01*
Y44157D01*
X145598D01*
G37*
G36*
G01X136394Y51346D02*
X136150Y51449D01*
Y51579D01*
X130339D01*
X129118Y52799D01*
Y56248D01*
X131898Y59028D01*
Y69173D01*
G02X132240Y69315I201J-1D01*
G01X132346Y69209D01*
Y65803D01*
X137752D01*
X139165Y64386D01*
Y54118D01*
X136394Y51346D01*
G37*
G36*
G01X141516Y51579D02*
G02X141232Y52264I0J401D01*
G01X141937Y52969D01*
Y65535D01*
X137890Y69583D01*
X137732D01*
Y70591D01*
X134327D01*
X133866Y71051D01*
Y75295D01*
G02X134551Y75579I402J-1D01*
G01X148110Y62020D01*
Y58205D01*
X146906D01*
Y53390D01*
X145094Y51579D01*
X141516D01*
G37*
G36*
G01X120303Y44157D02*
Y53071D01*
X122016D01*
Y54280D01*
X124331D01*
Y52843D01*
X125713D01*
X129835Y48717D01*
Y44157D01*
X120303D01*
G37*
G36*
G01X145087Y96957D02*
Y101051D01*
X143906D01*
Y108843D01*
X140909Y111835D01*
G02X141197Y112520I284J283D01*
G01X141256D01*
G02X141941Y112795I402J-9D01*
G01X148000Y106736D01*
Y103606D01*
X151130D01*
X151791Y102941D01*
Y101118D01*
X148000D01*
Y97713D01*
X147244Y96957D01*
X145087D01*
G37*
G36*
G01X149382Y85370D02*
X144953Y89799D01*
G02X145087Y90457I284J285D01*
G01Y92610D01*
X146654D01*
X148000Y91264D01*
Y87858D01*
X151791D01*
Y86035D01*
X151130Y85370D01*
X149382D01*
G37*
G36*
G01X133409Y127028D02*
G02X133091Y127673I1J402D01*
G03X127815Y132783I-2934J2250D01*
G01X127677Y132665D01*
X126638Y133705D01*
G02X126921Y134390I284J283D01*
G01X132039D01*
X136461Y129969D01*
Y129886D01*
G03X137224Y127673I3696J38D01*
G02X136906Y127028I-320J-244D01*
G01X133409D01*
G37*
G36*
G01X123409D02*
G02X123091Y127673I1J402D01*
G03Y132169I-2934J2248D01*
G02X123409Y132815I320J244D01*
G01X124165D01*
X126500Y130480D01*
X126488Y130382D01*
G03X127224Y127673I3668J-457D01*
G02X126906Y127028I-320J-244D01*
G01X123409D01*
G37*
G36*
G01X149382Y93244D02*
X148138Y94488D01*
X149382Y95732D01*
X151791D01*
Y93244D01*
X149382D01*
G37*
%LPC*%
G75*
G36*
G01X194606Y92189D02*
X189819D01*
Y97575D01*
X190827D01*
Y101087D01*
X189244D01*
Y105874D01*
X194630D01*
Y101087D01*
X193598D01*
Y97575D01*
X194606D01*
Y96268D01*
X197307D01*
Y97669D01*
X202693D01*
Y92882D01*
X197307D01*
Y93496D01*
X194606D01*
Y92189D01*
G37*
G36*
G01X194819Y83520D02*
X189433D01*
Y88307D01*
X194819D01*
Y87299D01*
X195661D01*
X197307Y88941D01*
Y92071D01*
X202693D01*
Y91063D01*
X203417D01*
X204646Y89831D01*
G03X204992Y89972I144J142D01*
G01Y90126D01*
X206051D01*
Y92213D01*
X205039D01*
Y97606D01*
X209835D01*
Y92213D01*
X208823D01*
Y90126D01*
X210378D01*
Y85339D01*
X204992D01*
Y86594D01*
X203965D01*
X203039Y87524D01*
G03X202697Y87382I-142J-142D01*
G01X202693Y87283D01*
X199563D01*
X196811Y84528D01*
X194819D01*
Y83520D01*
G37*
G36*
G01X187331Y83071D02*
X182543D01*
Y88457D01*
X185228D01*
Y92189D01*
X184220D01*
Y97575D01*
X185228D01*
Y101244D01*
X182339D01*
Y106630D01*
X187126D01*
Y103500D01*
X188000Y102630D01*
Y97575D01*
X189008D01*
Y92189D01*
X188000D01*
Y86866D01*
X187331Y86201D01*
Y83071D01*
G37*
G36*
G01X194126Y70142D02*
X189339D01*
Y75528D01*
X190740D01*
Y77921D01*
X189433D01*
Y82709D01*
X194819D01*
Y77921D01*
X193512D01*
Y75528D01*
X194126D01*
Y70142D01*
G37*
G36*
G01X225020Y71409D02*
G02Y68354I5099J-1528D01*
G01X224976Y68496D01*
X219362D01*
X208122Y79740D01*
X206193D01*
X199724Y73272D01*
Y70142D01*
X194937D01*
Y75528D01*
X198067D01*
X204992Y82453D01*
Y84528D01*
X210378D01*
Y81398D01*
X220512Y71268D01*
X224976D01*
X225020Y71409D01*
G37*
%LPD*%
G75*
G54D10*
X10079Y10236D03*
X20079D03*
X30079D03*
X20157Y129921D03*
X30157D03*
X10157D03*
X50079Y10236D03*
X60079D03*
X40079D03*
X60157Y129921D03*
X40157D03*
X50157D03*
X80079Y10236D03*
X70079D03*
X90079D03*
X70157Y129921D03*
X80157D03*
X90157D03*
X110079Y10236D03*
X100079D03*
X120079D03*
X120157Y129921D03*
X110157D03*
X100157D03*
X150079Y10236D03*
X140079D03*
X130079D03*
X130157Y129921D03*
X140157D03*
X150157D03*
X160157D03*
G54D11*
X19685Y19685D03*
X9843Y98425D03*
X40551Y19291D03*
X52362D03*
X57480Y49213D03*
X49213D03*
X57874Y39370D03*
X49213D03*
X39370Y37402D03*
X29528D03*
X39370Y29528D03*
X29528D03*
X53543Y57480D03*
X44488D03*
X40157Y73622D03*
X31890Y86220D03*
X49213Y68898D03*
X31890Y71654D03*
X42547Y88555D03*
Y80681D03*
X31890Y79134D03*
X35039Y106693D03*
X44488Y115354D03*
X59055Y120079D03*
X81890Y19272D03*
X74803Y22835D03*
X78740Y59055D03*
X79220Y53630D03*
X78740Y88583D03*
X88976Y103543D03*
X87795Y90945D03*
X78740Y98425D03*
X83071Y104331D03*
X69587Y93406D03*
X79921Y91732D03*
X71654Y108268D03*
X100394Y24016D03*
X118110Y29528D03*
X106299Y49606D03*
X103937Y59843D03*
X112205Y74409D03*
X94882Y82677D03*
X112598Y59843D03*
Y68504D03*
X101106Y77559D03*
X101969Y112992D03*
X116929D03*
X93701Y118110D03*
X105512Y132677D03*
X112598Y121260D03*
X95276Y132677D03*
X141732Y20079D03*
X125984Y31496D03*
X137008Y55512D03*
X148425Y31496D03*
X137795Y88583D03*
X144094Y82677D03*
X137795Y78740D03*
X145276Y72441D03*
X143701Y62205D03*
X125197Y72047D03*
X147638Y118110D03*
X137795Y108268D03*
X127953Y98425D03*
X138976Y103937D03*
X126772Y121260D03*
X142520Y120516D03*
X177165Y19685D03*
X167323D03*
X177165Y9843D03*
X167323D03*
X157480D03*
X177165Y59055D03*
Y49213D03*
X163780Y48425D03*
X150787Y48031D03*
X177165Y39370D03*
Y29528D03*
X167323D03*
X157480D03*
X166929Y87008D03*
X167323Y78740D03*
X157480D03*
X167323Y68898D03*
X157480D03*
X169291Y60630D03*
X177457Y72150D03*
X161811Y82677D03*
X177165Y118110D03*
X167323D03*
X157480D03*
X179134Y109449D03*
X177165Y98425D03*
X171858Y108866D03*
X161811Y106299D03*
X177165Y127953D03*
X167323D03*
X206693Y19685D03*
X196850D03*
X187008D03*
X206693Y9843D03*
X196850D03*
X187008D03*
X206693Y59055D03*
X196850D03*
X187008D03*
X206693Y49213D03*
X196850D03*
X187008D03*
X206693Y39370D03*
X196850D03*
X187008D03*
X206693Y29528D03*
X196850D03*
X187008D03*
X196850Y78740D03*
X187008D03*
X206693Y68898D03*
X187008D03*
X206693Y118110D03*
X196850D03*
X187008D03*
X206693Y108268D03*
X196850D03*
X185039Y109449D03*
X200000Y100787D03*
X191937Y113984D03*
X206693Y127953D03*
X196850D03*
X187008D03*
X216535Y19685D03*
Y9843D03*
X226378Y49213D03*
X216535D03*
X226378Y39370D03*
X216535D03*
X226378Y29528D03*
X216535D03*
X226378Y88583D03*
X216535D03*
Y68898D03*
X226378Y118110D03*
X216535D03*
X226378Y108268D03*
X216535D03*
X226378Y98425D03*
X213035Y101138D03*
X226378Y127953D03*
X216535D03*
G54D20*
X69685Y82283D03*
X71657D03*
X73626D03*
X75598D03*
X77567D03*
X79535D03*
X81508D03*
X83476D03*
X85445Y115752D03*
X83476D03*
X81508D03*
X77567D03*
X75598D03*
X73626D03*
X71657D03*
X69685D03*
X67717D03*
X87417Y82283D03*
X89386D03*
Y115752D03*
X87417D03*
G54D21*
X61815Y109854D03*
Y107882D03*
Y105913D03*
Y101972D03*
Y100004D03*
Y98031D03*
Y96063D03*
Y94094D03*
Y92122D03*
Y90154D03*
Y88185D03*
X95287D03*
Y90154D03*
Y92122D03*
Y94094D03*
Y96063D03*
Y98031D03*
Y100004D03*
Y103945D03*
Y105913D03*
Y107882D03*
Y109854D03*
G54D30*
X130709Y95768D03*
G54D12*
X34252Y45276D03*
X71654D03*
X119114Y39429D03*
X156516D03*
G54D13*
X29134Y58661D03*
X34646D03*
G54D22*
X61815Y103945D03*
X95287Y101972D03*
G54D31*
X240118Y59882D03*
X220197Y59567D03*
X230118Y69882D03*
X220118Y79882D03*
X240118D03*
G54D32*
G01X40079Y10236D02*
X39961Y10354D01*
X38244D01*
X15748Y32850D01*
Y86654D01*
X25157Y96063D01*
X50701D01*
X54638Y92126D01*
X61811D01*
X61815Y92122D01*
G01Y94094D02*
X54898D01*
X51354Y97638D01*
X24409D01*
X13780Y87008D01*
Y31496D01*
X30079Y15197D01*
Y10236D01*
G01X20079D02*
Y14173D01*
X11654Y22598D01*
Y87110D01*
X23756Y99213D01*
X52008D01*
X53189Y98031D01*
X61815D01*
G01X10079Y10236D02*
Y87764D01*
X23102Y100787D01*
X52756D01*
X53539Y100004D01*
X61815D01*
G01X112598Y59843D02*
X116142Y56299D01*
Y53150D01*
X105906Y42913D01*
Y35827D01*
X117571Y24161D01*
X132484D01*
X144555Y12091D01*
Y8382D01*
X139323Y3150D01*
X8661D01*
X2756Y9055D01*
Y130520D01*
X8457Y136220D01*
X62598D01*
X66075Y132744D01*
Y128232D01*
X68469Y125839D01*
X71799D01*
X75591Y122047D01*
Y116929D01*
X75598Y116921D01*
Y115752D01*
G01X73626D02*
Y117319D01*
X73622Y117323D01*
Y121787D01*
X71146Y124264D01*
X67815D01*
X64500Y127579D01*
Y131957D01*
X61811Y134646D01*
X9110D01*
X4331Y129866D01*
Y10213D01*
X9819Y4724D01*
X120866D01*
X124161Y8020D01*
Y11929D01*
X118622Y17469D01*
X100642D01*
X96063Y22047D01*
Y64567D01*
X98819Y67323D01*
X101350D01*
X103543Y69516D01*
Y74492D01*
X106217Y77165D01*
X107256D01*
X108661Y78571D01*
Y82760D01*
X112598Y86697D01*
Y93307D01*
X115059Y95768D01*
X123031D01*
G01X50079Y10236D02*
Y13839D01*
X41083Y22835D01*
X31890D01*
X22047Y32677D01*
Y86827D01*
X26953Y91732D01*
X37402D01*
X38583Y90551D01*
Y80315D01*
X43701Y75197D01*
X67323D01*
X69685Y77559D01*
Y82283D01*
G01X61815Y101972D02*
X61811Y101969D01*
X54205D01*
X51843Y104331D01*
X43835D01*
X35441Y112724D01*
Y116134D01*
X25736Y125839D01*
X17469D01*
X13386Y129921D01*
X10157D01*
G01X20157D02*
X24020D01*
X32283Y121654D01*
X37016Y116921D01*
Y113654D01*
X38976Y111693D01*
Y111417D01*
X44488Y105906D01*
X52496D01*
X54465Y103937D01*
X61811D01*
X61815Y103941D01*
Y103945D01*
G01X79535Y82283D02*
X79528D01*
Y75197D01*
X83465Y71260D01*
Y38583D01*
X80709Y35827D01*
X47244D01*
X42520Y31102D01*
Y23626D01*
X55909Y10236D01*
X60079D01*
G01X71260Y31496D02*
X68504Y34252D01*
X52756D01*
X51193Y32689D01*
Y29134D01*
G01X66535Y59449D02*
Y55512D01*
X63386Y52362D01*
X38583D01*
X34252Y48031D01*
Y45276D01*
G01X34646Y58661D02*
Y57874D01*
X38583Y53937D01*
X46063D01*
X50657Y58531D01*
Y66012D01*
X53543Y68898D01*
G01X29134Y58661D02*
X33858Y63386D01*
X38976D01*
X44488Y68898D01*
G01X71657Y82283D02*
X71654D01*
Y77154D01*
X68122Y73622D01*
X49213D01*
X44488Y68898D01*
G01X62205Y68504D02*
X61811Y68898D01*
X53543D01*
G01X62598Y88189D02*
X53567D01*
G01X67717Y115752D02*
X67319Y115354D01*
X54724D01*
G01X61815Y105913D02*
Y105909D01*
X61811Y105906D01*
X54724D01*
X53150Y107480D01*
X45409D01*
X40551Y112339D01*
Y112346D01*
X38591Y114307D01*
Y121488D01*
X30157Y129921D01*
G01X40157D02*
Y121780D01*
X40165Y121772D01*
Y114961D01*
X42126Y113000D01*
Y112992D01*
X46063Y109055D01*
X53902D01*
X55083Y107874D01*
X61811D01*
X61815Y107878D01*
Y107882D01*
G01Y109854D02*
Y109846D01*
X61811Y109843D01*
X55343D01*
X51969Y113217D01*
Y127980D01*
X51933Y128146D01*
X50157Y129921D01*
G01X85445Y82283D02*
Y81508D01*
X85433Y81496D01*
Y73878D01*
X86614Y72697D01*
Y19291D01*
X82283Y14961D01*
X71654D01*
X70079Y13386D01*
Y10236D01*
G01X87417Y82283D02*
Y81512D01*
X87402Y81496D01*
Y74142D01*
X88189Y73354D01*
Y18504D01*
X80079Y10394D01*
Y10236D01*
G01X74803Y22835D02*
X75984D01*
G01X71260Y25898D02*
X71346D01*
G01X75984Y22835D02*
X78740Y25591D01*
G01D02*
Y25898D01*
G01X71346D02*
X74409Y22835D01*
G01D02*
X74803D01*
G01X83476Y82283D02*
X83465D01*
Y73488D01*
X85039Y71913D01*
Y35827D01*
X80709Y31496D01*
X78740D01*
G01D02*
X71260D01*
G01X73622Y59449D02*
Y47244D01*
X71654Y45276D01*
G01X81496Y82283D02*
Y90157D01*
G01X75598Y82283D02*
X75591D01*
Y76634D01*
X71654Y72697D01*
Y67374D01*
X66535Y62256D01*
Y59449D01*
G01X76378Y66929D02*
X73622Y64173D01*
Y59449D01*
G01X77567Y82283D02*
Y81504D01*
X77559Y81496D01*
Y73709D01*
X76378Y72528D01*
G01X73626Y82283D02*
X73622D01*
Y76894D01*
X67803Y71075D01*
Y68504D01*
G01X83476Y115752D02*
X83469D01*
X83465Y115748D01*
Y122295D01*
X87008Y125839D01*
X91846D01*
X93421Y127413D01*
X97650D01*
X100157Y129921D01*
G01X61815Y88185D02*
X62594D01*
X62598Y88189D01*
G01X72047D02*
X62598D01*
G01X67717Y103937D02*
Y115752D01*
G01X95287Y109854D02*
X85051D01*
G01X95287Y100004D02*
X94098D01*
X94094Y100000D01*
X85827D01*
X83858Y98031D01*
Y90551D01*
X86614Y87795D01*
X89386D01*
X91339Y85843D01*
Y18638D01*
X99740Y10236D01*
X100079D01*
G01X71657Y115752D02*
Y117713D01*
X71654Y117717D01*
Y121508D01*
X70472Y122689D01*
X67075D01*
X60157Y129606D01*
Y129921D01*
G01X81508Y115752D02*
Y117311D01*
X81496Y117323D01*
Y124016D01*
X87402Y129921D01*
X90157D01*
G01X79535Y115752D02*
X79531D01*
X79528Y115748D01*
Y129291D01*
X80157Y129921D01*
G01X77567Y115752D02*
X77563D01*
X77559Y115748D01*
Y122520D01*
X70157Y129921D01*
G01X61811Y90157D02*
X66339D01*
G01X61811Y96063D02*
X61815D01*
G01X69685Y115748D02*
Y110236D01*
G01X69587Y93406D02*
X66929Y96063D01*
G01X83071Y104331D02*
X86614Y107874D01*
G01X69685Y110236D02*
X71654Y108268D01*
G01X66339Y90157D02*
X69587Y93406D01*
G01X66929Y96063D02*
X61815D01*
G01X86614Y107874D02*
X94126D01*
G01X85445Y115752D02*
X85437D01*
X85433Y115748D01*
Y121654D01*
X88043Y124264D01*
X92500D01*
X94075Y125839D01*
X106075D01*
X110157Y129921D01*
G01X94882Y82677D02*
Y81890D01*
X92913Y79921D01*
Y19291D01*
X97886Y14319D01*
X106154D01*
X110079Y10394D01*
Y10236D01*
G01X89386Y82283D02*
Y81512D01*
X89370Y81496D01*
Y74398D01*
X89764Y74004D01*
Y10551D01*
X90079Y10236D01*
G01X95287Y88177D02*
X98425Y85039D01*
Y81496D01*
X94488Y77559D01*
Y20866D01*
X99461Y15894D01*
X114421D01*
X120079Y10236D01*
G01X106386Y72441D02*
Y64173D01*
G01X128740Y88091D02*
Y68898D01*
X125134Y65291D01*
X107551D01*
X106433Y64173D01*
X106386D01*
G01X123031Y93799D02*
X116240D01*
X114567Y92126D01*
Y83772D01*
X111504Y80709D01*
G01X126772Y88091D02*
Y79839D01*
X121992Y75059D01*
X117579D01*
X112598Y70079D01*
Y68504D01*
G01X95287Y92122D02*
X97240D01*
X97244Y92126D01*
X100000D01*
X101575Y90551D01*
Y86839D01*
X102496Y85917D01*
X106165D01*
X106917Y86669D01*
Y95051D01*
X103937Y98031D01*
G01X95287Y90154D02*
X97634D01*
X97638Y90157D01*
X99213D01*
X100000Y89370D01*
Y80709D01*
X97244Y77953D01*
Y73622D01*
X98425Y72441D01*
X100787D01*
G01X123031Y99705D02*
X112303D01*
X110630Y98031D01*
X109535D01*
G01X95287Y94094D02*
X101969D01*
X104331Y91732D01*
Y88976D01*
G01X95276Y94094D02*
X95287D01*
G01X126969Y103445D02*
X124902Y105512D01*
X112685D01*
G01X95287Y101972D02*
X92917D01*
X92913Y101969D01*
X90551D01*
X88976Y103543D01*
G01X107394Y112992D02*
X101969D01*
G01X95276Y112205D02*
X95287Y112193D01*
Y109854D01*
G01Y105913D02*
X98520D01*
X98524Y105909D01*
X99807D01*
X104004Y110106D01*
X109402D01*
X110406Y111110D01*
Y115783D01*
X111193Y116571D01*
X114173D01*
X115748Y118146D01*
Y121913D01*
X119673Y125839D01*
X145130D01*
X149213Y129921D01*
X150157D01*
G01X95287Y103945D02*
X98610D01*
X98618Y103937D01*
X98630Y103929D01*
X100386D01*
X104854Y108398D01*
X117453D01*
X119925Y110870D01*
Y122524D01*
X121665Y124264D01*
X150272D01*
X155929Y129921D01*
X160157D01*
G01X95287Y98031D02*
X88583D01*
X87402Y96850D01*
Y91339D01*
X87795Y90945D01*
G01X95276Y88189D02*
X95287Y88177D01*
G01Y88185D02*
Y88177D01*
G01X94126Y107874D02*
X94134Y107882D01*
G01D02*
X95287D01*
G01X123031Y97736D02*
X114134D01*
X109929Y93531D01*
Y88976D01*
G01X95287Y96063D02*
X98835D01*
X100787Y98016D01*
Y99776D01*
X106520Y105512D01*
X107087D01*
G01X95276Y96063D02*
X95287D01*
G01X87417Y115752D02*
X87406D01*
X87402Y115748D01*
Y121394D01*
X88697Y122689D01*
X93154D01*
X94728Y124264D01*
X111272D01*
X116929Y129921D01*
X120157D01*
G01X89386Y115752D02*
X89374D01*
X89370Y115748D01*
X89764D01*
X92126Y118110D01*
X93701D01*
G01X105512Y132677D02*
X105906D01*
X107232Y134004D01*
X124657D01*
X128740Y129921D01*
X130157D01*
G01X95276Y132677D02*
X98177Y135579D01*
X132531D01*
X138189Y129921D01*
X140157D01*
G01X126724Y55535D02*
Y53512D01*
X132992Y47244D01*
G01X119319Y55469D02*
X119114Y55264D01*
Y39429D01*
G01X119319Y55469D02*
X126657D01*
X126724Y55535D01*
G01X130709Y88091D02*
Y59520D01*
X126724Y55535D01*
G01X149299Y55512D02*
Y54102D01*
X142441Y47244D01*
G01X123031Y91831D02*
X120965D01*
X119685Y90551D01*
X119528Y77646D01*
G01X138386Y91831D02*
X141240D01*
X150394Y82677D01*
G01X132677Y88091D02*
Y70559D01*
X135039Y68197D01*
G01X134646Y88091D02*
Y77165D01*
X149299Y62512D01*
Y55512D01*
G01X130906Y103445D02*
Y109646D01*
X125634Y114917D01*
X122811D01*
G01X132874Y103445D02*
Y111646D01*
X130732Y113787D01*
Y114917D01*
G01X134843Y103445D02*
Y99902D01*
G01X128937Y103445D02*
Y97539D01*
G01X138976Y103937D02*
X135335D01*
G01X134843Y99902D02*
X130709Y95768D01*
G01X128937Y97539D02*
X130709Y95768D01*
G01X135335Y103937D02*
X134843Y103445D01*
G01X138386Y95768D02*
X147736D01*
X150394Y98425D01*
G01X138386Y93799D02*
X147146D01*
X150394Y90551D01*
G01X156516Y39429D02*
X156720Y39634D01*
Y55469D01*
G01D02*
X156677Y55512D01*
X149299D01*
G54D23*
X108402Y54724D03*
X100000D03*
G54D14*
X17323Y112598D03*
X235039Y14961D03*
G54D33*
G01X53197Y88559D02*
Y90504D01*
X49803Y93898D01*
X26055D01*
X18898Y86740D01*
Y32764D01*
X32370Y19291D01*
X40551D01*
G01X62992D02*
X52362D01*
G01X53197Y80681D02*
Y88559D01*
G01X67717Y82283D02*
X66114Y80681D01*
X53197D01*
G01X47598D02*
X42547D01*
G01X53543Y63299D02*
Y57480D01*
G01X44488Y63299D02*
Y57480D01*
G01X53543D02*
X58969D01*
G01X53567Y88189D02*
X53197Y88559D01*
G01X47598D02*
X47594Y88555D01*
G01D02*
X42547D01*
G01X62992Y29134D02*
Y19291D01*
G01X81890Y19272D02*
X73421D01*
X73402Y19291D01*
X62992D01*
G01X58969Y57480D02*
X60937Y59449D01*
G01X74803Y100000D02*
Y90945D01*
X72047Y88189D01*
G01X74803Y100000D02*
X71654D01*
X67717Y103937D01*
G01X85051Y109854D02*
X85039Y109843D01*
X83858D01*
X74803Y100787D01*
Y100000D01*
G01X100394Y24016D02*
X104776Y19634D01*
X120524D01*
X129173Y10984D01*
X129331D01*
X130079Y10236D01*
G01X100787Y29921D02*
Y24409D01*
X100394Y24016D01*
G01X140079Y10236D02*
Y10315D01*
X128398Y21996D01*
X116673D01*
X100787Y37882D01*
Y41720D01*
G01D02*
X100000Y42508D01*
Y54724D01*
G01X100787Y59843D02*
X100000Y59055D01*
Y54724D01*
G01X103937Y59843D02*
X107228D01*
X110512Y63126D01*
X117189D01*
X119248Y61067D01*
X119319D01*
G01X100787Y59843D02*
X103937D01*
G01X100787D02*
Y64173D01*
G01X112205Y74409D02*
Y80008D01*
X111504Y80709D01*
G01X101969Y121260D02*
Y118898D01*
X95276Y112205D01*
G01X141732Y20079D02*
X162598D01*
X170472Y27953D01*
Y52362D01*
X161768Y61067D01*
X156720D01*
G01X135039Y68197D02*
X137315D01*
X140551Y64961D01*
Y53543D01*
X137795Y50787D01*
Y24016D01*
X141732Y20079D01*
G01X150394Y106299D02*
X141776Y114917D01*
X138559D01*
G01D02*
X135760Y117717D01*
X125610D01*
X122811Y114917D01*
G01X138386Y97736D02*
Y99705D01*
G01D02*
X140945D01*
X142520Y101280D01*
Y108268D01*
X138559Y112228D01*
Y114917D01*
G01X150394Y106299D02*
X153177Y103516D01*
Y85461D01*
X150394Y82677D01*
G01X156720Y61067D02*
X150394Y67394D01*
Y82677D01*
G01X171858Y77890D02*
X172075Y78106D01*
Y85394D01*
G01X179339Y85764D02*
X177303D01*
X172075Y90992D01*
G01X163780Y97244D02*
X162598Y98425D01*
X155992D01*
G01X163780Y97244D02*
X170740D01*
X171858Y98362D01*
G01D02*
X177433Y103937D01*
X179134D01*
G01X172075Y90992D02*
X171421Y91646D01*
X163780D01*
G01D02*
X162685Y90551D01*
X155992D01*
G01X184937Y85764D02*
X186614Y87441D01*
Y94882D01*
G01X192126Y85913D02*
X196236D01*
X200000Y89677D01*
G01X197331Y72835D02*
X206630Y82134D01*
X207685D01*
G01X192126Y80315D02*
Y73228D01*
X191732Y72835D01*
G01X186614Y94882D02*
Y102055D01*
X184732Y103937D01*
G01X207437Y87980D02*
X204539D01*
X202843Y89677D01*
X200000D01*
G01X191937Y103480D02*
X192213Y103205D01*
Y94882D01*
G01D02*
X199606D01*
X200000Y95276D01*
G01X207685Y82134D02*
X219937Y69882D01*
X230118D01*
G01X207437Y87980D02*
X207685Y87732D01*
G01X207437Y87980D02*
Y94909D01*
G54D24*
X100787Y41720D03*
Y29921D03*
G54D15*
X51193Y29134D03*
X62992D03*
G54D34*
G01X49126Y115354D02*
X44488D01*
G01X79220Y59449D02*
Y53630D01*
G01X81496Y90157D02*
X79921Y91732D01*
G01X106299Y49606D02*
X108402Y51709D01*
G01D02*
Y54724D01*
G01X101106Y77634D02*
Y77559D01*
G01D02*
X102362D01*
G01D02*
X105512Y80709D01*
G01D02*
X105906D01*
G01X112992Y112992D02*
X116929D01*
G01X112598Y121260D02*
X107567D01*
G01X143701Y62205D02*
Y55512D01*
G01X125984Y31496D02*
X132992D01*
G01X142441D02*
X148425D01*
G01X137008Y55512D02*
Y56299D01*
G01X132323Y55535D02*
X132346Y55512D01*
G01X137008Y56299D02*
X135039Y58268D01*
G01X132346Y55512D02*
X137008D01*
G01X125197Y72047D02*
X119528D01*
G01X135039Y58268D02*
Y62598D01*
G01X138559Y120516D02*
X142520D01*
G01X130732D02*
X127516D01*
G01X126772Y121260D02*
X126028Y120516D01*
G01X127516D02*
X126772Y121260D01*
G01X126028Y120516D02*
X122811D01*
G01X161811Y82677D02*
X155992D01*
G01X161811Y106299D02*
X155992D01*
G01X171858Y103961D02*
Y108866D01*
G01X177457Y77890D02*
Y72150D01*
G01X191937Y109079D02*
Y113984D01*
G01X213035Y94909D02*
Y101138D01*
G54D25*
X142441Y47244D03*
Y31496D03*
X132992D03*
Y47244D03*
G54D16*
X53543Y63299D03*
Y68898D03*
X44488Y63299D03*
Y68898D03*
X78740Y25898D03*
X71260D03*
X78740Y31496D03*
X71260D03*
X76378Y72528D03*
Y66929D03*
X119319Y55469D03*
Y61067D03*
X119528Y77646D03*
Y72047D03*
X135039Y68197D03*
Y62598D03*
X130732Y114917D03*
X122811D03*
X138559D03*
X130732Y120516D03*
X122811D03*
X138559D03*
X156720Y55469D03*
X172075Y85394D03*
X156720Y61067D03*
X172075Y90992D03*
X163780Y91646D03*
Y97244D03*
X171858Y103961D03*
Y98362D03*
X192126Y85913D03*
Y80315D03*
X207685Y82134D03*
Y87732D03*
X200000Y89677D03*
Y95276D03*
X191937Y109079D03*
Y103480D03*
G54D17*
X47598Y80681D03*
X53197D03*
X49126Y115354D03*
X54724D03*
X47598Y88559D03*
X53197D03*
X67803Y68504D03*
X62205D03*
X79220Y59449D03*
X73622D03*
X60937D03*
X66535D03*
X106386Y64173D03*
X100787D03*
X106386Y72441D03*
X100787D03*
X111504Y80709D03*
X105906D03*
X109929Y88976D03*
X104331D03*
X107394Y112992D03*
X112992D03*
X109535Y98031D03*
X103937D03*
X112685Y105512D03*
X107087D03*
X107567Y121260D03*
X101969D03*
X143701Y55512D03*
X132323Y55535D03*
X126724D03*
X149299Y55512D03*
X177457Y77890D03*
X171858D03*
X155992Y82677D03*
X150394D03*
X155992Y98425D03*
X150394D03*
X155992Y90551D03*
X150394D03*
X155992Y106299D03*
X150394D03*
X197331Y72835D03*
X191732D03*
X184937Y85764D03*
X179339D03*
X184732Y103937D03*
X179134D03*
X192213Y94882D03*
X186614D03*
X207437Y94909D03*
X213035D03*
G54D26*
X126772Y86122D03*
X128740D03*
X130709D03*
X132677D03*
X134646D03*
G54D27*
X121063Y99705D03*
Y97736D03*
Y95768D03*
Y93799D03*
Y91831D03*
G54D18*
X31890Y77559D03*
G54D19*
X67717Y82283D03*
X85445D03*
X79535Y115752D03*
G54D28*
X140354Y91831D03*
Y93799D03*
Y95768D03*
Y97736D03*
Y99705D03*
G54D29*
X134843Y105413D03*
X132874D03*
X130906D03*
X128937D03*
X126969D03*
M02*
