G04 ================== begin FILE IDENTIFICATION RECORD ==================*
G04 Layout Name:  c:/src/bsm-2/schematics/bsm-radio.brd*
G04 Film Name:    TOP*
G04 File Format:  Gerber RS274X*
G04 File Origin:  16.0-s004*
G04 Origin Date:  Mon Jan 30 17:24:18 2012*
G04 *
G04 Layer:  BOARD GEOMETRY/OUTLINE*
G04 Layer:  ETCH/TOP*
G04 Layer:  PIN/TOP*
G04 Layer:  VIA CLASS/TOP*
G04 *
G04 Offset:    (0.00 0.00)*
G04 Mirror:    No*
G04 Mode:      Positive*
G04 Rotation:  0*
G04 FullContactRelief:  No*
G04 UndefLineWidth:     8.00*
G04 ================== end FILE IDENTIFICATION RECORD ====================*
%FSLAX55Y55*MOIN*%
%IR0*IPPOS*OFA0.00000B0.00000*MIA0B0*SFA1.00000B1.00000*%
%ADD11C,.038*%
%ADD24R,.05X.05*%
%ADD10C,.058*%
%ADD29C,.0906*%
%ADD17C,.0378*%
%ADD13R,.2165X.0787*%
%ADD28R,.0945X.0945*%
%ADD18R,.0984X.2559*%
%ADD20O,.011X.07*%
%ADD21O,.07X.011*%
%ADD19R,.011X.07*%
%ADD22R,.07X.011*%
%ADD16R,.032X.038*%
%ADD15R,.038X.032*%
%ADD12C,.2362*%
%ADD14R,.048X.074*%
%ADD23R,.074X.048*%
%ADD25R,.0472X.0708*%
%ADD27O,.0118X.0787*%
%ADD26O,.0787X.0118*%
%ADD30C,.012*%
%ADD31C,.0118*%
%ADD32C,.008*%
%ADD33C,.0098*%
G75*
%LPD*%
G75*
G36*
G01X10150Y5922D02*
X9722Y6349D01*
X9924Y6550D01*
X10009Y6549D01*
G03X8585Y13616I71J3691D01*
G01X8459Y13560D01*
X8088Y13932D01*
Y23498D01*
G02X8770Y23781I400J0D01*
G01X18424Y14127D01*
G02X18331Y13491I-282J-284D01*
G03X21409Y13684I1749J-3251D01*
G01X21282Y13734D01*
Y14668D01*
X10278Y25671D01*
Y31434D01*
G02X10961Y31717I400J0D01*
G01X28508Y14170D01*
G02X28406Y13531I-283J-282D01*
G03X33768Y10420I1674J-3291D01*
G02X34450Y10722I399J19D01*
G01X36023Y9148D01*
X36550D01*
X36597Y9015D01*
G03X36991Y12261I3483J1224D01*
G02X36373Y12198I-335J219D01*
G01X14974Y33606D01*
Y82160D01*
X15131Y82318D01*
G02X15814Y82035I283J-283D01*
G01Y33864D01*
X31789Y17888D01*
X37389D01*
X37448Y17799D01*
G03X42360Y18944I2242J1491D01*
G02X43039Y19175I396J-52D01*
G01X48214Y14006D01*
G02X48141Y13382I-282J-283D01*
G03X53771Y10171I1939J-3142D01*
G02X54454Y10447I400J-7D01*
G01X55862Y9038D01*
X56586D01*
X56636Y8911D01*
G03X56897Y12110I3444J1329D01*
G02X56269Y12030I-345J203D01*
G01X52370Y15929D01*
G02X52615Y16610I283J283D01*
G03X54608Y17809I-255J2680D01*
G01X54667Y17898D01*
X72824D01*
X72844Y17878D01*
X79583D01*
X79642Y17789D01*
G03X81733Y16583I2248J1481D01*
G01X81809Y16578D01*
X82004Y16383D01*
X81782Y16162D01*
X71152D01*
X68878Y13888D01*
Y13734D01*
X68751Y13684D01*
G03X72077Y13345I1329J-3444D01*
G01X72059Y13357D01*
X71903Y13513D01*
X72148Y13758D01*
X77431D01*
G02X77690Y13054I0J-400D01*
G03X83411Y11833I2390J-2814D01*
G01X83350Y11960D01*
X87486Y16097D01*
G02X88169Y15814I283J-283D01*
G01X88168Y13401D01*
X88077Y13341D01*
G03X90736Y13873I2003J-3101D01*
G01X90572Y13903D01*
Y16744D01*
G02X91254Y17027I400J0D01*
G01X96655Y11625D01*
X96612Y11506D01*
G03X102453Y13068I3468J-1266D01*
G02X102710Y13774I257J306D01*
G01X104996D01*
X106810Y11960D01*
X106749Y11833D01*
G03X108684Y13658I3331J-1593D01*
G01X108561Y13608D01*
X107205Y14964D01*
G02X107488Y15646I283J282D01*
G01X112963D01*
X116759Y11858D01*
X116703Y11732D01*
G03X120879Y6635I3377J-1492D01*
G01X120986Y6659D01*
X121205Y6441D01*
X120687Y5922D01*
X10150D01*
G37*
G36*
G01X1970Y1970D02*
Y6943D01*
G02X2653Y7226I400J0D01*
G01X7218Y2653D01*
G02X6935Y1970I-283J-283D01*
G01X1970D01*
G37*
G36*
G01X32951Y20692D02*
X18616Y35026D01*
Y82394D01*
X18802Y82580D01*
G02X19144Y82439I142J-141D01*
G01Y35106D01*
X32608Y21628D01*
X37281D01*
G02X37593Y20978I0J-400D01*
G03X37448Y20781I2093J-1693D01*
G01X37389Y20692D01*
X32951D01*
G37*
G36*
G01X6266Y84653D02*
G02X5584Y84936I-282J283D01*
G01Y130083D01*
X5786Y130286D01*
G02X6469Y129995I283J-283D01*
G03X13169Y127781I3691J-75D01*
G02X13778Y127832I326J-231D01*
G01X17076Y124534D01*
X25346D01*
X31976Y117898D01*
Y113148D01*
X41529Y103596D01*
G02X41246Y102913I-283J-283D01*
G01X24512D01*
X6266Y84653D01*
G37*
G36*
G01X141065Y1970D02*
G02X140783Y2653I1J400D01*
G01X145808Y7659D01*
Y12974D01*
X142020Y16759D01*
G02X142229Y17435I283J283D01*
G03X143972Y18589I-498J2646D01*
G01X144031Y18678D01*
X163181D01*
X171872Y27369D01*
Y52940D01*
X162351Y62472D01*
X159422D01*
Y63472D01*
X156284D01*
X151782Y67967D01*
Y79978D01*
X152792D01*
Y83109D01*
X154572Y84882D01*
Y87848D01*
X158392D01*
Y89148D01*
X163274D01*
X163363Y89238D01*
X166482D01*
Y90238D01*
X169368D01*
Y88588D01*
X172489D01*
X172604Y88474D01*
G02X172321Y87792I-283J-282D01*
G01X169368D01*
Y82988D01*
X170668D01*
Y80592D01*
X169458D01*
Y75188D01*
X174262D01*
Y80592D01*
X173472D01*
Y82988D01*
X174772D01*
Y85341D01*
G02X175454Y85624I400J0D01*
G01X176719Y84358D01*
X176938D01*
Y83058D01*
X181742D01*
Y88462D01*
X176938D01*
Y88453D01*
X176692Y88350D01*
X174772Y90271D01*
Y93392D01*
X169368D01*
Y93042D01*
X166482D01*
Y94042D01*
X161078D01*
Y91952D01*
X158392D01*
Y93252D01*
X154572D01*
Y95728D01*
X158392D01*
Y97028D01*
X161078D01*
Y94838D01*
X166482D01*
Y95838D01*
X171321D01*
X171441Y95958D01*
X174562D01*
Y99083D01*
X176714Y101238D01*
X181532D01*
Y106642D01*
X176728D01*
Y105221D01*
X172277Y100762D01*
X169158D01*
Y98642D01*
X166482D01*
Y99642D01*
X163372D01*
X163184Y99832D01*
X158392D01*
Y101132D01*
X154572D01*
Y104098D01*
X152792Y105871D01*
Y109002D01*
X149673D01*
X142361Y116322D01*
X141262D01*
Y117322D01*
X137858D01*
X136058Y119122D01*
X127832D01*
X125853Y117142D01*
G02X125512Y117283I-141J142D01*
G01Y117322D01*
X120142D01*
Y121488D01*
X121316Y122662D01*
X150743D01*
X156299Y128218D01*
G02X156931Y128130I283J-283D01*
G03X156716Y131249I3229J1790D01*
G01X156666Y131122D01*
X155803D01*
X154529Y129848D01*
G02X153847Y130110I-283J283D01*
G03X146560Y129101I-3687J-190D01*
G01X146584Y128994D01*
X144528Y126938D01*
X143334D01*
G02X143024Y127590I0J400D01*
G03X137555Y132536I-2864J2330D01*
G01X137414Y132396D01*
X132576Y137234D01*
X98134D01*
X96136Y135235D01*
X96023Y135268D01*
G03X92666Y133325I-743J-2588D01*
G02X92071Y133079I-388J96D01*
G03X86585Y130844I-1911J-3159D01*
G01X86572Y130791D01*
X84408Y128627D01*
G02X83738Y129009I-282J283D01*
G03X78233Y126771I-3578J911D01*
G01X78328Y126712D01*
X78329Y124416D01*
G02X77646Y124133I-400J0D01*
G01X73480Y128299D01*
X73536Y128425D01*
G03X67890Y132832I-3376J1495D01*
G02X67244Y133147I-246J316D01*
G01Y133717D01*
X63551Y137422D01*
X7014D01*
X2653Y133060D01*
G02X1970Y133343I-283J283D01*
G01Y138580D01*
X135929D01*
G02X136325Y138237I0J-400D01*
G01X136668Y138580D01*
X248030D01*
Y1970D01*
X141065D01*
G37*
G36*
G01X16489Y129526D02*
G02X15809Y129201I-398J-42D01*
G01X13888Y131122D01*
X13654D01*
X13604Y131249D01*
G03X12718Y132582I-3444J-1328D01*
G02X12995Y133270I277J288D01*
G01X17325D01*
G02X17602Y132582I0J-400D01*
G03X16489Y129526I2558J-2662D01*
G37*
G36*
G01X49680Y19545D02*
G02X48999Y19300I-398J38D01*
G01X43722Y24578D01*
Y30603D01*
X48099Y34990D01*
X50831D01*
G02X51113Y34307I0J-400D01*
G01X50433Y33632D01*
X47988D01*
Y24628D01*
X54392D01*
Y33048D01*
X59788D01*
Y24628D01*
X61598D01*
Y20682D01*
X54667D01*
X54608Y20771D01*
G03X49680Y19545I-2248J-1481D01*
G37*
G36*
G01X33604Y24032D02*
X21546Y36100D01*
Y40544D01*
X43998D01*
Y50016D01*
X39290D01*
G02X39149Y50358I0J200D01*
G01X39380Y50588D01*
X58718D01*
X65190Y57060D01*
X68628D01*
Y60464D01*
X70041Y61877D01*
G02X70724Y61594I283J-283D01*
G01Y59707D01*
X70162Y59146D01*
Y50016D01*
X58146D01*
Y40544D01*
X80492D01*
Y39500D01*
X78385Y37394D01*
X47103D01*
X41318Y31597D01*
Y24032D01*
X33604D01*
G37*
G36*
G01X21546Y50016D02*
Y82782D01*
X29915Y91150D01*
X39258D01*
X40114Y90294D01*
Y78442D01*
X44883Y73678D01*
X46604D01*
G02X46887Y72996I0J-400D01*
G01X45192Y71302D01*
X41788D01*
Y67898D01*
X38428Y64538D01*
X34558D01*
X31969Y61948D01*
X31876Y61956D01*
G03X34041Y58082I-232J-2672D01*
G02X34757I358J-179D01*
G03X38171Y56802I2398J1202D01*
G01X38294Y56853D01*
X41473Y53674D01*
G02X41190Y52992I-283J-282D01*
G01X38384D01*
X35409Y50016D01*
X21546D01*
G37*
G36*
G01X47778Y52992D02*
G02X47495Y53675I-1J400D01*
G01X51594Y57766D01*
Y65246D01*
X52843Y66498D01*
X56242D01*
Y67698D01*
X59798D01*
Y65798D01*
X64602D01*
Y71202D01*
X59798D01*
Y70102D01*
X56242D01*
Y71302D01*
X50838D01*
Y67891D01*
X49192Y66238D01*
Y58762D01*
X45563Y55142D01*
X43404D01*
X39786Y58759D01*
X39802Y58860D01*
G03X38781Y61416I-2648J424D01*
G02X39023Y62134I242J318D01*
G01X39424D01*
X43788Y66498D01*
X47192D01*
Y69902D01*
X49096Y71806D01*
X66598D01*
Y71202D01*
X65398D01*
Y65798D01*
X69599D01*
G02X69882Y65116I0J-400D01*
G01X67229Y62464D01*
X63826D01*
Y59095D01*
X57722Y52992D01*
X47778D01*
G37*
G36*
G01X45877Y76082D02*
X42518Y79438D01*
Y91290D01*
X41667Y92140D01*
G02X41950Y92823I283J283D01*
G01X47001D01*
X50798Y89025D01*
Y85858D01*
X51798D01*
Y83382D01*
X50798D01*
Y77978D01*
X55602D01*
Y79288D01*
X66368D01*
Y77979D01*
X66480D01*
G02X66763Y77295I1J-400D01*
G01X65543Y76082D01*
X45877D01*
G37*
G36*
G01X46418Y110402D02*
X43332Y113488D01*
Y113498D01*
X41372Y115458D01*
Y122268D01*
X41362Y122278D01*
Y126426D01*
X41489Y126476D01*
G03X42718Y132582I-1329J3444D01*
G02X42995Y133270I277J288D01*
G01X47325D01*
G02X47602Y132582I0J-400D01*
G03X50348Y126233I2558J-2662D01*
G02X50768Y125833I20J-399D01*
G01Y112133D01*
X51815Y111084D01*
G02X51531Y110402I-283J-282D01*
G01X46418D01*
G37*
G36*
G01X26473Y130110D02*
G02X25790Y129848I-400J20D01*
G01X24518Y131122D01*
X23654D01*
X23604Y131249D01*
G03X22718Y132582I-3444J-1328D01*
G02X22995Y133270I277J288D01*
G01X27325D01*
G02X27602Y132582I0J-400D01*
G03X26473Y130110I2558J-2662D01*
G37*
G36*
G01X36046Y120556D02*
G02X35363Y120273I-400J0D01*
G01X30086Y125551D01*
G02X30348Y126233I283J283D01*
G03X31655Y126544I-187J3687D01*
G01X31781Y126600D01*
X36046Y122335D01*
Y120556D01*
G37*
G36*
G01X38968Y115279D02*
G02X38627Y115138I-200J1D01*
G01X38448Y115317D01*
Y123331D01*
X33480Y128299D01*
X33536Y128425D01*
G03X32718Y132582I-3376J1495D01*
G02X32995Y133270I277J288D01*
G01X37325D01*
G02X37602Y132582I0J-400D01*
G03X38831Y126476I2558J-2662D01*
G01X38958Y126426D01*
Y121282D01*
X38968Y121272D01*
Y115279D01*
G37*
G36*
G01X73996Y20662D02*
X73976Y20682D01*
X64382D01*
Y24628D01*
X66192D01*
Y33048D01*
X68004D01*
X68558Y32496D01*
Y29098D01*
X73962D01*
Y30298D01*
X76038D01*
Y29098D01*
X81442D01*
Y30532D01*
X83566Y32657D01*
G02X84249Y32374I283J-283D01*
G01X84248Y21663D01*
G02X83595Y21353I-400J0D01*
G03X79642Y20751I-1705J-2083D01*
G01X79583Y20662D01*
X73996D01*
G37*
G36*
G01X73962Y32701D02*
Y33902D01*
X70552D01*
X70145Y34307D01*
G02X70427Y34990I282J283D01*
G01X79381D01*
X81576Y37186D01*
G02X82258Y36903I282J-283D01*
G01Y34748D01*
X81412Y33902D01*
X76038D01*
Y32701D01*
X73962D01*
G37*
G36*
G01X72566Y50016D02*
Y57048D01*
X75526D01*
Y60452D01*
X77582Y62507D01*
Y64528D01*
X79082D01*
Y69332D01*
X73678D01*
Y64528D01*
X75178D01*
Y63503D01*
X74127Y62452D01*
X71581D01*
G02X71298Y63134I0J400D01*
G01X72852Y64687D01*
Y72480D01*
X72996Y72624D01*
G02X73679Y72341I283J-283D01*
G01X73678Y70128D01*
X79082D01*
X79081Y71706D01*
G02X79765Y71989I400J1D01*
G01X80492Y71260D01*
Y50016D01*
X72566D01*
G37*
G36*
G01X82259Y73859D02*
G02X81575Y73576I-400J-1D01*
G01X80732Y74422D01*
Y78690D01*
X80752Y78732D01*
G03X80892Y79330I-1212J599D01*
G01Y85230D01*
G03X78682Y86274I-1352J0D01*
G02X78428I-127J155D01*
G03X76712I-858J-1044D01*
G02X76458I-127J155D01*
G03X74742I-858J-1044D01*
G02X74488I-127J155D01*
G03X72772I-858J-1044D01*
G02X72518I-127J155D01*
G03X72313Y86413I-858J-1044D01*
G01X72209Y86470D01*
Y86788D01*
X72616D01*
X76192Y90364D01*
Y100213D01*
X84436Y108448D01*
X87903D01*
X87913Y108458D01*
X89231D01*
G03X89890Y108625I-2J1392D01*
G01X89935Y108648D01*
X91720D01*
X91760Y108629D01*
G03X92340Y108498I581J1221D01*
G01X98240D01*
G03Y111202I0J1352D01*
G01X96492D01*
Y111713D01*
X98655Y113880D01*
G02X99330Y113519I283J-283D01*
G03X101608Y110322I2640J-529D01*
G02X101837Y109644I-54J-396D01*
G01X99311Y107112D01*
X98860D01*
X98820Y107131D01*
G03X98240Y107262I-581J-1221D01*
G01X92340D01*
G03X91003Y106110I0J-1352D01*
G02X90397Y105829I-395J59D01*
G03X86883Y101852I-1417J-2289D01*
G02X86571Y101202I-312J-250D01*
G01X85332D01*
X82658Y98528D01*
Y89697D01*
X85092Y87264D01*
G02X84809Y86582I-283J-282D01*
G01X84099D01*
Y86524D01*
X83871D01*
X83845Y86531D01*
G03X82128Y85230I-366J-1301D01*
G01Y79330D01*
G03X82242Y78788I1352J1D01*
G01X82258Y78750D01*
X82259Y73859D01*
G37*
G36*
G01X55602Y82072D02*
Y83382D01*
X54602D01*
Y85858D01*
X55602D01*
Y86978D01*
X58250D01*
X58290Y86959D01*
G03X58870Y86828I581J1221D01*
G01X64770D01*
G03X65350Y86959I-1J1352D01*
G01X65390Y86978D01*
X65537D01*
X65582Y86955D01*
G03X66178Y86790I660J1225D01*
G01X66368Y86781D01*
Y82899D01*
X65536Y82072D01*
X55602D01*
G37*
G36*
G01Y89382D02*
Y90928D01*
X58230D01*
X58272Y90908D01*
G03X58870Y90768I599J1212D01*
G01X64770D01*
G03X65814Y92978I0J1352D01*
G02Y93232I155J127D01*
G03X64770Y95442I-1044J858D01*
G01X58870D01*
G03X58290Y95311I1J-1352D01*
G01X58250Y95292D01*
X55089D01*
X54234Y96146D01*
G02X54517Y96829I283J283D01*
G01X58250D01*
X58290Y96809D01*
G03X58870Y96678I581J1221D01*
G01X64770D01*
G03X65814Y98888I0J1352D01*
G02Y99142I155J127D01*
G03Y100858I-1044J858D01*
G02Y101112I155J127D01*
G03X66071Y102335I-1044J858D01*
G01X66064Y102361D01*
Y102588D01*
X66122D01*
X66121Y102874D01*
G02X66805Y103156I400J0D01*
G01X71151Y98798D01*
X73408D01*
Y91516D01*
X71464Y89572D01*
X66241D01*
G03X65582Y89405I2J-1392D01*
G01X65537Y89382D01*
X65390D01*
X65350Y89401D01*
G03X64770Y89532I-581J-1221D01*
G01X58870D01*
G03X58290Y89401I1J-1352D01*
G01X58250Y89382D01*
X55602D01*
G37*
G36*
G01X72149Y101202D02*
X68922Y104437D01*
Y112180D01*
X68941Y112220D01*
G03X69072Y112800I-1221J581D01*
G01Y118700D01*
G03X66368I-1352J0D01*
G01Y116552D01*
X57122D01*
Y118052D01*
X53172D01*
Y127783D01*
X53206Y127834D01*
G03X52718Y132582I-3046J2086D01*
G02X52995Y133270I277J288D01*
G01X57325D01*
G02X57602Y132582I0J-400D01*
G03X60028Y126230I2558J-2662D01*
G01X60106Y126228D01*
X65537Y120790D01*
X69304D01*
X70448Y119646D01*
Y119301D01*
X70430Y119261D01*
G03X70308Y118700I1229J-561D01*
G01Y112800D01*
G03X72518Y111756I1352J0D01*
G02X72772I127J-155D01*
G03X74488I858J1044D01*
G02X74742I127J-155D01*
G03X76458I858J1044D01*
G02X76712I127J-155D01*
G03X77935Y111499I858J1044D01*
G01X77961Y111506D01*
X78188D01*
Y111448D01*
X80892D01*
Y111506D01*
X81119D01*
X81145Y111499D01*
G03X82368Y111756I365J1301D01*
G02X82622I127J-155D01*
G03X82888Y111585I859J1044D01*
G02X82995Y110943I-176J-359D01*
G01X73408Y101367D01*
Y101202D01*
X72149D01*
G37*
G36*
G01X66518Y110968D02*
G02X65811Y110712I-400J0D01*
G03X64770Y111202I-1041J-861D01*
G01X58854D01*
X57782Y112274D01*
X57122D01*
Y114148D01*
X66368D01*
Y112800D01*
G03X66499Y112220I1352J1D01*
G01X66518Y112180D01*
Y110968D01*
G37*
G36*
G01X139084Y20576D02*
G02X138408Y20367I-393J74D01*
G01X132609Y26162D01*
X117528D01*
X109686Y34011D01*
G02X109969Y34694I283J283D01*
G01X130736D01*
Y42898D01*
X136408D01*
Y23445D01*
X139116Y20731D01*
X139094Y20625D01*
G03X139084Y20576I2632J-563D01*
G37*
G36*
G01X102340Y44298D02*
Y51418D01*
X104240D01*
Y57160D01*
X104406Y57189D01*
G03X106188Y58359I-466J2651D01*
G01X106247Y58448D01*
X108191D01*
X109280Y59540D01*
G02X109956Y59333I283J-282D01*
G03X113343Y57252I2644J507D01*
G01X113456Y57285D01*
X114938Y55802D01*
Y53647D01*
X105844Y44544D01*
Y44298D01*
X102340D01*
G37*
G36*
G01X109829Y44167D02*
G02X109546Y44849I0J400D01*
G01X117342Y52653D01*
Y53068D01*
X117908D01*
Y44167D01*
X109829D01*
G37*
G36*
G01X98232Y44298D02*
Y51418D01*
X99538D01*
Y44298D01*
X98232D01*
G37*
G36*
G01Y32497D02*
Y37894D01*
X100640D01*
Y36563D01*
X104024Y33180D01*
G02X103741Y32497I-283J-283D01*
G01X98232D01*
G37*
G36*
G01X104394Y21983D02*
X103005Y23373D01*
X103027Y23478D01*
G03X103029Y24551I-2637J541D01*
G01X103008Y24656D01*
X103444Y25091D01*
Y26094D01*
X106544D01*
Y29695D01*
G02X107226Y29978I400J0D01*
G01X114538Y22666D01*
G02X114255Y21983I-283J-283D01*
G01X104394D01*
G37*
G36*
G01X98442Y75142D02*
Y77452D01*
X101362Y80372D01*
Y84250D01*
G02X102043Y84534I400J0D01*
G01X102923Y83662D01*
X107410D01*
Y78810D01*
X106971Y78372D01*
X104774D01*
X102338Y75936D01*
Y75142D01*
X98442D01*
G37*
G36*
G01X97036Y67238D02*
G02X96354Y67521I-282J283D01*
G01Y71847D01*
G02X97035Y72131I400J0D01*
G01X97935Y71238D01*
X98388D01*
Y69738D01*
X101100D01*
G02X101383Y69056I0J-400D01*
G01X100851Y68522D01*
X98324D01*
X97036Y67238D01*
G37*
G36*
G01X108792Y66492D02*
Y66872D01*
X107592D01*
Y69738D01*
X108792D01*
Y75142D01*
X105908D01*
G02X105625Y75824I0J400D01*
G01X105770Y75968D01*
X107967D01*
X109812Y77814D01*
Y78008D01*
X110808D01*
Y76563D01*
X110719Y76504D01*
G03X111936Y71577I1481J-2248D01*
G01X112007Y71570D01*
X112199Y71378D01*
X111928Y71107D01*
X111878Y71093D01*
G03X110301Y67100I722J-2593D01*
G02X109959Y66492I-341J-208D01*
G01X108792D01*
G37*
G36*
G01X103637Y62515D02*
G02X103192Y62912I-45J397D01*
G01Y66871D01*
X103080D01*
G02X102938Y67213I0J200D01*
G01X104742Y69024D01*
Y69738D01*
X105188D01*
Y66872D01*
X103988D01*
Y62538D01*
X103799Y62528D01*
G03X103637Y62515I134J-2689D01*
G37*
G36*
G01X98232Y58022D02*
Y61468D01*
X100329D01*
X101322Y60476D01*
X101301Y60371D01*
G03Y59309I2639J-531D01*
G01X101322Y59204D01*
X100139Y58022D01*
X98232D01*
G37*
G36*
G01X144031Y21482D02*
X143972Y21571D01*
G03X141192Y22718I-2242J-1491D01*
G01X141086Y22696D01*
X139192Y24595D01*
Y42898D01*
X144884D01*
Y34694D01*
X168136D01*
Y44166D01*
X157922D01*
Y53068D01*
X159422D01*
Y57872D01*
X154018D01*
Y56712D01*
X151702D01*
Y58212D01*
X150502D01*
Y63007D01*
X135852Y77667D01*
Y82089D01*
X135874Y82132D01*
G03X136032Y82775I-1234J644D01*
G01Y89465D01*
G03X133660Y90453I-1392J0D01*
G03X131695Y90448I-980J-988D01*
G03X129725I-985J-983D01*
G03X127755I-985J-983D01*
G03X125378Y89465I-985J-983D01*
G01Y82775D01*
G03X125545Y82116I1392J2D01*
G01X125568Y82071D01*
Y80338D01*
X122914Y77683D01*
G02X122231Y77966I-283J283D01*
G01X122232Y80052D01*
X120761D01*
X120885Y90049D01*
X121272Y90438D01*
X124405D01*
G03X125393Y92810I0J1392D01*
G03X125388Y94775I-988J980D01*
G03Y96745I-983J985D01*
G03Y98715I-983J985D01*
G03X124405Y101092I-983J985D01*
G01X117715D01*
G03X117056Y100925I2J-1392D01*
G01X117011Y100902D01*
X111802D01*
X111632Y100732D01*
X107138D01*
Y97496D01*
G02X106456Y97213I-400J0D01*
G01X106342Y97328D01*
Y100731D01*
X103410D01*
G02X103127Y101414I0J400D01*
G01X104522Y102808D01*
X109492D01*
Y107686D01*
X110288D01*
Y102808D01*
X115092D01*
Y104308D01*
X124402D01*
X125578Y103132D01*
Y102065D01*
G03X128362I1392J0D01*
G01Y108755D01*
G03X125578I-1392J0D01*
G01Y106712D01*
X115092D01*
Y107686D01*
X118437D01*
X120142Y109384D01*
Y112518D01*
X125539D01*
G02X126194Y112657I373J-144D01*
G01X129596Y109255D01*
X129563Y109141D01*
G03X129508Y108755I1337J-387D01*
G01Y102065D01*
G03X131885Y101082I1392J0D01*
G03X134262Y102065I985J983D01*
G01Y108755D01*
G03X134095Y109414I-1392J-2D01*
G01X134072Y109459D01*
Y112148D01*
X133432Y112788D01*
Y116718D01*
X135062D01*
X135858Y115922D01*
Y112518D01*
X137158D01*
Y111649D01*
X141118Y107689D01*
Y101861D01*
X140359Y101102D01*
X138390D01*
G03X138234Y101093I3J-1402D01*
G01X138223Y101092D01*
X137005D01*
G03X136022Y98715I0J-1392D01*
G03Y96745I983J-985D01*
G03Y94775I983J-985D01*
G03X136017Y92810I983J-985D01*
G03X137005Y90438I988J-980D01*
G01X140932D01*
X147988Y83382D01*
Y79978D01*
X148998D01*
Y66813D01*
X154018Y61801D01*
Y58668D01*
X159422D01*
Y59668D01*
X161189D01*
X169068Y51780D01*
Y28531D01*
X162019Y21482D01*
X144031D01*
G37*
G36*
G01X85764Y92701D02*
G02X85062Y92963I-302J262D01*
G01Y97532D01*
X86328Y98798D01*
X86684D01*
G02X86967Y98116I0J-400D01*
G01X86198Y97348D01*
Y93106D01*
X86123Y93046D01*
G03X85764Y92701I1678J-2105D01*
G37*
G36*
G01X91066Y88631D02*
G02X90405Y88483I-377J134D01*
G01X89782Y89110D01*
X89895Y89249D01*
G03X88732Y93465I-2095J1691D01*
G01X88602Y93514D01*
Y96352D01*
X89078Y96828D01*
X90628D01*
G02X91019Y96344I0J-400D01*
G03X91296Y95202I1321J-284D01*
G02Y94948I-155J-127D01*
G03Y93232I1044J-858D01*
G02Y92978I-155J-127D01*
G03Y91262I1044J-858D01*
G02Y91008I-155J-127D01*
G03Y89292I1044J-858D01*
G02Y89038I-155J-127D01*
G03X91066Y88631I1044J-858D01*
G37*
G36*
G01X110796Y111690D02*
G02X110430Y111926I-1J400D01*
G03X110229Y112044I-183J-81D01*
G02X109791Y112442I-38J398D01*
G01X109792Y116252D01*
X104988D01*
Y114752D01*
X104007D01*
X103947Y114817D01*
G03X101437Y115629I-1977J-1827D01*
G02X101075Y116303I-78J392D01*
G01X103015Y118246D01*
X104372D01*
Y122662D01*
X111372D01*
X116542Y127832D01*
G02X117151Y127781I283J-282D01*
G03X118729Y126517I3009J2139D01*
G02X118857Y125865I-155J-369D01*
G01X116138Y123147D01*
Y117824D01*
X115757Y117442D01*
G02X116138Y117042I-19J-399D01*
G01Y112160D01*
X115668Y111690D01*
X110796D01*
G37*
G36*
G01X102871Y133212D02*
G02X102252Y132962I-392J79D01*
G03X98223Y133063I-2092J-3042D01*
G02X97922Y133195I-105J171D01*
G03X97868Y133423I-2644J-506D01*
G01X97835Y133536D01*
X99130Y134830D01*
X102961D01*
G02X103291Y134204I0J-400D01*
G03X102871Y133212I2219J-1524D01*
G37*
G36*
G01X103334Y126938D02*
G02X103024Y127590I0J400D01*
G03X103852Y129862I-2864J2331D01*
G02X104414Y130221I400J-6D01*
G03X106004Y130034I1095J2459D01*
G02X106477Y129668I74J-393D01*
G03X106784Y128425I3683J250D01*
G01X106840Y128299D01*
X105478Y126938D01*
X103334D01*
G37*
G36*
G01X89935Y111052D02*
X89890Y111075D01*
G03X89770Y111133I-665J-1222D01*
G02X89788Y111508I77J184D01*
G03X90742Y112800I-398J1292D01*
G01Y115032D01*
X91855Y116141D01*
X91995Y116027D01*
G03X95059Y120434I1705J2083D01*
G02X94979Y121063I202J345D01*
G01X96588Y122662D01*
X99568D01*
Y118195D01*
X94430Y113049D01*
G03X94087Y112057I850J-849D01*
G01X94088Y112045D01*
Y111202D01*
X92340D01*
G03X91760Y111071I1J-1352D01*
G01X91720Y111052D01*
X89935D01*
G37*
G36*
G01X138695Y13665D02*
X129292Y23076D01*
G02X129575Y23758I283J282D01*
G01X131615D01*
X140788Y14593D01*
G02X140463Y13912I-283J-283D01*
G03X138815Y13709I-384J-3672D01*
G01X138695Y13665D01*
G37*
G36*
G01X118456Y13559D02*
X115173Y16835D01*
G02X115456Y17519I282J284D01*
G01X117518D01*
X120422Y14614D01*
G02X120134Y13932I-283J-282D01*
G03X118582Y13614I-52J-3692D01*
G01X118456Y13559D01*
G37*
G36*
G01X123138Y4010D02*
G02X122855Y4692I0J400D01*
G01X125776Y7621D01*
X125775Y11441D01*
G02X126458Y11724I400J0D01*
G01X126628Y11554D01*
X126587Y11436D01*
G03X128650Y13644I3493J-1196D01*
G01X128526Y13592D01*
X121104Y21014D01*
G02X121387Y21696I283J282D01*
G01X126736D01*
X136698Y11726D01*
X136649Y11604D01*
G03X140303Y6555I3431J-1364D01*
G02X140609Y5872I24J-399D01*
G01X138740Y4010D01*
X123138D01*
G37*
G36*
G01X120312Y44166D02*
Y53068D01*
X122022D01*
Y54268D01*
X124318D01*
Y52838D01*
X125692D01*
X129828Y48702D01*
Y44166D01*
X120312D01*
G37*
G36*
G01X136398Y51356D02*
X136152Y51458D01*
Y51582D01*
X130348D01*
X129122Y52808D01*
Y56238D01*
X131912Y59021D01*
Y68864D01*
G02X132253Y69005I200J0D01*
G01X132338Y68919D01*
Y65798D01*
X137744D01*
X139158Y64384D01*
Y54116D01*
X136398Y51356D01*
G37*
G36*
G01X141525Y51582D02*
G02X141242Y52264I0J400D01*
G01X141942Y52964D01*
Y65536D01*
X137886Y69592D01*
X137742D01*
Y70602D01*
X134621D01*
X134082Y71141D01*
Y75073D01*
G02X134764Y75356I400J0D01*
G01X148098Y62013D01*
Y58212D01*
X146898D01*
Y53398D01*
X145082Y51582D01*
X141525D01*
G37*
G36*
G01X122022Y56672D02*
Y57872D01*
X116618D01*
Y57870D01*
X116372Y57767D01*
X115155Y58984D01*
X115188Y59097D01*
G03X114955Y61145I-2588J743D01*
G02X115305Y61738I350J193D01*
G01X116614D01*
X116618Y61734D01*
Y58668D01*
X122022D01*
Y63472D01*
X118816D01*
X118541Y63747D01*
G02X118682Y64088I141J141D01*
G01X125628D01*
X128826Y67287D01*
G02X129509Y67004I283J-283D01*
G01X129508Y60019D01*
X127727Y58242D01*
X124318D01*
Y56672D01*
X122022D01*
G37*
G36*
G01X115241Y66492D02*
G02X114899Y67100I-1J400D01*
G03X114681Y70207I-2299J1400D01*
G01X114566Y70347D01*
X117898Y73678D01*
X122308D01*
X126856Y78227D01*
G02X127539Y77944I283J-283D01*
G01X127538Y69398D01*
X124632Y66492D01*
X115241D01*
G37*
G36*
G01X115494Y74674D02*
G02X114822Y74866I-283J283D01*
G03X113681Y76504I-2622J-610D01*
G01X113592Y76563D01*
Y78008D01*
X113912D01*
Y81417D01*
X117012Y84507D01*
Y90064D01*
G02X117479Y90459I400J1D01*
G03X117715Y90438I241J1371D01*
G01X118487D01*
X118358Y80052D01*
X116828D01*
Y76008D01*
X115494Y74674D01*
G37*
G36*
G01X114511Y129201D02*
G02X113831Y129526I-282J283D01*
G03X112982Y132301I-3671J394D01*
G02X113288Y132958I306J257D01*
G01X117032D01*
G02X117338Y132301I0J-400D01*
G03X116716Y131249I2823J-2379D01*
G01X116666Y131122D01*
X116432D01*
X114511Y129201D01*
G37*
G36*
G01X133334Y126938D02*
G02X133024Y127590I0J400D01*
G03X131960Y133143I-2864J2330D01*
G02X131758Y133444I195J349D01*
G01X131626Y133311D01*
X131504Y133359D01*
G03X127830Y132784I-1344J-3439D01*
G01X127690Y132670D01*
X126211Y134148D01*
G02X126494Y134831I283J283D01*
G01X131580D01*
X136467Y129944D01*
X136468Y129863D01*
G03X137296Y127590I3692J57D01*
G02X136986Y126938I-310J-252D01*
G01X133334D01*
G37*
G36*
G01X123334D02*
G02X123024Y127590I0J400D01*
G03X122982Y132301I-2864J2330D01*
G02X123288Y132958I306J257D01*
G01X124002D01*
X126506Y130455D01*
X126494Y130359D01*
G03X126721Y128576I3666J-439D01*
G01X126769Y128454D01*
X126630Y128315D01*
G02X126940Y128113I-38J-398D01*
G03X127296Y127590I3219J1808D01*
G02X126986Y126938I-310J-252D01*
G01X126013D01*
G02X125615Y127300I0J400D01*
G01X125252Y126938D01*
X123334D01*
G37*
G36*
G01X145602Y44166D02*
Y48702D01*
X149708Y52808D01*
X151702D01*
Y54308D01*
X154018D01*
Y53068D01*
X155518D01*
Y44166D01*
X145602D01*
G37*
G36*
G01X145614Y98178D02*
G02X144966Y98297I-283J283D01*
G03X144678Y98715I-1271J-567D01*
G03X144068Y101041I-983J985D01*
G01X143922Y101081D01*
Y108851D01*
X140936Y111836D01*
G02X141219Y112519I283J283D01*
G01X141263D01*
G02X141944Y112772I399J-30D01*
G01X147988Y106721D01*
Y103598D01*
X151130D01*
X151788Y102942D01*
Y101132D01*
X147988D01*
Y99632D01*
X147067D01*
X145614Y98178D01*
G37*
G36*
G01X147988Y93252D02*
G02X147306Y92980I-400J11D01*
G01X145560Y94726D01*
X147306Y96472D01*
G02X147988Y96189I282J-283D01*
G01Y95728D01*
X151788D01*
Y93252D01*
X147988D01*
G37*
G36*
G01X149388Y85382D02*
X144580Y90189D01*
G02X144602Y90775I283J283D01*
G03X144939Y91206I-906J1056D01*
G02X145579Y91309I357J-180D01*
G01X147539Y89348D01*
X147988D01*
Y87848D01*
X151788D01*
Y86038D01*
X151130Y85382D01*
X149388D01*
G37*
%LPC*%
G75*
G36*
G01X194612Y92178D02*
X189808D01*
Y97582D01*
X190808D01*
Y101078D01*
X189238D01*
Y105882D01*
X194642D01*
Y101078D01*
X193612D01*
Y97582D01*
X194612D01*
Y96282D01*
X197298D01*
Y97682D01*
X202702D01*
Y92878D01*
X197298D01*
Y93478D01*
X194612D01*
Y92178D01*
G37*
G36*
G01X194832Y83508D02*
X189428D01*
Y88312D01*
X194832D01*
Y87312D01*
X195658D01*
X197298Y88956D01*
Y92082D01*
X202702D01*
Y91082D01*
X203471D01*
X204647Y89905D01*
G03X204988Y90046I141J141D01*
G01Y90132D01*
X206288D01*
Y92208D01*
X205038D01*
Y97612D01*
X209842D01*
Y92208D01*
X209092D01*
Y90132D01*
X210392D01*
Y85328D01*
X204988D01*
Y86328D01*
X204259D01*
X203043Y87545D01*
G03X202702Y87404I-141J-141D01*
G01Y87278D01*
X199584D01*
X196822Y84508D01*
X194832D01*
Y83508D01*
G37*
G36*
G01X187342Y83058D02*
X182538D01*
Y88462D01*
X185208D01*
Y92178D01*
X184208D01*
Y97582D01*
X185208D01*
Y101238D01*
X182328D01*
Y106642D01*
X187132D01*
Y103521D01*
X188012Y102641D01*
Y97582D01*
X189012D01*
Y92178D01*
X188012D01*
Y86862D01*
X187342Y86188D01*
Y83058D01*
G37*
G36*
G01X194132Y70128D02*
X189328D01*
Y75532D01*
X190728D01*
Y77908D01*
X189428D01*
Y82712D01*
X194832D01*
Y77908D01*
X193532D01*
Y75532D01*
X194132D01*
Y70128D01*
G37*
G36*
G01X225027Y71423D02*
G02Y68337I5093J-1543D01*
G01X224984Y68478D01*
X219359D01*
X208109Y79728D01*
X206211D01*
X199732Y73249D01*
Y70128D01*
X194928D01*
Y75532D01*
X198049D01*
X204988Y82471D01*
Y84532D01*
X210392D01*
Y81411D01*
X220521Y71282D01*
X224984D01*
X225027Y71423D01*
G37*
%LPD*%
G75*
G54D10*
X10080Y10240D03*
X20080D03*
X20160Y129920D03*
X10160D03*
X50080Y10240D03*
X30080D03*
X40080D03*
X40160Y129920D03*
X50160D03*
X30160D03*
X80080Y10240D03*
X70080D03*
X60080D03*
X70160Y129920D03*
X80160D03*
X60160D03*
X110080Y10240D03*
X100080D03*
X90080D03*
X90160Y129920D03*
X110160D03*
X100160D03*
X140080Y10240D03*
X130080D03*
X120080D03*
X130160Y129920D03*
X140160D03*
X120160D03*
X150080Y10240D03*
X160160Y129920D03*
X150160D03*
G54D20*
X69690Y82280D03*
X71660D03*
X73630D03*
X75600D03*
X77570D03*
X79540D03*
X77570Y115750D03*
X75600D03*
X73630D03*
X71660D03*
X69690D03*
X67720D03*
X81510Y82280D03*
X83480D03*
X87420D03*
X89390D03*
Y115750D03*
X87420D03*
X85450D03*
X83480D03*
X81510D03*
G54D11*
X19690Y19690D03*
X9840Y98430D03*
X39690Y19290D03*
X49141Y48360D03*
X49210Y39370D03*
X39370Y37400D03*
X29530D03*
X38430Y30576D03*
X29925D03*
X25666Y64584D03*
X44490Y57480D03*
X31100Y53150D03*
X34743Y79560D03*
X25666Y78312D03*
X34743Y71760D03*
X47576Y84552D03*
X35040Y106690D03*
X34743Y87048D03*
X44490Y115350D03*
X52360Y19290D03*
X81890Y19270D03*
X74800Y22830D03*
X56340Y48360D03*
Y39312D03*
X77000Y54914D03*
X53540Y57480D03*
X67295Y53040D03*
X61035Y84552D03*
X69590Y93410D03*
X79920Y91730D03*
X76770Y108270D03*
X71650D03*
X78740Y98430D03*
X59060Y120080D03*
X100390Y24020D03*
X106300Y49610D03*
X103940Y59840D03*
X100786Y77064D03*
X88980Y103540D03*
X94526Y82680D03*
X87800Y90940D03*
X83070Y104330D03*
X101970Y112990D03*
X105510Y132680D03*
X93700Y118110D03*
X95280Y132680D03*
X141730Y20080D03*
X125980Y31500D03*
X115350Y46850D03*
X124410Y47640D03*
X118110Y29530D03*
X112200Y74256D03*
X112600Y68500D03*
Y59840D03*
X137010Y55510D03*
X125200Y72050D03*
X126380Y61420D03*
X137800Y78740D03*
X138980Y103940D03*
X123230Y85830D03*
Y109840D03*
X130710Y95670D03*
X133460Y98430D03*
X127950Y92910D03*
X133460D03*
X137800Y108270D03*
X127950Y98430D03*
X137800Y88580D03*
X126765Y120744D03*
X112990Y117375D03*
X112600Y121260D03*
X167320Y19690D03*
Y9840D03*
X157480D03*
X157752Y24024D03*
X148430Y31500D03*
X163780Y48430D03*
X150790Y48030D03*
X166203Y29640D03*
X157480Y29530D03*
X144293Y61420D03*
X167320Y78740D03*
X157480D03*
X167320Y68900D03*
X157480D03*
X145280Y72440D03*
X169290Y60630D03*
X171860Y108870D03*
X161810Y106300D03*
Y82680D03*
X146060Y103940D03*
X166930Y87010D03*
X144090Y82680D03*
X142520Y120520D03*
X167320Y127950D03*
Y118110D03*
X157480D03*
X147640D03*
X196850Y19690D03*
X187010D03*
X177170D03*
X196850Y9840D03*
X187010D03*
X177170D03*
X196850Y49210D03*
X187010D03*
X177170D03*
X196850Y39370D03*
X187010D03*
X177170D03*
X196850Y29530D03*
X187010D03*
X177170D03*
X177460Y72150D03*
X196850Y78740D03*
X187010D03*
Y68900D03*
X196850Y59060D03*
X187010D03*
X177170D03*
X196850Y108270D03*
X185040Y109450D03*
X179130D03*
X200000Y100790D03*
X177170Y98430D03*
X191940Y113980D03*
X196850Y127950D03*
X187010D03*
X177170D03*
X196850Y118110D03*
X187010D03*
X177170D03*
X216540Y19690D03*
X206690D03*
X216540Y9840D03*
X206690D03*
X226380Y49210D03*
X216540D03*
X206690D03*
X226380Y39370D03*
X216540D03*
X206690D03*
X226380Y29530D03*
X216540D03*
X206690D03*
X215344Y68952D03*
X206690Y68900D03*
Y59060D03*
X213040Y101140D03*
X226380Y108270D03*
X216540D03*
X206690D03*
X226380Y98430D03*
Y88580D03*
X216540D03*
X226380Y127950D03*
X216540D03*
X206690D03*
X226380Y118110D03*
X216540D03*
X206690D03*
G54D30*
G01X39690Y19290D02*
X32370D01*
X17215Y34445D01*
Y82975D01*
X28464Y94224D01*
X47582D01*
X53200Y88606D01*
Y88560D01*
G01X47600Y84576D02*
X47576Y84552D01*
G01X47600Y88560D02*
Y84576D01*
G01X53200Y88560D02*
Y80680D01*
G01X102042Y29296D02*
Y25672D01*
X100390Y24020D01*
G01X102042Y41096D02*
Y37144D01*
X116098Y23088D01*
G01X100939Y54720D02*
Y42199D01*
X102042Y41096D01*
G01X109339Y52649D02*
X106300Y49610D01*
G01X100790Y64170D02*
Y62990D01*
X103940Y59840D01*
G01X100939Y54720D02*
Y56839D01*
X103940Y59840D01*
G01X100790Y54869D02*
X100939Y54720D01*
G01X109339D02*
Y52649D01*
G01X135040Y68200D02*
X132680Y70560D01*
Y88090D01*
G01X138560Y114920D02*
Y112230D01*
X142520Y108270D01*
Y101280D01*
X140940Y99700D01*
X138390D01*
G01Y93800D02*
X138380Y93790D01*
G01X138560Y114920D02*
X141780D01*
X150390Y106300D01*
G01X141730Y20080D02*
X162600D01*
X170470Y27950D01*
Y52360D01*
X161770Y61070D01*
X156720D01*
G01X155990Y82680D02*
X161810D01*
G01X155990Y98430D02*
X162600D01*
X163780Y97240D01*
G01X171860Y98360D02*
X170740Y97240D01*
X163780D01*
G01X172070Y90990D02*
X171420Y91640D01*
X163780D01*
G01X155990Y90550D02*
X162690D01*
X163780Y91650D01*
Y91640D01*
G01X177460Y72150D02*
Y77890D01*
G01X197330Y72830D02*
X206630Y82130D01*
X207690D01*
G01X172070Y85390D02*
Y78110D01*
X171860Y77890D01*
G01X191730Y72830D02*
X192130Y73230D01*
Y80310D01*
G01X184730Y103940D02*
X186610Y102060D01*
Y94880D01*
G01D02*
Y87440D01*
X184940Y85760D01*
G01X207690Y87730D02*
X204840D01*
X202890Y89680D01*
X200000D01*
G01D02*
X196240Y85910D01*
X192130D01*
G01X179130Y103940D02*
X177430D01*
X171860Y98360D01*
G01X171420Y91650D02*
X172070Y90990D01*
G01D02*
X177300Y85760D01*
X179340D01*
G01X200000Y95280D02*
X199610Y94880D01*
X192210D01*
G01D02*
Y103200D01*
X191940Y103480D01*
G01X207690Y82130D02*
X219940Y69880D01*
X230120D01*
G01X207690Y87730D02*
Y94660D01*
X207440Y94910D01*
G54D12*
X17633Y112600D03*
X235040Y14960D03*
G54D21*
X61820Y109850D03*
Y107880D03*
Y105910D03*
Y101970D03*
Y100000D03*
Y98030D03*
Y96060D03*
Y94090D03*
Y92120D03*
Y90150D03*
Y88180D03*
X95290D03*
Y90150D03*
Y92120D03*
Y94090D03*
Y96060D03*
Y98030D03*
Y100000D03*
Y103940D03*
Y105910D03*
Y107880D03*
Y109850D03*
G54D31*
G01X44490Y57480D02*
Y63300D01*
G01X47600Y80680D02*
X47576Y80704D01*
G01D02*
Y84552D01*
G01X62990Y19290D02*
Y29130D01*
G01X52360Y19290D02*
X62990D01*
G01D02*
X73400D01*
X73420Y19270D01*
X81890D01*
G01X53200Y80680D02*
X66110D01*
X67720Y82280D01*
G01X53540Y57480D02*
Y63300D01*
G01X66241Y88180D02*
X72040D01*
X74800Y90940D01*
Y100000D01*
G01X89231Y109850D02*
X87337D01*
X87327Y109840D01*
X83860D01*
X74800Y100790D01*
Y100000D01*
G01X100390Y24020D02*
X103818Y20592D01*
X119558D01*
X129170Y10980D01*
X129330D01*
X130080Y10240D01*
G01X100790Y24410D02*
X100390Y24020D01*
G01X116098Y23088D02*
X127313D01*
X140080Y10310D01*
Y10240D01*
G01X103940Y59840D02*
X107614D01*
X110895Y63130D01*
X117190D01*
X119250Y61070D01*
X119320D01*
G01X135040Y68200D02*
X137310D01*
X140550Y64960D01*
Y53540D01*
X137800Y50790D01*
Y24020D01*
X141730Y20080D01*
G01X112200Y74256D02*
Y80010D01*
X111500Y80710D01*
G01X138390Y99700D02*
X138380D01*
G01D02*
X138390Y99690D01*
Y97740D01*
X138380Y97730D01*
G01X111500Y80710D02*
X111510D01*
G01X150390Y82680D02*
Y67390D01*
X156720Y61070D01*
G01X150390Y82680D02*
X153180Y85460D01*
Y103520D01*
X150390Y106300D01*
G54D22*
X61820Y103940D03*
X95290Y101970D03*
G54D13*
X32372Y45280D03*
X69772D03*
X119110Y39430D03*
X156510D03*
G54D32*
G01X61820Y98030D02*
X53836D01*
X52026Y99840D01*
X25648D01*
X9077Y83283D01*
Y25173D01*
X20080Y14170D01*
Y10240D01*
G01X10080D02*
X6886Y13434D01*
Y83573D01*
X25010Y101712D01*
X53063D01*
X54775Y100000D01*
X61820D01*
G01X75600Y115750D02*
Y116920D01*
X75590Y116930D01*
Y122050D01*
X71904Y125736D01*
X67608D01*
X66043Y127295D01*
Y133220D01*
X63052Y136220D01*
X7512D01*
X2504Y131212D01*
Y9076D01*
X8761Y2808D01*
X139236D01*
X144606Y8158D01*
Y12476D01*
X132112Y24960D01*
X117030D01*
X107046Y34953D01*
Y44047D01*
X116140Y53150D01*
Y56300D01*
X112600Y59840D01*
G01X123030Y95760D02*
Y95765D01*
X123025Y95770D01*
X115060D01*
X113932Y94642D01*
Y86820D01*
X111664Y84552D01*
X109550D01*
X108611Y83613D01*
Y78312D01*
X107469Y77170D01*
X105272D01*
X103540Y75438D01*
Y69520D01*
X101350Y67320D01*
X98820D01*
X97030Y65536D01*
Y22158D01*
X100468Y18720D01*
X118016D01*
X124574Y12162D01*
Y8118D01*
X121186Y4720D01*
X9652D01*
X4382Y9990D01*
Y130581D01*
X8273Y134472D01*
X61978D01*
X64375Y132075D01*
Y126167D01*
X66671Y123864D01*
X70428D01*
X73620Y120672D01*
Y117325D01*
X73625Y117320D01*
X73630D01*
Y115750D01*
G01X61820Y92120D02*
X61810D01*
Y92125D01*
X61805Y92130D01*
X53119D01*
X49142Y96096D01*
X27210D01*
X13772Y82658D01*
Y33108D01*
X36521Y10350D01*
X39960D01*
X40080Y10240D01*
G01X30080D02*
Y14297D01*
X11581Y32796D01*
Y82966D01*
X26583Y97968D01*
X50713D01*
X54591Y94090D01*
X61820D01*
G01X50080Y10240D02*
Y13840D01*
X41080Y22830D01*
X33106D01*
X20345Y35603D01*
Y83280D01*
X29417Y92352D01*
X39756D01*
X41316Y90792D01*
Y78940D01*
X45380Y74880D01*
X66039D01*
X69690Y78513D01*
Y82280D01*
G01X10160Y129920D02*
X13390D01*
X17574Y125736D01*
X25844D01*
X33178Y118395D01*
Y113646D01*
X43240Y103584D01*
X53839D01*
X55453Y101970D01*
X61820D01*
G01X20160Y129920D02*
X24020D01*
X26498Y127439D01*
X35369Y118568D01*
Y114208D01*
X44121Y105456D01*
X54824D01*
X56340Y103940D01*
X61820D01*
G01X60080Y10240D02*
X56360D01*
X42520Y24080D01*
Y31100D01*
X47601Y36192D01*
X78883D01*
X81693Y39002D01*
Y71757D01*
X79530Y73925D01*
Y82270D01*
X79540Y82280D01*
G01X32372Y45280D02*
X38882Y51790D01*
X58220D01*
X66192Y59762D01*
X66227D01*
G01X71660Y82280D02*
X71655D01*
X71650Y82275D01*
Y77977D01*
X66681Y73008D01*
X48598D01*
X44490Y68900D01*
G01X31644Y59284D02*
Y59924D01*
X35056Y63336D01*
X38926D01*
X44490Y68900D01*
G01X37154Y59284D02*
X37562D01*
X42906Y53940D01*
X46060D01*
X50393Y58264D01*
Y65742D01*
X53540Y68900D01*
G01X30160Y129920D02*
X37247Y122833D01*
Y114819D01*
X40539Y111527D01*
X40550D01*
X44749Y107328D01*
X55404D01*
X56822Y105910D01*
X61820D01*
G01X40160Y129920D02*
Y121780D01*
X40170Y121770D01*
Y114960D01*
X42130Y113000D01*
Y112990D01*
X45920Y109200D01*
X56272D01*
X57592Y107880D01*
X61820D01*
G01X47576Y88536D02*
X47600Y88560D01*
G01X47576Y84552D02*
Y88536D01*
G01X61820Y109850D02*
X58506D01*
X57284Y111072D01*
X53523D01*
X51970Y112630D01*
Y127980D01*
X51930Y128150D01*
X50160Y129920D01*
G01X85450Y82280D02*
Y18130D01*
X82280Y14960D01*
X71650D01*
X70080Y13390D01*
Y10240D01*
G01X87420Y82280D02*
Y81510D01*
X87400Y81490D01*
Y17710D01*
X80080Y10390D01*
Y10240D01*
G01X83480Y82280D02*
X83460Y82260D01*
Y34250D01*
X80710Y31500D01*
X78740D01*
G01X71260D02*
X78740D01*
G01X51190Y29130D02*
Y32690D01*
X52760Y34250D01*
X68500D01*
X71260Y31500D01*
G01Y25900D02*
X71350D01*
G01X74800Y22830D02*
X75980D01*
G01X71350Y25900D02*
X74410Y22830D01*
G01D02*
X74800D01*
G01X75980D02*
X78740Y25590D01*
G01D02*
Y25900D01*
G01X73125Y59750D02*
X72466D01*
X71364Y58648D01*
Y46872D01*
X69772Y45280D01*
G01X60627Y59762D02*
X55822D01*
G01D02*
X53540Y57480D01*
G01X66227Y59762D02*
X71650Y65185D01*
Y72978D01*
X75590Y76910D01*
Y82270D01*
X75600Y82280D01*
G01X76380Y66930D02*
Y63005D01*
X73125Y59750D01*
G01X76380Y72530D02*
X77560Y73710D01*
Y81500D01*
X77570D01*
Y82280D01*
G01X53540Y68900D02*
X61810D01*
X62200Y68500D01*
G01X67800D02*
Y71626D01*
X73620Y77446D01*
Y82270D01*
X73630Y82280D01*
G01X61820Y88180D02*
X66241D01*
G01X74800Y100000D02*
X71650D01*
X67720Y103940D01*
Y115750D01*
G01X95290Y109850D02*
X89231D01*
G01X53200Y88560D02*
X53580Y88180D01*
X61820D01*
G01X61810Y90160D02*
X66340D01*
G01X71650Y108270D02*
X69690Y110240D01*
G01X61820Y96060D02*
X66930D01*
G01X79920Y91730D02*
X81500Y90160D01*
G01X69690Y110240D02*
Y115750D01*
G01X66340Y90160D02*
X69590Y93410D01*
G01X66930Y96060D02*
X69590Y93410D01*
G01X54720Y115350D02*
X67320D01*
X67720Y115750D01*
G01X71660D02*
Y117710D01*
X71650Y117720D01*
Y120144D01*
X69802Y121992D01*
X66035D01*
X60160Y127874D01*
Y129920D01*
G01X80160D02*
X79530Y129290D01*
Y115750D01*
X79540D01*
G01X70160Y129920D02*
X77560Y122520D01*
Y115750D01*
X77570D01*
G01X100080Y10240D02*
X99740D01*
X91396Y18584D01*
Y85783D01*
X89390Y87800D01*
X86255D01*
X83860Y90195D01*
Y98030D01*
X85830Y100000D01*
X95290D01*
G01X94526Y82680D02*
X94880Y82326D01*
Y81890D01*
X93274Y80284D01*
Y19346D01*
X97652Y14976D01*
X105494D01*
X110080Y10390D01*
Y10240D01*
G01X90080D02*
X89370Y10928D01*
Y81490D01*
X89390Y81510D01*
Y82280D01*
G01X95290Y88180D02*
X97969Y85501D01*
Y81039D01*
X95152Y78222D01*
Y20915D01*
X99210Y16848D01*
X113460D01*
X120080Y10240D01*
G01X106390Y64170D02*
X106430D01*
X107550Y65290D01*
X125130D01*
X128740Y68900D01*
Y88090D01*
G01X106390Y64170D02*
Y72440D01*
G01X95290Y90150D02*
X98595D01*
X100160Y88585D01*
Y80870D01*
X97240Y77950D01*
Y73620D01*
X98430Y72440D01*
X100790D01*
G01X109540Y98030D02*
X110630D01*
X112300Y99700D01*
X123030D01*
G01X105269Y88980D02*
X105168Y89081D01*
Y92664D01*
X103742Y94090D01*
X95290D01*
G01Y101970D02*
X90550D01*
X88980Y103540D01*
G01X101970Y120948D02*
Y118900D01*
X95280Y112200D01*
X95290Y112190D01*
Y109850D01*
G01X150160Y129920D02*
X149210D01*
X145026Y125736D01*
X120427D01*
X117340Y122649D01*
Y111662D01*
X116166Y110488D01*
X104377D01*
X99810Y105910D01*
X95290D01*
G01X160160Y129920D02*
X156301D01*
X150245Y123864D01*
X120818D01*
X118940Y121986D01*
Y109883D01*
X117941Y108888D01*
X105338D01*
X100390Y103930D01*
X98630D01*
X98620Y103940D01*
X95290D01*
G01X87800Y90940D02*
X87400Y91340D01*
Y96850D01*
X88580Y98030D01*
X95290D01*
G01X83070Y104330D02*
X86610Y107870D01*
G01X81500Y90160D02*
Y82280D01*
G01X86610Y107870D02*
X94130D01*
G01D02*
Y107880D01*
G01D02*
X95290D01*
G01Y92120D02*
X97240D01*
Y92130D01*
X100000D01*
X102038Y90079D01*
Y86230D01*
X103417Y84864D01*
X106734D01*
X107985Y86115D01*
Y93985D01*
X103940Y98030D01*
G01X95290Y96060D02*
X95326Y96096D01*
X99534D01*
X100786Y97348D01*
Y100772D01*
X105524Y105510D01*
X107090D01*
G01X105510Y132680D02*
X105910D01*
X107390Y134160D01*
X124500D01*
X128740Y129920D01*
X130160D01*
G01X107390Y113551D02*
X102531D01*
X101970Y112990D01*
G01X100160Y129920D02*
X97848Y127608D01*
X93897D01*
X92025Y125736D01*
X86906D01*
X83460Y122300D01*
Y115760D01*
X83470Y115750D01*
X83480D01*
G01X101970Y121260D02*
Y120948D01*
G01X90160Y129920D02*
X87400D01*
X81500Y124020D01*
Y117320D01*
X81510Y117310D01*
Y115750D01*
G01X107570Y121260D02*
X112600D01*
G01X85450Y115750D02*
X85430Y115770D01*
Y121344D01*
X87950Y123864D01*
X93283D01*
X95143Y125736D01*
X105976D01*
X110160Y129920D01*
G01X87420Y115750D02*
X87400Y115770D01*
Y120501D01*
X88891Y121992D01*
X94209D01*
X96093Y123864D01*
X110874D01*
X116930Y129920D01*
X120160D01*
G01X93700Y118110D02*
X92130D01*
X89760Y115750D01*
X89390D01*
G01X95280Y132680D02*
X98632Y136032D01*
X132078D01*
X138190Y129920D01*
X140160D01*
G01X119110Y39430D02*
Y55260D01*
X119320Y55470D01*
G01X132990Y47240D02*
X126720Y53510D01*
Y55540D01*
G01X119530Y77650D02*
X119690Y90550D01*
X120960Y91830D01*
X123030D01*
G01X126770Y88090D02*
Y79840D01*
X121810Y74880D01*
X117400D01*
X112600Y70080D01*
Y68500D01*
G01X126720Y55540D02*
X130710Y59520D01*
Y88090D01*
G01X126720Y55540D02*
X126660Y55470D01*
X119320D01*
G01X149300Y55510D02*
Y62510D01*
X134650Y77170D01*
Y88090D01*
X134640D01*
G01X112690Y105510D02*
X124900D01*
X126970Y103440D01*
G01X111500Y80710D02*
X115810Y85006D01*
Y93370D01*
X116240Y93800D01*
X123020D01*
X123030Y93790D01*
G01X130900Y103440D02*
Y109650D01*
X125630Y114920D01*
X125330D01*
G01X150390Y82680D02*
X141240Y91830D01*
X138380D01*
G01X130910Y103440D02*
X130900D01*
G01X130730Y114920D02*
Y113790D01*
X132870Y111650D01*
Y103440D01*
G01X130710Y95770D02*
X134840Y99900D01*
G01X128940Y103440D02*
Y97540D01*
G01X134840Y103440D02*
X135330Y103940D01*
G01X130710Y95770D02*
Y95760D01*
G01X134840Y99900D02*
Y103440D01*
G01X128940Y97540D02*
X130710Y95770D01*
G01X135330Y103940D02*
X138980D01*
G01X110869Y88980D02*
X110802Y89047D01*
Y93898D01*
X114635Y97740D01*
X123020D01*
X123030Y97730D01*
G01X138380Y95760D02*
X144895D01*
X147565Y98430D01*
X150390D01*
G01Y90550D02*
X148037D01*
X144797Y93790D01*
X138380D01*
G01X125330Y114920D02*
X128330Y117920D01*
X135560D01*
X138560Y114920D01*
G01X122810D02*
X125330D01*
G01X126452Y120942D02*
X126030Y120520D01*
G01X112990Y113926D02*
Y117375D01*
G01Y117621D02*
Y117375D01*
G01X126650Y120744D02*
X126452D01*
G01Y120942D02*
X126650Y120744D01*
G01X126566Y121056D02*
X126452Y120942D01*
G01X126650Y120744D02*
X126765D01*
G01X126452D02*
X126764Y121056D01*
G01D02*
X126977D01*
G01D02*
X127520Y120520D01*
G01D02*
X130730D01*
G01X126030D02*
X122810D01*
G01X142440Y31490D02*
X148420D01*
G01D02*
X148430Y31500D01*
G01X156720Y55470D02*
Y39630D01*
X156520Y39430D01*
X156510D01*
G01X142440Y47240D02*
X149300Y54100D01*
Y55510D01*
G01D02*
X156680D01*
X156720Y55470D01*
G01X147140Y93790D02*
X147150Y93800D01*
G54D23*
X102042Y41096D03*
Y29296D03*
G54D14*
X51190Y29130D03*
X62990D03*
G54D33*
G01X44490Y115350D02*
X49120D01*
G01X101110Y77388D02*
X101282Y77560D01*
G01X101110Y77388D02*
X100786Y77064D01*
G01X101110Y77630D02*
Y77388D01*
G01X101282Y77560D02*
X102360D01*
G01D02*
X105510Y80710D01*
G01D02*
X105910D01*
G01X132990Y31500D02*
X125980D01*
G01X132990Y31490D02*
Y31500D01*
G01X119530Y72050D02*
X125200D01*
G01X135040Y62600D02*
Y58270D01*
G01D02*
X137010Y56300D01*
G01Y55510D02*
X132350D01*
G01X137010Y56300D02*
Y55510D01*
G01X132350D02*
X132320Y55540D01*
G01X142520Y120520D02*
X138560D01*
G01X142440Y31500D02*
Y31490D01*
G01X144293Y61420D02*
X143700Y60827D01*
G01D02*
Y55510D01*
G01X155990Y106300D02*
X161810D01*
G01X171860Y108870D02*
Y103960D01*
G01X191940Y113980D02*
Y109080D01*
G01X213040Y101140D02*
Y94910D01*
G54D15*
X44490Y63300D03*
Y68900D03*
X78740Y25900D03*
Y31500D03*
X71260Y25900D03*
Y31500D03*
X76380Y72530D03*
Y66930D03*
X53540Y63300D03*
Y68900D03*
X119320Y55470D03*
Y61070D03*
X119530Y77650D03*
Y72050D03*
X135040Y68200D03*
Y62600D03*
X130730Y114920D03*
Y120520D03*
X122810D03*
Y114920D03*
X138560Y120520D03*
Y114920D03*
X156720Y55470D03*
Y61070D03*
X163780Y91640D03*
Y97240D03*
X171860Y103960D03*
Y98360D03*
X192130Y80310D03*
X200000Y89680D03*
Y95280D03*
X172070Y85390D03*
Y90990D03*
X192130Y85910D03*
X191940Y109080D03*
Y103480D03*
X207690Y82130D03*
Y87730D03*
G54D24*
X109339Y54720D03*
X100939D03*
G54D25*
X132990Y31490D03*
Y47240D03*
X142440D03*
Y31490D03*
G54D16*
X47600Y80680D03*
Y88560D03*
X49120Y115350D03*
X67800Y68500D03*
X62200D03*
X60627Y59762D03*
X66227D03*
X53200Y80680D03*
X78725Y59750D03*
X73125D03*
X53200Y88560D03*
X54720Y115350D03*
X106390Y64170D03*
X100790D03*
X106390Y72440D03*
X100790D03*
X111510Y80710D03*
X105910D03*
X110869Y88980D03*
X105269D03*
X109540Y98030D03*
X103940D03*
X107090Y105510D03*
X107390Y113551D03*
X107570Y120948D03*
X101970D03*
X132320Y55540D03*
X126720D03*
X112690Y105510D03*
X112990Y113551D03*
X149300Y55510D03*
X143700D03*
X155990Y98430D03*
X150390D03*
X155990Y90550D03*
X150390D03*
X155990Y82680D03*
X150390D03*
X155990Y106300D03*
X150390D03*
X197330Y72830D03*
X191730D03*
X177460Y77890D03*
X171860D03*
X184730Y103940D03*
X179130D03*
X192210Y94880D03*
X186610D03*
X184940Y85760D03*
X179340D03*
X213040Y94910D03*
X207440D03*
G54D26*
X121060Y99700D03*
Y97730D03*
Y95760D03*
Y93790D03*
Y91830D03*
X140350D03*
Y93790D03*
Y95760D03*
Y97730D03*
Y99700D03*
G54D17*
X31644Y59284D03*
X37154D03*
G54D27*
X126770Y86120D03*
X128740D03*
X130710D03*
X132680D03*
X134640D03*
X134840Y105410D03*
X132870D03*
X130900D03*
X128940D03*
X126970D03*
G54D18*
X34394Y78184D03*
G54D19*
X67720Y82280D03*
X79540Y115750D03*
X85450Y82280D03*
G54D28*
X130710Y95760D03*
G54D29*
X230120Y69880D03*
X220120Y79880D03*
X220200Y59570D03*
X240120Y79880D03*
Y59880D03*
M02*
